<svg width="24" height="24" viewBox="0 0 24 24" fill="none" xmlns="http://www.w3.org/2000/svg">
<path d="M17.0002 0H8.00024V16H22.0002V5C22.0002 3.67392 21.4735 2.40215 20.5358 1.46447C19.5981 0.526784 18.3263 0 17.0002 0V0Z" fill="black"/>
<path d="M4.39524 16.0611C4.59434 16.0204 4.79704 16 5.00024 16.0001H6.00024V0.100098C4.87088 0.330628 3.85585 0.944279 3.12694 1.83719C2.39803 2.73011 2.00001 3.84745 2.00024 5.0001V17.0251C2.6993 16.4977 3.52572 16.165 4.39524 16.0611Z" fill="black"/>
<path d="M22.0002 18H5.00024C4.20459 18 3.44153 18.3161 2.87892 18.8787C2.31631 19.4413 2.00024 20.2044 2.00024 21C2.00024 21.7956 2.31631 22.5587 2.87892 23.1213C3.44153 23.6839 4.20459 24 5.00024 24H17.0002C17.6569 24 18.307 23.8707 18.9137 23.6194C19.5203 23.3681 20.0715 22.9998 20.5358 22.5355C21.0001 22.0712 21.3684 21.52 21.6196 20.9134C21.8709 20.3068 22.0002 19.6566 22.0002 19V18Z" fill="black"/>
</svg>
