<svg width="24" height="24" viewBox="0 0 24 24" fill="none" xmlns="http://www.w3.org/2000/svg">
<g clip-path="url(#clip0_606_13447)">
<path d="M16 10.5107C17.3807 10.5107 18.5 9.39145 18.5 8.01074C18.5 6.63003 17.3807 5.51074 16 5.51074C14.6193 5.51074 13.5 6.63003 13.5 8.01074C13.5 9.39145 14.6193 10.5107 16 10.5107Z" fill="black"/>
<path d="M22.9997 16.0002C22.7345 16.0002 22.4802 16.1056 22.2926 16.2931C22.1051 16.4807 21.9997 16.735 21.9997 17.0002V19.0002C21.9997 19.7959 21.6837 20.5589 21.1211 21.1216C20.5585 21.6842 19.7954 22.0002 18.9998 22.0002H16.9998C16.7345 22.0002 16.4802 22.1056 16.2926 22.2931C16.1051 22.4807 15.9998 22.735 15.9998 23.0002C15.9998 23.2654 16.1051 23.5198 16.2926 23.7073C16.4802 23.8949 16.7345 24.0002 16.9998 24.0002H18.9998C20.3253 23.9986 21.5962 23.4713 22.5335 22.534C23.4709 21.5967 23.9982 20.3258 23.9997 19.0002V17.0002C23.9997 16.735 23.8944 16.4807 23.7068 16.2931C23.5193 16.1056 23.265 16.0002 22.9997 16.0002Z" fill="black"/>
<path d="M1 8C1.26522 8 1.51957 7.89464 1.70711 7.70711C1.89464 7.51957 2 7.26522 2 7V5C2 4.20435 2.31607 3.44129 2.87868 2.87868C3.44129 2.31607 4.20435 2 5 2H7C7.26522 2 7.51957 1.89464 7.70711 1.70711C7.89464 1.51957 8 1.26522 8 1C8 0.734784 7.89464 0.48043 7.70711 0.292893C7.51957 0.105357 7.26522 0 7 0L5 0C3.67441 0.00158786 2.40356 0.528882 1.46622 1.46622C0.528882 2.40356 0.00158786 3.67441 0 5L0 7C0 7.26522 0.105357 7.51957 0.292893 7.70711C0.48043 7.89464 0.734784 8 1 8Z" fill="black"/>
<path d="M7 22.0002H5C4.20435 22.0002 3.44129 21.6842 2.87868 21.1216C2.31607 20.5589 2 19.7959 2 19.0002V17.0002C2 16.735 1.89464 16.4807 1.70711 16.2931C1.51957 16.1056 1.26522 16.0002 1 16.0002C0.734784 16.0002 0.48043 16.1056 0.292893 16.2931C0.105357 16.4807 0 16.735 0 17.0002L0 19.0002C0.00158786 20.3258 0.528882 21.5967 1.46622 22.534C2.40356 23.4713 3.67441 23.9986 5 24.0002H7C7.26522 24.0002 7.51957 23.8949 7.70711 23.7073C7.89464 23.5198 8 23.2654 8 23.0002C8 22.735 7.89464 22.4807 7.70711 22.2931C7.51957 22.1056 7.26522 22.0002 7 22.0002Z" fill="black"/>
<path d="M18.9998 0H16.9998C16.7345 0 16.4802 0.105357 16.2926 0.292893C16.1051 0.48043 15.9998 0.734784 15.9998 1C15.9998 1.26522 16.1051 1.51957 16.2926 1.70711C16.4802 1.89464 16.7345 2 16.9998 2H18.9998C19.7954 2 20.5585 2.31607 21.1211 2.87868C21.6837 3.44129 21.9997 4.20435 21.9997 5V7C21.9997 7.26522 22.1051 7.51957 22.2926 7.70711C22.4802 7.89464 22.7345 8 22.9997 8C23.265 8 23.5193 7.89464 23.7068 7.70711C23.8944 7.51957 23.9997 7.26522 23.9997 7V5C23.9982 3.67441 23.4709 2.40356 22.5335 1.46622C21.5962 0.528882 20.3253 0.00158786 18.9998 0V0Z" fill="black"/>
<path d="M18.7068 17.2927L11.1208 9.70673C10.5582 9.14431 9.79525 8.82837 8.99976 8.82837C8.20426 8.82837 7.44134 9.14431 6.87876 9.70673L4.58576 11.9997C4.21066 12.3747 3.99987 12.8833 3.99976 13.4137V15.9997C3.99976 16.7954 4.31583 17.5584 4.87844 18.121C5.44104 18.6836 6.20411 18.9997 6.99976 18.9997H17.9998C18.1975 18.9997 18.3908 18.941 18.5552 18.8311C18.7196 18.7212 18.8478 18.5651 18.9234 18.3824C18.9991 18.1997 19.0189 17.9986 18.9803 17.8047C18.9418 17.6107 18.8466 17.4326 18.7068 17.2927Z" fill="black"/>
</g>
<defs>
<clipPath id="clip0_606_13447">
<rect width="24" height="24" fill="white"/>
</clipPath>
</defs>
</svg>
