<svg width="24" height="24" viewBox="0 0 24 24" fill="none" xmlns="http://www.w3.org/2000/svg">
<g clip-path="url(#clip0_606_13625)">
<path d="M24.009 4H-0.0090332C-0.00585866 2.93855 0.417822 1.92162 1.16923 1.1719C1.92063 0.422184 2.93851 0.000788962 3.99997 0L20 0C21.0614 0.000788962 22.0793 0.422184 22.8307 1.1719C23.5821 1.92162 24.0058 2.93855 24.009 4ZM23.454 6H0.533967C1.71477 7.72008 3.26986 9.15035 5.0825 10.1834C6.89514 11.2165 8.91825 11.8256 11 11.965V22H6.99997C6.73475 22 6.4804 22.1054 6.29286 22.2929C6.10532 22.4804 5.99997 22.7348 5.99997 23C5.99997 23.2652 6.10532 23.5196 6.29286 23.7071C6.4804 23.8946 6.73475 24 6.99997 24H17C17.2652 24 17.5195 23.8946 17.7071 23.7071C17.8946 23.5196 18 23.2652 18 23C18 22.7348 17.8946 22.4804 17.7071 22.2929C17.5195 22.1054 17.2652 22 17 22H13V11.965C15.0798 11.8249 17.101 11.2154 18.9115 10.1823C20.7221 9.14916 22.2751 7.71928 23.454 6Z" fill="black"/>
</g>
<defs>
<clipPath id="clip0_606_13625">
<rect width="24" height="24" fill="white"/>
</clipPath>
</defs>
</svg>
