<svg width="24" height="24" viewBox="0 0 24 24" fill="none" xmlns="http://www.w3.org/2000/svg">
<g clip-path="url(#clip0_606_13482)">
<path d="M6.99994 12.0003C7.00013 11.0206 7.28994 10.0628 7.83294 9.24728L2.84494 4.25928C1.00836 6.42043 0 9.16416 0 12.0003C0 14.8364 1.00836 17.5801 2.84494 19.7413L7.83294 14.7533C7.28994 13.9378 7.00013 12.98 6.99994 12.0003Z" fill="black"/>
<path d="M21.155 4.25928L16.167 9.24728C16.7101 10.0627 16.9999 11.0205 16.9999 12.0003C16.9999 12.98 16.7101 13.9379 16.167 14.7533L21.155 19.7413C22.9916 17.5801 23.9999 14.8364 23.9999 12.0003C23.9999 9.16416 22.9916 6.42043 21.155 4.25928Z" fill="black"/>
<path d="M12 16.9995C11.0203 16.9993 10.0625 16.7095 9.24703 16.1665L4.25903 21.1545C6.42018 22.9911 9.16392 23.9994 12 23.9994C14.8362 23.9994 17.5799 22.9911 19.741 21.1545L14.753 16.1665C13.9376 16.7095 12.9798 16.9993 12 16.9995Z" fill="black"/>
<path d="M12 7.00043C12.9798 7.00062 13.9376 7.29043 14.753 7.83343L19.741 2.84543C17.5799 1.00885 14.8362 0.000488281 12 0.000488281C9.16392 0.000488281 6.42018 1.00885 4.25903 2.84543L9.24703 7.83343C10.0625 7.29043 11.0203 7.00062 12 7.00043Z" fill="black"/>
</g>
<defs>
<clipPath id="clip0_606_13482">
<rect width="24" height="24" fill="white"/>
</clipPath>
</defs>
</svg>
