<svg width="24" height="24" viewBox="0 0 24 24" fill="none" xmlns="http://www.w3.org/2000/svg">
<g clip-path="url(#clip0_606_13685)">
<path d="M2.31001 17.192L7.81001 22.692C7.04098 23.0052 6.19665 23.0845 5.38273 22.9201C4.56881 22.7557 3.82149 22.3548 3.23434 21.7676C2.64719 21.1805 2.2463 20.4332 2.08188 19.6192C1.91747 18.8053 1.99682 17.961 2.31001 17.192ZM7.32701 1.97996C7.58692 1.92692 7.81512 1.7728 7.9614 1.5515C8.10768 1.33021 8.16006 1.05987 8.10701 0.79996C8.05397 0.540048 7.89985 0.311852 7.67855 0.165574C7.45726 0.0192954 7.18692 -0.0330835 6.92701 0.0199598C4.24536 0.489755 1.84403 1.96511 0.213011 4.14496C0.0649893 4.35854 0.00591946 4.62135 0.0483133 4.87773C0.0907071 5.1341 0.231235 5.36391 0.440131 5.51847C0.649027 5.67303 0.909885 5.7402 1.16745 5.70576C1.42502 5.67132 1.65906 5.53797 1.82001 5.33396C3.15416 3.54729 5.12735 2.34553 7.32701 1.97996ZM23.2 16.023C22.941 15.9661 22.6701 16.0145 22.4467 16.1574C22.2234 16.3003 22.066 16.526 22.009 16.785C21.6291 18.9427 20.4434 20.8755 18.692 22.192C18.4777 22.3484 18.3344 22.5836 18.2935 22.8458C18.2526 23.108 18.3175 23.3757 18.474 23.59C18.6305 23.8043 18.8657 23.9476 19.1279 23.9885C19.39 24.0294 19.6577 23.9644 19.872 23.808C22.0122 22.1994 23.4715 19.8469 23.962 17.215C23.9903 17.0867 23.993 16.954 23.97 16.8247C23.947 16.6953 23.8988 16.5718 23.828 16.4611C23.7572 16.3504 23.6654 16.2547 23.5576 16.1795C23.4499 16.1044 23.3283 16.0512 23.2 16.023ZM20.167 5.24696L21.707 3.70696C21.8025 3.61471 21.8787 3.50437 21.9311 3.38236C21.9835 3.26036 22.0111 3.12914 22.0123 2.99636C22.0134 2.86358 21.9881 2.7319 21.9378 2.60901C21.8876 2.48611 21.8133 2.37446 21.7194 2.28057C21.6255 2.18667 21.5139 2.11242 21.391 2.06214C21.2681 2.01186 21.1364 1.98656 21.0036 1.98771C20.8708 1.98886 20.7396 2.01645 20.6176 2.06886C20.4956 2.12127 20.3853 2.19745 20.293 2.29296L18.751 3.83496C17.3704 2.73787 15.6813 2.09986 13.9202 2.01021C12.159 1.92055 10.4139 2.38374 8.92901 3.33496L3.42901 6.73496C2.78406 7.13355 2.23765 7.67288 1.83068 8.31258C1.42372 8.95227 1.16675 9.67575 1.07902 10.4288C0.991295 11.1819 1.07508 11.9451 1.32411 12.6612C1.57314 13.3773 1.98095 14.0278 2.51701 14.564L9.47601 21.523C10.0132 22.0603 10.6651 22.4688 11.3829 22.7179C12.1007 22.9669 12.8656 23.05 13.6201 22.9609C14.3746 22.8717 15.099 22.6127 15.739 22.2033C16.379 21.7938 16.9178 21.2446 17.315 20.597L20.915 14.721C21.7425 13.2452 22.1131 11.557 21.98 9.87035C21.8468 8.1837 21.2158 6.57457 20.167 5.24696Z" fill="black"/>
</g>
<defs>
<clipPath id="clip0_606_13685">
<rect width="24" height="24" fill="white"/>
</clipPath>
</defs>
</svg>
