<svg width="24" height="24" viewBox="0 0 24 24" fill="none" xmlns="http://www.w3.org/2000/svg">
<g clip-path="url(#clip0_606_13479)">
<path d="M14.0002 24.0003H10.0002C8.67465 23.9987 7.4038 23.4714 6.46646 22.5341C5.52913 21.5967 5.00183 20.3259 5.00024 19.0003V17.0003C5.00024 16.2046 5.31631 15.4416 5.87892 14.879C6.44153 14.3164 7.20459 14.0003 8.00024 14.0003H16.0002C16.7959 14.0003 17.559 14.3164 18.1216 14.879C18.6842 15.4416 19.0002 16.2046 19.0002 17.0003V19.0003C18.9987 20.3259 18.4714 21.5967 17.534 22.5341C16.5967 23.4714 15.3258 23.9987 14.0002 24.0003ZM17.0002 12.0003V10.0003C17.0002 9.73507 16.8949 9.48072 16.7074 9.29318C16.5198 9.10565 16.2655 9.00029 16.0002 9.00029H8.00024C7.73503 9.00029 7.48067 9.10565 7.29314 9.29318C7.1056 9.48072 7.00024 9.73507 7.00024 10.0003V12.0003H17.0002ZM15.0002 7.00029V1.41429C15.0003 1.17353 14.9388 0.936746 14.8216 0.726449C14.7043 0.516152 14.5353 0.339324 14.3305 0.212766C14.1256 0.0862076 13.8919 0.014124 13.6513 0.0033641C13.4108 -0.00739578 13.1715 0.0435255 12.9562 0.151289L10.3342 1.46229C9.93337 1.66257 9.59622 1.97056 9.36059 2.35173C9.12497 2.7329 9.00019 3.17217 9.00024 3.62029V7.00029H15.0002Z" fill="black"/>
</g>
<defs>
<clipPath id="clip0_606_13479">
<rect width="24" height="24" fill="white"/>
</clipPath>
</defs>
</svg>
