<svg width="24" height="24" viewBox="0 0 24 24" fill="none" xmlns="http://www.w3.org/2000/svg">
<g clip-path="url(#clip0_606_13322)">
<path d="M11.107 14.4472C11.1651 14.5657 11.2461 14.6715 11.3452 14.7586C11.4444 14.8457 11.5598 14.9123 11.6849 14.9545C11.8099 14.9968 11.9421 15.0139 12.0737 15.0048C12.2054 14.9957 12.334 14.9607 12.452 14.9017C12.5701 14.8427 12.6753 14.7609 12.7616 14.661C12.8479 14.5612 12.9136 14.4452 12.9549 14.3199C12.9961 14.1945 13.0122 14.0622 13.0021 13.9307C12.992 13.7991 12.9559 13.6708 12.896 13.5532L7.39603 2.55318C7.31299 2.38703 7.18532 2.2473 7.02733 2.14964C6.86934 2.05197 6.68727 2.00024 6.50153 2.00024C6.31579 2.00024 6.13372 2.05197 5.97573 2.14964C5.81774 2.2473 5.69007 2.38703 5.60703 2.55318L0.107031 13.5532C0.0471169 13.6708 0.0110728 13.7991 0.000977042 13.9307C-0.00911871 14.0622 0.00693358 14.1945 0.0482084 14.3199C0.0894832 14.4452 0.155164 14.5612 0.241464 14.661C0.327764 14.7609 0.432976 14.8427 0.551033 14.9017C0.669091 14.9607 0.797659 14.9957 0.929325 15.0048C1.06099 15.0139 1.19315 14.9968 1.31818 14.9545C1.44321 14.9123 1.55865 14.8457 1.65782 14.7586C1.757 14.6715 1.83796 14.5657 1.89603 14.4472L3.61903 11.0002H9.38303L11.107 14.4472ZM4.61903 9.00018L6.50003 5.23618L8.38303 9.00018H4.61903Z" fill="black"/>
<path d="M23.7068 11.2923C23.5193 11.1048 23.265 10.9995 22.9998 10.9995C22.7347 10.9995 22.4804 11.1048 22.2928 11.2923L12.9998 20.5853L8.70684 16.2923C8.61459 16.1968 8.50425 16.1206 8.38224 16.0682C8.26024 16.0158 8.12902 15.9882 7.99624 15.987C7.86346 15.9859 7.73178 16.0112 7.60888 16.0615C7.48599 16.1118 7.37433 16.186 7.28044 16.2799C7.18655 16.3738 7.1123 16.4854 7.06202 16.6083C7.01173 16.7312 6.98643 16.8629 6.98759 16.9957C6.98874 17.1285 7.01633 17.2597 7.06874 17.3817C7.12114 17.5037 7.19733 17.614 7.29284 17.7063L12.2928 22.7063C12.4804 22.8938 12.7347 22.9991 12.9998 22.9991C13.265 22.9991 13.5193 22.8938 13.7068 22.7063L23.7068 12.7063C23.8943 12.5188 23.9996 12.2645 23.9996 11.9993C23.9996 11.7341 23.8943 11.4798 23.7068 11.2923Z" fill="black"/>
</g>
<defs>
<clipPath id="clip0_606_13322">
<rect width="24" height="24" fill="white"/>
</clipPath>
</defs>
</svg>
