<svg width="24" height="24" viewBox="0 0 24 24" fill="none" xmlns="http://www.w3.org/2000/svg">
<path d="M20.467 17.2997C20.446 17.2697 18.91 15.4847 18.91 15.4847C19.4681 15.0736 19.8444 14.4615 19.9594 13.7779C20.0743 13.0943 19.9189 12.3928 19.526 11.8217C19.501 11.7857 17.641 9.73073 17.641 9.73073C18.1063 9.4961 18.4857 9.12059 18.725 8.65773C18.9309 8.26125 19.0234 7.81565 18.9924 7.36997C18.9613 6.9243 18.8079 6.49583 18.549 6.13173C18.528 6.09973 13.886 0.845731 13.886 0.845731C13.6425 0.590922 13.3499 0.388112 13.0258 0.249551C12.7018 0.110989 12.353 0.0395508 12.0005 0.0395508C11.6481 0.0395508 11.2993 0.110989 10.9752 0.249551C10.6511 0.388112 10.3585 0.590922 10.115 0.845731C10.115 0.845731 5.47302 6.09973 5.45102 6.12973C5.13649 6.55348 4.97726 7.0725 5.00002 7.59973C5.0024 7.97203 5.15203 8.32826 5.41623 8.59058C5.68042 8.85291 6.03771 9 6.41002 8.99973H12C12.2652 8.99973 12.5196 9.10509 12.7071 9.29262C12.8947 9.48016 13 9.73451 13 9.99973C13 10.2649 12.8947 10.5193 12.7071 10.7068C12.5196 10.8944 12.2652 10.9997 12 10.9997H5.20602C5.20602 10.9997 4.49902 11.7837 4.47402 11.8197C4.171 12.286 4.00663 12.8287 4.00002 13.3847C3.99361 13.5632 4.02461 13.741 4.09102 13.9067C4.23963 14.2418 4.48493 14.5249 4.79548 14.7196C5.10603 14.9143 5.46766 15.0119 5.83402 14.9997H13C13.2652 14.9997 13.5196 15.1051 13.7071 15.2926C13.8947 15.4802 14 15.7345 14 15.9997C14 16.2649 13.8947 16.5193 13.7071 16.7068C13.5196 16.8944 13.2652 16.9997 13 16.9997H3.78202C3.78202 16.9997 3.55402 17.2677 3.53302 17.2997C3.10329 17.9273 2.92635 18.6939 3.03759 19.4463C3.14884 20.1987 3.54007 20.8814 4.13302 21.3577C4.65767 21.7827 5.31491 22.0099 5.99002 21.9997H11V22.9997C11 23.2649 11.1054 23.5193 11.2929 23.7068C11.4804 23.8944 11.7348 23.9997 12 23.9997C12.2652 23.9997 12.5196 23.8944 12.7071 23.7068C12.8947 23.5193 13 23.2649 13 22.9997V21.9997H18.01C18.6871 22.0104 19.3462 21.7824 19.872 21.3557C20.4634 20.8786 20.8532 20.196 20.9635 19.4442C21.0738 18.6924 20.8965 17.9266 20.467 17.2997Z" fill="black"/>
</svg>
