<svg width="24" height="24" viewBox="0 0 24 24" fill="none" xmlns="http://www.w3.org/2000/svg">
<g clip-path="url(#clip0_606_13644)">
<path d="M0.586965 18.24C0.28816 18.8498 0.149537 19.5257 0.184157 20.2039C0.218776 20.8821 0.425499 21.5404 0.784846 22.1166C1.14419 22.6928 1.64433 23.1681 2.23814 23.4976C2.83194 23.8271 3.49986 24 4.17896 24H19.82C20.4991 24.0001 21.1672 23.8274 21.7611 23.4979C22.3551 23.1685 22.8554 22.6933 23.2148 22.117C23.5743 21.5407 23.7811 20.8824 23.8158 20.2042C23.8504 19.5259 23.7118 18.8499 23.413 18.24L22.806 17H1.19396L0.586965 18.24Z" fill="black"/>
<path d="M19.3771 10H4.62307L2.17407 15H21.8261L19.3771 10Z" fill="black"/>
<path d="M15.5931 2.27497C15.2639 1.60271 14.7528 1.0363 14.1177 0.640129C13.4826 0.24396 12.7491 0.0339355 12.0006 0.0339355C11.2521 0.0339355 10.5186 0.24396 9.88351 0.640129C9.24843 1.0363 8.73725 1.60271 8.4081 2.27497L5.6001 7.99998H18.4001L15.5931 2.27497Z" fill="black"/>
</g>
<defs>
<clipPath id="clip0_606_13644">
<rect width="24" height="24" fill="white"/>
</clipPath>
</defs>
</svg>
