<svg width="24" height="24" viewBox="0 0 24 24" fill="none" xmlns="http://www.w3.org/2000/svg">
<g clip-path="url(#clip0_606_13658)">
<path d="M3.00013 6.255V2.08898C2.97669 0.960281 3.87144 0.0256875 5.00015 0H9.00013C9.57697 0 10.0446 0.467625 10.0446 1.04452C10.0446 1.62141 9.57702 2.08903 9.00013 2.08903H6.43912L12.3451 8.26702C12.3857 8.31061 12.4426 8.33527 12.5021 8.33503C12.5613 8.33578 12.6179 8.31145 12.6581 8.26805L19.5441 1.089C20.5062 0.119016 21.8682 1.63102 20.9581 2.56402L14.0731 9.74002C13.6652 10.1722 13.0974 10.4174 12.5031 10.418C11.9078 10.4168 11.3392 10.1705 10.9311 9.73702L5.00015 3.53302V6.255C5.00015 6.80728 4.55244 7.25498 4.00016 7.25498C3.44788 7.25498 3.00013 6.80728 3.00013 6.255ZM22.4451 16.055C17.9562 11.377 6.04513 11.376 1.55615 16.055C0.541913 17.1117 -0.0168374 18.5244 0.000131348 19.989L0.0811313 21.163C0.0515063 22.6961 1.26716 23.9645 2.80012 24C2.84413 24 5.32312 23.664 5.32312 23.664C6.80076 23.5918 7.96387 22.3764 7.97113 20.897L8.12915 19.019C9.35737 18.5131 10.6718 18.2497 12.0001 18.243C13.3294 18.2622 14.6435 18.5287 15.8751 19.029L16.0311 20.897C16.0384 22.3764 17.2015 23.5918 18.6792 23.664C18.6792 23.664 21.1581 24 21.2022 24C22.7111 23.9754 23.9214 22.7451 23.9211 21.236L24.0001 19.919C24.0021 18.4789 23.4441 17.0944 22.4441 16.058L22.4451 16.055Z" fill="black"/>
</g>
<defs>
<clipPath id="clip0_606_13658">
<rect width="24" height="24" fill="white"/>
</clipPath>
</defs>
</svg>
