<svg width="24" height="24" viewBox="0 0 24 24" fill="none" xmlns="http://www.w3.org/2000/svg">
<g clip-path="url(#clip0_606_13417)">
<path d="M16.4238 21.9743C15.8441 22.7647 15.0425 23.3648 14.1208 23.6985C13.1992 24.0322 12.1992 24.0843 11.2478 23.8483C8.59493 23.1202 6.17708 21.7145 4.23183 19.7693C2.28659 17.8241 0.880884 15.4062 0.152827 12.7533C-0.082517 11.803 -0.0300103 10.8042 0.303674 9.88379C0.637358 8.96339 1.23715 8.16299 2.02683 7.5843C2.03713 11.3988 3.55748 15.054 6.25541 17.7507C8.95334 20.4473 12.6093 21.9659 16.4238 21.9743ZM23.8318 3.6743L17.3998 20.0003H16.9998C15.2766 20.0597 13.5596 19.7641 11.9555 19.1319C10.3514 18.4996 8.89441 17.5442 7.67519 16.3249C6.45598 15.1057 5.50054 13.6488 4.86827 12.0447C4.23599 10.4405 3.94039 8.72351 3.99983 7.0003V6.6003L20.2998 0.178303C20.7891 0.000630632 21.3187 -0.0344994 21.8271 0.076998C22.3355 0.188496 22.8018 0.442039 23.1718 0.80814C23.5418 1.17424 23.8002 1.63785 23.917 2.14506C24.0339 2.65227 24.0043 3.18223 23.8318 3.6733V3.6743ZM11.9998 10.0003C11.9998 9.46987 11.7891 8.96116 11.414 8.58609C11.039 8.21102 10.5303 8.0003 9.99983 8.0003C9.4694 8.0003 8.96069 8.21102 8.58562 8.58609C8.21054 8.96116 7.99983 9.46987 7.99983 10.0003C7.99983 10.5307 8.21054 11.0394 8.58562 11.4145C8.96069 11.7896 9.4694 12.0003 9.99983 12.0003C10.5303 12.0003 11.039 11.7896 11.414 11.4145C11.7891 11.0394 11.9998 10.5307 11.9998 10.0003ZM18.1218 12.7163L20.6758 6.2303C16.4158 4.7383 14.0578 10.9063 18.1218 12.7163Z" fill="black"/>
</g>
<defs>
<clipPath id="clip0_606_13417">
<rect width="24" height="24" fill="white"/>
</clipPath>
</defs>
</svg>
