<svg width="24" height="24" viewBox="0 0 24 24" fill="none" xmlns="http://www.w3.org/2000/svg">
<g clip-path="url(#clip0_606_13264)">
<path d="M23.925 18.1435C24.0498 18.8617 24.0161 19.5986 23.8261 20.3024C23.6362 21.0061 23.2947 21.6599 22.8255 22.2178C22.3563 22.7757 21.7707 23.2242 21.1099 23.532C20.4491 23.8398 19.729 23.9994 19 23.9995H16C15.7348 23.9995 15.4805 23.8942 15.2929 23.7066C15.1054 23.5191 15 23.2648 15 22.9995V20.4095C14.0457 20.7921 13.0281 20.9923 12 20.9995C10.9713 20.989 9.95369 20.7855 9.00004 20.3995V22.9995C9.00004 23.2648 8.89468 23.5191 8.70715 23.7066C8.51961 23.8942 8.26526 23.9995 8.00004 23.9995H5.00004C4.27107 23.9994 3.55095 23.8398 2.89014 23.532C2.22933 23.2242 1.64382 22.7757 1.17462 22.2178C0.705414 21.6599 0.363878 21.0061 0.173935 20.3024C-0.0160068 19.5986 -0.0497605 18.8617 0.0750394 18.1435L0.375039 16.4035C0.474797 15.8248 0.745634 15.2893 1.15262 14.8659C1.55961 14.4426 2.08409 14.1509 2.65842 14.0284C3.23276 13.906 3.83061 13.9584 4.37488 14.1789C4.91916 14.3994 5.3849 14.7779 5.71204 15.2655C6.97604 17.1235 9.40904 18.9995 12 18.9995C15.13 18.9995 18.214 16.2205 19.13 13.6235C19.2036 13.4283 19.3346 13.26 19.5058 13.1409C19.6771 13.0218 19.8805 12.9575 20.089 12.9565L20.521 12.9635C20.7147 12.9659 20.9068 12.9298 21.0864 12.8573C21.2659 12.7847 21.4292 12.6772 21.5668 12.541C21.7045 12.4048 21.8136 12.2425 21.888 12.0638C21.9624 11.885 22.0005 11.6932 22 11.4995C21.9997 11.1488 21.8764 10.8093 21.6517 10.54C21.427 10.2707 21.115 10.0887 20.77 10.0255C20.5573 9.98695 20.3628 9.88043 20.2156 9.72195C20.0685 9.56347 19.9767 9.36158 19.954 9.14654C19.8214 7.88213 19.3878 6.66788 18.6896 5.6054C17.9915 4.54291 17.049 3.66308 15.941 3.03954C15.6582 3.92474 15.2803 4.77671 14.814 5.58054C13.5161 7.4207 11.8227 8.94701 9.85804 10.0475C10.1575 10.1211 10.4271 10.2851 10.6299 10.5173C10.8328 10.7495 10.9592 11.0386 10.9919 11.3453C11.0246 11.6519 10.962 11.9612 10.8126 12.2309C10.6632 12.5007 10.4343 12.7179 10.1571 12.8529C9.87985 12.9879 9.56773 13.0342 9.26324 12.9854C8.95875 12.9367 8.67668 12.7952 8.45545 12.5804C8.23421 12.3656 8.08456 12.0878 8.02687 11.7849C7.96918 11.482 8.00625 11.1686 8.13304 10.8875C5.83386 11.8185 3.34784 12.1954 0.876039 11.9875C0.670011 11.9599 0.477709 11.8688 0.325876 11.7268C0.174044 11.5848 0.0702297 11.3991 0.0288708 11.1954C-0.0124881 10.9917 0.0106646 10.7801 0.095109 10.5902C0.179553 10.4002 0.321092 10.2413 0.500039 10.1355C1.10457 9.44965 1.55442 8.64169 1.81904 7.76654C3.12404 4.67354 5.10004 -0.000460274 12 -0.000460274C14.3544 -0.00603775 16.6348 0.821588 18.4376 2.3359C20.2403 3.85022 21.4492 5.95355 21.85 8.27354C22.4864 8.53958 23.03 8.98772 23.4125 9.56167C23.795 10.1356 23.9994 10.8098 24 11.4995C23.9983 12.3305 23.6949 13.1326 23.146 13.7565C23.153 13.7825 23.171 13.8035 23.176 13.8315L23.925 18.1435ZM16 11.4995C16 11.2029 15.9121 10.9129 15.7472 10.6662C15.5824 10.4195 15.3482 10.2273 15.0741 10.1137C14.8 10.0002 14.4984 9.97048 14.2074 10.0284C13.9164 10.0862 13.6492 10.2291 13.4394 10.4389C13.2296 10.6487 13.0867 10.9159 13.0289 11.2069C12.971 11.4979 13.0007 11.7995 13.1142 12.0736C13.2278 12.3477 13.42 12.5819 13.6667 12.7467C13.9134 12.9116 14.2034 12.9995 14.5 12.9995C14.8979 12.9995 15.2794 12.8415 15.5607 12.5602C15.842 12.2789 16 11.8974 16 11.4995Z" fill="black"/>
</g>
<defs>
<clipPath id="clip0_606_13264">
<rect width="24" height="24" fill="white"/>
</clipPath>
</defs>
</svg>
