<svg width="24" height="24" viewBox="0 0 24 24" fill="none" xmlns="http://www.w3.org/2000/svg">
<g clip-path="url(#clip0_606_13352)">
<path d="M22.7611 13.9704L20.3161 14.6164C19.9579 14.7108 19.6229 14.8779 19.3321 15.1074L16.7381 13.5994C17.0855 12.561 17.0855 11.4377 16.7381 10.3994L19.3321 8.89036C19.6229 9.1198 19.9579 9.28693 20.3161 9.38136C20.3161 9.38136 22.9331 10.0604 23.0161 10.0604C23.2554 10.0556 23.4851 9.96516 23.6634 9.80545C23.8417 9.64574 23.9568 9.42737 23.9878 9.19001C24.0188 8.95264 23.9636 8.71204 23.8323 8.51191C23.7009 8.31178 23.5022 8.1654 23.2721 8.09936L20.8281 7.45236C20.6451 7.40377 20.4888 7.28457 20.3936 7.12091C20.2983 6.95724 20.2719 6.76249 20.3201 6.57936L20.9671 4.13536C21.0007 4.00837 21.009 3.87601 20.9914 3.74582C20.9739 3.61563 20.9309 3.49018 20.8649 3.37661C20.7988 3.26304 20.7111 3.16359 20.6066 3.08394C20.5022 3.00428 20.3831 2.94598 20.2561 2.91236C20.1291 2.87874 19.9967 2.87047 19.8665 2.888C19.7363 2.90554 19.6109 2.94855 19.4973 3.01457C19.3838 3.08059 19.2843 3.16834 19.2046 3.27279C19.125 3.37725 19.0667 3.49637 19.0331 3.62336L18.3871 6.06736C18.2914 6.42594 18.2706 6.8004 18.3261 7.16736L15.7261 8.67736C15.0111 7.87141 14.055 7.31794 13.0001 7.09936V4.09936C13.3442 3.96421 13.6569 3.76002 13.9191 3.49936L15.7071 1.71136C15.8952 1.52385 16.0012 1.26928 16.0017 1.00363C16.0022 0.737985 15.8971 0.483034 15.7096 0.294862C15.5221 0.106691 15.2675 0.000714546 15.0018 0.000245703C14.7362 -0.00022314 14.4812 0.104854 14.2931 0.292362L12.5051 2.08036C12.3706 2.21337 12.1892 2.28797 12.0001 2.28797C11.811 2.28797 11.6295 2.21337 11.4951 2.08036L9.70707 0.292362C9.51847 0.110204 9.26587 0.00940999 9.00367 0.0116884C8.74147 0.0139668 8.49066 0.119136 8.30525 0.304544C8.11985 0.489952 8.01468 0.740764 8.0124 1.00296C8.01012 1.26516 8.11091 1.51776 8.29307 1.70636L10.0811 3.49936C10.3432 3.76002 10.656 3.96421 11.0001 4.09936V7.09936C9.9442 7.31605 8.98663 7.86815 8.27007 8.67336L5.67007 7.16336C5.72556 6.7964 5.70479 6.42194 5.60907 6.06336L4.96707 3.61936C4.93345 3.49237 4.87515 3.37325 4.7955 3.26879C4.71584 3.16434 4.61639 3.07659 4.50282 3.01057C4.38926 2.94455 4.2638 2.90154 4.13361 2.884C4.00343 2.86647 3.87106 2.87474 3.74407 2.90836C3.61708 2.94198 3.49796 3.00028 3.3935 3.07994C3.28905 3.15959 3.2013 3.25904 3.13528 3.37261C3.06926 3.48618 3.02625 3.61163 3.00871 3.74182C2.99118 3.87201 2.99945 4.00437 3.03307 4.13136L3.68007 6.57536C3.72825 6.75849 3.70183 6.95324 3.60659 7.11691C3.51136 7.28057 3.35509 7.39977 3.17207 7.44836L0.728071 8.09936C0.494056 8.16198 0.290729 8.30743 0.155867 8.50866C0.0210052 8.7099 -0.0362222 8.95325 -0.00518254 9.1935C0.0258571 9.43375 0.143053 9.65457 0.324632 9.81493C0.50621 9.97528 0.739825 10.0643 0.982071 10.0654C1.06707 10.0654 3.68207 9.38636 3.68207 9.38636C4.04028 9.29193 4.37523 9.1248 4.66607 8.89536L7.26207 10.3994C6.9146 11.4377 6.9146 12.561 7.26207 13.5994L4.66807 15.1074C4.37723 14.8779 4.04228 14.7108 3.68407 14.6164L1.23907 13.9704C0.990081 13.9219 0.73199 13.9699 0.517059 14.1046C0.302128 14.2393 0.14642 14.4507 0.0814656 14.6959C0.0165114 14.9411 0.047165 15.2018 0.167219 15.4253C0.287274 15.6487 0.487756 15.8182 0.728071 15.8994L3.17207 16.5464C3.35509 16.595 3.51136 16.7142 3.60659 16.8778C3.70183 17.0415 3.72825 17.2362 3.68007 17.4194L3.03307 19.8634C2.99945 19.9904 2.99118 20.1227 3.00871 20.2529C3.02625 20.3831 3.06926 20.5086 3.13528 20.6221C3.2013 20.7357 3.28905 20.8351 3.3935 20.9148C3.49796 20.9944 3.61708 21.0527 3.74407 21.0864C3.87106 21.12 4.00343 21.1283 4.13361 21.1107C4.2638 21.0932 4.38926 21.0502 4.50282 20.9842C4.61639 20.9181 4.71584 20.8304 4.7955 20.7259C4.87515 20.6215 4.93345 20.5023 4.96707 20.3754L5.61307 17.9314C5.70879 17.5728 5.72956 17.1983 5.67407 16.8314L8.27407 15.3214C8.989 16.1273 9.94513 16.6808 11.0001 16.8994V19.8994C10.656 20.0345 10.3432 20.2387 10.0811 20.4994L8.29307 22.2924C8.11091 22.481 8.01012 22.7336 8.0124 22.9958C8.01468 23.258 8.11985 23.5088 8.30525 23.6942C8.49066 23.8796 8.74147 23.9848 9.00367 23.987C9.26587 23.9893 9.51847 23.8885 9.70707 23.7064L11.5001 21.9184C11.6345 21.7854 11.816 21.7108 12.0051 21.7108C12.1942 21.7108 12.3756 21.7854 12.5101 21.9184L14.2981 23.7064C14.4867 23.8885 14.7393 23.9893 15.0015 23.987C15.2637 23.9848 15.5145 23.8796 15.6999 23.6942C15.8853 23.5088 15.9905 23.258 15.9927 22.9958C15.995 22.7336 15.8942 22.481 15.7121 22.2924L13.9241 20.5044C13.6609 20.2413 13.3464 20.0354 13.0001 19.8994V16.8994C14.0558 16.6829 15.0134 16.1312 15.7301 15.3264L18.3301 16.8364C18.2746 17.2033 18.2954 17.5778 18.3911 17.9364L19.0371 20.3804C19.105 20.6368 19.272 20.8558 19.5013 20.9892C19.7307 21.1225 20.0036 21.1593 20.2601 21.0914C20.5165 21.0235 20.7355 20.8565 20.8689 20.6271C21.0022 20.3978 21.039 20.1248 20.9711 19.8684L20.3241 17.4244C20.2759 17.2412 20.3023 17.0465 20.3976 16.8828C20.4928 16.7192 20.6491 16.6 20.8321 16.5514L23.2761 15.9044C23.4058 15.8734 23.5281 15.8169 23.6356 15.738C23.7432 15.6591 23.8339 15.5595 23.9023 15.445C23.9708 15.3306 24.0157 15.2036 24.0344 15.0715C24.053 14.9395 24.0451 14.805 24.011 14.676C23.9769 14.5471 23.9174 14.4263 23.8359 14.3207C23.7544 14.2151 23.6526 14.1269 23.5365 14.0612C23.4204 13.9955 23.2924 13.9538 23.1599 13.9383C23.0274 13.9229 22.8932 13.9341 22.7651 13.9714L22.7611 13.9704Z" fill="black"/>
</g>
<defs>
<clipPath id="clip0_606_13352">
<rect width="24" height="24" fill="white"/>
</clipPath>
</defs>
</svg>
