<svg width="24" height="24" viewBox="0 0 24 24" fill="none" xmlns="http://www.w3.org/2000/svg">
<g clip-path="url(#clip0_606_13665)">
<path d="M20.0441 1.02C24.2001 0.761 25.7101 9.091 21.5001 12.932C20.8909 13.5685 20.1622 14.0787 19.3558 14.4335C18.5494 14.7884 17.6809 14.9808 16.8001 15C15.4996 15.0207 14.2079 14.7828 13.0001 14.3V5.38C15.0181 3.134 17.5121 1.02 20.0441 1.02ZM12.0001 4C12.5305 4 13.0392 3.78929 13.4143 3.41421C13.7894 3.03914 14.0001 2.53043 14.0001 2C14.0001 1.46957 13.7894 0.960859 13.4143 0.585786C13.0392 0.210714 12.5305 0 12.0001 0C11.4697 0 10.961 0.210714 10.5859 0.585786C10.2108 0.960859 10.0001 1.46957 10.0001 2C10.0001 2.53043 10.2108 3.03914 10.5859 3.41421C10.961 3.78929 11.4697 4 12.0001 4ZM16.7911 17C15.1414 17.0086 13.5086 16.6678 12.0001 16C9.9001 17.11 4.8001 17.783 1.7871 14.975C1.37096 15.7569 1.11633 16.6146 1.03833 17.4969C0.960338 18.3792 1.06058 19.2682 1.3331 20.111C1.50145 20.6837 1.7952 21.2118 2.19303 21.6568C2.59085 22.1018 3.08278 22.4527 3.6331 22.684C4.16704 22.9125 4.74517 23.0192 5.32549 22.9963C5.90581 22.9735 6.47377 22.8217 6.9881 22.552C8.46675 21.7852 9.81966 20.7971 11.0001 19.622V22C11.0001 22.2652 11.1055 22.5196 11.293 22.7071C11.4805 22.8946 11.7349 23 12.0001 23C12.2653 23 12.5197 22.8946 12.7072 22.7071C12.8947 22.5196 13.0001 22.2652 13.0001 22V19.622C14.1824 20.7976 15.5373 21.7857 17.0181 22.552C17.5324 22.8217 18.1004 22.9735 18.6807 22.9963C19.261 23.0192 19.8392 22.9125 20.3731 22.684C20.9234 22.4527 21.4154 22.1018 21.8132 21.6568C22.211 21.2118 22.5048 20.6837 22.6731 20.111C22.9456 19.2682 23.0459 18.3792 22.9679 17.4969C22.8899 16.6146 22.6352 15.7569 22.2191 14.975C20.6997 16.2596 18.7806 16.9755 16.7911 17ZM7.2061 15C8.50457 15.0193 9.794 14.7813 11.0001 14.3V5.373C7.5201 1.116 0.239104 -2.567 0.00610352 7.284C0.0693797 9.42131 0.966725 11.4489 2.5061 12.933C3.74363 14.208 5.42997 14.9497 7.2061 15Z" fill="black"/>
</g>
<defs>
<clipPath id="clip0_606_13665">
<rect width="24" height="24" fill="white"/>
</clipPath>
</defs>
</svg>
