<svg width="24" height="24" viewBox="0 0 24 24" fill="none" xmlns="http://www.w3.org/2000/svg">
<g clip-path="url(#clip0_606_13331)">
<path d="M23.4141 0.58618C23.1632 0.339063 22.8522 0.16174 22.5118 0.071763C22.1713 -0.018214 21.8133 -0.0177255 21.4731 0.07318C19.0321 0.876896 16.8132 2.24097 14.9941 4.05618L5.51808 13.5312C4.14986 12.7938 2.67255 12.28 1.14208 12.0092C0.882462 11.9772 0.62065 12.0482 0.412786 12.207C0.204922 12.3658 0.0675555 12.5998 0.0301412 12.8587C-0.00727305 13.1175 0.058244 13.3808 0.212644 13.5919C0.367043 13.8031 0.598033 13.9453 0.856081 13.9882C2.80288 14.3532 4.63657 15.1708 6.20908 16.3752L2.50008 20.0852L1.70708 19.2922C1.61483 19.1967 1.50449 19.1205 1.38249 19.0681C1.26048 19.0157 1.12926 18.9881 0.996482 18.9869C0.863703 18.9858 0.732024 19.0111 0.609127 19.0614C0.486231 19.1116 0.374579 19.1859 0.280686 19.2798C0.186794 19.3737 0.11254 19.4853 0.0622595 19.6082C0.0119786 19.7311 -0.0133231 19.8628 -0.0121693 19.9956C-0.0110155 20.1284 0.0165708 20.2596 0.0689798 20.3816C0.121389 20.5036 0.197571 20.6139 0.293081 20.7062L3.29308 23.7062C3.38533 23.8017 3.49567 23.8779 3.61768 23.9303C3.73968 23.9827 3.8709 24.0103 4.00368 24.0114C4.13646 24.0126 4.26814 23.9873 4.39104 23.937C4.51393 23.8867 4.62558 23.8125 4.71948 23.7186C4.81337 23.6247 4.88762 23.513 4.9379 23.3901C4.98818 23.2672 5.01349 23.1356 5.01233 23.0028C5.01118 22.87 4.98359 22.7388 4.93118 22.6168C4.87877 22.4948 4.80259 22.3844 4.70708 22.2922L3.91408 21.4992L7.62308 17.7892C8.82831 19.3615 9.64608 21.1958 10.0101 23.1432C10.0447 23.381 10.1638 23.5984 10.3456 23.7556C10.5274 23.9128 10.7597 23.9993 11.0001 23.9992C11.0483 23.9995 11.0965 23.9958 11.1441 23.9882C11.4061 23.9503 11.6424 23.8101 11.8011 23.5982C11.9599 23.3864 12.0282 23.1203 11.9911 22.8582C11.7213 21.3274 11.2074 19.8499 10.4691 18.4822L19.9441 9.00618C21.7799 7.16132 23.1539 4.9088 23.9541 2.43218C24.027 2.10391 24.0158 1.76252 23.9214 1.43977C23.827 1.11702 23.6525 0.823382 23.4141 0.58618Z" fill="black"/>
</g>
<defs>
<clipPath id="clip0_606_13331">
<rect width="24" height="24" fill="white"/>
</clipPath>
</defs>
</svg>
