<svg width="24" height="24" viewBox="0 0 24 24" fill="none" xmlns="http://www.w3.org/2000/svg">
<g clip-path="url(#clip0_606_13589)">
<path d="M19 2.00002H9.95596C9.19418 1.99767 8.44207 2.1706 7.75782 2.50545C7.07357 2.84029 6.47553 3.32806 6.00996 3.93102L0.209962 11.386C0.0734069 11.5616 -0.000732422 11.7776 -0.000732422 12C-0.000732422 12.2224 0.0734069 12.4385 0.209962 12.614L6.00996 20.069C6.47553 20.672 7.07357 21.1598 7.75782 21.4946C8.44207 21.8294 9.19418 22.0024 9.95596 22H19C20.3256 21.9984 21.5964 21.4711 22.5337 20.5338C23.4711 19.5965 23.9984 18.3256 24 17V7.00002C23.9984 5.67443 23.4711 4.40358 22.5337 3.46624C21.5964 2.52891 20.3256 2.00161 19 2.00002ZM17.707 14.293C17.8025 14.3853 17.8787 14.4956 17.9311 14.6176C17.9835 14.7396 18.0111 14.8708 18.0122 15.0036C18.0134 15.1364 17.9881 15.2681 17.9378 15.391C17.8875 15.5139 17.8132 15.6255 17.7194 15.7194C17.6255 15.8133 17.5138 15.8876 17.3909 15.9378C17.268 15.9881 17.1363 16.0134 17.0036 16.0123C16.8708 16.0111 16.7396 15.9835 16.6176 15.9311C16.4956 15.8787 16.3852 15.8025 16.293 15.707L14 13.414L11.707 15.707C11.5184 15.8892 11.2658 15.99 11.0036 15.9877C10.7414 15.9854 10.4906 15.8803 10.3051 15.6948C10.1197 15.5094 10.0146 15.2586 10.0123 14.9964C10.01 14.7342 10.1108 14.4816 10.293 14.293L12.586 12L10.293 9.70702C10.1108 9.51842 10.01 9.26582 10.0123 9.00362C10.0146 8.74143 10.1197 8.49061 10.3051 8.30521C10.4906 8.1198 10.7414 8.01463 11.0036 8.01235C11.2658 8.01007 11.5184 8.11087 11.707 8.29302L14 10.586L16.293 8.29302C16.4816 8.11087 16.7342 8.01007 16.9964 8.01235C17.2586 8.01463 17.5094 8.1198 17.6948 8.30521C17.8802 8.49061 17.9854 8.74143 17.9876 9.00362C17.9899 9.26582 17.8891 9.51842 17.707 9.70702L15.414 12L17.707 14.293Z" fill="black"/>
</g>
<defs>
<clipPath id="clip0_606_13589">
<rect width="24" height="24" fill="white"/>
</clipPath>
</defs>
</svg>
