<svg width="24" height="24" viewBox="0 0 24 24" fill="none" xmlns="http://www.w3.org/2000/svg">
<g clip-path="url(#clip0_606_13543)">
<path d="M9 12C12.3137 12 15 9.31371 15 6C15 2.68629 12.3137 0 9 0C5.68629 0 3 2.68629 3 6C3 9.31371 5.68629 12 9 12Z" fill="black"/>
<path d="M9 13.9998C6.61395 14.0027 4.32645 14.9518 2.63925 16.639C0.952057 18.3262 0.00291096 20.6137 0 22.9997C0 23.2649 0.105357 23.5193 0.292893 23.7068C0.48043 23.8944 0.734784 23.9997 1 23.9997H17C17.2652 23.9997 17.5196 23.8944 17.7071 23.7068C17.8946 23.5193 18 23.2649 18 22.9997C17.9971 20.6137 17.0479 18.3262 15.3607 16.639C13.6735 14.9518 11.3861 14.0027 9 13.9998Z" fill="black"/>
<path d="M22 7.875C21.4434 7.90272 20.9206 8.14977 20.5457 8.56207C20.1709 8.97437 19.9747 9.51836 20 10.075C20.0252 9.51836 19.829 8.97437 19.4542 8.56207C19.0794 8.14977 18.5565 7.90272 18 7.875C17.4434 7.90272 16.9206 8.14977 16.5457 8.56207C16.1709 8.97437 15.9747 9.51836 16 10.075C16 11.805 18.256 13.832 19.38 14.734C19.5559 14.8749 19.7746 14.9516 20 14.9516C20.2253 14.9516 20.444 14.8749 20.62 14.734C21.744 13.834 23.9999 11.805 23.9999 10.075C24.0252 9.51836 23.829 8.97437 23.4542 8.56207C23.0794 8.14977 22.5565 7.90272 22 7.875Z" fill="black"/>
</g>
<defs>
<clipPath id="clip0_606_13543">
<rect width="24" height="24" fill="white"/>
</clipPath>
</defs>
</svg>
