<svg width="24" height="24" viewBox="0 0 24 24" fill="none" xmlns="http://www.w3.org/2000/svg">
<path d="M20.44 16.8545L18.959 14.6335C19.2015 14.4726 19.41 14.2654 19.5724 14.0239C19.7348 13.7823 19.848 13.5112 19.9055 13.2258C19.963 12.9405 19.9636 12.6466 19.9074 12.361C19.8513 12.0754 19.7393 11.8037 19.578 11.5615L17.487 8.42647C17.6701 8.25975 17.8242 8.06374 17.943 7.84647C18.1331 7.49761 18.2256 7.10395 18.2108 6.70694C18.196 6.30993 18.0745 5.92425 17.859 5.59048C17.834 5.55248 13.678 0.699483 13.678 0.699483C13.453 0.476607 13.1858 0.300869 12.8921 0.182566C12.5983 0.0642622 12.2839 0.00577198 11.9673 0.0105216C11.6506 0.0152713 11.3381 0.0831653 11.048 0.210226C10.758 0.337287 10.4962 0.520959 10.278 0.750483C10.278 0.750483 6.15198 5.55048 6.12798 5.58248C5.84052 6.02515 5.72082 6.55603 5.79051 7.07923C5.86019 7.60243 6.11467 8.08347 6.50798 8.43547L4.42198 11.5615C4.26067 11.8037 4.14872 12.0754 4.09252 12.361C4.03632 12.6466 4.03699 12.9405 4.09448 13.2258C4.15198 13.5112 4.26517 13.7823 4.42758 14.0239C4.58999 14.2654 4.79843 14.4726 5.04098 14.6335L3.55998 16.8545C3.22768 17.3527 3.03684 17.9318 3.0078 18.53C2.97876 19.1282 3.11261 19.7231 3.39509 20.2512C3.67756 20.7793 4.09807 21.2208 4.61176 21.5287C5.12546 21.8366 5.71308 21.9993 6.31198 21.9995H11V22.9995C11 23.2647 11.1053 23.519 11.2929 23.7066C11.4804 23.8941 11.7348 23.9995 12 23.9995C12.2652 23.9995 12.5196 23.8941 12.7071 23.7066C12.8946 23.519 13 23.2647 13 22.9995V21.9995H17.687C18.286 21.9995 18.8737 21.8369 19.3876 21.5291C19.9014 21.2213 20.3221 20.7797 20.6046 20.2516C20.8872 19.7235 21.0212 19.1285 20.9922 18.5303C20.9632 17.932 20.7723 17.3528 20.44 16.8545ZM12 3.99948C12.1978 3.99948 12.3911 4.05813 12.5556 4.16801C12.72 4.27789 12.8482 4.43407 12.9239 4.61679C12.9996 4.79952 13.0194 5.00059 12.9808 5.19457C12.9422 5.38855 12.8469 5.56673 12.7071 5.70658C12.5672 5.84644 12.3891 5.94168 12.1951 5.98026C12.0011 6.01885 11.8 5.99904 11.6173 5.92336C11.4346 5.84767 11.2784 5.7195 11.1685 5.55505C11.0586 5.3906 11 5.19726 11 4.99948C11 4.73426 11.1053 4.47991 11.2929 4.29237C11.4804 4.10484 11.7348 3.99948 12 3.99948ZM7.99998 18.9995C7.8022 18.9995 7.60886 18.9408 7.44441 18.8309C7.27996 18.7211 7.15179 18.5649 7.0761 18.3821C7.00042 18.1994 6.98061 17.9984 7.0192 17.8044C7.05778 17.6104 7.15303 17.4322 7.29288 17.2924C7.43273 17.1525 7.61091 17.0573 7.80489 17.0187C7.99888 16.9801 8.19994 16.9999 8.38267 17.0756C8.56539 17.1513 8.72157 17.2794 8.83145 17.4439C8.94134 17.6083 8.99998 17.8017 8.99998 17.9995C8.99998 18.2647 8.89463 18.519 8.70709 18.7066C8.51955 18.8941 8.2652 18.9995 7.99998 18.9995ZM7.99998 13.9995C7.8022 13.9995 7.60886 13.9408 7.44441 13.8309C7.27996 13.7211 7.15179 13.5649 7.0761 13.3822C7.00042 13.1994 6.98061 12.9984 7.0192 12.8044C7.05778 12.6104 7.15303 12.4322 7.29288 12.2924C7.43273 12.1525 7.61091 12.0573 7.80489 12.0187C7.99888 11.9801 8.19994 11.9999 8.38267 12.0756C8.56539 12.1513 8.72157 12.2794 8.83145 12.4439C8.94134 12.6083 8.99998 12.8017 8.99998 12.9995C8.99998 13.2647 8.89463 13.519 8.70709 13.7066C8.51955 13.8941 8.2652 13.9995 7.99998 13.9995ZM12 9.99947C11.8022 9.99947 11.6089 9.94082 11.4444 9.83094C11.28 9.72106 11.1518 9.56488 11.0761 9.38216C11.0004 9.19943 10.9806 8.99836 11.0192 8.80438C11.0578 8.6104 11.153 8.43222 11.2929 8.29237C11.4327 8.15251 11.6109 8.05727 11.8049 8.01869C11.9989 7.9801 12.1999 7.99991 12.3827 8.07559C12.5654 8.15128 12.7216 8.27945 12.8315 8.4439C12.9413 8.60835 13 8.80169 13 8.99947C13 9.26469 12.8946 9.51904 12.7071 9.70658C12.5196 9.89411 12.2652 9.99947 12 9.99947ZM16 11.9995C15.8022 11.9995 15.6089 11.9408 15.4444 11.8309C15.28 11.7211 15.1518 11.5649 15.0761 11.3822C15.0004 11.1994 14.9806 10.9984 15.0192 10.8044C15.0578 10.6104 15.153 10.4322 15.2929 10.2924C15.4327 10.1525 15.6109 10.0573 15.8049 10.0187C15.9989 9.9801 16.1999 9.9999 16.3827 10.0756C16.5654 10.1513 16.7216 10.2795 16.8315 10.4439C16.9413 10.6083 17 10.8017 17 10.9995C17 11.2647 16.8946 11.519 16.7071 11.7066C16.5196 11.8941 16.2652 11.9995 16 11.9995ZM16 17.9995C15.8022 17.9995 15.6089 17.9408 15.4444 17.8309C15.28 17.7211 15.1518 17.5649 15.0761 17.3821C15.0004 17.1994 14.9806 16.9984 15.0192 16.8044C15.0578 16.6104 15.153 16.4322 15.2929 16.2924C15.4327 16.1525 15.6109 16.0573 15.8049 16.0187C15.9989 15.9801 16.1999 15.9999 16.3827 16.0756C16.5654 16.1513 16.7216 16.2794 16.8315 16.4439C16.9413 16.6083 17 16.8017 17 16.9995C17 17.2647 16.8946 17.519 16.7071 17.7066C16.5196 17.8941 16.2652 17.9995 16 17.9995ZM12 15.9995C11.8022 15.9995 11.6089 15.9408 11.4444 15.8309C11.28 15.7211 11.1518 15.5649 11.0761 15.3821C11.0004 15.1994 10.9806 14.9984 11.0192 14.8044C11.0578 14.6104 11.153 14.4322 11.2929 14.2924C11.4327 14.1525 11.6109 14.0573 11.8049 14.0187C11.9989 13.9801 12.1999 13.9999 12.3827 14.0756C12.5654 14.1513 12.7216 14.2794 12.8315 14.4439C12.9413 14.6083 13 14.8017 13 14.9995C13 15.2647 12.8946 15.519 12.7071 15.7066C12.5196 15.8941 12.2652 15.9995 12 15.9995Z" fill="black"/>
</svg>
