<svg width="24" height="24" viewBox="0 0 24 24" fill="none" xmlns="http://www.w3.org/2000/svg">
<g clip-path="url(#clip0_606_13366)">
<path d="M21 6H18C18 4.4087 17.3679 2.88258 16.2426 1.75736C15.1174 0.632141 13.5913 0 12 0C10.4087 0 8.88258 0.632141 7.75736 1.75736C6.63214 2.88258 6 4.4087 6 6H3C2.20435 6 1.44129 6.31607 0.87868 6.87868C0.31607 7.44129 0 8.20435 0 9L0 19C0.00158786 20.3256 0.528882 21.5964 1.46622 22.5338C2.40356 23.4711 3.67441 23.9984 5 24H16.686C15.9908 23.5481 15.3968 22.957 14.9415 22.2641C14.4862 21.5711 14.1795 20.7913 14.0407 19.9739C13.9019 19.1564 13.934 18.319 14.135 17.5146C14.336 16.7102 14.7016 15.9562 15.2087 15.3002C15.7157 14.6441 16.3533 14.1003 17.081 13.703C17.8088 13.3057 18.611 13.0636 19.4371 12.9919C20.2631 12.9201 21.0951 13.0204 21.8804 13.2864C22.6658 13.5523 23.3875 13.9781 24 14.537V9C24 8.20435 23.6839 7.44129 23.1213 6.87868C22.5587 6.31607 21.7956 6 21 6ZM8 6C8 4.93913 8.42143 3.92172 9.17157 3.17157C9.92172 2.42143 10.9391 2 12 2C13.0609 2 14.0783 2.42143 14.8284 3.17157C15.5786 3.92172 16 4.93913 16 6H8Z" fill="black"/>
<path d="M22.9997 18H20.9997V16C20.9997 15.7348 20.8944 15.4804 20.7069 15.2929C20.5193 15.1054 20.265 15 19.9997 15C19.7345 15 19.4802 15.1054 19.2926 15.2929C19.1051 15.4804 18.9998 15.7348 18.9998 16V18H16.9998C16.7345 18 16.4802 18.1054 16.2926 18.2929C16.1051 18.4804 15.9998 18.7348 15.9998 19C15.9998 19.2652 16.1051 19.5196 16.2926 19.7071C16.4802 19.8946 16.7345 20 16.9998 20H18.9998V22C18.9998 22.2652 19.1051 22.5196 19.2926 22.7071C19.4802 22.8946 19.7345 23 19.9997 23C20.265 23 20.5193 22.8946 20.7069 22.7071C20.8944 22.5196 20.9997 22.2652 20.9997 22V20H22.9997C23.265 20 23.5193 19.8946 23.7068 19.7071C23.8944 19.5196 23.9997 19.2652 23.9997 19C23.9997 18.7348 23.8944 18.4804 23.7068 18.2929C23.5193 18.1054 23.265 18 22.9997 18Z" fill="black"/>
</g>
<defs>
<clipPath id="clip0_606_13366">
<rect width="24" height="24" fill="white"/>
</clipPath>
</defs>
</svg>
