<svg width="24" height="24" viewBox="0 0 24 24" fill="none" xmlns="http://www.w3.org/2000/svg">
<g clip-path="url(#clip0_606_13634)">
<path d="M22.95 9.59994C22.7625 9.41247 22.5082 9.30715 22.243 9.30715C21.9779 9.30715 21.7236 9.41247 21.536 9.59994L10.644 20.5389C10.1797 21.0033 9.62853 21.3717 9.02188 21.623C8.41524 21.8743 7.76503 22.0037 7.10838 22.0037C5.78221 22.0038 4.51033 21.4771 3.57252 20.5394C2.63472 19.6018 2.10781 18.33 2.10772 17.0038C2.10762 15.6776 2.63435 14.4057 3.57202 13.4679L14.121 2.87594C14.6851 2.32083 15.4457 2.01111 16.2371 2.01424C17.0285 2.01737 17.7866 2.3331 18.3463 2.89265C18.906 3.4522 19.2219 4.21024 19.2252 5.00165C19.2285 5.79306 18.919 6.55372 18.364 7.11794L7.81502 17.7099C7.62477 17.8922 7.37149 17.9939 7.10802 17.9939C6.84456 17.9939 6.59127 17.8922 6.40102 17.7099C6.21355 17.5224 6.10824 17.2681 6.10824 17.0029C6.10824 16.7378 6.21355 16.4835 6.40102 16.2959L15.793 6.86094C15.9752 6.67234 16.076 6.41974 16.0737 6.15754C16.0714 5.89534 15.9662 5.64453 15.7808 5.45912C15.5954 5.27371 15.3446 5.16855 15.0824 5.16627C14.8202 5.16399 14.5676 5.26478 14.379 5.44694L4.98702 14.8819C4.70839 15.1605 4.48737 15.4913 4.33657 15.8553C4.18578 16.2193 4.10816 16.6094 4.10816 17.0034C4.10816 17.3974 4.18578 17.7876 4.33657 18.1516C4.48737 18.5156 4.70839 18.8464 4.98702 19.1249C5.55864 19.6704 6.3184 19.9748 7.10852 19.9748C7.89864 19.9748 8.6584 19.6704 9.23002 19.1249L19.778 8.53194C20.696 7.59024 21.206 6.32479 21.1976 5.00971C21.1892 3.69463 20.663 2.43582 19.733 1.50596C18.803 0.576109 17.5441 0.0500863 16.229 0.0418463C14.914 0.0336064 13.6486 0.543812 12.707 1.46194L2.15802 12.0539C0.845201 13.3668 0.107666 15.1473 0.107666 17.0039C0.107666 18.8605 0.845201 20.6411 2.15802 21.9539C3.47084 23.2668 5.25141 24.0043 7.10802 24.0043C8.96463 24.0043 10.7452 23.2668 12.058 21.9539L22.95 11.0179C23.0435 10.925 23.1176 10.8145 23.1682 10.6929C23.2188 10.5712 23.2448 10.4407 23.2448 10.3089C23.2448 10.1772 23.2188 10.0467 23.1682 9.92502C23.1176 9.80334 23.0435 9.69287 22.95 9.59994Z" fill="black"/>
</g>
<defs>
<clipPath id="clip0_606_13634">
<rect width="24" height="24" fill="white"/>
</clipPath>
</defs>
</svg>
