<svg width="24" height="24" viewBox="0 0 24 24" fill="none" xmlns="http://www.w3.org/2000/svg">
<g clip-path="url(#clip0_606_13319)">
<path d="M23.9512 12.3L23.2462 7.3C23.073 6.10993 22.4785 5.02151 21.5709 4.23247C20.6634 3.44343 19.5028 3.00612 18.3002 3H8.00024V18.584L9.62624 21.884C9.94901 22.5363 10.4952 23.051 11.1655 23.3346C11.8357 23.6181 12.5855 23.6516 13.2784 23.429C13.9713 23.2064 14.5612 22.7425 14.9409 22.1216C15.3206 21.5008 15.4648 20.7642 15.3472 20.046L15.0112 18H19.0002C19.716 18 20.4235 17.8464 21.0747 17.5494C21.726 17.2525 22.3059 16.8192 22.7753 16.2788C23.2447 15.7384 23.5926 15.1036 23.7955 14.4171C23.9983 13.7307 24.0515 13.0087 23.9512 12.3Z" fill="black"/>
<path d="M0 8V13C0.00158786 14.3256 0.528882 15.5964 1.46622 16.5338C2.40356 17.4711 3.67441 17.9984 5 18H6V3H5C3.67441 3.00159 2.40356 3.52888 1.46622 4.46622C0.528882 5.40356 0.00158786 6.67441 0 8H0Z" fill="black"/>
</g>
<defs>
<clipPath id="clip0_606_13319">
<rect width="24" height="24" fill="white"/>
</clipPath>
</defs>
</svg>
