<svg width="24" height="24" viewBox="0 0 24 24" fill="none" xmlns="http://www.w3.org/2000/svg">
<g clip-path="url(#clip0_606_13521)">
<path d="M22.9419 6.83681L20.7599 4.65381L21.7069 3.70681C21.8024 3.61456 21.8786 3.50421 21.931 3.38221C21.9834 3.26021 22.011 3.12899 22.0121 2.99621C22.0133 2.86343 21.988 2.73175 21.9377 2.60885C21.8874 2.48596 21.8131 2.3743 21.7193 2.28041C21.6254 2.18652 21.5137 2.11226 21.3908 2.06198C21.2679 2.0117 21.1362 1.9864 21.0035 1.98756C20.8707 1.98871 20.7395 2.0163 20.6175 2.0687C20.4955 2.12111 20.3851 2.1973 20.2929 2.29281L19.3459 3.23981L17.1629 1.05781C16.4748 0.402128 15.5608 0.036377 14.6104 0.036377C13.6599 0.036377 12.7459 0.402128 12.0579 1.05781C11.7224 1.39297 11.4563 1.79096 11.2748 2.22901C11.0932 2.66707 10.9998 3.13661 10.9998 3.61081C10.9998 4.085 11.0932 4.55454 11.2748 4.9926C11.4563 5.43066 11.7224 5.82864 12.0579 6.16381L14.2399 8.34581L8.34586 14.2398L6.16286 12.0578C5.4748 11.4021 4.5608 11.0364 3.61036 11.0364C2.65992 11.0364 1.74592 11.4021 1.05786 12.0578C0.722418 12.393 0.456315 12.791 0.274759 13.229C0.093204 13.6671 -0.000244141 14.1366 -0.000244141 14.6108C-0.000244141 15.085 0.093204 15.5545 0.274759 15.9926C0.456315 16.4307 0.722418 16.8286 1.05786 17.1638L3.23986 19.3458L2.29286 20.2928C2.19735 20.3851 2.12117 20.4954 2.06876 20.6174C2.01635 20.7394 1.98876 20.8706 1.98761 21.0034C1.98646 21.1362 2.01176 21.2679 2.06204 21.3908C2.11232 21.5137 2.18657 21.6253 2.28046 21.7192C2.37436 21.8131 2.48601 21.8873 2.60891 21.9376C2.7318 21.9879 2.86348 22.0132 2.99626 22.0121C3.12904 22.0109 3.26026 21.9833 3.38226 21.9309C3.50427 21.8785 3.61461 21.8023 3.70686 21.7068L4.65386 20.7598L6.83686 22.9418C7.17201 23.2771 7.56993 23.5431 8.00789 23.7245C8.44586 23.906 8.91529 23.9994 9.38936 23.9994C9.86343 23.9994 10.3329 23.906 10.7708 23.7245C11.2088 23.5431 11.6067 23.2771 11.9419 22.9418C12.2773 22.6067 12.5434 22.2088 12.7249 21.7708C12.9064 21.3329 12.9999 20.8634 12.9999 20.3893C12.9999 19.9152 12.9064 19.4457 12.7249 19.0078C12.5434 18.5698 12.2773 18.1719 11.9419 17.8368L9.75986 15.6548L15.6599 9.75981L17.8419 11.9418C18.177 12.2771 18.5749 12.5431 19.0129 12.7245C19.4509 12.906 19.9203 12.9994 20.3944 12.9994C20.8684 12.9994 21.3379 12.906 21.7758 12.7245C22.2138 12.5431 22.6117 12.2771 22.9469 11.9418C23.2823 11.6067 23.5484 11.2088 23.7299 10.7709C23.9114 10.3329 24.0049 9.86341 24.0049 9.38931C24.0049 8.9152 23.9114 8.44574 23.7299 8.00776C23.5484 7.56979 23.2823 7.17189 22.9469 6.83681H22.9419Z" fill="black"/>
</g>
<defs>
<clipPath id="clip0_606_13521">
<rect width="24" height="24" fill="white"/>
</clipPath>
</defs>
</svg>
