<svg width="24" height="24" viewBox="0 0 24 24" fill="none" xmlns="http://www.w3.org/2000/svg">
<g clip-path="url(#clip0_606_13663)">
<path d="M24 23.01C23.9999 23.1408 23.9739 23.2703 23.9234 23.391C23.873 23.5117 23.7992 23.6213 23.7062 23.7133C23.6133 23.8053 23.503 23.878 23.3818 23.9273C23.2606 23.9765 23.1308 24.0012 23 24H1.00002C0.860975 24.014 0.720548 23.9986 0.587795 23.955C0.455042 23.9113 0.332911 23.8403 0.22928 23.7466C0.125648 23.6528 0.042816 23.5384 -0.013874 23.4107C-0.070564 23.2829 -0.0998535 23.1447 -0.0998535 23.005C-0.0998535 22.8653 -0.070564 22.7271 -0.013874 22.5993C0.042816 22.4716 0.125648 22.3572 0.22928 22.2634C0.332911 22.1697 0.455042 22.0987 0.587795 22.055C0.720548 22.0114 0.860975 21.996 1.00002 22.01H2.00002V22V19.625C2.55114 19.8697 3.14703 19.9974 3.75002 20C4.75702 20.0076 5.73314 19.6527 6.50002 19C7.27139 19.643 8.24311 19.9964 9.24732 19.9991C10.2515 20.0019 11.2252 19.6538 12 19.015C12.7749 19.6538 13.7485 20.0019 14.7527 19.9991C15.7569 19.9964 16.7287 19.643 17.5 19C18.2669 19.6527 19.243 20.0076 20.25 20C20.853 19.9974 21.4489 19.8697 22 19.625V22V22.01H23C23.2652 22.01 23.5196 22.1154 23.7071 22.3029C23.8947 22.4904 24 22.7448 24 23.01ZM9.00002 2C9.1978 2 9.39114 1.94135 9.55559 1.83147C9.72004 1.72159 9.84821 1.56541 9.9239 1.38268C9.99959 1.19996 10.0194 0.998891 9.98081 0.80491C9.94222 0.610929 9.84698 0.432746 9.70713 0.292894C9.56728 0.153041 9.38909 0.0578004 9.19511 0.0192152C9.00113 -0.0193701 8.80006 0.000433281 8.61734 0.0761209C8.43461 0.151809 8.27843 0.279981 8.16855 0.44443C8.05867 0.608879 8.00002 0.802219 8.00002 1C8.00002 1.26522 8.10538 1.51957 8.29292 1.70711C8.48045 1.89464 8.73481 2 9.00002 2ZM15 2C15.1978 2 15.3911 1.94135 15.5556 1.83147C15.72 1.72159 15.8482 1.56541 15.9239 1.38268C15.9996 1.19996 16.0194 0.998891 15.9808 0.80491C15.9422 0.610929 15.847 0.432746 15.7071 0.292894C15.5673 0.153041 15.3891 0.0578004 15.1951 0.0192152C15.0011 -0.0193701 14.8001 0.000433281 14.6173 0.0761209C14.4346 0.151809 14.2784 0.279981 14.1686 0.44443C14.0587 0.608879 14 0.802219 14 1C14 1.26522 14.1054 1.51957 14.2929 1.70711C14.4805 1.89464 14.7348 2 15 2ZM3.75002 18C4.81802 18 5.50002 17.343 5.50002 17C5.50002 16.7348 5.60538 16.4804 5.79292 16.2929C5.98045 16.1054 6.23481 16 6.50002 16C6.76524 16 7.01959 16.1054 7.20713 16.2929C7.39467 16.4804 7.50002 16.7348 7.50002 17C7.50002 17.306 8.16102 18 9.25002 18C10.318 18 11 17.343 11 17C11 16.7348 11.1054 16.4804 11.2929 16.2929C11.4805 16.1054 11.7348 16 12 16C12.2652 16 12.5196 16.1054 12.7071 16.2929C12.8947 16.4804 13 16.7348 13 17C13 17.306 13.661 18 14.75 18C15.818 18 16.5 17.343 16.5 17C16.5 16.7348 16.6054 16.4804 16.7929 16.2929C16.9805 16.1054 17.2348 16 17.5 16C17.7652 16 18.0196 16.1054 18.2071 16.2929C18.3947 16.4804 18.5 16.7348 18.5 17C18.5 17.306 19.161 18 20.25 18C21.339 18 22 17.306 22 17C21.9984 15.6744 21.4711 14.4036 20.5338 13.4662C19.5965 12.5289 18.3256 12.0016 17 12H7.00002C5.67443 12.0016 4.40358 12.5289 3.46624 13.4662C2.5289 14.4036 2.00161 15.6744 2.00002 17C2.00002 17.306 2.66102 18 3.75002 18ZM17 10C17.6775 10.0004 18.3513 10.0998 19 10.295V10C18.9986 9.34944 18.7851 8.7171 18.3918 8.19882C17.9986 7.68055 17.4471 7.30461 16.821 7.128L16.161 3.8C16.1149 3.57396 15.992 3.37082 15.8132 3.22502C15.6344 3.07922 15.4107 2.99972 15.18 3H14.82C14.5893 2.99972 14.3656 3.07922 14.1868 3.22502C14.008 3.37082 13.8852 3.57396 13.839 3.8L13.2 7H10.25L11 4C11 3.73478 10.8947 3.48043 10.7071 3.29289C10.5196 3.10536 10.2652 3 10 3H8.00002C7.73481 3 7.48045 3.10536 7.29292 3.29289C7.10538 3.48043 7.00002 3.73478 7.00002 4L7.75602 7.025C7.00684 7.08381 6.30728 7.42257 5.79658 7.97386C5.28587 8.52514 5.00149 9.24852 5.00002 10V10.3C5.64851 10.1031 6.3223 10.002 7.00002 10H17Z" fill="black"/>
</g>
<defs>
<clipPath id="clip0_606_13663">
<rect width="24" height="24" fill="white"/>
</clipPath>
</defs>
</svg>
