<svg width="24" height="24" viewBox="0 0 24 24" fill="none" xmlns="http://www.w3.org/2000/svg">
<path d="M15 17.9995H4C2.93913 17.9995 1.92172 17.5781 1.17157 16.8279C0.421427 16.0778 0 15.0604 0 13.9995V5.99951C0 4.67343 0.526784 3.40166 1.46447 2.46398C2.40215 1.5263 3.67392 0.999512 5 0.999512H10C10.6566 0.999512 11.3068 1.12884 11.9134 1.38011C12.52 1.63139 13.0712 1.99968 13.5355 2.46398C13.9998 2.92827 14.3681 3.47947 14.6194 4.08609C14.8707 4.69272 15 5.3429 15 5.99951V17.9995ZM24 10.9995V9.99951C24 9.3429 23.8707 8.69272 23.6194 8.08609C23.3681 7.47947 22.9998 6.92827 22.5355 6.46398C22.0712 5.99968 21.52 5.63139 20.9134 5.38011C20.3068 5.12884 19.6566 4.99951 19 4.99951H17V10.9995H24ZM17 12.9995V17.9995H20C21.0609 17.9995 22.0783 17.5781 22.8284 16.8279C23.5786 16.0778 24 15.0604 24 13.9995V12.9995H17ZM4.058 19.9995C4.02137 20.1637 4.00193 20.3313 4 20.4995C4 21.1626 4.26339 21.7984 4.73223 22.2673C5.20107 22.7361 5.83696 22.9995 6.5 22.9995C7.16304 22.9995 7.79893 22.7361 8.26777 22.2673C8.73661 21.7984 9 21.1626 9 20.4995C8.99807 20.3313 8.97863 20.1637 8.942 19.9995H4.058ZM15.058 19.9995C15.0214 20.1637 15.0019 20.3313 15 20.4995C15 21.1626 15.2634 21.7984 15.7322 22.2673C16.2011 22.7361 16.837 22.9995 17.5 22.9995C18.163 22.9995 18.7989 22.7361 19.2678 22.2673C19.7366 21.7984 20 21.1626 20 20.4995C19.9981 20.3313 19.9786 20.1637 19.942 19.9995H15.058Z" fill="black"/>
</svg>
