<svg width="24" height="24" viewBox="0 0 24 24" fill="none" xmlns="http://www.w3.org/2000/svg">
<g clip-path="url(#clip0_606_13720)">
<path d="M4.9429 5.60588L1.0239 9.52488C0.387527 10.1917 0.0324707 11.0781 0.0324707 11.9999C0.0324707 12.9217 0.387527 13.808 1.0239 14.4749L4.9429 18.3939C5.08127 18.5372 5.24679 18.6514 5.4298 18.73C5.6128 18.8087 5.80963 18.85 6.0088 18.8518C6.20797 18.8535 6.40549 18.8155 6.58983 18.7401C6.77418 18.6647 6.94166 18.5533 7.0825 18.4125C7.22333 18.2716 7.33471 18.1042 7.41014 17.9198C7.48556 17.7355 7.52351 17.538 7.52178 17.3388C7.52005 17.1396 7.47867 16.9428 7.40005 16.7598C7.32144 16.5768 7.20717 16.4113 7.0639 16.2729L4.2849 13.4919L22.5349 13.4689C22.9327 13.4689 23.3143 13.3109 23.5956 13.0295C23.8769 12.7482 24.0349 12.3667 24.0349 11.9689C24.0349 11.5711 23.8769 11.1895 23.5956 10.9082C23.3143 10.6269 22.9327 10.4689 22.5349 10.4689L4.2999 10.4919L7.0639 7.72688C7.33714 7.44398 7.48833 7.06508 7.48491 6.67178C7.4815 6.27849 7.32374 5.90227 7.04563 5.62415C6.76752 5.34604 6.3913 5.18829 5.998 5.18487C5.60471 5.18145 5.22581 5.33265 4.9429 5.60588Z" fill="black"/>
</g>
<defs>
<clipPath id="clip0_606_13720">
<rect width="24" height="24" fill="white"/>
</clipPath>
</defs>
</svg>
