<svg width="24" height="24" viewBox="0 0 24 24" fill="none" xmlns="http://www.w3.org/2000/svg">
<g clip-path="url(#clip0_606_13686)">
<path d="M3.99976 6.00013H1.99976C1.99978 4.97996 2.38959 3.99835 3.08946 3.2561C3.78933 2.51385 4.74635 2.06706 5.76476 2.00713C6.16541 1.41431 6.70139 0.925349 7.3284 0.580657C7.95541 0.235965 8.65544 0.0454376 9.37066 0.0248215C10.0859 0.00420543 10.7957 0.154092 11.4415 0.462095C12.0874 0.770097 12.6506 1.22737 13.0848 1.79613C13.1479 1.87675 13.2308 1.93966 13.3254 1.97874C13.42 2.01782 13.5232 2.03173 13.6248 2.01913C14.4435 1.94512 15.2655 2.11935 15.9838 2.51913C16.6044 2.8614 17.12 3.36633 17.4752 3.97965C17.8304 4.59297 18.0117 5.29148 17.9998 6.00013H11.9998C11.2041 6.00013 10.441 6.3162 9.87844 6.87881C9.31583 7.44142 8.99976 8.20448 8.99976 9.00013V13.0001C8.99976 13.2653 8.8944 13.5197 8.70686 13.7072C8.51933 13.8948 8.26497 14.0001 7.99976 14.0001C7.73454 14.0001 7.48019 13.8948 7.29265 13.7072C7.10511 13.5197 6.99976 13.2653 6.99976 13.0001V9.00013C6.99976 8.20448 6.68369 7.44142 6.12108 6.87881C5.55847 6.3162 4.79541 6.00013 3.99976 6.00013ZM22.9998 13.5001V16.5001C22.9998 17.4284 22.631 18.3186 21.9746 18.975C21.3183 19.6314 20.428 20.0001 19.4998 20.0001H18.8998C18.6677 21.1287 18.0536 22.1428 17.161 22.8714C16.2684 23.6 15.152 23.9987 13.9998 24.0001H5.99976C4.67416 23.9985 3.40331 23.4712 2.46598 22.5339C1.52864 21.5966 1.00134 20.3257 0.999756 19.0001V9.00013C0.999756 8.73491 1.10511 8.48056 1.29265 8.29302C1.48019 8.10548 1.73454 8.00013 1.99976 8.00013H3.99976C4.26497 8.00013 4.51933 8.10548 4.70686 8.29302C4.8944 8.48056 4.99976 8.73491 4.99976 9.00013V13.0001C4.99976 13.7958 5.31583 14.5588 5.87844 15.1214C6.44104 15.6841 7.20411 16.0001 7.99976 16.0001C8.79541 16.0001 9.55847 15.6841 10.1211 15.1214C10.6837 14.5588 10.9998 13.7958 10.9998 13.0001V9.00013C10.9998 8.73491 11.1051 8.48056 11.2926 8.29302C11.4802 8.10548 11.7345 8.00013 11.9998 8.00013H17.9998C18.265 8.00013 18.5193 8.10548 18.7069 8.29302C18.8944 8.48056 18.9998 8.73491 18.9998 9.00013V10.0001H19.4998C20.428 10.0001 21.3183 10.3689 21.9746 11.0253C22.631 11.6816 22.9998 12.5719 22.9998 13.5001ZM20.9998 13.5001C20.9998 13.1023 20.8417 12.7208 20.5604 12.4395C20.2791 12.1582 19.8976 12.0001 19.4998 12.0001H18.9998V18.0001H19.4998C19.8976 18.0001 20.2791 17.8421 20.5604 17.5608C20.8417 17.2795 20.9998 16.898 20.9998 16.5001V13.5001Z" fill="black"/>
</g>
<defs>
<clipPath id="clip0_606_13686">
<rect width="24" height="24" fill="white"/>
</clipPath>
</defs>
</svg>
