<svg width="24" height="24" viewBox="0 0 24 24" fill="none" xmlns="http://www.w3.org/2000/svg">
<path d="M13.0002 19.9995C13.0002 20.2647 12.8949 20.5191 12.7074 20.7066C12.5198 20.8941 12.2655 20.9995 12.0002 20.9995C11.735 20.9995 11.4807 20.8941 11.2931 20.7066C11.1056 20.5191 11.0002 20.2647 11.0002 19.9995V18.9995H2.00024C2.00183 20.3251 2.52913 21.5959 3.46646 22.5333C4.4038 23.4706 5.67465 23.9979 7.00024 23.9995H17.0002C18.3258 23.9979 19.5967 23.4706 20.534 22.5333C21.4714 21.5959 21.9987 20.3251 22.0002 18.9995H13.0002V19.9995Z" fill="black"/>
<path d="M17.0002 0H7.00024C5.67465 0.00158786 4.4038 0.528882 3.46646 1.46622C2.52913 2.40356 2.00183 3.67441 2.00024 5V17H22.0002V5C21.9987 3.67441 21.4714 2.40356 20.534 1.46622C19.5967 0.528882 18.3258 0.00158786 17.0002 0V0Z" fill="black"/>
</svg>
