<svg width="24" height="24" viewBox="0 0 24 24" fill="none" xmlns="http://www.w3.org/2000/svg">
<g clip-path="url(#clip0_606_13313)">
<path d="M22.7073 22.7078C22.3173 23.0978 21.6833 23.0978 21.2933 22.7078L19.8793 21.2938L18.4643 22.7078C18.0803 23.1048 17.4473 23.1158 17.0503 22.7328C16.6533 22.3488 16.6423 21.7158 17.0253 21.3188C17.0333 21.3108 17.0413 21.3018 17.0503 21.2938L18.4643 19.8798L17.0503 18.4648C16.6533 18.0808 16.6423 17.4478 17.0253 17.0508C17.4093 16.6538 18.0423 16.6428 18.4393 17.0258C18.4473 17.0338 18.4563 17.0418 18.4643 17.0508L19.8793 18.4648L21.2933 17.0508C21.6773 16.6538 22.3103 16.6428 22.7073 17.0258C23.1043 17.4098 23.1153 18.0428 22.7323 18.4398C22.7243 18.4478 22.7163 18.4568 22.7073 18.4648L21.2933 19.8798L22.7073 21.2938C23.0993 21.6828 23.1043 22.3128 22.7153 22.7048C22.7133 22.7068 22.7123 22.7088 22.7073 22.7078Z" fill="black"/>
<path d="M14.0352 20.015C14.0312 16.718 16.7002 14.042 19.9962 14.037C21.2792 14.035 22.5292 14.447 23.5592 15.212C25.3322 8.82703 21.5932 2.21403 15.2092 0.441034C8.82523 -1.33197 2.21323 2.40603 0.440231 8.79103C-1.33277 15.176 2.40623 21.79 8.79023 23.563C10.8902 24.146 13.1092 24.146 15.2092 23.563C14.4472 22.537 14.0352 21.293 14.0352 20.015ZM13.0002 12.022C13.0002 12.288 12.8942 12.542 12.7062 12.73L9.70123 15.736C9.30323 16.12 8.66923 16.109 8.28523 15.711C7.91023 15.323 7.91023 14.707 8.28523 14.319L10.9972 11.607V7.01303C10.9972 6.46003 11.4452 6.01103 11.9992 6.01103C12.5522 6.01103 13.0002 6.46003 13.0002 7.01303V12.022Z" fill="black"/>
</g>
<defs>
<clipPath id="clip0_606_13313">
<rect width="24" height="24" fill="white"/>
</clipPath>
</defs>
</svg>
