<svg width="24" height="24" viewBox="0 0 24 24" fill="none" xmlns="http://www.w3.org/2000/svg">
<g clip-path="url(#clip0_606_13268)">
<path d="M20.7998 4.29258C20.609 4.12255 20.3604 4.03199 20.105 4.03949C19.8495 4.047 19.6067 4.15201 19.4262 4.33296C19.2458 4.51391 19.1415 4.75707 19.1347 5.01251C19.1279 5.26796 19.2192 5.51631 19.3898 5.70658C21.056 7.37706 21.9917 9.64017 21.9917 11.9996C21.9917 14.359 21.056 16.6221 19.3898 18.2926C19.2882 18.3831 19.2062 18.4934 19.1488 18.6167C19.0913 18.74 19.0596 18.8737 19.0556 19.0097C19.0516 19.1457 19.0754 19.281 19.1255 19.4075C19.1756 19.5339 19.251 19.6488 19.3471 19.7452C19.4431 19.8415 19.5578 19.9172 19.6841 19.9677C19.8105 20.0182 19.9457 20.0423 20.0817 20.0387C20.2177 20.0351 20.3515 20.0038 20.475 19.9467C20.5984 19.8896 20.709 19.8079 20.7998 19.7066C22.8409 17.661 23.9873 14.8893 23.9873 11.9996C23.9873 9.10984 22.8409 6.33812 20.7998 4.29258Z" fill="black"/>
<path d="M18.0931 7.29406C18.0008 7.19855 17.8905 7.12237 17.7685 7.06996C17.6465 7.01755 17.5153 6.98996 17.3825 6.98881C17.2497 6.98765 17.118 7.01295 16.9951 7.06324C16.8722 7.11352 16.7606 7.18777 16.6667 7.28166C16.5728 7.37555 16.4985 7.48721 16.4482 7.6101C16.398 7.733 16.3727 7.86468 16.3738 7.99746C16.375 8.13024 16.4026 8.26146 16.455 8.38346C16.5074 8.50546 16.5836 8.61581 16.6791 8.70806C17.5507 9.58232 18.0402 10.7665 18.0402 12.0011C18.0402 13.2356 17.5507 14.4198 16.6791 15.294C16.5836 15.3863 16.5074 15.4966 16.455 15.6186C16.4026 15.7406 16.375 15.8719 16.3738 16.0046C16.3727 16.1374 16.398 16.2691 16.4482 16.392C16.4985 16.5149 16.5728 16.6265 16.6667 16.7204C16.7606 16.8143 16.8722 16.8886 16.9951 16.9389C17.118 16.9891 17.2497 17.0144 17.3825 17.0133C17.5153 17.0121 17.6465 16.9846 17.7685 16.9321C17.8905 16.8797 18.0008 16.8036 18.0931 16.708C19.3394 15.4586 20.0394 13.7658 20.0394 12.0011C20.0394 10.2363 19.3394 8.54351 18.0931 7.29406Z" fill="black"/>
<path d="M13.819 0.206458C10.7805 0.776784 8.0773 2.49266 6.268 4.99946H5C3.67441 5.00105 2.40356 5.52834 1.46622 6.46568C0.528882 7.40302 0.00158786 8.67386 0 9.99946L0 13.9995C0.00158786 15.3251 0.528882 16.5959 1.46622 17.5332C2.40356 18.4706 3.67441 18.9979 5 18.9995H6.269C8.07777 21.5063 10.7807 23.2223 13.819 23.7925C13.9632 23.819 14.1115 23.8135 14.2533 23.7764C14.3951 23.7392 14.5271 23.6714 14.6397 23.5776C14.7524 23.4838 14.8431 23.3664 14.9054 23.2336C14.9676 23.1009 14.9999 22.9561 15 22.8095V1.18946C14.9999 1.04285 14.9676 0.898041 14.9054 0.765303C14.8431 0.632565 14.7524 0.515141 14.6397 0.421347C14.5271 0.327553 14.3951 0.259685 14.2533 0.22255C14.1115 0.185415 13.9632 0.179921 13.819 0.206458Z" fill="black"/>
</g>
<defs>
<clipPath id="clip0_606_13268">
<rect width="24" height="24" fill="white"/>
</clipPath>
</defs>
</svg>
