<svg width="24" height="24" viewBox="0 0 24 24" fill="none" xmlns="http://www.w3.org/2000/svg">
<g clip-path="url(#clip0_606_13407)">
<path d="M14.9968 3.84697C15.0032 4.25314 15.2501 4.61677 15.6254 4.77244C18.983 6.24978 21.107 9.61802 20.9932 13.2845C20.9126 18.2521 16.8202 22.2138 11.8526 22.1332C6.88493 22.0527 2.92318 17.9603 3.0038 12.9926C3.00853 9.4319 5.11325 6.20916 8.37163 4.77343C8.74702 4.61682 8.99386 4.25262 9.00028 3.84599C9.00117 3.29403 8.55438 2.84589 8.00243 2.845C7.87383 2.84481 7.74636 2.8694 7.62708 2.91752C2.0565 5.3326 -0.501512 11.8063 1.91361 17.3769C4.32874 22.9475 10.8024 25.5054 16.3729 23.0903C21.9435 20.6753 24.5015 14.2016 22.0864 8.63099C20.9762 6.07031 18.9336 4.02771 16.3729 2.91752C15.8617 2.70942 15.2786 2.95518 15.0705 3.46638C15.0213 3.58725 14.9962 3.7165 14.9968 3.84697Z" fill="black"/>
<path d="M11.9987 0C12.5506 0 12.9981 0.44744 12.9981 0.999397V6.99587C12.9981 7.54783 12.5506 7.99527 11.9987 7.99527C11.4467 7.99527 10.9993 7.54783 10.9993 6.99587V0.999397C10.9992 0.44744 11.4467 0 11.9987 0Z" fill="black"/>
</g>
<defs>
<clipPath id="clip0_606_13407">
<rect width="24" height="24" fill="white"/>
</clipPath>
</defs>
</svg>
