<svg width="24" height="24" viewBox="0 0 24 24" fill="none" xmlns="http://www.w3.org/2000/svg">
<g clip-path="url(#clip0_606_13384)">
<path d="M22.466 8.46416L15.536 1.53316C14.5972 0.597148 13.3257 0.0715332 12 0.0715332C10.6743 0.0715332 9.40276 0.597148 8.464 1.53316L1.534 8.46416C0.596645 9.4018 0.0700684 10.6733 0.0700684 11.9992C0.0700684 13.325 0.596645 14.5965 1.534 15.5342L8.464 22.4652C9.40263 23.4014 10.6743 23.9272 12 23.9272C13.3257 23.9272 14.5974 23.4014 15.536 22.4652L22.466 15.5342C23.4034 14.5965 23.9299 13.325 23.9299 11.9992C23.9299 10.6733 23.4034 9.4018 22.466 8.46416Z" fill="black"/>
</g>
<defs>
<clipPath id="clip0_606_13384">
<rect width="24" height="24" fill="white"/>
</clipPath>
</defs>
</svg>
