<svg width="24" height="24" viewBox="0 0 24 24" fill="none" xmlns="http://www.w3.org/2000/svg">
<path d="M15.9998 12.9995C15.534 13.6205 14.9301 14.1245 14.2358 14.4716C13.5415 14.8188 12.776 14.9995 11.9998 14.9995C11.2235 14.9995 10.458 14.8188 9.76369 14.4716C9.06941 14.1245 8.46549 13.6205 7.99976 12.9995C7.60779 13.5279 7.11454 13.9729 6.54879 14.3087C5.98303 14.6444 5.35609 14.8642 4.70452 14.9551C4.05296 15.0461 3.3898 15.0064 2.75373 14.8383C2.11767 14.6703 1.52142 14.3774 0.999756 13.9765V18.9995C1.00134 20.3251 1.52864 21.5959 2.46598 22.5333C3.40331 23.4706 4.67416 23.9979 5.99976 23.9995H17.9998C19.3254 23.9979 20.5962 23.4706 21.5335 22.5333C22.4709 21.5959 22.9982 20.3251 22.9998 18.9995V13.9735C22.4783 14.3745 21.8822 14.6677 21.2462 14.8359C20.6103 15.0042 19.9472 15.0442 19.2956 14.9535C18.6441 14.8628 18.0171 14.6434 17.4512 14.3079C16.8854 13.9724 16.3919 13.5276 15.9998 12.9995Z" fill="black"/>
<path d="M21.6998 3.13131C21.5062 2.24041 21.0123 1.44311 20.3008 0.873073C19.5893 0.303033 18.7034 -0.00510304 17.7918 0.000314373H16.9998V3.00031C16.9998 3.26553 16.8944 3.51988 16.7069 3.70742C16.5193 3.89496 16.265 4.00031 15.9998 4.00031C15.7345 4.00031 15.4802 3.89496 15.2926 3.70742C15.1051 3.51988 14.9998 3.26553 14.9998 3.00031V0.000314373H8.99976V3.00031C8.99976 3.26553 8.8944 3.51988 8.70686 3.70742C8.51933 3.89496 8.26497 4.00031 7.99976 4.00031C7.73454 4.00031 7.48019 3.89496 7.29265 3.70742C7.10511 3.51988 6.99976 3.26553 6.99976 3.00031V0.000314373H6.20776C5.29594 -0.00505412 4.41 0.303224 3.69848 0.873461C2.98696 1.4437 2.49312 2.24122 2.29976 3.13231L1.02176 8.90031L0.999756 10.0203C1.00107 10.4143 1.07997 10.8041 1.23194 11.1676C1.38392 11.5311 1.606 11.8611 1.88551 12.1387C2.44999 12.6994 3.21411 13.013 4.00976 13.0103C4.40372 13.009 4.79357 12.9301 5.15704 12.7781C5.52052 12.6261 5.8505 12.4041 6.12815 12.1246C6.40579 11.8451 6.62567 11.5136 6.77522 11.1491C6.92477 10.7846 7.00107 10.3943 6.99976 10.0003C6.99976 9.7351 7.10511 9.48074 7.29265 9.29321C7.48019 9.10567 7.73454 9.00031 7.99976 9.00031C8.26497 9.00031 8.51933 9.10567 8.70686 9.29321C8.8944 9.48074 8.99976 9.7351 8.99976 10.0003C8.99976 10.796 9.31583 11.559 9.87844 12.1216C10.441 12.6842 11.2041 13.0003 11.9998 13.0003C12.7954 13.0003 13.5585 12.6842 14.1211 12.1216C14.6837 11.559 14.9998 10.796 14.9998 10.0003C14.9998 9.7351 15.1051 9.48074 15.2926 9.29321C15.4802 9.10567 15.7345 9.00031 15.9998 9.00031C16.265 9.00031 16.5193 9.10567 16.7069 9.29321C16.8944 9.48074 16.9998 9.7351 16.9998 10.0003C16.9998 10.796 17.3158 11.559 17.8784 12.1216C18.441 12.6842 19.2041 13.0003 19.9998 13.0003C20.7954 13.0003 21.5585 12.6842 22.1211 12.1216C22.6837 11.559 22.9998 10.796 22.9998 10.0003V9.10732L21.6998 3.13131Z" fill="black"/>
</svg>
