<svg width="24" height="24" viewBox="0 0 24 24" fill="none" xmlns="http://www.w3.org/2000/svg">
<g clip-path="url(#clip0_606_13531)">
<path d="M23.2998 22.5709L18.8418 23.9549C18.5885 24.0337 18.3143 24.0086 18.0795 23.8852C17.8447 23.7618 17.6686 23.5502 17.5898 23.2969C17.511 23.0437 17.5361 22.7695 17.6595 22.5347C17.7829 22.2999 17.9945 22.1237 18.2478 22.0449L19.4918 21.6589L18.5738 18.9589C18.3811 18.9837 18.1871 18.9971 17.9928 18.9989C16.9019 18.9967 15.8416 18.6377 14.9737 17.9767C14.1058 17.3157 13.4779 16.389 13.1858 15.3379L13.0588 14.9629L14.0588 11.9979H22.5998L22.7998 12.6049C23.1168 13.6818 23.0585 14.8344 22.6347 15.8738C22.2108 16.9132 21.4464 17.7778 20.4668 18.3259L21.3978 21.0629L22.6978 20.6629C22.9511 20.5842 23.2253 20.6092 23.4601 20.7326C23.6949 20.856 23.871 21.0676 23.9498 21.3209C24.0286 21.5742 24.0035 21.8484 23.8801 22.0832C23.7567 22.318 23.5451 22.4942 23.2918 22.5729L23.2998 22.5709ZM14.6558 9.99993H21.9228L20.9568 7.13193C20.7248 6.38448 20.212 5.75612 19.5263 5.37902C18.8405 5.00191 18.0352 4.90545 17.2798 5.10993L13.7558 6.09193C13.8988 6.27326 14.0294 6.46403 14.1468 6.66293C14.7034 7.68088 14.8836 8.86234 14.6558 9.99993ZM10.5718 6.18393L6.71879 5.10993C5.96886 4.90307 5.16795 4.99479 4.48421 5.36585C3.80046 5.7369 3.28706 6.35842 3.05179 7.09993L2.07779 9.99993H12.6188L12.6388 9.94093C12.7542 9.55857 12.7921 9.15701 12.7503 8.75981C12.7085 8.3626 12.5878 7.97774 12.3953 7.62781C12.2027 7.27787 11.9423 6.9699 11.6292 6.72196C11.316 6.47402 10.9565 6.2911 10.5718 6.18393ZM1.18479 12.6569C0.88081 13.7319 0.948892 14.8779 1.378 15.9093C1.8071 16.9407 2.57206 17.7969 3.54879 18.3389L2.60479 21.0669L1.29979 20.6609C1.17438 20.6215 1.04243 20.6072 0.911493 20.6188C0.78055 20.6304 0.653174 20.6677 0.536636 20.7285C0.420099 20.7893 0.316682 20.8725 0.232291 20.9733C0.147901 21.0741 0.0841879 21.1905 0.0447914 21.3159C0.00539479 21.4413 -0.0089142 21.5733 0.00268137 21.7042C0.0142769 21.8352 0.05155 21.9625 0.112372 22.0791C0.173195 22.1956 0.256375 22.299 0.357165 22.3834C0.457954 22.4678 0.574379 22.5315 0.699791 22.5709L5.15779 23.9549C5.41107 24.0337 5.68527 24.0086 5.92007 23.8852C6.15486 23.7618 6.33102 23.5502 6.40979 23.2969C6.48856 23.0437 6.46349 22.7695 6.34009 22.5347C6.21669 22.2999 6.00507 22.1237 5.75179 22.0449L4.51579 21.6599L5.45079 18.9599C5.63623 18.9837 5.82285 18.9971 6.00979 18.9999C7.09096 18.9973 8.14213 18.6442 9.00572 17.9937C9.86932 17.3432 10.4988 16.4304 10.7998 15.3919L11.9448 11.9999H1.40579L1.18479 12.6569ZM15.5528 3.89993C15.6709 3.95929 15.7995 3.99466 15.9313 4.004C16.0631 4.01334 16.1955 3.99646 16.3208 3.95434C16.446 3.91222 16.5617 3.84569 16.6611 3.75859C16.7605 3.6715 16.8416 3.56557 16.8998 3.44693L17.8998 1.44693C18.0183 1.20956 18.0377 0.93482 17.9537 0.683146C17.8697 0.431472 17.6892 0.223481 17.4518 0.10493C17.2144 -0.0136223 16.9397 -0.0330241 16.688 0.0509922C16.4363 0.135009 16.2283 0.315561 16.1098 0.55293L15.1098 2.55293C15.0501 2.67039 15.0142 2.7985 15.0041 2.92989C14.9941 3.06127 15.0101 3.19335 15.0513 3.31852C15.0924 3.4437 15.1579 3.5595 15.244 3.65928C15.3301 3.75906 15.435 3.84084 15.5528 3.89993ZM7.10479 3.44693C7.22334 3.68496 7.4316 3.86615 7.68374 3.95063C7.80859 3.99247 7.94045 4.0093 8.07181 4.00017C8.20316 3.99104 8.33143 3.95613 8.44929 3.89743C8.56715 3.83873 8.6723 3.75739 8.75872 3.65805C8.84515 3.55872 8.91116 3.44333 8.953 3.31848C8.99483 3.19363 9.01166 3.06177 9.00253 2.93041C8.9934 2.79906 8.95849 2.67079 8.89979 2.55293L7.89979 0.55293C7.84109 0.435396 7.75981 0.330576 7.6606 0.244454C7.56139 0.158331 7.44619 0.0925929 7.32158 0.0509922C7.0699 -0.0330241 6.79516 -0.0136223 6.55779 0.10493C6.32042 0.223481 6.13987 0.431472 6.05585 0.683146C5.97184 0.93482 5.99124 1.20956 6.10979 1.44693L7.10479 3.44693ZM11.9998 -7.04906e-05C11.7346 -7.04906e-05 11.4802 0.105286 11.2927 0.292823C11.1051 0.480359 10.9998 0.734713 10.9998 0.99993V2.99993C10.9998 3.26515 11.1051 3.5195 11.2927 3.70704C11.4802 3.89457 11.7346 3.99993 11.9998 3.99993C12.265 3.99993 12.5194 3.89457 12.7069 3.70704C12.8944 3.5195 12.9998 3.26515 12.9998 2.99993V0.99993C12.9998 0.734713 12.8944 0.480359 12.7069 0.292823C12.5194 0.105286 12.265 -7.04906e-05 11.9998 -7.04906e-05Z" fill="black"/>
</g>
<defs>
<clipPath id="clip0_606_13531">
<rect width="24" height="24" fill="white"/>
</clipPath>
</defs>
</svg>
