<svg width="24" height="24" viewBox="0 0 24 24" fill="none" xmlns="http://www.w3.org/2000/svg">
<path d="M17.0001 24H7.00509C6.4267 23.9994 5.85525 23.8741 5.32974 23.6325C4.80423 23.3908 4.33705 23.0387 3.96009 22.6C3.58926 22.1705 3.31547 21.666 3.15739 21.121C2.9993 20.576 2.96066 20.0033 3.04409 19.442C3.58059 16.5173 5.14072 13.8792 7.44509 12C5.14069 10.1202 3.58088 7.48124 3.04509 4.556C2.96182 3.99509 3.00046 3.42283 3.15836 2.8782C3.31626 2.33357 3.58971 1.82939 3.96009 1.4C4.33705 0.961326 4.80423 0.60916 5.32974 0.367548C5.85525 0.125935 6.4267 0.000566288 7.00509 0L17.0001 0C17.5783 0.000512143 18.1497 0.125862 18.675 0.367483C19.2004 0.609104 19.6674 0.9613 20.0441 1.4C20.415 1.82895 20.689 2.33285 20.8474 2.87732C21.0058 3.42179 21.0449 3.99403 20.9621 4.555C20.4204 7.48095 18.8572 10.1194 16.5511 12C18.8559 13.8822 20.4173 16.5217 20.9571 19.448C21.04 20.0091 21.0009 20.5815 20.8425 21.1262C20.6841 21.6708 20.4101 22.1749 20.0391 22.604C19.6625 23.0413 19.1962 23.3924 18.6718 23.6333C18.1474 23.8742 17.5772 23.9993 17.0001 24Z" fill="black"/>
</svg>
