<svg width="24" height="24" viewBox="0 0 24 24" fill="none" xmlns="http://www.w3.org/2000/svg">
<g clip-path="url(#clip0_606_13619)">
<path d="M12.0003 7.94594C12.8414 7.94594 13.5233 7.26405 13.5233 6.42292C13.5233 5.58179 12.8414 4.8999 12.0003 4.8999C11.1592 4.8999 10.4773 5.58179 10.4773 6.42292C10.4773 7.26405 11.1592 7.94594 12.0003 7.94594Z" fill="black"/>
<path d="M19.9998 0.000732422H3.99981C1.77611 0.0183105 -0.0134828 1.83298 -0.000170342 4.05673V16.2267C-0.0134828 18.4506 1.77597 20.2655 3.99981 20.2837H6.9228L10.6708 23.4837C11.4132 24.1622 12.5476 24.1721 13.3018 23.5067L17.1468 20.2827H19.9998C22.2236 20.2646 24.0131 18.4496 23.9998 16.2257V4.05673C24.0131 1.83298 22.2235 0.0183105 19.9998 0.000732422ZM11.9998 3.04273C16.6148 3.16475 16.6138 10.0197 11.9998 10.1427C7.38485 10.0197 7.38583 3.1677 11.9998 3.04273ZM16.2488 17.2087C15.7137 17.3453 15.1692 17.0221 15.0326 16.487C15.032 16.4846 15.0314 16.4822 15.0308 16.4797C14.519 14.8055 12.7468 13.8632 11.0725 14.375C10.0647 14.6831 9.27592 15.4719 8.96781 16.4797C8.82808 17.0143 8.28142 17.3345 7.74681 17.1947C7.2122 17.055 6.8921 16.5083 7.03183 15.9737C7.80508 13.2297 10.6564 11.6321 13.4004 12.4053C15.1299 12.8927 16.4815 14.2443 16.9688 15.9737C17.108 16.5132 16.7868 17.0641 16.2488 17.2087Z" fill="black"/>
</g>
<defs>
<clipPath id="clip0_606_13619">
<rect width="24" height="24" fill="white"/>
</clipPath>
</defs>
</svg>
