<svg width="24" height="24" viewBox="0 0 24 24" fill="none" xmlns="http://www.w3.org/2000/svg">
<g clip-path="url(#clip0_606_13671)">
<path d="M6.224 8.68483L4.15 9.29283C3.47605 9.49066 2.85093 9.82729 2.31482 10.2811C1.7787 10.7349 1.34344 11.2958 1.037 11.9278C0.735606 12.5513 0.567738 13.2308 0.544147 13.9229C0.520555 14.6149 0.64176 15.3043 0.9 15.9468C0.907 15.9648 0.916 15.9818 0.923 15.9998L2.643 15.7188C4.26415 15.2966 5.74659 14.4574 6.943 13.2848C7.03689 13.1929 7.14798 13.1204 7.2699 13.0714C7.39183 13.0224 7.52221 12.9979 7.65361 12.9993C7.785 13.0007 7.91483 13.0279 8.0357 13.0795C8.15656 13.1311 8.26607 13.2059 8.358 13.2998C8.44992 13.3937 8.52246 13.5048 8.57145 13.6267C8.62045 13.7487 8.64495 13.879 8.64356 14.0104C8.64216 14.1418 8.6149 14.2717 8.56333 14.3925C8.51177 14.5134 8.4369 14.6229 8.343 14.7148C6.8705 16.1522 5.04354 17.1738 3.048 17.6758L1.876 17.8698C2.55038 18.9658 3.38648 19.9536 4.356 20.7998L6.409 20.0378L7.809 19.3378C9.25225 18.6126 10.4878 17.5329 11.4 16.1998L11.919 15.4388C11.9912 15.3264 12.0852 15.2295 12.1955 15.154C12.3057 15.0785 12.43 15.0259 12.561 14.9992C12.6919 14.9726 12.8269 14.9724 12.9579 14.9988C13.0889 15.0252 13.2133 15.0775 13.3237 15.1528C13.4341 15.2281 13.5283 15.3247 13.6008 15.437C13.6732 15.5493 13.7224 15.675 13.7455 15.8066C13.7685 15.9382 13.765 16.0731 13.735 16.2034C13.705 16.3336 13.6493 16.4565 13.571 16.5648L13.053 17.3258C11.9496 18.9405 10.4537 20.2481 8.706 21.1258L7.156 21.8988L6.313 22.2108C8.34462 23.3953 10.6553 24.0166 13.007 24.0108H13.931C14.1377 24.0107 14.3395 23.9472 14.509 23.8288C16.6268 22.3894 18.3808 20.477 19.632 18.2428L8.74 7.54883C7.94524 8.01806 7.10156 8.39899 6.224 8.68483Z" fill="black"/>
<path d="M23.7151 2.28491C23.5253 2.09573 23.2681 1.9895 23.0001 1.9895C22.7321 1.9895 22.475 2.09573 22.2851 2.28491L17.5211 7.04891L17.2011 6.73591C16.3574 5.91186 15.25 5.41199 14.0739 5.32437C12.8978 5.23674 11.7286 5.56698 10.7721 6.25691C10.6801 6.32291 10.5891 6.37791 10.4961 6.44191L20.5231 16.2859C20.8422 15.422 21.0766 14.5291 21.2231 13.6199C21.3471 12.8278 21.28 12.0175 21.0272 11.2567C20.7744 10.4958 20.3434 9.80637 19.7701 9.24591L18.9701 8.46191L23.7171 3.71491C23.906 3.52477 24.0119 3.26752 24.0115 2.99949C24.0112 2.73146 23.9046 2.47451 23.7151 2.28491Z" fill="black"/>
</g>
<defs>
<clipPath id="clip0_606_13671">
<rect width="24" height="24" fill="white"/>
</clipPath>
</defs>
</svg>
