<svg width="24" height="24" viewBox="0 0 24 24" fill="none" xmlns="http://www.w3.org/2000/svg">
<g clip-path="url(#clip0_606_13285)">
<path d="M14.9999 6.99914H10.1699V5.41315C10.1698 5.01765 10.0525 4.63105 9.83272 4.30223C9.61295 3.97341 9.30063 3.71713 8.93523 3.56579C8.56983 3.41445 8.16776 3.37485 7.77986 3.45198C7.39195 3.52912 7.03562 3.71953 6.75592 3.99915L0.875918 9.87814C0.313505 10.4407 -0.00244141 11.2036 -0.00244141 11.9991C-0.00244141 12.7946 0.313505 13.5576 0.875918 14.1201L6.75592 19.9991C7.03562 20.2787 7.39195 20.4692 7.77986 20.5463C8.16776 20.6234 8.56983 20.5838 8.93523 20.4325C9.30063 20.2811 9.61295 20.0249 9.83272 19.696C10.0525 19.3672 10.1698 18.9806 10.1699 18.5851V16.9991H15.9999C17.5907 17.0007 19.1159 17.6334 20.2408 18.7582C21.3657 19.8831 21.9983 21.4083 21.9999 22.9991C21.9999 23.2643 22.1053 23.5187 22.2928 23.7062C22.4803 23.8938 22.7347 23.9991 22.9999 23.9991C23.2651 23.9991 23.5195 23.8938 23.707 23.7062C23.8946 23.5187 23.9999 23.2643 23.9999 22.9991V15.9991C23.9973 13.613 23.0482 11.3254 21.361 9.6381C19.6737 7.95085 17.3861 7.00179 14.9999 6.99914Z" fill="black"/>
</g>
<defs>
<clipPath id="clip0_606_13285">
<rect width="24" height="24" fill="white"/>
</clipPath>
</defs>
</svg>
