<svg width="24" height="24" viewBox="0 0 24 24" fill="none" xmlns="http://www.w3.org/2000/svg">
<g clip-path="url(#clip0_606_13600)">
<path d="M14.7618 11.5868C14.2151 11.898 13.6191 12.1131 12.9998 12.2228V23.8738C13.5268 23.7712 14.0335 23.583 14.4998 23.3168L20.5267 19.8378C21.2859 19.3977 21.9163 18.7661 22.355 18.0061C22.7936 17.2461 23.0253 16.3843 23.0267 15.5068V8.54681C23.0235 8.01262 22.9341 7.48245 22.7617 6.97681L14.7618 11.5868Z" fill="black"/>
<path d="M10.242 9.8569C10.7775 10.165 11.3846 10.3271 12.0024 10.3271C12.6203 10.3271 13.2274 10.165 13.7629 9.8569L21.763 5.2469C21.4086 4.83978 20.9905 4.49293 20.525 4.2199L14.5 0.736897C13.7394 0.299519 12.8773 0.0693359 12 0.0693359C11.1226 0.0693359 10.2605 0.299519 9.49995 0.736897L3.47295 4.2169C3.024 4.47979 2.61908 4.81149 2.27295 5.1999L10.242 9.8569Z" fill="black"/>
<path d="M10.9999 12.2233C10.3801 12.1139 9.78379 11.8988 9.2369 11.5873L1.2569 6.92334C1.07223 7.44502 0.976233 7.99395 0.9729 8.54734V15.5073C0.974363 16.3848 1.206 17.2466 1.64469 18.0066C2.08338 18.7666 2.71376 19.3982 3.4729 19.8383L9.4999 23.3173C9.96617 23.5836 10.4729 23.7717 10.9999 23.8743V12.2233Z" fill="black"/>
</g>
<defs>
<clipPath id="clip0_606_13600">
<rect width="24" height="24" fill="white"/>
</clipPath>
</defs>
</svg>
