<svg width="24" height="24" viewBox="0 0 24 24" fill="none" xmlns="http://www.w3.org/2000/svg">
<g clip-path="url(#clip0_606_13463)">
<path d="M12 6.00015C11.0111 6.00015 10.0444 6.29339 9.22217 6.8428C8.39993 7.39221 7.75907 8.1731 7.38063 9.08673C7.00219 10.0004 6.90317 11.0057 7.0961 11.9756C7.28903 12.9455 7.76523 13.8364 8.46449 14.5357C9.16375 15.2349 10.0547 15.7112 11.0246 15.9041C11.9945 16.097 12.9998 15.998 13.9134 15.6195C14.8271 15.2411 15.608 14.6002 16.1574 13.778C16.7068 12.9558 17 11.9891 17 11.0001C16.9984 9.67455 16.4711 8.40371 15.5338 7.46637C14.5965 6.52903 13.3256 6.00174 12 6.00015ZM13.707 12.7072C13.5195 12.8946 13.2652 12.9999 13 12.9999C12.7349 12.9999 12.4806 12.8946 12.293 12.7072L11.293 11.7071C11.1055 11.5197 11.0001 11.2653 11 11.0001V9.00015C11 8.73493 11.1054 8.48058 11.2929 8.29304C11.4805 8.10551 11.7348 8.00015 12 8.00015C12.2652 8.00015 12.5196 8.10551 12.7071 8.29304C12.8947 8.48058 13 8.73493 13 9.00015V10.5862L13.707 11.2931C13.8945 11.4807 13.9998 11.735 13.9998 12.0002C13.9998 12.2653 13.8945 12.5196 13.707 12.7072ZM19.777 3.22215C18.7587 2.18065 17.5436 1.35177 16.2024 0.783616C14.8612 0.215464 13.4204 -0.0806437 11.9638 -0.0875238C10.5072 -0.0944039 9.06376 0.188081 7.71721 0.743537C6.37065 1.29899 5.14783 2.11636 4.1197 3.14819C3.09157 4.18003 2.27862 5.40579 1.72801 6.75433C1.17741 8.10287 0.900122 9.54735 0.912246 11.0039C0.92437 12.4605 1.22566 13.9001 1.79864 15.2393C2.37162 16.5785 3.20486 17.7906 4.25003 18.8052L8.19203 22.4482C9.20606 23.4397 10.5669 23.9964 11.9852 24C13.4034 24.0035 14.767 23.4536 15.786 22.4671L19.777 18.7782C21.8398 16.7153 22.9987 13.9174 22.9987 11.0001C22.9987 8.08285 21.8398 5.28504 19.777 3.22215ZM12 18.0002C10.6156 18.0002 9.26218 17.5896 8.11103 16.8204C6.95989 16.0513 6.06268 14.958 5.53287 13.6789C5.00306 12.3999 4.86443 10.9924 5.13453 9.63452C5.40462 8.27665 6.07131 7.02937 7.05028 6.0504C8.02925 5.07143 9.27653 4.40475 10.6344 4.13465C11.9923 3.86456 13.3997 4.00318 14.6788 4.53299C15.9579 5.06281 17.0511 5.96001 17.8203 7.11116C18.5895 8.2623 19 9.61568 19 11.0001C18.9979 12.856 18.2597 14.6353 16.9474 15.9476C15.6351 17.2599 13.8559 17.998 12 18.0002Z" fill="black"/>
</g>
<defs>
<clipPath id="clip0_606_13463">
<rect width="24" height="24" fill="white"/>
</clipPath>
</defs>
</svg>
