<svg width="24" height="24" viewBox="0 0 24 24" fill="none" xmlns="http://www.w3.org/2000/svg">
<g clip-path="url(#clip0_606_13459)">
<path d="M22.5138 10.972C22.1059 10.6072 21.6246 10.3342 21.1022 10.1714C20.5799 10.0085 20.0286 9.95962 19.4858 10.028C17.2986 10.2924 15.1405 10.7577 13.0388 11.418C13.3588 8.913 15.7498 8 17.9998 8C18.7954 8 19.5585 7.68393 20.1211 7.12132C20.6837 6.55871 20.9998 5.79565 20.9998 5C20.9998 4.20435 20.6837 3.44129 20.1211 2.87868C19.5585 2.31607 18.7954 2 17.9998 2C17.0676 1.99978 16.1448 2.18649 15.286 2.54908C14.4271 2.91166 13.6498 3.44277 12.9998 4.111V1C12.9998 0.734784 12.8944 0.48043 12.7069 0.292893C12.5193 0.105357 12.265 0 11.9998 0C11.7346 0 11.4802 0.105357 11.2927 0.292893C11.1051 0.48043 10.9998 0.734784 10.9998 1V4.11C10.3496 3.44214 9.5721 2.91133 8.71333 2.54893C7.85456 2.18653 6.93188 1.99988 5.99977 2C5.20412 2 4.44106 2.31607 3.87845 2.87868C3.31584 3.44129 2.99977 4.20435 2.99977 5C2.99977 5.79565 3.31584 6.55871 3.87845 7.12132C4.44106 7.68393 5.20412 8 5.99977 8C8.24977 8 10.6408 8.913 10.9608 11.418C8.85899 10.7578 6.70088 10.2925 4.51377 10.028C3.97091 9.96001 3.41979 10.0091 2.89749 10.1719C2.37519 10.3348 1.89382 10.6076 1.48577 10.972C1.0151 11.4032 0.640903 11.929 0.387735 12.5149C0.134568 13.1009 0.00814842 13.7337 0.0167706 14.372C0.0167706 23.062 4.85177 24 6.93077 24C8.05969 23.9395 9.14086 23.5249 10.0208 22.815C10.5807 22.3407 11.2701 22.0453 11.9998 21.967C12.7294 22.0453 13.4188 22.3407 13.9788 22.815C14.8588 23.5247 15.9399 23.9393 17.0688 24C19.1478 24 23.9828 23.062 23.9828 14.375C23.9916 13.7363 23.8652 13.1029 23.6121 12.5165C23.3589 11.93 22.9846 11.4037 22.5138 10.972ZM6.15577 19.272C4.88777 19.624 4.40977 18.308 4.02077 16.158C3.97644 15.9717 3.97866 15.7773 4.02724 15.592C4.07582 15.4067 4.16926 15.2362 4.29931 15.0956C4.42937 14.9549 4.59204 14.8485 4.77297 14.7856C4.9539 14.7227 5.14753 14.7053 5.33677 14.735C7.27124 15.2043 9.16497 15.828 10.9998 16.6C8.69977 16.839 7.36377 18.939 6.15577 19.274V19.272ZM19.9788 16.16C19.5898 18.31 19.1118 19.626 17.8438 19.274C16.6358 18.939 15.2998 16.839 12.9998 16.6C14.8348 15.8304 16.7285 15.2091 18.6628 14.742C18.8515 14.7126 19.0445 14.73 19.225 14.7927C19.4054 14.8553 19.5677 14.9613 19.6976 15.1013C19.8275 15.2413 19.9211 15.411 19.9701 15.5956C20.0192 15.7802 20.0221 15.974 19.9788 16.16Z" fill="black"/>
</g>
<defs>
<clipPath id="clip0_606_13459">
<rect width="24" height="24" fill="white"/>
</clipPath>
</defs>
</svg>
