<svg width="24" height="24" viewBox="0 0 24 24" fill="none" xmlns="http://www.w3.org/2000/svg">
<g clip-path="url(#clip0_606_13332)">
<path d="M20 0.0101705C16.188 0.0101705 11.875 2.04817 8.46102 5.46117C5.02773 8.865 2.26686 12.8855 0.323022 17.3122C0.0215098 18.0128 -0.0720599 18.7854 0.0534787 19.5377C0.179017 20.2901 0.518363 20.9904 1.03102 21.5552L15.293 7.29317C15.3853 7.19766 15.4956 7.12148 15.6176 7.06907C15.7396 7.01666 15.8708 6.98907 16.0036 6.98792C16.1364 6.98677 16.2681 7.01207 16.391 7.06235C16.5139 7.11263 16.6255 7.18688 16.7194 7.28078C16.8133 7.37467 16.8876 7.48632 16.9378 7.60922C16.9881 7.73211 17.0134 7.86379 17.0123 7.99657C17.0111 8.12935 16.9835 8.26057 16.9311 8.38258C16.8787 8.50458 16.8025 8.61492 16.707 8.70717L2.44902 22.9652C3.01045 23.481 3.70947 23.823 4.46134 23.9495C5.21321 24.0761 5.98565 23.9818 6.68502 23.6782C11.1144 21.7372 15.1365 18.9756 18.539 15.5392C21.952 12.1262 23.99 7.81317 23.99 4.00017C24.0463 3.46238 23.9817 2.91882 23.8011 2.40917C23.6204 1.89951 23.3283 1.43661 22.9459 1.05427C22.5636 0.67192 22.1007 0.379768 21.591 0.199134C21.0814 0.0184992 20.5378 -0.0460591 20 0.0101705Z" fill="black"/>
</g>
<defs>
<clipPath id="clip0_606_13332">
<rect width="24" height="24" fill="white"/>
</clipPath>
</defs>
</svg>
