<svg width="24" height="24" viewBox="0 0 24 24" fill="none" xmlns="http://www.w3.org/2000/svg">
<g clip-path="url(#clip0_606_13304)">
<path d="M14.181 0.207586C14.0368 0.181049 13.8885 0.186543 13.7467 0.223678C13.6048 0.260813 13.4729 0.328681 13.3602 0.422474C13.2475 0.516268 13.1568 0.633693 13.0946 0.766431C13.0323 0.899169 13 1.04397 13 1.19059V4.06959C11.7892 3.90895 10.5577 4.02931 9.4009 4.42134C8.24414 4.81336 7.19319 5.46652 6.32954 6.33017C5.46589 7.19382 4.81273 8.24477 4.42071 9.40153C4.02868 10.5583 3.90832 11.7898 4.06895 13.0006H1.18996C1.04334 13.0007 0.898538 13.033 0.7658 13.0952C0.633062 13.1575 0.515637 13.2482 0.421844 13.3608C0.32805 13.4735 0.260182 13.6055 0.223047 13.7473C0.185912 13.8891 0.180418 14.0374 0.206955 14.1816C0.602965 16.3331 1.57959 18.3354 3.03123 19.9721C4.48286 21.6087 6.35428 22.8174 8.44313 23.4674C10.532 24.1174 12.7588 24.184 14.8828 23.6601C17.0067 23.1361 18.9471 22.0415 20.494 20.4946C22.0409 18.9477 23.1355 17.0074 23.6594 14.8834C24.1834 12.7594 24.1168 10.5326 23.4667 8.44376C22.8167 6.35491 21.6081 4.48349 19.9714 3.03186C18.3348 1.58022 16.3325 0.603596 14.181 0.207586ZM12 14.0006C11.6503 13.9996 11.307 13.9067 11.0046 13.7312C10.7022 13.5557 10.4513 13.3037 10.277 13.0006H7.99996C7.73474 13.0006 7.48038 12.8952 7.29285 12.7077C7.10531 12.5202 6.99996 12.2658 6.99996 12.0006C6.99996 11.7354 7.10531 11.481 7.29285 11.2935C7.48038 11.1059 7.73474 11.0006 7.99996 11.0006H10.277C10.4512 10.701 10.7004 10.4519 11 10.2776V7.00059C11 6.73537 11.1053 6.48102 11.2928 6.29348C11.4804 6.10594 11.7347 6.00059 12 6.00059C12.2652 6.00059 12.5195 6.10594 12.7071 6.29348C12.8946 6.48102 13 6.73537 13 7.00059V10.2776C13.3814 10.4967 13.6797 10.8358 13.8483 11.2421C14.017 11.6484 14.0466 12.099 13.9324 12.5239C13.8183 12.9487 13.5669 13.3239 13.2174 13.591C12.8679 13.8581 12.4398 14.0021 12 14.0006ZM9.97196 0.100586C10.1697 0.100586 10.3631 0.159235 10.5275 0.269116C10.692 0.378998 10.8201 0.535176 10.8958 0.717902C10.9715 0.900629 10.9913 1.1017 10.9527 1.29568C10.9142 1.48966 10.8189 1.66784 10.6791 1.80769C10.5392 1.94755 10.361 2.04279 10.167 2.08137C9.97306 2.11996 9.772 2.10015 9.58927 2.02447C9.40655 1.94878 9.25037 1.82061 9.14049 1.65616C9.0306 1.49171 8.97196 1.29837 8.97196 1.10059C8.97196 0.835369 9.07731 0.581016 9.26485 0.393479C9.45238 0.205943 9.70674 0.100586 9.97196 0.100586ZM5.87196 1.85659C6.06974 1.85659 6.26308 1.91523 6.42753 2.02512C6.59197 2.135 6.72015 2.29118 6.79583 2.4739C6.87152 2.65663 6.89133 2.8577 6.85274 3.05168C6.81416 3.24566 6.71891 3.42384 6.57906 3.56369C6.43921 3.70355 6.26103 3.79879 6.06705 3.83737C5.87306 3.87596 5.672 3.85615 5.48927 3.78047C5.30655 3.70478 5.15037 3.57661 5.04049 3.41216C4.9306 3.24771 4.87196 3.05437 4.87196 2.85659C4.87142 2.59154 4.97613 2.33713 5.16308 2.14925C5.35003 1.96136 5.60391 1.85538 5.86896 1.85459L5.87196 1.85659ZM2.77896 4.84159C2.97674 4.84159 3.17008 4.90024 3.33453 5.01012C3.49897 5.12 3.62715 5.27618 3.70283 5.4589C3.77852 5.64163 3.79833 5.8427 3.75974 6.03668C3.72116 6.23066 3.62591 6.40884 3.48606 6.54869C3.34621 6.68855 3.16803 6.78379 2.97405 6.82237C2.78006 6.86096 2.579 6.84115 2.39627 6.76547C2.21355 6.68978 2.05737 6.56161 1.94749 6.39716C1.8376 6.23271 1.77896 6.03937 1.77896 5.84159C1.77896 5.57637 1.88431 5.32202 2.07185 5.13448C2.25938 4.94694 2.51374 4.84159 2.77896 4.84159ZM1.17896 9.00859C1.37674 9.00859 1.57008 9.06723 1.73453 9.17712C1.89897 9.287 2.02715 9.44318 2.10283 9.6259C2.17852 9.80863 2.19833 10.0097 2.15974 10.2037C2.12116 10.3977 2.02591 10.5758 1.88606 10.7157C1.74621 10.8555 1.56803 10.9508 1.37405 10.9894C1.18006 11.028 0.978998 11.0082 0.796272 10.9325C0.613546 10.8568 0.457367 10.7286 0.347485 10.5642C0.237604 10.3997 0.178955 10.2064 0.178955 10.0086C0.178955 9.74372 0.284037 9.48966 0.471141 9.30219C0.658245 9.11471 0.912085 9.00912 1.17696 9.00859H1.17896Z" fill="black"/>
</g>
<defs>
<clipPath id="clip0_606_13304">
<rect width="24" height="24" fill="white"/>
</clipPath>
</defs>
</svg>
