<svg width="24" height="24" viewBox="0 0 24 24" fill="none" xmlns="http://www.w3.org/2000/svg">
<g clip-path="url(#clip0_606_13328)">
<path d="M21 13C20.7348 13 20.4805 12.8947 20.2929 12.7071C20.1054 12.5196 20 12.2652 20 12C20 11.7348 20.1054 11.4805 20.2929 11.2929C20.4805 11.1054 20.7348 11 21 11H23.949C23.7097 8.17637 22.4792 5.52839 20.4755 3.5246C18.4717 1.52081 15.8237 0.290383 13 0.0510254V3.03903C13 3.30424 12.8947 3.5586 12.7071 3.74613C12.5196 3.93367 12.2652 4.03903 12 4.03903C11.7348 4.03903 11.4805 3.93367 11.2929 3.74613C11.1054 3.5586 11 3.30424 11 3.03903V0.0510254C8.17637 0.290383 5.52839 1.52081 3.5246 3.5246C1.52081 5.52839 0.290383 8.17637 0.0510254 11H3.00003C3.26524 11 3.5196 11.1054 3.70713 11.2929C3.89467 11.4805 4.00003 11.7348 4.00003 12C4.00003 12.2652 3.89467 12.5196 3.70713 12.7071C3.5196 12.8947 3.26524 13 3.00003 13H0.0510254C0.290383 15.8237 1.52081 18.4717 3.5246 20.4755C5.52839 22.4792 8.17637 23.7097 11 23.949V21C11 20.7348 11.1054 20.4805 11.2929 20.2929C11.4805 20.1054 11.7348 20 12 20C12.2652 20 12.5196 20.1054 12.7071 20.2929C12.8947 20.4805 13 20.7348 13 21V23.949C15.8237 23.7097 18.4717 22.4792 20.4755 20.4755C22.4792 18.4717 23.7097 15.8237 23.949 13H21ZM15 13H13V15C13 15.2652 12.8947 15.5196 12.7071 15.7071C12.5196 15.8947 12.2652 16 12 16C11.7348 16 11.4805 15.8947 11.2929 15.7071C11.1054 15.5196 11 15.2652 11 15V13H9.00003C8.73481 13 8.48046 12.8947 8.29292 12.7071C8.10538 12.5196 8.00003 12.2652 8.00003 12C8.00003 11.7348 8.10538 11.4805 8.29292 11.2929C8.48046 11.1054 8.73481 11 9.00003 11H11V9.00003C11 8.73481 11.1054 8.48046 11.2929 8.29292C11.4805 8.10538 11.7348 8.00003 12 8.00003C12.2652 8.00003 12.5196 8.10538 12.7071 8.29292C12.8947 8.48046 13 8.73481 13 9.00003V11H15C15.2652 11 15.5196 11.1054 15.7071 11.2929C15.8947 11.4805 16 11.7348 16 12C16 12.2652 15.8947 12.5196 15.7071 12.7071C15.5196 12.8947 15.2652 13 15 13Z" fill="black"/>
</g>
<defs>
<clipPath id="clip0_606_13328">
<rect width="24" height="24" fill="white"/>
</clipPath>
</defs>
</svg>
