<svg width="24" height="24" viewBox="0 0 24 24" fill="none" xmlns="http://www.w3.org/2000/svg">
<path d="M22.1012 5.03355C21.2056 3.4413 19.6133 2.54565 17.822 2.54565H5.97953C4.18825 2.54565 2.59595 3.4413 1.70031 5.03355C0.605639 7.02386 0.00854492 9.21325 0.00854492 11.5021C0.00854492 16.9755 2.19789 21.4538 4.98437 21.4538C6.47711 21.4538 7.67134 20.0605 8.56698 17.1745C8.6665 16.7765 9.06456 16.4779 9.56214 16.4779H14.4385C14.8365 16.4779 15.2346 16.7765 15.4336 17.1745C16.3292 20.0605 17.5234 21.4538 19.0162 21.4538C21.8027 21.4538 23.992 16.9755 23.992 11.5021C23.793 9.2132 23.1959 7.02386 22.1012 5.03355ZM8.96505 10.507H7.96989V11.5021C7.96989 12.0992 7.57183 12.4973 6.97473 12.4973C6.37764 12.4973 5.97958 12.0992 5.97958 11.5021V10.507H4.98442C4.38733 10.507 3.98926 10.1089 3.98926 9.5118C3.98926 8.9147 4.38733 8.51664 4.98442 8.51664H5.97958V7.52148C5.97958 6.92439 6.37764 6.52633 6.97473 6.52633C7.57183 6.52633 7.96989 6.92439 7.96989 7.52148V8.51664H8.96505C9.56214 8.51664 9.9602 8.9147 9.9602 9.5118C9.9602 10.1089 9.56214 10.507 8.96505 10.507ZM15.5331 12.4973C14.737 12.4973 14.0404 11.8007 14.0404 11.0045C14.0404 10.2084 14.737 9.5118 15.5331 9.5118C16.3293 9.5118 17.0259 10.2084 17.0259 11.0045C17.0259 11.8007 16.2297 12.4973 15.5331 12.4973ZM18.4191 9.5118C17.7225 9.5118 16.9264 8.81519 16.9264 8.01906C16.9264 7.22294 17.7225 6.52633 18.4191 6.52633C19.1157 6.52633 19.9119 7.22294 19.9119 8.01906C19.9119 8.81519 19.2153 9.5118 18.4191 9.5118Z" fill="black"/>
</svg>
