<svg width="24" height="24" viewBox="0 0 24 24" fill="none" xmlns="http://www.w3.org/2000/svg">
<g clip-path="url(#clip0_606_13517)">
<path d="M20.4303 15.3302L14.3193 24.0002H10.4053L18.4763 12.5302L20.4303 15.3302ZM15.2653 7.93019L4.04633 23.8902C4.40208 23.9629 4.76422 23.9997 5.12733 24.0002H7.96133L17.2613 10.7862L15.2653 7.93019ZM21.6473 17.0742L16.7663 24.0002H18.8733C19.6177 24.0516 20.3615 23.8932 21.0203 23.543C21.6791 23.1928 22.2265 22.6649 22.6003 22.0192C22.9171 21.3371 23.0412 20.5814 22.9592 19.8339C22.8772 19.0863 22.5923 18.3754 22.1353 17.7782L21.6473 17.0742ZM15.0003 3.00019C15.0018 2.47776 14.8669 1.96399 14.6089 1.50973C14.3509 1.05547 13.9787 0.676472 13.5292 0.410237C13.0797 0.144003 12.5684 -0.000233818 12.0461 -0.00819637C11.5237 -0.0161589 11.0083 0.112428 10.5509 0.364839C10.0935 0.61725 9.70992 0.984732 9.43817 1.43092C9.16641 1.8771 9.01588 2.38652 9.00148 2.90875C8.98708 3.43098 9.1093 3.94792 9.35605 4.4084C9.6028 4.86889 9.96553 5.25695 10.4083 5.53419L1.86133 17.7782C1.40497 18.3758 1.12078 19.0869 1.03952 19.8344C0.958264 20.582 1.08303 21.3375 1.40033 22.0192C1.60404 22.4037 1.88009 22.7453 2.21333 23.0252L14.0463 6.18419L13.5923 5.53419C14.0227 5.26595 14.3778 4.89261 14.6241 4.44931C14.8704 4.00601 14.9999 3.50732 15.0003 3.00019Z" fill="black"/>
</g>
<defs>
<clipPath id="clip0_606_13517">
<rect width="24" height="24" fill="white"/>
</clipPath>
</defs>
</svg>
