<svg width="24" height="24" viewBox="0 0 24 24" fill="none" xmlns="http://www.w3.org/2000/svg">
<g clip-path="url(#clip0_606_13491)">
<path d="M12.587 7L4.10004 15.485L7.24204 3.712C7.37833 3.20827 7.59295 2.72909 7.87804 2.292L12.587 7ZM17.287 13.757C17.7908 13.6207 18.27 13.4061 18.707 13.121L14 8.415L5.52004 16.9L17.287 13.757ZM20.129 11.715C20.6917 10.8937 20.9951 9.92254 21 8.927V5C20.9997 4.02076 20.7103 3.06341 20.168 2.248L15.415 7L20.129 11.715ZM16 3.96908e-08H12.073C11.0773 0.00440329 10.1057 0.307469 9.28404 0.87L14 5.587L18.754 0.834C17.9386 0.290081 16.9803 -0.000123913 16 3.96908e-08ZM24 21.5V23C24 23.2652 23.8947 23.5196 23.7072 23.7071C23.5196 23.8946 23.2653 24 23 24C22.7348 24 22.4805 23.8946 22.2929 23.7071C22.1054 23.5196 22 23.2652 22 23V21.4C22.0158 20.5821 21.7316 19.7868 21.201 19.1642C20.6703 18.5417 19.9301 18.135 19.12 18.021C18.6254 17.964 18.1244 18.0221 17.656 18.1909C17.1876 18.3597 16.7646 18.6346 16.42 18.994C15.0506 20.5156 13.3868 21.7437 11.5294 22.6041C9.67188 23.4645 7.65923 23.9394 5.61304 24H3.62704C2.96732 24.0599 2.30437 23.9272 1.71861 23.6178C1.13285 23.3084 0.64945 22.8357 0.327042 22.257C0.0332607 21.6736 -0.0675216 21.012 0.0392465 20.3676C0.146014 19.7232 0.454808 19.1294 0.921042 18.672L3.29804 16.293C3.39093 16.1999 3.50128 16.126 3.62278 16.0756C3.74427 16.0252 3.87451 15.9992 4.00604 15.9992C4.13758 15.9992 4.26782 16.0252 4.38931 16.0756C4.5108 16.126 4.62115 16.1999 4.71404 16.293C4.9009 16.4804 5.00583 16.7343 5.00583 16.999C5.00583 17.2637 4.9009 17.5176 4.71404 17.705L2.33004 20.086C2.17313 20.2428 2.06626 20.4426 2.02295 20.6601C1.97964 20.8777 2.00184 21.1032 2.08674 21.3081C2.17164 21.513 2.31543 21.6881 2.4999 21.8113C2.68437 21.9345 2.90123 22.0001 3.12304 22H4.27404C8.35509 21.9282 12.2527 20.2919 15.162 17.429C15.6601 16.9561 16.2467 16.5863 16.8883 16.3411C17.5298 16.0958 18.2135 15.9799 18.9 16C20.2877 16.1028 21.585 16.7272 22.5312 17.7475C23.4773 18.7678 24.0021 20.1085 24 21.5Z" fill="black"/>
</g>
<defs>
<clipPath id="clip0_606_13491">
<rect width="24" height="24" fill="white"/>
</clipPath>
</defs>
</svg>
