<svg width="24" height="24" viewBox="0 0 24 24" fill="none" xmlns="http://www.w3.org/2000/svg">
<g clip-path="url(#clip0_606_13628)">
<path d="M18.3853 7.37313C18.2084 7.31952 18.0474 7.22327 17.9165 7.09284C17.7855 6.96241 17.6886 6.8018 17.6343 6.62513C17.3281 5.58718 16.8145 4.62214 16.1245 3.78843C15.4345 2.95471 14.5826 2.26965 13.6202 1.77469C12.6579 1.27974 11.6051 0.985178 10.5256 0.908843C9.4461 0.832509 8.36235 0.975985 7.33991 1.33059C6.31747 1.68519 5.3776 2.24355 4.57718 2.97188C3.77677 3.7002 3.13244 4.58335 2.68319 5.56789C2.23395 6.55242 1.98912 7.61786 1.96353 8.69975C1.93794 9.78163 2.13212 10.8575 2.53432 11.8621C2.62639 12.0739 2.64581 12.3101 2.58955 12.5341C2.5333 12.758 2.40453 12.957 2.22332 13.1001C1.42705 13.6911 0.805363 14.4864 0.424069 15.4018C0.0427744 16.3172 -0.0839466 17.3186 0.0573177 18.3001C0.277771 19.627 0.966642 20.8309 1.9989 21.6932C3.03116 22.5556 4.33838 23.0193 5.68332 23.0001H14.0003V15.4141L12.7073 16.7071C12.5187 16.8893 12.2661 16.9901 12.0039 16.9878C11.7417 16.9855 11.4909 16.8804 11.3055 16.695C11.1201 16.5095 11.0149 16.2587 11.0126 15.9965C11.0104 15.7343 11.1112 15.4817 11.2933 15.2931L12.8793 13.7071C13.4419 13.1447 14.2048 12.8288 15.0003 12.8288C15.7958 12.8288 16.5587 13.1447 17.1213 13.7071L18.7073 15.2931C18.8028 15.3854 18.879 15.4957 18.9314 15.6177C18.9838 15.7397 19.0114 15.871 19.0126 16.0037C19.0137 16.1365 18.9884 16.2682 18.9381 16.3911C18.8879 16.514 18.8136 16.6256 18.7197 16.7195C18.6258 16.8134 18.5142 16.8877 18.3913 16.938C18.2684 16.9882 18.1367 17.0135 18.0039 17.0124C17.8711 17.0112 17.7399 16.9836 17.6179 16.9312C17.4959 16.8788 17.3856 16.8026 17.2933 16.7071L16.0003 15.4141V22.9871C17.9908 22.9473 19.8984 22.1831 21.3658 20.8376C22.8331 19.4921 23.7595 17.6577 23.9713 15.6781C24.1302 13.8638 23.6625 12.0497 22.646 10.5385C21.6295 9.02722 20.1257 7.91002 18.3853 7.37313Z" fill="black"/>
</g>
<defs>
<clipPath id="clip0_606_13628">
<rect width="24" height="24" fill="white"/>
</clipPath>
</defs>
</svg>
