<svg width="24" height="24" viewBox="0 0 24 24" fill="none" xmlns="http://www.w3.org/2000/svg">
<g clip-path="url(#clip0_606_13266)">
<path d="M15.9998 22.9993C15.9998 22.8015 16.0585 22.6082 16.1683 22.4437C16.2782 22.2793 16.4344 22.1511 16.6171 22.0754C16.7999 21.9997 17.0009 21.9799 17.1949 22.0185C17.3889 22.0571 17.5671 22.1523 17.7069 22.2922C17.8468 22.432 17.942 22.6102 17.9806 22.8042C18.0192 22.9982 17.9994 23.1993 17.9237 23.382C17.848 23.5647 17.7198 23.7209 17.5554 23.8308C17.3909 23.9407 17.1976 23.9993 16.9998 23.9993C16.7346 23.9993 16.4802 23.8939 16.2927 23.7064C16.1052 23.5189 15.9998 23.2645 15.9998 22.9993ZM20.5348 20.8773C20.7223 20.6898 20.8276 20.4355 20.8276 20.1703C20.8276 19.9051 20.7223 19.6508 20.5348 19.4633C19.5972 18.5259 18.3256 17.9994 16.9998 17.9994C15.674 17.9994 14.4025 18.5259 13.4648 19.4633C13.2827 19.6519 13.1819 19.9045 13.1841 20.1667C13.1864 20.4289 13.2916 20.6797 13.477 20.8651C13.6624 21.0505 13.9132 21.1557 14.1754 21.158C14.4376 21.1603 14.6902 21.0595 14.8788 20.8773C15.4505 20.3323 16.21 20.0283 16.9998 20.0283C17.7896 20.0283 18.5491 20.3323 19.1208 20.8773C19.3083 21.0648 19.5627 21.1701 19.8278 21.1701C20.093 21.1701 20.3473 21.0648 20.5348 20.8773ZM23.3638 18.0493C23.5513 17.8618 23.6566 17.6075 23.6566 17.3423C23.6566 17.0771 23.5513 16.8228 23.3638 16.6353C21.6747 14.9499 19.386 14.0034 16.9998 14.0034C14.6137 14.0034 12.3249 14.9499 10.6358 16.6353C10.4537 16.8239 10.3529 17.0765 10.3551 17.3387C10.3574 17.6009 10.4626 17.8517 10.648 18.0371C10.8334 18.2225 11.0842 18.3277 11.3464 18.33C11.6086 18.3323 11.8612 18.2315 12.0498 18.0493C13.364 16.7391 15.1441 16.0033 16.9998 16.0033C18.8556 16.0033 20.6356 16.7391 21.9498 18.0493C22.1373 18.2368 22.3917 18.3421 22.6568 18.3421C22.922 18.3421 23.1763 18.2368 23.3638 18.0493ZM9.22182 19.4633C8.94319 19.1847 8.72216 18.854 8.57137 18.49C8.42057 18.126 8.34296 17.7358 8.34296 17.3418C8.34296 16.9478 8.42057 16.5576 8.57137 16.1936C8.72216 15.8296 8.94319 15.4989 9.22182 15.2203C11.1548 13.2927 13.7349 12.1516 16.4615 12.0184C19.1881 11.8852 21.8671 12.7693 23.9788 14.4993C23.8843 12.8771 23.2947 11.3228 22.2895 10.0461C21.2842 8.76942 19.9116 7.83167 18.3568 7.3593C18.1853 7.30625 18.0296 7.21154 17.9036 7.08363C17.7776 6.95572 17.6853 6.7986 17.6348 6.6263C17.1057 4.92592 16.0243 3.4507 14.562 2.43433C13.0997 1.41797 11.3401 0.918558 9.56193 1.01522C7.78374 1.11187 6.08864 1.79907 4.74513 2.96796C3.40163 4.13684 2.48654 5.72058 2.14482 7.4683C1.79326 9.23497 2.07657 11.069 2.94482 12.6473C1.93326 13.1695 1.11072 13.9956 0.592733 15.0093C0.0747427 16.023 -0.112671 17.1736 0.0568164 18.2993C0.317638 19.607 1.01785 20.7862 2.04122 21.6412C3.06458 22.4961 4.34955 22.9753 5.68282 22.9993H12.7828C11.1158 21.3463 9.48682 19.7283 9.22182 19.4633Z" fill="black"/>
</g>
<defs>
<clipPath id="clip0_606_13266">
<rect width="24" height="24" fill="white"/>
</clipPath>
</defs>
</svg>
