<svg width="24" height="24" viewBox="0 0 24 24" fill="none" xmlns="http://www.w3.org/2000/svg">
<g clip-path="url(#clip0_606_13260)">
<path d="M23.7072 22.2931L17.7412 16.3281C19.3648 14.3418 20.1629 11.8074 19.9703 9.24908C19.7778 6.6908 18.6094 4.30438 16.7068 2.58337C14.8042 0.862357 12.3129 -0.0615793 9.74818 0.00264936C7.18348 0.066878 4.74156 1.11436 2.92747 2.92845C1.11338 4.74254 0.0659015 7.18446 0.00167279 9.74916C-0.0625559 12.3139 0.86138 14.8052 2.58239 16.7078C4.3034 18.6104 6.68983 19.7788 9.2481 19.9713C11.8064 20.1638 14.3408 19.3658 16.3272 17.7421L22.2932 23.7071C22.4818 23.8893 22.7344 23.9901 22.9966 23.9878C23.2588 23.9855 23.5096 23.8804 23.695 23.695C23.8804 23.5096 23.9856 23.2587 23.9878 22.9965C23.9901 22.7344 23.8893 22.4818 23.7072 22.2931ZM13.0002 11.0001H7.00017C6.73496 11.0001 6.4806 10.8948 6.29307 10.7073C6.10553 10.5197 6.00017 10.2654 6.00017 10.0001C6.00017 9.73493 6.10553 9.48058 6.29307 9.29304C6.4806 9.10551 6.73496 9.00015 7.00017 9.00015H13.0002C13.2654 9.00015 13.5197 9.10551 13.7073 9.29304C13.8948 9.48058 14.0002 9.73493 14.0002 10.0001C14.0002 10.2654 13.8948 10.5197 13.7073 10.7073C13.5197 10.8948 13.2654 11.0001 13.0002 11.0001Z" fill="black"/>
</g>
<defs>
<clipPath id="clip0_606_13260">
<rect width="24" height="24" fill="white"/>
</clipPath>
</defs>
</svg>
