<svg width="24" height="24" viewBox="0 0 24 24" fill="none" xmlns="http://www.w3.org/2000/svg">
<g clip-path="url(#clip0_606_13752)">
<path d="M1.00111 4.75073H3.73683C4.27678 6.73737 6.32497 7.91016 8.31161 7.37022C9.58756 7.02342 10.5843 6.02668 10.9311 4.75073H22.9989C23.5511 4.75073 23.9988 4.30307 23.9988 3.75084C23.9988 3.19862 23.5511 2.75096 22.9989 2.75096H10.9311C10.3912 0.764267 8.34297 -0.408523 6.35632 0.131424C5.08037 0.478217 4.08363 1.47496 3.73683 2.75091H1.00111C0.448879 2.75091 0.0012207 3.19857 0.0012207 3.7508C0.0012207 4.30302 0.448879 4.75073 1.00111 4.75073Z" fill="black"/>
<path d="M22.9989 11.0007H20.2632C19.7243 9.01431 17.6772 7.84087 15.6909 8.37969C14.4139 8.72611 13.4163 9.72365 13.0699 11.0007H1.00111C0.448879 11.0007 0.0012207 11.4483 0.0012207 12.0006C0.0012207 12.5528 0.448879 13.0004 1.00111 13.0004H13.0699C13.6088 14.9868 15.6558 16.1603 17.6422 15.6214C18.9192 15.275 19.9168 14.2775 20.2632 13.0004H22.9989C23.5511 13.0004 23.9988 12.5528 23.9988 12.0006C23.9988 11.4483 23.5511 11.0007 22.9989 11.0007Z" fill="black"/>
<path d="M22.9989 19.2494H10.9311C10.3912 17.2628 8.34297 16.09 6.35632 16.63C5.08037 16.9768 4.08363 17.9735 3.73683 19.2494H1.00111C0.448879 19.2494 0.0012207 19.6971 0.0012207 20.2493C0.0012207 20.8016 0.448879 21.2492 1.00111 21.2492H3.73683C4.27678 23.2359 6.32497 24.4086 8.31161 23.8687C9.58756 23.5219 10.5843 22.5252 10.9311 21.2492H22.9989C23.5511 21.2492 23.9988 20.8016 23.9988 20.2493C23.9988 19.6971 23.5511 19.2494 22.9989 19.2494Z" fill="black"/>
</g>
<defs>
<clipPath id="clip0_606_13752">
<rect width="24" height="24" fill="white"/>
</clipPath>
</defs>
</svg>
