<svg width="24" height="24" viewBox="0 0 24 24" fill="none" xmlns="http://www.w3.org/2000/svg">
<g clip-path="url(#clip0_606_13655)">
<path d="M12.8871 16.573L16.4511 24H7.18808L11.1211 16.562C11.1995 16.3933 11.3248 16.2507 11.4819 16.1512C11.6391 16.0516 11.8216 15.9993 12.0076 16.0004C12.1937 16.0016 12.3755 16.0562 12.5314 16.1577C12.6873 16.2592 12.8108 16.4034 12.8871 16.573ZM23.5221 16.868L16.5351 2.90004C16.1346 2.03796 15.4967 1.3079 14.6961 0.79544C13.8955 0.282975 12.9654 0.00934118 12.0148 0.00661241C11.0643 0.00388363 10.1327 0.272173 9.32913 0.780033C8.52561 1.28789 7.8835 2.01428 7.47808 2.87404L0.470081 16.9C0.118788 17.6558 -0.0378299 18.4874 0.0144943 19.3192C0.0668185 20.1509 0.326422 20.9563 0.769655 21.6621C1.21289 22.3678 1.82566 22.9515 2.55216 23.3598C3.27865 23.7682 4.09577 23.9883 4.92908 24L9.32908 15.678C9.57446 15.1725 9.95821 14.747 10.4358 14.4509C10.9133 14.1548 11.4651 14.0002 12.0269 14.0051C12.5888 14.0101 13.1378 14.1743 13.6101 14.4787C14.0824 14.7832 14.4586 15.2153 14.6951 15.725L18.6691 24H19.0001C19.8425 23.9999 20.6713 23.787 21.4094 23.3809C22.1475 22.9749 22.771 22.3889 23.2221 21.6774C23.6733 20.966 23.9373 20.1521 23.9897 19.3113C24.0421 18.4705 23.8813 17.6301 23.5221 16.868Z" fill="black"/>
</g>
<defs>
<clipPath id="clip0_606_13655">
<rect width="24" height="24" fill="white"/>
</clipPath>
</defs>
</svg>
