<svg width="24" height="24" viewBox="0 0 24 24" fill="none" xmlns="http://www.w3.org/2000/svg">
<g clip-path="url(#clip0_606_13659)">
<path d="M15 7.00005V3.00005C15 2.73483 15.1054 2.48048 15.2929 2.29294C15.4804 2.10541 15.7348 2.00005 16 2.00005C16.2652 2.00005 16.5196 2.10541 16.7071 2.29294C16.8947 2.48048 17 2.73483 17 3.00005V5.61305C17.63 4.98105 21.7 0.887051 22.293 0.300051C22.4816 0.117893 22.7342 0.0170982 22.9964 0.0193766C23.2586 0.0216551 23.5094 0.126824 23.6948 0.312232C23.8802 0.49764 23.9854 0.748453 23.9877 1.01065C23.99 1.27285 23.8892 1.52545 23.707 1.71405C23.115 2.30005 19.064 6.37305 18.439 7.00005H21C21.2652 7.00005 21.5196 7.10541 21.7071 7.29294C21.8947 7.48048 22 7.73483 22 8.00005C22 8.26527 21.8947 8.51962 21.7071 8.70716C21.5196 8.89469 21.2652 9.00005 21 9.00005H17C16.4696 9.00005 15.9609 8.78934 15.5858 8.41426C15.2107 8.03919 15 7.53048 15 7.00005ZM20.655 14.8551C20.0776 14.3057 19.3108 13.9998 18.5138 14.0009C17.7168 14.002 16.9509 14.3101 16.375 14.8611L14.469 16.4671C12.9133 15.8233 11.5 14.8785 10.3104 13.687C9.12085 12.4955 8.17833 11.0808 7.53701 9.52405L9.13701 7.62405C9.68655 7.04705 9.99356 6.28107 9.99468 5.48425C9.9958 4.68743 9.69093 3.92059 9.14301 3.34205C9.14301 3.34205 7.29101 0.939051 7.26001 0.908051C6.68946 0.333799 5.91589 0.0070727 5.10644 -0.00153454C4.29698 -0.0101418 3.51664 0.300061 2.93401 0.862051L1.78401 1.86205C-5.93499 10.0721 13.984 30.0001 22.184 22.1621L23.096 21.1121C23.6752 20.531 24.0005 19.744 24.0005 18.9236C24.0005 18.1031 23.6752 17.3161 23.096 16.7351C23.063 16.7081 20.655 14.8561 20.655 14.8561V14.8551Z" fill="black"/>
</g>
<defs>
<clipPath id="clip0_606_13659">
<rect width="24" height="24" fill="white"/>
</clipPath>
</defs>
</svg>
