<svg width="24" height="24" viewBox="0 0 24 24" fill="none" xmlns="http://www.w3.org/2000/svg">
<g clip-path="url(#clip0_606_13516)">
<path d="M12.9997 10.9997C12.9997 11.3952 12.8824 11.7819 12.6626 12.1108C12.4429 12.4397 12.1305 12.696 11.7651 12.8474C11.3996 12.9988 10.9975 13.0384 10.6095 12.9612C10.2216 12.8841 9.8652 12.6936 9.58549 12.4139C9.30579 12.1342 9.1153 11.7778 9.03813 11.3898C8.96096 11.0019 9.00057 10.5997 9.15194 10.2343C9.30332 9.86883 9.55966 9.55648 9.88856 9.33671C10.2175 9.11695 10.6041 8.99965 10.9997 8.99965C11.5301 8.99965 12.0388 9.21037 12.4139 9.58544C12.789 9.96051 12.9997 10.4692 12.9997 10.9997ZM23.9997 12.9997C24.0053 13.2638 23.9574 13.5264 23.8588 13.7716C23.7603 14.0168 23.6132 14.2395 23.4264 14.4263C23.2395 14.6132 23.0168 14.7603 22.7716 14.8588C22.5265 14.9573 22.2639 15.0052 21.9997 14.9997H21.6697L21.4507 16.6547C21.289 17.8556 20.6978 18.9574 19.7866 19.7562C18.8753 20.555 17.7055 20.9967 16.4937 20.9997H15.9997C15.9997 21.7953 15.6836 22.5584 15.121 23.121C14.5584 23.6836 13.7954 23.9997 12.9997 23.9997H5.9997C5.20405 23.9997 4.44099 23.6836 3.87838 23.121C3.31577 22.5584 2.9997 21.7953 2.9997 20.9997V20.0287C3.01555 19.1841 2.75577 18.3574 2.2597 17.6737C1.37424 16.5232 0.72543 15.2087 0.350729 13.8061C-0.0239719 12.4035 -0.117141 10.9406 0.0765994 9.50181C0.27034 8.06302 0.747153 6.67685 1.47951 5.42333C2.21187 4.16982 3.18527 3.07378 4.34351 2.19849C5.50176 1.3232 6.8219 0.686007 8.22774 0.323686C9.63358 -0.0386345 11.0973 -0.118903 12.5343 0.0875149C13.9713 0.293933 15.3532 0.782948 16.6002 1.52633C17.8472 2.26971 18.9347 3.25274 19.7997 4.41865C21.0677 5.98465 23.9997 11.5797 23.9997 12.9997ZM14.8407 9.94665L15.8337 9.37565C16.0636 9.24304 16.2315 9.02452 16.3003 8.76816C16.3691 8.5118 16.3333 8.23859 16.2007 8.00865C16.0681 7.77871 15.8496 7.61086 15.5932 7.54204C15.3368 7.47321 15.0636 7.50904 14.8337 7.64165L13.8517 8.20565C13.3424 7.68943 12.7022 7.32162 11.9997 7.14165V5.99965C11.9997 5.73444 11.8943 5.48008 11.7068 5.29255C11.5193 5.10501 11.2649 4.99965 10.9997 4.99965C10.7345 4.99965 10.4801 5.10501 10.2926 5.29255C10.1051 5.48008 9.9997 5.73444 9.9997 5.99965V7.14165C9.29615 7.32111 8.65483 7.68897 8.1447 8.20565L7.1627 7.64165C7.04885 7.57599 6.92317 7.5334 6.79286 7.51631C6.66254 7.49921 6.53013 7.50796 6.4032 7.54204C6.27626 7.57612 6.15728 7.63486 6.05304 7.71493C5.94881 7.79499 5.86136 7.8948 5.7957 8.00865C5.73004 8.12251 5.68745 8.24818 5.67036 8.3785C5.65327 8.50882 5.66201 8.64122 5.69609 8.76816C5.73017 8.8951 5.78892 9.01408 5.86898 9.11831C5.94904 9.22255 6.04885 9.30999 6.1627 9.37565L7.1557 9.94665C7.05628 10.289 7.00381 10.6432 6.9997 10.9997C7.00478 11.3562 7.05827 11.7105 7.1587 12.0527L6.1657 12.6237C5.93576 12.7563 5.76791 12.9748 5.69909 13.2311C5.63026 13.4875 5.66609 13.7607 5.7987 13.9907C5.93131 14.2206 6.14983 14.3884 6.4062 14.4573C6.66256 14.5261 6.93576 14.4903 7.1657 14.3577L8.1477 13.7937C8.657 14.3099 9.29723 14.6777 9.9997 14.8577V15.9997C9.9997 16.2649 10.1051 16.5192 10.2926 16.7068C10.4801 16.8943 10.7345 16.9997 10.9997 16.9997C11.2649 16.9997 11.5193 16.8943 11.7068 16.7068C11.8943 16.5192 11.9997 16.2649 11.9997 15.9997V14.8577C12.7033 14.6782 13.3446 14.3103 13.8547 13.7937L14.8367 14.3577C14.9506 14.4233 15.0762 14.4659 15.2066 14.483C15.3369 14.5001 15.4693 14.4913 15.5962 14.4573C15.7231 14.4232 15.8421 14.3644 15.9464 14.2844C16.0506 14.2043 16.138 14.1045 16.2037 13.9907C16.2694 13.8768 16.312 13.7511 16.329 13.6208C16.3461 13.4905 16.3374 13.3581 16.3033 13.2311C16.2692 13.1042 16.2105 12.9852 16.1304 12.881C16.0504 12.7768 15.9506 12.6893 15.8367 12.6237L14.8437 12.0527C14.9431 11.7103 14.9956 11.3561 14.9997 10.9997C14.9946 10.6431 14.9411 10.2888 14.8407 9.94665Z" fill="black"/>
</g>
<defs>
<clipPath id="clip0_606_13516">
<rect width="24" height="24" fill="white"/>
</clipPath>
</defs>
</svg>
