<svg width="24" height="24" viewBox="0 0 24 24" fill="none" xmlns="http://www.w3.org/2000/svg">
<g clip-path="url(#clip0_606_13621)">
<path d="M15.9999 10.6998C15.9999 12.1998 13.7409 14.4318 11.9999 15.7618C10.2589 14.4318 7.99988 12.2018 7.99988 10.6998C7.92388 8.6938 10.9129 8.2998 10.9999 10.4538V10.9998C10.9999 11.265 11.1052 11.5194 11.2928 11.7069C11.4803 11.8944 11.7347 11.9998 11.9999 11.9998C12.2651 11.9998 12.5195 11.8944 12.707 11.7069C12.8945 11.5194 12.9999 11.265 12.9999 10.9998V10.4538C13.0869 8.2998 16.0759 8.6938 15.9999 10.6998ZM23.9999 12.3398V18.9998C23.998 20.3253 23.4707 21.596 22.5334 22.5333C21.5961 23.4706 20.3254 23.998 18.9999 23.9998H13.0839C6.08188 23.9998 0.469881 19.2078 0.028881 12.8548C-0.0937531 11.1406 0.153267 9.41996 0.753226 7.80945C1.35319 6.19893 2.29209 4.73608 3.50639 3.51988C4.7207 2.30367 6.18209 1.36249 7.79166 0.760021C9.40123 0.157549 11.1214 -0.0921554 12.8359 0.0278035C15.9074 0.291441 18.7654 1.70725 20.8362 3.99098C22.907 6.2747 24.0372 9.25725 23.9999 12.3398ZM17.9999 10.6998C18.0202 9.99624 17.8319 9.30239 17.4587 8.70561C17.0855 8.10883 16.5441 7.6358 15.9026 7.34607C15.2612 7.05634 14.5483 6.96287 13.8539 7.07742C13.1594 7.19197 12.5143 7.50942 11.9999 7.9898C11.4854 7.50942 10.8404 7.19197 10.1459 7.07742C9.45143 6.96287 8.73859 7.05634 8.09712 7.34607C7.45566 7.6358 6.91425 8.10883 6.54106 8.70561C6.16786 9.30239 5.97957 9.99624 5.99988 10.6998C5.99988 13.9558 10.8739 17.4358 11.4299 17.8218C11.5973 17.9379 11.7962 18.0002 11.9999 18.0002C12.2036 18.0002 12.4025 17.9379 12.5699 17.8218C13.1259 17.4358 17.9999 13.9558 17.9999 10.6998Z" fill="black"/>
</g>
<defs>
<clipPath id="clip0_606_13621">
<rect width="24" height="24" fill="white"/>
</clipPath>
</defs>
</svg>
