<svg width="24" height="24" viewBox="0 0 24 24" fill="none" xmlns="http://www.w3.org/2000/svg">
<g clip-path="url(#clip0_606_13452)">
<path d="M9.33999 10.7926C8.38851 9.59132 7.91738 8.07929 8.01809 6.55013C8.1188 5.02097 8.78417 3.58379 9.88499 2.51765L10.518 1.88365C11.5842 0.783243 13.0213 0.118239 14.5502 0.0177151C16.0791 -0.082809 17.5909 0.388318 18.792 1.33965C19.4345 1.8724 19.9576 2.53443 20.3273 3.28269C20.6971 4.03095 20.9051 4.84867 20.938 5.68264C20.9731 6.51302 20.8357 7.34167 20.5343 8.11622C20.2329 8.89078 19.7741 9.5944 19.187 10.1826L18.187 11.1826C17.0599 12.3072 15.5332 12.9394 13.941 12.9406C13.855 12.9406 13.769 12.9386 13.683 12.9346C12.8494 12.902 12.0319 12.6945 11.2837 12.3254C10.5355 11.9564 9.87328 11.4342 9.33999 10.7926ZM18.757 15.9996C18.0683 15.998 17.3862 16.1328 16.7499 16.3963C16.1137 16.6597 15.5359 17.0466 15.05 17.5346C13.638 18.9547 11.9584 20.0805 10.1083 20.8469C8.25826 21.6134 6.27453 22.0052 4.27199 21.9996H3.12199C2.9001 22 2.6831 21.9344 2.49847 21.8113C2.31385 21.6882 2.16991 21.5131 2.08489 21.3082C1.99986 21.1032 1.97758 20.8776 2.02085 20.66C2.06413 20.4424 2.17103 20.2425 2.32799 20.0856L3.02799 19.3856C4.76426 19.2691 6.39903 18.5256 7.62799 17.2936L10.682 14.2396C9.57288 13.7469 8.59042 13.0082 7.80899 12.0796C7.37227 11.556 7.00831 10.9758 6.72699 10.3546L3.69999 13.3786C2.4676 14.6073 1.72406 16.2422 1.60799 17.9786L0.907995 18.6786C0.473443 19.1159 0.17812 19.6721 0.0592773 20.277C-0.0595656 20.8819 0.00339541 21.5084 0.240218 22.0776C0.477041 22.6467 0.877118 23.133 1.38998 23.4751C1.90285 23.8172 2.50552 23.9997 3.12199 23.9996H4.27199C6.53716 24.0058 8.78105 23.5626 10.8738 22.6958C12.9666 21.829 14.8666 20.5557 16.464 18.9496C16.9175 18.4962 17.4952 18.1874 18.1242 18.0623C18.7531 17.9371 19.405 18.0013 19.9975 18.2466C20.59 18.4919 21.0965 18.9073 21.4529 19.4404C21.8094 19.9735 21.9997 20.6003 22 21.2416V22.9996C22 23.2648 22.1054 23.5192 22.2929 23.7067C22.4804 23.8943 22.7348 23.9996 23 23.9996C23.2652 23.9996 23.5196 23.8943 23.7071 23.7067C23.8946 23.5192 24 23.2648 24 22.9996V21.2416C23.9981 19.8518 23.4451 18.5194 22.4622 17.5367C21.4794 16.554 20.1469 16.0012 18.757 15.9996Z" fill="black"/>
</g>
<defs>
<clipPath id="clip0_606_13452">
<rect width="24" height="24" fill="white"/>
</clipPath>
</defs>
</svg>
