<svg width="24" height="24" viewBox="0 0 24 24" fill="none" xmlns="http://www.w3.org/2000/svg">
<g clip-path="url(#clip0_606_13593)">
<path d="M20 0.000258033H18.243C17.7174 -0.00113153 17.1967 0.101737 16.7111 0.30291C16.2255 0.504083 15.7847 0.799566 15.414 1.17226L12.172 4.41426C11.4239 5.16559 11.0026 6.18196 11 7.24226V10.9903C8.14502 12.9763 3.49103 16.2663 2.87903 16.8793C2.44392 17.3173 2.15492 17.8791 2.05162 18.4878C1.94832 19.0965 2.03579 19.7222 2.30203 20.2793L0.29303 22.2933C0.105559 22.4808 0.000244141 22.7351 0.000244141 23.0003C0.000244141 23.2654 0.105559 23.5197 0.29303 23.7073C0.480558 23.8947 0.734866 24 1.00003 24C1.26519 24 1.5195 23.8947 1.70703 23.7073L3.71403 21.7003C4.27117 21.972 4.89948 22.0623 5.5106 21.9584C6.12172 21.8546 6.68493 21.5618 7.12102 21.1213C7.73402 20.5093 11.021 15.8553 13.01 13.0003H16.757C17.2826 13.0016 17.8033 12.8988 18.2889 12.6976C18.7745 12.4964 19.2154 12.201 19.586 11.8283L22.828 8.58626C23.5762 7.83493 23.9974 6.81856 24 5.75826V4.00026C24 2.93939 23.5786 1.92198 22.8284 1.17183C22.0783 0.421686 21.0609 0.000258033 20 0.000258033ZM19.707 5.70726L14.707 10.7073C14.5184 10.8894 14.2658 10.9902 14.0036 10.9879C13.7414 10.9857 13.4906 10.8805 13.3052 10.6951C13.1198 10.5097 13.0146 10.2589 13.0123 9.99666C13.0101 9.73446 13.1109 9.48186 13.293 9.29326L18.293 4.29326C18.3853 4.19775 18.4956 4.12157 18.6176 4.06916C18.7396 4.01675 18.8708 3.98916 19.0036 3.98801C19.1364 3.98685 19.2681 4.01216 19.391 4.06244C19.5139 4.11272 19.6255 4.18697 19.7194 4.28086C19.8133 4.37476 19.8875 4.48641 19.9378 4.6093C19.9881 4.7322 20.0134 4.86388 20.0123 4.99666C20.0111 5.12944 19.9835 5.26066 19.9311 5.38266C19.8787 5.50467 19.8025 5.61501 19.707 5.70726Z" fill="black"/>
</g>
<defs>
<clipPath id="clip0_606_13593">
<rect width="24" height="24" fill="white"/>
</clipPath>
</defs>
</svg>
