<svg width="24" height="24" viewBox="0 0 24 24" fill="none" xmlns="http://www.w3.org/2000/svg">
<g clip-path="url(#clip0_606_13444)">
<path d="M14.9999 23.9998C13.3194 23.9986 11.6578 23.645 10.1225 22.9618C8.58707 22.2787 7.21197 21.2813 6.08591 20.0338C4.95134 18.785 4.09532 17.3091 3.57465 15.7042C3.05399 14.0992 2.88057 12.4019 3.06591 10.7248C3.36471 8.11486 4.50331 5.67257 6.31027 3.76569C8.11724 1.85881 10.4948 0.590549 13.0849 0.151843C14.7593 -0.106782 16.4681 -0.0371555 18.1159 0.356843C18.5474 0.467702 18.9414 0.691847 19.2572 1.00608C19.573 1.32032 19.7991 1.71323 19.9121 2.14417C20.025 2.5751 20.0208 3.02839 19.8998 3.45715C19.7789 3.8859 19.5455 4.27454 19.2239 4.58284C14.6639 8.74884 15.0599 15.2268 20.0309 18.9928C20.3824 19.2687 20.6535 19.6337 20.8161 20.0499C20.9786 20.4661 21.0267 20.9183 20.9552 21.3593C20.8837 21.8004 20.6954 22.2142 20.4097 22.5578C20.124 22.9014 19.7515 23.1621 19.3309 23.3128C17.9327 23.7697 16.4708 24.0015 14.9999 23.9998Z" fill="black"/>
</g>
<defs>
<clipPath id="clip0_606_13444">
<rect width="24" height="24" fill="white"/>
</clipPath>
</defs>
</svg>
