<svg width="24" height="24" viewBox="0 0 24 24" fill="none" xmlns="http://www.w3.org/2000/svg">
<g clip-path="url(#clip0_606_13466)">
<path d="M19.7905 3.27889C15.5429 -1.04172 8.59705 -1.10097 4.27644 3.14656C-0.0441649 7.39409 -0.103415 14.34 4.14412 18.6606C4.1969 18.7143 4.25024 18.7675 4.30415 18.8201L8.23659 22.4533C10.3389 24.5099 13.6966 24.5183 15.8092 22.4722L19.7905 18.7932C24.0745 14.5089 24.0745 7.56307 19.7905 3.27889ZM16.0226 12.0333H13.0307V15.0252C13.0307 15.576 12.5841 16.0226 12.0334 16.0226C11.4826 16.0226 11.0361 15.576 11.0361 15.0252V12.0333H8.04412C7.49334 12.0333 7.0468 11.5868 7.0468 11.036C7.0468 10.4852 7.49334 10.0387 8.04412 10.0387H11.0361V7.04675C11.0361 6.49596 11.4826 6.04943 12.0334 6.04943C12.5841 6.04943 13.0307 6.49596 13.0307 7.04675V10.0387H16.0226C16.5734 10.0387 17.0199 10.4852 17.0199 11.036C17.0199 11.5868 16.5734 12.0333 16.0226 12.0333Z" fill="black"/>
</g>
<defs>
<clipPath id="clip0_606_13466">
<rect width="24" height="24" fill="white"/>
</clipPath>
</defs>
</svg>
