<svg width="24" height="24" viewBox="0 0 24 24" fill="none" xmlns="http://www.w3.org/2000/svg">
<path d="M2.84893 23.55C3.39498 23.7834 3.99868 23.8467 4.58128 23.7319C5.16389 23.617 5.69834 23.3292 6.11493 22.906L11.9999 17.053L17.8849 22.906C18.1593 23.1844 18.4862 23.4056 18.8467 23.5568C19.2071 23.7081 19.594 23.7863 19.9849 23.787C20.3867 23.7858 20.7843 23.7053 21.1549 23.55C21.7054 23.3272 22.176 22.9436 22.5051 22.4493C22.8343 21.9549 23.0067 21.3728 22.9999 20.779V5C22.9983 3.67441 22.471 2.40356 21.5337 1.46622C20.5964 0.528882 19.3255 0.00158786 17.9999 0L5.99993 0C4.67434 0.00158786 3.40349 0.528882 2.46615 1.46622C1.52881 2.40356 1.00152 3.67441 0.99993 5V20.779C0.993477 21.3733 1.16651 21.9557 1.49639 22.4501C1.82628 22.9445 2.29767 23.3278 2.84893 23.55Z" fill="black"/>
</svg>
