<svg width="24" height="24" viewBox="0 0 24 24" fill="none" xmlns="http://www.w3.org/2000/svg">
<path d="M23 22.0007H1C0.734784 22.0007 0.48043 21.8954 0.292893 21.7078C0.105357 21.5203 0 21.2659 0 21.0007C0 20.7355 0.105357 20.4812 0.292893 20.2936C0.48043 20.1061 0.734784 20.0007 1 20.0007H23C23.2652 20.0007 23.5196 20.1061 23.7071 20.2936C23.8946 20.4812 24 20.7355 24 21.0007C24 21.2659 23.8946 21.5203 23.7071 21.7078C23.5196 21.8954 23.2652 22.0007 23 22.0007ZM12 2.09473V6.00073H20.267C18.0295 3.80542 15.1167 2.42921 12 2.09473ZM6 2.00073V6.00073H10V2.00073H6ZM21.949 8.00073H0V16.0007C0 16.2659 0.105357 16.5203 0.292893 16.7078C0.48043 16.8954 0.734784 17.0007 1 17.0007H19.99C20.618 17.0018 21.2375 16.8551 21.7982 16.5723C22.359 16.2895 22.8452 15.8786 23.2177 15.373C23.5901 14.8673 23.8383 14.2811 23.9421 13.6617C24.0458 13.0423 24.0023 12.4072 23.815 11.8077C23.3892 10.4517 22.76 9.16804 21.949 8.00073ZM4 6.00073V2.00073H1C0.734784 2.00073 0.48043 2.10609 0.292893 2.29363C0.105357 2.48116 0 2.73552 0 3.00073L0 6.00073H4Z" fill="black"/>
</svg>
