<svg width="24" height="24" viewBox="0 0 24 24" fill="none" xmlns="http://www.w3.org/2000/svg">
<g clip-path="url(#clip0_606_13687)">
<path d="M4.25903 2.84503C6.15951 1.23324 8.51657 0.256291 11 0.0510254V1.35103C11.0675 3.7597 11.8624 6.09156 13.28 8.04003C13.4262 8.25197 13.4927 8.50883 13.4676 8.76508C13.4425 9.02134 13.3275 9.26044 13.143 9.44003L12.776 9.80703C12.5699 10.0122 12.2909 10.1274 12 10.1274C11.7092 10.1274 11.4302 10.0122 11.224 9.80703L4.25903 2.84503ZM17.59 7.82403C17.4725 7.94043 17.3828 8.08183 17.3275 8.23771C17.2722 8.39359 17.2528 8.55993 17.2706 8.72436C17.2885 8.88878 17.3432 9.04706 17.4307 9.18742C17.5182 9.32777 17.6363 9.44659 17.776 9.53503C19.2624 10.4474 20.9626 10.9527 22.706 11H23.949C23.7438 8.51657 22.7668 6.15951 21.155 4.25903L17.59 7.82403ZM13 0.0510254V1.32303C13.0508 3.05648 13.556 4.7462 14.465 6.22303C14.5535 6.36262 14.6723 6.48049 14.8125 6.56788C14.9528 6.65526 15.1109 6.70992 15.2752 6.72779C15.4395 6.74566 15.6057 6.72629 15.7615 6.6711C15.9173 6.61591 16.0586 6.52634 16.175 6.40903L19.741 2.84303C17.8404 1.23185 15.4833 0.255591 13 0.0510254ZM14.557 10.857L14.19 11.224C13.9848 11.4302 13.8697 11.7092 13.8697 12C13.8697 12.2909 13.9848 12.5699 14.19 12.776L21.155 19.741C22.7669 17.8406 23.7439 15.4835 23.949 13H22.677C20.259 12.9364 17.9171 12.1414 15.96 10.72C15.7477 10.5734 15.4903 10.5067 15.2335 10.5318C14.9766 10.5569 14.737 10.6721 14.557 10.857ZM9.44303 13.143L9.81003 12.776C10.0152 12.5699 10.1304 12.2909 10.1304 12C10.1304 11.7092 10.0152 11.4302 9.81003 11.224L2.84503 4.25903C1.23312 6.15944 0.256159 8.51653 0.0510254 11H1.32303C3.74103 11.0635 6.08299 11.8585 8.04003 13.28C8.25237 13.4266 8.50977 13.4933 8.76659 13.4682C9.02341 13.4432 9.26305 13.3279 9.44303 13.143ZM11.224 14.19L10.857 14.557C10.6729 14.7368 10.5581 14.9759 10.5331 15.232C10.508 15.4882 10.5742 15.7449 10.72 15.957C12.1386 17.9058 12.9335 20.2386 13 22.648V23.948C15.4835 23.7429 17.8406 22.7659 19.741 21.154L12.776 14.19C12.5699 13.9848 12.2909 13.8697 12 13.8697C11.7092 13.8697 11.4302 13.9848 11.224 14.19ZM11 22.677C10.9493 20.9436 10.4441 19.2539 9.53503 17.777C9.44648 17.6375 9.32765 17.5197 9.18734 17.4324C9.04703 17.3451 8.88886 17.2906 8.72457 17.2728C8.56028 17.255 8.3941 17.2745 8.23837 17.3298C8.08264 17.385 7.94136 17.4747 7.82503 17.592L4.25903 21.155C6.15944 22.7669 8.51653 23.7439 11 23.949V22.677ZM1.29403 13H0.0510254C0.256291 15.4835 1.23324 17.8405 2.84503 19.741L6.41003 16.176C6.52752 16.0596 6.61726 15.9182 6.67256 15.7623C6.72786 15.6065 6.74729 15.4401 6.72942 15.2757C6.71154 15.1113 6.65682 14.953 6.56932 14.8126C6.48182 14.6723 6.36379 14.5535 6.22403 14.465C4.73769 13.5526 3.03743 13.0474 1.29403 13Z" fill="black"/>
</g>
<defs>
<clipPath id="clip0_606_13687">
<rect width="24" height="24" fill="white"/>
</clipPath>
</defs>
</svg>
