<svg width="24" height="24" viewBox="0 0 24 24" fill="none" xmlns="http://www.w3.org/2000/svg">
<g clip-path="url(#clip0_606_13262)">
<path d="M22.792 1.60947L13.262 13.9995H18C18.2652 13.9995 18.5196 14.1048 18.7071 14.2924C18.8946 14.4799 19 14.7343 19 14.9995C19 15.2647 18.8946 15.519 18.7071 15.7066C18.5196 15.8941 18.2652 15.9995 18 15.9995H13V17.9995H18C18.2652 17.9995 18.5196 18.1048 18.7071 18.2924C18.8946 18.4799 19 18.7343 19 18.9995C19 19.2647 18.8946 19.519 18.7071 19.7066C18.5196 19.8941 18.2652 19.9995 18 19.9995H13V22.9995C13 23.2647 12.8946 23.519 12.7071 23.7066C12.5196 23.8941 12.2652 23.9995 12 23.9995C11.7348 23.9995 11.4804 23.8941 11.2929 23.7066C11.1054 23.519 11 23.2647 11 22.9995V19.9995H6C5.73478 19.9995 5.48043 19.8941 5.29289 19.7066C5.10535 19.519 5 19.2647 5 18.9995C5 18.7343 5.10535 18.4799 5.29289 18.2924C5.48043 18.1048 5.73478 17.9995 6 17.9995H11V15.9995H6C5.73478 15.9995 5.48043 15.8941 5.29289 15.7066C5.10535 15.519 5 15.2647 5 14.9995C5 14.7343 5.10535 14.4799 5.29289 14.2924C5.48043 14.1048 5.73478 13.9995 6 13.9995H10.738L1.208 1.60947C1.05409 1.39887 0.988568 1.13646 1.02541 0.878222C1.06225 0.619987 1.19853 0.386369 1.40519 0.2272C1.61185 0.0680312 1.87252 -0.0040873 2.1316 0.0262282C2.39068 0.0565438 2.62767 0.186894 2.792 0.389472L12 12.3595L21.208 0.389472C21.2867 0.281731 21.3862 0.190837 21.5006 0.122148C21.615 0.0534582 21.742 0.0083617 21.8742 -0.0104846C22.0063 -0.0293309 22.1408 -0.0215459 22.2699 0.0124119C22.3989 0.0463697 22.5199 0.105813 22.6256 0.18724C22.7313 0.268667 22.8197 0.370431 22.8854 0.486534C22.9512 0.602638 22.9931 0.730734 23.0086 0.863274C23.0241 0.995814 23.0129 1.13012 22.9757 1.25827C22.9385 1.38643 22.8761 1.50584 22.792 1.60947Z" fill="black"/>
</g>
<defs>
<clipPath id="clip0_606_13262">
<rect width="24" height="24" fill="white"/>
</clipPath>
</defs>
</svg>
