<svg width="24" height="24" viewBox="0 0 24 24" fill="none" xmlns="http://www.w3.org/2000/svg">
<g clip-path="url(#clip0_606_13637)">
<path d="M23.9998 11.5C23.9993 10.8103 23.795 10.1362 23.4127 9.56231C23.0303 8.98837 22.487 8.54016 21.8508 8.27397C21.4448 5.95633 20.2345 3.85608 18.4329 2.34264C16.6313 0.8292 14.3537 -0.000488281 12.0008 -0.000488281C9.64787 -0.000488281 7.37029 0.8292 5.56867 2.34264C3.76706 3.85608 2.55681 5.95633 2.1508 8.27397C1.42481 8.5794 0.823052 9.12079 0.442848 9.81057C0.0626442 10.5004 -0.0737828 11.2982 0.0556278 12.0752C0.185038 12.8521 0.572721 13.5626 1.15599 14.0919C1.73925 14.6213 2.484 14.9384 3.2698 14.992C3.78629 16.088 4.48676 17.0875 5.3408 17.947C4.08939 19.3134 3.29519 21.036 3.0688 22.875C3.05108 23.0156 3.06347 23.1585 3.10515 23.294C3.14684 23.4295 3.21686 23.5546 3.31058 23.661C3.40429 23.7674 3.51956 23.8526 3.64873 23.9111C3.7779 23.9695 3.91802 23.9998 4.0598 24H19.9188C20.0606 23.9999 20.2007 23.9697 20.3299 23.9114C20.4591 23.8531 20.5745 23.768 20.6683 23.6617C20.7621 23.5554 20.8322 23.4304 20.874 23.2949C20.9158 23.1594 20.9284 23.0166 20.9108 22.876C20.686 21.0417 19.8958 19.3228 18.6498 17.958C19.5086 17.0959 20.2128 16.0926 20.7318 14.992C21.6179 14.9331 22.4485 14.5396 23.0553 13.8912C23.6621 13.2428 23.9997 12.388 23.9998 11.5ZM20.2478 12.973C20.0146 12.9302 19.7737 12.9724 19.5688 13.0918C19.364 13.2112 19.2086 13.4 19.1308 13.624C18.2148 16.222 15.1298 19 11.9998 19C8.8698 19 5.7848 16.22 4.8688 13.622C4.79084 13.3981 4.63543 13.2094 4.4306 13.0901C4.22578 12.9707 3.98503 12.9284 3.7518 12.971C3.6687 12.9873 3.58443 12.997 3.4998 13C3.12859 12.9955 2.77221 12.8536 2.49959 12.6016C2.22696 12.3496 2.05747 12.0055 2.02388 11.6358C1.99029 11.2661 2.095 10.897 2.31775 10.6C2.5405 10.3031 2.86547 10.0992 3.2298 10.028C3.44242 9.98943 3.63683 9.88305 3.78393 9.72478C3.93103 9.5665 4.0229 9.36483 4.0458 9.14997C4.19111 7.76195 4.69853 6.43647 5.51724 5.30624C6.33596 4.17601 7.43723 3.2807 8.7108 2.70997C8.50017 3.2458 8.42363 3.82498 8.48786 4.39713C8.55209 4.96928 8.75513 5.51707 9.07933 5.99286C9.40353 6.46865 9.83906 6.85803 10.348 7.12712C10.857 7.39622 11.4241 7.53689 11.9998 7.53689C12.5755 7.53689 13.1426 7.39622 13.6516 7.12712C14.1605 6.85803 14.5961 6.46865 14.9203 5.99286C15.2445 5.51707 15.4475 4.96928 15.5117 4.39713C15.576 3.82498 15.4994 3.2458 15.2888 2.70997C16.5624 3.2807 17.6636 4.17601 18.4824 5.30624C19.3011 6.43647 19.8085 7.76195 19.9538 9.14997C19.9767 9.36483 20.0686 9.5665 20.2157 9.72478C20.3628 9.88305 20.5572 9.98943 20.7698 10.028C21.1341 10.0992 21.4591 10.3031 21.6819 10.6C21.9046 10.897 22.0093 11.2661 21.9757 11.6358C21.9421 12.0055 21.7726 12.3496 21.5 12.6016C21.2274 12.8536 20.871 12.9955 20.4998 13C20.4152 12.9976 20.331 12.9886 20.2478 12.973Z" fill="black"/>
<path d="M9.50024 13C10.3287 13 11.0002 12.3284 11.0002 11.5C11.0002 10.6716 10.3287 10 9.50024 10C8.67182 10 8.00024 10.6716 8.00024 11.5C8.00024 12.3284 8.67182 13 9.50024 13Z" fill="black"/>
<path d="M14.4998 13C15.3282 13 15.9998 12.3284 15.9998 11.5C15.9998 10.6716 15.3282 10 14.4998 10C13.6713 10 12.9998 10.6716 12.9998 11.5C12.9998 12.3284 13.6713 13 14.4998 13Z" fill="black"/>
</g>
<defs>
<clipPath id="clip0_606_13637">
<rect width="24" height="24" fill="white"/>
</clipPath>
</defs>
</svg>
