<svg width="24" height="24" viewBox="0 0 24 24" fill="none" xmlns="http://www.w3.org/2000/svg">
<path d="M17.7921 7.21196C17.3477 5.30124 16.2168 3.62041 14.6142 2.48895C13.0117 1.35748 11.0493 0.854279 9.10002 1.07498C7.15076 1.29568 5.35054 2.22489 4.04154 3.686C2.73254 5.14712 2.00602 7.03826 2.00008 8.99996C1.99922 10.2784 2.30802 11.5379 2.90008 12.671C1.82121 13.2491 0.966483 14.1712 0.471702 15.2908C-0.0230787 16.4103 -0.129532 17.6631 0.169254 18.8501C0.468041 20.0371 1.15493 21.0902 2.12079 21.8421C3.08664 22.594 4.27607 23.0015 5.50008 23H16.0001C17.9592 22.9909 19.8468 22.2632 21.3051 20.955C22.7634 19.6468 23.691 17.8489 23.9119 15.9023C24.1329 13.9557 23.6318 11.9957 22.5038 10.3939C21.3758 8.79209 19.6993 7.65989 17.7921 7.21196Z" fill="black"/>
</svg>
