<svg width="24" height="24" viewBox="0 0 24 24" fill="none" xmlns="http://www.w3.org/2000/svg">
<g clip-path="url(#clip0_606_13640)">
<path d="M22.5 3.97607H19.414C19.2162 3.97612 19.0229 4.03479 18.8585 4.14467C18.6941 4.25456 18.566 4.41072 18.4903 4.59342C18.4146 4.77612 18.3948 4.97715 18.4334 5.17111C18.472 5.36506 18.5672 5.54322 18.707 5.68307L19.793 6.76907L16.207 10.3541C16.0164 10.5362 15.763 10.6378 15.4995 10.6378C15.2359 10.6378 14.9825 10.5362 14.792 10.3541L14.622 10.1831C14.0506 9.63715 13.2907 9.3325 12.5005 9.3325C11.7102 9.3325 10.9504 9.63715 10.379 10.1831L5.27897 15.2831C5.09106 15.4715 4.98571 15.7269 4.98608 15.993C4.98646 16.2591 5.09253 16.5142 5.28097 16.7021C5.46941 16.89 5.72477 16.9953 5.99088 16.995C6.257 16.9946 6.51206 16.8885 6.69997 16.7001L11.8 11.6001C11.9904 11.4178 12.2438 11.316 12.5075 11.316C12.7711 11.316 13.0246 11.4178 13.215 11.6001L13.385 11.7711C13.9566 12.3165 14.7163 12.6209 15.5065 12.6209C16.2966 12.6209 17.0564 12.3165 17.628 11.7711L21.214 8.18508L22.3 9.27107C22.4403 9.40862 22.618 9.50178 22.811 9.53892C23.0039 9.57606 23.2036 9.55553 23.3849 9.47989C23.5663 9.40426 23.7213 9.27687 23.8307 9.11364C23.9401 8.95041 23.999 8.75857 24 8.56208V5.47607C24 5.07825 23.8419 4.69672 23.5606 4.41541C23.2793 4.13411 22.8978 3.97607 22.5 3.97607Z" fill="black"/>
<path d="M23 21.976H5C4.20435 21.976 3.44129 21.6599 2.87868 21.0973C2.31607 20.5347 2 19.7716 2 18.976V1C2 0.734784 1.89464 0.48043 1.70711 0.292893C1.51957 0.105357 1.26522 0 1 0C0.734784 0 0.48043 0.105357 0.292893 0.292893C0.105357 0.48043 0 0.734784 0 1L0 18.976C0.00158786 20.3016 0.528882 21.5724 1.46622 22.5098C2.40356 23.4471 3.67441 23.9744 5 23.976H23C23.2652 23.976 23.5196 23.8706 23.7071 23.6831C23.8946 23.4956 24 23.2412 24 22.976C24 22.7108 23.8946 22.4564 23.7071 22.2689C23.5196 22.0814 23.2652 21.976 23 21.976Z" fill="black"/>
</g>
<defs>
<clipPath id="clip0_606_13640">
<rect width="24" height="24" fill="white"/>
</clipPath>
</defs>
</svg>
