<svg width="24" height="24" viewBox="0 0 24 24" fill="none" xmlns="http://www.w3.org/2000/svg">
<path d="M14.0002 7V0.46C14.9253 0.809335 15.7655 1.35131 16.4652 2.05L19.9492 5.536C20.6487 6.23488 21.1911 7.07489 21.5402 8H15.0002C14.735 8 14.4807 7.89464 14.2931 7.70711C14.1056 7.51957 14.0002 7.26522 14.0002 7ZM21.9762 10H15.0002C14.2046 10 13.4415 9.68393 12.8789 9.12132C12.3163 8.55871 12.0002 7.79565 12.0002 7V0.024C11.8392 0.013 11.6782 0 11.5152 0H7.00024C5.67465 0.00158786 4.4038 0.528882 3.46646 1.46622C2.52913 2.40356 2.00183 3.67441 2.00024 5V19C2.00183 20.3256 2.52913 21.5964 3.46646 22.5338C4.4038 23.4711 5.67465 23.9984 7.00024 24H17.0002C18.3258 23.9984 19.5967 23.4711 20.534 22.5338C21.4714 21.5964 21.9987 20.3256 22.0002 19V10.485C22.0002 10.322 21.9872 10.161 21.9762 10ZM14.0002 14H13.0002V18.5C13.0002 18.9945 12.8536 19.4778 12.5789 19.8889C12.3042 20.3 11.9138 20.6205 11.457 20.8097C11.0001 20.9989 10.4975 21.0484 10.0125 20.952C9.52757 20.8555 9.08211 20.6174 8.73248 20.2678C8.38285 19.9181 8.14474 19.4727 8.04828 18.9877C7.95182 18.5028 8.00133 18.0001 8.19055 17.5433C8.37976 17.0865 8.7002 16.696 9.11132 16.4213C9.52244 16.1466 10.0058 16 10.5002 16C10.6681 16.0003 10.8356 16.0171 11.0002 16.05V14C11.0002 13.4696 11.211 12.9609 11.586 12.5858C11.9611 12.2107 12.4698 12 13.0002 12H14.0002C14.2655 12 14.5198 12.1054 14.7074 12.2929C14.8949 12.4804 15.0002 12.7348 15.0002 13C15.0002 13.2652 14.8949 13.5196 14.7074 13.7071C14.5198 13.8946 14.2655 14 14.0002 14Z" fill="black"/>
</svg>
