<svg width="24" height="24" viewBox="0 0 24 24" fill="none" xmlns="http://www.w3.org/2000/svg">
<g clip-path="url(#clip0_606_13338)">
<path d="M23.7818 12.1729C23.5796 12.752 23.2494 13.278 22.8158 13.7119L13.7158 22.8119C13.2815 23.2412 12.7553 23.566 12.1768 23.7619C12.0168 22.82 11.9885 21.8605 12.0928 20.9109C12.3538 18.6601 13.3677 16.5635 14.97 14.9613C16.5723 13.3592 18.669 12.3456 20.9198 12.0849C21.8733 11.9802 22.8367 12.0099 23.7818 12.1729ZM10.0998 20.6999C10.412 17.9964 11.6291 15.4778 13.5534 13.5535C15.4778 11.6291 17.9963 10.412 20.6999 10.0999C21.7746 9.98459 22.8599 10.0108 23.9278 10.1779C23.5854 7.98302 22.6422 5.92575 21.2026 4.23396C19.7629 2.54216 17.8831 1.28186 15.7713 0.592639C13.6595 -0.0965788 11.3982 -0.187814 9.23774 0.329039C7.07728 0.845891 5.10205 1.95066 3.53082 3.52098C1.95958 5.0913 0.853662 7.06589 0.335553 9.22604C-0.182557 11.3862 -0.0926377 13.6476 0.595351 15.7598C1.28334 17.872 2.54255 19.7525 4.23351 21.1931C5.92447 22.6338 7.98118 23.5782 10.1758 23.9219C10.0094 22.8559 9.98383 21.7726 10.0998 20.6999Z" fill="black"/>
</g>
<defs>
<clipPath id="clip0_606_13338">
<rect width="24" height="24" fill="white"/>
</clipPath>
</defs>
</svg>
