<svg width="24" height="24" viewBox="0 0 24 24" fill="none" xmlns="http://www.w3.org/2000/svg">
<path d="M19 2.00073H5C3.67441 2.00232 2.40356 2.52961 1.46622 3.46695C0.528882 4.40429 0.00158786 5.67514 0 7.00073L0 17.0007C0.00158786 18.3263 0.528882 19.5972 1.46622 20.5345C2.40356 21.4719 3.67441 21.9991 5 22.0007H19C20.3256 21.9991 21.5964 21.4719 22.5338 20.5345C23.4711 19.5972 23.9984 18.3263 24 17.0007V7.00073C23.9984 5.67514 23.4711 4.40429 22.5338 3.46695C21.5964 2.52961 20.3256 2.00232 19 2.00073ZM5 11.0007H7C7.26522 11.0007 7.51957 11.1061 7.70711 11.2936C7.89464 11.4812 8 11.7355 8 12.0007C8 12.2659 7.89464 12.5203 7.70711 12.7078C7.51957 12.8954 7.26522 13.0007 7 13.0007H5C4.73478 13.0007 4.48043 12.8954 4.29289 12.7078C4.10536 12.5203 4 12.2659 4 12.0007C4 11.7355 4.10536 11.4812 4.29289 11.2936C4.48043 11.1061 4.73478 11.0007 5 11.0007ZM13 18.0007H5C4.73478 18.0007 4.48043 17.8954 4.29289 17.7078C4.10536 17.5203 4 17.2659 4 17.0007C4 16.7355 4.10536 16.4812 4.29289 16.2936C4.48043 16.1061 4.73478 16.0007 5 16.0007H13C13.2652 16.0007 13.5196 16.1061 13.7071 16.2936C13.8946 16.4812 14 16.7355 14 17.0007C14 17.2659 13.8946 17.5203 13.7071 17.7078C13.5196 17.8954 13.2652 18.0007 13 18.0007ZM19 18.0007H17C16.7348 18.0007 16.4804 17.8954 16.2929 17.7078C16.1054 17.5203 16 17.2659 16 17.0007C16 16.7355 16.1054 16.4812 16.2929 16.2936C16.4804 16.1061 16.7348 16.0007 17 16.0007H19C19.2652 16.0007 19.5196 16.1061 19.7071 16.2936C19.8946 16.4812 20 16.7355 20 17.0007C20 17.2659 19.8946 17.5203 19.7071 17.7078C19.5196 17.8954 19.2652 18.0007 19 18.0007ZM19 13.0007H11C10.7348 13.0007 10.4804 12.8954 10.2929 12.7078C10.1054 12.5203 10 12.2659 10 12.0007C10 11.7355 10.1054 11.4812 10.2929 11.2936C10.4804 11.1061 10.7348 11.0007 11 11.0007H19C19.2652 11.0007 19.5196 11.1061 19.7071 11.2936C19.8946 11.4812 20 11.7355 20 12.0007C20 12.2659 19.8946 12.5203 19.7071 12.7078C19.5196 12.8954 19.2652 13.0007 19 13.0007Z" fill="black"/>
</svg>
