<svg width="24" height="24" viewBox="0 0 24 24" fill="none" xmlns="http://www.w3.org/2000/svg">
<g clip-path="url(#clip0_606_13747)">
<path d="M19.051 0H5.05103C3.72543 0.00158786 2.45458 0.528882 1.51725 1.46622C0.579907 2.40356 0.0526132 3.67441 0.0510254 5V19C0.0526132 20.3256 0.579907 21.5964 1.51725 22.5338C2.45458 23.4711 3.72543 23.9984 5.05103 24H19.051C20.3766 23.9984 21.6475 23.4711 22.5848 22.5338C23.5221 21.5964 24.0494 20.3256 24.051 19V5C24.0494 3.67441 23.5221 2.40356 22.5848 1.46622C21.6475 0.528882 20.3766 0.00158786 19.051 0V0ZM20.051 11H22.051V13H20.051V11ZM20.051 9V7H22.051V9H20.051ZM4.05103 13H2.05103V11H4.05103V13ZM6.00003 13V11H18V13H6.00003ZM4.05103 9H2.05103V7H4.05103V9ZM2.05103 15H4.05103V17H2.05103V15ZM20.051 15H22.051V17H20.051V15ZM22.051 5H20.051V2.184C20.6339 2.39008 21.1389 2.77123 21.4969 3.2753C21.8549 3.77937 22.0485 4.38174 22.051 5ZM4.05103 2.184V5H2.05103C2.05359 4.38174 2.24711 3.77937 2.60511 3.2753C2.96312 2.77123 3.46812 2.39008 4.05103 2.184ZM2.05103 19H4.05103V21.816C3.46812 21.6099 2.96312 21.2288 2.60511 20.7247C2.24711 20.2206 2.05359 19.6183 2.05103 19ZM20.051 21.816V19H22.051C22.0485 19.6183 21.8549 20.2206 21.4969 20.7247C21.1389 21.2288 20.6339 21.6099 20.051 21.816Z" fill="black"/>
</g>
<defs>
<clipPath id="clip0_606_13747">
<rect width="24" height="24" fill="white"/>
</clipPath>
</defs>
</svg>
