<svg width="24" height="24" viewBox="0 0 24 24" fill="none" xmlns="http://www.w3.org/2000/svg">
<path d="M13.0002 4C13.0002 4.26522 13.1056 4.51957 13.2931 4.70711C13.4807 4.89464 13.735 5 14.0002 5H17.9662C17.8926 4.35068 17.6077 3.74354 17.1552 3.272L14.8712 0.913C14.3716 0.406548 13.7088 0.0933745 13.0002 0.029V4ZM11.0002 4V0H7.00024C5.67465 0.00158786 4.4038 0.528882 3.46646 1.46622C2.52913 2.40356 2.00183 3.67441 2.00024 5V15C2.00183 16.3256 2.52913 17.5964 3.46646 18.5338C4.4038 19.4711 5.67465 19.9984 7.00024 20H13.0002C14.3258 19.9984 15.5967 19.4711 16.534 18.5338C17.4714 17.5964 17.9987 16.3256 18.0002 15V7H14.0002C13.2046 7 12.4415 6.68393 11.8789 6.12132C11.3163 5.55871 11.0002 4.79565 11.0002 4ZM17.0002 24H8.00024C7.73503 24 7.48067 23.8946 7.29314 23.7071C7.1056 23.5196 7.00024 23.2652 7.00024 23C7.00024 22.7348 7.1056 22.4804 7.29314 22.2929C7.48067 22.1054 7.73503 22 8.00024 22H17.0002C17.7959 22 18.559 21.6839 19.1216 21.1213C19.6842 20.5587 20.0002 19.7956 20.0002 19V8C20.0002 7.73478 20.1056 7.48043 20.2931 7.29289C20.4807 7.10536 20.735 7 21.0002 7C21.2655 7 21.5198 7.10536 21.7074 7.29289C21.8949 7.48043 22.0002 7.73478 22.0002 8V19C21.9987 20.3256 21.4714 21.5964 20.534 22.5338C19.5967 23.4711 18.3258 23.9984 17.0002 24Z" fill="black"/>
</svg>
