<svg width="24" height="24" viewBox="0 0 24 24" fill="none" xmlns="http://www.w3.org/2000/svg">
<g clip-path="url(#clip0_606_13315)">
<path d="M24 19.9995C24 20.5515 23.552 20.9995 23 20.9995H21V22.9995C21 23.5515 20.552 23.9995 20 23.9995C19.448 23.9995 19 23.5515 19 22.9995V20.9995H17C16.448 20.9995 16 20.5515 16 19.9995C16 19.4475 16.448 18.9995 17 18.9995H19V16.9995C19 16.4475 19.448 15.9995 20 15.9995C20.552 15.9995 21 16.4475 21 16.9995V18.9995H23C23.552 18.9995 24 19.4475 24 19.9995Z" fill="black"/>
<path d="M14.0352 20.015C14.0312 16.718 16.7002 14.042 19.9962 14.037C21.2792 14.035 22.5292 14.447 23.5592 15.212C25.3322 8.82703 21.5932 2.21403 15.2092 0.441034C8.82523 -1.33197 2.21323 2.40603 0.440231 8.79103C-1.33277 15.176 2.40623 21.79 8.79023 23.563C10.8902 24.146 13.1092 24.146 15.2092 23.563C14.4472 22.537 14.0352 21.293 14.0352 20.015ZM13.0002 12.022C13.0002 12.288 12.8942 12.542 12.7062 12.73L9.70123 15.736C9.30323 16.12 8.66923 16.109 8.28523 15.711C7.91023 15.323 7.91023 14.707 8.28523 14.319L10.9972 11.607V7.01303C10.9972 6.46003 11.4452 6.01103 11.9992 6.01103C12.5522 6.01103 13.0002 6.46003 13.0002 7.01303V12.022Z" fill="black"/>
</g>
<defs>
<clipPath id="clip0_606_13315">
<rect width="24" height="24" fill="white"/>
</clipPath>
</defs>
</svg>
