<svg width="24" height="24" viewBox="0 0 24 24" fill="none" xmlns="http://www.w3.org/2000/svg">
<g clip-path="url(#clip0_606_13472)">
<path d="M12.883 15.2157L4.948 23.1507C4.68125 23.4308 4.36117 23.6547 4.00659 23.8092C3.65202 23.9637 3.27011 24.0458 2.88336 24.0505C2.4966 24.0552 2.11281 23.9825 1.75457 23.8367C1.39633 23.6908 1.07089 23.4748 0.797388 23.2013C0.52389 22.9278 0.307867 22.6024 0.162032 22.2441C0.0161968 21.8859 -0.0565022 21.5021 -0.0517864 21.1153C-0.0470705 20.7286 0.0349648 20.3467 0.189491 19.9921C0.344018 19.6375 0.567913 19.3175 0.847998 19.0507L8.783 11.1157L12.883 15.2157ZM17.1 6.89971C16.5479 6.37206 15.8137 6.07761 15.05 6.07761C14.2863 6.07761 13.5521 6.37206 13 6.89971L10.2 9.69971L14.3 13.7997L17.1 10.9997C17.6435 10.4559 17.9488 9.71854 17.9488 8.94971C17.9488 8.18088 17.6435 7.44351 17.1 6.89971ZM4.863 5.14471L6.413 5.58671L6.855 7.13671C6.9262 7.38542 7.07646 7.60419 7.28304 7.75993C7.48962 7.91566 7.74129 7.9999 8 7.9999C8.25871 7.9999 8.51038 7.91566 8.71696 7.75993C8.92354 7.60419 9.07379 7.38542 9.145 7.13671L9.587 5.58671L11.137 5.14471C11.3857 5.0735 11.6045 4.92325 11.7602 4.71667C11.916 4.51009 12.0002 4.25841 12.0002 3.99971C12.0002 3.741 11.916 3.48933 11.7602 3.28275C11.6045 3.07617 11.3857 2.92591 11.137 2.85471L9.587 2.41271L9.145 0.862707C9.07379 0.613991 8.92354 0.395224 8.71696 0.239487C8.51038 0.0837495 8.25871 -0.000488281 8 -0.000488281C7.74129 -0.000488281 7.48962 0.0837495 7.28304 0.239487C7.07646 0.395224 6.9262 0.613991 6.855 0.862707L6.413 2.41271L4.863 2.85471C4.61428 2.92591 4.39552 3.07617 4.23978 3.28275C4.08404 3.48933 3.9998 3.741 3.9998 3.99971C3.9998 4.25841 4.08404 4.51009 4.23978 4.71667C4.39552 4.92325 4.61428 5.0735 4.863 5.14471ZM16.863 17.1447L18.413 17.5867L18.855 19.1367C18.9262 19.3854 19.0765 19.6042 19.283 19.7599C19.4896 19.9157 19.7413 19.9999 20 19.9999C20.2587 19.9999 20.5104 19.9157 20.717 19.7599C20.9235 19.6042 21.0738 19.3854 21.145 19.1367L21.587 17.5867L23.137 17.1447C23.3857 17.0735 23.6045 16.9232 23.7602 16.7167C23.916 16.5101 24.0002 16.2584 24.0002 15.9997C24.0002 15.741 23.916 15.4893 23.7602 15.2827C23.6045 15.0762 23.3857 14.9259 23.137 14.8547L21.587 14.4127L21.145 12.8627C21.0738 12.614 20.9235 12.3952 20.717 12.2395C20.5104 12.0838 20.2587 11.9995 20 11.9995C19.7413 11.9995 19.4896 12.0838 19.283 12.2395C19.0765 12.3952 18.9262 12.614 18.855 12.8627L18.413 14.4127L16.863 14.8547C16.6143 14.9259 16.3955 15.0762 16.2398 15.2827C16.084 15.4893 15.9998 15.741 15.9998 15.9997C15.9998 16.2584 16.084 16.5101 16.2398 16.7167C16.3955 16.9232 16.6143 17.0735 16.863 17.1447ZM17.756 4.49971L19.111 4.88671L19.5 6.24371C19.5633 6.45989 19.695 6.64973 19.8753 6.78479C20.0555 6.91985 20.2747 6.99285 20.5 6.99285C20.7253 6.99285 20.9445 6.91985 21.1247 6.78479C21.305 6.64973 21.4367 6.45989 21.5 6.24371L21.887 4.88871L23.244 4.49971C23.4602 4.4364 23.65 4.30473 23.7851 4.12445C23.9201 3.94417 23.9931 3.72497 23.9931 3.49971C23.9931 3.27444 23.9201 3.05525 23.7851 2.87496C23.65 2.69468 23.4602 2.56302 23.244 2.49971L21.889 2.11271L21.5 0.755707C21.4367 0.539524 21.305 0.349679 21.1247 0.21462C20.9445 0.0795608 20.7253 0.00656181 20.5 0.00656181C20.2747 0.00656181 20.0555 0.0795608 19.8753 0.21462C19.695 0.349679 19.5633 0.539524 19.5 0.755707L19.113 2.11071L17.756 2.49971C17.5398 2.56302 17.35 2.69468 17.2149 2.87496C17.0799 3.05525 17.0069 3.27444 17.0069 3.49971C17.0069 3.72497 17.0799 3.94417 17.2149 4.12445C17.35 4.30473 17.5398 4.4364 17.756 4.49971Z" fill="black"/>
</g>
<defs>
<clipPath id="clip0_606_13472">
<rect width="24" height="24" fill="white"/>
</clipPath>
</defs>
</svg>
