<svg width="24" height="24" viewBox="0 0 24 24" fill="none" xmlns="http://www.w3.org/2000/svg">
<path d="M21 14C20.9984 12.6744 20.4711 11.4036 19.5338 10.4662C18.5964 9.52888 17.3256 9.00159 16 9H8C6.67441 9.00159 5.40356 9.52888 4.46622 10.4662C3.52888 11.4036 3.00159 12.6744 3 14V15C3 17.3869 3.94821 19.6761 5.63604 21.364C7.32387 23.0518 9.61305 24 12 24C14.3869 24 16.6761 23.0518 18.364 21.364C20.0518 19.6761 21 17.3869 21 15V14Z" fill="black"/>
<path d="M15.0002 0H9.00024C7.93938 0 6.92196 0.421427 6.17182 1.17157C5.42167 1.92172 5.00024 2.93913 5.00024 4V7.685C5.93652 7.23544 6.96163 7.00137 8.00024 7H16.0002C17.0389 7.00137 18.064 7.23544 19.0002 7.685V4C19.0002 2.93913 18.5788 1.92172 17.8287 1.17157C17.0785 0.421427 16.0611 0 15.0002 0V0ZM10.0002 5C9.80246 5 9.60912 4.94135 9.44467 4.83147C9.28022 4.72159 9.15205 4.56541 9.07636 4.38268C9.00068 4.19996 8.98087 3.99889 9.01946 3.80491C9.05804 3.61093 9.15329 3.43275 9.29314 3.29289C9.43299 3.15304 9.61117 3.0578 9.80515 3.01922C9.99914 2.98063 10.2002 3.00043 10.3829 3.07612C10.5657 3.15181 10.7218 3.27998 10.8317 3.44443C10.9416 3.60888 11.0002 3.80222 11.0002 4C11.0002 4.26522 10.8949 4.51957 10.7074 4.70711C10.5198 4.89464 10.2655 5 10.0002 5ZM14.0002 5C13.8025 5 13.6091 4.94135 13.4447 4.83147C13.2802 4.72159 13.1521 4.56541 13.0764 4.38268C13.0007 4.19996 12.9809 3.99889 13.0195 3.80491C13.058 3.61093 13.1533 3.43275 13.2931 3.29289C13.433 3.15304 13.6112 3.0578 13.8052 3.01922C13.9991 2.98063 14.2002 3.00043 14.3829 3.07612C14.5657 3.15181 14.7218 3.27998 14.8317 3.44443C14.9416 3.60888 15.0002 3.80222 15.0002 4C15.0002 4.26522 14.8949 4.51957 14.7074 4.70711C14.5198 4.89464 14.2655 5 14.0002 5Z" fill="black"/>
</svg>
