<svg width="24" height="24" viewBox="0 0 24 24" fill="none" xmlns="http://www.w3.org/2000/svg">
<g clip-path="url(#clip0_606_13632)">
<path d="M18.3561 7.3599C18.1848 7.30696 18.0293 7.2124 17.9035 7.08466C17.7777 6.95692 17.6855 6.79999 17.6351 6.6279C17.1061 4.92752 16.0248 3.45226 14.5626 2.43582C13.1003 1.41938 11.3408 0.919866 9.56262 1.01641C7.78444 1.11295 6.08931 1.80003 4.74574 2.9688C3.40217 4.13758 2.48697 5.72123 2.14511 7.4689C1.79366 9.23591 2.07696 11.0703 2.94511 12.6489C1.93354 13.1709 1.11095 13.9967 0.592936 15.0103C0.0749253 16.0239 -0.112461 17.1743 0.057112 18.2999C0.317934 19.6076 1.01815 20.7868 2.04151 21.6418C3.06488 22.4967 4.34985 22.9759 5.68311 22.9999H14.7831C19.8561 22.9999 23.6351 19.9719 23.9731 15.6379C24.1242 13.8239 23.6491 12.0129 22.627 10.5066C21.6049 9.00032 20.0976 7.88975 18.3561 7.3599ZM19.2281 14.7069L13.8131 20.1209C13.2505 20.6833 12.4876 20.9993 11.6921 20.9993C10.8966 20.9993 10.1337 20.6833 9.57111 20.1209L6.18411 16.6999C6.07742 16.6105 5.99057 16.4998 5.92911 16.3749C5.86766 16.25 5.83297 16.1136 5.82724 15.9745C5.82152 15.8355 5.8449 15.6967 5.89588 15.5672C5.94687 15.4377 6.02433 15.3202 6.12332 15.2223C6.22231 15.1245 6.34064 15.0483 6.47074 14.9988C6.60084 14.9493 6.73985 14.9275 6.87886 14.9348C7.01787 14.9421 7.15382 14.9784 7.27802 15.0412C7.40222 15.1041 7.51192 15.1922 7.60011 15.2999L10.9841 18.7139C11.1746 18.8946 11.4271 18.9953 11.6896 18.9953C11.9521 18.9953 12.2047 18.8946 12.3951 18.7139L17.8091 13.2999C17.9966 13.1123 18.251 13.0068 18.5163 13.0067C18.7815 13.0066 19.036 13.1119 19.2236 13.2994C19.4113 13.4869 19.5167 13.7413 19.5168 14.0065C19.5169 14.2718 19.4116 14.5263 19.2241 14.7139L19.2281 14.7069Z" fill="black"/>
</g>
<defs>
<clipPath id="clip0_606_13632">
<rect width="24" height="24" fill="white"/>
</clipPath>
</defs>
</svg>
