<svg width="24" height="24" viewBox="0 0 24 24" fill="none" xmlns="http://www.w3.org/2000/svg">
<g clip-path="url(#clip0_606_13734)">
<path d="M17.0002 0H7.00024C5.67416 0 4.40239 0.526785 3.46471 1.46447C2.52703 2.40215 2.00024 3.67392 2.00024 5V11H22.0002V5C22.0002 3.67392 21.4735 2.40215 20.5358 1.46447C19.5981 0.526785 18.3263 0 17.0002 0V0ZM13.0002 7H11.0002C10.735 7 10.4807 6.89465 10.2931 6.70711C10.1056 6.51957 10.0002 6.26522 10.0002 6C10.0002 5.73479 10.1056 5.48043 10.2931 5.2929C10.4807 5.10536 10.735 5 11.0002 5H13.0002C13.2655 5 13.5198 5.10536 13.7074 5.2929C13.8949 5.48043 14.0002 5.73479 14.0002 6C14.0002 6.26522 13.8949 6.51957 13.7074 6.70711C13.5198 6.89465 13.2655 7 13.0002 7Z" fill="black"/>
<path d="M2.00024 19C2.00024 19.6566 2.12957 20.3068 2.38085 20.9134C2.63212 21.5201 3.00042 22.0713 3.46471 22.5355C4.40239 23.4732 5.67416 24 7.00024 24H17.0002C17.6569 24 18.307 23.8707 18.9137 23.6194C19.5203 23.3681 20.0715 22.9998 20.5358 22.5355C21.0001 22.0713 21.3684 21.5201 21.6196 20.9134C21.8709 20.3068 22.0002 19.6566 22.0002 19V13H2.00024V19ZM11.0002 17H13.0002C13.2655 17 13.5198 17.1054 13.7074 17.2929C13.8949 17.4804 14.0002 17.7348 14.0002 18C14.0002 18.2652 13.8949 18.5196 13.7074 18.7071C13.5198 18.8947 13.2655 19 13.0002 19H11.0002C10.735 19 10.4807 18.8947 10.2931 18.7071C10.1056 18.5196 10.0002 18.2652 10.0002 18C10.0002 17.7348 10.1056 17.4804 10.2931 17.2929C10.4807 17.1054 10.735 17 11.0002 17Z" fill="black"/>
</g>
<defs>
<clipPath id="clip0_606_13734">
<rect width="24" height="24" fill="white"/>
</clipPath>
</defs>
</svg>
