<svg width="24" height="24" viewBox="0 0 24 24" fill="none" xmlns="http://www.w3.org/2000/svg">
<g clip-path="url(#clip0_606_13382)">
<path d="M23.9241 18.1338L21.4601 4.13376C21.2579 2.97501 20.653 1.92486 19.7522 1.16853C18.8513 0.412205 17.7123 -0.00171963 16.5361 -0.000238365H7.45108C6.2739 -0.00202817 5.13396 0.412248 4.2326 1.16942C3.33125 1.92659 2.72647 2.97793 2.52508 4.13776L0.0760857 18.1378C-0.049678 18.8563 -0.016685 19.5937 0.17275 20.2982C0.362185 21.0026 0.703473 21.6571 1.17267 22.2157C1.64187 22.7743 2.2276 23.2234 2.88879 23.5316C3.54998 23.8398 4.27059 23.9996 5.00008 23.9998H19.0001C19.73 23.9998 20.4512 23.8401 21.1128 23.5317C21.7745 23.2234 22.3606 22.7738 22.8299 22.2148C23.2993 21.6557 23.6406 21.0007 23.8298 20.2956C24.019 19.5906 24.0515 18.8527 23.9251 18.1338H23.9241ZM13.0001 19.9998C13.0001 20.265 12.8947 20.5193 12.7072 20.7069C12.5196 20.8944 12.2653 20.9998 12.0001 20.9998C11.7349 20.9998 11.4805 20.8944 11.293 20.7069C11.1054 20.5193 11.0001 20.265 11.0001 19.9998V17.9998C11.0001 17.7345 11.1054 17.4802 11.293 17.2927C11.4805 17.1051 11.7349 16.9998 12.0001 16.9998C12.2653 16.9998 12.5196 17.1051 12.7072 17.2927C12.8947 17.4802 13.0001 17.7345 13.0001 17.9998V19.9998ZM13.0001 12.9998C13.0001 13.265 12.8947 13.5193 12.7072 13.7069C12.5196 13.8944 12.2653 13.9998 12.0001 13.9998C11.7349 13.9998 11.4805 13.8944 11.293 13.7069C11.1054 13.5193 11.0001 13.265 11.0001 12.9998V10.9998C11.0001 10.7345 11.1054 10.4802 11.293 10.2927C11.4805 10.1051 11.7349 9.99976 12.0001 9.99976C12.2653 9.99976 12.5196 10.1051 12.7072 10.2927C12.8947 10.4802 13.0001 10.7345 13.0001 10.9998V12.9998ZM13.0001 5.99976C13.0001 6.26498 12.8947 6.51933 12.7072 6.70687C12.5196 6.8944 12.2653 6.99976 12.0001 6.99976C11.7349 6.99976 11.4805 6.8944 11.293 6.70687C11.1054 6.51933 11.0001 6.26498 11.0001 5.99976V3.99976C11.0001 3.73454 11.1054 3.48019 11.293 3.29265C11.4805 3.10512 11.7349 2.99976 12.0001 2.99976C12.2653 2.99976 12.5196 3.10512 12.7072 3.29265C12.8947 3.48019 13.0001 3.73454 13.0001 3.99976V5.99976Z" fill="black"/>
</g>
<defs>
<clipPath id="clip0_606_13382">
<rect width="24" height="24" fill="white"/>
</clipPath>
</defs>
</svg>
