<svg width="24" height="24" viewBox="0 0 24 24" fill="none" xmlns="http://www.w3.org/2000/svg">
<g clip-path="url(#clip0_606_13552)">
<path d="M11.0001 5.27223C8.236 5.48002 5.56886 6.3811 3.24509 7.89223C3.54895 6.6814 4.19251 5.58261 5.09996 4.7253C6.00741 3.86799 7.14096 3.28785 8.36709 3.05323C8.69155 2.98796 9.02654 2.99674 9.34714 3.0789C9.66773 3.16106 9.96565 3.31449 10.2187 3.52777C10.4718 3.74104 10.6735 4.00867 10.8088 4.31071C10.9441 4.61274 11.0095 4.94141 11.0001 5.27223ZM23.6541 5.24923C23.2909 4.75228 22.8301 4.33459 22.3001 4.02167C21.77 3.70875 21.1817 3.50717 20.5711 3.42923C20.4932 2.81864 20.2916 2.23034 19.9787 1.70026C19.6657 1.17019 19.248 0.709467 18.7511 0.346233C18.4962 0.154442 18.193 0.0373922 17.8754 0.00819164C17.5577 -0.0210089 17.2382 0.0387932 16.9527 0.180901C16.6671 0.323008 16.4268 0.541809 16.2585 0.812798C16.0903 1.08379 16.0008 1.39626 16.0001 1.71523V7.00023C8.48309 7.00023 4.19409 8.43723 1.96309 12.1942C4.33054 12.8127 6.49019 14.0514 8.21934 15.7826C9.94849 17.5139 11.1846 19.675 11.8001 22.0432C15.5611 19.8132 17.0001 15.5232 17.0001 8.00023H22.2851C22.6041 7.99954 22.9165 7.91006 23.1875 7.74181C23.4585 7.57357 23.6773 7.33321 23.8194 7.04764C23.9615 6.76208 24.0213 6.44259 23.9921 6.12496C23.9629 5.80733 23.8459 5.5041 23.6541 5.24923ZM19.2001 13.0002H18.7251C18.5742 14.3552 18.3021 15.6939 17.9121 17.0002H18.7261C21.2131 17.0772 22.0121 13.1242 19.2001 13.0002ZM9.95109 22.9112C7.55109 23.5992 3.41409 25.0542 1.17109 22.8292C0.768289 22.4276 0.45617 21.9444 0.255735 21.4121C0.0553005 20.8798 -0.0287997 20.3108 0.00909294 19.7432C0.10185 17.8021 0.465709 15.8835 1.09009 14.0432C3.25495 14.5312 5.23685 15.6236 6.80542 17.1934C8.37399 18.7632 9.46481 20.746 9.95109 22.9112ZM5.00009 20.0002C5.00009 19.735 4.89474 19.4807 4.7072 19.2931C4.51966 19.1056 4.26531 19.0002 4.00009 19.0002C3.73488 19.0002 3.48052 19.1056 3.29299 19.2931C3.10545 19.4807 3.00009 19.735 3.00009 20.0002C3.00009 20.2654 3.10545 20.5198 3.29299 20.7073C3.48052 20.8949 3.73488 21.0002 4.00009 21.0002C4.26531 21.0002 4.51966 20.8949 4.7072 20.7073C4.89474 20.5198 5.00009 20.2654 5.00009 20.0002Z" fill="black"/>
</g>
<defs>
<clipPath id="clip0_606_13552">
<rect width="24" height="24" fill="white"/>
</clipPath>
</defs>
</svg>
