<svg width="24" height="24" viewBox="0 0 24 24" fill="none" xmlns="http://www.w3.org/2000/svg">
<g clip-path="url(#clip0_606_13291)">
<path d="M19.9478 23.0009H4.05183C3.36078 23.0049 2.68031 22.8312 2.07579 22.4963C1.47127 22.1615 0.963007 21.6768 0.599828 21.0889C0.241139 20.5151 0.0360083 19.8587 0.00413658 19.1827C-0.0277351 18.5067 0.114722 17.8339 0.417828 17.2289L8.37983 3.21291C8.72246 2.54468 9.24336 1.98433 9.88485 1.59393C10.5263 1.20353 11.2634 0.998311 12.0143 1.001C12.7652 1.00369 13.5008 1.21419 14.1395 1.60918C14.7781 2.00418 15.295 2.56824 15.6328 3.23891L23.5548 17.1799C23.8688 17.7894 24.0195 18.4699 23.9922 19.155C23.9649 19.8401 23.7604 20.5064 23.3988 21.0889C23.0357 21.6767 22.5276 22.1613 21.9233 22.4961C21.319 22.8309 20.6387 23.0047 19.9478 23.0009Z" fill="black"/>
</g>
<defs>
<clipPath id="clip0_606_13291">
<rect width="24" height="24" fill="white"/>
</clipPath>
</defs>
</svg>
