<svg width="24" height="24" viewBox="0 0 24 24" fill="none" xmlns="http://www.w3.org/2000/svg">
<path d="M10.9569 12.3541C10.9104 12.3077 10.8734 12.2525 10.8482 12.1918C10.823 12.131 10.81 12.0659 10.81 12.0001C10.81 11.9344 10.823 11.8692 10.8482 11.8085C10.8734 11.7477 10.9104 11.6926 10.9569 11.6461L15.5429 7.06113C15.8243 6.77986 15.9824 6.39834 15.9825 6.00048C15.9826 5.60262 15.8247 5.22102 15.5434 4.93963C15.2622 4.65823 14.8806 4.50009 14.4828 4.5C14.0849 4.49991 13.7033 4.65786 13.4219 4.93913L8.83593 9.52513C8.1807 10.1822 7.81274 11.0722 7.81274 12.0001C7.81274 12.928 8.1807 13.8181 8.83593 14.4751L13.4219 19.0611C13.7033 19.3424 14.0849 19.5003 14.4828 19.5003C14.8806 19.5002 15.2622 19.342 15.5434 19.0606C15.8247 18.7792 15.9826 18.3976 15.9825 17.9998C15.9824 17.6019 15.8243 17.2204 15.5429 16.9391L10.9569 12.3541Z" fill="black"/>
</svg>
