<svg width="24" height="24" viewBox="0 0 24 24" fill="none" xmlns="http://www.w3.org/2000/svg">
<path d="M16.5512 12C18.8563 10.1176 20.4177 7.47769 20.9572 4.551C21.0395 3.99066 21.0001 3.41918 20.8417 2.87545C20.6832 2.33171 20.4096 1.82848 20.0392 1.4C19.6631 0.961938 19.1969 0.610121 18.6724 0.368524C18.148 0.126928 17.5776 0.00123104 17.0002 0L7.00523 0C6.42694 0.000313842 5.85555 0.125575 5.33017 0.36721C4.80479 0.608844 4.33782 0.961146 3.96123 1.4C3.58994 1.82928 3.31578 2.3337 3.15751 2.87876C2.99924 3.42381 2.9606 3.99663 3.04423 4.558C3.58114 7.4825 5.14119 10.1205 7.44523 12C5.14116 13.8801 3.58143 16.5189 3.04523 19.444C2.96176 20.005 3.00039 20.5774 3.15848 21.1221C3.31657 21.6667 3.59039 22.1709 3.96123 22.6C4.33782 23.0389 4.80479 23.3912 5.33017 23.6328C5.85555 23.8744 6.42694 23.9997 7.00523 24H17.0002C17.5785 23.9995 18.1498 23.8741 18.6752 23.6325C19.2005 23.3909 19.6675 23.0387 20.0442 22.6C20.4152 22.1709 20.6892 21.6668 20.8477 21.1222C21.0061 20.5775 21.0452 20.0051 20.9622 19.444C20.4202 16.5184 18.857 13.8804 16.5512 12ZM17.8282 20.559C17.7368 20.6946 17.6135 20.8057 17.4691 20.8826C17.3248 20.9595 17.1638 20.9998 17.0002 21H7.00023C6.83652 21.0001 6.6753 20.96 6.53071 20.8832C6.38612 20.8065 6.26259 20.6954 6.17096 20.5597C6.07934 20.424 6.02242 20.268 6.0052 20.1052C5.98799 19.9424 6.011 19.7778 6.07223 19.626C7.11198 17.3879 8.69291 15.444 10.6722 13.97L11.3722 13.411C11.5492 13.2702 11.7686 13.1936 11.9947 13.1936C12.2208 13.1936 12.4403 13.2702 12.6172 13.411L13.3072 13.962C15.2864 15.4412 16.8699 17.3861 17.9172 19.624C17.9801 19.7752 18.0048 19.9396 17.9893 20.1026C17.9738 20.2656 17.9185 20.4224 17.8282 20.559ZM15.3492 19H8.64923C9.54771 17.6787 10.652 16.5099 11.9202 15.538L12.0002 15.472L12.0712 15.527C13.3389 16.5059 14.4451 17.6779 15.3492 19Z" fill="black"/>
</svg>
