<svg width="24" height="24" viewBox="0 0 24 24" fill="none" xmlns="http://www.w3.org/2000/svg">
<g clip-path="url(#clip0_606_13385)">
<path d="M10.42 20.656C9.61638 20.6553 8.834 20.3977 8.18703 19.921L1.54603 15.051C1.06732 14.6995 0.678082 14.2402 0.409795 13.7103C0.141507 13.1805 0.00170898 12.5949 0.00170898 12.001C0.00170898 11.4071 0.141507 10.8215 0.409795 10.2917C0.678082 9.76179 1.06732 9.30252 1.54603 8.951L8.18703 4.081C8.73171 3.68075 9.37367 3.43374 10.0462 3.36567C10.7186 3.2976 11.3971 3.41095 12.0109 3.69392C12.6248 3.9769 13.1516 4.41918 13.5365 4.97475C13.9215 5.53031 14.1506 6.17888 14.2 6.853L17.982 4.079C18.5459 3.66655 19.2129 3.41825 19.9093 3.36161C20.6056 3.30498 21.304 3.44221 21.9271 3.75812C22.5502 4.07403 23.0737 4.55627 23.4396 5.15141C23.8055 5.74656 23.9994 6.43138 24 7.13V16.87C23.9999 17.5691 23.806 18.2545 23.44 18.8502C23.0739 19.4458 22.5501 19.9284 21.9264 20.2444C21.3028 20.5604 20.6038 20.6975 19.907 20.6404C19.2103 20.5833 18.5429 20.3343 17.979 19.921L14.2 17.147C14.1291 18.1005 13.7005 18.9919 13.0001 19.6426C12.2996 20.2934 11.3791 20.6553 10.423 20.656H10.42Z" fill="black"/>
</g>
<defs>
<clipPath id="clip0_606_13385">
<rect width="24" height="24" fill="white"/>
</clipPath>
</defs>
</svg>
