<svg width="24" height="24" viewBox="0 0 24 24" fill="none" xmlns="http://www.w3.org/2000/svg">
<g clip-path="url(#clip0_606_13320)">
<path d="M18.9997 17.0005C19.0014 18.149 18.7204 19.2803 18.1815 20.2946C17.6426 21.3089 16.8625 22.1751 15.9098 22.8166C14.9571 23.4582 13.8612 23.8554 12.7187 23.9734C11.5763 24.0914 10.4223 23.9264 9.35863 23.4931C8.29496 23.0597 7.35427 22.3713 6.61951 21.4885C5.88475 20.6057 5.37851 19.5557 5.14542 18.431C4.91233 17.3064 4.95956 16.1416 5.28294 15.0396C5.60633 13.9375 6.19593 12.9319 6.99975 12.1115V5.00049C7.21075 -1.6085 16.7907 -1.5995 16.9997 5.00049V12.1115C18.2787 13.4178 18.9964 15.1723 18.9997 17.0005ZM14.9997 17.0005C14.9997 16.3802 14.8073 15.7751 14.4491 15.2687C14.0909 14.7622 13.5846 14.3792 12.9997 14.1725V8.00049C12.9997 7.73527 12.8944 7.48092 12.7069 7.29338C12.5193 7.10584 12.265 7.00049 11.9997 7.00049C11.7345 7.00049 11.4802 7.10584 11.2926 7.29338C11.1051 7.48092 10.9997 7.73527 10.9997 8.00049V14.1725C10.4812 14.3558 10.023 14.6782 9.6753 15.1043C9.32759 15.5305 9.10373 16.0441 9.02818 16.5889C8.95264 17.1337 9.02832 17.6887 9.24695 18.1934C9.46559 18.6981 9.81877 19.133 10.2679 19.4505C10.717 19.768 11.2447 19.956 11.7934 19.9938C12.3422 20.0316 12.8907 19.9179 13.3791 19.665C13.8676 19.4121 14.2771 19.0298 14.5629 18.5599C14.8487 18.0899 14.9998 17.5505 14.9997 17.0005Z" fill="black"/>
</g>
<defs>
<clipPath id="clip0_606_13320">
<rect width="24" height="24" fill="white"/>
</clipPath>
</defs>
</svg>
