<svg width="24" height="24" viewBox="0 0 24 24" fill="none" xmlns="http://www.w3.org/2000/svg">
<g clip-path="url(#clip0_606_13273)">
<path d="M11.0001 20C11.0001 20.2652 10.8947 20.5196 10.7072 20.7071C10.5197 20.8947 10.2653 21 10.0001 21H8.00008V23C8.00008 23.2652 7.89473 23.5196 7.70719 23.7071C7.51965 23.8947 7.2653 24 7.00008 24C6.73487 24 6.48051 23.8947 6.29298 23.7071C6.10544 23.5196 6.00008 23.2652 6.00008 23V21H4.00008C3.73487 21 3.48051 20.8947 3.29298 20.7071C3.10544 20.5196 3.00008 20.2652 3.00008 20C3.00008 19.7348 3.10544 19.4804 3.29298 19.2929C3.48051 19.1054 3.73487 19 4.00008 19H6.00008V14.849C4.9845 14.6446 4.02228 14.232 3.17407 13.6373C2.32586 13.0425 1.61007 12.2785 1.07181 11.3933C0.533554 10.5082 0.184504 9.52112 0.0466656 8.49438C-0.0911725 7.46764 -0.0148093 6.42348 0.270941 5.42772C0.556692 4.43196 1.04563 3.50619 1.70694 2.70878C2.36825 1.91137 3.18759 1.2596 4.1133 0.794575C5.03901 0.329546 6.05102 0.0613362 7.08554 0.0068534C8.12006 -0.0476294 9.15464 0.112796 10.1241 0.478018C9.14072 1.36448 8.3545 2.44761 7.81636 3.65725C7.27822 4.86689 7.00014 6.17607 7.00014 7.50002C7.00014 8.82396 7.27822 10.1331 7.81636 11.3428C8.3545 12.5524 9.14072 13.6356 10.1241 14.522C9.44183 14.7757 8.72637 14.9289 8.00008 14.977V19H10.0001C10.2653 19 10.5197 19.1054 10.7072 19.2929C10.8947 19.4804 11.0001 19.7348 11.0001 20ZM24.0001 7.50002C24.0017 6.03761 23.5757 4.60662 22.7746 3.38316C21.9735 2.1597 20.8322 1.19714 19.4911 0.613924C18.15 0.0307118 16.6677 -0.147705 15.2265 0.100629C13.7853 0.348962 12.4482 1.01321 11.3797 2.01164C10.3111 3.01006 9.55776 4.2991 9.21232 5.72013C8.86688 7.14116 8.94443 8.63218 9.43541 10.0097C9.92639 11.3872 10.8094 12.5912 11.9757 13.4734C13.1421 14.3556 14.5409 14.8775 16.0001 14.975V19H14.0001C13.7349 19 13.4805 19.1054 13.293 19.2929C13.1054 19.4804 13.0001 19.7348 13.0001 20C13.0001 20.2652 13.1054 20.5196 13.293 20.7071C13.4805 20.8947 13.7349 21 14.0001 21H16.0001V23C16.0001 23.2652 16.1054 23.5196 16.293 23.7071C16.4805 23.8947 16.7349 24 17.0001 24C17.2653 24 17.5197 23.8947 17.7072 23.7071C17.8947 23.5196 18.0001 23.2652 18.0001 23V21H20.0001C20.2653 21 20.5197 20.8947 20.7072 20.7071C20.8947 20.5196 21.0001 20.2652 21.0001 20C21.0001 19.7348 20.8947 19.4804 20.7072 19.2929C20.5197 19.1054 20.2653 19 20.0001 19H18.0001V14.849C19.6928 14.501 21.2139 13.58 22.3068 12.2414C23.3997 10.9027 23.9978 9.22818 24.0001 7.50002Z" fill="black"/>
</g>
<defs>
<clipPath id="clip0_606_13273">
<rect width="24" height="24" fill="white"/>
</clipPath>
</defs>
</svg>
