<svg width="24" height="24" viewBox="0 0 24 24" fill="none" xmlns="http://www.w3.org/2000/svg">
<g clip-path="url(#clip0_606_13666)">
<path d="M5.86817 15.5831C4.81351 14.6089 4.00906 13.3949 3.52289 12.044C3.03672 10.6931 2.88315 9.2449 3.07517 7.82205C3.26504 6.37931 3.80191 5.00413 4.63976 3.81436C5.47762 2.6246 6.59147 1.65574 7.88585 0.990821C9.18023 0.325905 10.6165 -0.015236 12.0717 -0.00336245C13.5268 0.00851106 14.9574 0.373045 16.2407 1.059C17.5241 1.74495 18.622 2.73185 19.4403 3.93513C20.2586 5.13841 20.773 6.52217 20.9393 7.96782C21.1056 9.41346 20.9188 10.8779 20.3951 12.2355C19.8714 13.5932 19.0263 14.8036 17.9322 15.7631C17.2277 16.3687 16.6807 17.1364 16.3382 18.0001H13.0002V10.8161C13.5831 10.61 14.0881 10.2288 14.4461 9.72475C14.8041 9.22068 14.9976 8.61831 15.0002 8.00005C15.0002 7.73483 14.8948 7.48048 14.7073 7.29294C14.5197 7.10541 14.2654 7.00005 14.0002 7.00005C13.735 7.00005 13.4806 7.10541 13.2931 7.29294C13.1055 7.48048 13.0002 7.73483 13.0002 8.00005C13.0002 8.26527 12.8948 8.51962 12.7073 8.70716C12.5197 8.89469 12.2654 9.00005 12.0002 9.00005C11.735 9.00005 11.4806 8.89469 11.2931 8.70716C11.1055 8.51962 11.0002 8.26527 11.0002 8.00005C11.0002 7.73483 10.8948 7.48048 10.7073 7.29294C10.5197 7.10541 10.2654 7.00005 10.0002 7.00005C9.73496 7.00005 9.4806 7.10541 9.29307 7.29294C9.10553 7.48048 9.00017 7.73483 9.00017 8.00005C9.00274 8.61831 9.19626 9.22068 9.55426 9.72475C9.91226 10.2288 10.4173 10.61 11.0002 10.8161V18.0001H7.56317C7.18087 17.0806 6.60239 16.2557 5.86817 15.5831ZM8.00017 20.0001V20.3101C8.00123 21.2884 8.39034 22.2263 9.08212 22.9181C9.7739 23.6099 10.7118 23.999 11.6902 24.0001H12.3102C13.2885 23.999 14.2264 23.6099 14.9182 22.9181C15.61 22.2263 15.9991 21.2884 16.0002 20.3101V20.0001H8.00017Z" fill="black"/>
</g>
<defs>
<clipPath id="clip0_606_13666">
<rect width="24" height="24" fill="white"/>
</clipPath>
</defs>
</svg>
