<svg width="24" height="24" viewBox="0 0 24 24" fill="none" xmlns="http://www.w3.org/2000/svg">
<g clip-path="url(#clip0_606_13561)">
<path d="M20.678 7.39277C19.762 8.30877 19.971 10.2308 20.703 11.5598C20.9824 12.0867 21.0634 12.6964 20.9311 13.2779C20.7988 13.8594 20.4621 14.3741 19.9823 14.7283C19.5025 15.0825 18.9115 15.2527 18.3168 15.2078C17.7221 15.1629 17.1632 14.906 16.742 14.4838L9.51603 7.25777C9.09633 6.83601 8.8416 6.27787 8.798 5.68447C8.7544 5.09107 8.92481 4.50169 9.27835 4.02312C9.6319 3.54455 10.1452 3.20846 10.7252 3.07576C11.3052 2.94306 11.9136 3.02253 12.44 3.29976C13.769 4.03077 15.691 4.24077 16.607 3.32476L19.086 0.842765C19.6343 0.319077 20.3633 0.0268555 21.1215 0.0268555C21.8797 0.0268555 22.6088 0.319077 23.157 0.842765C23.4248 1.11024 23.6372 1.42785 23.7821 1.77746C23.927 2.12707 24.0016 2.50181 24.0016 2.88026C24.0016 3.25872 23.927 3.63346 23.7821 3.98307C23.6372 4.33268 23.4248 4.65029 23.157 4.91777L20.678 7.39277ZM1.96903 17.3468C1.47607 17.8443 1.15381 18.4855 1.04867 19.1779C0.943537 19.8704 1.06096 20.5783 1.38403 21.1998L0.293031 22.2928C0.10556 22.4803 0.000244141 22.7346 0.000244141 22.9998C0.000244141 23.2649 0.10556 23.5192 0.293031 23.7068C0.480558 23.8942 0.734866 23.9996 1.00003 23.9996C1.26519 23.9996 1.5195 23.8942 1.70703 23.7068L2.80003 22.6158C3.4201 22.9459 4.13014 23.0673 4.82465 22.9617C5.51917 22.8561 6.16109 22.5293 6.65503 22.0298L14.055 14.6298L9.37303 9.94377L1.96903 17.3468Z" fill="black"/>
</g>
<defs>
<clipPath id="clip0_606_13561">
<rect width="24" height="24" fill="white"/>
</clipPath>
</defs>
</svg>
