<svg width="24" height="24" viewBox="0 0 24 24" fill="none" xmlns="http://www.w3.org/2000/svg">
<g clip-path="url(#clip0_606_13269)">
<path d="M23.9919 12.1594C23.9681 13.9098 23.5583 15.6335 22.7919 17.2074C22.7183 17.2066 22.6448 17.2143 22.5729 17.2304C20.7551 17.7648 18.8675 18.024 16.9729 17.9994C14.9334 18.0564 12.8979 17.7863 10.9439 17.1994C10.7115 17.1206 10.5025 16.9852 10.3355 16.8054C10.1685 16.6257 10.049 16.4072 9.98754 16.1696C9.92612 15.9321 9.9248 15.683 9.9837 15.4448C10.0426 15.2067 10.1599 14.9869 10.3249 14.8054C10.6616 14.4307 11.0217 14.0777 11.4029 13.7484C11.5996 13.59 11.834 13.4853 12.0832 13.4445C12.3324 13.4037 12.5879 13.4281 12.8249 13.5154C14.1034 13.9419 15.4422 14.16 16.7899 14.1614C19.3243 14.1353 21.8076 13.445 23.9919 12.1594ZM15.2479 12.0234C15.4746 12.0601 15.7066 12.044 15.926 11.9761C16.1454 11.9082 16.3461 11.7905 16.5123 11.6322C16.6786 11.4738 16.806 11.2791 16.8845 11.0634C16.963 10.8476 16.9905 10.6166 16.9649 10.3884C16.5019 6.60903 14.7921 3.09192 12.1059 0.393371C12.0037 0.282646 11.9285 0.149881 11.8859 0.00537109C10.304 0.0169672 8.74018 0.343661 7.2859 0.966371C8.80377 2.09885 10.0745 3.52927 11.0202 5.17002C11.9659 6.81077 12.5668 8.6273 12.7859 10.5084C12.8271 10.7978 12.9529 11.0686 13.1476 11.2867C13.3422 11.5049 13.597 11.6606 13.8799 11.7344C14.329 11.8607 14.786 11.9573 15.2479 12.0234ZM20.9219 11.3804C21.9382 11.0074 22.9063 10.5146 23.8059 9.91237C23.3934 7.59567 22.3099 5.45103 20.6897 3.74448C19.0696 2.03792 16.9841 0.844543 14.6919 0.312371C17.0296 3.1226 18.507 6.54752 18.9469 10.1764C18.9738 10.3973 19.0504 10.6093 19.1709 10.7963C19.2915 10.9834 19.4528 11.1408 19.6428 11.2567C19.8329 11.3725 20.0467 11.4438 20.2682 11.4652C20.4897 11.4867 20.7132 11.4577 20.9219 11.3804ZM16.7999 19.9994C14.3368 20.0402 11.8857 19.6472 9.5589 18.8384C9.37159 18.7699 9.1721 18.7411 8.97307 18.7538C8.77404 18.7664 8.57982 18.8203 8.4027 18.912C8.22558 19.0036 8.06943 19.1311 7.94415 19.2862C7.81887 19.4414 7.72718 19.6209 7.6749 19.8134C7.40703 20.8687 7.28622 21.956 7.3159 23.0444C9.69547 24.0559 12.3384 24.2706 14.85 23.6566C17.3617 23.0426 19.6074 21.6327 21.2519 19.6374C19.7849 19.9154 18.2925 20.0368 16.7999 19.9994ZM10.7999 10.8304C10.7364 10.2404 10.6284 9.65607 10.4769 9.08237C10.4114 8.84418 10.2868 8.62641 10.1146 8.44927C9.9424 8.27213 9.72824 8.14138 9.49201 8.06915C9.25577 7.99692 9.00511 7.98556 8.76331 8.03613C8.52151 8.08669 8.2964 8.19754 8.1089 8.35837C5.22609 10.8891 3.1705 14.2278 2.2089 17.9414C2.16004 18.2198 2.12897 18.501 2.1159 18.7834C2.97429 20.0317 4.05983 21.1074 5.3159 21.9544C5.4227 20.0597 5.91594 18.2068 6.76531 16.5098C7.61469 14.8128 8.80222 13.3075 10.2549 12.0864C10.4416 11.9376 10.589 11.7453 10.684 11.5263C10.779 11.3073 10.8188 11.0683 10.7999 10.8304ZM7.7669 4.10837C7.04279 3.31168 6.2127 2.6182 5.2999 2.04737C3.08328 3.52812 1.42609 5.70821 0.592419 8.2402C-0.241249 10.7722 -0.203412 13.5104 0.699901 16.0184C1.99547 12.1483 4.38357 8.73599 7.5759 6.19337C7.72985 6.07216 7.85747 5.92085 7.95099 5.74867C8.04451 5.5765 8.10196 5.38707 8.11984 5.19195C8.13771 4.99683 8.11564 4.80012 8.05495 4.61382C7.99427 4.42751 7.89626 4.25553 7.7669 4.10837Z" fill="black"/>
</g>
<defs>
<clipPath id="clip0_606_13269">
<rect width="24" height="24" fill="white"/>
</clipPath>
</defs>
</svg>
