<svg width="24" height="24" viewBox="0 0 24 24" fill="none" xmlns="http://www.w3.org/2000/svg">
<g clip-path="url(#clip0_606_13721)">
<path d="M9.00006 23.9129C8.55106 23.9529 8.10006 23.9809 7.66906 23.9809C5.57519 24.1248 3.50716 23.4508 1.90006 22.1009C0.38206 20.5789 -0.17394 17.9099 0.08306 15.0009L9.00006 23.9129ZM23.9451 8.53193C24.1001 5.80693 23.5351 3.33993 22.1001 1.90093C20.6651 0.461932 18.2001 -0.0990678 15.4711 0.0539322L23.9451 8.53193ZM23.6091 11.0239C23.0007 14.1447 21.5238 17.0304 19.3481 19.3489C17.1338 21.4299 14.3949 22.869 11.4251 23.5119L0.47506 12.5619C1.12576 9.59609 2.56944 6.86253 4.65206 4.65293C6.97062 2.47724 9.85628 1.00027 12.9771 0.391932L23.6091 11.0239ZM17.7091 10.2939L13.7091 6.29393C13.5205 6.11177 13.2679 6.01098 13.0057 6.01326C12.7435 6.01554 12.4926 6.12071 12.3072 6.30611C12.1218 6.49152 12.0167 6.74233 12.0144 7.00453C12.0121 7.26673 12.1129 7.51933 12.2951 7.70793L13.5861 9.00093L12.0001 10.5869L10.7071 9.29393C10.5185 9.11177 10.2659 9.01098 10.0037 9.01326C9.74146 9.01554 9.49065 9.12071 9.30524 9.30611C9.11983 9.49152 9.01466 9.74234 9.01239 10.0045C9.01011 10.2667 9.1109 10.5193 9.29306 10.7079L10.5861 12.0009L9.00006 13.5869L7.70706 12.2939C7.51846 12.1118 7.26586 12.011 7.00366 12.0133C6.74146 12.0155 6.49065 12.1207 6.30524 12.3061C6.11983 12.4915 6.01466 12.7423 6.01239 13.0045C6.01011 13.2667 6.1109 13.5193 6.29306 13.7079L10.2931 17.7079C10.4817 17.8901 10.7343 17.9909 10.9965 17.9886C11.2587 17.9863 11.5095 17.8812 11.6949 17.6958C11.8803 17.5103 11.9855 17.2595 11.9877 16.9973C11.99 16.7351 11.8892 16.4825 11.7071 16.2939L10.4141 15.0009L12.0001 13.4149L13.2931 14.7079C13.4817 14.8901 13.7343 14.9909 13.9965 14.9886C14.2587 14.9863 14.5095 14.8812 14.6949 14.6958C14.8803 14.5103 14.9855 14.2595 14.9877 13.9973C14.99 13.7351 14.8892 13.4825 14.7071 13.2939L13.4141 12.0009L15.0001 10.4149L16.2931 11.7079C16.4817 11.8901 16.7343 11.9909 16.9965 11.9886C17.2587 11.9863 17.5095 11.8812 17.6949 11.6958C17.8803 11.5103 17.9855 11.2595 17.9877 10.9973C17.99 10.7351 17.8892 10.4825 17.7071 10.2939H17.7091Z" fill="black"/>
</g>
<defs>
<clipPath id="clip0_606_13721">
<rect width="24" height="24" fill="white"/>
</clipPath>
</defs>
</svg>
