<svg width="24" height="24" viewBox="0 0 24 24" fill="none" xmlns="http://www.w3.org/2000/svg">
<g clip-path="url(#clip0_606_13608)">
<path d="M23.6298 3.845C23.4427 3.584 23.1963 3.37125 22.9108 3.22432C22.6253 3.07739 22.3089 3.0005 21.9878 3H18.4628C18.9708 2.152 19.5388 0.1 17.9998 0C17.7346 0 17.4802 0.105357 17.2927 0.292893C17.1051 0.48043 16.9998 0.734784 16.9998 1C16.9998 1.53043 16.7891 2.03914 16.414 2.41421C16.0389 2.78929 15.5302 3 14.9998 3H8.99979C8.46935 3 7.96065 2.78929 7.58557 2.41421C7.2105 2.03914 6.99979 1.53043 6.99979 1C6.99979 0.734784 6.89443 0.48043 6.70689 0.292893C6.51936 0.105357 6.265 0 5.99979 0C4.45979 0.105 5.02979 2.151 5.53679 3H2.01279C1.69763 3.00089 1.3871 3.076 1.10637 3.21923C0.825631 3.36246 0.582571 3.56979 0.396871 3.82443C0.211171 4.07907 0.0880512 4.37387 0.0374805 4.68495C-0.0130902 4.99603 0.0103102 5.31465 0.105787 5.615C0.424762 6.50763 0.932272 7.32108 1.59379 8C2.11879 7.491 3.28079 6.4 4.69979 5.228C4.90453 5.05932 5.1679 4.97889 5.43195 5.00439C5.696 5.0299 5.93911 5.15925 6.10779 5.364C6.27646 5.56875 6.3569 5.83212 6.33139 6.09617C6.30589 6.36022 6.17653 6.60332 5.97179 6.772C5.45379 7.198 4.97179 7.618 4.53779 8H5.99979C7.32538 8.00159 8.59623 8.52888 9.53357 9.46622C10.4709 10.4036 10.9982 11.6744 10.9998 13V17C10.9998 17.2652 10.8944 17.5196 10.7069 17.7071C10.5194 17.8946 10.265 18 9.99979 18C9.73457 18 9.48022 17.8946 9.29268 17.7071C9.10514 17.5196 8.99979 17.2652 8.99979 17V13C9.00007 12.6472 8.93777 12.2971 8.81579 11.966C8.57093 12.0185 8.31682 12.0088 8.07666 11.9379C7.83649 11.867 7.6179 11.737 7.44083 11.56C7.26376 11.3829 7.13383 11.1643 7.06291 10.9241C6.99198 10.684 6.98232 10.4299 7.03479 10.185C6.70346 10.0626 6.35302 9.99992 5.99979 10H3.22079L5.99979 21.135C6.03456 21.907 6.36592 22.6358 6.9248 23.1696C7.48369 23.7033 8.22698 24.0008 8.99979 24H14.9998C15.7726 24.0008 16.5159 23.7033 17.0748 23.1696C17.6337 22.6358 17.965 21.907 17.9998 21.135L20.7798 10H17.9998C17.647 9.99972 17.2969 10.062 16.9658 10.184C17.0183 10.4289 17.0086 10.683 16.9377 10.9231C16.8667 11.1633 16.7368 11.3819 16.5597 11.559C16.3827 11.736 16.1641 11.866 15.9239 11.9369C15.6837 12.0078 15.4296 12.0175 15.1848 11.965C15.0623 12.2963 14.9997 12.6468 14.9998 13V17C14.9998 17.2652 14.8944 17.5196 14.7069 17.7071C14.5194 17.8946 14.265 18 13.9998 18C13.7346 18 13.4802 17.8946 13.2927 17.7071C13.1051 17.5196 12.9998 17.2652 12.9998 17V13C13.0014 11.6744 13.5287 10.4036 14.466 9.46622C15.4033 8.52888 16.6742 8.00159 17.9998 8H19.4628C19.0328 7.618 18.5468 7.2 18.0288 6.772C17.8278 6.60229 17.7018 6.36023 17.678 6.09825C17.6543 5.83627 17.7347 5.57548 17.9019 5.37238C18.069 5.16929 18.3095 5.04025 18.5712 5.01322C18.8328 4.9862 19.0946 5.06336 19.2998 5.228C20.7198 6.4 21.8818 7.491 22.4068 8C23.0697 7.32127 23.5789 6.50787 23.8998 5.615C24.0005 5.32002 24.0286 5.00508 23.9816 4.69693C23.9346 4.38879 23.8139 4.09654 23.6298 3.845ZM14.9998 20C15.265 20 15.5194 20.1054 15.7069 20.2929C15.8944 20.4804 15.9998 20.7348 15.9998 21C15.9998 21.2652 15.8944 21.5196 15.7069 21.7071C15.5194 21.8946 15.265 22 14.9998 22H8.99979C8.73457 22 8.48022 21.8946 8.29268 21.7071C8.10514 21.5196 7.99979 21.2652 7.99979 21C7.99979 20.7348 8.10514 20.4804 8.29268 20.2929C8.48022 20.1054 8.73457 20 8.99979 20H14.9998Z" fill="black"/>
</g>
<defs>
<clipPath id="clip0_606_13608">
<rect width="24" height="24" fill="white"/>
</clipPath>
</defs>
</svg>
