<svg width="49" height="36" viewBox="0 0 49 36" fill="none" xmlns="http://www.w3.org/2000/svg">
<path d="M37.3335 36H11.3335C8.41709 35.9968 5.62104 34.8369 3.55883 32.7747C1.49662 30.7125 0.336672 27.9164 0.333496 25L0.333496 11C0.336672 8.08359 1.49662 5.28755 3.55883 3.22533C5.62104 1.16312 8.41709 0.00317634 11.3335 0H37.3335C40.2499 0.00317634 43.0459 1.16312 45.1082 3.22533C47.1704 5.28755 48.3303 8.08359 48.3335 11V25C48.3303 27.9164 47.1704 30.7125 45.1082 32.7747C43.0459 34.8369 40.2499 35.9968 37.3335 36V36ZM11.3335 6C10.0074 6 8.73564 6.52678 7.79796 7.46447C6.86028 8.40215 6.3335 9.67392 6.3335 11V25C6.3335 26.3261 6.86028 27.5979 7.79796 28.5355C8.73564 29.4732 10.0074 30 11.3335 30H37.3335C38.6596 30 39.9313 29.4732 40.869 28.5355C41.8067 27.5979 42.3335 26.3261 42.3335 25V11C42.3335 9.67392 41.8067 8.40215 40.869 7.46447C39.9313 6.52678 38.6596 6 37.3335 6H11.3335ZM11.3335 8C10.7402 8 10.1601 8.17595 9.66679 8.50559C9.17344 8.83524 8.78892 9.30377 8.56186 9.85195C8.33479 10.4001 8.27538 11.0033 8.39114 11.5853C8.5069 12.1672 8.79262 12.7018 9.21218 13.1213C9.63173 13.5409 10.1663 13.8266 10.7482 13.9424C11.3302 14.0581 11.9334 13.9987 12.4815 13.7716C13.0297 13.5446 13.4983 13.1601 13.8279 12.6667C14.1575 12.1734 14.3335 11.5933 14.3335 11C14.3335 10.2044 14.0174 9.44129 13.4548 8.87868C12.8922 8.31607 12.1291 8 11.3335 8ZM34.3335 11C34.3335 11.5933 34.5094 12.1734 34.8391 12.6667C35.1687 13.1601 35.6373 13.5446 36.1854 13.7716C36.7336 13.9987 37.3368 14.0581 37.9188 13.9424C38.5007 13.8266 39.0353 13.5409 39.4548 13.1213C39.8744 12.7018 40.1601 12.1672 40.2759 11.5853C40.3916 11.0033 40.3322 10.4001 40.1051 9.85195C39.8781 9.30377 39.4936 8.83524 39.0002 8.50559C38.5069 8.17595 37.9268 8 37.3335 8C36.5378 8 35.7748 8.31607 35.2122 8.87868C34.6496 9.44129 34.3335 10.2044 34.3335 11ZM13.4555 22.878C13.0359 22.4586 12.5013 22.1731 11.9194 22.0575C11.3375 21.9419 10.7344 22.0014 10.1864 22.2285C9.63829 22.4557 9.16987 22.8402 8.84031 23.3335C8.51075 23.8268 8.33486 24.4067 8.33486 25C8.33486 25.5933 8.51075 26.1732 8.84031 26.6665C9.16987 27.1598 9.63829 27.5443 10.1864 27.7715C10.7344 27.9986 11.3375 28.0581 11.9194 27.9425C12.5013 27.8269 13.0359 27.5414 13.4555 27.122C13.7343 26.8434 13.9554 26.5126 14.1063 26.1485C14.2572 25.7844 14.3349 25.3941 14.3349 25C14.3349 24.6059 14.2572 24.2156 14.1063 23.8515C13.9554 23.4874 13.7343 23.1566 13.4555 22.878V22.878ZM34.3335 25C34.3335 25.5933 34.5094 26.1734 34.8391 26.6667C35.1687 27.1601 35.6373 27.5446 36.1854 27.7716C36.7336 27.9987 37.3368 28.0581 37.9188 27.9424C38.5007 27.8266 39.0353 27.5409 39.4548 27.1213C39.8744 26.7018 40.1601 26.1672 40.2759 25.5853C40.3916 25.0033 40.3322 24.4001 40.1051 23.8519C39.8781 23.3038 39.4936 22.8352 39.0002 22.5056C38.5069 22.1759 37.9268 22 37.3335 22C36.5378 22 35.7748 22.3161 35.2122 22.8787C34.6496 23.4413 34.3335 24.2044 34.3335 25V25ZM17.3335 18C17.3335 16.6155 17.744 15.2622 18.5132 14.111C19.2824 12.9599 20.3756 12.0627 21.6547 11.5328C22.9338 11.003 24.3413 10.8644 25.6991 11.1345C27.057 11.4046 28.3043 12.0713 29.2832 13.0503C30.2622 14.0292 30.9289 15.2765 31.199 16.6344C31.4691 17.9922 31.3305 19.3997 30.8007 20.6788C30.2708 21.9579 29.3736 23.0511 28.2225 23.8203C27.0713 24.5895 25.718 25 24.3335 25C22.477 25 20.6965 24.2625 19.3837 22.9497C18.071 21.637 17.3335 19.8565 17.3335 18V18Z" fill="#5EB8D3"/>
</svg>
