<svg width="28" height="28" viewBox="0 0 28 28" fill="none" xmlns="http://www.w3.org/2000/svg">
<g clip-path="url(#clip0_2153_9210)">
<path d="M21.5833 28H20.4167C19.9525 28 19.5074 27.8156 19.1792 27.4874C18.851 27.1592 18.6667 26.7141 18.6667 26.25C18.6667 25.7859 18.851 25.3408 19.1792 25.0126C19.5074 24.6844 19.9525 24.5 20.4167 24.5H21.5833C22.3569 24.5 23.0987 24.1927 23.6457 23.6457C24.1927 23.0987 24.5 22.3569 24.5 21.5833V20.4167C24.5 19.9525 24.6844 19.5074 25.0126 19.1792C25.3408 18.851 25.7859 18.6667 26.25 18.6667C26.7141 18.6667 27.1592 18.851 27.4874 19.1792C27.8156 19.5074 28 19.9525 28 20.4167V21.5833C27.9981 23.2846 27.3215 24.9156 26.1186 26.1186C24.9156 27.3215 23.2846 27.9981 21.5833 28ZM28 7.58333V6.41667C27.9981 4.71543 27.3215 3.0844 26.1186 1.88144C24.9156 0.678488 23.2846 0.00185286 21.5833 0L20.4167 0C19.9525 0 19.5074 0.184374 19.1792 0.512563C18.851 0.840752 18.6667 1.28587 18.6667 1.75C18.6667 2.21413 18.851 2.65925 19.1792 2.98744C19.5074 3.31563 19.9525 3.5 20.4167 3.5H21.5833C22.3569 3.5 23.0987 3.80729 23.6457 4.35427C24.1927 4.90125 24.5 5.64312 24.5 6.41667V7.58333C24.5 8.04746 24.6844 8.49258 25.0126 8.82077C25.3408 9.14896 25.7859 9.33333 26.25 9.33333C26.7141 9.33333 27.1592 9.14896 27.4874 8.82077C27.8156 8.49258 28 8.04746 28 7.58333ZM9.33333 26.25C9.33333 25.7859 9.14896 25.3408 8.82077 25.0126C8.49258 24.6844 8.04746 24.5 7.58333 24.5H6.41667C5.64312 24.5 4.90125 24.1927 4.35427 23.6457C3.80729 23.0987 3.5 22.3569 3.5 21.5833V20.4167C3.5 19.9525 3.31563 19.5074 2.98744 19.1792C2.65925 18.851 2.21413 18.6667 1.75 18.6667C1.28587 18.6667 0.840752 18.851 0.512563 19.1792C0.184374 19.5074 0 19.9525 0 20.4167L0 21.5833C0.00185286 23.2846 0.678488 24.9156 1.88144 26.1186C3.0844 27.3215 4.71543 27.9981 6.41667 28H7.58333C8.04746 28 8.49258 27.8156 8.82077 27.4874C9.14896 27.1592 9.33333 26.7141 9.33333 26.25ZM3.5 7.58333V6.41667C3.5 5.64312 3.80729 4.90125 4.35427 4.35427C4.90125 3.80729 5.64312 3.5 6.41667 3.5H7.58333C8.04746 3.5 8.49258 3.31563 8.82077 2.98744C9.14896 2.65925 9.33333 2.21413 9.33333 1.75C9.33333 1.28587 9.14896 0.840752 8.82077 0.512563C8.49258 0.184374 8.04746 0 7.58333 0L6.41667 0C4.71543 0.00185286 3.0844 0.678488 1.88144 1.88144C0.678488 3.0844 0.00185286 4.71543 0 6.41667L0 7.58333C0 8.04746 0.184374 8.49258 0.512563 8.82077C0.840752 9.14896 1.28587 9.33333 1.75 9.33333C2.21413 9.33333 2.65925 9.14896 2.98744 8.82077C3.31563 8.49258 3.5 8.04746 3.5 7.58333ZM18.6667 14C18.6667 13.077 18.393 12.1748 17.8802 11.4073C17.3674 10.6399 16.6386 10.0418 15.7859 9.68856C14.9331 9.33535 13.9948 9.24294 13.0896 9.423C12.1843 9.60307 11.3528 10.0475 10.7002 10.7002C10.0475 11.3528 9.60307 12.1843 9.423 13.0896C9.24294 13.9948 9.33535 14.9331 9.68856 15.7859C10.0418 16.6386 10.6399 17.3674 11.4073 17.8802C12.1748 18.393 13.077 18.6667 14 18.6667C15.2377 18.6667 16.4247 18.175 17.2998 17.2998C18.175 16.4247 18.6667 15.2377 18.6667 14Z" fill="#067399"/>
</g>
<defs>
<clipPath id="clip0_2153_9210">
<rect width="28" height="28" fill="white"/>
</clipPath>
</defs>
</svg>
