<svg width="16" height="17" viewBox="0 0 16 17" fill="none" xmlns="http://www.w3.org/2000/svg">
<path d="M12.3333 1.16406H3.66667C2.69453 1.16512 1.76252 1.55177 1.07511 2.23917C0.387707 2.92658 0.00105878 3.85859 0 4.83073L0 12.1641C0.00105878 13.1362 0.387707 14.0682 1.07511 14.7556C1.76252 15.443 2.69453 15.8297 3.66667 15.8307H12.3333C13.3055 15.8297 14.2375 15.443 14.9249 14.7556C15.6123 14.0682 15.9989 13.1362 16 12.1641V4.83073C15.9989 3.85859 15.6123 2.92658 14.9249 2.23917C14.2375 1.55177 13.3055 1.16512 12.3333 1.16406ZM12.3333 3.16406C12.7376 3.16541 13.1274 3.31509 13.4287 3.58473L9.09533 7.91806C8.80101 8.19917 8.40967 8.35603 8.00267 8.35603C7.59567 8.35603 7.20432 8.19917 6.91 7.91806L2.57667 3.58473C2.87656 3.31631 3.2642 3.16671 3.66667 3.16406H12.3333ZM12.3333 13.8307H3.66667C3.22464 13.8307 2.80072 13.6551 2.48816 13.3426C2.17559 13.03 2 12.6061 2 12.1641V5.84206L5.49267 9.33473C5.82184 9.66404 6.21267 9.92528 6.64283 10.1035C7.07299 10.2817 7.53405 10.3735 7.99967 10.3735C8.46529 10.3735 8.92635 10.2817 9.35651 10.1035C9.78666 9.92528 10.1775 9.66404 10.5067 9.33473L14 5.84206V12.1641C14 12.6061 13.8244 13.03 13.5118 13.3426C13.1993 13.6551 12.7754 13.8307 12.3333 13.8307Z" fill="#30A2C5"/>
</svg>
