<svg width="16" height="17" viewBox="0 0 16 17" fill="none" xmlns="http://www.w3.org/2000/svg">
<g clip-path="url(#clip0_1464_5835)">
<path d="M11.6666 16.4997C6.23389 16.6531 -3.38477 7.02307 1.24189 1.79174C1.25856 1.77574 1.96923 1.15574 1.96923 1.15574C2.40917 0.730431 2.99859 0.494969 3.61049 0.500082C4.22238 0.505194 4.80778 0.750472 5.24056 1.18307L6.67589 2.72907C7.09829 3.17069 7.33188 3.75959 7.32702 4.37068C7.32217 4.98177 7.07926 5.56689 6.64989 6.00174L6.39056 6.26441C7.16137 7.97031 8.5248 9.33872 10.2279 10.1157L10.5012 9.84907C10.9455 9.4255 11.5357 9.1892 12.1496 9.1892C12.7634 9.1892 13.3536 9.4255 13.7979 9.84907L15.2899 11.2331C15.7325 11.6642 15.9866 12.2528 15.9967 12.8706C16.0068 13.4884 15.7722 14.0851 15.3439 14.5304C15.3439 14.5304 14.7239 15.2417 14.7079 15.2584C14.3081 15.656 13.8335 15.9704 13.3115 16.1835C12.7895 16.3966 12.2304 16.504 11.6666 16.4997ZM2.63323 3.23307C-0.606774 7.24441 9.76189 17.0151 13.2699 13.8664C13.2699 13.8664 13.8859 13.1604 13.9026 13.1437C13.9349 13.1137 13.9607 13.0772 13.9783 13.0368C13.996 12.9963 14.0051 12.9526 14.0051 12.9084C14.0051 12.8642 13.996 12.8205 13.9783 12.7801C13.9607 12.7396 13.9349 12.7031 13.9026 12.6731L12.4106 11.2904C12.2106 11.1237 12.0986 11.1217 11.9119 11.2637L11.1552 12.0084C11.0186 12.1428 10.8463 12.2351 10.6587 12.2743C10.4711 12.3136 10.2762 12.2981 10.0972 12.2297C8.76704 11.735 7.55879 10.96 6.5544 9.95732C5.55 8.95465 4.77294 7.74774 4.27589 6.41841C4.20333 6.23791 4.18499 6.04017 4.22312 5.8494C4.26125 5.65864 4.35419 5.48314 4.49056 5.34441L5.22989 4.59307C5.26359 4.56337 5.29068 4.52693 5.30943 4.48611C5.32817 4.44528 5.33814 4.40099 5.33871 4.35607C5.33928 4.31115 5.33042 4.26662 5.31271 4.22534C5.295 4.18406 5.26883 4.14695 5.23589 4.11641L3.79989 2.57041C3.73549 2.51903 3.65434 2.49333 3.57211 2.49825C3.48987 2.50318 3.41237 2.53838 3.35456 2.59707C3.33923 2.61374 2.63323 3.23307 2.63323 3.23307ZM15.7666 7.78841C16.0495 6.8098 16.0648 5.77321 15.8109 4.78668C15.5569 3.80014 15.043 2.89978 14.3227 2.17942C13.6025 1.45906 12.7021 0.945076 11.7156 0.691038C10.7291 0.437 9.69253 0.452206 8.71389 0.735071C8.58804 0.772629 8.47082 0.834608 8.36893 0.917468C8.26703 1.00033 8.18245 1.10245 8.12002 1.21799C8.05758 1.33354 8.01852 1.46025 8.00506 1.5909C7.9916 1.72154 8.004 1.85355 8.04156 1.9794C8.07912 2.10526 8.1411 2.22248 8.22396 2.32437C8.30682 2.42627 8.40893 2.51085 8.52448 2.57328C8.64003 2.63571 8.76674 2.67478 8.89738 2.68824C9.02803 2.7017 9.16004 2.6893 9.28589 2.65174C9.91874 2.47082 10.5885 2.46246 11.2256 2.62754C11.8628 2.79261 12.4442 3.12511 12.9096 3.59057C13.375 4.05602 13.7074 4.63748 13.8724 5.27467C14.0374 5.91186 14.0289 6.58158 13.8479 7.21441C13.8104 7.3403 13.7981 7.47235 13.8116 7.60301C13.8252 7.73367 13.8643 7.86038 13.9268 7.9759C13.9894 8.09143 14.074 8.1935 14.176 8.27629C14.278 8.35908 14.3953 8.42096 14.5212 8.45841C14.6141 8.48578 14.7104 8.4997 14.8072 8.49974C15.0225 8.4995 15.2319 8.42983 15.4043 8.30108C15.5768 8.17232 15.7031 7.99136 15.7646 7.78507L15.7666 7.78841ZM12.0426 7.87707C12.1355 7.78421 12.2092 7.67394 12.2595 7.55257C12.3098 7.4312 12.3357 7.30111 12.3357 7.16974C12.3357 7.03836 12.3098 6.90827 12.2595 6.78691C12.2092 6.66554 12.1355 6.55527 12.0426 6.46241L11.3332 5.75241V4.83307C11.3332 4.56786 11.2279 4.3135 11.0403 4.12596C10.8528 3.93843 10.5984 3.83307 10.3332 3.83307C10.068 3.83307 9.81366 3.93843 9.62612 4.12596C9.43858 4.3135 9.33323 4.56786 9.33323 4.83307V6.16641C9.33317 6.29775 9.35898 6.42782 9.4092 6.54918C9.45941 6.67055 9.53305 6.78083 9.62589 6.87374L10.6259 7.87374C10.7188 7.96667 10.829 8.04038 10.9504 8.09068C11.0718 8.14097 11.2018 8.16686 11.3332 8.16686C11.4646 8.16686 11.5947 8.14097 11.7161 8.09068C11.8374 8.04038 11.9477 7.96667 12.0406 7.87374L12.0426 7.87707Z" fill="#30A2C5"/>
</g>
<defs>
<clipPath id="clip0_1464_5835">
<rect width="16" height="16" fill="white" transform="translate(0 0.5)"/>
</clipPath>
</defs>
</svg>
