<svg width="20" height="21" viewBox="0 0 20 21" fill="none" xmlns="http://www.w3.org/2000/svg">
<g clip-path="url(#clip0_1464_3523)">
<path d="M0.976667 16.4316C0.351502 17.0566 0.000188791 17.9043 0 18.7883L0 20.4991H1.71083C2.59482 20.499 3.44252 20.1476 4.0675 19.5225L15.1867 8.40333L12.0958 5.3125L0.976667 16.4316Z" fill="#5F696C"/>
<path d="M19.2873 1.21109C19.0843 1.00795 18.8434 0.846803 18.5781 0.736854C18.3129 0.626905 18.0286 0.570313 17.7414 0.570312C17.4543 0.570312 17.17 0.626905 16.9047 0.736854C16.6395 0.846803 16.3985 1.00795 16.1956 1.21109L13.2739 4.13359L16.3648 7.22442L19.2873 4.30276C19.4904 4.09983 19.6515 3.85886 19.7615 3.59361C19.8714 3.32837 19.928 3.04405 19.928 2.75692C19.928 2.46979 19.8714 2.18548 19.7615 1.92023C19.6515 1.65499 19.4904 1.41402 19.2873 1.21109V1.21109Z" fill="#5F696C"/>
</g>
<defs>
<clipPath id="clip0_1464_3523">
<rect width="20" height="20" fill="white" transform="translate(0 0.5)"/>
</clipPath>
</defs>
</svg>
