<svg width="25" height="24" viewBox="0 0 25 24" fill="none" xmlns="http://www.w3.org/2000/svg">
<path fill-rule="evenodd" clip-rule="evenodd" d="M12.5 14.125C12.1685 14.125 11.8505 13.9933 11.6161 13.7589C11.3817 13.5245 11.25 13.2065 11.25 12.875V6.625C11.25 6.29348 11.3817 5.97554 11.6161 5.74112C11.8505 5.5067 12.1685 5.375 12.5 5.375C12.8315 5.375 13.1495 5.5067 13.3839 5.74112C13.6183 5.97554 13.75 6.29348 13.75 6.625V12.875C13.75 13.2065 13.6183 13.5245 13.3839 13.7589C13.1495 13.9933 12.8315 14.125 12.5 14.125Z" fill="#067399"/>
<path d="M11.1836 16.8241C11.1836 16.475 11.3223 16.1402 11.5691 15.8933C11.816 15.6465 12.1508 15.5078 12.4998 15.5078C12.8489 15.5078 13.1837 15.6465 13.4306 15.8933C13.6774 16.1402 13.8161 16.475 13.8161 16.8241C13.8161 17.1732 13.6774 17.5079 13.4306 17.7548C13.1837 18.0016 12.8489 18.1403 12.4998 18.1403C12.1508 18.1403 11.816 18.0016 11.5691 17.7548C11.3223 17.5079 11.1836 17.1732 11.1836 16.8241Z" fill="#067399"/>
<path fill-rule="evenodd" clip-rule="evenodd" d="M17.0093 2.67781L24.3543 16.0778C26.2443 19.5266 23.7631 23.7503 19.8456 23.7503H5.1556C1.2381 23.7503 -1.2444 19.5253 0.64685 16.0766L7.99185 2.67656C9.94935 -0.892187 15.0518 -0.892187 17.0093 2.67656V2.67781ZM14.7543 3.92781C13.7768 2.14156 11.2243 2.14156 10.2468 3.92781L2.9006 17.3253C1.95435 19.0503 3.1956 21.1616 5.15435 21.1616H19.8443C21.8031 21.1616 23.0443 19.0491 22.0981 17.3241L14.7543 3.92781Z" fill="#067399"/>
</svg>
