<svg width="20" height="20" viewBox="0 0 20 20" fill="none" xmlns="http://www.w3.org/2000/svg">
<g clip-path="url(#clip0_1196_3296)">
<path d="M4.11913 4.6712L0.853292 7.93704C0.32298 8.49276 0.0270996 9.23139 0.0270996 9.99954C0.0270996 10.7677 0.32298 11.5063 0.853292 12.062L4.11913 15.3279C4.23443 15.4473 4.37237 15.5425 4.52487 15.608C4.67738 15.6735 4.8414 15.708 5.00737 15.7094C5.17335 15.7109 5.33795 15.6793 5.49157 15.6164C5.64519 15.5536 5.78475 15.4607 5.90212 15.3434C6.01949 15.226 6.1123 15.0864 6.17515 14.9328C6.238 14.7792 6.26963 14.6146 6.26819 14.4486C6.26675 14.2826 6.23226 14.1186 6.16675 13.9661C6.10124 13.8136 6.00601 13.6757 5.88663 13.5604L3.57079 11.2429L18.7791 11.2237C19.1106 11.2237 19.4286 11.092 19.663 10.8576C19.8974 10.6232 20.0291 10.3052 20.0291 9.97371C20.0291 9.64218 19.8974 9.32424 19.663 9.08982C19.4286 8.8554 19.1106 8.7237 18.7791 8.7237L3.58329 8.74287L5.88663 6.4387C6.11432 6.20295 6.24032 5.8872 6.23747 5.55945C6.23462 5.23171 6.10316 4.91819 5.8714 4.68643C5.63964 4.45467 5.32612 4.32321 4.99838 4.32036C4.67063 4.31751 4.35488 4.4435 4.11913 4.6712V4.6712Z" fill="white"/>
</g>
<defs>
<clipPath id="clip0_1196_3296">
<rect width="20" height="20" fill="white"/>
</clipPath>
</defs>
</svg>
