<svg width="18" height="19" viewBox="0 0 18 19" fill="none" xmlns="http://www.w3.org/2000/svg">
<path d="M14.296 6.39043C14.1915 6.28589 14.0674 6.20296 13.9309 6.14637C13.7944 6.08979 13.648 6.06067 13.5002 6.06067C13.3524 6.06067 13.2061 6.08979 13.0695 6.14637C12.933 6.20296 12.8089 6.28589 12.7045 6.39043L9.26497 9.82918C9.19464 9.89948 9.09928 9.93897 8.99984 9.93897C8.90041 9.93897 8.80504 9.89948 8.73472 9.82918L5.29597 6.39043C5.08502 6.17938 4.79888 6.06078 4.50048 6.06071C4.20209 6.06064 3.91589 6.17911 3.70484 6.39005C3.4938 6.601 3.37519 6.88714 3.37512 7.18554C3.37505 7.48393 3.49352 7.77013 3.70447 7.98118L7.14397 11.4207C7.38772 11.6645 7.67711 11.8578 7.99561 11.9898C8.31411 12.1217 8.65547 12.1896 9.00022 12.1896C9.34496 12.1896 9.68633 12.1217 10.0048 11.9898C10.3233 11.8578 10.6127 11.6645 10.8565 11.4207L14.296 7.98118C14.5069 7.77021 14.6254 7.48411 14.6254 7.1858C14.6254 6.88749 14.5069 6.6014 14.296 6.39043Z" fill="#848B8F"/>
</svg>
