<svg width="124px" height="17px" viewBox="0 0 124 17" fill="none" xmlns="http://www.w3.org/2000/svg">
<g clip-path="url(#clip0_791_12824)">
<path d="M4 8.5H122" stroke="#068CB7" stroke-width="2" stroke-linecap="round"/>
<rect x="54" y="0.5" width="16px" height="16px" rx="8" fill="#068CB7"/>
<g clip-path="url(#clip1_791_12824)">
<path d="M61.9441 12.4999C61.8452 12.5 61.7484 12.4707 61.6662 12.4157C61.5839 12.3608 61.5198 12.2827 61.4819 12.1913C61.4441 12.0999 61.4342 11.9993 61.4535 11.9023C61.4728 11.8053 61.5204 11.7162 61.5904 11.6462L64.1477 9.08925C64.2251 9.01186 64.2865 8.91999 64.3284 8.81887C64.3703 8.71775 64.3919 8.60937 64.3919 8.49992C64.3919 8.39046 64.3703 8.28208 64.3284 8.18096C64.2865 8.07984 64.2251 7.98797 64.1477 7.91058L61.5904 5.35358C61.544 5.30714 61.5071 5.252 61.482 5.19132C61.4569 5.13064 61.4439 5.0656 61.4439 4.99992C61.4439 4.86727 61.4966 4.74005 61.5904 4.64625C61.6842 4.55245 61.8114 4.49976 61.9441 4.49976C62.0098 4.49976 62.0748 4.51269 62.1355 4.53783C62.1962 4.56296 62.2513 4.59981 62.2977 4.64625L64.8547 7.20358C65.1985 7.5474 65.3917 8.0137 65.3917 8.49992C65.3917 8.98613 65.1985 9.45244 64.8547 9.79625L62.2977 12.3536C62.2513 12.4 62.1961 12.4368 62.1355 12.4619C62.0748 12.487 62.0097 12.4999 61.9441 12.4999Z" fill="white"/>
<path d="M58.7623 12.5C58.6634 12.5 58.5668 12.4707 58.4846 12.4157C58.4024 12.3607 58.3383 12.2826 58.3005 12.1913C58.2626 12.0999 58.2528 11.9993 58.2721 11.9024C58.2914 11.8054 58.3391 11.7163 58.409 11.6464L61.4373 8.61804C61.4529 8.60256 61.4652 8.58417 61.4736 8.56392C61.482 8.54367 61.4863 8.52197 61.4863 8.50004C61.4863 8.47812 61.482 8.45641 61.4736 8.43617C61.4652 8.41592 61.4529 8.39752 61.4373 8.38204L58.409 5.35371C58.3152 5.25996 58.2625 5.13278 58.2625 5.00016C58.2624 4.86754 58.3151 4.74034 58.4088 4.64654C58.5026 4.55274 58.6298 4.50003 58.7624 4.5C58.895 4.49997 59.0222 4.55262 59.116 4.64638L62.1447 7.67504C62.3628 7.89413 62.4853 8.19071 62.4853 8.49988C62.4853 8.80905 62.3628 9.10563 62.1447 9.32471L59.116 12.3537C59.0696 12.4001 59.0144 12.4369 58.9537 12.4621C58.8931 12.4872 58.828 12.5001 58.7623 12.5Z" fill="white"/>
</g>
</g>
<defs>
<clipPath id="clip0_791_12824">
<rect width="124px" height="16px" fill="white" transform="translate(0 0.5)"/>
</clipPath>
<clipPath id="clip1_791_12824">
<rect width="8px" height="8px" fill="white" transform="translate(58 4.5)"/>
</clipPath>
</defs>
</svg>
