<svg width="81px" height="81px" viewBox="0 0 81 81" fill="none" xmlns="http://www.w3.org/2000/svg">
<g clip-path="url(#clip0_877_9879)">
<path d="M79.0373 71.9841L63.5535 56.4937C75.1392 41.0111 71.9802 19.0678 56.4976 7.48206C41.015 -4.10368 19.0717 -0.944626 7.48596 14.538C-4.09977 30.0205 -0.94072 51.9639 14.5419 63.5496C26.9787 72.8562 44.0606 72.8562 56.4976 63.5496L71.988 79.04C73.9346 80.9866 77.0907 80.9866 79.0372 79.04C80.9838 77.0933 80.9838 73.9372 79.0372 71.9908L79.0373 71.9841ZM35.6488 60.5598C21.8886 60.5598 10.7339 49.4051 10.7339 35.6449C10.7339 21.8847 21.8886 10.73 35.6488 10.73C49.409 10.73 60.5637 21.8847 60.5637 35.6449C60.5491 49.3989 49.4029 60.5452 35.6488 60.5598Z" fill="#5EB8D3"/>
</g>
<defs>
<clipPath id="clip0_877_9879">
<rect width="80px" height="80px" fill="white" transform="translate(0.5 0.5)"/>
</clipPath>
</defs>
</svg>
