<svg width="50" height="50" viewBox="0 0 50 50" fill="none" xmlns="http://www.w3.org/2000/svg">
<path fill-rule="evenodd" clip-rule="evenodd" d="M25.0001 28.7474C24.4475 28.7474 23.9176 28.5279 23.5269 28.1372C23.1362 27.7465 22.9167 27.2166 22.9167 26.6641V16.2474C22.9167 15.6949 23.1362 15.165 23.5269 14.7743C23.9176 14.3836 24.4475 14.1641 25.0001 14.1641C25.5526 14.1641 26.0825 14.3836 26.4732 14.7743C26.8639 15.165 27.0834 15.6949 27.0834 16.2474V26.6641C27.0834 27.2166 26.8639 27.7465 26.4732 28.1372C26.0825 28.5279 25.5526 28.7474 25.0001 28.7474Z" fill="#F2C83D"/>
<path d="M22.8064 33.2445C22.8064 32.6627 23.0375 32.1047 23.4489 31.6933C23.8603 31.2819 24.4183 31.0508 25.0001 31.0508C25.582 31.0508 26.14 31.2819 26.5514 31.6933C26.9628 32.1047 27.1939 32.6627 27.1939 33.2445C27.1939 33.8264 26.9628 34.3843 26.5514 34.7957C26.14 35.2072 25.582 35.4383 25.0001 35.4383C24.4183 35.4383 23.8603 35.2072 23.4489 34.7957C23.0375 34.3843 22.8064 33.8264 22.8064 33.2445Z" fill="#F2C83D"/>
<path fill-rule="evenodd" clip-rule="evenodd" d="M32.5147 9.67005L44.7564 32.0034C47.9064 37.7513 43.7709 44.7909 37.2418 44.7909H12.7584C6.22927 44.7909 2.09177 37.7492 5.24385 32.0013L17.4855 9.66797C20.748 3.72005 29.2522 3.72005 32.5147 9.66797V9.67005ZM28.7564 11.7534C27.1272 8.7763 22.873 8.7763 21.2439 11.7534L9.0001 34.0826C7.42302 36.9576 9.49177 40.4763 12.7564 40.4763H37.2397C40.5043 40.4763 42.573 36.9555 40.9959 34.0805L28.7564 11.7534Z" fill="#F2C83D"/>
</svg>
