<svg width="57" height="57" viewBox="0 0 57 57" fill="none" xmlns="http://www.w3.org/2000/svg">
<path d="M38 51.0625C37.0104 51.0625 36.1697 50.7165 35.4777 50.0246C34.7858 49.3327 34.4391 48.4912 34.4375 47.5C34.4359 46.5088 34.7827 45.6681 35.4777 44.9777C36.1728 44.2874 37.0136 43.9407 38 43.9375C38.9864 43.9343 39.828 44.2811 40.5246 44.9777C41.2213 45.6744 41.5672 46.5152 41.5625 47.5C41.5577 48.4848 41.2118 49.3264 40.5246 50.0246C39.8375 50.7229 38.9959 51.0688 38 51.0625ZM19 49.875C17.6937 49.875 16.5759 49.4103 15.6465 48.4809C14.7171 47.5515 14.2516 46.4328 14.25 45.125V21.375C14.25 20.0688 14.7155 18.9509 15.6465 18.0215C16.5775 17.0921 17.6953 16.6266 19 16.625H21.375V49.875H19ZM24.9375 49.875V16.625H33.25V9.5C31.9437 9.5 30.8259 9.03529 29.8965 8.10588C28.9671 7.17646 28.5016 6.05783 28.5 4.75H38V40.375C36.0208 40.375 34.3385 41.0677 32.9531 42.4531C31.5677 43.8385 30.875 45.5208 30.875 47.5C30.875 47.9354 30.9051 48.3415 30.9652 48.7184C31.0254 49.0952 31.1339 49.4808 31.2906 49.875H24.9375Z" fill="black"/>
</svg>
