<svg width="58" height="57" viewBox="0 0 58 57" fill="none" xmlns="http://www.w3.org/2000/svg">
<path d="M41.5875 44.5312L39.1531 42.0969C38.9156 41.8594 38.6187 41.7406 38.2625 41.7406C37.9062 41.7406 37.6094 41.8594 37.3719 42.0969C37.1344 42.3344 37.0156 42.6313 37.0156 42.9875C37.0156 43.3438 37.1344 43.6406 37.3719 43.8781L39.925 46.4312C40.4 46.9062 40.9542 47.1437 41.5875 47.1437C42.2208 47.1437 42.775 46.9062 43.25 46.4312L49.1281 40.5531C49.3656 40.3156 49.4844 40.0188 49.4844 39.6625C49.4844 39.3063 49.3656 39.0094 49.1281 38.7719C48.8906 38.5344 48.5938 38.4156 48.2375 38.4156C47.8813 38.4156 47.5844 38.5344 47.3469 38.7719L41.5875 44.5312ZM43.25 54.625C39.9646 54.625 37.1645 53.4668 34.8496 51.1504C32.5348 48.834 31.3766 46.0338 31.375 42.75C31.3734 39.4662 32.5316 36.666 34.8496 34.3496C37.1676 32.0332 39.9678 30.875 43.25 30.875C46.5322 30.875 49.3332 32.0332 51.6528 34.3496C53.9723 36.666 55.1297 39.4662 55.125 42.75C55.1203 46.0338 53.962 48.8348 51.6504 51.1528C49.3387 53.4707 46.5386 54.6282 43.25 54.625ZM25.4375 49.875V16.625H33.75V9.5H31.375C30.7021 9.5 30.1384 9.272 29.684 8.816C29.2296 8.36 29.0016 7.79633 29 7.125C28.9984 6.45367 29.2264 5.89 29.684 5.434C30.1416 4.978 30.7052 4.75 31.375 4.75H36.125C36.7979 4.75 37.3624 4.978 37.8184 5.434C38.2744 5.89 38.5016 6.45367 38.5 7.125V24.4031C38.5 25.1552 38.2823 25.8281 37.8469 26.4219C37.4115 27.0156 36.8573 27.4708 36.1844 27.7875C34.9177 28.3813 33.7595 29.1135 32.7098 29.9844C31.66 30.8552 30.7401 31.825 29.95 32.8938C28.9208 34.2792 28.1094 35.8031 27.5156 37.4656C26.9219 39.1281 26.625 40.8896 26.625 42.75C26.625 43.5417 26.6844 44.304 26.8031 45.0371C26.9219 45.7702 27.0802 46.4922 27.2781 47.2031C27.476 47.876 27.3866 48.4896 27.0097 49.0438C26.6329 49.5979 26.1088 49.875 25.4375 49.875ZM19.5 49.875C18.1937 49.875 17.0759 49.4103 16.1465 48.4809C15.2171 47.5515 14.7516 46.4328 14.75 45.125V21.375C14.75 20.0688 15.2155 18.9509 16.1465 18.0215C17.0775 17.0921 18.1953 16.6266 19.5 16.625H21.875V49.875H19.5Z" fill="black"/>
</svg>
