<svg width="20" height="20" viewBox="0 0 20 20" fill="none" xmlns="http://www.w3.org/2000/svg">
<g clip-path="url(#clip0_1479_3102)">
<path d="M18.7934 11.0096L17.3333 5.76457C16.8624 4.07453 15.8402 2.59034 14.4291 1.54781C13.018 0.505282 11.2989 -0.0357892 9.54512 0.0105607C7.7913 0.0569106 6.10326 0.688023 4.7492 1.80363C3.39514 2.91923 2.45272 4.45534 2.07168 6.1679L0.943349 11.2421C0.794494 11.912 0.797974 12.6068 0.953534 13.2752C1.10909 13.9436 1.41276 14.5685 1.84213 15.1038C2.27149 15.6392 2.81559 16.0713 3.43427 16.3682C4.05296 16.6652 4.73043 16.8194 5.41668 16.8196H5.75002C6.01521 17.7367 6.57121 18.5428 7.33429 19.1164C8.09736 19.6901 9.02618 20.0003 9.98085 20.0003C10.9355 20.0003 11.8643 19.6901 12.6274 19.1164C13.3905 18.5428 13.9465 17.7367 14.2117 16.8196H14.3725C15.0791 16.8196 15.7762 16.6564 16.4092 16.3424C17.0423 16.0285 17.5942 15.5725 18.0218 15.01C18.4494 14.4474 18.7412 13.7937 18.8743 13.0997C19.0074 12.4057 18.9783 11.6904 18.7892 11.0096H18.7934ZM16.0359 13.4962C15.8424 13.7531 15.5917 13.9613 15.3037 14.1042C15.0156 14.2471 14.6982 14.3209 14.3767 14.3196H5.41668C5.10477 14.3195 4.79686 14.2494 4.51566 14.1144C4.23446 13.9795 3.98715 13.7831 3.79199 13.5398C3.59683 13.2965 3.45879 13.0124 3.38807 12.7086C3.31734 12.4049 3.31573 12.0891 3.38335 11.7846L4.51168 6.70124C4.77078 5.53129 5.4138 4.48165 6.33839 3.71939C7.26297 2.95713 8.41598 2.52607 9.61386 2.49483C10.8117 2.46359 11.9856 2.83397 12.9487 3.54699C13.9118 4.26002 14.6086 5.27472 14.9283 6.42957L16.385 11.6746C16.4729 11.9844 16.4871 12.3105 16.4265 12.6268C16.3658 12.9431 16.2321 13.2409 16.0359 13.4962V13.4962Z" fill="#30A2C5"/>
</g>
<defs>
<clipPath id="clip0_1479_3102">
<rect width="20" height="20" fill="white"/>
</clipPath>
</defs>
</svg>
