<svg width="24" height="19" viewBox="0 0 24 19" fill="none" xmlns="http://www.w3.org/2000/svg">
<path d="M23.0382 6.06743C20.6097 2.32066 16.4637 0.0418889 11.999 0C7.53424 0.0418889 3.38824 2.32066 0.959815 6.06743C-0.319938 7.94555 -0.319938 10.4155 0.959815 12.2937C3.38687 16.0428 7.53311 18.3239 11.999 18.3672C16.4637 18.3253 20.6097 16.0465 23.0382 12.2997C24.3206 10.4202 24.3206 7.94691 23.0382 6.06743ZM20.5533 10.5909C18.6992 13.5316 15.4753 15.3258 11.999 15.3515C8.52266 15.3258 5.29873 13.5316 3.44464 10.5909C2.86663 9.74168 2.86663 8.62543 3.44464 7.7763C5.29868 4.83555 8.52261 3.04139 11.999 3.01562C15.4753 3.04135 18.6992 4.83555 20.5533 7.7763C21.1313 8.62543 21.1313 9.74168 20.5533 10.5909Z" fill="#30A2C5"/>
<path d="M11.9989 13.2042C14.2195 13.2042 16.0197 11.404 16.0197 9.18341C16.0197 6.96278 14.2195 5.1626 11.9989 5.1626C9.77824 5.1626 7.97806 6.96278 7.97806 9.18341C7.97806 11.404 9.77824 13.2042 11.9989 13.2042Z" fill="#30A2C5"/>
</svg>
