<svg width="22" height="24" viewBox="0 0 22 24" fill="none" xmlns="http://www.w3.org/2000/svg">
<path d="M21.552 13.2099L19.8 6.91592C19.2349 4.88787 18.0082 3.10684 16.3149 1.85581C14.6216 0.604776 12.5588 -0.0445095 10.4542 0.0111103C8.34958 0.0667302 6.32393 0.824065 4.69906 2.16279C3.07419 3.50152 1.94329 5.34485 1.48604 7.39992L0.132044 13.4889C-0.046583 14.2928 -0.0424063 15.1266 0.144265 15.9287C0.330937 16.7307 0.695339 17.4806 1.21058 18.1231C1.72581 18.7655 2.37874 19.284 3.12115 19.6403C3.86357 19.9967 4.67654 20.1818 5.50004 20.1819H5.90004C6.21828 21.2824 6.88548 22.2498 7.80117 22.9382C8.71686 23.6266 9.83144 23.9988 10.977 23.9988C12.1226 23.9988 13.2372 23.6266 14.1529 22.9382C15.0686 22.2498 15.7358 21.2824 16.054 20.1819H16.247C17.095 20.182 17.9314 19.9861 18.6911 19.6094C19.4508 19.2327 20.113 18.6854 20.6262 18.0104C21.1393 17.3354 21.4895 16.5508 21.6492 15.7181C21.8089 14.8853 21.774 14.0269 21.547 13.2099H21.552ZM18.243 16.1939C18.0109 16.5021 17.7101 16.7519 17.3644 16.9235C17.0188 17.095 16.6379 17.1835 16.252 17.1819H5.50004C5.12575 17.1818 4.75625 17.0977 4.41881 16.9358C4.08137 16.7738 3.78461 16.5381 3.55042 16.2462C3.31622 15.9542 3.15058 15.6133 3.0657 15.2488C2.98083 14.8843 2.9789 14.5053 3.06004 14.1399L4.41404 8.03992C4.72496 6.63599 5.49659 5.37642 6.60609 4.46171C7.71559 3.547 9.0992 3.02973 10.5367 2.99224C11.9741 2.95475 13.3828 3.3992 14.5385 4.25483C15.6941 5.11047 16.5304 6.32811 16.914 7.71392L18.662 14.0079C18.7675 14.3797 18.7845 14.771 18.7118 15.1506C18.639 15.5302 18.4785 15.8875 18.243 16.1939Z" fill="black"/>
</svg>
