<svg width="50" height="50" viewBox="0 0 50 50" fill="none" xmlns="http://www.w3.org/2000/svg">
<path fill-rule="evenodd" clip-rule="evenodd" d="M25 28.7474C24.4474 28.7474 23.9175 28.5279 23.5268 28.1372C23.1361 27.7465 22.9166 27.2166 22.9166 26.6641V16.2474C22.9166 15.6949 23.1361 15.165 23.5268 14.7743C23.9175 14.3836 24.4474 14.1641 25 14.1641C25.5525 14.1641 26.0824 14.3836 26.4731 14.7743C26.8638 15.165 27.0833 15.6949 27.0833 16.2474V26.6641C27.0833 27.2166 26.8638 27.7465 26.4731 28.1372C26.0824 28.5279 25.5525 28.7474 25 28.7474Z" fill="#C53737"/>
<path d="M22.8063 33.2445C22.8063 32.6627 23.0374 32.1047 23.4488 31.6933C23.8602 31.2819 24.4182 31.0508 25 31.0508C25.5818 31.0508 26.1398 31.2819 26.5512 31.6933C26.9626 32.1047 27.1938 32.6627 27.1938 33.2445C27.1938 33.8264 26.9626 34.3843 26.5512 34.7957C26.1398 35.2072 25.5818 35.4383 25 35.4383C24.4182 35.4383 23.8602 35.2072 23.4488 34.7957C23.0374 34.3843 22.8063 33.8264 22.8063 33.2445Z" fill="#C53737"/>
<path fill-rule="evenodd" clip-rule="evenodd" d="M32.5146 9.67005L44.7562 32.0034C47.9062 37.7513 43.7708 44.7909 37.2416 44.7909H12.7583C6.22915 44.7909 2.09165 37.7492 5.24373 32.0013L17.4854 9.66797C20.7479 3.72005 29.2521 3.72005 32.5146 9.66797V9.67005ZM28.7562 11.7534C27.1271 8.7763 22.8729 8.7763 21.2437 11.7534L8.99998 34.0826C7.4229 36.9576 9.49165 40.4763 12.7562 40.4763H37.2396C40.5041 40.4763 42.5729 36.9555 40.9958 34.0805L28.7562 11.7534Z" fill="#C53737"/>
</svg>
