<svg width="24" height="24" viewBox="0 0 24 24" fill="none" xmlns="http://www.w3.org/2000/svg">
<g clip-path="url(#clip0_606_6598)">
<path d="M13.24 0.062849C12.2213 -0.0413073 11.1935 -0.0164167 10.181 0.136865C9.4006 0.268443 8.87461 1.00771 9.00619 1.78813C9.02269 1.88901 9.08302 2.08485 9.08302 2.08485C9.29827 2.78066 9.99455 3.21041 10.713 3.09083C11.1393 3.03036 11.5694 2.99994 12 2.99985V20.9998C11.5694 20.9997 11.1393 20.9693 10.713 20.9089C9.99455 20.7893 9.29822 21.219 9.08302 21.9148L9.04604 22.0408C8.81733 22.795 9.24333 23.5918 9.99751 23.8206C10.0531 23.8374 10.1098 23.8509 10.1671 23.8609C10.7737 23.9533 11.3864 23.9998 12.0001 23.9999C18.6275 24.0065 24.0054 18.6393 24.0121 12.0119C24.0182 5.85533 19.3643 0.692849 13.24 0.062849Z" fill="black"/>
<path d="M3.00606 17.077L2.88705 17.145C2.19742 17.5276 1.94856 18.3969 2.3312 19.0865C2.3597 19.1379 2.39139 19.1875 2.42603 19.235C3.02435 20.0246 3.7172 20.7379 4.48905 21.359C5.11408 21.8409 6.01141 21.7248 6.49328 21.0998C6.52797 21.0548 6.65908 20.842 6.65908 20.842C7.02771 20.2254 6.88324 19.4312 6.32106 18.984C5.77413 18.5385 5.28142 18.0304 4.85308 17.47C4.42272 16.8949 3.63325 16.7269 3.00606 17.077Z" fill="black"/>
<path d="M6.65903 3.16023L6.58904 3.04323C6.18493 2.36532 5.30781 2.14337 4.6299 2.54743C4.5811 2.57654 4.53404 2.60851 4.48904 2.6432C3.71616 3.26415 3.0226 3.97787 2.42405 4.76818C1.95938 5.40545 2.0993 6.2987 2.73657 6.76337C2.78405 6.79801 3.00005 6.92518 3.00005 6.92518C3.62747 7.27586 4.4176 7.10781 4.84805 6.53218C5.27752 5.97208 5.77088 5.464 6.31806 5.01817C6.88159 4.57211 7.02742 3.77743 6.65903 3.16023Z" fill="black"/>
<path d="M3 12.0002C3.00023 11.6477 3.02063 11.2955 3.06098 10.9452C3.15291 10.2328 2.70309 9.56233 2.00897 9.37722L1.87598 9.34221C1.10194 9.14562 0.315094 9.61371 0.1185 10.3878C0.101438 10.4549 0.0892031 10.5233 0.0819844 10.5922C-0.0273281 11.5291 -0.0273281 12.4754 0.0819844 13.4122C0.165375 14.2065 0.876844 14.7827 1.67105 14.6993C1.7422 14.6918 2.01497 14.6262 2.01497 14.6262C2.70853 14.4411 3.15792 13.7711 3.06595 13.0592C3.02348 12.7078 3.00145 12.3542 3 12.0002Z" fill="black"/>
</g>
<defs>
<clipPath id="clip0_606_6598">
<rect width="24" height="24" fill="white"/>
</clipPath>
</defs>
</svg>
