<svg width="24" height="24" viewBox="0 0 24 24" fill="none" xmlns="http://www.w3.org/2000/svg">
<g clip-path="url(#clip0_606_6898)">
<path d="M23.6999 9.886C22.8504 7.7953 21.4562 5.9704 19.6624 4.60111C17.8686 3.23183 15.7407 2.36818 13.4999 2.1V1.5C13.4999 1.10218 13.3419 0.720644 13.0606 0.43934C12.7793 0.158035 12.3978 0 11.9999 0C11.6021 0 11.2206 0.158035 10.9393 0.43934C10.658 0.720644 10.4999 1.10218 10.4999 1.5V2.107C8.26671 2.39463 6.14848 3.26489 4.35806 4.63035C2.56763 5.99581 1.16807 7.80839 0.299947 9.886C0.0366113 10.577 -0.054744 11.3216 0.0337547 12.0557C0.122253 12.7898 0.387951 13.4914 0.807947 14.1C1.20447 14.6821 1.73646 15.1591 2.35816 15.4901C2.97986 15.8211 3.67265 15.996 4.37695 16H10.4999V20.25C10.4998 20.4414 10.4266 20.6255 10.2951 20.7646C10.1637 20.9037 9.98408 20.9873 9.79302 20.9983C9.60196 21.0093 9.41392 20.9468 9.26741 20.8237C9.12091 20.7006 9.02701 20.5261 9.00495 20.336C8.96145 19.9404 8.7626 19.5783 8.45213 19.3294C8.14166 19.0804 7.74502 18.965 7.34945 19.0085C6.95388 19.052 6.59179 19.2508 6.34283 19.5613C6.09388 19.8718 5.97845 20.2684 6.02195 20.664C6.12577 21.6185 6.59177 22.4968 7.32392 23.118C8.05606 23.7392 8.99857 24.0558 9.95725 24.0027C10.9159 23.9497 11.8177 23.5309 12.4768 22.8327C13.1359 22.1345 13.5021 21.2101 13.4999 20.25V16H19.6229C20.3272 15.996 21.02 15.8211 21.6417 15.4901C22.2634 15.1591 22.7954 14.6821 23.1919 14.1C23.6119 13.4914 23.8776 12.7898 23.9661 12.0557C24.0546 11.3216 23.9633 10.577 23.6999 9.886ZM20.7219 12.4C20.6017 12.5824 20.4385 12.7325 20.2467 12.8371C20.0549 12.9417 19.8404 12.9976 19.6219 13H4.37695C4.1585 12.9976 3.94397 12.9417 3.75218 12.8371C3.56039 12.7325 3.39721 12.5824 3.27695 12.4C3.1304 12.1923 3.03754 11.9516 3.00665 11.6993C2.97577 11.4469 3.00782 11.1909 3.09995 10.954C3.8411 9.20009 5.07963 7.7016 6.66266 6.64352C8.2457 5.58544 10.1039 5.01409 12.0079 5C13.9096 5.01554 15.7651 5.58767 17.3453 6.64577C18.9255 7.70386 20.1613 9.20158 20.8999 10.954C20.9919 11.191 21.0238 11.4471 20.9928 11.6994C20.9617 11.9517 20.8687 12.1924 20.7219 12.4Z" fill="black"/>
</g>
<defs>
<clipPath id="clip0_606_6898">
<rect width="24" height="24" fill="white"/>
</clipPath>
</defs>
</svg>
