<svg width="24" height="24" viewBox="0 0 24 24" fill="none" xmlns="http://www.w3.org/2000/svg">
<g clip-path="url(#clip0_606_6609)">
<path d="M18.5 2.00035H16.475C15.783 1.21281 14.8942 0.623269 13.8995 0.292061C12.9048 -0.0391481 11.84 -0.100134 10.814 0.115345C9.56347 0.37039 8.43301 1.0334 7.6 2.00035H5C2.1 2.00035 0 4.31335 0 7.50035V18.5003C0.00185226 19.9585 0.58191 21.3563 1.61296 22.3874C2.64401 23.4184 4.04188 23.9985 5.5 24.0003H18.5C19.9581 23.9985 21.356 23.4184 22.387 22.3874C23.4181 21.3563 23.9981 19.9585 24 18.5003V7.50035C23.9981 6.04222 23.4181 4.64435 22.387 3.6133C21.356 2.58225 19.9581 2.0022 18.5 2.00035ZM21 18.5003C21 19.1634 20.7366 19.7993 20.2678 20.2681C19.7989 20.737 19.163 21.0003 18.5 21.0003H5.5C4.83696 21.0003 4.20107 20.737 3.73223 20.2681C3.26339 19.7993 3 19.1634 3 18.5003V7.50035C3 7.08335 3.1 5.00035 5 5.00035H6.135C6.0563 5.40028 6.01545 5.80675 6.013 6.21435C6.01423 6.93734 6.29668 7.63151 6.80058 8.14997C7.30449 8.66844 7.99033 8.97053 8.713 8.99235L11.249 4.66935C11.4697 4.33782 11.813 4.10754 12.2034 4.02915C12.5939 3.95076 12.9995 4.03068 13.331 4.25135C13.6625 4.47201 13.8928 4.81532 13.9712 5.20577C14.0496 5.59623 13.9697 6.00182 13.749 6.33335L12.316 9.00035H15.228C15.6164 9.01502 16.0033 8.94568 16.3624 8.79706C16.7215 8.64845 17.0443 8.42406 17.3087 8.13924C17.5731 7.85441 17.7729 7.51586 17.8945 7.14672C18.016 6.77758 18.0565 6.38655 18.013 6.00035C18.013 6.01635 17.976 5.33735 17.921 5.00035H18.5C19.163 5.00035 19.7989 5.26374 20.2678 5.73258C20.7366 6.20142 21 6.8373 21 7.50035V18.5003Z" fill="black"/>
</g>
<defs>
<clipPath id="clip0_606_6609">
<rect width="24" height="24" fill="white"/>
</clipPath>
</defs>
</svg>
