<svg width="24" height="24" viewBox="0 0 24 24" fill="none" xmlns="http://www.w3.org/2000/svg">
<g clip-path="url(#clip0_606_6782)">
<path d="M17.0001 12.5C17.0001 12.8978 16.8421 13.2794 16.5608 13.5607C16.2795 13.842 15.8979 14 15.5001 14H8.50012C8.1023 14 7.72077 13.842 7.43946 13.5607C7.15816 13.2794 7.00012 12.8978 7.00012 12.5C7.00012 12.1022 7.15816 11.7207 7.43946 11.4394C7.72077 11.1581 8.1023 11 8.50012 11H15.5001C15.8979 11 16.2795 11.1581 16.5608 11.4394C16.8421 11.7207 17.0001 12.1022 17.0001 12.5ZM12.5001 16H8.50012C8.1023 16 7.72077 16.1581 7.43946 16.4394C7.15816 16.7207 7.00012 17.1022 7.00012 17.5C7.00012 17.8978 7.15816 18.2794 7.43946 18.5607C7.72077 18.842 8.1023 19 8.50012 19H12.5001C12.8979 19 13.2795 18.842 13.5608 18.5607C13.8421 18.2794 14.0001 17.8978 14.0001 17.5C14.0001 17.1022 13.8421 16.7207 13.5608 16.4394C13.2795 16.1581 12.8979 16 12.5001 16ZM22.0001 8.15702V18.5C21.9985 19.9582 21.4186 21.3563 20.3875 22.3874C19.3563 23.4185 17.9583 23.9984 16.5001 24H7.50012C6.04192 23.9984 4.64389 23.4185 3.61279 22.3874C2.58168 21.3563 2.00171 19.9582 2.00012 18.5V5.50002C2.00171 4.04182 2.58168 2.6438 3.61279 1.61269C4.64389 0.581583 6.04192 0.00161038 7.50012 2.22109e-05H13.8431C14.5657 -0.00203834 15.2815 0.139292 15.9491 0.415827C16.6166 0.692361 17.2227 1.0986 17.7321 1.61102L20.3891 4.26802C20.9015 4.77754 21.3076 5.38361 21.5842 6.05116C21.8607 6.7187 22.0021 7.43447 22.0001 8.15702ZM19.0001 18.5V9.00002H15.0001C14.4697 9.00002 13.961 8.78931 13.5859 8.41424C13.2108 8.03916 13.0001 7.53046 13.0001 7.00002V3.00002H7.50012C6.83708 3.00002 6.2012 3.26341 5.73236 3.73226C5.26351 4.2011 5.00012 4.83698 5.00012 5.50002V18.5C5.00012 19.1631 5.26351 19.7989 5.73236 20.2678C6.2012 20.7366 6.83708 21 7.50012 21H16.5001C17.1632 21 17.799 20.7366 18.2679 20.2678C18.7367 19.7989 19.0001 19.1631 19.0001 18.5Z" fill="black"/>
</g>
<defs>
<clipPath id="clip0_606_6782">
<rect width="24" height="24" fill="white"/>
</clipPath>
</defs>
</svg>
