<svg width="24" height="24" viewBox="0 0 24 24" fill="none" xmlns="http://www.w3.org/2000/svg">
<g clip-path="url(#clip0_606_6659)">
<path d="M10.0002 7.9999C10.0002 7.60434 10.1175 7.21766 10.3373 6.88876C10.557 6.55986 10.8694 6.30351 11.2348 6.15214C11.6003 6.00076 12.0024 5.96116 12.3904 6.03833C12.7783 6.1155 13.1347 6.30598 13.4144 6.58568C13.6941 6.86539 13.8846 7.22176 13.9618 7.60972C14.0389 7.99768 13.9993 8.39981 13.848 8.76526C13.6966 9.13072 13.4402 9.44307 13.1113 9.66284C12.7824 9.8826 12.3958 9.9999 12.0002 9.9999C11.4698 9.9999 10.9611 9.78918 10.586 9.41411C10.2109 9.03904 10.0002 8.53033 10.0002 7.9999ZM24.0002 13.3739V18.5229C24.0058 19.2152 23.8519 19.8994 23.5505 20.5227C23.2491 21.1459 22.8083 21.6914 22.2622 22.1169C21.75 22.5187 21.1524 22.7975 20.5153 22.9317C19.8783 23.0659 19.219 23.052 18.5882 22.8909C18.5442 22.8799 16.2602 22.0729 16.2602 22.0729C15.8838 21.9706 15.4865 21.9744 15.1122 22.0839L9.6122 23.7899C9.13391 23.929 8.63832 23.9997 8.1402 23.9999C7.59663 24.0004 7.05648 23.9139 6.5402 23.7439L3.8012 22.8439C2.68987 22.484 1.72221 21.7792 1.0387 20.8319C0.355185 19.8845 -0.00858802 18.744 0.000194987 17.5759V13.4999C-0.00614212 12.7459 0.142051 11.9987 0.435635 11.3042C0.72922 10.6097 1.16197 9.9827 1.7072 9.4619C2.35753 8.85404 3.15065 8.42 4.0132 8.1999C3.99289 7.12294 4.18802 6.05279 4.58711 5.05231C4.98621 4.05183 5.58122 3.14119 6.3372 2.3739C7.07627 1.62206 7.95765 1.02492 8.92993 0.617304C9.90221 0.209687 10.9459 -0.000244141 12.0002 -0.000244141C13.0545 -0.000244141 14.0982 0.209687 15.0705 0.617304C16.0427 1.02492 16.9241 1.62206 17.6632 2.3739C19.149 3.88067 19.9852 5.90976 19.9922 8.0259L20.4582 8.1889C21.5056 8.59044 22.4057 9.30172 23.0385 10.2279C23.6714 11.1541 24.0068 12.2512 24.0002 13.3729V13.3739ZM8.4712 11.6799L11.7642 14.8999C11.7958 14.9319 11.8335 14.9574 11.875 14.9748C11.9166 14.9921 11.9612 15.0011 12.0062 15.0011C12.0512 15.0011 12.0958 14.9921 12.1373 14.9748C12.1789 14.9574 12.2166 14.9319 12.2482 14.8999L15.5482 11.6649C16.4851 10.7034 17.008 9.41312 17.0051 8.07063C17.0021 6.72815 16.4733 5.44024 15.5322 4.4829C15.0719 4.01394 14.5227 3.64143 13.9168 3.38714C13.3109 3.13285 12.6603 3.00188 12.0032 3.00188C11.3461 3.00188 10.6955 3.13285 10.0896 3.38714C9.48368 3.64143 8.93451 4.01394 8.4742 4.4829C7.53171 5.44336 7.00346 6.73513 7.0029 8.08079C7.00234 9.42644 7.52951 10.7186 8.4712 11.6799ZM21.0002 13.3729C21.0092 12.8693 20.8658 12.3746 20.5889 11.9539C20.3119 11.5331 19.9143 11.2058 19.4482 11.0149C19.0517 12.0532 18.4438 12.9978 17.6632 13.7889L14.3492 17.0409C13.7266 17.6585 12.8852 18.0051 12.0082 18.0051C11.1312 18.0051 10.2898 17.6585 9.6672 17.0409L6.3552 13.8069C5.59788 13.0387 5.00126 12.1273 4.6002 11.1259C4.29565 11.2375 4.01725 11.4104 3.7822 11.6339C3.5312 11.8749 3.3323 12.1649 3.1978 12.4858C3.06329 12.8068 2.99604 13.1519 3.0002 13.4999V17.5749C2.98961 18.1052 3.14887 18.6251 3.45471 19.0585C3.76056 19.4919 4.19697 19.8161 4.7002 19.9839L7.4762 20.8919C7.88822 21.0274 8.33154 21.0354 8.7482 20.9149L14.2592 19.2069C15.219 18.9272 16.2393 18.9324 17.1962 19.2219L19.3832 19.9999C19.5639 20.0372 19.7506 20.0342 19.93 19.9912C20.1094 19.9481 20.2771 19.8661 20.4212 19.7509C20.6057 19.6044 20.754 19.4172 20.8544 19.2041C20.9548 18.9909 21.0047 18.7575 21.0002 18.5219V13.3729Z" fill="black"/>
</g>
<defs>
<clipPath id="clip0_606_6659">
<rect width="24" height="24" fill="white"/>
</clipPath>
</defs>
</svg>
