<svg width="24" height="24" viewBox="0 0 24 24" fill="none" xmlns="http://www.w3.org/2000/svg">
<g clip-path="url(#clip0_606_6556)">
<path d="M20.17 1.99973L14.9 0.242727C13.5097 -0.177635 12.0098 -0.033429 10.7251 0.644116C9.4404 1.32166 8.47429 2.478 8.036 3.86273L8 3.99973H5.5C4.0418 4.00132 2.64377 4.58129 1.61267 5.61239C0.581561 6.6435 0.00158817 8.04152 0 9.49973L0 18.4997C0.00158817 19.9579 0.581561 21.356 1.61267 22.3871C2.64377 23.4182 4.0418 23.9981 5.5 23.9997H10.5C11.3182 23.9995 12.126 23.8165 12.8644 23.4641C13.6029 23.1116 14.2532 22.5987 14.768 21.9627C16.0559 22.1328 17.3622 21.8378 18.4519 21.1308C19.5417 20.4238 20.3435 19.3511 20.713 18.1057L23.8 8.79973C24.2034 7.41672 24.0494 5.93076 23.3709 4.65988C22.6925 3.38899 21.5436 2.43416 20.17 1.99973ZM13 18.4997C13 19.1628 12.7366 19.7987 12.2678 20.2675C11.7989 20.7363 11.163 20.9997 10.5 20.9997H5.5C4.83696 20.9997 4.20107 20.7363 3.73223 20.2675C3.26339 19.7987 3 19.1628 3 18.4997V9.49973C3 8.83669 3.26339 8.2008 3.73223 7.73196C4.20107 7.26312 4.83696 6.99973 5.5 6.99973H10.5C11.163 6.99973 11.7989 7.26312 12.2678 7.73196C12.7366 8.2008 13 8.83669 13 9.49973V18.4997ZM20.936 7.89973L17.85 17.2107C17.7232 17.6415 17.4822 18.03 17.1527 18.335C16.8231 18.6401 16.4173 18.8504 15.978 18.9437C15.989 18.7967 16 18.6497 16 18.4997V9.49973C15.9985 8.17377 15.518 6.89299 14.6471 5.89321C13.7761 4.89343 12.5732 4.24195 11.26 4.05873C11.5575 3.6342 11.9805 3.31346 12.4696 3.14148C12.9586 2.96949 13.4892 2.95489 13.987 3.09973L19.255 4.85673C19.8752 5.04674 20.3973 5.4704 20.711 6.03822C21.0247 6.60603 21.1054 7.27353 20.936 7.89973ZM12 12.9997C12 14.4497 10.456 16.3907 9.286 17.3777C8.92652 17.6819 8.47088 17.8488 8 17.8488C7.52912 17.8488 7.07348 17.6819 6.714 17.3777C5.544 16.3907 4 14.4497 4 12.9997C4 12.4693 4.21071 11.9606 4.58579 11.5855C4.96086 11.2104 5.46957 10.9997 6 10.9997C6.53043 10.9997 7.03914 11.2104 7.41421 11.5855C7.78929 11.9606 8 12.4693 8 12.9997C8 12.4693 8.21072 11.9606 8.58579 11.5855C8.96086 11.2104 9.46957 10.9997 10 10.9997C10.5304 10.9997 11.0391 11.2104 11.4142 11.5855C11.7893 11.9606 12 12.4693 12 12.9997Z" fill="black"/>
</g>
<defs>
<clipPath id="clip0_606_6556">
<rect width="24" height="24" fill="white"/>
</clipPath>
</defs>
</svg>
