<svg width="24" height="24" viewBox="0 0 24 24" fill="none" xmlns="http://www.w3.org/2000/svg">
<path d="M23.074 3.84165C22.7999 3.72803 22.4982 3.69827 22.2072 3.75612C21.9162 3.81397 21.6488 3.95684 21.439 4.16665L17.728 7.87865L13.061 3.21165C12.9217 3.07226 12.7563 2.96169 12.5742 2.88625C12.3922 2.8108 12.1971 2.77197 12 2.77197C11.8029 2.77197 11.6078 2.8108 11.4258 2.88625C11.2437 2.96169 11.0783 3.07226 10.939 3.21165L6.272 7.87865L2.561 4.16665C2.35122 3.95674 2.08388 3.81377 1.79282 3.75583C1.50176 3.6979 1.20006 3.7276 0.925883 3.84119C0.65171 3.95478 0.417392 4.14714 0.252579 4.39394C0.0877662 4.64074 -0.000134366 4.93088 1.54168e-07 5.22765V16.4997C0.00185241 17.9578 0.58191 19.3556 1.61296 20.3867C2.64401 21.4177 4.04188 21.9978 5.5 21.9997H18.5C19.9581 21.9978 21.356 21.4177 22.387 20.3867C23.4181 19.3556 23.9981 17.9578 24 16.4997V5.22765C24 4.93095 23.9121 4.6409 23.7472 4.39419C23.5824 4.14748 23.3481 3.95519 23.074 3.84165ZM21 16.4997C21 17.1627 20.7366 17.7986 20.2678 18.2674C19.7989 18.7363 19.163 18.9997 18.5 18.9997H5.5C4.83696 18.9997 4.20107 18.7363 3.73223 18.2674C3.26339 17.7986 3 17.1627 3 16.4997V8.84865L5.212 11.0607C5.49329 11.3419 5.87475 11.4998 6.2725 11.4998C6.67025 11.4998 7.05171 11.3419 7.333 11.0607L12 6.39365L16.667 11.0607C16.9483 11.3419 17.3298 11.4998 17.7275 11.4998C18.1252 11.4998 18.5067 11.3419 18.788 11.0607L21 8.84865V16.4997Z" fill="black"/>
</svg>
