<svg width="24" height="24" viewBox="0 0 24 24" fill="none" xmlns="http://www.w3.org/2000/svg">
<path d="M18.5001 9.5C18.8979 9.5 19.2795 9.34196 19.5608 9.06066C19.8421 8.77936 20.0001 8.39782 20.0001 8V7.313C19.9983 5.90447 19.4379 4.55417 18.4419 3.55819C17.446 2.56221 16.0956 2.00185 14.6871 2H13.5001V1.5C13.5001 1.10218 13.3421 0.720644 13.0608 0.43934C12.7795 0.158035 12.3979 0 12.0001 0C11.6023 0 11.2208 0.158035 10.9395 0.43934C10.6582 0.720644 10.5001 1.10218 10.5001 1.5V2H9.31312C8.0376 1.9981 6.80396 2.45514 5.83757 3.28764C4.87118 4.12013 4.23654 5.27251 4.04958 6.53425C3.86262 7.796 4.13583 9.0829 4.81929 10.1599C5.50275 11.2368 6.55085 12.0319 7.77212 12.4L10.5001 13.146V19H9.31312C8.69992 18.9992 8.11206 18.7553 7.67846 18.3217C7.24486 17.8881 7.00091 17.3002 7.00012 16.687V16C7.00012 15.6022 6.84208 15.2206 6.56078 14.9393C6.27947 14.658 5.89794 14.5 5.50012 14.5C5.10229 14.5 4.72076 14.658 4.43946 14.9393C4.15815 15.2206 4.00012 15.6022 4.00012 16V16.687C4.00197 18.0955 4.56233 19.4458 5.55831 20.4418C6.55429 21.4378 7.90459 21.9981 9.31312 22H10.5001V22.5C10.5001 22.8978 10.6582 23.2794 10.9395 23.5607C11.2208 23.842 11.6023 24 12.0001 24C12.3979 24 12.7795 23.842 13.0608 23.5607C13.3421 23.2794 13.5001 22.8978 13.5001 22.5V22H14.6871C15.9626 22.0019 17.1963 21.5449 18.1627 20.7124C19.1291 19.8799 19.7637 18.7275 19.9507 17.4657C20.1376 16.204 19.8644 14.9171 19.1809 13.8401C18.4975 12.7632 17.4494 11.9681 16.2281 11.6L13.5001 10.856V5H14.6871C15.3003 5.00079 15.8882 5.24474 16.3218 5.67834C16.7554 6.11194 16.9993 6.6998 17.0001 7.313V8C17.0001 8.39782 17.1582 8.77936 17.4395 9.06066C17.7208 9.34196 18.1023 9.5 18.5001 9.5ZM15.3821 14.479C15.9097 14.6452 16.3602 14.995 16.6521 15.4648C16.944 15.9346 17.058 16.4935 16.9734 17.0401C16.8887 17.5867 16.6111 18.0849 16.1908 18.4444C15.7705 18.804 15.2352 19.0011 14.6821 19H13.5001V13.965L15.3821 14.479ZM10.5001 10.035L8.61812 9.521C8.09098 9.35488 7.64072 9.00557 7.34878 8.53627C7.05685 8.06697 6.94253 7.50868 7.0265 6.96241C7.11048 6.41613 7.38721 5.91796 7.80662 5.55801C8.22603 5.19806 8.76043 5.00012 9.31312 5H10.5001V10.035Z" fill="black"/>
</svg>
