<svg width="24" height="24" viewBox="0 0 24 24" fill="none" xmlns="http://www.w3.org/2000/svg">
<g clip-path="url(#clip0_606_6916)">
<path d="M22.511 16.4635C22.314 16.4636 22.1189 16.4249 21.9368 16.3496C21.7548 16.2742 21.5893 16.1638 21.45 16.0245C20.1363 14.7133 18.3561 13.9769 16.5 13.9769C14.6439 13.9769 12.8637 14.7133 11.55 16.0245C11.2682 16.3058 10.8862 16.4636 10.4881 16.4632C10.0899 16.4628 9.70825 16.3043 9.42699 16.0225C9.14572 15.7407 8.98792 15.3587 8.9883 14.9606C8.98867 14.5625 9.14719 14.1808 9.42899 13.8995C11.3055 12.0264 13.8486 10.9744 16.5 10.9744C19.1514 10.9744 21.6945 12.0264 23.571 13.8995C23.7805 14.1093 23.9231 14.3764 23.9809 14.6672C24.0387 14.958 24.009 15.2594 23.8956 15.5334C23.7821 15.8073 23.5901 16.0415 23.3437 16.2063C23.0972 16.3711 22.8075 16.4593 22.511 16.4595V16.4635ZM20.035 19.5635C20.1744 19.4242 20.285 19.2588 20.3604 19.0768C20.4358 18.8947 20.4747 18.6996 20.4747 18.5025C20.4747 18.3055 20.4358 18.1103 20.3604 17.9283C20.285 17.7462 20.1744 17.5808 20.035 17.4415C19.0973 16.5042 17.8258 15.9776 16.5 15.9776C15.1742 15.9776 13.9026 16.5042 12.965 17.4415C12.8257 17.5808 12.7151 17.7461 12.6397 17.9281C12.5643 18.1101 12.5254 18.3052 12.5254 18.5022C12.5253 18.6992 12.5641 18.8942 12.6394 19.0763C12.7148 19.2583 12.8252 19.4237 12.9645 19.563C13.2457 19.8444 13.6273 20.0025 14.0251 20.0026C14.2221 20.0027 14.4172 19.9639 14.5992 19.8886C14.7813 19.8132 14.9467 19.7028 15.086 19.5635C15.4671 19.2001 15.9734 18.9974 16.5 18.9974C17.0266 18.9974 17.5329 19.2001 17.914 19.5635C18.1953 19.8447 18.5767 20.0027 18.9745 20.0027C19.3722 20.0027 19.7537 19.8447 20.035 19.5635ZM16.5 20.9995C16.2033 20.9995 15.9133 21.0875 15.6666 21.2523C15.42 21.4171 15.2277 21.6514 15.1142 21.9255C15.0006 22.1996 14.9709 22.5012 15.0288 22.7922C15.0867 23.0831 15.2295 23.3504 15.4393 23.5602C15.6491 23.77 15.9164 23.9128 16.2074 23.9707C16.4983 24.0286 16.7999 23.9989 17.074 23.8853C17.3481 23.7718 17.5824 23.5795 17.7472 23.3329C17.912 23.0862 18 22.7962 18 22.4995C18 22.1017 17.842 21.7202 17.5606 21.4389C17.2793 21.1576 16.8978 20.9995 16.5 20.9995ZM10.5 20.4995C10.5 20.1017 10.342 19.7202 10.0606 19.4389C9.77934 19.1576 9.39781 18.9995 8.99999 18.9995H5.96799C5.33237 19.0185 4.70789 18.8298 4.18911 18.4621C3.67034 18.0943 3.28554 17.5676 3.09299 16.9615C2.93678 16.3496 2.99489 15.7027 3.25763 15.1285C3.52036 14.5543 3.97188 14.0874 4.53699 13.8055C5.11516 13.4936 5.54624 12.9654 5.7359 12.3365C5.92556 11.7075 5.85835 11.029 5.54899 10.4495C5.03322 9.43115 4.87271 8.26959 5.09299 7.14951C5.28111 6.11298 5.78855 5.16118 6.54432 4.42729C7.30009 3.69339 8.26637 3.21412 9.30799 3.05651C9.99251 2.95301 10.6908 2.98708 11.362 3.15672C12.0332 3.32637 12.6638 3.62819 13.217 4.04451C13.7608 4.45313 14.2178 4.96602 14.5612 5.55323C14.9046 6.14043 15.1275 6.79018 15.217 7.46451C15.2609 7.79075 15.4108 8.09349 15.6438 8.32607C15.8767 8.55865 16.1797 8.70815 16.506 8.75151C17.2933 8.8543 18.0463 9.13767 18.706 9.57951C19.0375 9.80017 19.4431 9.8801 19.8336 9.80171C20.224 9.72332 20.5673 9.49304 20.788 9.16151C21.0086 8.82999 21.0886 8.42439 21.0102 8.03394C20.9318 7.64349 20.7015 7.30017 20.37 7.07951C19.6351 6.59406 18.8272 6.22944 17.977 5.99951C17.5028 4.26434 16.4646 2.73635 15.026 1.65651C14.1578 0.999343 13.1672 0.521991 12.1122 0.252407C11.0572 -0.0171775 9.95904 -0.0735756 8.88199 0.0865147C7.22177 0.332668 5.68 1.09152 4.47225 2.25695C3.2645 3.42239 2.45117 4.93613 2.14599 6.58651C1.82871 8.21233 2.01753 9.89634 2.68699 11.4115C1.65826 12.063 0.862253 13.0234 0.413131 14.1552C-0.0359908 15.287 -0.115157 16.532 0.186986 17.7115C0.540349 18.9652 1.29955 20.0662 2.34567 20.8421C3.3918 21.6181 4.66575 22.0251 5.96799 21.9995H8.99999C9.39781 21.9995 9.77934 21.8415 10.0606 21.5602C10.342 21.2789 10.5 20.8973 10.5 20.4995Z" fill="black"/>
</g>
<defs>
<clipPath id="clip0_606_6916">
<rect width="24" height="24" fill="white"/>
</clipPath>
</defs>
</svg>
