<svg width="24" height="24" viewBox="0 0 24 24" fill="none" xmlns="http://www.w3.org/2000/svg">
<g clip-path="url(#clip0_606_6495)">
<path d="M24 7.49951C24.0029 6.10614 23.6167 4.73963 22.8851 3.55381C22.1534 2.36799 21.1053 1.40995 19.8586 0.787518C18.612 0.165088 17.2164 -0.0970131 15.8289 0.0307193C14.4414 0.158452 13.1171 0.670946 12.005 1.51051C11.1061 0.832291 10.066 0.365187 8.96194 0.143858C7.85784 -0.0774708 6.71808 -0.0473436 5.62722 0.232005C4.53636 0.511353 3.52241 1.03275 2.66059 1.75751C1.79878 2.48227 1.11122 3.39179 0.648939 4.41859C0.186658 5.44538 -0.0384791 6.56309 -0.00976861 7.68878C0.0189418 8.81447 0.300763 9.91925 0.814784 10.9211C1.32881 11.923 2.06183 12.7963 2.95947 13.4762C3.85712 14.1561 4.89633 14.6251 6.00001 14.8485V17.9995H5.00001C4.60219 17.9995 4.22066 18.1575 3.93935 18.4389C3.65805 18.7202 3.50001 19.1017 3.50001 19.4995C3.50001 19.8973 3.65805 20.2789 3.93935 20.5602C4.22066 20.8415 4.60219 20.9995 5.00001 20.9995H6.00001V22.4995C6.00001 22.8973 6.15805 23.2789 6.43935 23.5602C6.72066 23.8415 7.10219 23.9995 7.50001 23.9995C7.89784 23.9995 8.27937 23.8415 8.56067 23.5602C8.84198 23.2789 9.00001 22.8973 9.00001 22.4995V20.9995H10C10.3978 20.9995 10.7794 20.8415 11.0607 20.5602C11.342 20.2789 11.5 19.8973 11.5 19.4995C11.5 19.1017 11.342 18.7202 11.0607 18.4389C10.7794 18.1575 10.3978 17.9995 10 17.9995H9.00001V14.8465C10.0907 14.6244 11.1176 14.1603 12.005 13.4885C12.8896 14.1593 13.9128 14.624 15 14.8485V17.9995H14C13.6022 17.9995 13.2207 18.1575 12.9394 18.4389C12.658 18.7202 12.5 19.1017 12.5 19.4995C12.5 19.8973 12.658 20.2789 12.9394 20.5602C13.2207 20.8415 13.6022 20.9995 14 20.9995H15V22.4995C15 22.8973 15.158 23.2789 15.4394 23.5602C15.7207 23.8415 16.1022 23.9995 16.5 23.9995C16.8978 23.9995 17.2794 23.8415 17.5607 23.5602C17.842 23.2789 18 22.8973 18 22.4995V20.9995H19C19.3978 20.9995 19.7794 20.8415 20.0607 20.5602C20.342 20.2789 20.5 19.8973 20.5 19.4995C20.5 19.1017 20.342 18.7202 20.0607 18.4389C19.7794 18.1575 19.3978 17.9995 19 17.9995H18V14.8485C19.6928 14.5005 21.2138 13.5795 22.3067 12.2409C23.3997 10.9022 23.9977 9.22767 24 7.49951ZM3.00001 7.49951C2.99904 6.68434 3.21991 5.88428 3.63895 5.18506C4.05799 4.48584 4.65939 3.91383 5.37871 3.53033C6.09804 3.14683 6.90816 2.96629 7.72225 3.00807C8.53635 3.04986 9.32373 3.31238 10 3.76751C9.34235 4.90132 8.99599 6.18878 8.99599 7.49951C8.99599 8.81025 9.34235 10.0977 10 11.2315C9.32373 11.6866 8.53635 11.9492 7.72225 11.9909C6.90816 12.0327 6.09804 11.8522 5.37871 11.4687C4.65939 11.0852 4.05799 10.5132 3.63895 9.81396C3.21991 9.11474 2.99904 8.31468 3.00001 7.49951ZM12 7.49951C12 6.6095 12.2639 5.73947 12.7584 4.99945C13.2529 4.25942 13.9557 3.68265 14.7779 3.34205C15.6002 3.00146 16.505 2.91234 17.3779 3.08598C18.2508 3.25961 19.0527 3.68819 19.682 4.31753C20.3113 4.94687 20.7399 5.74869 20.9135 6.62161C21.0872 7.49452 20.9981 8.39932 20.6575 9.22159C20.3169 10.0439 19.7401 10.7467 19.0001 11.2411C18.2601 11.7356 17.39 11.9995 16.5 11.9995C15.3069 11.9982 14.1631 11.5237 13.3195 10.68C12.4759 9.8364 12.0013 8.69258 12 7.49951Z" fill="black"/>
</g>
<defs>
<clipPath id="clip0_606_6495">
<rect width="24" height="24" fill="white"/>
</clipPath>
</defs>
</svg>
