<svg width="24" height="24" viewBox="0 0 24 24" fill="none" xmlns="http://www.w3.org/2000/svg">
<g clip-path="url(#clip0_606_6800)">
<path d="M23.5847 11.0752C21.9092 6.86084 18.1282 3.84809 13.6461 3.15589C14.2603 2.24365 14.0188 1.0062 13.1065 0.391952C12.1943 -0.222251 10.9568 0.0193425 10.3426 0.931577C9.88991 1.6039 9.88991 2.48351 10.3426 3.15589C5.86166 3.84908 2.08203 6.86169 0.407097 11.0752C-0.214325 12.4085 -0.117997 13.9657 0.662987 15.2121C1.15564 15.9647 1.89767 16.5195 2.75882 16.7793L3.36514 19.9106C3.81861 22.252 5.86686 23.9442 8.25177 23.9479H15.737C18.1211 23.9442 20.1691 22.2537 20.6246 19.9136L21.23 16.7832C22.0926 16.5228 22.8356 15.966 23.3278 15.2111C24.1086 13.965 24.2053 12.4084 23.5847 11.0752ZM17.6924 19.347C17.5116 20.2841 16.6913 20.9611 15.737 20.961H8.25177C7.29781 20.9606 6.47811 20.2837 6.29732 19.347L6.03149 17.9741C6.74169 17.9701 7.43333 17.7469 8.01182 17.3349C9.21008 18.1633 10.7961 18.1633 11.9944 17.3349C13.1927 18.1633 14.7787 18.1633 15.977 17.3349C16.5555 17.7469 17.2471 17.9701 17.9573 17.9741L17.6924 19.347ZM20.8247 13.5813C20.6297 13.862 20.3003 14.0182 19.9595 13.9915C19.3311 14.0065 18.7429 14.3033 18.3575 14.7999C18.1732 15.0149 17.8495 15.0398 17.6345 14.8555C17.6146 14.8385 17.596 14.8198 17.5789 14.7999C16.9211 13.9152 15.6706 13.7312 14.7858 14.389C14.6295 14.5052 14.4911 14.6436 14.3749 14.7999C14.1906 15.0149 13.8669 15.0398 13.6519 14.8555C13.632 14.8385 13.6134 14.8198 13.5963 14.7999C12.9343 13.9149 11.6801 13.7341 10.7951 14.3962C10.6419 14.5108 10.5059 14.6467 10.3913 14.7999C10.208 15.0144 9.88564 15.0396 9.67119 14.8564C9.65094 14.8391 9.63205 14.8202 9.61471 14.7999C8.95208 13.9146 7.69728 13.7341 6.81196 14.3967C6.659 14.5112 6.52321 14.647 6.40874 14.7999C6.22546 15.0144 5.90305 15.0396 5.6886 14.8564C5.66835 14.8391 5.64946 14.8202 5.63211 14.7999C5.24375 14.3065 4.65678 14.0105 4.02913 13.9915C3.6891 14.0181 3.3605 13.8623 3.16592 13.5822C2.94467 13.1816 2.93427 12.6978 3.13803 12.2879C6.6666 3.93945 17.3429 3.96139 20.8515 12.2879C21.0569 12.697 21.0469 13.1811 20.8247 13.5813Z" fill="black"/>
</g>
<defs>
<clipPath id="clip0_606_6800">
<rect width="24" height="24" fill="white"/>
</clipPath>
</defs>
</svg>
