<svg width="24" height="24" viewBox="0 0 24 24" fill="none" xmlns="http://www.w3.org/2000/svg">
<g clip-path="url(#clip0_606_6661)">
<path d="M7.99991 22.3601C9.06205 23.4059 10.4912 23.9946 11.9818 24.0002C13.4724 24.0058 14.9059 23.4279 15.9759 22.3901L19.7829 18.8531C21.8418 16.7762 22.9969 13.9701 22.9969 11.0456C22.9969 8.12117 21.8418 5.31507 19.7829 3.23815C18.7636 2.21206 17.5514 1.39772 16.2161 0.842026C14.8808 0.286328 13.4487 0.000244141 12.0024 0.000244141C10.5561 0.000244141 9.12405 0.286328 7.78874 0.842026C6.45343 1.39772 5.24122 2.21206 4.22191 3.23815C2.15858 5.32363 1.00474 8.14113 1.01261 11.0748C1.02048 14.0085 2.18942 16.8198 4.26391 18.8941L7.99991 22.3601ZM6.34591 5.35415C7.08646 4.60819 7.9673 4.01615 8.93768 3.61213C9.90806 3.20811 10.9488 3.00011 11.9999 3.00011C13.051 3.00011 14.0918 3.20811 15.0622 3.61213C16.0325 4.01615 16.9134 4.60819 17.6539 5.35415C19.1522 6.85922 19.9972 8.89401 20.0058 11.0177C20.0144 13.1414 19.186 15.183 17.6999 16.7001L13.8999 20.2251C13.3821 20.7188 12.6927 20.9916 11.9773 20.986C11.262 20.9804 10.5769 20.6968 10.0669 20.1951L6.34591 16.7371C4.84495 15.2232 4.00281 13.1776 4.00281 11.0456C4.00281 8.91374 4.84495 6.86814 6.34591 5.35415ZM6.99991 11.0001C6.99991 10.6023 7.15795 10.2208 7.43925 9.93949C7.72056 9.65818 8.10209 9.50015 8.49991 9.50015H10.4999V7.50015C10.4999 7.10232 10.6579 6.72079 10.9393 6.43949C11.2206 6.15818 11.6021 6.00015 11.9999 6.00015C12.3977 6.00015 12.7793 6.15818 13.0606 6.43949C13.3419 6.72079 13.4999 7.10232 13.4999 7.50015V9.50015H15.4999C15.8977 9.50015 16.2793 9.65818 16.5606 9.93949C16.8419 10.2208 16.9999 10.6023 16.9999 11.0001C16.9999 11.398 16.8419 11.7795 16.5606 12.0608C16.2793 12.3421 15.8977 12.5001 15.4999 12.5001H13.4999V14.5001C13.4999 14.898 13.3419 15.2795 13.0606 15.5608C12.7793 15.8421 12.3977 16.0001 11.9999 16.0001C11.6021 16.0001 11.2206 15.8421 10.9393 15.5608C10.6579 15.2795 10.4999 14.898 10.4999 14.5001V12.5001H8.49991C8.10209 12.5001 7.72056 12.3421 7.43925 12.0608C7.15795 11.7795 6.99991 11.398 6.99991 11.0001Z" fill="black"/>
</g>
<defs>
<clipPath id="clip0_606_6661">
<rect width="24" height="24" fill="white"/>
</clipPath>
</defs>
</svg>
