<svg width="24" height="24" viewBox="0 0 24 24" fill="none" xmlns="http://www.w3.org/2000/svg">
<g clip-path="url(#clip0_606_6973)">
<path d="M20.9998 13.5001C20.4116 13.5006 19.8366 13.6745 19.3468 14.0001L18.3278 13.4911C18.5835 12.4066 18.5562 11.2745 18.2484 10.2036C17.9405 9.13264 17.3625 8.15883 16.5699 7.37564C15.7773 6.59245 14.7966 6.02618 13.7221 5.73119C12.6475 5.4362 11.5152 5.4224 10.4338 5.69112L9.8338 4.61012C10.1875 4.05265 10.3474 3.39407 10.2888 2.73647C10.2301 2.07888 9.95621 1.45899 9.50946 0.97289C9.06271 0.486795 8.46809 0.161645 7.81777 0.0478402C7.16744 -0.0659642 6.49774 0.0379335 5.91246 0.343428C5.32719 0.648923 4.85903 1.13895 4.58056 1.73756C4.30209 2.33616 4.22886 3.00991 4.37222 3.65437C4.51558 4.29882 4.86752 4.87799 5.3735 5.30209C5.87947 5.7262 6.51122 5.97155 7.1708 6.00012L7.7708 7.07412C6.60177 8.07598 5.82697 9.4608 5.5848 10.9812C5.34263 12.5017 5.64887 14.0587 6.4488 15.3741L3.6398 18.0691C2.99511 17.9281 2.32192 18.0037 1.7245 18.284C1.12708 18.5643 0.638759 19.0338 0.335179 19.6198C0.0315998 20.2058 -0.0703013 20.8755 0.0452587 21.5252C0.160819 22.1749 0.487391 22.7684 0.974396 23.2138C1.4614 23.6591 2.08166 23.9314 2.73911 23.9886C3.39656 24.0457 4.0545 23.8845 4.61105 23.5299C5.16759 23.1753 5.59167 22.647 5.81761 22.027C6.04354 21.4069 6.05873 20.7297 5.8608 20.1001L8.5538 17.5141C9.88338 18.3475 11.4699 18.6709 13.0196 18.4246C14.5693 18.1782 15.9772 17.3787 16.9828 16.1741L18.0058 16.6851C18.0419 17.2695 18.2482 17.8305 18.5993 18.299C18.9504 18.7676 19.4309 19.1232 19.9816 19.3219C20.5323 19.5207 21.1291 19.554 21.6985 19.4177C22.2679 19.2814 22.7849 18.9815 23.1859 18.5549C23.587 18.1283 23.8544 17.5937 23.9552 17.017C24.0561 16.4403 23.986 15.8466 23.7536 15.3093C23.5212 14.7719 23.1366 14.3143 22.6473 13.9928C22.158 13.6713 21.5853 13.5001 20.9998 13.5001ZM11.9998 15.5001C11.3076 15.5001 10.6309 15.2949 10.0553 14.9103C9.47974 14.5257 9.03113 13.9791 8.76623 13.3395C8.50132 12.7 8.43201 11.9962 8.56706 11.3173C8.7021 10.6384 9.03545 10.0147 9.52493 9.52525C10.0144 9.03577 10.6381 8.70242 11.317 8.56737C11.9959 8.43233 12.6997 8.50164 13.3392 8.76654C13.9787 9.03145 14.5254 9.48005 14.9099 10.0556C15.2945 10.6312 15.4998 11.3079 15.4998 12.0001C15.4998 12.9284 15.1311 13.8186 14.4747 14.475C13.8183 15.1314 12.9281 15.5001 11.9998 15.5001Z" fill="black"/>
</g>
<defs>
<clipPath id="clip0_606_6973">
<rect width="24" height="24" fill="white"/>
</clipPath>
</defs>
</svg>
