<svg width="24" height="24" viewBox="0 0 24 24" fill="none" xmlns="http://www.w3.org/2000/svg">
<path d="M16.6321 24H7.36808C6.73784 23.9999 6.11505 23.8638 5.54224 23.601C4.96944 23.3381 4.46012 22.9547 4.04907 22.477C3.64379 22.0077 3.34462 21.4564 3.17203 20.8608C2.99944 20.2652 2.9575 19.6393 3.04908 19.026C3.52797 16.3064 4.9148 13.8296 6.98307 12C4.91462 10.1708 3.52745 7.69432 3.04808 4.975C2.9565 4.36169 2.99844 3.73585 3.17103 3.14024C3.34362 2.54464 3.64279 1.99333 4.04807 1.524C4.45913 1.04595 4.96857 0.66229 5.54157 0.399265C6.11456 0.13624 6.7376 4.80496e-05 7.36808 0L16.6321 0C17.2622 0.000146058 17.8848 0.136292 18.4574 0.399137C19.03 0.661982 19.5392 1.04533 19.9501 1.523C20.3554 1.99173 20.6545 2.54252 20.8271 3.13765C20.9997 3.73277 21.0417 4.35816 20.9501 4.971C20.4686 7.69141 19.0807 10.1688 17.0121 12C19.0817 13.8311 20.4704 16.3089 20.9521 19.03C21.0435 19.6427 21.0015 20.2679 20.8289 20.8628C20.6563 21.4578 20.3572 22.0084 19.9521 22.477C19.541 22.9549 19.0315 23.3384 18.4585 23.6013C17.8855 23.8641 17.2625 24.0001 16.6321 24ZM16.6321 3H7.36808C7.16947 3.00015 6.97324 3.04311 6.79273 3.12594C6.61223 3.20877 6.4517 3.32953 6.32208 3.48C6.19796 3.62197 6.10621 3.78923 6.0532 3.9702C6.00018 4.15117 5.98718 4.3415 6.01507 4.528C6.35208 6.771 7.76108 8.89 10.2031 10.828C10.3804 10.9684 10.5237 11.1472 10.6223 11.3508C10.7208 11.5545 10.7719 11.7778 10.7719 12.004C10.7719 12.2302 10.7208 12.4535 10.6223 12.6572C10.5237 12.8608 10.3804 13.0396 10.2031 13.18C7.76108 15.113 6.35208 17.232 6.01507 19.48C5.98718 19.6665 6.00018 19.8568 6.0532 20.0378C6.10621 20.2188 6.19796 20.386 6.32208 20.528C6.45244 20.677 6.6133 20.7963 6.79377 20.8777C6.97423 20.9591 7.17009 21.0008 7.36808 21H16.6321C16.8307 20.9996 17.027 20.9564 17.2075 20.8734C17.388 20.7904 17.5485 20.6695 17.6781 20.519C17.802 20.3777 17.8936 20.2111 17.9467 20.0308C17.9997 19.8505 18.0128 19.6609 17.9851 19.475C17.6501 17.239 16.2401 15.12 13.7941 13.175C13.6174 13.0345 13.4748 12.856 13.3767 12.6527C13.2787 12.4495 13.2277 12.2267 13.2277 12.001C13.2277 11.7753 13.2787 11.5525 13.3767 11.3493C13.4748 11.146 13.6174 10.9675 13.7941 10.827C16.2401 8.881 17.6501 6.762 17.9851 4.527C18.0125 4.34098 17.9993 4.15121 17.9463 3.9708C17.8933 3.79039 17.8018 3.62362 17.6781 3.482C17.5486 3.33127 17.3881 3.2102 17.2076 3.12703C17.0271 3.04386 16.8308 3.00053 16.6321 3Z" fill="black"/>
</svg>
