<svg width="24" height="24" viewBox="0 0 24 24" fill="none" xmlns="http://www.w3.org/2000/svg">
<g clip-path="url(#clip0_606_6830)">
<path d="M24.0001 21C24.0011 21.394 23.9244 21.7843 23.7745 22.1486C23.6245 22.5129 23.4043 22.8441 23.1264 23.1234C22.8485 23.4026 22.5183 23.6243 22.1547 23.776C21.791 23.9276 21.4011 24.0061 21.0071 24.007C20.6132 24.0079 20.2229 23.9312 19.8586 23.7813C19.4942 23.6314 19.163 23.4112 18.8838 23.1333C18.3198 22.572 18.002 21.8096 18.0001 21.014L15.5001 19.584C15.046 19.8536 14.5282 19.9972 14.0001 20C13.2045 20 12.4414 19.6839 11.8788 19.1213C11.3162 18.5587 11.0001 17.7956 11.0001 17C11.0001 16.2043 11.3162 15.4413 11.8788 14.8787C12.4414 14.3161 13.2045 14 14.0001 14C14.5282 14.0028 15.046 14.1464 15.5001 14.416L18.0001 12.986C18.0029 12.3933 18.1812 11.8146 18.5125 11.3231C18.8438 10.8316 19.3133 10.4493 19.8618 10.2244C20.4102 9.99944 21.0129 9.94203 21.5939 10.0594C22.175 10.1767 22.7082 10.4635 23.1264 10.8836C23.5445 11.3037 23.8288 11.8383 23.9435 12.4199C24.0581 13.0014 23.9979 13.6039 23.7704 14.1513C23.5429 14.6986 23.1584 15.1663 22.6654 15.4954C22.1723 15.8244 21.5929 16 21.0001 16C20.472 15.9972 19.9543 15.8536 19.5001 15.584L17.0231 17L19.5001 18.416C19.9543 18.1464 20.472 18.0028 21.0001 18C21.7958 18 22.5588 18.3161 23.1215 18.8787C23.6841 19.4413 24.0001 20.2043 24.0001 21ZM9.30814 3.057C9.99273 2.95329 10.6911 2.98736 11.3624 3.15719C12.0337 3.32702 12.6642 3.6292 13.2171 4.046C13.7612 4.45395 14.2183 4.96641 14.5618 5.55333C14.9052 6.14026 15.128 6.78984 15.2171 7.464C15.2609 7.79056 15.4109 8.09364 15.644 8.32644C15.8772 8.55923 16.1805 8.70878 16.5071 8.752C16.8475 8.79772 17.1825 8.87711 17.5071 8.989C17.8833 9.11842 18.2956 9.0931 18.6531 8.9186C19.0106 8.74409 19.2842 8.43471 19.4136 8.0585C19.5431 7.68229 19.5177 7.27007 19.3432 6.91253C19.1687 6.555 18.8593 6.28142 18.4831 6.152C18.3138 6.094 18.1421 6.04133 17.9681 5.994C17.4359 4.06989 16.2182 2.40698 14.5444 1.31884C12.8707 0.230712 10.8567 -0.207446 8.88214 0.0869957C7.22204 0.333433 5.68041 1.09238 4.47271 2.25776C3.26502 3.42315 2.4516 4.93674 2.14614 6.587C1.82957 8.21284 2.01837 9.89663 2.68714 11.412C1.65829 12.0633 0.862196 13.0238 0.413061 14.1556C-0.036075 15.2874 -0.115166 16.5324 0.187135 17.712C0.540192 18.9658 1.29932 20.067 2.34551 20.843C3.3917 21.619 4.66582 22.026 5.96813 22H8.50014C8.89796 22 9.27949 21.842 9.5608 21.5607C9.8421 21.2794 10.0001 20.8978 10.0001 20.5C10.0001 20.1022 9.8421 19.7206 9.5608 19.4393C9.27949 19.158 8.89796 19 8.50014 19H5.96813C5.33256 19.0188 4.70815 18.8301 4.18941 18.4624C3.67067 18.0946 3.28583 17.568 3.09314 16.962C2.93706 16.35 2.99522 15.703 3.25793 15.1286C3.52064 14.5543 3.97207 14.0872 4.53714 13.805C5.11543 13.4935 5.54667 12.9655 5.73636 12.3366C5.92606 11.7077 5.85873 11.0293 5.54913 10.45C5.0333 9.43165 4.87279 8.27007 5.09313 7.15C5.28125 6.11346 5.7887 5.16167 6.54447 4.42777C7.30024 3.69388 8.26652 3.2146 9.30814 3.057Z" fill="black"/>
</g>
<defs>
<clipPath id="clip0_606_6830">
<rect width="24" height="24" fill="white"/>
</clipPath>
</defs>
</svg>
