<svg width="24" height="24" viewBox="0 0 24 24" fill="none" xmlns="http://www.w3.org/2000/svg">
<g clip-path="url(#clip0_606_6775)">
<path d="M18.5 0H13C12.6022 0 12.2206 0.158035 11.9393 0.43934C11.658 0.720644 11.5 1.10218 11.5 1.5C11.5 1.89782 11.658 2.27936 11.9393 2.56066C12.2206 2.84196 12.6022 3 13 3H18.5C18.6154 3.00348 18.7303 3.01518 18.844 3.035L0.443997 21.435C0.162603 21.7164 0.0045166 22.098 0.0045166 22.496C0.0045166 22.894 0.162603 23.2756 0.443997 23.557C0.725392 23.8384 1.10705 23.9965 1.505 23.9965C1.90295 23.9965 2.2846 23.8384 2.566 23.557L20.966 5.157C20.9854 5.27038 20.9968 5.38501 21 5.5V11C21 11.3978 21.158 11.7794 21.4393 12.0607C21.7206 12.342 22.1022 12.5 22.5 12.5C22.8978 12.5 23.2794 12.342 23.5607 12.0607C23.842 11.7794 24 11.3978 24 11V5.5C23.9981 4.04188 23.4181 2.64401 22.387 1.61296C21.356 0.58191 19.9581 0.00185226 18.5 0V0Z" fill="black"/>
<path d="M6.49994 11C7.38996 11 8.25998 10.7361 9 10.2416C9.74003 9.74715 10.3168 9.04434 10.6574 8.22208C10.998 7.39981 11.0871 6.49501 10.9135 5.6221C10.7398 4.74918 10.3113 3.94736 9.68192 3.31802C9.05258 2.68868 8.25076 2.2601 7.37785 2.08647C6.50493 1.91283 5.60013 2.00195 4.77786 2.34254C3.9556 2.68314 3.25279 3.25991 2.75833 3.99994C2.26386 4.73996 1.99994 5.60999 1.99994 6.5C2.00126 7.69307 2.47579 8.83689 3.31942 9.68052C4.16305 10.5241 5.30687 10.9987 6.49994 11ZM6.49994 5C6.79661 5 7.08662 5.08798 7.33329 5.2528C7.57997 5.41762 7.77223 5.65189 7.88576 5.92598C7.99929 6.20007 8.029 6.50167 7.97112 6.79264C7.91324 7.08361 7.77038 7.35088 7.5606 7.56066C7.35082 7.77044 7.08355 7.9133 6.79257 7.97118C6.5016 8.02906 6.2 7.99935 5.92591 7.88582C5.65182 7.77229 5.41756 7.58003 5.25273 7.33336C5.08791 7.08668 4.99994 6.79667 4.99994 6.5C4.99994 6.10218 5.15797 5.72065 5.43928 5.43934C5.72058 5.15804 6.10211 5 6.49994 5Z" fill="black"/>
<path d="M17.5 12.9998C16.61 12.9998 15.74 13.2637 14.9999 13.7581C14.2599 14.2526 13.6831 14.9554 13.3425 15.7777C13.0019 16.5999 12.9128 17.5047 13.0865 18.3777C13.2601 19.2506 13.6887 20.0524 14.318 20.6817C14.9474 21.3111 15.7492 21.7396 16.6221 21.9133C17.495 22.0869 18.3998 21.9978 19.2221 21.6572C20.0443 21.3166 20.7472 20.7398 21.2416 19.9998C21.7361 19.2598 22 18.3898 22 17.4997C21.9987 16.3067 21.5241 15.1629 20.6805 14.3192C19.8369 13.4756 18.6931 13.0011 17.5 12.9998ZM17.5 18.9997C17.2033 18.9997 16.9133 18.9118 16.6666 18.747C16.42 18.5821 16.2277 18.3479 16.1142 18.0738C16.0007 17.7997 15.9709 17.4981 16.0288 17.2071C16.0867 16.9161 16.2296 16.6489 16.4393 16.4391C16.6491 16.2293 16.9164 16.0865 17.2074 16.0286C17.4983 15.9707 17.7999 16.0004 18.074 16.1139C18.3481 16.2275 18.5824 16.4197 18.7472 16.6664C18.912 16.9131 19 17.2031 19 17.4997C19 17.8976 18.842 18.2791 18.5607 18.5604C18.2794 18.8417 17.8978 18.9997 17.5 18.9997Z" fill="black"/>
</g>
<defs>
<clipPath id="clip0_606_6775">
<rect width="24" height="24" fill="white"/>
</clipPath>
</defs>
</svg>
