<svg width="24" height="24" viewBox="0 0 24 24" fill="none" xmlns="http://www.w3.org/2000/svg">
<g clip-path="url(#clip0_606_6520)">
<path d="M19.6398 0.00441782C15.8568 0.00441782 11.5938 2.01042 8.23985 5.36942C4.91086 8.66859 2.23346 12.5656 0.347849 16.8564C0.00107759 17.6586 -0.0959559 18.5467 0.069399 19.4049C0.234754 20.2631 0.654825 21.0515 1.27485 21.6674L2.33185 22.7244C2.94695 23.3441 3.73447 23.764 4.59174 23.9296C5.44901 24.0951 6.33627 23.9985 7.13785 23.6524C11.4316 21.7716 15.3308 19.0955 18.6298 15.7654C21.9888 12.4054 23.9998 8.14242 23.9998 4.35942C24.0547 3.7734 23.9796 3.18249 23.7798 2.62885C23.58 2.07521 23.2605 1.57248 22.8441 1.15652C22.4276 0.74057 21.9245 0.421643 21.3707 0.222494C20.8168 0.0233456 20.2258 -0.0511173 19.6398 0.00441782ZM16.5089 13.6444C13.4798 16.7057 9.89968 19.1672 5.95685 20.8994C5.70138 21.0084 5.41843 21.0357 5.14685 20.9774L16.5609 9.56042C16.8422 9.27902 17.0003 8.89737 17.0003 8.49942C17.0003 8.10147 16.8422 7.71981 16.5609 7.43842C16.2795 7.15702 15.8978 6.99894 15.4998 6.99894C15.1019 6.99894 14.7202 7.15702 14.4388 7.43842L3.02685 18.8514C2.96955 18.5795 2.99677 18.2965 3.10485 18.0404C4.8373 14.0993 7.29726 10.5201 10.3558 7.49042C13.6638 4.18342 17.3198 3.00442 19.6398 3.00442C20.7168 3.00442 20.9998 3.28242 20.9998 4.35942C20.9998 6.67942 19.8158 10.3364 16.5089 13.6444Z" fill="black"/>
</g>
<defs>
<clipPath id="clip0_606_6520">
<rect width="24" height="24" fill="white"/>
</clipPath>
</defs>
</svg>
