<svg width="24" height="24" viewBox="0 0 24 24" fill="none" xmlns="http://www.w3.org/2000/svg">
<path d="M10.4821 19.4999C10.0845 19.4998 9.70325 19.3419 9.42205 19.0609L4.83605 14.4749C4.18082 13.8178 3.81287 12.9278 3.81287 11.9999C3.81287 11.072 4.18082 10.1819 4.83605 9.52488L9.42205 4.93888C9.70345 4.65762 10.085 4.49966 10.4829 4.49976C10.8808 4.49985 11.2623 4.65799 11.5436 4.93938C11.8248 5.22078 11.9828 5.60238 11.9827 6.00024C11.9826 6.39809 11.8244 6.77962 11.5431 7.06088L6.95705 11.6459C6.91049 11.6923 6.87355 11.7475 6.84834 11.8083C6.82313 11.869 6.81016 11.9341 6.81016 11.9999C6.81016 12.0657 6.82313 12.1308 6.84834 12.1915C6.87355 12.2523 6.91049 12.3074 6.95705 12.3539L11.5431 16.9389C11.753 17.1487 11.8959 17.416 11.9539 17.7071C12.0118 17.9981 11.9821 18.2998 11.8685 18.574C11.7549 18.8482 11.5626 19.0825 11.3158 19.2473C11.069 19.4121 10.7788 19.5 10.4821 19.4999Z" fill="black"/>
<path d="M17.482 19.4999C17.0844 19.4998 16.7032 19.3419 16.422 19.0609L10.422 13.0609C10.2826 12.9216 10.172 12.7562 10.0966 12.5741C10.0211 12.3921 9.9823 12.1969 9.9823 11.9999C9.9823 11.8028 10.0211 11.6077 10.0966 11.4256C10.172 11.2436 10.2826 11.0782 10.422 10.9389L16.422 4.93888C16.5613 4.79962 16.7267 4.68916 16.9087 4.61381C17.0907 4.53847 17.2858 4.49971 17.4828 4.49976C17.6798 4.4998 17.8749 4.53865 18.0569 4.61408C18.2389 4.68951 18.4042 4.80005 18.5435 4.93938C18.6827 5.07872 18.7932 5.24411 18.8685 5.42614C18.9439 5.60816 18.9826 5.80324 18.9826 6.00024C18.9825 6.19724 18.9437 6.3923 18.8683 6.57428C18.7928 6.75627 18.6823 6.92162 18.543 7.06088L13.6 11.9999L18.539 16.9389C18.7486 17.1484 18.8915 17.4154 18.9496 17.7061C19.0077 17.9968 18.9783 18.2981 18.8652 18.5722C18.7521 18.8462 18.5604 19.0805 18.3142 19.2456C18.068 19.4108 17.7784 19.4992 17.482 19.4999Z" fill="black"/>
</svg>
