<svg width="24" height="24" viewBox="0 0 24 24" fill="none" xmlns="http://www.w3.org/2000/svg">
<g clip-path="url(#clip0_606_6504)">
<path d="M19.9999 11.0007C18.939 11.0007 17.9216 11.4222 17.1714 12.1723C16.4213 12.9225 15.9999 13.9399 15.9999 15.0007V20.0007C15.9999 21.0616 16.4213 22.079 17.1714 22.8292C17.9216 23.5793 18.939 24.0007 19.9999 24.0007C21.0607 24.0007 22.0781 23.5793 22.8283 22.8292C23.5784 22.079 23.9999 21.0616 23.9999 20.0007V15.0007C23.9999 13.9399 23.5784 12.9225 22.8283 12.1723C22.0781 11.4222 21.0607 11.0007 19.9999 11.0007ZM20.9999 20.0007C20.9999 20.2659 20.8945 20.5203 20.707 20.7078C20.5194 20.8954 20.2651 21.0007 19.9999 21.0007C19.7347 21.0007 19.4803 20.8954 19.2928 20.7078C19.1052 20.5203 18.9999 20.2659 18.9999 20.0007V15.0007C18.9999 14.7355 19.1052 14.4812 19.2928 14.2936C19.4803 14.1061 19.7347 14.0007 19.9999 14.0007C20.2651 14.0007 20.5194 14.1061 20.707 14.2936C20.8945 14.4812 20.9999 14.7355 20.9999 15.0007V20.0007Z" fill="black"/>
<path d="M22.2932 2.7075L20.9702 4.0305C19.0085 1.82262 16.3014 0.415758 13.3672 0.0791805C10.4329 -0.257397 7.4776 0.499956 5.06688 2.20628C2.65616 3.9126 0.959385 6.44804 0.301316 9.32728C-0.356752 12.2065 0.070117 15.2273 1.50022 17.8115C1.59576 17.9838 1.72429 18.1356 1.87849 18.2582C2.03269 18.3808 2.20953 18.4719 2.39892 18.5261C2.5883 18.5804 2.78652 18.5969 2.98226 18.5745C3.178 18.5522 3.36743 18.4915 3.53972 18.396C3.71201 18.3005 3.8638 18.1719 3.98642 18.0177C4.10904 17.8635 4.20009 17.6867 4.25436 17.4973C4.30864 17.3079 4.32508 17.1097 4.30275 16.914C4.28042 16.7182 4.21976 16.5288 4.12422 16.3565C3.04318 14.4062 2.72537 12.1238 3.23247 9.95232C3.73957 7.78087 5.03541 5.87529 6.86844 4.6055C8.70147 3.33572 10.9409 2.79231 13.1521 3.08076C15.3632 3.36922 17.3883 4.46895 18.8342 6.1665L17.7072 7.2935C17.5674 7.43335 17.4722 7.61151 17.4336 7.80546C17.3951 7.99942 17.4149 8.20045 17.4905 8.38315C17.5662 8.56585 17.6944 8.72201 17.8588 8.8319C18.0232 8.94178 18.2165 9.00045 18.4142 9.0005H23.0002C23.2654 9.0005 23.5198 8.89514 23.7073 8.7076C23.8949 8.52007 24.0002 8.26571 24.0002 8.0005V3.4145C24.0002 3.21675 23.9415 3.02345 23.8316 2.85904C23.7217 2.69463 23.5656 2.56649 23.3829 2.49082C23.2002 2.41515 22.9991 2.39535 22.8052 2.43391C22.6112 2.47248 22.4331 2.56769 22.2932 2.7075Z" fill="black"/>
<path d="M12.574 11.1136C12.2999 11 11.9982 10.9702 11.7072 11.0281C11.4162 11.0859 11.1488 11.2288 10.939 11.4386L7.18899 15.1886C6.9076 15.47 6.74951 15.8516 6.74951 16.2496C6.74951 16.6475 6.9076 17.0292 7.18899 17.3106C7.47039 17.592 7.85204 17.7501 8.24999 17.7501C8.64794 17.7501 9.0296 17.592 9.31099 17.3106L10.5 16.1206V22.4996C10.5 22.8974 10.658 23.2789 10.9393 23.5602C11.2206 23.8415 11.6022 23.9996 12 23.9996C12.3978 23.9996 12.7793 23.8415 13.0607 23.5602C13.342 23.2789 13.5 22.8974 13.5 22.4996V12.4996C13.5 12.2029 13.4121 11.9128 13.2472 11.6661C13.0824 11.4194 12.8481 11.2271 12.574 11.1136Z" fill="black"/>
</g>
<defs>
<clipPath id="clip0_606_6504">
<rect width="24" height="24" fill="white"/>
</clipPath>
</defs>
</svg>
