<svg width="24" height="24" viewBox="0 0 24 24" fill="none" xmlns="http://www.w3.org/2000/svg">
<g clip-path="url(#clip0_606_6499)">
<path d="M14.9999 15.6257C14.9999 14.4986 14.5521 13.4176 13.7551 12.6205C12.9581 11.8235 11.877 11.3757 10.7499 11.3757C9.62271 11.3757 8.5417 11.8235 7.74467 12.6205C6.94764 13.4176 6.49988 14.4986 6.49988 15.6257C6.49988 16.0236 6.65791 16.4051 6.93922 16.6864C7.22052 16.9677 7.60205 17.1257 7.99988 17.1257C8.3977 17.1257 8.77923 16.9677 9.06054 16.6864C9.34184 16.4051 9.49988 16.0236 9.49988 15.6257C9.49988 15.2942 9.63157 14.9763 9.86599 14.7418C10.1004 14.5074 10.4184 14.3757 10.7499 14.3757C11.0814 14.3757 11.3993 14.5074 11.6338 14.7418C11.8682 14.9763 11.9999 15.2942 11.9999 15.6257C11.9999 16.2507 10.8079 17.1447 9.84988 17.8627C8.27988 19.0407 6.49988 20.3757 6.49988 22.5007C6.49988 22.8986 6.65791 23.2801 6.93922 23.5614C7.22052 23.8427 7.60205 24.0007 7.99988 24.0007H13.4999C13.8977 24.0007 14.2792 23.8427 14.5605 23.5614C14.8418 23.2801 14.9999 22.8986 14.9999 22.5007C14.9999 22.1029 14.8418 21.7214 14.5605 21.4401C14.2792 21.1588 13.8977 21.0007 13.4999 21.0007H10.6999C11.0099 20.7467 11.3449 20.5007 11.6549 20.2637C13.2199 19.0857 14.9999 17.7507 14.9999 15.6257Z" fill="black"/>
<path d="M22.5001 11.0007C22.1023 11.0007 21.7208 11.1588 21.4395 11.4401C21.1581 11.7214 21.0001 12.1029 21.0001 12.5007V17.0007H20.2501C19.9188 17.0002 19.6011 16.8683 19.3668 16.634C19.1325 16.3997 19.0006 16.0821 19.0001 15.7507V12.5007C19.0001 12.1029 18.8421 11.7214 18.5608 11.4401C18.2795 11.1588 17.8979 11.0007 17.5001 11.0007C17.1023 11.0007 16.7208 11.1588 16.4395 11.4401C16.1582 11.7214 16.0001 12.1029 16.0001 12.5007V15.7507C16.0014 16.8775 16.4496 17.9577 17.2464 18.7545C18.0431 19.5512 19.1234 19.9994 20.2501 20.0007H21.0001V22.5007C21.0001 22.8986 21.1581 23.2801 21.4395 23.5614C21.7208 23.8427 22.1023 24.0007 22.5001 24.0007C22.8979 24.0007 23.2795 23.8427 23.5608 23.5614C23.8421 23.2801 24.0001 22.8986 24.0001 22.5007V12.5007C24.0001 12.1029 23.8421 11.7214 23.5608 11.4401C23.2795 11.1588 22.8979 11.0007 22.5001 11.0007Z" fill="black"/>
<path d="M22.293 2.7075L20.97 4.0305C19.0082 1.82262 16.3012 0.415758 13.3669 0.0791805C10.4327 -0.257397 7.47736 0.499956 5.06664 2.20628C2.65592 3.9126 0.959141 6.44804 0.301072 9.32728C-0.356997 12.2065 0.0698729 15.2273 1.49998 17.8115C1.59551 17.9838 1.72405 18.1356 1.87825 18.2582C2.03245 18.3808 2.20929 18.4719 2.39867 18.5261C2.58806 18.5804 2.78628 18.5969 2.98202 18.5745C3.17776 18.5522 3.36718 18.4915 3.53948 18.396C3.71177 18.3005 3.86356 18.1719 3.98618 18.0177C4.1088 17.8635 4.19984 17.6867 4.25412 17.4973C4.3084 17.3079 4.32484 17.1097 4.30251 16.914C4.28018 16.7182 4.21951 16.5288 4.12398 16.3565C3.04294 14.4062 2.72513 12.1238 3.23223 9.95232C3.73933 7.78087 5.03517 5.87529 6.8682 4.6055C8.70123 3.33572 10.9407 2.79231 13.1518 3.08076C15.363 3.36922 17.3881 4.46895 18.834 6.1665L17.707 7.2935C17.5672 7.43335 17.472 7.61151 17.4334 7.80546C17.3948 7.99942 17.4146 8.20045 17.4903 8.38315C17.566 8.56585 17.6941 8.72201 17.8585 8.8319C18.0229 8.94178 18.2162 9.00045 18.414 9.0005H23C23.2652 9.0005 23.5195 8.89514 23.7071 8.7076C23.8946 8.52007 24 8.26571 24 8.0005V3.4145C23.9999 3.21675 23.9413 3.02345 23.8314 2.85904C23.7215 2.69463 23.5653 2.56649 23.3826 2.49082C23.1999 2.41515 22.9989 2.39535 22.8049 2.43391C22.611 2.47248 22.4328 2.56769 22.293 2.7075Z" fill="black"/>
</g>
<defs>
<clipPath id="clip0_606_6499">
<rect width="24" height="24" fill="white"/>
</clipPath>
</defs>
</svg>
