<svg width="24" height="24" viewBox="0 0 24 24" fill="none" xmlns="http://www.w3.org/2000/svg">
<g clip-path="url(#clip0_606_6596)">
<path d="M20.5 7.00014H16.5C15.5717 7.00014 14.6815 7.36889 14.0251 8.02527C13.3687 8.68164 13 9.57188 13 10.5001V15.0001H11V11.5001C10.9979 10.3919 10.6615 9.31005 10.0348 8.39605C9.408 7.48205 8.52005 6.77842 7.487 6.37714C8.10152 5.95335 8.56446 5.34419 8.80818 4.63862C9.05191 3.93304 9.06367 3.16803 8.84174 2.4553C8.61982 1.74257 8.17583 1.11947 7.57462 0.676992C6.97341 0.234516 6.24648 -0.00415039 5.5 -0.00415039C4.75352 -0.00415039 4.02659 0.234516 3.42538 0.676992C2.82417 1.11947 2.38018 1.74257 2.15826 2.4553C1.93633 3.16803 1.94809 3.93304 2.19182 4.63862C2.43555 5.34419 2.89848 5.95335 3.513 6.37714C2.47995 6.77842 1.592 7.48205 0.965244 8.39605C0.338486 9.31005 0.00207836 10.3919 0 11.5001L0 22.5001C0 22.898 0.158035 23.2795 0.43934 23.5608C0.720644 23.8421 1.10218 24.0001 1.5 24.0001C1.89782 24.0001 2.27936 23.8421 2.56066 23.5608C2.84196 23.2795 3 22.898 3 22.5001V18.0001H21V22.5001C21 22.898 21.158 23.2795 21.4393 23.5608C21.7206 23.8421 22.1022 24.0001 22.5 24.0001C22.8978 24.0001 23.2794 23.8421 23.5607 23.5608C23.842 23.2795 24 22.898 24 22.5001V10.5001C24 9.57188 23.6313 8.68164 22.9749 8.02527C22.3185 7.36889 21.4283 7.00014 20.5 7.00014ZM5.5 9.00014C6.16304 9.00014 6.79893 9.26353 7.26777 9.73237C7.73661 10.2012 8 10.8371 8 11.5001V15.0001H3V11.5001C3 10.8371 3.26339 10.2012 3.73223 9.73237C4.20107 9.26353 4.83696 9.00014 5.5 9.00014ZM16 15.0001V10.5001C16 10.3675 16.0527 10.2404 16.1464 10.1466C16.2402 10.0528 16.3674 10.0001 16.5 10.0001H17V10.5001C17 10.898 17.158 11.2795 17.4393 11.5608C17.7206 11.8421 18.1022 12.0001 18.5 12.0001C18.8978 12.0001 19.2794 11.8421 19.5607 11.5608C19.842 11.2795 20 10.898 20 10.5001V10.0001H20.5C20.6326 10.0001 20.7598 10.0528 20.8536 10.1466C20.9473 10.2404 21 10.3675 21 10.5001V15.0001H16Z" fill="black"/>
</g>
<defs>
<clipPath id="clip0_606_6596">
<rect width="24" height="24" fill="white"/>
</clipPath>
</defs>
</svg>
