<svg width="24" height="24" viewBox="0 0 24 24" fill="none" xmlns="http://www.w3.org/2000/svg">
<g clip-path="url(#clip0_606_6493)">
<path d="M19.9999 7.99973C20.0007 6.4815 19.5694 4.9944 18.7565 3.71214C17.9436 2.42988 16.7826 1.40541 15.4091 0.758412C14.0357 0.111411 12.5064 -0.131406 11.0001 0.0583252C9.4938 0.248057 8.07257 0.862503 6.90245 1.82988C5.73233 2.79727 4.86164 4.07764 4.39209 5.52143C3.92255 6.96522 3.87353 8.51282 4.25078 9.98343C4.62802 11.454 5.41595 12.7869 6.52251 13.8264C7.62907 14.8659 9.00858 15.5691 10.4999 15.8537V17.9997H8.99988C8.60205 17.9997 8.22052 18.1578 7.93922 18.4391C7.65791 18.7204 7.49988 19.1019 7.49988 19.4997C7.49988 19.8976 7.65791 20.2791 7.93922 20.5604C8.22052 20.8417 8.60205 20.9997 8.99988 20.9997H10.4999V22.4997C10.4999 22.8976 10.6579 23.2791 10.9392 23.5604C11.2205 23.8417 11.6021 23.9997 11.9999 23.9997C12.3977 23.9997 12.7792 23.8417 13.0605 23.5604C13.3418 23.2791 13.4999 22.8976 13.4999 22.4997V20.9997H14.9999C15.3977 20.9997 15.7792 20.8417 16.0605 20.5604C16.3418 20.2791 16.4999 19.8976 16.4999 19.4997C16.4999 19.1019 16.3418 18.7204 16.0605 18.4391C15.7792 18.1578 15.3977 17.9997 14.9999 17.9997H13.4999V15.8537C15.3268 15.503 16.9746 14.5274 18.1607 13.0943C19.3467 11.6612 19.997 9.85997 19.9999 7.99973ZM6.99988 7.99973C6.99988 7.01082 7.29312 6.04412 7.84253 5.22188C8.39194 4.39963 9.17283 3.75877 10.0865 3.38033C11.0001 3.00189 12.0054 2.90287 12.9753 3.0958C13.9452 3.28873 14.8361 3.76493 15.5354 4.46419C16.2347 5.16346 16.7109 6.05437 16.9038 7.02428C17.0967 7.99418 16.9977 8.99951 16.6193 9.91315C16.2408 10.8268 15.6 11.6077 14.7777 12.1571C13.9555 12.7065 12.9888 12.9997 11.9999 12.9997C10.6743 12.9981 9.40344 12.4708 8.4661 11.5335C7.52876 10.5962 7.00147 9.32532 6.99988 7.99973Z" fill="black"/>
</g>
<defs>
<clipPath id="clip0_606_6493">
<rect width="24" height="24" fill="white"/>
</clipPath>
</defs>
</svg>
