<svg width="24" height="24" viewBox="0 0 24 24" fill="none" xmlns="http://www.w3.org/2000/svg">
<g clip-path="url(#clip0_606_6673)">
<path d="M4.86302 2.85471L6.41302 2.41271L6.85502 0.862707C6.92623 0.613991 7.07648 0.395224 7.28306 0.239487C7.48964 0.0837495 7.74132 -0.000488281 8.00002 -0.000488281C8.25873 -0.000488281 8.5104 0.0837495 8.71698 0.239487C8.92356 0.395224 9.07382 0.613991 9.14502 0.862707L9.58702 2.41271L11.137 2.85471C11.3857 2.92591 11.6045 3.07617 11.7602 3.28275C11.916 3.48933 12.0002 3.741 12.0002 3.99971C12.0002 4.25841 11.916 4.51009 11.7602 4.71667C11.6045 4.92325 11.3857 5.0735 11.137 5.14471L9.58702 5.58671L9.14502 7.13671C9.07382 7.38542 8.92356 7.60419 8.71698 7.75993C8.5104 7.91566 8.25873 7.9999 8.00002 7.9999C7.74132 7.9999 7.48964 7.91566 7.28306 7.75993C7.07648 7.60419 6.92623 7.38542 6.85502 7.13671L6.41302 5.58671L4.86302 5.14471C4.61431 5.0735 4.39554 4.92325 4.2398 4.71667C4.08407 4.51009 3.99983 4.25841 3.99983 3.99971C3.99983 3.741 4.08407 3.48933 4.2398 3.28275C4.39554 3.07617 4.61431 2.92591 4.86302 2.85471ZM23.137 14.8547L21.587 14.4127L21.145 12.8627C21.0738 12.614 20.9236 12.3952 20.717 12.2395C20.5104 12.0838 20.2587 11.9995 20 11.9995C19.7413 11.9995 19.4896 12.0838 19.2831 12.2395C19.0765 12.3952 18.9262 12.614 18.855 12.8627L18.413 14.4127L16.863 14.8547C16.6143 14.9259 16.3955 15.0762 16.2398 15.2827C16.0841 15.4893 15.9998 15.741 15.9998 15.9997C15.9998 16.2584 16.0841 16.5101 16.2398 16.7167C16.3955 16.9232 16.6143 17.0735 16.863 17.1447L18.413 17.5867L18.855 19.1367C18.9262 19.3854 19.0765 19.6042 19.2831 19.7599C19.4896 19.9157 19.7413 19.9999 20 19.9999C20.2587 19.9999 20.5104 19.9157 20.717 19.7599C20.9236 19.6042 21.0738 19.3854 21.145 19.1367L21.587 17.5867L23.137 17.1447C23.3857 17.0735 23.6045 16.9232 23.7602 16.7167C23.916 16.5101 24.0002 16.2584 24.0002 15.9997C24.0002 15.741 23.916 15.4893 23.7602 15.2827C23.6045 15.0762 23.3857 14.9259 23.137 14.8547ZM17.755 4.49971L19.111 4.88671L19.5 6.24371C19.5633 6.45989 19.695 6.64973 19.8753 6.78479C20.0556 6.91985 20.2748 6.99285 20.5 6.99285C20.7253 6.99285 20.9445 6.91985 21.1248 6.78479C21.3051 6.64973 21.4367 6.45989 21.5 6.24371L21.887 4.88871L23.245 4.49971C23.4612 4.4364 23.6511 4.30473 23.7861 4.12445C23.9212 3.94417 23.9942 3.72497 23.9942 3.49971C23.9942 3.27444 23.9212 3.05525 23.7861 2.87496C23.6511 2.69468 23.4612 2.56302 23.245 2.49971L21.889 2.11271L21.5 0.754707C21.4367 0.538524 21.3051 0.348679 21.1248 0.21362C20.9445 0.0785608 20.7253 0.00556181 20.5 0.00556181C20.2748 0.00556181 20.0556 0.0785608 19.8753 0.21362C19.695 0.348679 19.5633 0.538524 19.5 0.754707L19.113 2.11071L17.755 2.49971C17.5388 2.56302 17.349 2.69468 17.2139 2.87496C17.0789 3.05525 17.0059 3.27444 17.0059 3.49971C17.0059 3.72497 17.0789 3.94417 17.2139 4.12445C17.349 4.30473 17.5388 4.4364 17.755 4.49971ZM17.155 12.6477L6.68602 22.8637C5.94867 23.5936 4.95236 24.002 3.91484 23.9995C2.87732 23.9971 1.88295 23.5841 1.14902 22.8507C0.414162 22.1141 0.00146484 21.1162 0.00146484 20.0757C0.00146484 19.0352 0.414162 18.0373 1.14902 17.3007L11.673 7.03271C12.2268 6.49181 12.9283 6.12685 13.6891 5.98378C14.4499 5.84071 15.236 5.92593 15.9485 6.2287C16.6609 6.53148 17.2679 7.03827 17.6929 7.68528C18.1179 8.33229 18.3421 9.09059 18.337 9.86471C18.3355 10.3844 18.23 10.8986 18.0266 11.3769C17.8233 11.8552 17.5262 12.288 17.153 12.6497L17.155 12.6477ZM10.975 14.4867L9.66602 13.1817L3.25702 19.4347C3.08874 19.6089 2.99584 19.8424 2.99847 20.0846C3.00109 20.3268 3.09901 20.5582 3.27102 20.7287C3.44663 20.8973 3.68061 20.9914 3.92402 20.9914C4.16743 20.9914 4.40142 20.8973 4.57702 20.7287L10.975 14.4867ZM15.339 9.84471C15.3401 9.6625 15.2873 9.48405 15.1872 9.33179C15.0871 9.17952 14.9442 9.06025 14.7765 8.98897C14.6088 8.91768 14.4238 8.89757 14.2447 8.93115C14.0657 8.96473 13.9005 9.05051 13.77 9.17771L11.815 11.0847L13.122 12.3917L15.059 10.4997C15.1463 10.4147 15.2158 10.3132 15.2635 10.2011C15.3112 10.089 15.3362 9.96854 15.337 9.84671L15.339 9.84471Z" fill="black"/>
</g>
<defs>
<clipPath id="clip0_606_6673">
<rect width="24" height="24" fill="white"/>
</clipPath>
</defs>
</svg>
