<svg width="24" height="24" viewBox="0 0 24 24" fill="none" xmlns="http://www.w3.org/2000/svg">
<g clip-path="url(#clip0_606_6658)">
<path d="M12 23.9993C11.2987 24.0007 10.604 23.8636 9.95579 23.5957C9.30761 23.3278 8.71875 22.9345 8.22304 22.4383L1.56504 15.7763C1.06886 15.2804 0.675252 14.6916 0.406706 14.0435C0.138161 13.3955 -6.10352e-05 12.7008 -6.10352e-05 11.9993C-6.10352e-05 11.2978 0.138161 10.6032 0.406706 9.95512C0.675252 9.30704 1.06886 8.71824 1.56504 8.22233L8.22304 1.56333C9.22574 0.563447 10.584 0.00195312 12 0.00195312C13.4161 0.00195313 14.7743 0.563447 15.777 1.56333L22.435 8.22233C22.9312 8.71824 23.3248 9.30704 23.5934 9.95512C23.8619 10.6032 24.0001 11.2978 24.0001 11.9993C24.0001 12.7008 23.8619 13.3955 23.5934 14.0435C23.3248 14.6916 22.9312 15.2804 22.435 15.7763L15.777 22.4353C15.2816 22.932 14.6928 23.3259 14.0446 23.5943C13.3964 23.8627 12.7016 24.0004 12 23.9993ZM10.344 20.3163C10.7836 20.7548 11.3792 21.001 12 21.001C12.6209 21.001 13.2164 20.7548 13.656 20.3163L20.314 13.6583C20.7532 13.2191 21 12.6234 21 12.0023C21 11.3812 20.7532 10.7855 20.314 10.3463L13.656 3.68533C13.2164 3.24688 12.6209 3.00066 12 3.00066C11.3792 3.00066 10.7836 3.24688 10.344 3.68533L3.68604 10.3433C3.24686 10.7825 3.00013 11.3782 3.00013 11.9993C3.00013 12.6204 3.24686 13.2161 3.68604 13.6553L10.344 20.3163Z" fill="black"/>
</g>
<defs>
<clipPath id="clip0_606_6658">
<rect width="24" height="24" fill="white"/>
</clipPath>
</defs>
</svg>
