<svg width="24" height="24" viewBox="0 0 24 24" fill="none" xmlns="http://www.w3.org/2000/svg">
<g clip-path="url(#clip0_606_6579)">
<path d="M23.1452 11.6997C22.6319 11.0132 21.9217 10.4994 21.1092 10.2267C21.4989 9.09973 21.7867 7.94008 21.9692 6.76168C22.0393 6.25533 21.9911 5.7396 21.8283 5.25502C21.6655 4.77045 21.3926 4.33023 21.0309 3.96895C20.6692 3.60768 20.2287 3.33519 19.744 3.17291C19.2592 3.01063 18.7434 2.96297 18.2372 3.03368C18.0642 3.05768 17.3962 3.15668 16.5302 3.35768L16.5002 2.74368C16.4002 0.0996797 13.2132 -0.95632 11.0002 1.09168C8.15417 -1.49232 4.36617 0.93568 5.81517 4.26668C4.53189 4.68193 3.44594 5.55426 2.76377 6.71783C2.0816 7.88139 1.85077 9.25506 2.11517 10.5777C1.29042 11.0571 0.65069 11.7997 0.298686 12.6863C-0.0533172 13.5729 -0.0971697 14.5521 0.17417 15.4667C0.829637 17.7463 2.04961 19.8237 3.72117 21.5067C5.36681 23.1135 7.5782 24.0089 9.87817 23.9997H14.1222C16.4221 24.0089 18.6335 23.1135 20.2792 21.5067C21.9507 19.8236 23.171 17.7462 23.8272 15.4667C24.0162 14.8292 24.0529 14.1563 23.9344 13.502C23.816 12.8478 23.5457 12.2304 23.1452 11.6997ZM18.6472 5.99968C18.6945 5.99189 18.7429 5.99554 18.7885 6.01033C18.8341 6.02512 18.8755 6.05062 18.9092 6.08468C18.9442 6.11942 18.9705 6.16208 18.9856 6.20907C19.0007 6.25606 19.0044 6.306 18.9962 6.35468C18.8098 7.52935 18.5042 8.68197 18.0842 9.79468C18.0615 9.85999 18.0434 9.92683 18.0302 9.99468H13.0562C12.9695 9.58678 12.9862 9.16368 13.1048 8.76388C13.2233 8.36409 13.4401 8.00032 13.7352 7.70568C14.4052 7.04168 16.5632 6.29068 18.6472 5.99968ZM7.50017 6.99968C7.87036 6.99989 8.23585 7.08261 8.57005 7.24183C8.90426 7.40104 9.19878 7.63273 9.43219 7.92007C9.6656 8.2074 9.83203 8.54314 9.91938 8.90288C10.0067 9.26262 10.0128 9.6373 9.93717 9.99968H5.06317C4.98753 9.6373 4.9936 9.26262 5.08096 8.90288C5.16831 8.54314 5.33474 8.2074 5.56815 7.92007C5.80156 7.63273 6.09608 7.40104 6.43029 7.24183C6.76449 7.08261 7.12998 6.99989 7.50017 6.99968ZM20.9472 14.6257C20.4277 16.4175 19.4706 18.0519 18.1622 19.3817C17.0799 20.43 15.6289 21.0111 14.1222 20.9997H9.87817C8.37121 21.0112 6.92015 20.4297 5.83817 19.3807C4.52977 18.0518 3.57297 16.418 3.05417 14.6267C2.99648 14.436 2.98452 14.2344 3.01927 14.0383C3.05402 13.8421 3.13449 13.6569 3.25417 13.4977C3.36905 13.3408 3.51971 13.2136 3.69363 13.1266C3.86756 13.0396 4.05973 12.9954 4.25417 12.9977H19.7542C19.9486 12.9954 20.1408 13.0396 20.3147 13.1266C20.4886 13.2136 20.6393 13.3408 20.7542 13.4977C20.8724 13.6575 20.9514 13.8428 20.9849 14.0387C21.0184 14.2346 21.0055 14.4357 20.9472 14.6257Z" fill="black"/>
</g>
<defs>
<clipPath id="clip0_606_6579">
<rect width="24" height="24" fill="white"/>
</clipPath>
</defs>
</svg>
