<svg width="24" height="24" viewBox="0 0 24 24" fill="none" xmlns="http://www.w3.org/2000/svg">
<g clip-path="url(#clip0_606_6548)">
<path d="M8 21H3.409C3.30061 20.9997 3.19673 20.9566 3.12009 20.8799C3.04344 20.8033 3.00026 20.6994 3 20.591V3.409C3.00026 3.30061 3.04344 3.19673 3.12009 3.12009C3.19673 3.04344 3.30061 3.00026 3.409 3H8C8.39782 3 8.77936 2.84196 9.06066 2.56066C9.34196 2.27936 9.5 1.89782 9.5 1.5C9.5 1.10218 9.34196 0.720644 9.06066 0.43934C8.77936 0.158035 8.39782 0 8 0L3.409 0C2.5052 0.00105862 1.63872 0.36056 0.999642 0.999642C0.36056 1.63872 0.00105862 2.5052 0 3.409L0 20.591C0.00105862 21.4948 0.36056 22.3613 0.999642 23.0004C1.63872 23.6394 2.5052 23.9989 3.409 24H8C8.39782 24 8.77936 23.842 9.06066 23.5607C9.34196 23.2794 9.5 22.8978 9.5 22.5C9.5 22.1022 9.34196 21.7206 9.06066 21.4393C8.77936 21.158 8.39782 21 8 21Z" fill="black"/>
<path d="M22.6821 8.81739L18.8001 4.93839C18.6608 4.79913 18.4954 4.68867 18.3134 4.61332C18.1313 4.53798 17.9363 4.49922 17.7393 4.49927C17.5423 4.49931 17.3472 4.53816 17.1652 4.61359C16.9832 4.68902 16.8179 4.79956 16.6786 4.93889C16.5394 5.07823 16.4289 5.24363 16.3535 5.42565C16.2782 5.60767 16.2394 5.80275 16.2395 5.99975C16.2396 6.39761 16.3977 6.77913 16.6791 7.06039L20.0911 10.4714L6.50012 10.4994C6.1023 10.4994 5.72077 10.6574 5.43946 10.9387C5.15816 11.22 5.00012 11.6016 5.00012 11.9994C5.00012 12.3972 5.15816 12.7788 5.43946 13.0601C5.72077 13.3414 6.1023 13.4994 6.50012 13.4994L20.1461 13.4744L16.6791 16.9414C16.4143 17.2259 16.2702 17.602 16.2773 17.9906C16.2843 18.3792 16.4419 18.7499 16.7169 19.0246C16.9918 19.2993 17.3627 19.4566 17.7513 19.4632C18.1399 19.4699 18.5159 19.3255 18.8001 19.0604L22.6791 15.1814C23.097 14.7635 23.4285 14.2675 23.6546 13.7215C23.8808 13.1755 23.9972 12.5903 23.9972 11.9994C23.9972 11.4084 23.8808 10.8233 23.6546 10.2773C23.4285 9.73134 23.097 9.23526 22.6791 8.81739H22.6821Z" fill="black"/>
</g>
<defs>
<clipPath id="clip0_606_6548">
<rect width="24" height="24" fill="white"/>
</clipPath>
</defs>
</svg>
