<svg width="24" height="24" viewBox="0 0 24 24" fill="none" xmlns="http://www.w3.org/2000/svg">
<g clip-path="url(#clip0_606_6762)">
<path d="M22.965 6.01884C23.2926 5.69148 23.5525 5.30277 23.7298 4.87492C23.9071 4.44707 23.9984 3.98848 23.9984 3.52534C23.9984 3.06221 23.9071 2.60361 23.7298 2.17576C23.5525 1.74792 23.2926 1.3592 22.965 1.03184C22.2938 0.391314 21.4017 0.0339355 20.474 0.0339355C19.5462 0.0339355 18.6541 0.391314 17.983 1.03184L16.547 2.46984C15.713 3.30484 13.829 3.06984 12.563 2.36984C11.9058 2.01042 11.1406 1.90115 10.409 2.06223C9.67744 2.22331 9.02894 2.64384 8.58343 3.24607C8.13792 3.84829 7.92555 4.59146 7.98558 5.33815C8.04561 6.08484 8.37399 6.78453 8.90999 7.30784L9.98699 8.38484L2.17199 16.4388C1.63047 16.9736 1.25535 17.6538 1.09191 18.3971C0.928482 19.1405 0.983732 19.9152 1.25099 20.6278L0.438992 21.4388C0.157598 21.7202 -0.000488281 22.1019 -0.000488281 22.4998C-0.000488281 22.8978 0.157598 23.2794 0.438992 23.5608C0.720387 23.8422 1.10204 24.0003 1.49999 24.0003C1.89794 24.0003 2.2796 23.8422 2.56099 23.5608L3.26699 22.8538C4.01419 23.2234 4.859 23.3475 5.68091 23.2085C6.50282 23.0695 7.25984 22.6745 7.84399 22.0798L15.644 14.0418L16.692 15.0898C17.216 15.6226 17.9147 15.9481 18.6596 16.0066C19.4046 16.065 20.1455 15.8525 20.7462 15.408C21.3468 14.9635 21.7667 14.317 21.9286 13.5875C22.0904 12.858 21.9833 12.0946 21.627 11.4378C20.927 10.1708 20.695 8.28784 21.527 7.45284L22.965 6.01884ZM5.70699 19.9748C5.61303 20.0668 5.50188 20.1393 5.3799 20.1883C5.25791 20.2372 5.12747 20.2617 4.99603 20.2603C4.86459 20.2588 4.73472 20.2315 4.61383 20.1799C4.49295 20.1282 4.38342 20.0533 4.29149 19.9593C4.19957 19.8654 4.12705 19.7542 4.07808 19.6322C4.02911 19.5103 4.00464 19.3798 4.00608 19.2484C4.00752 19.1169 4.03484 18.9871 4.08647 18.8662C4.1381 18.7453 4.21303 18.6358 4.30699 18.5438L12.107 10.5058L13.52 11.9198L5.70699 19.9748ZM20.846 3.89984L19.409 5.33184C17.475 7.26484 17.739 10.5938 18.964 12.9688C18.9438 12.9886 18.9167 12.9996 18.8885 12.9996C18.8603 12.9996 18.8332 12.9886 18.813 12.9688L11.031 5.18684C11 5.15084 11 5.07084 11.116 4.99984C13.405 6.25984 16.735 6.52384 18.668 4.59084L20.107 3.15184C20.2066 3.05999 20.3379 3.01028 20.4734 3.01316C20.6088 3.01603 20.7379 3.07127 20.8335 3.16727C20.9291 3.26327 20.9838 3.39257 20.9862 3.52804C20.9885 3.66351 20.9383 3.79462 20.846 3.89384V3.89984Z" fill="black"/>
</g>
<defs>
<clipPath id="clip0_606_6762">
<rect width="24" height="24" fill="white"/>
</clipPath>
</defs>
</svg>
