<svg width="24" height="24" viewBox="0 0 24 24" fill="none" xmlns="http://www.w3.org/2000/svg">
<g clip-path="url(#clip0_606_6831)">
<path d="M23.9759 15.5001C23.9057 16.4131 23.6716 17.306 23.2849 18.1361C23.1162 18.4964 22.8113 18.7749 22.4373 18.9104C22.0632 19.0459 21.6507 19.0273 21.2904 18.8586C20.9301 18.6899 20.6516 18.385 20.5161 18.011C20.3806 17.6369 20.3992 17.2244 20.5679 16.8641C20.802 16.3602 20.9433 15.8182 20.9849 15.2641C21.0854 13.9473 20.6776 12.6421 19.8452 11.6168C19.0128 10.5916 17.8192 9.92424 16.5099 9.75209C16.1836 9.70873 15.8806 9.55923 15.6477 9.32665C15.4147 9.09407 15.2648 8.79133 15.2209 8.46509C15.1314 7.79076 14.9085 7.14101 14.5651 6.5538C14.2217 5.9666 13.7647 5.45371 13.2209 5.04509C12.668 4.6286 12.0376 4.32667 11.3665 4.15701C10.6955 3.98736 9.99726 3.95339 9.31289 4.05709C8.27056 4.21393 7.30338 4.69286 6.54683 5.42682C5.79028 6.16078 5.28225 7.11299 5.09389 8.15009C4.87362 9.27017 5.03413 10.4317 5.54989 11.4501C5.85926 12.0296 5.92647 12.7081 5.73681 13.337C5.54715 13.966 5.11606 14.4942 4.53789 14.8061C3.97278 15.0879 3.52127 15.5548 3.25853 16.1291C2.99579 16.7033 2.93769 17.3502 3.09389 17.9621C3.28644 18.5681 3.67125 19.0949 4.19002 19.4627C4.7088 19.8304 5.33328 20.0191 5.96889 20.0001H8.49989C8.89772 20.0001 9.27925 20.1581 9.56055 20.4394C9.84186 20.7207 9.99989 21.1023 9.99989 21.5001C9.99989 21.8979 9.84186 22.2794 9.56055 22.5608C9.27925 22.8421 8.89772 23.0001 8.49989 23.0001H5.96889C4.66807 23.0255 3.39551 22.6191 2.35012 21.8446C1.30473 21.07 0.545421 19.9709 0.190892 18.7191C-0.111251 17.5395 -0.0320845 16.2946 0.417037 15.1628C0.866159 14.031 1.66216 13.0705 2.69089 12.4191C1.95802 10.7721 1.79399 8.92803 2.22464 7.17752C2.6553 5.42701 3.65616 3.86955 5.06953 2.75055C6.48289 1.63154 8.2284 1.01462 10.031 0.996971C11.8336 0.979327 13.5909 1.56197 15.0259 2.65309C16.4566 3.73859 17.4921 5.26306 17.9739 6.99309C19.8085 7.49008 21.4121 8.61193 22.5079 10.165C23.6036 11.7181 24.1228 13.605 23.9759 15.5001ZM18.5629 19.0001H16.9999V14.5001C16.9999 14.1023 16.8419 13.7207 16.5606 13.4394C16.2792 13.1581 15.8977 13.0001 15.4999 13.0001C15.1021 13.0001 14.7205 13.1581 14.4392 13.4394C14.1579 13.7207 13.9999 14.1023 13.9999 14.5001V19.0001H12.4369C12.2453 18.9999 12.0579 19.0565 11.8986 19.1629C11.7392 19.2693 11.6149 19.4205 11.5416 19.5975C11.4682 19.7745 11.4491 19.9693 11.4865 20.1572C11.5239 20.3451 11.6163 20.5177 11.7519 20.6531L14.8149 23.7161C14.9047 23.8063 15.0115 23.8778 15.129 23.9266C15.2466 23.9754 15.3726 24.0006 15.4999 24.0006C15.6272 24.0006 15.7532 23.9754 15.8707 23.9266C15.9883 23.8778 16.0951 23.8063 16.1849 23.7161L19.2479 20.6531C19.3835 20.5177 19.4758 20.3451 19.5133 20.1572C19.5507 19.9693 19.5315 19.7745 19.4582 19.5975C19.3848 19.4205 19.2606 19.2693 19.1012 19.1629C18.9419 19.0565 18.7545 18.9999 18.5629 19.0001Z" fill="black"/>
</g>
<defs>
<clipPath id="clip0_606_6831">
<rect width="24" height="24" fill="white"/>
</clipPath>
</defs>
</svg>
