<svg width="24" height="24" viewBox="0 0 24 24" fill="none" xmlns="http://www.w3.org/2000/svg">
<g clip-path="url(#clip0_606_6587)">
<path d="M11.16 11.6936L10.443 10.9476C10.1673 10.6611 9.78918 10.4957 9.39165 10.4878C8.99413 10.48 8.60974 10.6302 8.32296 10.9056C8.18093 11.0421 8.06718 11.2053 7.9882 11.3858C7.90922 11.5662 7.86656 11.7605 7.86266 11.9574C7.85876 12.1544 7.89369 12.3502 7.96547 12.5336C8.03724 12.7171 8.14444 12.8846 8.28096 13.0266L9.43996 14.2326C9.65576 14.4611 9.91497 14.6442 10.2024 14.7713C10.4898 14.8984 10.7997 14.9668 11.114 14.9726H11.151C11.7739 14.9708 12.371 14.7237 12.813 14.2846L16.774 10.3226C17.0552 10.0414 17.2131 9.65989 17.2131 9.26214C17.2131 8.8644 17.0552 8.48293 16.774 8.20164C16.6347 8.06225 16.4693 7.95168 16.2872 7.87624C16.1052 7.80079 15.91 7.76196 15.713 7.76196C15.5159 7.76196 15.3208 7.80079 15.1387 7.87624C14.9567 7.95168 14.7913 8.06225 14.652 8.20164L11.16 11.6936Z" fill="black"/>
<path d="M12.0001 23.999C11.7903 23.9991 11.5828 23.9551 11.3911 23.87C11.0001 23.699 1.90906 19.568 1.90906 11.999V7.24601C1.90781 6.09129 2.27056 4.96556 2.94575 4.02881C3.62093 3.09206 4.5742 2.39196 5.67006 2.02801L11.5251 0.0760076C11.8335 -0.0259869 12.1666 -0.0259869 12.4751 0.0760076L18.3301 2.02801C19.4258 2.39209 20.379 3.09223 21.0542 4.02895C21.7293 4.96567 22.0922 6.09133 22.0911 7.24601V11.999C22.0911 20.617 12.8671 23.791 12.4751 23.922C12.3219 23.9732 12.1615 23.9993 12.0001 23.999ZM12.0001 3.08001L6.61906 4.87401C6.12113 5.03985 5.68801 5.3582 5.3811 5.78393C5.07419 6.20966 4.90904 6.72118 4.90906 7.24601V11.999C4.90906 16.734 10.3301 19.951 12.0771 20.864C13.8341 20.131 19.0911 17.481 19.0911 11.999V7.24601C19.0911 6.72118 18.9259 6.20966 18.619 5.78393C18.3121 5.3582 17.879 5.03985 17.3811 4.87401L12.0001 3.08001Z" fill="black"/>
</g>
<defs>
<clipPath id="clip0_606_6587">
<rect width="24" height="24" fill="white"/>
</clipPath>
</defs>
</svg>
