<svg width="24" height="24" viewBox="0 0 24 24" fill="none" xmlns="http://www.w3.org/2000/svg">
<path d="M13.1 19.4999C12.8033 19.5 12.5131 19.4121 12.2663 19.2473C12.0195 19.0825 11.8272 18.8482 11.7136 18.574C11.6 18.2998 11.5703 17.9981 11.6282 17.7071C11.6862 17.416 11.8291 17.1487 12.039 16.9389L16.625 12.3539C16.6716 12.3074 16.7086 12.2523 16.7338 12.1915C16.759 12.1308 16.7719 12.0656 16.7719 11.9999C16.7719 11.9341 16.759 11.869 16.7338 11.8082C16.7086 11.7475 16.6716 11.6923 16.625 11.6459L12.043 7.06088C11.7617 6.77962 11.6035 6.39809 11.6034 6.00024C11.6033 5.60238 11.7613 5.22078 12.0425 4.93938C12.3238 4.65799 12.7053 4.49985 13.1032 4.49976C13.5011 4.49966 13.8827 4.65762 14.164 4.93888L18.75 9.52488C19.4053 10.1819 19.7732 11.072 19.7732 11.9999C19.7732 12.9278 19.4053 13.8178 18.75 14.4749L14.164 19.0609C14.0243 19.2005 13.8584 19.3112 13.6758 19.3865C13.4932 19.4618 13.2976 19.5004 13.1 19.4999Z" fill="black"/>
<path d="M6.09992 19.4999C5.80315 19.5 5.51301 19.4121 5.26621 19.2473C5.01941 19.0825 4.82705 18.8482 4.71346 18.574C4.59987 18.2998 4.57017 17.9981 4.6281 17.7071C4.68604 17.416 4.82901 17.1487 5.03892 16.9389L9.98192 11.9999L5.04292 7.06088C4.76153 6.77962 4.60339 6.39809 4.6033 6.00024C4.6032 5.60238 4.76116 5.22078 5.04242 4.93938C5.32369 4.65799 5.70521 4.49985 6.10307 4.49976C6.50093 4.49966 6.88253 4.65762 7.16392 4.93888L13.1639 10.9389C13.3033 11.0782 13.4139 11.2436 13.4893 11.4256C13.5648 11.6077 13.6036 11.8028 13.6036 11.9999C13.6036 12.1969 13.5648 12.3921 13.4893 12.5741C13.4139 12.7562 13.3033 12.9216 13.1639 13.0609L7.16392 19.0609C7.02421 19.2005 6.8583 19.3112 6.67571 19.3865C6.49312 19.4618 6.29744 19.5004 6.09992 19.4999Z" fill="black"/>
</svg>
