<svg width="24" height="24" viewBox="0 0 24 24" fill="none" xmlns="http://www.w3.org/2000/svg">
<g clip-path="url(#clip0_606_6778)">
<path d="M21.4899 2.50929C19.8823 0.904793 17.7037 0.00366211 15.4324 0.00366211C13.1611 0.00366211 10.9826 0.904793 9.37491 2.50929C7.13691 4.74829 6.31191 9.54229 6.01491 13.1683C5.95787 13.9478 6.10685 14.7286 6.44691 15.4323L3.34691 18.5323C3.10755 18.3108 2.81767 18.1512 2.50253 18.0675C2.18738 17.9837 1.85653 17.9782 1.53879 18.0516C1.22105 18.1249 0.926065 18.2748 0.679533 18.4883C0.433002 18.7017 0.242401 18.9722 0.124336 19.2762C0.00627117 19.5802 -0.0356766 19.9084 0.00214721 20.2323C0.039971 20.5562 0.156419 20.8659 0.341346 21.1345C0.526274 21.4031 0.774071 21.6224 1.06315 21.7733C1.35223 21.9242 1.67382 22.0021 1.99991 22.0003C1.99841 22.3262 2.0766 22.6476 2.22767 22.9364C2.37873 23.2252 2.5981 23.4728 2.86668 23.6575C3.13525 23.8421 3.44489 23.9584 3.76865 23.9961C4.09241 24.0338 4.42048 23.9917 4.72429 23.8737C5.02811 23.7556 5.29846 23.5651 5.51183 23.3187C5.72519 23.0723 5.87511 22.7775 5.94851 22.4599C6.02192 22.1423 6.0166 21.8116 5.93301 21.4966C5.84942 21.1815 5.6901 20.8917 5.46891 20.6523L8.56091 17.5603C9.26653 17.9007 10.05 18.0473 10.8309 17.9853C14.4589 17.6853 19.2529 16.8633 21.4899 14.6253C23.0872 13.0136 23.9833 10.8364 23.9833 8.56729C23.9833 6.29821 23.0872 4.12095 21.4899 2.50929ZM19.3689 12.5003C18.1609 13.7073 14.8779 14.6393 10.5849 14.9913C10.3726 15.0101 10.1588 14.9822 9.95844 14.9094C9.75812 14.8365 9.57621 14.7207 9.42555 14.5699C9.27488 14.4192 9.15913 14.2372 9.08645 14.0368C9.01377 13.8364 8.98594 13.6226 9.00491 13.4103C9.35691 9.12229 10.2889 5.83829 11.4999 4.63029C12.5536 3.6371 13.9529 3.09357 15.4008 3.11502C16.8486 3.13648 18.2311 3.72123 19.255 4.7452C20.2788 5.76917 20.8634 7.15177 20.8847 8.59964C20.9059 10.0475 20.3622 11.4467 19.3689 12.5003Z" fill="black"/>
</g>
<defs>
<clipPath id="clip0_606_6778">
<rect width="24" height="24" fill="white"/>
</clipPath>
</defs>
</svg>
