<svg width="24" height="24" viewBox="0 0 24 24" fill="none" xmlns="http://www.w3.org/2000/svg">
<g clip-path="url(#clip0_606_6640)">
<path d="M16.3 15.0068C16.5813 15.288 16.9628 15.446 17.3605 15.446C17.7582 15.446 18.1397 15.288 18.421 15.0068L23.147 10.2818C23.6959 9.73177 24.0042 8.98641 24.0042 8.20932C24.0042 7.43223 23.6959 6.68688 23.147 6.13682L18.416 1.41182C18.2795 1.26087 18.1138 1.13926 17.9288 1.05439C17.7439 0.969529 17.5436 0.923184 17.3402 0.918178C17.1367 0.913173 16.9344 0.949613 16.7455 1.02528C16.5566 1.10095 16.3851 1.21426 16.2414 1.35832C16.0976 1.50238 15.9847 1.67417 15.9095 1.86325C15.8343 2.05233 15.7983 2.25474 15.8038 2.45816C15.8093 2.66158 15.8561 2.86175 15.9414 3.0465C16.0267 3.23125 16.1487 3.39672 16.3 3.53282L19.532 6.69982H5.319C3.90888 6.70167 2.55705 7.26266 1.55994 8.25977C0.56284 9.25687 0.00185211 10.6087 0 12.0188L0 18.6998C0.00158806 20.1098 0.562386 21.4615 1.55936 22.4585C2.55633 23.4554 3.90807 24.0162 5.318 24.0178H18.682C19.0798 24.0178 19.4614 23.8598 19.7427 23.5785C20.024 23.2972 20.182 22.9156 20.182 22.5178C20.182 22.12 20.024 21.7385 19.7427 21.4572C19.4614 21.1759 19.0798 21.0178 18.682 21.0178H5.318C4.70347 21.017 4.11434 20.7726 3.6798 20.338C3.24527 19.9035 3.00079 19.3144 3 18.6998V12.0188C3.00053 11.4039 3.24502 10.8144 3.6798 10.3796C4.11459 9.94485 4.70413 9.70035 5.319 9.69982H19.478L16.3 12.8858C16.0188 13.1671 15.8608 13.5486 15.8608 13.9463C15.8608 14.3441 16.0188 14.7255 16.3 15.0068Z" fill="black"/>
</g>
<defs>
<clipPath id="clip0_606_6640">
<rect width="24" height="24" fill="white"/>
</clipPath>
</defs>
</svg>
