<svg width="24" height="24" viewBox="0 0 24 24" fill="none" xmlns="http://www.w3.org/2000/svg">
<path d="M12.0001 4.5C10.5167 4.5 9.06666 4.93987 7.83329 5.76398C6.59992 6.58809 5.63863 7.75943 5.07097 9.12987C4.50331 10.5003 4.35479 12.0083 4.64417 13.4632C4.93356 14.918 5.64787 16.2544 6.69676 17.3033C7.74566 18.3522 9.08203 19.0665 10.5369 19.3559C11.9917 19.6453 13.4997 19.4968 14.8702 18.9291C16.2406 18.3614 17.412 17.4001 18.2361 16.1668C19.0602 14.9334 19.5001 13.4834 19.5001 12C19.4979 10.0115 18.7071 8.1051 17.301 6.69904C15.895 5.29297 13.9885 4.50212 12.0001 4.5ZM12.0001 16.5C11.11 16.5 10.24 16.2361 9.5 15.7416C8.75998 15.2471 8.1832 14.5443 7.84261 13.7221C7.50201 12.8998 7.4129 11.995 7.58653 11.1221C7.76016 10.2492 8.18875 9.44736 8.81808 8.81802C9.44742 8.18868 10.2492 7.7601 11.1222 7.58647C11.9951 7.41283 12.8999 7.50195 13.7221 7.84254C14.5444 8.18314 15.2472 8.75991 15.7417 9.49993C16.2361 10.24 16.5001 11.11 16.5001 12C16.4987 13.1931 16.0242 14.3369 15.1806 15.1805C14.337 16.0241 13.1931 16.4987 12.0001 16.5Z" fill="black"/>
</svg>
