<svg width="24" height="24" viewBox="0 0 24 24" fill="none" xmlns="http://www.w3.org/2000/svg">
<g clip-path="url(#clip0_606_6576)">
<path d="M20.7001 14.0251C20.0336 13.39 19.1482 13.0357 18.2276 13.0357C17.3069 13.0357 16.4216 13.39 15.7551 14.0251L15.3441 14.4251C12.7885 13.2597 10.7426 11.2067 9.58609 8.64713L9.97409 8.25313C10.6187 7.60093 10.9834 6.72299 10.9907 5.80605C10.9979 4.8891 10.6472 4.00548 10.0131 3.34313L7.86109 1.02513C7.20191 0.395259 6.32741 0.0403716 5.41571 0.032754C4.50401 0.0251364 3.6237 0.365361 2.95409 0.984127L1.93709 1.86813C1.91109 1.89113 1.88609 1.91413 1.86209 1.93813C-6.03791 10.2081 13.7851 30.0381 22.0621 22.1381C22.0851 22.1131 22.1081 22.0891 22.1311 22.0631L23.0161 21.0471C23.6566 20.3781 24.0073 19.4834 23.992 18.5573C23.9766 17.6312 23.5965 16.7485 22.9341 16.1011L20.7001 14.0251ZM20.8561 18.9671C20.8321 18.9911 20.8081 19.0171 20.7851 19.0421L19.9081 20.0501C14.6541 24.7731 -0.90991 10.1271 3.94909 4.10013L4.95709 3.22313C4.98309 3.19913 5.00909 3.17613 5.03309 3.15113C5.11837 3.06059 5.235 3.00603 5.35915 2.99859C5.48331 2.99116 5.60562 3.03141 5.70109 3.11113L7.85309 5.42413C7.90241 5.4702 7.94157 5.52606 7.96806 5.58814C7.99455 5.65021 8.0078 5.71713 8.00695 5.78462C8.00611 5.8521 7.99118 5.91867 7.96314 5.98006C7.9351 6.04145 7.89455 6.0963 7.84409 6.14113L6.73609 7.26713C6.53173 7.47514 6.39244 7.73822 6.33525 8.02416C6.27806 8.3101 6.30546 8.60651 6.41409 8.87713C7.1591 10.8721 8.32443 12.6836 9.83104 14.1887C11.3377 15.6937 13.1503 16.8572 15.1461 17.6001C15.4145 17.7025 15.7066 17.7256 15.9878 17.6667C16.2689 17.6079 16.5273 17.4695 16.7321 17.2681L17.8591 16.1591L17.8691 16.1501C18.1471 15.9371 18.3191 15.9401 18.6161 16.1901L20.8531 18.2641C20.9456 18.3577 20.9975 18.484 20.9975 18.6156C20.9975 18.7472 20.9456 18.8735 20.8531 18.9671H20.8561ZM23.5601 6.43913C23.8415 6.72039 23.9996 7.10192 23.9997 7.49977C23.9998 7.89763 23.8419 8.27923 23.5606 8.56063C23.2793 8.84202 22.8978 9.00016 22.4999 9.00025C22.1021 9.00035 21.7205 8.84239 21.4391 8.56113L19.5001 6.62113L17.5601 8.56113C17.2787 8.84239 16.8971 9.00035 16.4992 9.00025C16.1014 9.00016 15.7199 8.84202 15.4386 8.56063C15.1573 8.27923 14.9994 7.89763 14.9995 7.49977C14.9996 7.10192 15.1577 6.72039 15.4391 6.43913L17.3781 4.50013L15.4391 2.56113C15.1577 2.27987 14.9996 1.89834 14.9995 1.50048C14.9994 1.10262 15.1573 0.721022 15.4386 0.439627C15.7199 0.158232 16.1014 9.38474e-05 16.4992 7.33302e-08C16.8971 -9.37008e-05 17.2787 0.157865 17.5601 0.439127L19.5001 2.37913L21.4391 0.439127C21.7205 0.157865 22.1021 -9.37265e-05 22.4999 4.17235e-08C22.8978 9.38099e-05 23.2793 0.158232 23.5606 0.439627C23.8419 0.721022 23.9998 1.10262 23.9997 1.50048C23.9996 1.89834 23.8415 2.27987 23.5601 2.56113L21.6211 4.50013L23.5601 6.43913Z" fill="black"/>
</g>
<defs>
<clipPath id="clip0_606_6576">
<rect width="24" height="24" fill="white"/>
</clipPath>
</defs>
</svg>
