<svg width="24" height="24" viewBox="0 0 24 24" fill="none" xmlns="http://www.w3.org/2000/svg">
<g clip-path="url(#clip0_606_6969)">
<path d="M14.5 6.99998H17V9.49997C17 10.3284 17.6716 11 18.5 11C19.3284 11 20 10.3284 20 9.49997V6.99998H22.5C23.3285 6.99998 24 6.32841 24 5.49998C24 4.67156 23.3285 3.99998 22.5 3.99998H20V1.5C20 0.671578 19.3285 0 18.5 0C17.6716 0 17 0.671578 17 1.5V3.99998H14.5001C13.6716 3.99998 13.0001 4.67156 13.0001 5.49998C13.0001 6.32841 13.6716 6.99998 14.5 6.99998Z" fill="black"/>
<path d="M5.49998 0C2.46244 0 0 2.46244 0 5.49998C0 8.53753 2.46244 11 5.49998 11C8.53753 11 11 8.53753 11 5.49998C10.9967 2.4638 8.53622 0.00332812 5.49998 0ZM5.49998 8.00002C4.11928 8.00002 3 6.88073 3 5.49998C3 4.11923 4.11928 3 5.49998 3C6.88069 3 7.99997 4.11928 7.99997 5.49998C7.99997 6.88069 6.88073 8.00002 5.49998 8.00002Z" fill="black"/>
<path d="M5.49998 13C2.46244 13 0 15.4624 0 18.5C0 21.5376 2.46244 24 5.49998 24C8.53753 24 11 21.5376 11 18.5C10.9967 15.4638 8.53622 13.0033 5.49998 13ZM5.49998 21C4.11928 21 3 19.8807 3 18.5C3 17.1193 4.11928 16 5.49998 16C6.88069 16 7.99997 17.1193 7.99997 18.5C7.99997 19.8807 6.88073 21 5.49998 21Z" fill="black"/>
<path d="M18.5 13C15.4625 13 13.0001 15.4624 13.0001 18.5C13.0001 21.5375 15.4625 24 18.5 24C21.5376 24 24 21.5376 24 18.5C23.9967 15.4638 21.5362 13.0033 18.5 13ZM18.5 21C17.1193 21 16.0001 19.8807 16.0001 18.5C16.0001 17.1193 17.1193 16 18.5 16C19.8807 16 21 17.1193 21 18.5C21 19.8808 19.8807 21 18.5 21Z" fill="black"/>
</g>
<defs>
<clipPath id="clip0_606_6969">
<rect width="24" height="24" fill="white"/>
</clipPath>
</defs>
</svg>
