<svg width="24" height="24" viewBox="0 0 24 24" fill="none" xmlns="http://www.w3.org/2000/svg">
<g clip-path="url(#clip0_606_6593)">
<path d="M10.7 2.62547C10.4188 2.02761 9.9733 1.52212 9.41551 1.16806C8.85771 0.813993 8.21068 0.625977 7.55 0.625977C6.88932 0.625977 6.24229 0.813993 5.68449 1.16806C5.1267 1.52212 4.68118 2.02761 4.4 2.62547H1.5C1.10218 2.62547 0.720644 2.78351 0.43934 3.06481C0.158035 3.34611 0 3.72765 0 4.12547H0C0 4.5233 0.158035 4.90483 0.43934 5.18613C0.720644 5.46744 1.10218 5.62547 1.5 5.62547H4.395C4.67618 6.22333 5.1217 6.72882 5.67949 7.08288C6.23729 7.43695 6.88432 7.62496 7.545 7.62496C8.20568 7.62496 8.85271 7.43695 9.41051 7.08288C9.9683 6.72882 10.4138 6.22333 10.695 5.62547H22.5C22.8978 5.62547 23.2794 5.46744 23.5607 5.18613C23.842 4.90483 24 4.5233 24 4.12547C24 3.72765 23.842 3.34611 23.5607 3.06481C23.2794 2.78351 22.8978 2.62547 22.5 2.62547H10.7Z" fill="black"/>
<path d="M16.455 8.49927C15.7944 8.50044 15.1477 8.68899 14.5899 9.043C14.0321 9.39702 13.5863 9.90198 13.304 10.4993H1.5C1.10218 10.4993 0.720644 10.6573 0.43934 10.9386C0.158035 11.2199 0 11.6014 0 11.9993H0C0 12.3971 0.158035 12.7786 0.43934 13.0599C0.720644 13.3412 1.10218 13.4993 1.5 13.4993H13.3C13.5812 14.0971 14.0267 14.6026 14.5845 14.9567C15.1423 15.3107 15.7893 15.4988 16.45 15.4988C17.1107 15.4988 17.7577 15.3107 18.3155 14.9567C18.8733 14.6026 19.3188 14.0971 19.6 13.4993H22.5C22.8978 13.4993 23.2794 13.3412 23.5607 13.0599C23.842 12.7786 24 12.3971 24 11.9993C24 11.6014 23.842 11.2199 23.5607 10.9386C23.2794 10.6573 22.8978 10.4993 22.5 10.4993H19.605C19.3228 9.90214 18.8771 9.39727 18.3195 9.04327C17.762 8.68926 17.1154 8.50063 16.455 8.49927Z" fill="black"/>
<path d="M7.545 16.3745C6.88455 16.3759 6.23804 16.5645 5.68048 16.9185C5.12292 17.2725 4.67718 17.7774 4.395 18.3745H1.5C1.10218 18.3745 0.720644 18.5325 0.43934 18.8138C0.158035 19.0952 0 19.4767 0 19.8745H0C0 20.2723 0.158035 20.6539 0.43934 20.9352C0.720644 21.2165 1.10218 21.3745 1.5 21.3745H4.395C4.67618 21.9724 5.1217 22.4778 5.67949 22.8319C6.23729 23.186 6.88432 23.374 7.545 23.374C8.20568 23.374 8.85271 23.186 9.41051 22.8319C9.9683 22.4778 10.4138 21.9724 10.695 21.3745H22.5C22.8978 21.3745 23.2794 21.2165 23.5607 20.9352C23.842 20.6539 24 20.2723 24 19.8745C24 19.4767 23.842 19.0952 23.5607 18.8138C23.2794 18.5325 22.8978 18.3745 22.5 18.3745H10.7C10.4175 17.7766 9.97094 17.2712 9.41241 16.9172C8.85388 16.5631 8.2063 16.3749 7.545 16.3745Z" fill="black"/>
</g>
<defs>
<clipPath id="clip0_606_6593">
<rect width="24" height="24" fill="white"/>
</clipPath>
</defs>
</svg>
