<svg width="24" height="24" viewBox="0 0 24 24" fill="none" xmlns="http://www.w3.org/2000/svg">
<g clip-path="url(#clip0_606_6868)">
<path d="M17.9372 2.27014C16.9989 1.42409 15.89 0.789043 14.6854 0.407813C13.4808 0.0265825 12.2085 -0.0919709 10.9542 0.0601445C9.23761 0.288715 7.62074 0.998559 6.29064 2.10758C4.96054 3.2166 3.97156 4.67949 3.43806 6.32705C2.90456 7.97461 2.84835 9.73954 3.27593 11.4177C3.70351 13.0959 4.59741 14.6187 5.85424 15.8101C6.80924 16.7111 7.00024 18.0001 7.00024 19.7791V19.9321C6.99518 21.0045 7.4157 22.035 8.16953 22.7976C8.92336 23.5603 9.94894 23.9927 11.0212 24.0001H12.9792C14.0515 23.9927 15.0771 23.5603 15.8309 22.7976C16.5848 22.035 17.0053 21.0045 17.0002 19.9321V19.4091C17.0002 17.7391 17.1502 16.7001 17.9422 15.9941C18.9054 15.1292 19.6756 14.0712 20.2029 12.8889C20.7302 11.7067 21.0027 10.4267 21.0027 9.13214C21.0027 7.83763 20.7302 6.55762 20.2029 5.37537C19.6756 4.19311 18.9054 3.1351 17.9422 2.27014H17.9372ZM14.0002 19.9321C14.0061 20.2091 13.902 20.477 13.7106 20.6772C13.5192 20.8775 13.2562 20.9936 12.9792 21.0001H11.0212C10.7443 20.9936 10.4813 20.8775 10.2899 20.6772C10.0985 20.477 9.99434 20.2091 10.0002 19.9321V19.7791C10.0002 19.5201 10.0002 19.2601 9.98624 19.0001H14.0062C14.0062 19.1371 14.0002 19.2741 14.0002 19.4091V19.9321ZM15.9452 13.7551C15.2639 14.3626 14.7513 15.136 14.4572 16.0001H13.5002V11.0831C13.9546 10.8217 14.3322 10.4454 14.5955 9.99214C14.8587 9.53883 14.9983 9.02434 15.0002 8.50014C15.0002 8.10232 14.8422 7.72079 14.5609 7.43949C14.2796 7.15818 13.8981 7.00015 13.5002 7.00015C13.1024 7.00015 12.7209 7.15818 12.4396 7.43949C12.1583 7.72079 12.0002 8.10232 12.0002 8.50014C12.0002 8.10232 11.8422 7.72079 11.5609 7.43949C11.2796 7.15818 10.8981 7.00015 10.5002 7.00015C10.1024 7.00015 9.72088 7.15818 9.43958 7.43949C9.15828 7.72079 9.00024 8.10232 9.00024 8.50014C9.00217 9.02434 9.14175 9.53883 9.40499 9.99214C9.66824 10.4454 10.0459 10.8217 10.5002 11.0831V16.0001H9.46224C9.14257 15.1005 8.61491 14.2892 7.92224 13.6321C7.21171 12.9582 6.67153 12.1249 6.34623 11.2012C6.02093 10.2775 5.91982 9.28963 6.05124 8.31915C6.21886 6.98259 6.82507 5.73939 7.77493 4.78429C8.72479 3.82918 9.96463 3.21612 11.3002 3.04114C11.5326 3.01382 11.7663 3.00013 12.0002 3.00014C13.4554 2.99661 14.8598 3.53449 15.9402 4.50914C16.5883 5.09223 17.1065 5.80498 17.4614 6.60119C17.8164 7.3974 18 8.2593 18.0005 9.13103C18.0009 10.0028 17.8182 10.8649 17.4642 11.6615C17.1101 12.4581 16.5926 13.1714 15.9452 13.7551Z" fill="black"/>
</g>
<defs>
<clipPath id="clip0_606_6868">
<rect width="24" height="24" fill="white"/>
</clipPath>
</defs>
</svg>
