<svg width="24" height="24" viewBox="0 0 24 24" fill="none" xmlns="http://www.w3.org/2000/svg">
<g clip-path="url(#clip0_606_6502)">
<path d="M12.0001 0C9.06478 0.0086291 6.23386 1.08979 4.04007 3.04L2.70707 1.707C2.56722 1.56719 2.38906 1.47198 2.19511 1.43342C2.00115 1.39485 1.80012 1.41465 1.61742 1.49032C1.43472 1.56599 1.27856 1.69413 1.16867 1.85854C1.05879 2.02295 1.00012 2.21625 1.00007 2.414V7C1.00007 7.26522 1.10543 7.51957 1.29297 7.70711C1.4805 7.89464 1.73486 8 2.00007 8H6.58607C6.78382 7.99996 6.97712 7.94129 7.14153 7.8314C7.30594 7.72152 7.43408 7.56535 7.50975 7.38265C7.58542 7.19995 7.60523 6.99892 7.56666 6.80497C7.52809 6.61102 7.43288 6.43285 7.29308 6.293L6.15807 5.158C7.48257 4.02654 9.10697 3.30377 10.8342 3.07739C12.5614 2.851 14.3172 3.13073 15.8885 3.88263C17.4599 4.63453 18.7793 5.82629 19.6866 7.31332C20.5939 8.80035 21.0502 10.5187 21.0001 12.26C20.9357 14.5099 20.0307 16.654 18.4635 18.2695C16.8963 19.885 14.7807 20.8546 12.5338 20.9872C10.2869 21.1197 8.07191 20.4056 6.32562 18.9855C4.57933 17.5655 3.42849 15.5427 3.10007 13.316C3.05318 12.9539 2.8767 12.6211 2.60332 12.3792C2.32993 12.1372 1.97814 12.0025 1.61307 12C1.40124 11.9973 1.19126 12.0398 0.99716 12.1247C0.803062 12.2096 0.629314 12.3349 0.487524 12.4923C0.345733 12.6497 0.239165 12.8356 0.174937 13.0375C0.110709 13.2393 0.0903005 13.4526 0.115075 13.663C0.531286 16.609 2.02546 19.2958 4.30847 21.2037C6.59148 23.1115 9.50102 24.1047 12.4741 23.991C15.4818 23.8461 18.3277 22.5862 20.457 20.4569C22.5863 18.3277 23.8462 15.4817 23.9911 12.474C24.0531 10.8599 23.7889 9.24991 23.2144 7.74026C22.6399 6.23062 21.7668 4.85233 20.6474 3.68784C19.528 2.52335 18.1853 1.59657 16.6995 0.96292C15.2137 0.32927 13.6153 0.00176829 12.0001 0V0Z" fill="black"/>
<path d="M11.5001 6.99927C11.1023 6.99927 10.7208 7.1573 10.4395 7.43861C10.1582 7.71991 10.0001 8.10144 10.0001 8.49927V12.7923C10.0002 13.3226 10.211 13.8313 10.5861 14.2063L12.3791 15.9993C12.662 16.2725 13.0409 16.4237 13.4342 16.4203C13.8275 16.4168 14.2037 16.2591 14.4818 15.981C14.76 15.7029 14.9177 15.3267 14.9211 14.9334C14.9245 14.5401 14.7734 14.1612 14.5001 13.8783L13.0001 12.3783V8.49927C13.0001 8.10144 12.8421 7.71991 12.5608 7.43861C12.2795 7.1573 11.8979 6.99927 11.5001 6.99927Z" fill="black"/>
</g>
<defs>
<clipPath id="clip0_606_6502">
<rect width="24" height="24" fill="white"/>
</clipPath>
</defs>
</svg>
