<svg width="24" height="24" viewBox="0 0 24 24" fill="none" xmlns="http://www.w3.org/2000/svg">
<g clip-path="url(#clip0_606_6908)">
<path d="M22.4079 0.305063C22.0914 0.064867 21.6925 -0.0399213 21.2988 0.0136991C20.905 0.0673195 20.5487 0.274967 20.3079 0.591063L11.9999 11.5201L3.69392 0.591063C3.4531 0.274394 3.09635 0.0663597 2.70215 0.0127243C2.30795 -0.0409111 1.90859 0.0642462 1.59192 0.305063C1.27525 0.545879 1.06721 0.902629 1.01358 1.29683C0.959943 1.69103 1.0651 2.09039 1.30592 2.40706L9.35592 12.9991H6.49992C6.10209 12.9991 5.72056 13.1571 5.43926 13.4384C5.15795 13.7197 4.99992 14.1012 4.99992 14.4991C4.99992 14.8969 5.15795 15.2784 5.43926 15.5597C5.72056 15.841 6.10209 15.9991 6.49992 15.9991H10.4999V17.9991H6.49992C6.10209 17.9991 5.72056 18.1571 5.43926 18.4384C5.15795 18.7197 4.99992 19.1012 4.99992 19.4991C4.99992 19.8969 5.15795 20.2784 5.43926 20.5597C5.72056 20.841 6.10209 20.9991 6.49992 20.9991H10.4999V22.4991C10.4999 22.8969 10.658 23.2784 10.9393 23.5597C11.2206 23.841 11.6021 23.9991 11.9999 23.9991C12.3977 23.9991 12.7793 23.841 13.0606 23.5597C13.3419 23.2784 13.4999 22.8969 13.4999 22.4991V20.9991H17.4999C17.8977 20.9991 18.2793 20.841 18.5606 20.5597C18.8419 20.2784 18.9999 19.8969 18.9999 19.4991C18.9999 19.1012 18.8419 18.7197 18.5606 18.4384C18.2793 18.1571 17.8977 17.9991 17.4999 17.9991H13.4999V15.9991H17.4999C17.8977 15.9991 18.2793 15.841 18.5606 15.5597C18.8419 15.2784 18.9999 14.8969 18.9999 14.4991C18.9999 14.1012 18.8419 13.7197 18.5606 13.4384C18.2793 13.1571 17.8977 12.9991 17.4999 12.9991H14.6439L22.6939 2.40706C22.8132 2.25027 22.9004 2.07152 22.9505 1.88102C23.0007 1.69053 23.0128 1.49202 22.9863 1.29683C22.9597 1.10164 22.895 0.913591 22.7957 0.743423C22.6965 0.573256 22.5647 0.4243 22.4079 0.305063Z" fill="black"/>
</g>
<defs>
<clipPath id="clip0_606_6908">
<rect width="24" height="24" fill="white"/>
</clipPath>
</defs>
</svg>
