<svg width="24" height="24" viewBox="0 0 24 24" fill="none" xmlns="http://www.w3.org/2000/svg">
<path d="M20.328 12.2C20.0161 11.2223 19.6522 10.262 19.238 9.32302C18.6344 8.11862 18.217 6.82962 18 5.50002C18 5.36741 18.0527 5.24024 18.1464 5.14647C18.2402 5.0527 18.3674 5.00002 18.5 5.00002C18.6326 5.00002 18.7598 5.0527 18.8536 5.14647C18.9473 5.24024 19 5.36741 19 5.50002C19 5.89785 19.158 6.27938 19.4393 6.56068C19.7206 6.84199 20.1022 7.00002 20.5 7.00002C20.8978 7.00002 21.2794 6.84199 21.5607 6.56068C21.842 6.27938 22 5.89785 22 5.50002C21.9997 4.60032 21.6521 3.73545 21.0297 3.08581C20.4072 2.43618 19.558 2.05194 18.6591 2.01324C17.7603 1.97455 16.8812 2.28439 16.2052 2.87813C15.5292 3.47187 15.1086 4.30367 15.031 5.20002C15.0107 5.29874 15.0003 5.39924 15 5.50002C15.0171 6.14835 15.1228 6.79129 15.314 7.41102L11.6 10.3L7.1 7.00002H8.5C8.89783 7.00002 9.27936 6.84199 9.56066 6.56068C9.84197 6.27938 10 5.89785 10 5.50002C10 5.1022 9.84197 4.72067 9.56066 4.43936C9.27936 4.15806 8.89783 4.00002 8.5 4.00002H5.471C4.95019 3.99989 4.44268 4.16445 4.02104 4.47017C3.59941 4.77588 3.28524 5.2071 3.12348 5.70215C2.96172 6.1972 2.96064 6.73073 3.12041 7.22643C3.28018 7.72212 3.5926 8.15461 4.013 8.46202L9.139 12.214L8.046 13.064C7.17815 12.3788 6.10573 12.0042 5 12C4.0111 12 3.0444 12.2933 2.22215 12.8427C1.39991 13.3921 0.759043 14.173 0.380605 15.0866C0.00216642 16.0002 -0.0968503 17.0056 0.0960759 17.9755C0.289002 18.9454 0.765206 19.8363 1.46447 20.5356C2.16373 21.2348 3.05465 21.711 4.02455 21.9039C4.99446 22.0969 5.99979 21.9979 6.91342 21.6194C7.82705 21.241 8.60794 20.6001 9.15735 19.7779C9.70676 18.9556 10 17.9889 10 17C9.99309 16.5018 9.91048 16.0075 9.755 15.534L16.416 10.354C16.416 10.354 17.002 11.754 17.216 12.343C16.1003 12.7645 15.1715 13.57 14.5964 14.6148C14.0213 15.6596 13.8376 16.8752 14.0784 18.0433C14.3191 19.2114 14.9684 20.2553 15.9098 20.9876C16.8511 21.7199 18.0227 22.0925 19.2141 22.0385C20.4055 21.9845 21.5386 21.5074 22.4099 20.693C23.2811 19.8786 23.8334 18.7801 23.9674 17.5951C24.1015 16.41 23.8086 15.216 23.1413 14.2275C22.4741 13.239 21.4762 12.5208 20.327 12.202L20.328 12.2ZM5 19C4.60444 19 4.21776 18.8827 3.88886 18.663C3.55996 18.4432 3.30362 18.1308 3.15224 17.7654C3.00087 17.3999 2.96126 16.9978 3.03843 16.6098C3.1156 16.2219 3.30608 15.8655 3.58579 15.5858C3.86549 15.3061 4.22186 15.1156 4.60982 15.0385C4.99778 14.9613 5.39992 15.0009 5.76537 15.1523C6.13082 15.3036 6.44318 15.56 6.66294 15.8889C6.8827 16.2178 7 16.6045 7 17C7 17.5305 6.78929 18.0392 6.41422 18.4142C6.03914 18.7893 5.53044 19 5 19ZM19 19C18.6044 19 18.2178 18.8827 17.8889 18.663C17.56 18.4432 17.3036 18.1308 17.1522 17.7654C17.0009 17.3999 16.9613 16.9978 17.0384 16.6098C17.1156 16.2219 17.3061 15.8655 17.5858 15.5858C17.8655 15.3061 18.2219 15.1156 18.6098 15.0385C18.9978 14.9613 19.3999 15.0009 19.7654 15.1523C20.1308 15.3036 20.4432 15.56 20.6629 15.8889C20.8827 16.2178 21 16.6045 21 17C21 17.5305 20.7893 18.0392 20.4142 18.4142C20.0391 18.7893 19.5304 19 19 19Z" fill="black"/>
</svg>
