<svg width="24" height="24" viewBox="0 0 24 24" fill="none" xmlns="http://www.w3.org/2000/svg">
<path d="M8.43921 12.4391L9.87921 11.0001L8.43921 9.56115C8.15781 9.27975 7.99972 8.8981 7.99972 8.50015C7.99972 8.1022 8.15781 7.72054 8.43921 7.43915C8.7206 7.15775 9.10225 6.99967 9.50021 6.99967C9.89816 6.99967 10.2798 7.15775 10.5612 7.43915L12.0002 8.87915L13.4392 7.43915C13.7206 7.15775 14.1023 6.99967 14.5002 6.99967C14.8982 6.99967 15.2798 7.15775 15.5612 7.43915C15.8426 7.72054 16.0007 8.1022 16.0007 8.50015C16.0007 8.8981 15.8426 9.27975 15.5612 9.56115L14.1212 11.0001L15.5612 12.4391C15.8426 12.7205 16.0007 13.1022 16.0007 13.5001C16.0007 13.8981 15.8426 14.2798 15.5612 14.5611C15.2798 14.8425 14.8982 15.0006 14.5002 15.0006C14.1023 15.0006 13.7206 14.8425 13.4392 14.5611L12.0002 13.1211L10.5612 14.5611C10.2798 14.8425 9.89816 15.0006 9.50021 15.0006C9.10225 15.0006 8.7206 14.8425 8.43921 14.5611C8.15781 14.2798 7.99972 13.8981 7.99972 13.5001C7.99972 13.1022 8.15781 12.7205 8.43921 12.4391ZM4.26221 18.8941C2.18771 16.8198 1.01877 14.0085 1.0109 11.0748C1.00303 8.14113 2.15687 5.32363 4.22021 3.23815C5.23952 2.21206 6.45172 1.39772 7.78703 0.842026C9.12234 0.286328 10.5544 0.000244141 12.0007 0.000244141C13.447 0.000244141 14.8791 0.286328 16.2144 0.842026C17.5497 1.39772 18.7619 2.21206 19.7812 3.23815C21.8401 5.31507 22.9952 8.12117 22.9952 11.0456C22.9952 13.9701 21.8401 16.7762 19.7812 18.8531L15.9732 22.3901C14.9034 23.427 13.4704 24.0043 11.9806 23.9987C10.4908 23.9931 9.0622 23.405 8.00021 22.3601L4.26221 18.8941ZM6.34621 16.7371L10.0682 20.1911C10.5782 20.6928 11.2633 20.9764 11.9786 20.982C12.694 20.9876 13.3834 20.7148 13.9012 20.2211L17.7002 16.7001C19.1854 15.1835 20.0137 13.143 20.0056 11.0203C19.9976 8.89761 19.1539 6.86345 17.6572 5.35815C16.9167 4.61219 16.0358 4.02015 15.0654 3.61613C14.0951 3.21211 13.0543 3.00411 12.0032 3.00411C10.9521 3.00411 9.91135 3.21211 8.94097 3.61613C7.97059 4.02015 7.08975 4.61219 6.34921 5.35815C4.84906 6.87157 4.00714 8.9161 4.00658 11.047C4.00602 13.178 4.84686 15.2229 6.34621 16.7371Z" fill="black"/>
</svg>
