<svg width="24" height="24" viewBox="0 0 24 24" fill="none" xmlns="http://www.w3.org/2000/svg">
<g clip-path="url(#clip0_606_6986)">
<path d="M10 0.999268H1.5C1.10218 0.999268 0.720644 1.1573 0.43934 1.43861C0.158035 1.71991 0 2.10144 0 2.49927C0 2.89709 0.158035 3.27862 0.43934 3.55993C0.720644 3.84123 1.10218 3.99927 1.5 3.99927H2.98V6.99927H1.5C1.10218 6.99927 0.720644 7.1573 0.43934 7.43861C0.158035 7.71991 0 8.10144 0 8.49927C0 8.89709 0.158035 9.27862 0.43934 9.55993C0.720644 9.84123 1.10218 9.99927 1.5 9.99927H19.551C20.1513 10.9543 20.63 11.9806 20.976 13.0543C21.0464 13.2776 21.0629 13.5144 21.0239 13.7452C20.985 13.9761 20.8918 14.1944 20.752 14.3823C20.6125 14.5739 20.4295 14.7297 20.2182 14.8369C20.0068 14.9442 19.773 14.9998 19.536 14.9993H1.5C1.10218 14.9993 0.720644 15.1573 0.43934 15.4386C0.158035 15.7199 0 16.1014 0 16.4993C0 16.8971 0.158035 17.2786 0.43934 17.5599C0.720644 17.8412 1.10218 17.9993 1.5 17.9993H19.536C20.2422 18 20.9387 17.8345 21.5692 17.5162C22.1996 17.1978 22.7462 16.7356 23.1649 16.1668C23.5835 15.598 23.8624 14.9387 23.979 14.2421C24.0956 13.5456 24.0466 12.8314 23.836 12.1573C22.1 6.61227 16.788 0.999268 10 0.999268ZM12 4.22627C13.9055 4.69124 15.656 5.64731 17.077 6.99927H12V4.22627ZM5.98 3.99927H9V6.99927H5.98V3.99927ZM24 21.4993C24 21.8971 23.842 22.2786 23.5607 22.5599C23.2794 22.8412 22.8978 22.9993 22.5 22.9993H1.5C1.10218 22.9993 0.720644 22.8412 0.43934 22.5599C0.158035 22.2786 0 21.8971 0 21.4993C0 21.1014 0.158035 20.7199 0.43934 20.4386C0.720644 20.1573 1.10218 19.9993 1.5 19.9993H22.5C22.8978 19.9993 23.2794 20.1573 23.5607 20.4386C23.842 20.7199 24 21.1014 24 21.4993Z" fill="black"/>
</g>
<defs>
<clipPath id="clip0_606_6986">
<rect width="24" height="24" fill="white"/>
</clipPath>
</defs>
</svg>
