<svg width="24" height="24" viewBox="0 0 24 24" fill="none" xmlns="http://www.w3.org/2000/svg">
<g clip-path="url(#clip0_606_6827)">
<path d="M2.53991 20.5001C2.32887 20.5001 2.12021 20.4555 1.92756 20.3694C1.73491 20.2832 1.5626 20.1574 1.42191 20.0001C0.834883 19.349 0.413023 18.5664 0.19191 17.7181C-0.109759 16.5385 -0.0303671 15.2937 0.418714 14.1621C0.867795 13.0304 1.66352 12.0699 2.69191 11.4181C2.02368 9.90329 1.8349 8.2203 2.15091 6.59509C2.45469 4.9438 3.26701 3.42875 4.47424 2.26186C5.68148 1.09497 7.22325 0.334592 8.88391 0.0870902C10.8604 -0.207658 12.8765 0.230945 14.5519 1.32019C16.2273 2.40943 17.4462 4.07404 17.9789 6.00009C20.0366 6.56664 21.7949 7.90813 22.8849 9.74309C23.0682 10.0848 23.112 10.4843 23.0072 10.8576C22.9024 11.231 22.657 11.5492 22.3226 11.7456C21.9882 11.9419 21.5908 12.0012 21.2137 11.9108C20.8365 11.8205 20.5091 11.5876 20.2999 11.2611C19.8983 10.5846 19.349 10.0077 18.6931 9.57339C18.0371 9.13909 17.2915 8.85868 16.5119 8.75309C16.1855 8.70967 15.8824 8.56003 15.6494 8.32726C15.4165 8.09448 15.2666 7.79151 15.2229 7.46509C15.1334 6.7909 14.9105 6.1413 14.5671 5.55426C14.2237 4.96722 13.7667 4.45451 13.2229 4.04609C12.6699 3.62942 12.0394 3.32724 11.3682 3.15725C10.6969 2.98726 9.99857 2.95287 9.31391 3.05609C8.27252 3.21437 7.30658 3.69402 6.55106 4.42802C5.79555 5.16202 5.2882 6.1137 5.09991 7.15009C4.87941 8.27005 5.03956 9.43159 5.55491 10.4501C5.86432 11.0299 5.93122 11.7088 5.74096 12.3379C5.5507 12.9669 5.1188 13.4949 4.53991 13.8061C3.97508 14.0883 3.52405 14.5556 3.26201 15.1301C2.99997 15.7046 2.94276 16.3515 3.09991 16.9631C3.19903 17.3487 3.39016 17.7045 3.65691 18.0001C3.84989 18.2159 3.97632 18.4828 4.02095 18.7689C4.06557 19.0549 4.02648 19.3477 3.90839 19.612C3.79031 19.8763 3.59827 20.1008 3.35544 20.2584C3.11262 20.4159 2.82939 20.4999 2.53991 20.5001ZM18.8499 24.0001C19.2225 23.9931 19.5934 23.9482 19.9569 23.8661C21.0903 23.6172 22.1064 22.9928 22.8406 22.0942C23.5748 21.1956 23.9839 20.0753 24.0017 18.9151C24.0196 17.7548 23.645 16.6225 22.9388 15.7017C22.2326 14.781 21.2361 14.1257 20.1109 13.8421C19.9956 13.8198 19.8827 13.7863 19.7739 13.7421C19.2291 12.4842 18.2838 11.4417 17.0851 10.7767C15.8864 10.1117 14.5015 9.86154 13.1459 10.0651C11.732 10.2905 10.4422 11.0053 9.50171 12.0847C8.56117 13.1642 8.02963 14.5397 7.99991 15.9711C7.99378 16.2888 8.01317 16.6065 8.05791 16.9211C7.37706 17.2624 6.81708 17.8041 6.45332 18.4732C6.08955 19.1423 5.93945 19.9068 6.02321 20.6638C6.10697 21.4208 6.42057 22.1339 6.92182 22.7073C7.42307 23.2808 8.08791 23.6869 8.82691 23.8711C9.13656 23.9504 9.45433 23.9937 9.77391 24.0001H18.8499ZM17.0119 14.9141C17.2136 15.3919 17.5339 15.8103 17.9425 16.1297C18.3511 16.4491 18.8345 16.6588 19.3469 16.7391C19.8253 16.8485 20.2519 17.1184 20.5557 17.5039C20.8595 17.8894 21.0221 18.3673 21.0166 18.858C21.0111 19.3488 20.8378 19.8229 20.5255 20.2015C20.2132 20.5801 19.7807 20.8404 19.2999 20.9391C19.1426 20.9753 18.9822 20.9961 18.8209 21.0011H9.81391C9.6456 20.9839 9.48465 20.9232 9.34685 20.825C9.20905 20.7269 9.09915 20.5946 9.02791 20.4411C8.90491 19.9831 9.32791 19.6161 9.62791 19.4911C10.1563 19.2696 10.5903 18.8698 10.8542 18.3612C11.1181 17.8527 11.1951 17.2676 11.0719 16.7081C11.0226 16.4849 11.0001 16.2566 11.0049 16.0281C11.0217 15.3097 11.2866 14.6193 11.7544 14.074C12.2223 13.5286 12.8645 13.1619 13.5719 13.0361C13.7292 13.0129 13.8879 13.0008 14.0469 13.0001C14.6743 12.9933 15.2899 13.1711 15.8171 13.5114C16.3443 13.8517 16.7598 14.3395 17.0119 14.9141Z" fill="black"/>
</g>
<defs>
<clipPath id="clip0_606_6827">
<rect width="24" height="24" fill="white"/>
</clipPath>
</defs>
</svg>
