<svg width="24" height="24" viewBox="0 0 24 24" fill="none" xmlns="http://www.w3.org/2000/svg">
<g clip-path="url(#clip0_606_6840)">
<path d="M19.0001 14.9998C19.0001 15.5302 18.7894 16.039 18.4143 16.414C18.0393 16.7891 17.5306 16.9998 17.0001 16.9998C16.4697 16.9998 15.961 16.7891 15.5859 16.414C15.2108 16.039 15.0001 15.5302 15.0001 14.9998C15.0001 14.4694 15.2108 13.9607 15.5859 13.5856C15.961 13.2105 16.4697 12.9998 17.0001 12.9998C17.5306 12.9998 18.0393 13.2105 18.4143 13.5856C18.7894 13.9607 19.0001 14.4694 19.0001 14.9998ZM8.00012 11.9998C7.46969 11.9998 6.96098 12.2105 6.58591 12.5856C6.21084 12.9607 6.00012 13.4694 6.00012 13.9998C6.00012 14.5302 6.21084 15.039 6.58591 15.414C6.96098 15.7891 7.46969 15.9998 8.00012 15.9998C8.53056 15.9998 9.03926 15.7891 9.41434 15.414C9.78941 15.039 10.0001 14.5302 10.0001 13.9998C10.0001 13.4694 9.78941 12.9607 9.41434 12.5856C9.03926 12.2105 8.53056 11.9998 8.00012 11.9998ZM24.0001 11.0068V18.4998C23.9985 19.958 23.4186 21.356 22.3875 22.3871C21.3563 23.4183 19.9583 23.9982 18.5001 23.9998H6.02512C4.87584 23.9993 3.75552 23.6392 2.8212 22.9699C1.88689 22.3007 1.18542 21.3558 0.815124 20.2678C-0.264261 17.1981 -0.26955 13.8529 0.800124 10.7798C2.03765 6.89151 4.46698 3.49101 7.74412 1.05981C8.65084 0.393308 9.74141 0.0233608 10.8665 0.000626171C11.9916 -0.0221085 13.0962 0.303481 14.0291 0.932813L21.3181 5.74881C22.1448 6.35482 22.818 7.14609 23.2838 8.05918C23.7495 8.97228 23.9949 9.9818 24.0001 11.0068ZM6.05112 6.99981H17.7721L12.3721 3.43281C11.955 3.14515 11.4591 2.9936 10.9524 2.99897C10.4457 3.00434 9.95307 3.16637 9.54212 3.46281C8.20839 4.46091 7.03167 5.65313 6.05112 6.99981ZM21.0001 11.0068C20.9996 10.6657 20.9494 10.3265 20.8511 9.99981H6.02612C5.50291 10.0002 4.99294 10.1643 4.56773 10.4692C4.14252 10.7741 3.8234 11.2044 3.65512 11.6998C2.78339 14.1582 2.78339 16.8415 3.65512 19.2998C3.82257 19.7956 4.14134 20.2263 4.56652 20.5312C4.99171 20.8362 5.50187 21.0001 6.02512 20.9998H9.00012C9.00012 20.2042 9.31619 19.4411 9.8788 18.8785C10.4414 18.3159 11.2045 17.9998 12.0001 17.9998C12.7958 17.9998 13.5588 18.3159 14.1214 18.8785C14.6841 19.4411 15.0001 20.2042 15.0001 20.9998H18.5001C19.1632 20.9998 19.799 20.7364 20.2679 20.2676C20.7367 19.7987 21.0001 19.1629 21.0001 18.4998V11.0068Z" fill="black"/>
</g>
<defs>
<clipPath id="clip0_606_6840">
<rect width="24" height="24" fill="white"/>
</clipPath>
</defs>
</svg>
