<svg width="24" height="24" viewBox="0 0 24 24" fill="none" xmlns="http://www.w3.org/2000/svg">
<g clip-path="url(#clip0_606_6597)">
<path d="M12.7498 7.00098C11.4463 7.06571 10.4404 8.1722 10.4998 9.47598C10.5593 8.1722 9.55337 7.06571 8.24982 7.00098C6.94627 7.06571 5.94038 8.1722 5.99982 9.47598C5.99982 11.423 8.53782 13.741 9.79983 14.756C10.2085 15.0851 10.7912 15.0851 11.1999 14.756C12.4638 13.741 14.9998 11.423 14.9998 9.47598C15.0593 8.1722 14.0534 7.06571 12.7498 7.00098Z" fill="black"/>
<path d="M23.562 21.4385L18.9193 16.7948C22.3931 12.153 21.4463 5.57396 16.8046 2.10005C12.1628 -1.37386 5.58379 -0.427028 2.10993 4.21477C-1.36392 8.85657 -0.41719 15.4356 4.22461 18.9094C7.95361 21.7002 13.0756 21.7002 16.8046 18.9094L21.4484 23.5542C22.032 24.1379 22.9784 24.1379 23.562 23.5542C24.1457 22.9705 24.1457 22.0242 23.562 21.4405V21.4385ZM3.08151 10.5423C3.08151 6.41639 6.42623 3.07168 10.5522 3.07168C14.6781 3.07168 18.0228 6.41639 18.0228 10.5423C18.0228 14.6683 14.6781 18.013 10.5522 18.013C6.42806 18.0086 3.08592 14.6664 3.08151 10.5423Z" fill="black"/>
</g>
<defs>
<clipPath id="clip0_606_6597">
<rect width="24" height="24" fill="white"/>
</clipPath>
</defs>
</svg>
