<svg width="24" height="24" viewBox="0 0 24 24" fill="none" xmlns="http://www.w3.org/2000/svg">
<g clip-path="url(#clip0_606_6848)">
<path d="M18.5562 11.3851H14.0112C13.8284 11.3857 13.6473 11.3503 13.4782 11.2808C13.3092 11.2112 13.1555 11.109 13.0261 10.98C12.8967 10.8509 12.794 10.6975 12.724 10.5287C12.654 10.3599 12.618 10.1789 12.6182 9.99607V5.43307C12.6194 4.90775 12.5001 4.38915 12.2693 3.91723C12.0386 3.44531 11.7025 3.03266 11.2872 2.71107C10.8902 2.39812 10.4269 2.18032 9.93263 2.0744C9.4384 1.96848 8.92647 1.97726 8.43616 2.10007C6.52755 2.57515 4.77923 3.54831 3.36977 4.92015C1.96032 6.29199 0.940242 8.01335 0.413726 9.90842C-0.112791 11.8035 -0.126876 13.8044 0.372908 15.7066C0.872692 17.6089 1.86844 19.3445 3.25843 20.736C4.64843 22.1276 6.38288 23.1253 8.28461 23.6272C10.1864 24.1291 12.1872 24.1172 14.0829 23.5928C15.9785 23.0684 17.701 22.0502 19.0744 20.6423C20.4479 19.2344 21.423 17.4872 21.9002 15.5791C22.0241 15.0878 22.0335 14.5746 21.9278 14.0791C21.822 13.5836 21.6039 13.119 21.2902 12.7211C20.9649 12.3064 20.5499 11.9708 20.0764 11.7394C19.6029 11.508 19.0832 11.3869 18.5562 11.3851ZM18.9892 14.8441C18.6425 16.2391 17.9315 17.5171 16.9289 18.5472C15.9263 19.5773 14.668 20.3226 13.2828 20.7069C11.8976 21.0911 10.4352 21.1005 9.04523 20.7341C7.65521 20.3677 6.38747 19.6387 5.37168 18.6215C4.35589 17.6044 3.62851 16.3357 3.26395 14.9452C2.89939 13.5547 2.91073 12.0923 3.29681 10.7076C3.68289 9.32297 4.42985 8.0657 5.46129 7.06444C6.49273 6.06318 7.77163 5.35387 9.16716 5.00907C9.19071 5.00317 9.21488 5.00015 9.23916 5.00007C9.31252 5.00285 9.38288 5.02993 9.43916 5.07707C9.49317 5.11954 9.53701 5.17355 9.56746 5.23515C9.59791 5.29674 9.61421 5.36437 9.61516 5.43307V9.99407C9.61503 10.5709 9.72859 11.142 9.94935 11.6749C10.1701 12.2078 10.4937 12.6919 10.9017 13.0996C11.3097 13.5073 11.7941 13.8306 12.3271 14.051C12.8601 14.2714 13.4314 14.3846 14.0082 14.3841H18.5532C18.6236 14.3846 18.6931 14.401 18.7563 14.4322C18.8195 14.4634 18.8748 14.5085 18.9182 14.5641C18.9518 14.6015 18.9758 14.6466 18.9881 14.6953C19.0005 14.7441 19.0009 14.7951 18.9892 14.8441Z" fill="black"/>
<path d="M23.6512 7.44593C23.1908 5.7534 22.2964 4.21043 21.0566 2.96971C19.8167 1.72899 18.2744 0.833523 16.5822 0.371932C16.2834 0.287279 15.9691 0.272862 15.6638 0.329806C15.3586 0.38675 15.0706 0.513513 14.8224 0.700189C14.5743 0.886865 14.3726 1.1284 14.2333 1.40591C14.0939 1.68342 14.0207 1.9894 14.0192 2.29993V6.99993C14.0192 7.79558 14.3352 8.55864 14.8978 9.12125C15.4605 9.68386 16.2235 9.99993 17.0192 9.99993H21.7382C22.0468 9.99696 22.3507 9.92287 22.626 9.78341C22.9014 9.64395 23.1409 9.44288 23.326 9.19582C23.5111 8.94876 23.6367 8.66236 23.6931 8.35887C23.7494 8.05538 23.7351 7.74298 23.6512 7.44593Z" fill="black"/>
</g>
<defs>
<clipPath id="clip0_606_6848">
<rect width="24" height="24" fill="white"/>
</clipPath>
</defs>
</svg>
