<svg width="24" height="24" viewBox="0 0 24 24" fill="none" xmlns="http://www.w3.org/2000/svg">
<g clip-path="url(#clip0_606_6679)">
<path d="M4.49988 7.00013C4.04006 7.00142 3.58454 6.9115 3.15971 6.73555C2.73487 6.55961 2.34915 6.30115 2.02488 5.97513L0.499881 4.62013C0.202839 4.35491 0.0233192 3.98256 0.000814879 3.58498C-0.0103282 3.38812 0.0174124 3.19099 0.0824528 3.00485C0.147493 2.81872 0.248559 2.64721 0.379881 2.50013C0.511203 2.35305 0.670209 2.23327 0.84782 2.14764C1.02543 2.06201 1.21817 2.01221 1.41503 2.00106C1.81261 1.97856 2.20284 2.11491 2.49988 2.38013L4.08388 3.79413C4.13546 3.85508 4.19898 3.90481 4.27053 3.94024C4.34209 3.97567 4.42014 3.99605 4.49988 4.00013C4.63223 4.0001 4.75918 3.9476 4.85288 3.85413L8.46588 0.414129C8.75598 0.151625 9.13716 0.0128524 9.52812 0.0274065C9.91909 0.0419606 10.2889 0.20869 10.5587 0.492035C10.8285 0.775381 10.9768 1.15292 10.9722 1.54412C10.9676 1.93533 10.8103 2.30925 10.5339 2.58613L6.94788 6.00013C6.62568 6.31965 6.2436 6.57246 5.82353 6.74406C5.40345 6.91566 4.95365 7.00268 4.49988 7.00013ZM23.9999 3.50013C23.9999 3.1023 23.8418 2.72077 23.5605 2.43947C23.2792 2.15816 22.8977 2.00013 22.4999 2.00013H14.4999C14.1021 2.00013 13.7205 2.15816 13.4392 2.43947C13.1579 2.72077 12.9999 3.1023 12.9999 3.50013C12.9999 3.89795 13.1579 4.27948 13.4392 4.56079C13.7205 4.84209 14.1021 5.00013 14.4999 5.00013H22.4999C22.8977 5.00013 23.2792 4.84209 23.5605 4.56079C23.8418 4.27948 23.9999 3.89795 23.9999 3.50013ZM6.94788 14.0001L10.5339 10.5861C10.8103 10.3092 10.9676 9.93533 10.9722 9.54412C10.9768 9.15292 10.8285 8.77538 10.5587 8.49203C10.2889 8.20869 9.91909 8.04196 9.52812 8.02741C9.13716 8.01285 8.75598 8.15162 8.46588 8.41413L4.85288 11.8541C4.75912 11.9479 4.63196 12.0005 4.49938 12.0005C4.3668 12.0005 4.23965 11.9479 4.14588 11.8541L2.56088 10.2681C2.27949 9.98673 1.89783 9.82865 1.49988 9.82865C1.10193 9.82865 0.720276 9.98673 0.438881 10.2681C0.157487 10.5495 -0.000599335 10.9312 -0.000599335 11.3291C-0.000599335 11.7271 0.157487 12.1087 0.438881 12.3901L2.02488 13.9751C2.67684 14.6267 3.55952 14.9948 4.48124 14.9995C5.40297 15.0042 6.28934 14.645 6.94788 14.0001ZM23.9999 11.5001C23.9999 11.1023 23.8418 10.7208 23.5605 10.4395C23.2792 10.1582 22.8977 10.0001 22.4999 10.0001H14.4999C14.1021 10.0001 13.7205 10.1582 13.4392 10.4395C13.1579 10.7208 12.9999 11.1023 12.9999 11.5001C12.9999 11.898 13.1579 12.2795 13.4392 12.5608C13.7205 12.8421 14.1021 13.0001 14.4999 13.0001H22.4999C22.8977 13.0001 23.2792 12.8421 23.5605 12.5608C23.8418 12.2795 23.9999 11.898 23.9999 11.5001ZM6.94788 22.0001L10.5339 18.5861C10.8103 18.3092 10.9676 17.9353 10.9722 17.5441C10.9768 17.1529 10.8285 16.7754 10.5587 16.492C10.2889 16.2087 9.91909 16.042 9.52812 16.0274C9.13716 16.0129 8.75598 16.1516 8.46588 16.4141L4.85288 19.8541C4.75918 19.9476 4.63223 20.0001 4.49988 20.0001C4.42014 19.9961 4.34209 19.9757 4.27053 19.9402C4.19898 19.9048 4.13546 19.8551 4.08388 19.7941L2.49988 18.3801C2.20284 18.1149 1.81261 17.9786 1.41503 18.0011C1.01745 18.0236 0.645098 18.2031 0.379881 18.5001C0.114665 18.7972 -0.0216895 19.1874 0.000814879 19.585C0.0233192 19.9826 0.202839 20.3549 0.499881 20.6201L2.02288 21.9751C2.67493 22.6273 3.55803 22.9958 4.48024 23.0005C5.40245 23.0051 6.28925 22.6457 6.94788 22.0001ZM23.9999 19.5001C23.9999 19.1023 23.8418 18.7208 23.5605 18.4395C23.2792 18.1582 22.8977 18.0001 22.4999 18.0001H14.4999C14.1021 18.0001 13.7205 18.1582 13.4392 18.4395C13.1579 18.7208 12.9999 19.1023 12.9999 19.5001C12.9999 19.898 13.1579 20.2795 13.4392 20.5608C13.7205 20.8421 14.1021 21.0001 14.4999 21.0001H22.4999C22.8977 21.0001 23.2792 20.8421 23.5605 20.5608C23.8418 20.2795 23.9999 19.898 23.9999 19.5001Z" fill="black"/>
</g>
<defs>
<clipPath id="clip0_606_6679">
<rect width="24" height="24" fill="white"/>
</clipPath>
</defs>
</svg>
