<svg width="24" height="24" viewBox="0 0 24 24" fill="none" xmlns="http://www.w3.org/2000/svg">
<g clip-path="url(#clip0_606_6722)">
<path d="M22.8 5.98335L21.467 4.65435L22.561 3.56135C22.8424 3.27995 23.0005 2.8983 23.0005 2.50035C23.0005 2.10239 22.8424 1.72074 22.561 1.43935C22.2796 1.15795 21.8979 0.999865 21.5 0.999865C21.102 0.999865 20.7204 1.15795 20.439 1.43935L19.346 2.53335L18.017 1.20035C17.635 0.818396 17.1816 0.515417 16.6826 0.308707C16.1835 0.101998 15.6486 -0.00439453 15.1085 -0.00439453C14.5683 -0.00439454 14.0335 0.101998 13.5344 0.308707C13.0354 0.515417 12.5819 0.818396 12.2 1.20035C11.818 1.5823 11.5151 2.03574 11.3083 2.53478C11.1016 3.03382 10.9952 3.56869 10.9952 4.10885C10.9952 4.649 11.1016 5.18387 11.3083 5.68292C11.5151 6.18196 11.818 6.6354 12.2 7.01735L13.529 8.34635L8.34598 13.5333L7.01698 12.2003C6.63503 11.8184 6.18159 11.5154 5.68255 11.3087C5.18351 11.102 4.64864 10.9956 4.10848 10.9956C3.56832 10.9956 3.03345 11.102 2.53441 11.3087C2.03537 11.5154 1.58193 11.8184 1.19998 12.2003C0.428597 12.9717 -0.00476074 14.0179 -0.00476074 15.1088C-0.00476074 16.1997 0.428597 17.246 1.19998 18.0173L2.52898 19.3463L1.43898 20.4393C1.15758 20.7207 0.999499 21.1024 0.999499 21.5003C0.999499 21.8983 1.15758 22.28 1.43898 22.5613C1.72037 22.8427 2.10203 23.0008 2.49998 23.0008C2.89793 23.0008 3.27959 22.8427 3.56098 22.5613L4.65398 21.4673L5.98298 22.8003C6.75436 23.5717 7.80058 24.0051 8.89148 24.0051C9.98238 24.0051 11.0286 23.5717 11.8 22.8003C12.5714 22.029 13.0047 20.9827 13.0047 19.8918C13.0047 18.8009 12.5714 17.7547 11.8 16.9833L10.471 15.6553L15.659 10.4673L16.983 11.8003C17.3649 12.1823 17.8184 12.4853 18.3174 12.692C18.8165 12.8987 19.3513 13.0051 19.8915 13.0051C20.4316 13.0051 20.9665 12.8987 21.4655 12.692C21.9646 12.4853 22.418 12.1823 22.8 11.8003C23.1819 11.4184 23.4849 10.965 23.6916 10.4659C23.8983 9.96687 24.0047 9.432 24.0047 8.89185C24.0047 8.35169 23.8983 7.81682 23.6916 7.31778C23.4849 6.81874 23.1819 6.3653 22.8 5.98335ZM9.67498 20.6743C9.46319 20.876 9.18194 20.9885 8.88948 20.9885C8.59702 20.9885 8.31577 20.876 8.10398 20.6743L3.32498 15.9003C3.11612 15.6915 2.99879 15.4082 2.99879 15.1128C2.99879 14.8175 3.11612 14.5342 3.32498 14.3253C3.53384 14.1165 3.81711 13.9992 4.11248 13.9992C4.40785 13.9992 4.69112 14.1165 4.89998 14.3253L9.67498 19.1003C9.88297 19.3087 9.99979 19.591 9.99979 19.8853C9.99979 20.1797 9.88297 20.462 9.67498 20.6703V20.6743ZM20.675 9.67435C20.4632 9.87604 20.1819 9.98854 19.8895 9.98854C19.597 9.98854 19.3158 9.87604 19.104 9.67435L14.325 4.90035C14.1161 4.69149 13.9988 4.40822 13.9988 4.11285C13.9988 3.81748 14.1161 3.5342 14.325 3.32535C14.5338 3.11649 14.8171 2.99915 15.1125 2.99915C15.4079 2.99915 15.6911 3.11649 15.9 3.32535L20.675 8.10035C20.883 8.30865 20.9998 8.59098 20.9998 8.88535C20.9998 9.17971 20.883 9.46204 20.675 9.67035V9.67435Z" fill="black"/>
</g>
<defs>
<clipPath id="clip0_606_6722">
<rect width="24" height="24" fill="white"/>
</clipPath>
</defs>
</svg>
