<svg width="24" height="24" viewBox="0 0 24 24" fill="none" xmlns="http://www.w3.org/2000/svg">
<g clip-path="url(#clip0_606_6927)">
<path d="M7.76024 6.65122L10.5411 3.86936L10.5621 17.5008C10.5621 18.3292 11.2337 19.0007 12.0621 19.0007C12.8904 19.0007 13.562 18.3292 13.562 17.5008L13.541 3.88637L16.3059 6.65127C16.8814 7.24712 17.8309 7.26362 18.4268 6.68811C19.0226 6.1126 19.0391 5.16305 18.4636 4.5672C18.4515 4.55469 18.4393 4.5424 18.4268 4.53036L15.2149 1.31848C13.4576 -0.438835 10.6085 -0.438835 8.8512 1.31843L8.85116 1.31848L5.63933 4.53031C5.06382 5.12616 5.08032 6.07571 5.67617 6.65122C6.25744 7.21262 7.17896 7.21262 7.76024 6.65122Z" fill="black"/>
<path d="M22.4995 14.5C21.6711 14.5 20.9996 15.1715 20.9996 15.9999V20.5907C20.999 20.8164 20.8163 20.9992 20.5906 20.9997H3.40933C3.18368 20.9991 3.00087 20.8164 3.00036 20.5907V15.9999C3.00036 15.1715 2.32881 14.5 1.50042 14.5C0.672038 14.5 0.000488281 15.1715 0.000488281 15.9999V20.5907C0.00269131 22.4725 1.52761 23.9973 3.40933 23.9995H20.5906C22.4723 23.9973 23.9972 22.4724 23.9994 20.5907V15.9999C23.9995 15.1715 23.3279 14.5 22.4995 14.5Z" fill="black"/>
</g>
<defs>
<clipPath id="clip0_606_6927">
<rect width="24" height="24" fill="white"/>
</clipPath>
</defs>
</svg>
