<svg width="24" height="24" viewBox="0 0 24 24" fill="none" xmlns="http://www.w3.org/2000/svg">
<path d="M22.483 11.384C22.177 5.755 16.978 1 11.131 1H11.008C10.7824 0.691013 10.4872 0.439476 10.1464 0.265748C9.80554 0.0920205 9.42857 0.000981758 9.046 0L7.363 0C6.20609 0.00132381 5.09696 0.461558 4.279 1.27971C3.46104 2.09786 3.00106 3.20709 3 4.364V19.636C3.00106 20.7929 3.46104 21.9021 4.279 22.7203C5.09696 23.5384 6.20609 23.9987 7.363 24H9.046C9.42857 23.999 9.80554 23.908 10.1464 23.7343C10.4872 23.5605 10.7824 23.309 11.008 23H11.454C12.9589 22.9993 14.4479 22.693 15.831 22.0998C17.214 21.5066 18.4622 20.6388 19.5 19.549C20.5307 18.4655 21.3275 17.1814 21.8407 15.7767C22.3539 14.3721 22.5725 12.8768 22.483 11.384ZM17.317 17.484C16.5646 18.2831 15.6558 18.9189 14.6472 19.3518C13.6385 19.7846 12.5516 20.0053 11.454 20H10C9.68967 19.9998 9.38694 20.0959 9.13351 20.275C8.88008 20.4541 8.68844 20.7074 8.585 21H7.363C7.0015 20.9995 6.65497 20.8556 6.39945 20.5998C6.14392 20.3441 6.00026 19.9975 6 19.636V19H6.5C6.89782 19 7.27936 18.842 7.56066 18.5607C7.84196 18.2794 8 17.8978 8 17.5C8 17.1022 7.84196 16.7206 7.56066 16.4393C7.27936 16.158 6.89782 16 6.5 16H6V13.5H6.5C6.89782 13.5 7.27936 13.342 7.56066 13.0607C7.84196 12.7794 8 12.3978 8 12C8 11.6022 7.84196 11.2206 7.56066 10.9393C7.27936 10.658 6.89782 10.5 6.5 10.5H6V8H6.5C6.89782 8 7.27936 7.84196 7.56066 7.56066C7.84196 7.27936 8 6.89782 8 6.5C8 6.10218 7.84196 5.72064 7.56066 5.43934C7.27936 5.15804 6.89782 5 6.5 5H6V4.364C6.00026 4.0025 6.14392 3.65587 6.39945 3.40015C6.65497 3.14444 7.0015 3.00053 7.363 3H8.585C8.68844 3.29258 8.88008 3.54587 9.13351 3.72497C9.38694 3.90407 9.68967 4.00016 10 4H11.131C15.363 4 19.269 7.527 19.487 11.547C19.5525 12.6329 19.3936 13.7206 19.0203 14.7424C18.647 15.7642 18.0671 16.6981 17.317 17.486V17.484Z" fill="black"/>
<path d="M12.0001 8.00049C11.7348 8.00049 11.4805 8.10585 11.293 8.29338C11.1054 8.48092 11.0001 8.73527 11.0001 9.00049V15.0155C11.0017 15.2704 11.1007 15.515 11.2767 15.6994C11.4527 15.8838 11.6925 15.994 11.9471 16.0075C12.9424 15.9974 13.9003 15.6261 14.6423 14.9626C15.3844 14.299 15.8601 13.3886 15.981 12.4005C16.036 11.8444 15.974 11.2829 15.799 10.7522C15.6241 10.2214 15.34 9.73318 14.965 9.31879C14.5901 8.9044 14.1326 8.57303 13.622 8.34599C13.1114 8.11896 12.5589 8.00127 12.0001 8.00049Z" fill="black"/>
</svg>
