<svg width="24" height="24" viewBox="0 0 24 24" fill="none" xmlns="http://www.w3.org/2000/svg">
<g clip-path="url(#clip0_606_6622)">
<path d="M22.5001 15.4998C22.1023 15.4998 21.7208 15.6578 21.4395 15.9391C21.1582 16.2204 21.0001 16.6019 21.0001 16.9998V18.4997C21.0001 19.1628 20.7367 19.7987 20.2679 20.2675C19.799 20.7363 19.1632 20.9997 18.5001 20.9997H17.0001C16.6023 20.9997 16.2208 21.1578 15.9395 21.4391C15.6582 21.7204 15.5001 22.1019 15.5001 22.4997C15.5001 22.8976 15.6582 23.2791 15.9395 23.5604C16.2208 23.8417 16.6023 23.9997 17.0001 23.9997H18.5001C19.9583 23.9981 21.3563 23.4182 22.3875 22.3871C23.4186 21.356 23.9985 19.9579 24.0001 18.4997V16.9998C24.0001 16.6019 23.8421 16.2204 23.5608 15.9391C23.2795 15.6578 22.8979 15.4998 22.5001 15.4998Z" fill="black"/>
<path d="M1.5 8.5C1.89782 8.5 2.27936 8.34196 2.56066 8.06066C2.84196 7.77936 3 7.39782 3 7V5.5C3 4.83696 3.26339 4.20107 3.73223 3.73223C4.20107 3.26339 4.83696 3 5.5 3H7C7.39782 3 7.77936 2.84196 8.06066 2.56066C8.34196 2.27936 8.5 1.89782 8.5 1.5C8.5 1.10218 8.34196 0.720644 8.06066 0.43934C7.77936 0.158035 7.39782 0 7 0L5.5 0C4.0418 0.00158817 2.64377 0.581561 1.61267 1.61267C0.581561 2.64377 0.00158817 4.0418 0 5.5L0 7C0 7.39782 0.158035 7.77936 0.43934 8.06066C0.720644 8.34196 1.10218 8.5 1.5 8.5Z" fill="black"/>
<path d="M7 20.9997H5.5C4.83696 20.9997 4.20107 20.7363 3.73223 20.2675C3.26339 19.7987 3 19.1628 3 18.4997V16.9998C3 16.6019 2.84196 16.2204 2.56066 15.9391C2.27936 15.6578 1.89782 15.4998 1.5 15.4998C1.10218 15.4998 0.720644 15.6578 0.43934 15.9391C0.158035 16.2204 0 16.6019 0 16.9998L0 18.4997C0.00158817 19.9579 0.581561 21.356 1.61267 22.3871C2.64377 23.4182 4.0418 23.9981 5.5 23.9997H7C7.39782 23.9997 7.77936 23.8417 8.06066 23.5604C8.34196 23.2791 8.5 22.8976 8.5 22.4997C8.5 22.1019 8.34196 21.7204 8.06066 21.4391C7.77936 21.1578 7.39782 20.9997 7 20.9997Z" fill="black"/>
<path d="M18.5001 0H17.0001C16.6023 0 16.2208 0.158035 15.9395 0.43934C15.6582 0.720644 15.5001 1.10218 15.5001 1.5C15.5001 1.89782 15.6582 2.27936 15.9395 2.56066C16.2208 2.84196 16.6023 3 17.0001 3H18.5001C19.1632 3 19.799 3.26339 20.2679 3.73223C20.7367 4.20107 21.0001 4.83696 21.0001 5.5V7C21.0001 7.39782 21.1582 7.77936 21.4395 8.06066C21.7208 8.34196 22.1023 8.5 22.5001 8.5C22.8979 8.5 23.2795 8.34196 23.5608 8.06066C23.8421 7.77936 24.0001 7.39782 24.0001 7V5.5C23.9985 4.0418 23.4186 2.64377 22.3875 1.61267C21.3563 0.581561 19.9583 0.00158817 18.5001 0V0Z" fill="black"/>
<path d="M11.9999 11.0002C13.9329 11.0002 15.4999 9.43324 15.4999 7.50024C15.4999 5.56725 13.9329 4.00024 11.9999 4.00024C10.0669 4.00024 8.49988 5.56725 8.49988 7.50024C8.49988 9.43324 10.0669 11.0002 11.9999 11.0002Z" fill="black"/>
<path d="M6.10999 17.8476C6.08681 17.9904 6.09513 18.1365 6.13435 18.2758C6.17357 18.4151 6.24276 18.5441 6.33706 18.6538C6.43136 18.7635 6.5485 18.8513 6.68028 18.9111C6.81207 18.9708 6.95531 19.001 7.09999 18.9996H16.9C17.0448 19.0013 17.1883 18.9713 17.3203 18.9117C17.4523 18.8521 17.5697 18.7644 17.6643 18.6546C17.7588 18.5448 17.8281 18.4157 17.8675 18.2763C17.9068 18.1369 17.9152 17.9906 17.892 17.8476C17.6265 16.4803 16.8936 15.2479 15.8189 14.3619C14.7443 13.4758 13.3948 12.9912 12.002 12.9912C10.6091 12.9912 9.25969 13.4758 8.18504 14.3619C7.11038 15.2479 6.37747 16.4803 6.11199 17.8476H6.10999Z" fill="black"/>
</g>
<defs>
<clipPath id="clip0_606_6622">
<rect width="24" height="24" fill="white"/>
</clipPath>
</defs>
</svg>
