<svg width="24" height="24" viewBox="0 0 24 24" fill="none" xmlns="http://www.w3.org/2000/svg">
<g clip-path="url(#clip0_606_6530)">
<path d="M12 24C11.2447 24.0059 10.5066 23.7748 9.88952 23.3393C9.27243 22.9037 8.80745 22.2856 8.56003 21.572C8.52968 21.4857 8.48136 21.4069 8.41826 21.3407C8.35517 21.2745 8.27874 21.2225 8.19403 21.188C8.1101 21.152 8.0194 21.1345 7.92811 21.1368C7.83682 21.139 7.74708 21.1609 7.66503 21.201C6.98404 21.5243 6.2197 21.6289 5.47688 21.5006C4.73406 21.3722 4.04917 21.0171 3.51618 20.484C2.9832 19.9509 2.62824 19.2659 2.50002 18.5231C2.3718 17.7802 2.47659 17.0159 2.80003 16.335C2.83984 16.2523 2.86178 16.162 2.86441 16.0703C2.86705 15.9785 2.85032 15.8871 2.81532 15.8022C2.78032 15.7173 2.72784 15.6408 2.66128 15.5775C2.59473 15.5142 2.51559 15.4657 2.42903 15.435C1.71871 15.1824 1.104 14.7162 0.669296 14.1002C0.234594 13.4843 0.0012207 12.7489 0.0012207 11.995C0.0012207 11.2411 0.234594 10.5057 0.669296 9.88979C1.104 9.27386 1.71871 8.80759 2.42903 8.55502C2.51541 8.52412 2.59433 8.47543 2.66069 8.41209C2.72705 8.34875 2.77937 8.27218 2.81425 8.18733C2.84913 8.10248 2.8658 8.01126 2.86318 7.91956C2.86055 7.82786 2.8387 7.73773 2.79903 7.65502C2.47916 6.9744 2.3772 6.21162 2.5071 5.47089C2.637 4.73015 2.99241 4.04758 3.52478 3.51641C4.05715 2.98524 4.74053 2.63138 5.48156 2.50316C6.22259 2.37494 6.98513 2.47861 7.66503 2.80002C7.74778 2.83984 7.83799 2.86177 7.92978 2.86441C8.02158 2.86704 8.1129 2.85032 8.1978 2.81532C8.2827 2.78032 8.35928 2.72784 8.42255 2.66128C8.48582 2.59472 8.53437 2.51559 8.56503 2.42902C8.8176 1.71871 9.28387 1.104 9.89981 0.669295C10.5157 0.234594 11.2511 0.0012207 12.005 0.0012207C12.7589 0.0012207 13.4943 0.234594 14.1103 0.669295C14.7262 1.104 15.1925 1.71871 15.445 2.42902C15.4757 2.51559 15.5242 2.59472 15.5875 2.66128C15.6508 2.72784 15.7274 2.78032 15.8123 2.81532C15.8972 2.85032 15.9885 2.86704 16.0803 2.86441C16.1721 2.86177 16.2623 2.83984 16.345 2.80002C17.0255 2.48035 17.7881 2.37851 18.5287 2.50841C19.2693 2.6383 19.9517 2.9936 20.4828 3.5258C21.0139 4.05799 21.3678 4.74113 21.4961 5.48195C21.6245 6.22277 21.5211 6.98516 21.2 7.66502C21.1599 7.74772 21.1377 7.83798 21.1349 7.92986C21.1321 8.02174 21.1488 8.11318 21.1838 8.19817C21.2188 8.28316 21.2715 8.35978 21.3382 8.423C21.4049 8.48623 21.4843 8.53462 21.571 8.56502C22.2813 8.81759 22.8961 9.28386 23.3308 9.89979C23.7655 10.5157 23.9988 11.2511 23.9988 12.005C23.9988 12.7589 23.7655 13.4943 23.3308 14.1102C22.8961 14.7262 22.2813 15.1924 21.571 15.445C21.4843 15.4754 21.4049 15.5238 21.3382 15.587C21.2715 15.6502 21.2188 15.7269 21.1838 15.8119C21.1488 15.8968 21.1321 15.9883 21.1349 16.0802C21.1377 16.1721 21.1599 16.2623 21.2 16.345C21.5197 17.0255 21.6215 17.7881 21.4916 18.5287C21.3617 19.2692 21.0064 19.9516 20.4743 20.4827C19.9421 21.0138 19.2589 21.3677 18.5181 21.4961C17.7773 21.6245 17.0149 21.5211 16.335 21.2C16.2526 21.1612 16.163 21.14 16.0719 21.1378C15.9808 21.1356 15.8903 21.1523 15.806 21.187C15.7213 21.2215 15.6449 21.2735 15.5818 21.3397C15.5187 21.4059 15.4704 21.4847 15.44 21.571C15.1926 22.2847 14.7277 22.903 14.1106 23.3387C13.4936 23.7744 12.7554 24.0057 12 24ZM7.94503 18.139C8.69902 18.1386 9.43464 18.3717 10.0508 18.8063C10.6669 19.2409 11.1334 19.8556 11.386 20.566C11.4262 20.6959 11.5082 20.8089 11.6193 20.8873C11.7303 20.9658 11.8642 21.0054 12 21C12.1359 21.0054 12.2697 20.9658 12.3808 20.8873C12.4918 20.8089 12.5738 20.6959 12.614 20.566C12.7854 20.0846 13.0559 19.6444 13.408 19.2741C13.7601 18.9037 14.1861 18.6114 14.6582 18.4159C15.1304 18.2204 15.6383 18.1262 16.1492 18.1393C16.6601 18.1524 17.1625 18.2726 17.624 18.492C17.7455 18.5494 17.8818 18.5678 18.0141 18.5448C18.1465 18.5218 18.2685 18.4585 18.3635 18.3635C18.4585 18.2685 18.5218 18.1465 18.5448 18.0141C18.5679 17.8817 18.5494 17.7455 18.492 17.624C18.2726 17.1625 18.1524 16.6601 18.1393 16.1492C18.1262 15.6383 18.2204 15.1304 18.4159 14.6582C18.6114 14.186 18.9037 13.7601 19.2741 13.408C19.6445 13.0559 20.0846 12.7854 20.566 12.614C20.6931 12.5692 20.8032 12.4861 20.881 12.3762C20.9589 12.2662 21.0007 12.1348 21.0007 12C21.0007 11.8653 20.9589 11.7338 20.881 11.6239C20.8032 11.5139 20.6931 11.4308 20.566 11.386C20.0846 11.2146 19.6445 10.9441 19.2741 10.592C18.9037 10.2399 18.6114 9.81399 18.4159 9.34182C18.2204 8.86964 18.1262 8.36171 18.1393 7.85084C18.1524 7.33998 18.2726 6.83755 18.492 6.37602C18.5494 6.25454 18.5679 6.1183 18.5448 5.98593C18.5218 5.85357 18.4585 5.73154 18.3635 5.63654C18.2685 5.54154 18.1465 5.47821 18.0141 5.4552C17.8818 5.4322 17.7455 5.45064 17.624 5.50802C17.1625 5.72745 16.6601 5.84761 16.1492 5.86072C15.6383 5.87383 15.1304 5.77961 14.6582 5.58414C14.1861 5.38868 13.7601 5.09631 13.408 4.72595C13.0559 4.35559 12.7854 3.91546 12.614 3.43402C12.5693 3.30694 12.4861 3.19688 12.3762 3.11903C12.2662 3.04118 12.1348 2.99937 12 2.99937C11.8653 2.99937 11.7339 3.04118 11.6239 3.11903C11.5139 3.19688 11.4308 3.30694 11.386 3.43402C11.2148 3.91543 10.9444 4.35554 10.5923 4.72589C10.2403 5.09625 9.8145 5.38862 9.3424 5.58409C8.8703 5.77957 8.36244 5.8738 7.85164 5.86069C7.34085 5.84759 6.83848 5.72744 6.37703 5.50802C6.25551 5.4503 6.11911 5.43159 5.98654 5.45444C5.85396 5.47729 5.7317 5.54059 5.63652 5.63566C5.54134 5.73073 5.4779 5.85292 5.45489 5.98547C5.43189 6.11802 5.45045 6.25444 5.50803 6.37602C5.72732 6.83751 5.8474 7.33985 5.8605 7.85063C5.8736 8.3614 5.77943 8.86924 5.58408 9.34136C5.38873 9.81348 5.09653 10.2394 4.72637 10.5916C4.3562 10.9438 3.91628 11.2144 3.43503 11.386C3.30794 11.4308 3.19789 11.5139 3.12003 11.6239C3.04218 11.7338 3.00037 11.8653 3.00037 12C3.00037 12.1348 3.04218 12.2662 3.12003 12.3762C3.19789 12.4861 3.30794 12.5692 3.43503 12.614C3.91647 12.7854 4.35659 13.0559 4.72696 13.408C5.09732 13.7601 5.38968 14.186 5.58515 14.6582C5.78062 15.1304 5.87484 15.6383 5.86173 16.1492C5.84862 16.6601 5.72846 17.1625 5.50903 17.624C5.45145 17.7456 5.43289 17.882 5.45589 18.0146C5.4789 18.1471 5.54234 18.2693 5.63752 18.3644C5.7327 18.4594 5.85496 18.5227 5.98754 18.5456C6.12011 18.5684 6.25651 18.5497 6.37803 18.492C6.86772 18.2596 7.40298 18.139 7.94503 18.139Z" fill="black"/>
</g>
<defs>
<clipPath id="clip0_606_6530">
<rect width="24" height="24" fill="white"/>
</clipPath>
</defs>
</svg>
