<svg width="24" height="24" viewBox="0 0 24 24" fill="none" xmlns="http://www.w3.org/2000/svg">
<g clip-path="url(#clip0_606_6564)">
<path d="M23.0717 0.929088C22.6433 0.498116 22.0991 0.200626 21.5051 0.0726565C20.911 -0.0553127 20.2926 -0.00826906 19.7247 0.208088L3.35374 6.65309C2.16207 7.12592 1.18219 8.01467 0.595647 9.15466C0.00910091 10.2947 -0.144346 11.6086 0.163736 12.8531C0.883282 15.4795 2.27417 17.8733 4.19955 19.799C6.12494 21.7247 8.5185 23.1161 11.1447 23.8361C12.3911 24.1438 13.7068 23.9891 14.8478 23.4007C15.9888 22.8122 16.8778 21.83 17.3497 20.6361L23.8067 4.23609C24.015 3.67252 24.0564 3.06089 23.926 2.47439C23.7957 1.8879 23.4991 1.35139 23.0717 0.929088ZM19.3597 7.34409C18.9891 7.15682 18.5834 7.04896 18.1687 7.0274C17.754 7.00584 17.3393 7.07105 16.9512 7.21887C16.5631 7.36669 16.2101 7.59386 15.9148 7.88586C15.6196 8.17787 15.3884 8.52827 15.2363 8.91468C15.0841 9.30109 15.0143 9.71499 15.0312 10.1299C15.0481 10.5449 15.1514 10.9517 15.3345 11.3245C15.5176 11.6972 15.7765 12.0276 16.0945 12.2946C16.4126 12.5616 16.7829 12.7593 17.1817 12.8751L14.5617 19.5291C14.4948 19.6911 14.41 19.845 14.3087 19.9881C9.23274 19.8621 4.13574 14.7651 4.00874 9.68809C4.14914 9.58909 4.30006 9.50592 4.45874 9.44009L20.7867 3.01409C20.814 3.00032 20.8453 2.99638 20.8751 3.00294C20.905 3.0095 20.9317 3.02615 20.9507 3.05009C20.9694 3.06488 20.9838 3.08431 20.9926 3.10641C21.0013 3.12852 21.0041 3.15255 21.0007 3.17609L19.3597 7.34409ZM11.9997 12.0001C11.9997 12.5305 11.789 13.0392 11.4139 13.4143C11.0389 13.7894 10.5302 14.0001 9.99974 14.0001C9.4693 14.0001 8.9606 13.7894 8.58552 13.4143C8.21045 13.0392 7.99974 12.5305 7.99974 12.0001C7.99974 11.4697 8.21045 10.9609 8.58552 10.5859C8.9606 10.2108 9.4693 10.0001 9.99974 10.0001C10.5302 10.0001 11.0389 10.2108 11.4139 10.5859C11.789 10.9609 11.9997 11.4697 11.9997 12.0001Z" fill="black"/>
</g>
<defs>
<clipPath id="clip0_606_6564">
<rect width="24" height="24" fill="white"/>
</clipPath>
</defs>
</svg>
