<svg width="24" height="24" viewBox="0 0 24 24" fill="none" xmlns="http://www.w3.org/2000/svg">
<path d="M18.4139 7.89985V9.58585C18.414 9.7836 18.4726 9.9769 18.5825 10.1413C18.6924 10.3057 18.8486 10.4339 19.0313 10.5095C19.214 10.5852 19.415 10.605 19.609 10.5664C19.8029 10.5279 19.9811 10.4327 20.1209 10.2929L23.7069 6.70685C23.8944 6.51932 23.9997 6.26501 23.9997 5.99985C23.9997 5.73469 23.8944 5.48038 23.7069 5.29285L20.1209 1.70685C19.9811 1.56704 19.8029 1.47183 19.609 1.43327C19.415 1.3947 19.214 1.4145 19.0313 1.49017C18.8486 1.56584 18.6924 1.69398 18.5825 1.85839C18.4726 2.0228 18.414 2.2161 18.4139 2.41385V4.81385C15.0639 5.54585 12.8139 7.59485 10.9039 9.72485C8.71793 7.31585 6.07993 5.02085 1.82993 4.58585C1.78393 4.57585 1.51893 4.54685 1.49993 4.54685C1.11398 4.54762 0.743176 4.69713 0.46463 4.96429C0.186084 5.23145 0.0212357 5.59569 0.00436475 5.98128C-0.0125062 6.36686 0.119899 6.74412 0.374046 7.03458C0.628193 7.32505 0.984523 7.50637 1.36893 7.54085C4.83293 7.84085 6.86893 9.69985 8.91793 11.9988C6.87193 14.2989 4.83093 16.1649 1.36593 16.4609C0.985106 16.5 0.633669 16.6833 0.383609 16.9732C0.13355 17.2631 0.00379493 17.6376 0.0209236 18.0201C0.0380522 18.4025 0.200768 18.764 0.47574 19.0303C0.750712 19.2967 1.11713 19.4479 1.49993 19.4529C1.53793 19.4529 1.57293 19.4529 1.61093 19.4449C6.83993 18.9999 9.64893 15.7529 12.1479 12.8598C14.0589 10.6498 15.7919 8.69985 18.4139 7.89985Z" fill="black"/>
<path d="M20.1211 13.7068C19.9812 13.567 19.803 13.4718 19.6091 13.4333C19.4151 13.3947 19.2141 13.4145 19.0314 13.4902C18.8487 13.5658 18.6925 13.694 18.5827 13.8584C18.4728 14.0228 18.4141 14.2161 18.4141 14.4138V16.1138C17.1308 15.7081 15.9523 15.0254 14.9621 14.1138C14.6674 13.8622 14.2851 13.7374 13.8987 13.7668C13.5123 13.7962 13.1532 13.9775 12.9001 14.2708L12.8751 14.2988C12.7464 14.4479 12.6485 14.6209 12.5871 14.808C12.5257 14.9951 12.502 15.1925 12.5173 15.3888C12.5327 15.585 12.5868 15.7764 12.6765 15.9516C12.7662 16.1269 12.8898 16.2826 13.0401 16.4098C14.5629 17.7848 16.4133 18.7455 18.4141 19.1998V21.5908C18.4141 21.7886 18.4728 21.9819 18.5827 22.1463C18.6925 22.3107 18.8487 22.4388 19.0314 22.5145C19.2141 22.5902 19.4151 22.61 19.6091 22.5714C19.803 22.5329 19.9812 22.4376 20.1211 22.2978L23.7071 18.7118C23.8945 18.5243 23.9998 18.27 23.9998 18.0048C23.9998 17.7397 23.8945 17.4854 23.7071 17.2978L20.1211 13.7068Z" fill="black"/>
</svg>
