<svg width="24" height="24" viewBox="0 0 24 24" fill="none" xmlns="http://www.w3.org/2000/svg">
<g clip-path="url(#clip0_606_6718)">
<path d="M1.4429 21.8239C1.84292 22.5276 2.43266 23.1048 3.14486 23.4895C3.85706 23.8742 4.66304 24.0511 5.4709 23.9999H18.5289C19.3368 24.0511 20.1427 23.8742 20.8549 23.4895C21.5671 23.1048 22.1569 22.5276 22.5569 21.8239C22.9067 21.0842 23.0476 20.2629 22.9642 19.4489C22.8808 18.635 22.5764 17.8593 22.0839 17.2059L13.8439 5.34289C14.3324 4.95935 14.6891 4.43303 14.8645 3.83722C15.0398 3.24141 15.025 2.60576 14.8221 2.01877C14.6191 1.43178 14.2383 0.922667 13.7324 0.562313C13.2266 0.201959 12.621 0.00830078 11.9999 0.00830078C11.3788 0.00830078 10.7732 0.201959 10.2674 0.562313C9.76154 0.922667 9.38065 1.43178 9.17775 2.01877C8.97484 2.60576 8.96002 3.24141 9.13534 3.83722C9.31067 4.43303 9.66741 4.95935 10.1559 5.34289L1.9169 17.2059C1.42403 17.8591 1.11932 18.6347 1.03577 19.4488C0.952214 20.2628 1.09301 21.0842 1.4429 21.8239ZM16.9539 15.0789L12.8419 20.9999H9.4419L15.2559 12.6309L16.9539 15.0789ZM19.8999 20.4339C19.6429 20.9259 18.9319 20.9999 18.5309 20.9999H16.4999L18.7859 17.7089L19.6249 18.9169C19.8005 19.123 19.9184 19.3719 19.9667 19.6384C20.015 19.9048 19.9919 20.1792 19.8999 20.4339ZM4.3809 18.9169L11.9999 7.94789L13.4259 9.99989L5.7849 20.9999H5.4709C5.0709 20.9999 4.3589 20.9259 4.1019 20.4339C4.01019 20.1789 3.9877 19.9042 4.03671 19.6377C4.08572 19.3713 4.20448 19.1225 4.3809 18.9169Z" fill="black"/>
</g>
<defs>
<clipPath id="clip0_606_6718">
<rect width="24" height="24" fill="white"/>
</clipPath>
</defs>
</svg>
