<svg width="24" height="24" viewBox="0 0 24 24" fill="none" xmlns="http://www.w3.org/2000/svg">
<g clip-path="url(#clip0_606_6812)">
<path d="M18.0001 13.4998V7.57081C18.0035 6.71649 17.8373 5.87001 17.5111 5.08039C17.185 4.29078 16.7054 3.57373 16.1001 2.97081L15.0251 1.89981C14.4222 1.29454 13.7052 0.814945 12.9155 0.4888C12.1259 0.162655 11.2794 -0.00355357 10.4251 -0.000194216H7.50012C6.04192 0.00139395 4.64389 0.581367 3.61279 1.61247C2.58168 2.64358 2.00171 4.0416 2.00012 5.49981V13.4998C2.00171 14.958 2.58168 16.356 3.61279 17.3871C4.64389 18.4182 6.04192 18.9982 7.50012 18.9998H12.5001C13.9583 18.9982 15.3563 18.4182 16.3875 17.3871C17.4186 16.356 17.9985 14.958 18.0001 13.4998ZM5.00012 13.4998V5.49981C5.00012 4.83677 5.26351 4.20088 5.73236 3.73204C6.2012 3.2632 6.83708 2.99981 7.50012 2.99981H10.4291C10.6207 3.00281 10.8116 3.02154 11.0001 3.05581V4.99981C11.0001 5.53024 11.2108 6.03895 11.5859 6.41402C11.961 6.78909 12.4697 6.99981 13.0001 6.99981H14.9441C14.9784 7.18829 14.9971 7.37926 15.0001 7.57081V13.4998C15.0001 14.1628 14.7367 14.7987 14.2679 15.2676C13.799 15.7364 13.1632 15.9998 12.5001 15.9998H7.50012C6.83708 15.9998 6.2012 15.7364 5.73236 15.2676C5.26351 14.7987 5.00012 14.1628 5.00012 13.4998ZM23.0001 8.49981V18.4998C22.9985 19.958 22.4186 21.356 21.3875 22.3871C20.3563 23.4182 18.9583 23.9982 17.5001 23.9998H9.50012C9.1023 23.9998 8.72077 23.8418 8.43946 23.5605C8.15816 23.2792 8.00012 22.8976 8.00012 22.4998C8.00012 22.102 8.15816 21.7205 8.43946 21.4391C8.72077 21.1578 9.1023 20.9998 9.50012 20.9998H17.5001C18.1632 20.9998 18.799 20.7364 19.2679 20.2676C19.7367 19.7987 20.0001 19.1628 20.0001 18.4998V8.49981C20.0001 8.10198 20.1582 7.72045 20.4395 7.43915C20.7208 7.15784 21.1023 6.99981 21.5001 6.99981C21.8979 6.99981 22.2795 7.15784 22.5608 7.43915C22.8421 7.72045 23.0001 8.10198 23.0001 8.49981Z" fill="black"/>
</g>
<defs>
<clipPath id="clip0_606_6812">
<rect width="24" height="24" fill="white"/>
</clipPath>
</defs>
</svg>
