<svg width="24" height="24" viewBox="0 0 24 24" fill="none" xmlns="http://www.w3.org/2000/svg">
<g clip-path="url(#clip0_606_6592)">
<path d="M15.9999 9.99999C17.1044 9.99999 17.9999 9.10456 17.9999 8C17.9999 6.89543 17.1044 6 15.9999 6C14.8953 6 13.9999 6.89543 13.9999 8C13.9999 9.10456 14.8953 9.99999 15.9999 9.99999Z" fill="black"/>
<path d="M9.00012 9.99999C10.1047 9.99999 11.0001 9.10456 11.0001 8C11.0001 6.89543 10.1047 6 9.00012 6C7.89555 6 7.00012 6.89543 7.00012 8C7.00012 9.10456 7.89555 9.99999 9.00012 9.99999Z" fill="black"/>
<path d="M8 17.0002C9.10456 17.0002 9.99999 16.1048 9.99999 15.0002C9.99999 13.8957 9.10456 13.0002 8 13.0002C6.89543 13.0002 6 13.8957 6 15.0002C6 16.1048 6.89543 17.0002 8 17.0002Z" fill="black"/>
<path d="M24.036 10.9282C23.745 8.02609 22.4192 5.32562 20.301 3.32054C18.1828 1.31545 15.4137 0.1397 12.5 0.00822685C10.9059 -0.0499455 9.31622 0.210285 7.82389 0.773703C6.33156 1.33712 4.96653 2.19242 3.80863 3.28958C2.65073 4.38674 1.7232 5.70375 1.08027 7.16359C0.437337 8.62343 0.0919109 10.1968 0.0641902 11.7917C0.0364695 13.3866 0.32701 14.971 0.918823 16.4523C1.51064 17.9336 2.39184 19.2821 3.51091 20.4188C4.62999 21.5556 5.96447 22.4578 7.43632 23.0727C8.90817 23.6877 10.4879 24.003 12.083 24.0002C12.421 24.0002 12.752 23.9782 13.083 23.9512C13.4603 23.9199 13.8119 23.7471 14.0671 23.4674C14.3223 23.1877 14.4623 22.8218 14.459 22.4432L14.429 19.0182C14.4241 18.4507 14.5881 17.8946 14.9003 17.4207C15.2125 16.9467 15.6586 16.5764 16.182 16.3569C16.7053 16.1374 17.2822 16.0786 17.839 16.188C18.3959 16.2974 18.9076 16.57 19.309 16.9712L19.409 17.0712C19.6908 17.3535 20.0391 17.5604 20.4218 17.6729C20.8044 17.7854 21.2092 17.8 21.599 17.7152C21.9825 17.6328 22.3391 17.4556 22.6363 17.1996C22.9335 16.9437 23.1617 16.6172 23.3 16.2502C23.9475 14.5554 24.1993 12.7351 24.036 10.9282ZM20.787 14.2942C19.9121 13.6429 18.8728 13.2487 17.7861 13.156C16.6993 13.0633 15.6083 13.2756 14.6357 13.7693C13.6631 14.2629 12.8475 15.0182 12.2809 15.9501C11.7142 16.882 11.4188 17.9536 11.428 19.0442L11.445 20.9772C9.12022 20.8107 6.95071 19.7488 5.39305 18.015C3.8354 16.2812 3.0111 14.0108 3.09363 11.6815C3.17617 9.35225 4.1591 7.14583 5.83557 5.52664C7.51203 3.90746 9.75127 3.00178 12.082 3.00023C12.182 3.00023 12.294 3.00023 12.4 3.00623C14.584 3.105 16.6596 3.98632 18.2474 5.48914C19.8352 6.99196 20.8293 9.01594 21.048 11.1912C21.1427 12.2329 21.0544 13.283 20.787 14.2942Z" fill="black"/>
</g>
<defs>
<clipPath id="clip0_606_6592">
<rect width="24" height="24" fill="white"/>
</clipPath>
</defs>
</svg>
