<svg width="24" height="24" viewBox="0 0 24 24" fill="none" xmlns="http://www.w3.org/2000/svg">
<g clip-path="url(#clip0_606_6604)">
<path d="M22.448 19.0002H15.1C14.7543 18.2783 14.1721 17.6965 13.45 17.3512V14.0002C14.495 14.0002 15.385 13.9902 15.85 13.9812C16.2222 13.9746 16.5928 13.93 16.956 13.8482C18.0886 13.6009 19.1045 12.978 19.8385 12.0807C20.5726 11.1834 20.9818 10.0643 20.9998 8.9051C21.0177 7.74591 20.6434 6.61468 19.9374 5.69506C19.2315 4.77544 18.2354 4.12142 17.111 3.83917L16.926 3.79617C16.87 3.78317 16.785 3.76317 16.797 3.78717C16.7877 3.77136 16.7793 3.755 16.772 3.73817C16.226 2.48233 15.2809 1.44171 14.0833 0.777633C12.8857 0.113557 11.5024 -0.136871 10.148 0.0651736C8.95478 0.235094 7.83987 0.758748 6.94719 1.56854C6.05451 2.37834 5.42503 3.4371 5.14 4.60817C4.94881 5.35938 4.90669 6.14077 5.016 6.90817C4.34376 7.25922 3.79413 7.80633 3.44 8.47694C3.08587 9.14755 2.94398 9.90998 3.03314 10.6631C3.1223 11.4162 3.43831 12.1244 3.93925 12.6938C4.44018 13.2632 5.10238 13.6668 5.838 13.8512C6.13235 13.9268 6.43422 13.9694 6.738 13.9782C7.3 13.9912 8.8 14.0002 10.448 14.0002V17.3512C9.72669 17.6968 9.14521 18.2787 8.8 19.0002H1.448C1.05017 19.0002 0.668643 19.1582 0.387338 19.4395C0.106033 19.7208 -0.052002 20.1024 -0.052002 20.5002C-0.052002 20.898 0.106033 21.2795 0.387338 21.5608C0.668643 21.8421 1.05017 22.0002 1.448 22.0002H8.8C9.0806 22.5987 9.5259 23.1049 10.0838 23.4595C10.6416 23.8141 11.289 24.0024 11.95 24.0024C12.611 24.0024 13.2584 23.8141 13.8162 23.4595C14.3741 23.1049 14.8194 22.5987 15.1 22.0002H22.45C22.8478 22.0002 23.2294 21.8421 23.5107 21.5608C23.792 21.2795 23.95 20.898 23.95 20.5002C23.95 20.1024 23.792 19.7208 23.5107 19.4395C23.2294 19.1582 22.8478 19.0002 22.45 19.0002H22.448ZM6.583 10.9432C6.45504 10.9092 6.33769 10.8436 6.24175 10.7524C6.14581 10.6612 6.07437 10.5473 6.034 10.4212C5.99744 10.2247 6.03239 10.0216 6.13253 9.84866C6.23267 9.6757 6.39139 9.54429 6.58 9.47817C7.10778 9.25736 7.54137 8.85838 7.80523 8.35075C8.0691 7.84313 8.14652 7.25901 8.024 6.70017C7.92672 6.24898 7.93563 5.78134 8.05 5.33417C8.19713 4.74538 8.51472 4.21309 8.96298 3.80396C9.41124 3.39483 9.97025 3.12706 10.57 3.03417C10.729 3.01198 10.8894 3.00062 11.05 3.00017C11.6767 2.99343 12.2915 3.17083 12.8182 3.51037C13.345 3.84991 13.7604 4.33665 14.013 4.91017C14.2151 5.38733 14.5354 5.80512 14.9438 6.12409C15.3522 6.44306 15.8351 6.65268 16.347 6.73317C16.8209 6.8444 17.2428 7.11383 17.5431 7.49703C17.8434 7.88023 18.0041 8.35431 17.9987 8.84111C17.9933 9.3279 17.8222 9.79834 17.5136 10.1748C17.205 10.5513 16.7773 10.8114 16.301 10.9122C16.1342 10.9499 15.964 10.9706 15.793 10.9742C14.245 11.0022 8.074 11.0082 6.816 10.9742C6.73744 10.9722 6.65933 10.9619 6.583 10.9432Z" fill="black"/>
</g>
<defs>
<clipPath id="clip0_606_6604">
<rect width="24" height="24" fill="white"/>
</clipPath>
</defs>
</svg>
