<svg width="24" height="24" viewBox="0 0 24 24" fill="none" xmlns="http://www.w3.org/2000/svg">
<g clip-path="url(#clip0_606_6655)">
<path d="M19.7799 3.23815C18.7606 2.21206 17.5484 1.39772 16.2131 0.842026C14.8778 0.286328 13.4457 0.000244141 11.9994 0.000244141C10.5531 0.000244141 9.12105 0.286328 7.78574 0.842026C6.45043 1.39772 5.23822 2.21206 4.21891 3.23815C2.15571 5.32376 1.00206 8.14134 1.01011 11.075C1.01817 14.0087 2.18728 16.8199 4.26191 18.8941L7.99991 22.3602C9.06222 23.406 10.4916 23.9947 11.9823 24.0003C13.473 24.0059 14.9068 23.428 15.9769 22.3902L19.7839 18.8532C21.8415 16.7753 22.9955 13.9691 22.9947 11.0448C22.994 8.12059 21.8386 5.31493 19.7799 3.23815ZM17.6999 16.7002L13.8999 20.2252C13.3823 20.7187 12.693 20.9915 11.9778 20.9859C11.2627 20.9803 10.5777 20.6967 10.0679 20.1952L6.34591 16.7372C4.84495 15.2232 4.00281 13.1776 4.00281 11.0456C4.00281 8.91374 4.84495 6.86814 6.34591 5.35415C7.08637 4.60822 7.96713 4.0162 8.93742 3.6122C9.90772 3.20819 10.9484 3.0002 11.9994 3.0002C13.0505 3.0002 14.0911 3.20819 15.0614 3.6122C16.0317 4.0162 16.9125 4.60822 17.6529 5.35415C19.1513 6.85909 19.9965 8.89381 20.0053 11.0175C20.0141 13.1412 19.1858 15.1828 17.6999 16.7002ZM15.5649 14.5652C15.4256 14.7045 15.2602 14.8151 15.0782 14.8906C14.8961 14.966 14.701 15.0048 14.5039 15.0048C14.3069 15.0048 14.1117 14.966 13.9297 14.8906C13.7476 14.8151 13.5822 14.7045 13.4429 14.5652L10.9429 12.0652C10.8024 11.9256 10.691 11.7597 10.615 11.5769C10.5389 11.3941 10.4998 11.1981 10.4999 11.0001V7.50015C10.4999 7.10233 10.658 6.72079 10.9393 6.43949C11.2206 6.15819 11.6021 6.00015 11.9999 6.00015C12.3977 6.00015 12.7793 6.15819 13.0606 6.43949C13.3419 6.72079 13.4999 7.10233 13.4999 7.50015V10.3791L15.5609 12.4392C15.7003 12.5785 15.8109 12.7439 15.8863 12.9259C15.9618 13.108 16.0006 13.3031 16.0006 13.5002C16.0006 13.6972 15.9618 13.8923 15.8863 14.0744C15.8109 14.2564 15.7003 14.4219 15.5609 14.5612L15.5649 14.5652Z" fill="black"/>
</g>
<defs>
<clipPath id="clip0_606_6655">
<rect width="24" height="24" fill="white"/>
</clipPath>
</defs>
</svg>
