<svg width="24" height="24" viewBox="0 0 24 24" fill="none" xmlns="http://www.w3.org/2000/svg">
<g clip-path="url(#clip0_606_6945)">
<path d="M19.5861 23.0457H4.41412C3.66157 23.0497 2.92062 22.8602 2.26237 22.4955C1.60412 22.1307 1.05067 21.6029 0.655117 20.9627C0.263153 20.336 0.0388906 19.6191 0.0038667 18.8808C-0.0311572 18.1425 0.124234 17.4076 0.455117 16.7467L8.06412 3.35367C8.43841 2.62738 9.00635 2.01881 9.7051 1.59532C10.4038 1.17182 11.2061 0.949917 12.0232 0.954161C12.8402 0.958405 13.6402 1.18863 14.3345 1.61936C15.0288 2.05009 15.5904 2.66453 15.9571 3.39467L23.5001 16.6737C23.8476 17.3411 24.0156 18.0873 23.9878 18.8392C23.9599 19.5911 23.737 20.3228 23.3411 20.9627C22.9459 21.6023 22.3931 22.1298 21.7356 22.4945C21.0781 22.8592 20.338 23.049 19.5861 23.0457ZM12.0001 3.95467C11.7371 3.95134 11.4785 4.02219 11.2538 4.15908C11.0292 4.29597 10.8477 4.49338 10.7301 4.72867L10.6911 4.80267L3.10012 18.1557C3.01321 18.3521 2.97684 18.5672 2.9943 18.7814C3.01177 18.9955 3.08252 19.2019 3.20012 19.3817C3.32673 19.5877 3.50477 19.7573 3.71674 19.8737C3.9287 19.9901 4.16731 20.0494 4.40912 20.0457H19.5861C19.8279 20.0494 20.0665 19.9901 20.2785 19.8737C20.4905 19.7573 20.6685 19.5877 20.7951 19.3817C20.9169 19.1888 20.9866 18.9676 20.9973 18.7397C21.008 18.5119 20.9593 18.2851 20.8561 18.0817L13.3091 4.79967C13.1941 4.54877 13.0098 4.33596 12.7779 4.18626C12.546 4.03657 12.2761 3.95622 12.0001 3.95467Z" fill="black"/>
</g>
<defs>
<clipPath id="clip0_606_6945">
<rect width="24" height="24" fill="white"/>
</clipPath>
</defs>
</svg>
