<svg width="24" height="24" viewBox="0 0 24 24" fill="none" xmlns="http://www.w3.org/2000/svg">
<path d="M11.9999 14.224C11.6021 14.224 11.2205 14.066 10.9392 13.7847C10.6579 13.5033 10.4999 13.1218 10.4999 12.724V12.501C10.4858 11.9418 10.6516 11.3929 10.973 10.9351C11.2943 10.4773 11.7542 10.1348 12.2849 9.95799C12.5401 9.88159 12.7547 9.70714 12.8816 9.47285C13.0085 9.23856 13.0374 8.96352 12.9619 8.70799C12.9165 8.54838 12.8312 8.40298 12.7139 8.28556C12.5967 8.16814 12.4514 8.08258 12.2919 8.03699C12.1549 7.998 12.0113 7.98783 11.8701 8.0071C11.729 8.02638 11.5934 8.07469 11.4719 8.14899C11.3566 8.22102 11.2571 8.31567 11.1794 8.42721C11.1017 8.53876 11.0475 8.66489 11.0199 8.79799C10.9805 8.99104 10.9034 9.17443 10.7932 9.3377C10.6829 9.50097 10.5416 9.64093 10.3772 9.74957C10.2128 9.85822 10.0287 9.93342 9.83526 9.9709C9.64183 10.0084 9.44292 10.0074 9.24988 9.96799C9.05684 9.9286 8.87344 9.85156 8.71017 9.74129C8.5469 9.63102 8.40694 9.48967 8.2983 9.32531C8.18966 9.16095 8.11445 8.9768 8.07697 8.78337C8.03949 8.58995 8.04048 8.39104 8.07988 8.19799C8.18853 7.66237 8.4058 7.15469 8.71827 6.70629C9.03073 6.25789 9.43178 5.87828 9.89665 5.59088C10.3615 5.30349 10.8804 5.11441 11.4211 5.03531C11.9619 4.95622 12.5132 4.98878 13.0409 5.13099C13.8517 5.34796 14.5738 5.81451 15.1048 6.46458C15.6358 7.11464 15.9488 7.91528 15.9996 8.75312C16.0504 9.59096 15.8363 10.4235 15.3877 11.133C14.939 11.8424 14.2786 12.3927 13.4999 12.706V12.722C13.5001 12.9191 13.4615 13.1144 13.3863 13.2966C13.311 13.4789 13.2006 13.6444 13.0612 13.7839C12.9219 13.9234 12.7565 14.0341 12.5744 14.1096C12.3922 14.1851 12.197 14.224 11.9999 14.224ZM12.5629 23.892L12.9569 23.733C15.0779 22.88 21.9999 19.522 21.9999 12.152V7.05199C22.0007 5.94257 21.6515 4.86116 21.0021 3.96166C20.3527 3.06217 19.4362 2.39041 18.3829 2.04199L12.4719 0.0769917C12.1653 -0.0240363 11.8344 -0.0240363 11.5279 0.0769917L5.61688 2.03699C4.56359 2.38541 3.64702 3.05717 2.99763 3.95666C2.34823 4.85616 1.99908 5.93757 1.99988 7.04699V12.147C1.99988 18.667 8.85188 22.598 10.9509 23.647L11.3309 23.838C11.521 23.9331 11.7291 23.9868 11.9415 23.9954C12.1539 24.0041 12.3657 23.9674 12.5629 23.888V23.892ZM17.4389 4.88499C17.8936 5.03513 18.2892 5.32495 18.5695 5.71317C18.8498 6.10138 19.0004 6.56817 18.9999 7.04699V12.147C18.9999 17.406 13.9699 20.047 12.0679 20.847C10.1429 19.847 4.99988 16.747 4.99988 12.147V7.04699C4.99932 6.56817 5.14992 6.10138 5.43021 5.71317C5.71051 5.32495 6.1062 5.03513 6.56088 4.88499L11.9999 3.08099L17.4389 4.88499ZM11.9999 15.001C11.7032 15.001 11.4132 15.089 11.1665 15.2538C10.9199 15.4186 10.7276 15.6529 10.6141 15.927C10.5005 16.2011 10.4708 16.5027 10.5287 16.7936C10.5866 17.0846 10.7294 17.3519 10.9392 17.5617C11.149 17.7714 11.4163 17.9143 11.7072 17.9722C11.9982 18.0301 12.2998 18.0003 12.5739 17.8868C12.848 17.7733 13.0823 17.581 13.2471 17.3343C13.4119 17.0877 13.4999 16.7977 13.4999 16.501C13.4999 16.1032 13.3418 15.7216 13.0605 15.4403C12.7792 15.159 12.3977 15.001 11.9999 15.001Z" fill="black"/>
</svg>
