<svg width="24" height="24" viewBox="0 0 24 24" fill="none" xmlns="http://www.w3.org/2000/svg">
<g clip-path="url(#clip0_606_6747)">
<path d="M9.00004 12.0003C9.00004 11.2047 9.31611 10.4416 9.87872 9.879C10.4413 9.31639 11.2044 9.00032 12 9.00032C12.7957 9.00032 13.5588 9.31639 14.1214 9.879C14.684 10.4416 15 11.2047 15 12.0003C15 12.796 14.684 13.559 14.1214 14.1216C13.5588 14.6843 12.7957 15.0003 12 15.0003C11.2044 15.0003 10.4413 14.6843 9.87872 14.1216C9.31611 13.559 9.00004 12.796 9.00004 12.0003ZM16.953 20.5753C21.636 21.2483 24.867 15.6203 21.812 11.9853C22.478 11.1515 22.8791 10.1373 22.9637 9.0735C23.0483 8.00969 22.8126 6.9449 22.2868 6.01625C21.761 5.08759 20.9692 4.3376 20.0135 3.86283C19.0577 3.38806 17.9817 3.21026 16.924 3.35232C16.5271 2.37163 15.8464 1.5318 14.9691 0.94046C14.0919 0.349118 13.058 0.0332031 12 0.0332031C10.9421 0.0332031 9.90821 0.349118 9.03094 0.94046C8.15367 1.5318 7.47296 2.37163 7.07604 3.35232C6.01838 3.20994 4.94232 3.3875 3.98646 3.86211C3.03061 4.33672 2.23875 5.08666 1.71288 6.01531C1.18702 6.94395 0.95125 8.00878 1.03594 9.07262C1.12062 10.1365 1.52189 11.1506 2.18804 11.9843C-0.867956 15.6213 2.36504 21.2473 7.04704 20.5743C7.42689 21.5808 8.10435 22.4477 8.98919 23.0595C9.87404 23.6713 10.9243 23.999 12 23.999C13.0758 23.999 14.126 23.6713 15.0109 23.0595C15.8957 22.4477 16.5732 21.5808 16.953 20.5743V20.5753ZM7.43804 17.3893C4.78804 18.6363 2.49404 14.8893 5.22004 13.3163C5.45327 13.1847 5.64733 12.9935 5.78237 12.7623C5.91741 12.5311 5.98857 12.2681 5.98857 12.0003C5.98857 11.7325 5.91741 11.4696 5.78237 11.2383C5.64733 11.0071 5.45327 10.8159 5.22004 10.6843C2.56704 9.14832 4.70004 5.10532 7.44204 6.61632C7.6702 6.74993 7.92961 6.82086 8.19401 6.82193C8.4584 6.82299 8.71838 6.75415 8.9476 6.62239C9.17683 6.49062 9.36715 6.3006 9.49928 6.0716C9.63142 5.84259 9.70068 5.58272 9.70004 5.31832C9.70004 4.70833 9.94236 4.12331 10.3737 3.69198C10.805 3.26064 11.39 3.01832 12 3.01832C12.61 3.01832 13.1951 3.26064 13.6264 3.69198C14.0577 4.12331 14.3 4.70833 14.3 5.31832C14.3001 5.58238 14.3699 5.84174 14.5023 6.07019C14.6347 6.29864 14.8251 6.48809 15.0542 6.61938C15.2833 6.75067 15.543 6.81916 15.8071 6.81792C16.0711 6.81668 16.3302 6.74576 16.558 6.61232C19.3 5.10532 21.432 9.15032 18.78 10.6843C18.5468 10.8159 18.3528 11.0071 18.2177 11.2383C18.0827 11.4696 18.0115 11.7325 18.0115 12.0003C18.0115 12.2681 18.0827 12.5311 18.2177 12.7623C18.3528 12.9935 18.5468 13.1847 18.78 13.3163C21.507 14.8923 19.209 18.6363 16.562 17.3893C16.3342 17.2549 16.0748 17.1832 15.8102 17.1814C15.5457 17.1796 15.2853 17.2478 15.0556 17.3791C14.826 17.5104 14.6351 17.7001 14.5024 17.929C14.3697 18.1579 14.2999 18.4178 14.3 18.6823C14.3 19.2923 14.0577 19.8773 13.6264 20.3087C13.1951 20.74 12.61 20.9823 12 20.9823C11.39 20.9823 10.805 20.74 10.3737 20.3087C9.94236 19.8773 9.70004 19.2923 9.70004 18.6823C9.70021 18.4178 9.63041 18.1579 9.49771 17.929C9.365 17.7001 9.17413 17.5104 8.94444 17.3791C8.71475 17.2478 8.45442 17.1796 8.18987 17.1814C7.92531 17.1832 7.66593 17.2549 7.43804 17.3893Z" fill="black"/>
</g>
<defs>
<clipPath id="clip0_606_6747">
<rect width="24" height="24" fill="white"/>
</clipPath>
</defs>
</svg>
