<svg width="24" height="24" viewBox="0 0 24 24" fill="none" xmlns="http://www.w3.org/2000/svg">
<g clip-path="url(#clip0_606_6783)">
<path d="M16.6519 15.548C16.903 15.8525 17.024 16.2437 16.9886 16.6368C16.9532 17.0299 16.7643 17.3932 16.4629 17.648C15.4796 18.4565 14.264 18.9301 12.9929 19C12.1888 18.992 11.4149 18.6932 10.8139 18.159C10.7388 18.0963 10.66 18.0382 10.5779 17.985C10.1748 18.1328 9.8021 18.3527 9.47788 18.634C9.17688 18.8884 8.78788 19.0141 8.39495 18.9839C8.00203 18.9538 7.63675 18.7702 7.37807 18.4729C7.1194 18.1756 6.98811 17.7885 7.01259 17.3952C7.03706 17.0018 7.21534 16.634 7.50888 16.371C8.37559 15.5886 9.47221 15.1076 10.6349 15C11.3862 15.0144 12.1074 15.2983 12.6669 15.8C12.9229 16 12.9369 16 12.9929 16C13.5615 15.9324 14.0993 15.7049 14.5439 15.344C14.8507 15.0922 15.2449 14.9722 15.64 15.0104C16.0352 15.0487 16.399 15.242 16.6519 15.548ZM15.4999 10H8.49988C8.10205 10 7.72052 10.1581 7.43922 10.4394C7.15791 10.7207 6.99988 11.1022 6.99988 11.5C6.99988 11.8978 7.15791 12.2794 7.43922 12.5607C7.72052 12.842 8.10205 13 8.49988 13H15.4999C15.8977 13 16.2792 12.842 16.5605 12.5607C16.8418 12.2794 16.9999 11.8978 16.9999 11.5C16.9999 11.1022 16.8418 10.7207 16.5605 10.4394C16.2792 10.1581 15.8977 10 15.4999 10ZM21.9999 7.15702V18.5C21.9983 19.9582 21.4183 21.3562 20.3872 22.3874C19.3561 23.4185 17.9581 23.9984 16.4999 24H7.49988C6.04167 23.9984 4.64365 23.4185 3.61254 22.3874C2.58144 21.3562 2.00147 19.9582 1.99988 18.5V5.50002C2.00147 4.04182 2.58144 2.64379 3.61254 1.61269C4.64365 0.581581 6.04167 0.00160807 7.49988 1.99011e-05H14.8429C15.5654 -0.00193016 16.2812 0.139451 16.9487 0.415979C17.6163 0.692507 18.2224 1.09869 18.7319 1.61102L20.3889 3.26802C20.9012 3.77754 21.3074 4.38361 21.5839 5.05115C21.8604 5.7187 22.0018 6.43447 21.9999 7.15702ZM18.9999 18.5V7.00002H16.9999C16.4694 7.00002 15.9607 6.78931 15.5857 6.41423C15.2106 6.03916 14.9999 5.53045 14.9999 5.00002V3.00002H7.49988C6.83684 3.00002 6.20095 3.26341 5.73211 3.73225C5.26327 4.20109 4.99988 4.83698 4.99988 5.50002V18.5C4.99988 19.1631 5.26327 19.7989 5.73211 20.2678C6.20095 20.7366 6.83684 21 7.49988 21H16.4999C17.1629 21 17.7988 20.7366 18.2676 20.2678C18.7365 19.7989 18.9999 19.1631 18.9999 18.5Z" fill="black"/>
</g>
<defs>
<clipPath id="clip0_606_6783">
<rect width="24" height="24" fill="white"/>
</clipPath>
</defs>
</svg>
