<svg width="24" height="24" viewBox="0 0 24 24" fill="none" xmlns="http://www.w3.org/2000/svg">
<path d="M17.5001 0H8.50006C7.48734 0.00110132 6.49458 0.281796 5.63121 0.811144C4.76784 1.34049 4.06739 2.09794 3.60706 3H2.50006C2.10224 3 1.72071 3.15804 1.4394 3.43934C1.1581 3.72064 1.00006 4.10218 1.00006 4.5C1.00006 4.89782 1.1581 5.27936 1.4394 5.56066C1.72071 5.84196 2.10224 6 2.50006 6H3.00006V8H2.50006C2.10224 8 1.72071 8.15804 1.4394 8.43934C1.1581 8.72064 1.00006 9.10218 1.00006 9.5C1.00006 9.89782 1.1581 10.2794 1.4394 10.5607C1.72071 10.842 2.10224 11 2.50006 11H3.00006V13H2.50006C2.10224 13 1.72071 13.158 1.4394 13.4393C1.1581 13.7206 1.00006 14.1022 1.00006 14.5C1.00006 14.8978 1.1581 15.2794 1.4394 15.5607C1.72071 15.842 2.10224 16 2.50006 16H3.00006V18H2.50006C2.10224 18 1.72071 18.158 1.4394 18.4393C1.1581 18.7206 1.00006 19.1022 1.00006 19.5C1.00006 19.8978 1.1581 20.2794 1.4394 20.5607C1.72071 20.842 2.10224 21 2.50006 21H3.60706C4.06739 21.9021 4.76784 22.6595 5.63121 23.1889C6.49458 23.7182 7.48734 23.9989 8.50006 24H17.5001C18.9583 23.9984 20.3563 23.4184 21.3874 22.3873C22.4185 21.3562 22.9985 19.9582 23.0001 18.5V5.5C22.9985 4.0418 22.4185 2.64377 21.3874 1.61267C20.3563 0.581561 18.9583 0.00158817 17.5001 0V0ZM20.0001 18.5C20.0001 19.163 19.7367 19.7989 19.2678 20.2678C18.799 20.7366 18.1631 21 17.5001 21H8.50006C7.83702 21 7.20114 20.7366 6.73229 20.2678C6.26345 19.7989 6.00006 19.163 6.00006 18.5V5.5C6.00006 4.83696 6.26345 4.20107 6.73229 3.73223C7.20114 3.26339 7.83702 3 8.50006 3H17.5001C18.1631 3 18.799 3.26339 19.2678 3.73223C19.7367 4.20107 20.0001 4.83696 20.0001 5.5V18.5ZM10.5001 9.5C10.5001 8.83696 10.7635 8.20107 11.2323 7.73223C11.7011 7.26339 12.337 7 13.0001 7C13.6631 7 14.299 7.26339 14.7678 7.73223C15.2367 8.20107 15.5001 8.83696 15.5001 9.5C15.5001 10.163 15.2367 10.7989 14.7678 11.2678C14.299 11.7366 13.6631 12 13.0001 12C12.337 12 11.7011 11.7366 11.2323 11.2678C10.7635 10.7989 10.5001 10.163 10.5001 9.5ZM16.9881 16.232C17.0032 16.3282 16.997 16.4266 16.9699 16.5202C16.9428 16.6137 16.8955 16.7002 16.8313 16.7735C16.7671 16.8467 16.6875 16.905 16.5984 16.9441C16.5092 16.9833 16.4124 17.0024 16.3151 17H9.65406C9.55668 17.0024 9.45997 16.9833 9.37077 16.9441C9.28157 16.905 9.20206 16.8467 9.13787 16.7735C9.07367 16.7002 9.02635 16.6137 8.99925 16.5202C8.97215 16.4266 8.96595 16.3282 8.98106 16.232C9.84206 11.965 16.1281 11.968 16.9881 16.232Z" fill="black"/>
</svg>
