<svg width="24" height="24" viewBox="0 0 24 24" fill="none" xmlns="http://www.w3.org/2000/svg">
<g clip-path="url(#clip0_606_6947)">
<path d="M16.773 2.89973C16.026 2.26573 15.243 1.59973 14.446 0.875729C14.083 0.544609 13.6516 0.297295 13.1825 0.151278C12.7133 0.00526118 12.2178 -0.0358921 11.731 0.0307287C11.2575 0.0926609 10.8033 0.257743 10.4006 0.514328C9.9978 0.770914 9.65624 1.11275 9.39999 1.51573C8.45001 3.07628 7.73374 4.76756 7.27399 6.53573C7.05567 6.24543 6.77572 6.00712 6.45428 5.83796C6.13285 5.66879 5.77791 5.57297 5.41501 5.55738C5.05211 5.54179 4.69027 5.60683 4.35551 5.74781C4.02075 5.88879 3.7214 6.10222 3.47899 6.37273C1.78386 8.10628 0.845276 10.4412 0.868993 12.8657C0.846455 15.3263 1.64777 17.7236 3.14536 19.6761C4.64294 21.6285 6.75069 23.0238 9.13299 23.6397C10.0668 23.8772 11.0264 23.9982 11.99 23.9997C13.4522 24.0017 14.9004 23.7153 16.2517 23.157C17.6031 22.5987 18.8311 21.7795 19.8655 20.7461C20.9 19.7127 21.7205 18.4855 22.2801 17.1346C22.8397 15.7838 23.1275 14.3359 23.127 12.8737C23.127 8.29973 20.183 5.79973 16.773 2.89973ZM16.991 19.2857C16.7049 19.5059 16.4042 19.7063 16.091 19.8857C16.3779 19.2865 16.5282 18.6311 16.531 17.9667C16.531 16.0397 15.188 13.8027 13.531 11.8417C13.3409 11.6193 13.1048 11.4406 12.8391 11.3181C12.5733 11.1957 12.2841 11.1322 11.9915 11.1322C11.6989 11.1322 11.4097 11.1957 11.1439 11.3181C10.8782 11.4406 10.6421 11.6193 10.452 11.8417C8.09999 14.5997 6.62699 17.5817 7.99999 19.9997C6.73731 19.2896 5.6882 18.2537 4.96198 17.0002C4.23575 15.7467 3.85901 14.3214 3.87099 12.8727C3.83997 11.4539 4.31699 10.0708 5.21599 8.97273C5.35733 9.20473 5.50899 9.42906 5.67099 9.64573C5.93853 10.007 6.30607 10.2819 6.72816 10.4365C7.15026 10.5911 7.60841 10.6187 8.04599 10.5157C8.48988 10.4168 8.89579 10.1918 9.21506 9.86796C9.53433 9.54408 9.75339 9.13499 9.84599 8.68973C10.2156 6.72703 10.9231 4.8434 11.937 3.12273C11.9578 3.08856 11.9862 3.05967 12.0201 3.03833C12.0539 3.01699 12.0922 3.00378 12.132 2.99973C12.185 2.99282 12.2388 2.99757 12.2898 3.01363C12.3407 3.0297 12.3876 3.05669 12.427 3.09273C13.251 3.84173 14.06 4.52973 14.832 5.18373C18.021 7.89173 20.127 9.68373 20.127 12.8697C20.1311 14.1083 19.8504 15.3312 19.3066 16.444C18.7629 17.5569 17.9706 18.5298 16.991 19.2877V19.2857Z" fill="black"/>
</g>
<defs>
<clipPath id="clip0_606_6947">
<rect width="24" height="24" fill="white"/>
</clipPath>
</defs>
</svg>
