<svg width="24" height="24" viewBox="0 0 24 24" fill="none" xmlns="http://www.w3.org/2000/svg">
<path d="M8.50012 22.4367C8.18311 22.4367 7.87422 22.3364 7.6178 22.15C7.36137 21.9636 7.1706 21.7007 7.07285 21.3992C6.9751 21.0976 6.97541 20.7728 7.07374 20.4714C7.17206 20.1701 7.36334 19.9076 7.62012 19.7217C10.1321 17.9017 10.4851 14.5407 10.4981 11.4927C10.5 11.0957 10.6591 10.7157 10.9406 10.4358C11.2222 10.156 11.6032 9.99913 12.0001 9.99967H12.0061C12.2032 10.0005 12.3982 10.0401 12.5799 10.1162C12.7617 10.1924 12.9266 10.3036 13.0654 10.4436C13.2041 10.5835 13.3139 10.7495 13.3885 10.9319C13.4631 11.1143 13.501 11.3096 13.5001 11.5067C13.4901 13.8067 13.4671 19.1927 9.38012 22.1507C9.12467 22.3372 8.81641 22.4373 8.50012 22.4367ZM14.5281 23.4307C15.3411 22.4178 16.0092 21.2967 16.5131 20.0997C16.6688 19.7334 16.6726 19.3203 16.5237 18.9512C16.3748 18.5822 16.0854 18.2873 15.7191 18.1317C15.3529 17.976 14.9398 17.9722 14.5707 18.1211C14.2016 18.27 13.9068 18.5594 13.7511 18.9257C13.3586 19.8657 12.8366 20.7462 12.2001 21.5417C11.9496 21.8508 11.8322 22.2467 11.8736 22.6424C11.9151 23.0381 12.112 23.4012 12.4211 23.6517C12.7302 23.9022 13.1262 24.0196 13.5219 23.9782C13.9176 23.9367 14.2806 23.7398 14.5311 23.4307H14.5281ZM17.9361 13.5927C18.0001 12.5717 18.0001 11.6627 18.0001 10.9997C18.0003 10.0397 17.7701 9.09367 17.329 8.24108C16.8878 7.38848 16.2485 6.65419 15.4647 6.09987C14.6809 5.54555 13.7756 5.18739 12.8247 5.05545C11.8738 4.92352 10.9052 5.02167 10.0001 5.34167C9.8114 5.40494 9.63715 5.50515 9.48754 5.63644C9.33793 5.76774 9.21595 5.9275 9.12871 6.10641C9.04146 6.28532 8.9907 6.47981 8.97938 6.67854C8.96806 6.87727 8.9964 7.07626 9.06276 7.26393C9.12912 7.45159 9.23217 7.62417 9.3659 7.77161C9.49963 7.91904 9.66136 8.03839 9.84168 8.12269C10.022 8.20699 10.2173 8.25456 10.4162 8.26263C10.6151 8.27069 10.8136 8.23909 11.0001 8.16967C11.4527 8.00964 11.9372 7.96058 12.4127 8.02659C12.8882 8.09261 13.3409 8.27178 13.7328 8.54906C14.1247 8.82633 14.4444 9.19361 14.6649 9.62004C14.8854 10.0465 15.0004 10.5196 15.0001 10.9997C15.0001 11.6587 15.0001 12.4787 14.9421 13.4067C14.9295 13.6036 14.9559 13.801 15.0197 13.9877C15.0835 14.1744 15.1836 14.3467 15.3141 14.4947C15.4446 14.6427 15.603 14.7634 15.7803 14.8501C15.9576 14.9367 16.1502 14.9876 16.3471 14.9997C16.3778 14.9997 16.4088 14.9997 16.4401 14.9997C16.8218 14.9996 17.1892 14.8541 17.4673 14.5927C17.7454 14.3313 17.9135 13.9736 17.9371 13.5927H17.9361ZM4.69112 18.9557C5.34255 18.8795 5.97111 18.669 6.53712 18.3377C8.97812 16.8727 8.99012 13.7707 9.00012 11.5057C9.00091 11.3086 8.96286 11.1133 8.88814 10.931C8.81343 10.7486 8.70351 10.5828 8.56468 10.4429C8.42584 10.303 8.2608 10.1919 8.079 10.1159C7.8972 10.0398 7.70219 10.0003 7.50512 9.99967H7.50012C7.10333 9.99966 6.72271 10.1569 6.44158 10.4369C6.16044 10.7169 6.00171 11.0969 6.00012 11.4937C5.99112 13.8787 5.82812 15.2657 5.00012 15.7647C4.78807 15.8815 4.55486 15.9549 4.31412 15.9807C3.93605 16.0288 3.59047 16.219 3.34757 16.5127C3.10467 16.8064 2.98267 17.1815 3.00635 17.5619C3.03003 17.9422 3.19761 18.2993 3.47505 18.5606C3.7525 18.8219 4.11901 18.9678 4.50012 18.9687C4.56401 18.9687 4.62783 18.9644 4.69112 18.9557ZM20.7191 23.1277C22.3499 19.2982 23.1282 15.1599 23.0001 10.9997C23.0015 9.61148 22.7389 8.23569 22.2261 6.94567C22.0792 6.57595 21.7914 6.27975 21.4261 6.12222C21.0608 5.96469 20.6478 5.95874 20.2781 6.10567C19.9084 6.2526 19.6122 6.54038 19.4547 6.9057C19.2971 7.27102 19.2912 7.68395 19.4381 8.05367C19.811 8.99103 20.0017 9.99087 20.0001 10.9997C20.1215 14.7258 19.4373 18.4342 17.9941 21.8717C17.8276 22.233 17.8114 22.6457 17.9491 23.019C18.0869 23.3923 18.3673 23.6956 18.7286 23.8622C19.09 24.0287 19.5027 24.0449 19.876 23.9072C20.2493 23.7694 20.5526 23.489 20.7191 23.1277ZM4.00012 12.4997V10.9997C4.00028 9.61611 4.35924 8.25625 5.04197 7.05288C5.72469 5.84951 6.70784 4.84377 7.89538 4.13389C9.08293 3.424 10.4343 3.03423 11.8175 3.00264C13.2007 2.97105 14.5684 3.29873 15.7871 3.95367C16.1364 4.13541 16.5432 4.17252 16.9196 4.05698C17.296 3.94144 17.6119 3.68252 17.7991 3.3361C17.9863 2.98968 18.0298 2.58354 17.9202 2.20535C17.8105 1.82717 17.5566 1.50725 17.2131 1.31467C15.5374 0.412845 13.6565 -0.0388453 11.754 0.00373072C9.85155 0.0463068 7.99267 0.581693 6.35901 1.55757C4.72535 2.53346 3.3728 3.91645 2.43352 5.57142C1.49423 7.22639 1.00035 9.09673 1.00012 10.9997V12.4997C1.00012 12.8975 1.15816 13.279 1.43946 13.5603C1.72077 13.8416 2.1023 13.9997 2.50012 13.9997C2.89795 13.9997 3.27948 13.8416 3.56078 13.5603C3.84209 13.279 4.00012 12.8975 4.00012 12.4997Z" fill="black"/>
</svg>
