<svg width="24" height="24" viewBox="0 0 24 24" fill="none" xmlns="http://www.w3.org/2000/svg">
<path d="M13.293 18.5861L7.70697 13.0001C7.5195 12.8125 7.41418 12.5582 7.41418 12.2931C7.41418 12.0279 7.5195 11.7736 7.70697 11.5861L13.293 6.00006C13.4328 5.86025 13.611 5.76505 13.8049 5.72648C13.9989 5.68791 14.1999 5.70771 14.3826 5.78338C14.5653 5.85905 14.7215 5.98719 14.8314 6.1516C14.9413 6.31601 14.9999 6.50931 15 6.70706V17.8791C14.9999 18.0768 14.9413 18.2701 14.8314 18.4345C14.7215 18.5989 14.5653 18.7271 14.3826 18.8027C14.1999 18.8784 13.9989 18.8982 13.8049 18.8596C13.611 18.8211 13.4328 18.7259 13.293 18.5861Z" fill="black"/>
</svg>
