<svg width="24" height="24" viewBox="0 0 24 24" fill="none" xmlns="http://www.w3.org/2000/svg">
<g clip-path="url(#clip0_606_6497)">
<path d="M21 15.0349V11.4989C20.9989 9.90439 20.5745 8.33879 19.7702 6.96206C18.9658 5.58533 17.8104 4.44681 16.422 3.66285C16.2276 2.63229 15.6793 1.702 14.8719 1.03268C14.0645 0.363367 13.0487 -0.00292969 12 -0.00292969C10.9513 -0.00292969 9.93545 0.363367 9.12806 1.03268C8.32068 1.702 7.77242 2.63229 7.578 3.66285C6.18957 4.44681 5.03415 5.58533 4.22983 6.96206C3.42551 8.33879 3.00111 9.90439 3 11.4989V15.0349C2.16702 15.1551 1.40526 15.5714 0.854282 16.2076C0.303308 16.8438 2.44345e-05 17.6572 0 18.4989L0 20.4989C0 21.4271 0.368749 22.3174 1.02513 22.9737C1.6815 23.6301 2.57174 23.9989 3.5 23.9989H5.5C6.42826 23.9989 7.3185 23.6301 7.97487 22.9737C8.63125 22.3174 9 21.4271 9 20.4989V18.4989C8.99998 17.6572 8.69669 16.8438 8.14572 16.2076C7.59474 15.5714 6.83298 15.1551 6 15.0349V11.4989C5.99985 10.6151 6.19533 9.74223 6.57242 8.94294C6.9495 8.14365 7.49883 7.43773 8.181 6.87586C8.5852 7.5244 9.1479 8.05932 9.81606 8.43019C10.4842 8.80107 11.2358 8.99568 12 8.99568C12.7642 8.99568 13.5158 8.80107 14.1839 8.43019C14.8521 8.05932 15.4148 7.5244 15.819 6.87586C16.5012 7.43773 17.0505 8.14365 17.4276 8.94294C17.8047 9.74223 18.0001 10.6151 18 11.4989V15.0349C17.167 15.1551 16.4053 15.5714 15.8543 16.2076C15.3033 16.8438 15 17.6572 15 18.4989V20.4989C15 21.4271 15.3687 22.3174 16.0251 22.9737C16.6815 23.6301 17.5717 23.9989 18.5 23.9989H20.5C21.4283 23.9989 22.3185 23.6301 22.9749 22.9737C23.6313 22.3174 24 21.4271 24 20.4989V18.4989C24 17.6572 23.6967 16.8438 23.1457 16.2076C22.5947 15.5714 21.833 15.1551 21 15.0349ZM6 20.4989C6 20.6315 5.94732 20.7586 5.85355 20.8524C5.75979 20.9462 5.63261 20.9989 5.5 20.9989H3.5C3.36739 20.9989 3.24021 20.9462 3.14645 20.8524C3.05268 20.7586 3 20.6315 3 20.4989V18.4989C3 18.3662 3.05268 18.2391 3.14645 18.1453C3.24021 18.0515 3.36739 17.9989 3.5 17.9989H5.5C5.63261 17.9989 5.75979 18.0515 5.85355 18.1453C5.94732 18.2391 6 18.3662 6 18.4989V20.4989ZM12 5.99886C11.7033 5.99886 11.4133 5.91088 11.1666 5.74606C10.92 5.58124 10.7277 5.34697 10.6142 5.07288C10.5006 4.79879 10.4709 4.49719 10.5288 4.20622C10.5867 3.91525 10.7296 3.64797 10.9393 3.43819C11.1491 3.22842 11.4164 3.08555 11.7074 3.02768C11.9983 2.9698 12.2999 2.9995 12.574 3.11304C12.8481 3.22657 13.0824 3.41883 13.2472 3.6655C13.412 3.91217 13.5 4.20218 13.5 4.49886C13.5 4.89668 13.342 5.27821 13.0607 5.55952C12.7794 5.84082 12.3978 5.99886 12 5.99886ZM21 20.4989C21 20.6315 20.9473 20.7586 20.8536 20.8524C20.7598 20.9462 20.6326 20.9989 20.5 20.9989H18.5C18.3674 20.9989 18.2402 20.9462 18.1464 20.8524C18.0527 20.7586 18 20.6315 18 20.4989V18.4989C18 18.3662 18.0527 18.2391 18.1464 18.1453C18.2402 18.0515 18.3674 17.9989 18.5 17.9989H20.5C20.6326 17.9989 20.7598 18.0515 20.8536 18.1453C20.9473 18.2391 21 18.3662 21 18.4989V20.4989Z" fill="black"/>
</g>
<defs>
<clipPath id="clip0_606_6497">
<rect width="24" height="24" fill="white"/>
</clipPath>
</defs>
</svg>
