<svg width="24" height="24" viewBox="0 0 24 24" fill="none" xmlns="http://www.w3.org/2000/svg">
<path d="M15.5 24H8.5C7.0418 23.9984 5.64377 23.4184 4.61267 22.3873C3.58156 21.3562 3.00159 19.9582 3 18.5V5.5C3.00159 4.0418 3.58156 2.64377 4.61267 1.61267C5.64377 0.581561 7.0418 0.00158817 8.5 0L15.5 0C16.9582 0.00158817 18.3562 0.581561 19.3873 1.61267C20.4184 2.64377 20.9984 4.0418 21 5.5V18.5C20.9984 19.9582 20.4184 21.3562 19.3873 22.3873C18.3562 23.4184 16.9582 23.9984 15.5 24ZM8.5 3C7.83696 3 7.20107 3.26339 6.73223 3.73223C6.26339 4.20107 6 4.83696 6 5.5V18.5C6 19.163 6.26339 19.7989 6.73223 20.2678C7.20107 20.7366 7.83696 21 8.5 21H15.5C16.163 21 16.7989 20.7366 17.2678 20.2678C17.7366 19.7989 18 19.163 18 18.5V5.5C18 4.83696 17.7366 4.20107 17.2678 3.73223C16.7989 3.26339 16.163 3 15.5 3H8.5Z" fill="black"/>
<path d="M11.9999 9.00072C13.1044 9.00072 13.9999 8.1053 13.9999 7.00073C13.9999 5.89616 13.1044 5.00073 11.9999 5.00073C10.8953 5.00073 9.99988 5.89616 9.99988 7.00073C9.99988 8.1053 10.8953 9.00072 11.9999 9.00072Z" fill="black"/>
<path d="M12 19.5C11.11 19.5 10.24 19.2361 9.49993 18.7416C8.75991 18.2472 8.18314 17.5443 7.84254 16.7221C7.50195 15.8998 7.41283 14.995 7.58647 14.1221C7.7601 13.2492 8.18868 12.4474 8.81802 11.818C9.44736 11.1887 10.2492 10.7601 11.1221 10.5865C11.995 10.4128 12.8998 10.5019 13.7221 10.8425C14.5443 11.1831 15.2471 11.7599 15.7416 12.4999C16.2361 13.24 16.5 14.11 16.5 15C16.4987 16.1931 16.0241 17.3369 15.1805 18.1805C14.3369 19.0241 13.1931 19.4987 12 19.5ZM12 13.5C11.7033 13.5 11.4133 13.588 11.1666 13.7528C10.92 13.9176 10.7277 14.1519 10.6142 14.426C10.5006 14.7001 10.4709 15.0017 10.5288 15.2926C10.5867 15.5836 10.7296 15.8509 10.9393 16.0607C11.1491 16.2704 11.4164 16.4133 11.7074 16.4712C11.9983 16.5291 12.2999 16.4994 12.574 16.3858C12.8481 16.2723 13.0824 16.08 13.2472 15.8334C13.412 15.5867 13.5 15.2967 13.5 15C13.5 14.6022 13.342 14.2206 13.0607 13.9393C12.7793 13.658 12.3978 13.5 12 13.5Z" fill="black"/>
</svg>
