<svg width="24" height="24" viewBox="0 0 24 24" fill="none" xmlns="http://www.w3.org/2000/svg">
<g clip-path="url(#clip0_606_6974)">
<path d="M16.5001 14.5C16.5001 14.8978 16.3421 15.2794 16.0608 15.5607C15.7795 15.842 15.3979 16 15.0001 16H13.5001V17.5C13.5001 17.8978 13.3421 18.2794 13.0608 18.5607C12.7795 18.842 12.3979 19 12.0001 19C11.6023 19 11.2208 18.842 10.9395 18.5607C10.6582 18.2794 10.5001 17.8978 10.5001 17.5V16H9.00012C8.6023 16 8.22077 15.842 7.93946 15.5607C7.65816 15.2794 7.50012 14.8978 7.50012 14.5C7.50012 14.1022 7.65816 13.7207 7.93946 13.4394C8.22077 13.1581 8.6023 13 9.00012 13H10.5001V11.5C10.5001 11.1022 10.6582 10.7207 10.9395 10.4394C11.2208 10.1581 11.6023 10 12.0001 10C12.3979 10 12.7795 10.1581 13.0608 10.4394C13.3421 10.7207 13.5001 11.1022 13.5001 11.5V13H15.0001C15.3979 13 15.7795 13.1581 16.0608 13.4394C16.3421 13.7207 16.5001 14.1022 16.5001 14.5ZM22.0001 8.15702V18.5C21.9985 19.9582 21.4186 21.3562 20.3875 22.3874C19.3563 23.4185 17.9583 23.9984 16.5001 24H7.50012C6.04192 23.9984 4.64389 23.4185 3.61279 22.3874C2.58168 21.3562 2.00171 19.9582 2.00012 18.5V5.50002C2.00171 4.04182 2.58168 2.64379 3.61279 1.61269C4.64389 0.581581 6.04192 0.00160807 7.50012 1.99011e-05H13.8431C14.5657 -0.00193016 15.2814 0.139451 15.949 0.415979C16.6165 0.692507 17.2226 1.09869 17.7321 1.61102L20.3891 4.26802C20.9015 4.77754 21.3076 5.38361 21.5842 6.05115C21.8607 6.7187 22.0021 7.43447 22.0001 8.15702ZM19.0001 18.5V9.00002H15.0001C14.4697 9.00002 13.961 8.78931 13.5859 8.41423C13.2108 8.03916 13.0001 7.53045 13.0001 7.00002V3.00002H7.50012C6.83708 3.00002 6.2012 3.26341 5.73236 3.73225C5.26351 4.20109 5.00012 4.83698 5.00012 5.50002V18.5C5.00012 19.1631 5.26351 19.7989 5.73236 20.2678C6.2012 20.7366 6.83708 21 7.50012 21H16.5001C17.1632 21 17.799 20.7366 18.2679 20.2678C18.7367 19.7989 19.0001 19.1631 19.0001 18.5Z" fill="black"/>
</g>
<defs>
<clipPath id="clip0_606_6974">
<rect width="24" height="24" fill="white"/>
</clipPath>
</defs>
</svg>
