<svg width="24" height="24" viewBox="0 0 24 24" fill="none" xmlns="http://www.w3.org/2000/svg">
<g clip-path="url(#clip0_606_6608)">
<path d="M18.5001 1.00024H13.5001C12.0419 1.00183 10.6439 1.5818 9.61276 2.61291C8.58165 3.64402 8.00168 5.04204 8.00009 6.50024V12.6072C6.95157 12.0715 5.75878 11.8863 4.59719 12.0791C3.43559 12.2718 2.36651 12.8322 1.5472 13.6779C0.727903 14.5236 0.201634 15.6099 0.0458144 16.777C-0.110006 17.9442 0.112849 19.1305 0.681597 20.1615C1.25034 21.1925 2.13496 22.0138 3.20531 22.5045C4.27566 22.9952 5.47524 23.1295 6.62759 22.8875C7.77995 22.6456 8.82423 22.0402 9.60683 21.1604C10.3894 20.2806 10.869 19.1729 10.9751 18.0002H11.0001V6.50024C11.0001 5.8372 11.2635 5.20132 11.7323 4.73248C12.2012 4.26364 12.837 4.00024 13.5001 4.00024H18.5001C19.1631 4.00024 19.799 4.26364 20.2679 4.73248C20.7367 5.20132 21.0001 5.8372 21.0001 6.50024V12.6072C19.9516 12.0715 18.7588 11.8863 17.5972 12.0791C16.4356 12.2718 15.3665 12.8322 14.5472 13.6779C13.7279 14.5236 13.2016 15.6099 13.0458 16.777C12.89 17.9442 13.1129 19.1305 13.6816 20.1615C14.2503 21.1925 15.135 22.0138 16.2053 22.5045C17.2757 22.9952 18.4752 23.1295 19.6276 22.8875C20.7799 22.6456 21.8242 22.0402 22.6068 21.1604C23.3894 20.2806 23.869 19.1729 23.9751 18.0002H24.0001V6.50024C23.9985 5.04204 23.4185 3.64402 22.3874 2.61291C21.3563 1.5818 19.9583 1.00183 18.5001 1.00024ZM5.50009 20.0002C5.00564 20.0002 4.52229 19.8536 4.11116 19.5789C3.70004 19.3042 3.37961 18.9138 3.19039 18.457C3.00117 18.0001 2.95166 17.4975 3.04813 17.0125C3.14459 16.5276 3.38269 16.0821 3.73232 15.7325C4.08195 15.3828 4.52741 15.1447 5.01236 15.0483C5.49732 14.9518 5.99998 15.0013 6.4568 15.1905C6.91361 15.3798 7.30406 15.7002 7.57876 16.1113C7.85347 16.5224 8.00009 17.0058 8.00009 17.5002C8.00009 18.1633 7.7367 18.7992 7.26786 19.268C6.79902 19.7369 6.16313 20.0002 5.50009 20.0002ZM18.5001 20.0002C18.0056 20.0002 17.5223 19.8536 17.1112 19.5789C16.7 19.3042 16.3796 18.9138 16.1904 18.457C16.0012 18.0001 15.9517 17.4975 16.0481 17.0125C16.1446 16.5276 16.3827 16.0821 16.7323 15.7325C17.082 15.3828 17.5274 15.1447 18.0124 15.0483C18.4973 14.9518 19 15.0013 19.4568 15.1905C19.9136 15.3798 20.3041 15.7002 20.5788 16.1113C20.8535 16.5224 21.0001 17.0058 21.0001 17.5002C21.0001 18.1633 20.7367 18.7992 20.2679 19.268C19.799 19.7369 19.1631 20.0002 18.5001 20.0002Z" fill="black"/>
</g>
<defs>
<clipPath id="clip0_606_6608">
<rect width="24" height="24" fill="white"/>
</clipPath>
</defs>
</svg>
