<svg width="24" height="24" viewBox="0 0 24 24" fill="none" xmlns="http://www.w3.org/2000/svg">
<g clip-path="url(#clip0_606_6538)">
<path d="M14.1221 24H9.87708C7.57717 24.0089 5.3659 23.1135 3.72008 21.507C2.04889 19.824 0.829262 17.7465 0.174082 15.467C-0.013476 14.8322 -0.0505072 14.1623 0.0659269 13.5107C0.182361 12.8591 0.449056 12.2435 0.844853 11.7129C1.24065 11.1823 1.75466 10.7512 2.34609 10.4539C2.93753 10.1566 3.59012 10.0012 4.25208 10H19.7521C20.4124 10.0059 21.0625 10.1644 21.6515 10.4631C22.2404 10.7618 22.7524 11.1927 23.1473 11.722C23.5422 12.2513 23.8094 12.8647 23.928 13.5144C24.0467 14.164 24.0135 14.8323 23.8311 15.467C23.1749 17.7466 21.9547 19.8239 20.2831 21.507C18.6365 23.1148 16.4234 24.0103 14.1221 24ZM4.25208 13C4.05764 12.9978 3.86547 13.042 3.69155 13.1289C3.51762 13.2159 3.36696 13.3431 3.25208 13.5C3.13271 13.6592 3.05241 13.8442 3.01767 14.0402C2.98293 14.2361 2.99472 14.4375 3.05208 14.628C3.57091 16.4193 4.5273 18.0534 5.83508 19.383C6.91805 20.4315 8.36977 21.0122 9.87708 21H14.1221C15.6288 21.0114 17.0798 20.4304 18.1621 19.382C19.4705 18.0522 20.4276 16.4178 20.9471 14.626C21.0044 14.4355 21.0162 14.2341 20.9815 14.0382C20.9468 13.8422 20.8665 13.6572 20.7471 13.498C20.6322 13.3411 20.4815 13.2139 20.3076 13.1269C20.1337 13.04 19.9415 12.9958 19.7471 12.998L4.25208 13ZM17.0001 6.5C17.0181 5.14231 16.5008 3.83213 15.5601 2.853C15.3752 2.68077 15.2296 2.47083 15.133 2.23739C15.0363 2.00395 14.991 1.75248 15.0001 1.5C15.0001 1.10218 14.842 0.720644 14.5607 0.43934C14.2794 0.158035 13.8979 0 13.5001 0V0C13.1023 0 12.7207 0.158035 12.4394 0.43934C12.1581 0.720644 12.0001 1.10218 12.0001 1.5C11.9914 2.14629 12.1145 2.78756 12.362 3.38468C12.6094 3.9818 12.9759 4.52223 13.4391 4.973C13.8161 5.39055 14.0171 5.93768 14.0001 6.5C14.0001 6.89782 14.1581 7.27936 14.4394 7.56066C14.7207 7.84196 15.1023 8 15.5001 8C15.8979 8 16.2794 7.84196 16.5607 7.56066C16.842 7.27936 17.0001 6.89782 17.0001 6.5ZM12.0001 7.5V7.192C12.0003 6.54678 11.8733 5.90786 11.6264 5.31176C11.3795 4.71566 11.0175 4.17408 10.5611 3.718C10.3826 3.54069 10.2411 3.3297 10.1448 3.09727C10.0485 2.86484 9.99929 2.61559 10.0001 2.364V1.5C10.0001 1.10218 9.84205 0.720644 9.56074 0.43934C9.27944 0.158035 8.89791 0 8.50008 0C8.10226 0 7.72073 0.158035 7.43942 0.43934C7.15812 0.720644 7.00008 1.10218 7.00008 1.5V2.364C6.99839 3.00967 7.12479 3.64927 7.37196 4.24576C7.61914 4.84224 7.98219 5.38378 8.44008 5.839C8.62302 6.01269 8.76741 6.2229 8.86388 6.45598C8.96036 6.68907 9.00676 6.93983 9.00008 7.192V7.5C9.00008 7.89782 9.15812 8.27936 9.43942 8.56066C9.72073 8.84196 10.1023 9 10.5001 9C10.8979 9 11.2794 8.84196 11.5607 8.56066C11.842 8.27936 12.0001 7.89782 12.0001 7.5Z" fill="black"/>
</g>
<defs>
<clipPath id="clip0_606_6538">
<rect width="24" height="24" fill="white"/>
</clipPath>
</defs>
</svg>
