<svg width="24" height="24" viewBox="0 0 24 24" fill="none" xmlns="http://www.w3.org/2000/svg">
<g clip-path="url(#clip0_606_6821)">
<path d="M18.4999 24.0001H13.0339C11.1607 24.0329 9.30128 23.6754 7.57381 22.9504C5.84633 22.2254 4.28866 21.1489 2.99989 19.7891C1.9094 18.597 1.08314 17.1879 0.575274 15.6541C0.0674048 14.1203 -0.110614 12.4965 0.0528848 10.8891C0.300973 8.27379 1.39879 5.81165 3.17847 3.87919C4.95815 1.94673 7.32176 0.650308 9.90789 0.188148C11.6068 -0.126982 13.3546 -0.0599384 15.0245 0.384414C16.6943 0.828767 18.2443 1.63928 19.5619 2.75715C20.9568 3.92975 22.0773 5.39433 22.8441 7.04743C23.611 8.70053 24.0055 10.5018 23.9999 12.3241V18.5001C23.998 19.9583 23.418 21.3561 22.3869 22.3872C21.3559 23.4182 19.958 23.9983 18.4999 24.0001ZM12.0299 3.00015C9.78439 2.99821 7.61889 3.8338 5.95672 5.34359C4.29454 6.85338 3.25521 8.9288 3.04189 11.1641C2.91954 12.3565 3.0505 13.5613 3.42618 14.6996C3.80187 15.8378 4.4138 16.8839 5.22189 17.7691C6.22902 18.8197 7.44353 19.6494 8.78835 20.2056C10.1332 20.7618 11.5789 21.0324 13.0339 21.0001H18.4999C19.1629 21.0001 19.7988 20.7368 20.2677 20.2679C20.7365 19.7991 20.9999 19.1632 20.9999 18.5001V12.3241C21.0045 10.94 20.7055 9.5716 20.1239 8.3155C19.5423 7.0594 18.6924 5.94613 17.6339 5.05415C16.0693 3.72529 14.0826 2.99712 12.0299 3.00015ZM11.9999 6.00015C11.6021 6.00015 11.2205 6.15818 10.9392 6.43949C10.6579 6.72079 10.4999 7.10232 10.4999 7.50015C10.4999 7.89797 10.6579 8.2795 10.9392 8.56081C11.2205 8.84211 11.6021 9.00015 11.9999 9.00015C12.3977 9.00015 12.7792 8.84211 13.0605 8.56081C13.3419 8.2795 13.4999 7.89797 13.4999 7.50015C13.4999 7.10232 13.3419 6.72079 13.0605 6.43949C12.7792 6.15818 12.3977 6.00015 11.9999 6.00015ZM12.4999 19.0001C12.1021 19.0001 11.7205 18.8421 11.4392 18.5608C11.1579 18.2795 10.9999 17.898 10.9999 17.5001V13.0001H10.4999C10.1021 13.0001 9.72053 12.8421 9.43923 12.5608C9.15792 12.2795 8.99989 11.898 8.99989 11.5001C8.99989 11.1023 9.15792 10.7208 9.43923 10.4395C9.72053 10.1582 10.1021 10.0001 10.4999 10.0001H11.4999C12.1629 10.0001 12.7988 10.2635 13.2677 10.7324C13.7365 11.2012 13.9999 11.8371 13.9999 12.5001V17.5001C13.9999 17.898 13.8419 18.2795 13.5605 18.5608C13.2792 18.8421 12.8977 19.0001 12.4999 19.0001Z" fill="black"/>
</g>
<defs>
<clipPath id="clip0_606_6821">
<rect width="24" height="24" fill="white"/>
</clipPath>
</defs>
</svg>
