<svg width="24" height="24" viewBox="0 0 24 24" fill="none" xmlns="http://www.w3.org/2000/svg">
<g clip-path="url(#clip0_606_6623)">
<path d="M21.5669 4.39976C21.3529 3.16665 20.7099 2.04884 19.7517 1.24375C18.7934 0.438653 17.5815 -0.00194441 16.3299 -0.000237742H7.65695C6.40521 -0.00218041 5.19306 0.43831 4.23461 1.24343C3.27616 2.04854 2.63307 3.16648 2.41895 4.39976L0.0809464 17.7648C-0.0530375 18.5291 -0.0180783 19.3136 0.18337 20.063C0.384818 20.8124 0.747871 21.5087 1.24704 22.1028C1.74621 22.697 2.36939 23.1747 3.07283 23.5024C3.77627 23.8301 4.54292 23.9999 5.31895 23.9998H18.6809C19.4573 23.9996 20.2241 23.8296 20.9277 23.5015C21.6314 23.1735 22.2546 22.6954 22.7538 22.1008C23.253 21.5063 23.6159 20.8097 23.8172 20.0599C24.0185 19.3101 24.0532 18.5254 23.9189 17.7608L21.5669 4.39976ZM20.4559 20.1718C20.2387 20.4312 19.9671 20.6398 19.6604 20.7829C19.3537 20.926 19.0194 21 18.6809 20.9998H5.31895C4.98064 20.9999 4.64641 20.926 4.33974 20.7831C4.03307 20.6403 3.76139 20.432 3.54381 20.173C3.32622 19.9139 3.168 19.6104 3.08026 19.2837C2.99252 18.9569 2.9774 18.615 3.03595 18.2818L5.37395 4.91776C5.46731 4.38023 5.74761 3.89297 6.16534 3.54203C6.58307 3.19108 7.11136 2.99902 7.65695 2.99976H16.3299C16.8753 2.99882 17.4035 3.1907 17.8211 3.5415C18.2386 3.89229 18.5188 4.37941 18.6119 4.91676L20.9639 18.2798C21.0229 18.6131 21.008 18.9553 20.9202 19.2822C20.8325 19.6091 20.674 19.9128 20.4559 20.1718ZM13.4999 5.49976V6.49976C13.4999 6.89759 13.3419 7.27912 13.0606 7.56042C12.7793 7.84173 12.3978 7.99976 11.9999 7.99976C11.6021 7.99976 11.2206 7.84173 10.9393 7.56042C10.658 7.27912 10.4999 6.89759 10.4999 6.49976V5.49976C10.4999 5.10194 10.658 4.72041 10.9393 4.4391C11.2206 4.1578 11.6021 3.99976 11.9999 3.99976C12.3978 3.99976 12.7793 4.1578 13.0606 4.4391C13.3419 4.72041 13.4999 5.10194 13.4999 5.49976ZM13.4999 11.4998V12.4998C13.4999 12.8976 13.3419 13.2791 13.0606 13.5604C12.7793 13.8417 12.3978 13.9998 11.9999 13.9998C11.6021 13.9998 11.2206 13.8417 10.9393 13.5604C10.658 13.2791 10.4999 12.8976 10.4999 12.4998V11.4998C10.4999 11.1019 10.658 10.7204 10.9393 10.4391C11.2206 10.1578 11.6021 9.99976 11.9999 9.99976C12.3978 9.99976 12.7793 10.1578 13.0606 10.4391C13.3419 10.7204 13.4999 11.1019 13.4999 11.4998ZM13.4999 17.4998V18.4998C13.4999 18.8976 13.3419 19.2791 13.0606 19.5604C12.7793 19.8417 12.3978 19.9998 11.9999 19.9998C11.6021 19.9998 11.2206 19.8417 10.9393 19.5604C10.658 19.2791 10.4999 18.8976 10.4999 18.4998V17.4998C10.4999 17.1019 10.658 16.7204 10.9393 16.4391C11.2206 16.1578 11.6021 15.9998 11.9999 15.9998C12.3978 15.9998 12.7793 16.1578 13.0606 16.4391C13.3419 16.7204 13.4999 17.1019 13.4999 17.4998Z" fill="black"/>
</g>
<defs>
<clipPath id="clip0_606_6623">
<rect width="24" height="24" fill="white"/>
</clipPath>
</defs>
</svg>
