<svg width="24" height="24" viewBox="0 0 24 24" fill="none" xmlns="http://www.w3.org/2000/svg">
<g clip-path="url(#clip0_606_6838)">
<path d="M22.817 14.3542C23.1929 13.9848 23.4913 13.5439 23.6944 13.0576C23.8976 12.5713 24.0015 12.0492 24 11.5222C23.9999 10.8076 23.8026 10.1069 23.4298 9.49728C23.0569 8.88767 22.5231 8.39279 21.887 8.06716C21.4202 5.78947 20.1814 3.74277 18.3798 2.27299C16.5783 0.803212 14.3245 0.000488281 11.9995 0.000488281C9.67446 0.000488281 7.42072 0.803212 5.61918 2.27299C3.81764 3.74277 2.57879 5.78947 2.112 8.06716C1.47618 8.39302 0.942597 8.88798 0.569967 9.49756C0.197337 10.1071 0.000112442 10.8077 0 11.5222C0.00117241 12.4568 0.33018 13.3614 0.929717 14.0785C1.52925 14.7955 2.36132 15.2795 3.281 15.4462C3.63274 16.1295 4.06625 16.7675 4.572 17.3462C3.32724 18.7197 2.49203 20.4143 2.161 22.2382C2.12628 22.4321 2.13011 22.631 2.17228 22.8235C2.21446 23.016 2.29414 23.1983 2.40679 23.36C2.51943 23.5217 2.66283 23.6596 2.82879 23.7658C2.99475 23.872 3.18001 23.9445 3.374 23.9792C3.46193 23.9936 3.5509 24.0006 3.64 24.0002C3.99159 23.9996 4.3318 23.8755 4.60121 23.6496C4.87063 23.4236 5.05212 23.1103 5.114 22.7642C5.34731 21.4824 5.9364 20.2921 6.814 19.3292C8.34452 20.3763 10.146 20.9568 12 21.0002C13.8553 20.9576 15.6583 20.3771 17.19 19.3292C18.0676 20.2921 18.6567 21.4824 18.89 22.7642C18.9518 23.1096 19.1327 23.4224 19.4013 23.6483C19.6698 23.8741 20.0091 23.9986 20.36 24.0002C20.4492 23.9999 20.5381 23.9922 20.626 23.9772C20.82 23.9425 21.0053 23.87 21.1712 23.7638C21.3372 23.6576 21.4806 23.5197 21.5932 23.358C21.7059 23.1963 21.7855 23.014 21.8277 22.8215C21.8699 22.629 21.8737 22.4301 21.839 22.2362C21.508 20.4123 20.6728 18.7177 19.428 17.3442C19.9339 16.7656 20.3675 16.1276 20.719 15.4442C21.5131 15.3031 22.2451 14.9228 22.817 14.3542ZM20 12.5082H19.989H19.827C19.4965 12.4836 19.1671 12.5681 18.8893 12.7487C18.6115 12.9293 18.4006 13.1961 18.289 13.5082C17.7784 14.7788 16.915 15.8769 15.8007 16.6728C14.6863 17.4688 13.3676 17.9293 12 18.0002C10.6308 17.9294 9.31058 17.468 8.19537 16.6705C7.08017 15.8731 6.21667 14.7729 5.707 13.5002C5.60367 13.2079 5.41234 12.9548 5.15931 12.7758C4.90628 12.5967 4.60399 12.5004 4.294 12.5002C4.252 12.5002 4.211 12.5002 4.169 12.5052H4.001H3.99C3.72848 12.5057 3.47742 12.4025 3.29185 12.2183C3.10627 12.034 3.00132 11.7837 3 11.5222C3.00069 11.3155 3.0738 11.1155 3.20662 10.9571C3.33944 10.7987 3.52357 10.6919 3.727 10.6552C4.04571 10.5969 4.33698 10.437 4.55726 10.1995C4.77754 9.96187 4.91497 9.65936 4.949 9.33716C5.14299 7.48173 6.06377 5.77859 7.51 4.60016C7.5289 5.48085 7.80622 6.33657 8.30747 7.06094C8.80873 7.78532 9.51182 8.3464 10.3293 8.67446C11.1469 9.00251 12.0428 9.08307 12.9057 8.90612C13.7687 8.72916 14.5606 8.3025 15.183 7.67916C15.3285 7.54122 15.4449 7.37551 15.5252 7.19182C15.6056 7.00814 15.6483 6.81021 15.6508 6.60973C15.6534 6.40926 15.6157 6.21031 15.54 6.02464C15.4644 5.83897 15.3523 5.67035 15.2103 5.52875C15.0684 5.38715 14.8995 5.27544 14.7137 5.20022C14.5278 5.12501 14.3288 5.08781 14.1283 5.09083C13.9279 5.09385 13.73 5.13703 13.5465 5.21782C13.363 5.2986 13.1976 5.41535 13.06 5.56116C12.7744 5.8341 12.3946 5.98641 11.9995 5.98641C11.6045 5.98641 11.2246 5.8341 10.939 5.56116C10.7291 5.35138 10.5861 5.08405 10.5282 4.79299C10.4702 4.50193 10.5 4.20022 10.6135 3.92605C10.7271 3.65187 10.9195 3.41756 11.1663 3.25274C11.4131 3.08793 11.7032 3.00003 12 3.00016C13.7511 2.99593 15.4415 3.64171 16.7438 4.81242C18.046 5.98314 18.8675 7.59548 19.049 9.33716C19.0831 9.65964 19.2209 9.96236 19.4415 10.2C19.6622 10.4376 19.9539 10.5973 20.273 10.6552C20.4764 10.6919 20.6606 10.7987 20.7934 10.9571C20.9262 11.1155 20.9993 11.3155 21 11.5222C21.0003 11.6524 20.9746 11.7814 20.9245 11.9016C20.8743 12.0217 20.8007 12.1307 20.708 12.2222C20.6147 12.3142 20.5041 12.3869 20.3826 12.436C20.2611 12.4851 20.1311 12.5096 20 12.5082Z" fill="black"/>
<path d="M9.50012 13C10.3285 13 11.0001 12.3284 11.0001 11.5C11.0001 10.6716 10.3285 10 9.50012 10C8.67169 10 8.00012 10.6716 8.00012 11.5C8.00012 12.3284 8.67169 13 9.50012 13Z" fill="black"/>
<path d="M14.4999 13C15.3283 13 15.9999 12.3284 15.9999 11.5C15.9999 10.6716 15.3283 10 14.4999 10C13.6715 10 12.9999 10.6716 12.9999 11.5C12.9999 12.3284 13.6715 13 14.4999 13Z" fill="black"/>
</g>
<defs>
<clipPath id="clip0_606_6838">
<rect width="24" height="24" fill="white"/>
</clipPath>
</defs>
</svg>
