<svg width="24" height="24" viewBox="0 0 24 24" fill="none" xmlns="http://www.w3.org/2000/svg">
<path d="M17.0001 12.3508V8.49983C17.0001 8.102 16.8421 7.72047 16.5608 7.43917C16.2795 7.15786 15.8979 6.99983 15.5001 6.99983H15.0001V1.80983C14.9999 1.50145 14.9209 1.19822 14.7707 0.928934C14.6204 0.659643 14.4038 0.433215 14.1414 0.271133C13.8791 0.10905 13.5796 0.0166885 13.2716 0.00281054C12.9635 -0.0110674 12.657 0.0539985 12.3811 0.191835L10.4161 1.17483C9.99062 1.38726 9.63272 1.71405 9.38261 2.11855C9.13249 2.52305 9.00004 2.98925 9.00012 3.46483V6.99983H8.50012C8.1023 6.99983 7.72077 7.15786 7.43946 7.43917C7.15816 7.72047 7.00012 8.102 7.00012 8.49983V12.3508C6.40374 12.6337 5.89951 13.0795 5.54562 13.6367C5.19174 14.1938 5.00263 14.8398 5.00012 15.4998V18.4998C5.00171 19.958 5.58168 21.356 6.61279 22.3871C7.64389 23.4182 9.04192 23.9982 10.5001 23.9998H13.5001C14.9583 23.9982 16.3563 23.4182 17.3875 22.3871C18.4186 21.356 18.9985 19.958 19.0001 18.4998V15.4998C18.9976 14.8398 18.8085 14.1938 18.4546 13.6367C18.1007 13.0795 17.5965 12.6337 17.0001 12.3508ZM10.0001 11.9998V9.99982H14.0001V11.9998H10.0001ZM16.0001 18.4998C16.0001 19.1629 15.7367 19.7987 15.2679 20.2676C14.799 20.7364 14.1632 20.9998 13.5001 20.9998H10.5001C9.83708 20.9998 9.2012 20.7364 8.73236 20.2676C8.26351 19.7987 8.00012 19.1629 8.00012 18.4998V15.4998C8.00012 15.3672 8.0528 15.24 8.14657 15.1463C8.24034 15.0525 8.36751 14.9998 8.50012 14.9998H15.5001C15.6327 14.9998 15.7599 15.0525 15.8537 15.1463C15.9474 15.24 16.0001 15.3672 16.0001 15.4998V18.4998Z" fill="black"/>
</svg>
