<svg width="24" height="24" viewBox="0 0 24 24" fill="none" xmlns="http://www.w3.org/2000/svg">
<g clip-path="url(#clip0_606_6732)">
<path d="M1.05593 22.6114L3.06693 23.2364C3.09093 23.2464 3.11193 23.2604 3.13693 23.2684C3.16193 23.2764 3.18693 23.2744 3.21193 23.2814L5.31193 23.9334C5.69198 24.0511 6.10325 24.0131 6.45525 23.8276C6.80726 23.6421 7.07117 23.3244 7.18893 22.9444C7.30668 22.5643 7.26864 22.1531 7.08317 21.8011C6.89769 21.449 6.57998 21.1851 6.19993 21.0674L5.55593 20.8674L6.19993 19.0004C7.31497 19.0028 8.40071 18.6434 9.29414 17.9763C10.1876 17.3091 10.8405 16.3702 11.1549 15.3004L11.9999 12.8114L12.8179 15.2214C13.125 16.307 13.7773 17.2632 14.6762 17.945C15.5751 18.6268 16.6717 18.9973 17.7999 19.0004L18.4469 20.8694L17.8029 21.0694C17.4229 21.1871 17.1052 21.451 16.9197 21.8031C16.7342 22.1551 16.6962 22.5663 16.8139 22.9464C16.9317 23.3264 17.1956 23.6441 17.5476 23.8296C17.8996 24.0151 18.3109 24.0531 18.6909 23.9354L20.7909 23.2834C20.8159 23.2764 20.8409 23.2834 20.8659 23.2704C20.8909 23.2574 20.9119 23.2484 20.9359 23.2384L22.9469 22.6134C23.1385 22.558 23.317 22.4649 23.4722 22.3397C23.6273 22.2145 23.7559 22.0596 23.8505 21.8841C23.9451 21.7086 24.0038 21.516 24.023 21.3176C24.0423 21.1191 24.0219 20.9188 23.9628 20.7284C23.9038 20.5379 23.8074 20.3612 23.6793 20.2084C23.5511 20.0557 23.3938 19.93 23.2166 19.8388C23.0393 19.7475 22.8456 19.6925 22.6469 19.677C22.4481 19.6615 22.2482 19.6858 22.0589 19.7484L21.3129 19.9794L20.6699 18.1234C21.6007 17.5254 22.3111 16.6402 22.6934 15.6019C23.0756 14.5637 23.1088 13.4292 22.7879 12.3704L21.0959 7.37038C20.8449 6.53306 20.2747 5.82802 19.5084 5.40744C18.742 4.98687 17.8411 4.88448 16.9999 5.12238L13.4499 6.10638C12.9008 6.26124 12.4012 6.55583 11.9999 6.96138C11.5989 6.5563 11.1002 6.26147 10.5519 6.10538L6.99993 5.12338C6.16723 4.88289 5.27343 4.97861 4.51054 5.38997C3.74765 5.80133 3.17655 6.49551 2.91993 7.32338L1.19093 12.4444C0.890971 13.4952 0.937312 14.6147 1.32309 15.6371C1.70887 16.6595 2.41358 17.5306 3.33293 18.1214L2.68993 19.9774L1.94393 19.7464C1.75464 19.6838 1.55477 19.6595 1.356 19.675C1.15723 19.6905 0.963552 19.7455 0.786283 19.8368C0.609014 19.928 0.451714 20.0537 0.323579 20.2064C0.195445 20.3592 0.0990467 20.5359 0.0400212 20.7264C-0.0190043 20.9168 -0.0394729 21.1171 -0.020188 21.3156C-0.000903154 21.514 0.0577483 21.7066 0.152337 21.8821C0.246926 22.0576 0.375555 22.2125 0.530702 22.3377C0.68585 22.4629 0.864404 22.556 1.05593 22.6114ZM14.0409 9.16038C14.0631 9.12112 14.0929 9.08672 14.1287 9.05923C14.1644 9.03175 14.2053 9.01173 14.2489 9.00038L17.7989 8.01638C17.8284 8.00705 17.859 8.00167 17.8899 8.00038C17.9706 8.0032 18.0482 8.03241 18.1107 8.08353C18.1732 8.13465 18.2172 8.20485 18.2359 8.28338L19.1569 11.0004H14.5569L14.0189 9.41338C14.0051 9.37195 13.9999 9.32812 14.0037 9.2846C14.0075 9.24108 14.0201 9.1988 14.0409 9.16038ZM6.10693 8.00038C6.13868 8.0007 6.17027 8.00507 6.20093 8.01338L9.75093 9.00038C9.79481 9.01208 9.83587 9.03256 9.87162 9.06057C9.90737 9.08859 9.93707 9.12356 9.95893 9.16338C9.99584 9.22456 10.0103 9.29668 9.99993 9.36738L9.44693 11.0004H4.84693L5.77993 8.24038C5.80183 8.1708 5.84534 8.11002 5.90415 8.06686C5.96295 8.0237 6.03398 8.00042 6.10693 8.00038Z" fill="black"/>
<path d="M16.5001 4.00048C16.6971 4.00057 16.8922 3.96185 17.0742 3.88652C17.2563 3.8112 17.4217 3.70075 17.5611 3.56148L18.5611 2.56148C18.8425 2.28009 19.0005 1.89843 19.0005 1.50048C19.0005 1.10253 18.8425 0.720875 18.5611 0.439481C18.2797 0.158086 17.898 0 17.5001 0C17.1021 0 16.7205 0.158086 16.4391 0.439481L15.4391 1.43948C15.2292 1.64926 15.0862 1.9166 15.0282 2.20766C14.9703 2.49872 15 2.80042 15.1136 3.0746C15.2272 3.34877 15.4196 3.58309 15.6664 3.7479C15.9132 3.91271 16.2033 4.00062 16.5001 4.00048Z" fill="black"/>
<path d="M6.43887 3.56148C6.72026 3.84288 7.10191 4.00096 7.49987 4.00096C7.89782 4.00096 8.27947 3.84288 8.56086 3.56148C8.84226 3.28009 9.00034 2.89843 9.00034 2.50048C9.00034 2.10253 8.84226 1.72088 8.56086 1.43948L7.56087 0.439481C7.27947 0.158086 6.89782 -2.96497e-09 6.49987 0C6.10192 2.96498e-09 5.72026 0.158086 5.43887 0.439481C5.15748 0.720875 4.99939 1.10253 4.99939 1.50048C4.99939 1.89843 5.15748 2.28009 5.43887 2.56148L6.43887 3.56148Z" fill="black"/>
<path d="M12 4C12.3978 4 12.7794 3.84196 13.0607 3.56066C13.342 3.27936 13.5 2.89782 13.5 2.5V1.5C13.5 1.10218 13.342 0.720644 13.0607 0.43934C12.7794 0.158035 12.3978 0 12 0C11.6022 0 11.2206 0.158035 10.9393 0.43934C10.658 0.720644 10.5 1.10218 10.5 1.5V2.5C10.5 2.89782 10.658 3.27936 10.9393 3.56066C11.2206 3.84196 11.6022 4 12 4Z" fill="black"/>
</g>
<defs>
<clipPath id="clip0_606_6732">
<rect width="24" height="24" fill="white"/>
</clipPath>
</defs>
</svg>
