<svg width="24" height="24" viewBox="0 0 24 24" fill="none" xmlns="http://www.w3.org/2000/svg">
<g clip-path="url(#clip0_606_6656)">
<path d="M16.9999 23.9997C15.1441 23.9973 13.365 23.2591 12.0528 21.9468C10.7405 20.6346 10.0023 18.8555 9.99988 16.9997C9.99988 15.0727 11.4739 12.4197 14.3789 9.1147C14.7085 8.74576 15.1123 8.45058 15.5639 8.24847C16.0155 8.04637 16.5046 7.94189 16.9994 7.94189C17.4941 7.94189 17.9833 8.04637 18.4349 8.24847C18.8864 8.45058 19.2903 8.74576 19.6199 9.1147C22.5259 12.4197 23.9999 15.0727 23.9999 16.9997C23.9975 18.8555 23.2592 20.6346 21.947 21.9468C20.6348 23.2591 18.8557 23.9973 16.9999 23.9997ZM16.9999 10.9307C16.9302 10.9302 16.8612 10.9448 16.7977 10.9734C16.7342 11.0021 16.6776 11.0441 16.6319 11.0967C13.9539 14.1417 12.9999 16.1427 12.9999 16.9997C12.9999 18.0606 13.4213 19.078 14.1715 19.8281C14.9216 20.5783 15.939 20.9997 16.9999 20.9997C18.0607 20.9997 19.0782 20.5783 19.8283 19.8281C20.5785 19.078 20.9999 18.0606 20.9999 16.9997C20.9999 16.1427 20.0459 14.1417 17.3669 11.0997C17.3216 11.0466 17.2654 11.004 17.202 10.9748C17.1386 10.9456 17.0696 10.9306 16.9999 10.9307Z" fill="black"/>
<path d="M5.5 12.4826C4.0418 12.481 2.64377 11.901 1.61267 10.8699C0.581561 9.83881 0.00158817 8.44078 0 6.98258C0 6.17458 0.246 4.73958 2.375 1.64158C2.72766 1.1406 3.19561 0.731766 3.73939 0.449552C4.28317 0.167338 4.88685 0.0200195 5.4995 0.0200195C6.11215 0.0200195 6.71583 0.167338 7.25961 0.449552C7.80339 0.731766 8.27134 1.1406 8.624 1.64158C10.754 4.73958 11 6.17458 11 6.98258C10.9984 8.44078 10.4184 9.83881 9.38733 10.8699C8.35623 11.901 6.9582 12.481 5.5 12.4826ZM5.5 2.99958C5.37129 2.9977 5.24414 3.028 5.13011 3.08773C5.01607 3.14745 4.91876 3.23471 4.847 3.34158C3.052 5.95458 3 6.88558 3 6.98258C3 7.64562 3.26339 8.2815 3.73223 8.75035C4.20107 9.21919 4.83696 9.48258 5.5 9.48258C6.16304 9.48258 6.79893 9.21919 7.26777 8.75035C7.73661 8.2815 8 7.64562 8 6.98258C8 6.88258 7.948 5.95458 6.152 3.34058C6.08028 3.23397 5.98309 3.14695 5.86924 3.08741C5.75539 3.02786 5.62847 2.99767 5.5 2.99958Z" fill="black"/>
</g>
<defs>
<clipPath id="clip0_606_6656">
<rect width="24" height="24" fill="white"/>
</clipPath>
</defs>
</svg>
