<svg width="24" height="24" viewBox="0 0 24 24" fill="none" xmlns="http://www.w3.org/2000/svg">
<path d="M16.9999 7.655V7C16.9999 6.46957 16.7892 5.96086 16.4141 5.58579C16.039 5.21071 15.5303 5 14.9999 5V3H18.4999C18.8977 3 19.2792 2.84196 19.5605 2.56066C19.8419 2.27936 19.9999 1.89782 19.9999 1.5C19.9999 1.10218 19.8419 0.720644 19.5605 0.43934C19.2792 0.158035 18.8977 0 18.4999 0L12.4999 0C11.5716 0 10.6814 0.368749 10.025 1.02513C9.36864 1.6815 8.99989 2.57174 8.99989 3.5V5C8.46945 5 7.96075 5.21071 7.58567 5.58579C7.2106 5.96086 6.99989 6.46957 6.99989 7V7.655C5.48753 8.46116 4.22313 9.66379 3.34229 11.1339C2.46145 12.604 1.9974 14.2862 1.99989 16V17.5C2.002 19.2233 2.6875 20.8753 3.90603 22.0939C5.12456 23.3124 6.77663 23.9979 8.49989 24H15.4999C17.2231 23.9979 18.8752 23.3124 20.0937 22.0939C21.3123 20.8753 21.9978 19.2233 21.9999 17.5V16C22.0024 14.2862 21.5383 12.604 20.6575 11.1339C19.7766 9.66379 18.5122 8.46116 16.9999 7.655ZM18.9999 17.5C18.9999 18.4283 18.6311 19.3185 17.9748 19.9749C17.3184 20.6313 16.4281 21 15.4999 21H8.49989C7.57163 21 6.68139 20.6313 6.02501 19.9749C5.36864 19.3185 4.99989 18.4283 4.99989 17.5V16C4.99662 14.7151 5.37596 13.4583 6.08957 12.3897C6.80318 11.3212 7.81876 10.4893 9.00689 10H14.9929C16.181 10.4893 17.1966 11.3212 17.9102 12.3897C18.6238 13.4583 19.0032 14.7151 18.9999 16V17.5ZM16.9999 17C16.9999 17.5304 16.7892 18.0391 16.4141 18.4142C16.039 18.7893 15.5303 19 14.9999 19H8.99989C8.46945 19 7.96075 18.7893 7.58567 18.4142C7.2106 18.0391 6.99989 17.5304 6.99989 17C6.99989 16.4696 7.2106 15.9609 7.58567 15.5858C7.96075 15.2107 8.46945 15 8.99989 15H14.9999C15.5303 15 16.039 15.2107 16.4141 15.5858C16.7892 15.9609 16.9999 16.4696 16.9999 17Z" fill="black"/>
</svg>
