<svg width="24" height="24" viewBox="0 0 24 24" fill="none" xmlns="http://www.w3.org/2000/svg">
<path d="M7 0C5.93913 0 4.92172 0.421427 4.17157 1.17157C3.42143 1.92172 3 2.93913 3 4V20C3 21.0609 3.42143 22.0783 4.17157 22.8284C4.92172 23.5786 5.93913 24 7 24C8.06087 24 9.07828 23.5786 9.82843 22.8284C10.5786 22.0783 11 21.0609 11 20V4C11 2.93913 10.5786 1.92172 9.82843 1.17157C9.07828 0.421427 8.06087 0 7 0V0ZM8 20C8 20.2652 7.89464 20.5196 7.70711 20.7071C7.51957 20.8946 7.26522 21 7 21C6.73478 21 6.48043 20.8946 6.29289 20.7071C6.10536 20.5196 6 20.2652 6 20V4C6 3.73478 6.10536 3.48043 6.29289 3.29289C6.48043 3.10536 6.73478 3 7 3C7.26522 3 7.51957 3.10536 7.70711 3.29289C7.89464 3.48043 8 3.73478 8 4V20Z" fill="black"/>
<path d="M16.9999 0C15.939 0 14.9216 0.421427 14.1714 1.17157C13.4213 1.92172 12.9999 2.93913 12.9999 4V20C12.9999 21.0609 13.4213 22.0783 14.1714 22.8284C14.9216 23.5786 15.939 24 16.9999 24C18.0607 24 19.0781 23.5786 19.8283 22.8284C20.5784 22.0783 20.9999 21.0609 20.9999 20V4C20.9999 2.93913 20.5784 1.92172 19.8283 1.17157C19.0781 0.421427 18.0607 0 16.9999 0V0ZM17.9999 20C17.9999 20.2652 17.8945 20.5196 17.707 20.7071C17.5194 20.8946 17.2651 21 16.9999 21C16.7347 21 16.4803 20.8946 16.2928 20.7071C16.1052 20.5196 15.9999 20.2652 15.9999 20V4C15.9999 3.73478 16.1052 3.48043 16.2928 3.29289C16.4803 3.10536 16.7347 3 16.9999 3C17.2651 3 17.5194 3.10536 17.707 3.29289C17.8945 3.48043 17.9999 3.73478 17.9999 4V20Z" fill="black"/>
</svg>
