<svg width="24" height="24" viewBox="0 0 24 24" fill="none" xmlns="http://www.w3.org/2000/svg">
<g clip-path="url(#clip0_606_6826)">
<path d="M23.4599 2.273C23.0839 1.58513 22.5298 1.01112 21.8555 0.611186C21.1813 0.211256 20.4119 0.000144594 19.6279 0L4.37193 0C3.588 0.000144594 2.81857 0.211256 2.14433 0.611186C1.4701 1.01112 0.915918 1.58513 0.539929 2.273C0.160241 2.95174 -0.0270062 3.72123 -0.00163059 4.49853C0.023745 5.27583 0.260781 6.03147 0.683929 6.684C1.78144 8.36086 3.22534 9.78324 4.9185 10.8554C6.61167 11.9276 8.51482 12.6248 10.4999 12.9V21H7.49993C7.1021 21 6.72057 21.158 6.43927 21.4393C6.15796 21.7206 5.99993 22.1022 5.99993 22.5C5.99993 22.8978 6.15796 23.2794 6.43927 23.5607C6.72057 23.842 7.1021 24 7.49993 24H16.4999C16.8978 24 17.2793 23.842 17.5606 23.5607C17.8419 23.2794 17.9999 22.8978 17.9999 22.5C17.9999 22.1022 17.8419 21.7206 17.5606 21.4393C17.2793 21.158 16.8978 21 16.4999 21H13.4999V12.9C15.4851 12.6247 17.3883 11.9274 19.0815 10.855C20.7747 9.78262 22.2185 8.36005 23.3159 6.683C23.7389 6.03058 23.9758 5.27513 24.0012 4.49802C24.0266 3.72092 23.8394 2.95162 23.4599 2.273ZM11.9999 10C10.2383 9.92892 8.51916 9.4381 6.98555 8.56841C5.45193 7.69872 4.14822 6.47531 3.18293 5H20.8169C19.8516 6.47525 18.5478 7.69862 17.0142 8.5683C15.4806 9.43799 13.7615 9.92883 11.9999 10Z" fill="black"/>
</g>
<defs>
<clipPath id="clip0_606_6826">
<rect width="24" height="24" fill="white"/>
</clipPath>
</defs>
</svg>
