<svg width="24" height="24" viewBox="0 0 24 24" fill="none" xmlns="http://www.w3.org/2000/svg">
<g clip-path="url(#clip0_606_6950)">
<path d="M20.3999 16.6703L20.3849 16.6493L19.2699 15.0893C19.4561 14.8994 19.6137 14.6835 19.7379 14.4483C19.9788 13.9701 20.081 13.434 20.0332 12.9006C19.9853 12.3673 19.7891 11.858 19.4669 11.4303L17.9409 9.36032C18.2527 9.11366 18.5083 8.80345 18.6909 8.45032C18.9283 7.99562 19.0337 7.48351 18.995 6.97202C18.9563 6.46053 18.7751 5.9701 18.4719 5.55632C18.4319 5.50032 14.1999 0.989316 14.1999 0.989316C13.924 0.684596 13.5879 0.440464 13.2127 0.27237C12.8376 0.104277 12.4317 0.0158818 12.0206 0.0127799C11.6096 0.00967798 11.2024 0.0919366 10.8248 0.25435C10.4471 0.416763 10.1074 0.655794 9.8269 0.956316C9.8269 0.956316 5.5679 5.50032 5.5269 5.55632C5.2239 5.9702 5.04287 6.46067 5.00434 6.97216C4.96581 7.48365 5.07132 7.99571 5.3089 8.45032C5.49339 8.80618 5.75183 9.1185 6.0669 9.36632L4.5379 11.4663C4.23165 11.8862 4.0483 12.3831 4.00839 12.9012C3.96848 13.4194 4.07357 13.9385 4.3119 14.4003C4.44405 14.6498 4.61256 14.8783 4.8119 15.0783L3.5999 16.6703C3.24797 17.1807 3.0423 17.7777 3.00514 18.3965C2.96798 19.0154 3.10075 19.6327 3.38908 20.1815C3.67741 20.7304 4.11033 21.19 4.64101 21.5105C5.17168 21.8311 5.77991 22.0005 6.3999 22.0003H10.4999V22.5003C10.4999 22.8981 10.6579 23.2797 10.9392 23.561C11.2205 23.8423 11.6021 24.0003 11.9999 24.0003C12.3977 24.0003 12.7793 23.8423 13.0606 23.561C13.3419 23.2797 13.4999 22.8981 13.4999 22.5003V22.0003H17.5999C18.2199 22.0005 18.8281 21.8311 19.3588 21.5105C19.8895 21.19 20.3224 20.7304 20.6107 20.1815C20.8991 19.6327 21.0318 19.0154 20.9947 18.3965C20.9575 17.7777 20.7518 17.1807 20.3999 16.6703ZM17.9549 18.7863C17.9228 18.8525 17.8722 18.908 17.8091 18.946C17.7461 18.984 17.6734 19.0028 17.5999 19.0003H6.3999C6.32653 19.0027 6.25405 18.9837 6.19123 18.9457C6.12841 18.9077 6.07793 18.8524 6.0459 18.7863C6.01271 18.7328 5.99398 18.6716 5.99152 18.6087C5.98907 18.5457 6.00298 18.4833 6.0319 18.4273L7.8729 16.0003H11.4999C11.8977 16.0003 12.2793 15.8423 12.5606 15.561C12.8419 15.2797 12.9999 14.8981 12.9999 14.5003C12.9999 14.1025 12.8419 13.721 12.5606 13.4397C12.2793 13.1584 11.8977 13.0003 11.4999 13.0003H7.1329L9.3159 10.0003H10.4999C10.8977 10.0003 11.2793 9.84228 11.5606 9.56098C11.8419 9.27967 11.9999 8.89814 11.9999 8.50032C11.9999 8.10249 11.8419 7.72096 11.5606 7.43966C11.2793 7.15835 10.8977 7.00032 10.4999 7.00032H8.2659L11.9849 3.01032L15.7309 7.00032H15.4469C15.1696 7.0003 14.8977 7.07715 14.6615 7.22234C14.4252 7.36753 14.2338 7.57537 14.1085 7.82278C13.9833 8.07018 13.9291 8.34747 13.9519 8.62383C13.9747 8.9002 14.0737 9.16482 14.2379 9.38832L16.8889 13.0003C16.6233 13.02 16.3677 13.11 16.1484 13.2611C15.9291 13.4123 15.754 13.6191 15.6411 13.8603C15.5282 14.1015 15.4815 14.3684 15.5059 14.6336C15.5303 14.8988 15.6249 15.1528 15.7799 15.3693L17.9309 18.3763C17.9731 18.4356 17.9975 18.5057 18.001 18.5784C18.0046 18.6511 17.9872 18.7232 17.9509 18.7863H17.9549Z" fill="black"/>
</g>
<defs>
<clipPath id="clip0_606_6950">
<rect width="24" height="24" fill="white"/>
</clipPath>
</defs>
</svg>
