<svg width="24" height="24" viewBox="0 0 24 24" fill="none" xmlns="http://www.w3.org/2000/svg">
<g clip-path="url(#clip0_606_6814)">
<path d="M23.1359 18.8549C22.6623 18.7195 22.2309 18.4656 21.8826 18.1173C21.5342 17.7689 21.2804 17.3376 21.1449 16.8639C21.0737 16.6152 20.9235 16.3964 20.7169 16.2407C20.5103 16.085 20.2586 16.0007 19.9999 16.0007C19.7412 16.0007 19.4895 16.085 19.283 16.2407C19.0764 16.3964 18.9261 16.6152 18.8549 16.8639C18.7195 17.3376 18.4656 17.7689 18.1173 18.1173C17.7689 18.4656 17.3376 18.7195 16.8639 18.8549C16.6152 18.9261 16.3964 19.0764 16.2407 19.283C16.085 19.4895 16.0007 19.7412 16.0007 19.9999C16.0007 20.2586 16.085 20.5103 16.2407 20.7169C16.3964 20.9235 16.6152 21.0737 16.8639 21.1449C17.3376 21.2804 17.7689 21.5342 18.1173 21.8826C18.4656 22.2309 18.7195 22.6623 18.8549 23.1359C18.9261 23.3846 19.0764 23.6034 19.283 23.7591C19.4895 23.9149 19.7412 23.9991 19.9999 23.9991C20.2586 23.9991 20.5103 23.9149 20.7169 23.7591C20.9235 23.6034 21.0737 23.3846 21.1449 23.1359C21.2804 22.6623 21.5342 22.2309 21.8826 21.8826C22.2309 21.5342 22.6623 21.2804 23.1359 21.1449C23.3846 21.0737 23.6034 20.9235 23.7591 20.7169C23.9149 20.5103 23.9991 20.2586 23.9991 19.9999C23.9991 19.7412 23.9149 19.4895 23.7591 19.283C23.6034 19.0764 23.3846 18.9261 23.1359 18.8549Z" fill="black"/>
<path d="M15.137 2.85517C14.6632 2.71988 14.2317 2.46608 13.8831 2.11773C13.5346 1.76937 13.2806 1.33794 13.1451 0.864172C13.0738 0.615456 12.9236 0.396689 12.717 0.240952C12.5104 0.0852144 12.2588 0.000976562 12 0.000976562C11.7413 0.000976562 11.4897 0.0852144 11.2831 0.240952C11.0765 0.396689 10.9263 0.615456 10.855 0.864172C10.7196 1.33783 10.4658 1.76918 10.1174 2.11752C9.76905 2.46587 9.33771 2.71974 8.86405 2.85517C8.61533 2.92638 8.39657 3.07663 8.24083 3.28321C8.08509 3.48979 8.00085 3.74146 8.00085 4.00017C8.00085 4.25888 8.08509 4.51055 8.24083 4.71713C8.39657 4.92371 8.61533 5.07397 8.86405 5.14517C9.33771 5.28061 9.76905 5.53447 10.1174 5.88282C10.4658 6.23117 10.7196 6.66252 10.855 7.13617C10.9263 7.38489 11.0765 7.60365 11.2831 7.75939C11.4897 7.91513 11.7413 7.99937 12 7.99937C12.2588 7.99937 12.5104 7.91513 12.717 7.75939C12.9236 7.60365 13.0738 7.38489 13.1451 7.13617C13.2805 6.66252 13.5343 6.23117 13.8827 5.88282C14.231 5.53447 14.6624 5.28061 15.136 5.14517C15.3848 5.07407 15.6036 4.92392 15.7595 4.7174C15.9153 4.51089 15.9996 4.25926 15.9997 4.00055C15.9999 3.74184 15.9157 3.49013 15.7601 3.28348C15.6044 3.07683 15.3857 2.92649 15.137 2.85517Z" fill="black"/>
<path d="M0.86294 21.1449C1.3366 21.2804 1.76794 21.5342 2.11629 21.8826C2.46464 22.2309 2.71851 22.6623 2.85394 23.1359C2.92515 23.3846 3.0754 23.6034 3.28198 23.7591C3.48856 23.9149 3.74023 23.9991 3.99894 23.9991C4.25765 23.9991 4.50932 23.9149 4.7159 23.7591C4.92248 23.6034 5.07273 23.3846 5.14394 23.1359C5.27937 22.6623 5.53324 22.2309 5.88159 21.8826C6.22994 21.5342 6.66128 21.2804 7.13494 21.1449C7.38366 21.0737 7.60242 20.9235 7.75816 20.7169C7.9139 20.5103 7.99814 20.2586 7.99814 19.9999C7.99814 19.7412 7.9139 19.4895 7.75816 19.283C7.60242 19.0764 7.38366 18.9261 7.13494 18.8549C6.66128 18.7195 6.22994 18.4656 5.88159 18.1173C5.53324 17.7689 5.27937 17.3376 5.14394 16.8639C5.07273 16.6152 4.92248 16.3964 4.7159 16.2407C4.50932 16.085 4.25765 16.0007 3.99894 16.0007C3.74023 16.0007 3.48856 16.085 3.28198 16.2407C3.0754 16.3964 2.92515 16.6152 2.85394 16.8639C2.7186 17.3375 2.46488 17.7687 2.11672 18.1171C1.76855 18.4654 1.33741 18.7193 0.86394 18.8549C0.615193 18.926 0.39636 19.0762 0.240533 19.2827C0.084705 19.4892 0.000357227 19.7408 0.000244254 19.9995C0.000131282 20.2583 0.0842593 20.51 0.239906 20.7166C0.395554 20.9233 0.614255 21.0736 0.86294 21.1449Z" fill="black"/>
<path d="M5.50012 15C6.32855 15 7.00012 14.3284 7.00012 13.5C7.00012 12.6716 6.32855 12 5.50012 12C4.67169 12 4.00012 12.6716 4.00012 13.5C4.00012 14.3284 4.67169 15 5.50012 15Z" fill="black"/>
<path d="M1.5 11.0002C2.32843 11.0002 3 10.3287 3 9.50024C3 8.67182 2.32843 8.00024 1.5 8.00024C0.671573 8.00024 0 8.67182 0 9.50024C0 10.3287 0.671573 11.0002 1.5 11.0002Z" fill="black"/>
<path d="M5.50012 6.99976C6.32855 6.99976 7.00012 6.32818 7.00012 5.49976C7.00012 4.67133 6.32855 3.99976 5.50012 3.99976C4.67169 3.99976 4.00012 4.67133 4.00012 5.49976C4.00012 6.32818 4.67169 6.99976 5.50012 6.99976Z" fill="black"/>
<path d="M1.5 3C2.32843 3 3 2.32843 3 1.5C3 0.671573 2.32843 0 1.5 0C0.671573 0 0 0.671573 0 1.5C0 2.32843 0.671573 3 1.5 3Z" fill="black"/>
<path d="M22.5 15C23.3284 15 24 14.3284 24 13.5C24 12.6716 23.3284 12 22.5 12C21.6716 12 21 12.6716 21 13.5C21 14.3284 21.6716 15 22.5 15Z" fill="black"/>
<path d="M18.4999 11.0002C19.3283 11.0002 19.9999 10.3287 19.9999 9.50024C19.9999 8.67182 19.3283 8.00024 18.4999 8.00024C17.6715 8.00024 16.9999 8.67182 16.9999 9.50024C16.9999 10.3287 17.6715 11.0002 18.4999 11.0002Z" fill="black"/>
<path d="M22.5 6.99976C23.3284 6.99976 24 6.32818 24 5.49976C24 4.67133 23.3284 3.99976 22.5 3.99976C21.6716 3.99976 21 4.67133 21 5.49976C21 6.32818 21.6716 6.99976 22.5 6.99976Z" fill="black"/>
<path d="M18.4999 3C19.3283 3 19.9999 2.32843 19.9999 1.5C19.9999 0.671573 19.3283 0 18.4999 0C17.6715 0 16.9999 0.671573 16.9999 1.5C16.9999 2.32843 17.6715 3 18.4999 3Z" fill="black"/>
<path d="M14.5001 24C15.3285 24 16.0001 23.3284 16.0001 22.5C16.0001 21.6716 15.3285 21 14.5001 21C13.6717 21 13.0001 21.6716 13.0001 22.5C13.0001 23.3284 13.6717 24 14.5001 24Z" fill="black"/>
<path d="M10.5 20.0002C11.3284 20.0002 12 19.3287 12 18.5002C12 17.6718 11.3284 17.0002 10.5 17.0002C9.67157 17.0002 9 17.6718 9 18.5002C9 19.3287 9.67157 20.0002 10.5 20.0002Z" fill="black"/>
<path d="M14.5001 15.9998C15.3285 15.9998 16.0001 15.3282 16.0001 14.4998C16.0001 13.6713 15.3285 12.9998 14.5001 12.9998C13.6717 12.9998 13.0001 13.6713 13.0001 14.4998C13.0001 15.3282 13.6717 15.9998 14.5001 15.9998Z" fill="black"/>
<path d="M10.5 12C11.3284 12 12 11.3284 12 10.5C12 9.67157 11.3284 9 10.5 9C9.67157 9 9 9.67157 9 10.5C9 11.3284 9.67157 12 10.5 12Z" fill="black"/>
</g>
<defs>
<clipPath id="clip0_606_6814">
<rect width="24" height="24" fill="white"/>
</clipPath>
</defs>
</svg>
