<svg width="24" height="24" viewBox="0 0 24 24" fill="none" xmlns="http://www.w3.org/2000/svg">
<g clip-path="url(#clip0_606_6717)">
<path d="M19.8821 4.43744C18.6466 2.78104 16.971 1.50461 15.046 0.753338C13.121 0.00206322 11.0238 -0.193903 8.99289 0.187728C6.962 0.56936 5.07897 1.51327 3.55798 2.9121C2.03699 4.31093 0.939083 6.10853 0.389139 8.10044C-0.0526342 9.75207 -0.10185 11.4842 0.245427 13.1582C0.592704 14.8323 1.32684 16.4018 2.38914 17.7414C2.7672 18.2039 2.98199 18.7783 3.00014 19.3754V19.4854C2.9996 20.6805 3.47306 21.8269 4.31666 22.6733C5.16025 23.5197 6.30512 23.997 7.50013 24.0004H12.5001C13.4375 23.9994 14.3511 23.706 15.114 23.1613C15.8768 22.6167 16.4508 21.8477 16.7561 20.9614C17.9417 20.8225 19.0493 20.3 19.9104 19.4733C20.7715 18.6467 21.3389 17.5613 21.5261 16.3824L21.6701 15.4974C22.3147 15.4648 22.9206 15.1796 23.3566 14.7038C23.7926 14.2279 24.0238 13.5995 24.0001 12.9544C24.0001 11.3554 21.0531 5.88244 19.8821 4.43744ZM20.3941 12.5004C20.038 12.5006 19.6936 12.6274 19.4224 12.8583C19.1513 13.0891 18.9711 13.4089 18.9141 13.7604L18.5651 15.9004C18.4721 16.4869 18.1726 17.0208 17.7206 17.4059C17.2686 17.7909 16.6939 18.0018 16.1001 18.0004H15.5001C15.3031 18.0004 15.1081 18.0392 14.9261 18.1146C14.7441 18.19 14.5787 18.3005 14.4395 18.4398C14.3002 18.5791 14.1897 18.7444 14.1143 18.9264C14.0389 19.1084 14.0001 19.3035 14.0001 19.5004C14.0001 19.8983 13.8421 20.2798 13.5608 20.5611C13.2795 20.8424 12.8979 21.0004 12.5001 21.0004H7.50013C7.10052 20.9978 6.71826 20.8369 6.43709 20.5529C6.15593 20.2689 5.9988 19.8851 6.00013 19.4854V19.3754C5.98731 18.111 5.55069 16.8874 4.76013 15.9004C3.97985 14.9286 3.43966 13.7865 3.18338 12.5668C2.92711 11.3471 2.96197 10.0841 3.28514 8.88044C3.69672 7.41435 4.515 6.09476 5.6453 5.07436C6.7756 4.05395 8.17173 3.37444 9.67213 3.11444C10.1149 3.0399 10.5631 3.00178 11.0121 3.00044C12.276 3.00139 13.522 3.29807 14.6507 3.86674C15.7793 4.43541 16.7593 5.2603 17.5121 6.27544C18.8419 8.22433 19.9567 10.3115 20.8371 12.5004H20.3941ZM16.2251 8.05144C16.0297 7.70498 15.7048 7.4503 15.3216 7.3434C14.9385 7.23651 14.5286 7.28616 14.1821 7.48144L13.4741 7.88144C13.1788 7.64235 12.8508 7.4467 12.5001 7.30044V6.50044C12.5001 6.10262 12.3421 5.72108 12.0608 5.43978C11.7795 5.15847 11.398 5.00044 11.0001 5.00044C10.6023 5.00044 10.2208 5.15847 9.93947 5.43978C9.65816 5.72108 9.50013 6.10262 9.50013 6.50044V7.30044C9.14926 7.44763 8.82127 7.64429 8.52613 7.88444L7.81813 7.48444C7.64636 7.38766 7.45721 7.32565 7.26148 7.30197C7.06575 7.27828 6.86727 7.29338 6.67737 7.34641C6.48748 7.39943 6.30989 7.48933 6.15474 7.61099C5.99959 7.73265 5.86992 7.88367 5.77313 8.05544C5.67635 8.22721 5.61434 8.41636 5.59066 8.61209C5.56698 8.80782 5.58208 9.0063 5.6351 9.1962C5.74218 9.57971 5.99723 9.90498 6.34413 10.1004L7.05113 10.5004C7.02371 10.6659 7.00667 10.8329 7.00013 11.0004C7.00642 11.17 7.02346 11.339 7.05113 11.5064L6.34413 11.9064C5.99749 12.1019 5.7427 12.4271 5.63581 12.8104C5.52891 13.1937 5.57867 13.6038 5.77413 13.9504C5.9696 14.2971 6.29476 14.5519 6.67808 14.6588C7.0614 14.7657 7.47149 14.7159 7.81813 14.5204L8.52613 14.1204C8.82151 14.3592 9.14949 14.5545 9.50013 14.7004V15.5004C9.50013 15.8983 9.65816 16.2798 9.93947 16.5611C10.2208 16.8424 10.6023 17.0004 11.0001 17.0004C11.398 17.0004 11.7795 16.8424 12.0608 16.5611C12.3421 16.2798 12.5001 15.8983 12.5001 15.5004V14.7004C12.851 14.5532 13.179 14.3566 13.4741 14.1164L14.1821 14.5164C14.5288 14.7119 14.9388 14.7617 15.3222 14.6548C15.7055 14.5479 16.0307 14.2931 16.2261 13.9464C16.4216 13.5998 16.4713 13.1897 16.3644 12.8064C16.2576 12.4231 16.0028 12.0979 15.6561 11.9024L14.9491 11.5024C14.9766 11.3363 14.9937 11.1687 15.0001 11.0004C14.9938 10.8309 14.9768 10.6619 14.9491 10.4944L15.6561 10.0944C16.0024 9.8989 16.2569 9.57385 16.3636 9.19074C16.4703 8.80763 16.4205 8.39784 16.2251 8.05144ZM12.0001 11.0004C12.0001 11.1982 11.9415 11.3916 11.8316 11.556C11.7217 11.7205 11.5655 11.8486 11.3828 11.9243C11.2001 12 10.999 12.0198 10.805 11.9812C10.6111 11.9426 10.4329 11.8474 10.293 11.7075C10.1532 11.5677 10.0579 11.3895 10.0193 11.1955C9.98076 11.0016 10.0006 10.8005 10.0762 10.6178C10.1519 10.435 10.2801 10.2789 10.4446 10.169C10.609 10.0591 10.8023 10.0004 11.0001 10.0004C11.2653 10.0004 11.5197 10.1058 11.7072 10.2933C11.8948 10.4809 12.0001 10.7352 12.0001 11.0004Z" fill="black"/>
</g>
<defs>
<clipPath id="clip0_606_6717">
<rect width="24" height="24" fill="white"/>
</clipPath>
</defs>
</svg>
