<svg width="24" height="24" viewBox="0 0 24 24" fill="none" xmlns="http://www.w3.org/2000/svg">
<g clip-path="url(#clip0_606_6662)">
<path d="M19.5101 24H4.48814C3.71603 24.0024 2.95662 23.8037 2.28469 23.4233C1.61275 23.043 1.05148 22.4942 0.656135 21.831C0.253515 21.1691 0.0286162 20.4144 0.00321338 19.64C-0.0221895 18.8657 0.152764 18.0979 0.511135 17.411L8.02214 2.428C8.39713 1.69607 8.96707 1.08198 9.66904 0.653526C10.371 0.225069 11.1777 -0.00109293 12.0001 3.97113e-06C12.8223 -0.000683153 13.6287 0.225659 14.3305 0.654081C15.0322 1.0825 15.602 1.69637 15.9771 2.428L23.4971 17.428C23.8503 18.1136 24.0216 18.8784 23.9947 19.6492C23.9678 20.4199 23.7436 21.1709 23.3436 21.8303C22.9436 22.4896 22.3811 23.0354 21.7099 23.4152C21.0388 23.7951 20.2814 23.9965 19.5101 24ZM10.6771 3.808L3.17114 18.781C3.04737 19.0113 2.98595 19.27 2.99297 19.5313C2.99998 19.7927 3.07519 20.0477 3.21114 20.271C3.34208 20.4928 3.52894 20.6762 3.75304 20.8031C3.97714 20.93 4.23062 20.9958 4.48814 20.994H19.5101C19.7685 20.9939 20.0225 20.927 20.2475 20.7999C20.4725 20.6727 20.6608 20.4896 20.7942 20.2683C20.9276 20.047 21.0015 19.795 21.0089 19.5367C21.0162 19.2784 20.9567 19.0226 20.8361 18.794L13.3171 3.794C13.1922 3.5535 13.0029 3.35244 12.7703 3.2133C12.5378 3.07415 12.2711 3.00238 12.0001 3.006C11.7268 3.00326 11.4582 3.07688 11.2244 3.21858C10.9907 3.36027 10.8011 3.56441 10.6771 3.808Z" fill="black"/>
</g>
<defs>
<clipPath id="clip0_606_6662">
<rect width="24" height="24" fill="white"/>
</clipPath>
</defs>
</svg>
