<svg width="24" height="24" viewBox="0 0 24 24" fill="none" xmlns="http://www.w3.org/2000/svg">
<g clip-path="url(#clip0_606_6698)">
<path d="M10.5442 7.00024H22.5442C22.942 7.00024 23.3236 6.84221 23.6049 6.5609C23.8862 6.2796 24.0442 5.89807 24.0442 5.50024C24.0442 5.10242 23.8862 4.72089 23.6049 4.43958C23.3236 4.15828 22.942 4.00024 22.5442 4.00024H10.5442C10.1464 4.00024 9.76484 4.15828 9.48353 4.43958C9.20223 4.72089 9.04419 5.10242 9.04419 5.50024C9.04419 5.89807 9.20223 6.2796 9.48353 6.5609C9.76484 6.84221 10.1464 7.00024 10.5442 7.00024Z" fill="black"/>
<path d="M22.5442 10.9998H10.5442C10.1464 10.9998 9.76484 11.1578 9.48353 11.4391C9.20223 11.7204 9.04419 12.1019 9.04419 12.4998C9.04419 12.8976 9.20223 13.2791 9.48353 13.5604C9.76484 13.8417 10.1464 13.9998 10.5442 13.9998H22.5442C22.942 13.9998 23.3236 13.8417 23.6049 13.5604C23.8862 13.2791 24.0442 12.8976 24.0442 12.4998C24.0442 12.1019 23.8862 11.7204 23.6049 11.4391C23.3236 11.1578 22.942 10.9998 22.5442 10.9998Z" fill="black"/>
<path d="M22.5442 18H10.5442C10.1464 18 9.76484 18.158 9.48353 18.4393C9.20223 18.7206 9.04419 19.1022 9.04419 19.5C9.04419 19.8978 9.20223 20.2794 9.48353 20.5607C9.76484 20.842 10.1464 21 10.5442 21H22.5442C22.942 21 23.3236 20.842 23.6049 20.5607C23.8862 20.2794 24.0442 19.8978 24.0442 19.5C24.0442 19.1022 23.8862 18.7206 23.6049 18.4393C23.3236 18.158 22.942 18 22.5442 18Z" fill="black"/>
<path d="M5.13016 6.99985C5.32791 6.99981 5.52121 6.94114 5.68562 6.83125C5.85003 6.72137 5.97817 6.5652 6.05384 6.3825C6.12951 6.1998 6.14931 5.99877 6.11075 5.80482C6.07218 5.61086 5.97697 5.4327 5.83716 5.29285L3.75116 3.20685C3.56363 3.01938 3.30933 2.91406 3.04416 2.91406C2.779 2.91406 2.52469 3.01938 2.33716 3.20685L0.251161 5.29285C0.111352 5.4327 0.0161451 5.61086 -0.0224225 5.80482C-0.06099 5.99877 -0.0411871 6.1998 0.034483 6.3825C0.110153 6.5652 0.238293 6.72137 0.402703 6.83125C0.567112 6.94114 0.760411 6.99981 0.958161 6.99985H1.54416V17.9999H0.958161C0.760411 17.9999 0.567112 18.0586 0.402703 18.1684C0.238293 18.2783 0.110153 18.4345 0.034483 18.6172C-0.0411871 18.7999 -0.06099 19.0009 -0.0224225 19.1949C0.0161451 19.3888 0.111352 19.567 0.251161 19.7069L2.30016 21.7549C2.48769 21.9423 2.742 22.0476 3.00716 22.0476C3.27233 22.0476 3.52663 21.9423 3.71416 21.7549L5.76216 19.7069C5.90203 19.5669 5.99726 19.3887 6.03579 19.1946C6.07433 19.0006 6.05444 18.7995 5.97865 18.6167C5.90285 18.434 5.77456 18.2778 5.61 18.168C5.44543 18.0582 5.252 17.9997 5.05416 17.9999H4.54416V6.99985H5.13016Z" fill="black"/>
</g>
<defs>
<clipPath id="clip0_606_6698">
<rect width="24" height="24" fill="white"/>
</clipPath>
</defs>
</svg>
