<svg width="24" height="24" viewBox="0 0 24 24" fill="none" xmlns="http://www.w3.org/2000/svg">
<g clip-path="url(#clip0_606_6588)">
<path d="M16 16.5002C16 16.898 15.842 17.2795 15.5607 17.5609C15.2793 17.8422 14.8978 18.0002 14.5 18.0002H9.49999C9.10217 18.0002 8.72064 17.8422 8.43933 17.5609C8.15803 17.2795 7.99999 16.898 7.99999 16.5002C7.99999 16.1024 8.15803 15.7208 8.43933 15.4395C8.72064 15.1582 9.10217 15.0002 9.49999 15.0002H14.5C14.8978 15.0002 15.2793 15.1582 15.5607 15.4395C15.842 15.7208 16 16.1024 16 16.5002ZM8.93899 12.5612C9.07829 12.7006 9.24369 12.8112 9.42575 12.8866C9.6078 12.962 9.80293 13.0009 9.99999 13.0009C10.1971 13.0009 10.3922 12.962 10.5742 12.8866C10.7563 12.8112 10.9217 12.7006 11.061 12.5612L12 11.6212L12.939 12.5612C13.2204 12.8426 13.602 13.0007 14 13.0007C14.3979 13.0007 14.7796 12.8426 15.061 12.5612C15.3424 12.2798 15.5005 11.8981 15.5005 11.5002C15.5005 11.1022 15.3424 10.7206 15.061 10.4392L14.121 9.50019L15.061 8.56119C15.3424 8.2798 15.5005 7.89814 15.5005 7.50019C15.5005 7.10224 15.3424 6.72059 15.061 6.43919C14.7796 6.1578 14.3979 5.99971 14 5.99971C13.602 5.99971 13.2204 6.1578 12.939 6.43919L12 7.37919L11.061 6.43919C10.7796 6.1578 10.3979 5.99971 9.99999 5.99971C9.60204 5.99971 9.22039 6.1578 8.93899 6.43919C8.6576 6.72059 8.49951 7.10224 8.49951 7.50019C8.49951 7.89814 8.6576 8.2798 8.93899 8.56119L9.87899 9.50019L8.93899 10.4392C8.7996 10.5785 8.68903 10.7439 8.61359 10.9259C8.53814 11.108 8.49931 11.3031 8.49931 11.5002C8.49931 11.6973 8.53814 11.8924 8.61359 12.0744C8.68903 12.2565 8.7996 12.4219 8.93899 12.5612ZM5.49999 15.0002H1.49999C1.10217 15.0002 0.720637 15.1582 0.439332 15.4395C0.158028 15.7208 -7.70739e-06 16.1024 -7.70739e-06 16.5002C-7.70739e-06 16.898 0.158028 17.2795 0.439332 17.5609C0.720637 17.8422 1.10217 18.0002 1.49999 18.0002H5.49999C5.89782 18.0002 6.27935 17.8422 6.56065 17.5609C6.84196 17.2795 6.99999 16.898 6.99999 16.5002C6.99999 16.1024 6.84196 15.7208 6.56065 15.4395C6.27935 15.1582 5.89782 15.0002 5.49999 15.0002ZM6.56099 6.43919C6.42169 6.2998 6.25629 6.18923 6.07424 6.11378C5.89219 6.03834 5.69706 5.99951 5.49999 5.99951C5.30293 5.99951 5.1078 6.03834 4.92575 6.11378C4.74369 6.18923 4.57829 6.2998 4.43899 6.43919L3.49999 7.37919L2.56099 6.43919C2.2796 6.1578 1.89794 5.99971 1.49999 5.99971C1.10204 5.99971 0.720387 6.1578 0.438992 6.43919C0.157598 6.72059 -0.000488278 7.10224 -0.000488281 7.50019C-0.000488284 7.89814 0.157598 8.2798 0.438992 8.56119L1.37899 9.50019L0.438992 10.4392C0.157598 10.7206 -0.000488284 11.1022 -0.000488281 11.5002C-0.000488278 11.8981 0.157598 12.2798 0.438992 12.5612C0.720387 12.8426 1.10204 13.0007 1.49999 13.0007C1.89794 13.0007 2.2796 12.8426 2.56099 12.5612L3.49999 11.6212L4.43899 12.5612C4.72039 12.8426 5.10204 13.0007 5.49999 13.0007C5.89794 13.0007 6.2796 12.8426 6.56099 12.5612C6.84239 12.2798 7.00047 11.8981 7.00047 11.5002C7.00047 11.1022 6.84239 10.7206 6.56099 10.4392L5.62099 9.50019L6.56099 8.56119C6.70038 8.42189 6.81096 8.25649 6.8864 8.07444C6.96184 7.89239 7.00067 7.69726 7.00067 7.50019C7.00067 7.30313 6.96184 7.108 6.8864 6.92594C6.81096 6.74389 6.70038 6.57849 6.56099 6.43919ZM22.5 15.0002H18.5C18.1022 15.0002 17.7206 15.1582 17.4393 15.4395C17.158 15.7208 17 16.1024 17 16.5002C17 16.898 17.158 17.2795 17.4393 17.5609C17.7206 17.8422 18.1022 18.0002 18.5 18.0002H22.5C22.8978 18.0002 23.2793 17.8422 23.5607 17.5609C23.842 17.2795 24 16.898 24 16.5002C24 16.1024 23.842 15.7208 23.5607 15.4395C23.2793 15.1582 22.8978 15.0002 22.5 15.0002ZM22.621 9.50019L23.561 8.56119C23.7003 8.42186 23.8108 8.25645 23.8863 8.0744C23.9617 7.89235 24.0005 7.69724 24.0005 7.50019C24.0005 7.30315 23.9617 7.10803 23.8863 6.92598C23.8108 6.74394 23.7003 6.57852 23.561 6.43919C23.4217 6.29986 23.2562 6.18933 23.0742 6.11393C22.8922 6.03852 22.697 5.99971 22.5 5.99971C22.3029 5.99971 22.1078 6.03852 21.9258 6.11393C21.7437 6.18933 21.5783 6.29986 21.439 6.43919L20.5 7.37919L19.561 6.43919C19.4217 6.29986 19.2562 6.18933 19.0742 6.11393C18.8922 6.03852 18.697 5.99971 18.5 5.99971C18.102 5.99971 17.7204 6.1578 17.439 6.43919C17.2997 6.57852 17.1891 6.74394 17.1137 6.92598C17.0383 7.10803 16.9995 7.30315 16.9995 7.50019C16.9995 7.89814 17.1576 8.2798 17.439 8.56119L18.379 9.50019L17.439 10.4392C17.1576 10.7206 16.9995 11.1022 16.9995 11.5002C16.9995 11.8981 17.1576 12.2798 17.439 12.5612C17.7204 12.8426 18.102 13.0007 18.5 13.0007C18.8979 13.0007 19.2796 12.8426 19.561 12.5612L20.5 11.6212L21.439 12.5612C21.7204 12.8426 22.102 13.0007 22.5 13.0007C22.8979 13.0007 23.2796 12.8426 23.561 12.5612C23.8424 12.2798 24.0005 11.8981 24.0005 11.5002C24.0005 11.1022 23.8424 10.7206 23.561 10.4392L22.621 9.50019Z" fill="black"/>
</g>
<defs>
<clipPath id="clip0_606_6588">
<rect width="24" height="24" fill="white"/>
</clipPath>
</defs>
</svg>
