<svg width="24" height="24" viewBox="0 0 24 24" fill="none" xmlns="http://www.w3.org/2000/svg">
<g clip-path="url(#clip0_606_6603)">
<path d="M19 13.9991C18.3497 13.9998 17.7058 14.1282 17.105 14.3771L13.947 10.5621L20.655 2.45612C20.7824 2.30466 20.8786 2.12948 20.938 1.94068C20.9974 1.75188 21.0189 1.55319 21.0011 1.35606C20.9834 1.15893 20.9268 0.967254 20.8347 0.792089C20.7425 0.616923 20.6166 0.461727 20.4642 0.335446C20.3118 0.209165 20.1359 0.114295 19.9466 0.0563049C19.7574 -0.00168566 19.5586 -0.0216503 19.3616 -0.00243839C19.1646 0.0167735 18.9733 0.074782 18.7989 0.168244C18.6244 0.261706 18.4701 0.388773 18.345 0.542122L12 8.20912L5.656 0.542122C5.40219 0.235532 5.03698 0.0423252 4.64071 0.00500547C4.24445 -0.0323143 3.84959 0.0893099 3.543 0.343122C3.23641 0.596934 3.0432 0.962144 3.00588 1.35841C2.96856 1.75467 3.09019 2.14953 3.344 2.45612L10.053 10.5611L6.9 14.3771C5.78731 13.9144 4.54562 13.8657 3.40013 14.24C2.25464 14.6142 1.2812 15.3866 0.656347 16.417C0.0314955 17.4474 -0.203386 18.6677 -0.00569981 19.8564C0.191986 21.0452 0.809148 22.1237 1.73386 22.8965C2.65857 23.6692 3.82959 24.085 5.03456 24.0683C6.23952 24.0517 7.39863 23.6038 8.30167 22.8058C9.20471 22.0079 9.79188 20.9127 9.95669 19.719C10.1215 18.5252 9.85304 17.3119 9.2 16.2991L12 12.9141L14.8 16.2991C14.202 17.233 13.932 18.3393 14.0325 19.4437C14.133 20.548 14.5984 21.5874 15.3552 22.398C16.112 23.2085 17.1171 23.744 18.2119 23.9199C19.3068 24.0958 20.4291 23.9022 21.4017 23.3696C22.3743 22.837 23.1419 21.9957 23.5833 20.9784C24.0248 19.9612 24.115 18.8259 23.8396 17.7517C23.5643 16.6775 22.9392 15.7256 22.0629 15.0461C21.1865 14.3666 20.1089 13.9982 19 13.9991ZM5 20.9991C4.60444 20.9991 4.21776 20.8818 3.88886 20.6621C3.55996 20.4423 3.30362 20.1299 3.15224 19.7645C3.00086 19.399 2.96126 18.9969 3.03843 18.6089C3.1156 18.221 3.30608 17.8646 3.58579 17.5849C3.86549 17.3052 4.22186 17.1147 4.60982 17.0376C4.99778 16.9604 5.39991 17 5.76537 17.1514C6.13082 17.3027 6.44318 17.5591 6.66294 17.888C6.8827 18.2169 7 18.6036 7 18.9991C7 19.5296 6.78929 20.0383 6.41421 20.4133C6.03914 20.7884 5.53043 20.9991 5 20.9991ZM19 20.9991C18.6044 20.9991 18.2178 20.8818 17.8889 20.6621C17.56 20.4423 17.3036 20.1299 17.1522 19.7645C17.0009 19.399 16.9613 18.9969 17.0384 18.6089C17.1156 18.221 17.3061 17.8646 17.5858 17.5849C17.8655 17.3052 18.2219 17.1147 18.6098 17.0376C18.9978 16.9604 19.3999 17 19.7654 17.1514C20.1308 17.3027 20.4432 17.5591 20.6629 17.888C20.8827 18.2169 21 18.6036 21 18.9991C21 19.5296 20.7893 20.0383 20.4142 20.4133C20.0391 20.7884 19.5304 20.9991 19 20.9991Z" fill="black"/>
</g>
<defs>
<clipPath id="clip0_606_6603">
<rect width="24" height="24" fill="white"/>
</clipPath>
</defs>
</svg>
