<svg width="24" height="24" viewBox="0 0 24 24" fill="none" xmlns="http://www.w3.org/2000/svg">
<g clip-path="url(#clip0_606_6980)">
<path d="M15.341 6.00012H14.992C15.9405 5.68467 16.8094 5.16748 17.539 4.48412C18.3744 3.55263 18.8844 2.37475 18.992 1.12812C19.0116 0.976377 18.9961 0.82216 18.9468 0.677334C18.8974 0.532509 18.8155 0.400937 18.7073 0.292749C18.5992 0.18456 18.4676 0.10264 18.3228 0.0532936C18.1779 0.00394727 18.0237 -0.0115089 17.872 0.00811503C16.6253 0.115681 15.4475 0.625647 14.516 1.46112C13.8192 2.24477 13.3624 3.21218 13.2 4.24812C12.9352 2.97733 12.4437 1.76463 11.749 0.668115C11.5283 0.336594 11.185 0.106309 10.7945 0.0279187C10.4041 -0.0504715 9.9985 0.0294549 9.66698 0.250115C9.33545 0.470775 9.10517 0.814094 9.02678 1.20454C8.94839 1.595 9.02832 2.00059 9.24898 2.33212C9.93478 3.44205 10.3462 4.69946 10.449 6.00012H8.65898C6.31844 6.04898 4.09274 7.02373 2.46964 8.71075C0.846539 10.3978 -0.0415587 12.6594 -2.42474e-05 15.0001C-0.194024 20.6551 5.93298 25.8771 11.074 23.3201C11.3553 23.1081 11.6987 22.9949 12.0509 22.998C12.4031 23.0011 12.7444 23.1203 13.022 23.3371C18.138 25.8821 24.181 20.5781 24 15.0001C24.0415 12.6594 23.1534 10.3978 21.5303 8.71075C19.9072 7.02373 17.6815 6.04898 15.341 6.00012ZM15.341 21.0001C15.0128 20.9799 14.6962 20.8711 14.425 20.6851C13.6914 20.2464 12.8547 20.01 12 20.0001C11.187 20.0175 10.3922 20.2438 9.69198 20.6571C9.38451 20.8618 9.02779 20.9802 8.65898 21.0001C1.18198 20.7541 1.18498 9.24412 8.65898 9.00012H15.341C22.82 9.24712 22.814 20.7561 15.341 21.0001Z" fill="black"/>
</g>
<defs>
<clipPath id="clip0_606_6980">
<rect width="24" height="24" fill="white"/>
</clipPath>
</defs>
</svg>
