<svg width="24" height="24" viewBox="0 0 24 24" fill="none" xmlns="http://www.w3.org/2000/svg">
<g clip-path="url(#clip0_606_6825)">
<path d="M24.0001 5C23.9985 4.32732 23.7709 3.6747 23.3538 3.14695C22.9366 2.6192 22.3543 2.24696 21.7001 2.09C21.4268 1.46892 20.9788 0.940702 20.4106 0.569637C19.8425 0.198572 19.1787 0.000663221 18.5001 0L5.50014 0C4.82156 0.000663221 4.15781 0.198572 3.58967 0.569637C3.02153 0.940702 2.57351 1.46892 2.30014 2.09C1.67132 2.2495 1.11115 2.60853 0.703605 3.11327C0.296061 3.61801 0.0631096 4.24125 0.0396781 4.88956C0.0162467 5.53787 0.203597 6.1763 0.573641 6.70915C0.943684 7.24199 1.47648 7.64052 2.09214 7.845L3.53914 19.4C3.69902 20.6693 4.31625 21.8367 5.27516 22.6835C6.23407 23.5303 7.46885 23.9983 8.74814 24H15.2481C16.5274 23.9983 17.7622 23.5303 18.7211 22.6835C19.68 21.8367 20.2973 20.6693 20.4571 19.4L21.9061 7.845C22.5118 7.65412 23.041 7.27564 23.4174 6.76423C23.7938 6.25283 23.9979 5.63499 24.0001 5ZM18.2381 13H14.8161C13.9161 9.041 10.0831 9.043 9.18414 13H5.76214L5.13714 8H18.8631L18.2381 13ZM5.50014 3H18.5001C18.6328 3 18.7599 3.05268 18.8537 3.14645C18.9475 3.24021 19.0001 3.36739 19.0001 3.5V5H5.00014V3.5C5.00014 3.36739 5.05282 3.24021 5.14659 3.14645C5.24036 3.05268 5.36753 3 5.50014 3ZM15.2521 21H8.75214C8.20381 20.999 7.67464 20.7982 7.26363 20.4352C6.85263 20.0723 6.58796 19.572 6.51914 19.028L6.13714 16H9.18414C10.0841 19.959 13.9171 19.957 14.8161 16H17.8631L17.4841 19.029C17.4155 19.5728 17.151 20.073 16.7402 20.4358C16.3293 20.7986 15.8003 20.9992 15.2521 21Z" fill="black"/>
</g>
<defs>
<clipPath id="clip0_606_6825">
<rect width="24" height="24" fill="white"/>
</clipPath>
</defs>
</svg>
