<svg width="24" height="24" viewBox="0 0 24 24" fill="none" xmlns="http://www.w3.org/2000/svg">
<g clip-path="url(#clip0_606_6511)">
<path d="M1.49999 24.0084C1.69714 24.0088 1.89241 23.9702 2.07452 23.8946C2.25664 23.8191 2.42198 23.7082 2.56099 23.5684L8.51099 17.6144L9.23899 18.3674C10.2062 19.3828 11.5371 19.9727 12.939 20.0074C13.4216 20.0083 13.9008 19.9268 14.356 19.7664C15.063 19.517 15.684 19.0706 16.1457 18.4799C16.6075 17.8892 16.8907 17.1788 16.962 16.4324C17.0662 15.4476 16.994 14.452 16.749 13.4924L16.707 13.2924L20.095 9.90544L20.547 10.3584C20.8796 10.7079 21.3248 10.9287 21.8043 10.9821C22.2837 11.0356 22.7666 10.9181 23.168 10.6504C23.403 10.4825 23.5988 10.2655 23.7416 10.0144C23.8844 9.76324 23.9709 9.48407 23.995 9.1962C24.0192 8.90833 23.9805 8.61865 23.8815 8.34725C23.7826 8.07584 23.6258 7.8292 23.422 7.62444L16.455 0.641439C16.1224 0.292012 15.6772 0.0711438 15.1977 0.0177295C14.7183 -0.0356849 14.2353 0.0817802 13.834 0.349439C13.5989 0.517368 13.4032 0.734414 13.2604 0.985526C13.1176 1.23664 13.0311 1.51581 13.0069 1.80368C12.9828 2.09155 13.0215 2.38123 13.1205 2.65263C13.2194 2.92404 13.3762 3.17067 13.58 3.37544L14.1 3.90044L10.72 7.28144C9.73898 7.02437 8.71946 6.94745 7.71099 7.05444C6.93265 7.13448 6.19348 7.43557 5.58073 7.92215C4.96799 8.40873 4.50728 9.06048 4.25299 9.80044C3.97869 10.5543 3.92491 11.3707 4.09795 12.1541C4.27098 12.9374 4.66366 13.6552 5.22999 14.2234L6.42999 15.4594L0.438986 21.4484C0.229413 21.6583 0.0867439 21.9255 0.0290071 22.2164C-0.0287297 22.5073 0.00105733 22.8088 0.114604 23.0827C0.228151 23.3567 0.420361 23.5909 0.666945 23.7556C0.913529 23.9204 1.20342 24.0084 1.49999 24.0084ZM7.08099 10.8004C7.14751 10.5959 7.2719 10.4151 7.43909 10.2799C7.60628 10.1446 7.8091 10.0608 8.02299 10.0384C8.67836 9.96984 9.34075 10.0207 9.97799 10.1884L10.807 10.3994C11.0591 10.4637 11.3236 10.4612 11.5745 10.3923C11.8254 10.3234 12.054 10.1904 12.238 10.0064L16.22 6.02244L17.974 7.78244L14.01 11.7474C13.8337 11.9238 13.7042 12.1414 13.6331 12.3804C13.562 12.6194 13.5517 12.8724 13.603 13.1164L13.828 14.1794C13.9938 14.8126 14.0439 15.4705 13.976 16.1214C13.9665 16.3048 13.9017 16.481 13.7902 16.6268C13.6786 16.7727 13.5255 16.8813 13.351 16.9384C12.9919 17.0229 12.6163 17.0043 12.2673 16.8849C11.9183 16.7655 11.6101 16.5501 11.378 16.2634L7.36999 12.1184C7.20098 11.9493 7.08396 11.7353 7.03274 11.5017C6.98153 11.2681 6.99827 11.0248 7.08099 10.8004Z" fill="black"/>
</g>
<defs>
<clipPath id="clip0_606_6511">
<rect width="24" height="24" fill="white"/>
</clipPath>
</defs>
</svg>
