<svg width="24" height="24" viewBox="0 0 24 24" fill="none" xmlns="http://www.w3.org/2000/svg">
<g clip-path="url(#clip0_606_6894)">
<path d="M7.6999 15.0079C7.41861 15.2891 7.03715 15.4471 6.63941 15.4471C6.24166 15.4471 5.8602 15.2891 5.5789 15.0079L0.857904 10.2829C0.308498 9.7331 -0.00012207 8.98765 -0.00012207 8.2104C-0.00012207 7.43315 0.308498 6.6877 0.857904 6.1379L5.5829 1.41291C5.86832 1.15351 6.24269 1.01401 6.62826 1.02339C7.01383 1.03278 7.38097 1.19031 7.65343 1.46329C7.9259 1.73627 8.08274 2.1037 8.09139 2.48929C8.10005 2.87488 7.95985 3.24898 7.6999 3.53391L4.4669 6.7009H18.6799C20.0903 6.70223 21.4425 7.26301 22.4399 8.2602C23.4373 9.25739 23.9983 10.6095 23.9999 12.0199V18.7009C23.9986 20.1109 23.4379 21.4628 22.4408 22.4598C21.4438 23.4568 20.0919 24.0176 18.6819 24.0189H5.3179C4.92008 24.0189 4.53855 23.8608 4.25724 23.5795C3.97594 23.2982 3.8179 22.9167 3.8179 22.5189C3.8179 22.1211 3.97594 21.7395 4.25724 21.4582C4.53855 21.1769 4.92008 21.0189 5.3179 21.0189H18.6809C19.2956 21.0184 19.885 20.774 20.3197 20.3394C20.7545 19.9049 20.9991 19.3156 20.9999 18.7009V12.0199C20.9994 11.4049 20.7547 10.8152 20.3197 10.3804C19.8848 9.94554 19.295 9.70116 18.6799 9.7009H4.5219L7.6999 12.8869C7.98111 13.1682 8.13908 13.5496 8.13908 13.9474C8.13908 14.3451 7.98111 14.7266 7.6999 15.0079Z" fill="black"/>
</g>
<defs>
<clipPath id="clip0_606_6894">
<rect width="24" height="24" fill="white"/>
</clipPath>
</defs>
</svg>
