<svg width="24" height="24" viewBox="0 0 24 24" fill="none" xmlns="http://www.w3.org/2000/svg">
<path d="M18.5 22.0007H5.5C4.0418 21.9991 2.64377 21.4192 1.61267 20.3881C0.581561 19.357 0.00158817 17.9589 0 16.5007L0 7.50073C0.00158817 6.04253 0.581561 4.64451 1.61267 3.6134C2.64377 2.58229 4.0418 2.00232 5.5 2.00073H18.5C19.9582 2.00232 21.3562 2.58229 22.3873 3.6134C23.4184 4.64451 23.9984 6.04253 24 7.50073V16.5007C23.9984 17.9589 23.4184 19.357 22.3873 20.3881C21.3562 21.4192 19.9582 21.9991 18.5 22.0007ZM5.5 5.00073C4.83696 5.00073 4.20107 5.26412 3.73223 5.73297C3.26339 6.20181 3 6.83769 3 7.50073V16.5007C3 17.1638 3.26339 17.7997 3.73223 18.2685C4.20107 18.7373 4.83696 19.0007 5.5 19.0007H18.5C19.163 19.0007 19.7989 18.7373 20.2678 18.2685C20.7366 17.7997 21 17.1638 21 16.5007V7.50073C21 6.83769 20.7366 6.20181 20.2678 5.73297C19.7989 5.26412 19.163 5.00073 18.5 5.00073H5.5Z" fill="black"/>
<path d="M17.5001 12H11.5001C11.1022 12 10.7207 11.842 10.4394 11.5607C10.1581 11.2794 10.0001 10.8978 10.0001 10.5C10.0001 10.1022 10.1581 9.72064 10.4394 9.43934C10.7207 9.15804 11.1022 9 11.5001 9H17.5001C17.8979 9 18.2794 9.15804 18.5607 9.43934C18.842 9.72064 19.0001 10.1022 19.0001 10.5C19.0001 10.8978 18.842 11.2794 18.5607 11.5607C18.2794 11.842 17.8979 12 17.5001 12Z" fill="black"/>
<path d="M12.4999 17.0005H6.49994C6.10211 17.0005 5.72058 16.8425 5.43928 16.5611C5.15797 16.2798 4.99994 15.8983 4.99994 15.5005C4.99994 15.1027 5.15797 14.7211 5.43928 14.4398C5.72058 14.1585 6.10211 14.0005 6.49994 14.0005H12.4999C12.8978 14.0005 13.2793 14.1585 13.5606 14.4398C13.8419 14.7211 13.9999 15.1027 13.9999 15.5005C13.9999 15.8983 13.8419 16.2798 13.5606 16.5611C13.2793 16.8425 12.8978 17.0005 12.4999 17.0005Z" fill="black"/>
<path d="M6.49994 12C7.32837 12 7.99994 11.3284 7.99994 10.5C7.99994 9.67157 7.32837 9 6.49994 9C5.67151 9 4.99994 9.67157 4.99994 10.5C4.99994 11.3284 5.67151 12 6.49994 12Z" fill="black"/>
<path d="M17.5001 17.0093C18.3285 17.0093 19.0001 16.3377 19.0001 15.5093C19.0001 14.6809 18.3285 14.0093 17.5001 14.0093C16.6716 14.0093 16.0001 14.6809 16.0001 15.5093C16.0001 16.3377 16.6716 17.0093 17.5001 17.0093Z" fill="black"/>
</svg>
