<svg width="24" height="24" viewBox="0 0 24 24" fill="none" xmlns="http://www.w3.org/2000/svg">
<g clip-path="url(#clip0_606_6669)">
<path d="M14.4999 13.0003C14.2033 13.0003 13.9133 12.9123 13.6666 12.7475C13.4199 12.5827 13.2277 12.3484 13.1141 12.0743C13.0006 11.8002 12.9709 11.4986 13.0288 11.2076C13.0866 10.9167 13.2295 10.6494 13.4393 10.4396C13.6491 10.2298 13.9163 10.087 14.2073 10.0291C14.4983 9.97122 14.7999 10.0009 15.074 10.1145C15.3481 10.228 15.5823 10.4202 15.7472 10.6669C15.912 10.9136 15.9999 11.2036 15.9999 11.5003C15.9999 11.8981 15.8419 12.2796 15.5606 12.5609C15.2793 12.8422 14.8978 13.0003 14.4999 13.0003ZM21.8869 8.06727C21.4253 5.78708 20.188 3.73725 18.3854 2.2665C16.5828 0.79575 14.3264 -0.00507308 11.9999 0.000270712C5.05295 0.000270712 2.99995 4.58227 1.78095 7.31927C1.53474 7.99597 1.18527 8.63048 0.744945 9.20027C0.464944 9.35971 0.243726 9.60508 0.114041 9.90004C-0.0156437 10.195 -0.0469014 10.5239 0.0248958 10.838C0.0966929 11.1521 0.267728 11.4348 0.512681 11.6441C0.757633 11.8534 1.06348 11.9783 1.38495 12.0003C3.66926 12.0917 5.94964 11.7396 8.09995 10.9633C7.99326 11.2396 7.97077 11.5413 8.03532 11.8304C8.09986 12.1195 8.24854 12.383 8.46261 12.5877C8.67669 12.7924 8.94658 12.9291 9.23826 12.9807C9.52993 13.0322 9.83034 12.9962 10.1016 12.8773C10.3729 12.7583 10.6029 12.5618 10.7626 12.3123C10.9223 12.0628 11.0045 11.7717 10.999 11.4756C10.9935 11.1794 10.9004 10.8915 10.7315 10.6482C10.5626 10.4049 10.3255 10.217 10.0499 10.1083C11.3431 9.44432 12.5262 8.58526 13.5579 7.56127C13.8393 7.27988 13.9974 6.89822 13.9974 6.50027C13.9974 6.10232 13.8393 5.72067 13.5579 5.43927C13.2766 5.15788 12.8949 4.99979 12.4969 4.99979C12.099 4.99979 11.7173 5.15788 11.4359 5.43927C9.5016 7.27713 7.03854 8.46056 4.39495 8.82227L4.51995 8.54427C5.68095 5.94527 6.99995 3.00027 11.9999 3.00027C13.7511 2.99604 15.4414 3.64181 16.7437 4.81253C18.0459 5.98324 18.8674 7.59558 19.0489 9.33727C19.0831 9.65975 19.2208 9.96247 19.4415 10.2001C19.6621 10.4377 19.9539 10.5974 20.2729 10.6553C20.4764 10.692 20.6605 10.7988 20.7933 10.9572C20.9261 11.1156 20.9993 11.3156 20.9999 11.5223C21.0002 11.6525 20.9745 11.7815 20.9244 11.9017C20.8743 12.0219 20.8007 12.1308 20.7079 12.2223C20.5217 12.4067 20.27 12.5098 20.0079 12.5093H19.9969H19.8349C19.5044 12.4842 19.1747 12.5684 18.8968 12.7492C18.6189 12.9299 18.4081 13.197 18.2969 13.5093C17.7856 14.7809 16.9209 15.8796 15.8051 16.6754C14.6892 17.4713 13.3688 17.931 11.9999 18.0003C10.7232 17.8913 9.49447 17.4625 8.42714 16.7535C7.35981 16.0444 6.48827 15.078 5.89295 13.9433C5.8198 13.7603 5.71134 13.5936 5.57375 13.4526C5.43617 13.3116 5.27216 13.199 5.09109 13.1214C4.72539 12.9646 4.31239 12.9595 3.94295 13.1073C3.5735 13.255 3.27787 13.5434 3.12109 13.9091C2.96431 14.2748 2.95922 14.6878 3.10695 15.0573C3.92606 16.8757 5.28534 18.3976 6.99995 19.4163V22.5003C6.99995 22.8981 7.15798 23.2796 7.43929 23.5609C7.72059 23.8422 8.10212 24.0003 8.49995 24.0003C8.89777 24.0003 9.2793 23.8422 9.56061 23.5609C9.84191 23.2796 9.99995 22.8981 9.99995 22.5003V20.7323C10.6526 20.9057 11.3246 20.9957 11.9999 21.0003C12.6752 20.9895 13.3467 20.8975 13.9999 20.7263V22.5003C13.9999 22.8981 14.158 23.2796 14.4393 23.5609C14.7206 23.8422 15.1021 24.0003 15.4999 24.0003C15.8978 24.0003 16.2793 23.8422 16.5606 23.5609C16.8419 23.2796 16.9999 22.8981 16.9999 22.5003V19.4553C18.5783 18.4782 19.8633 17.0926 20.7189 15.4453C21.6387 15.2792 22.471 14.7955 23.0706 14.0786C23.6702 13.3616 23.9991 12.4569 23.9999 11.5223C23.9999 10.8077 23.8025 10.107 23.4297 9.49739C23.0569 8.88778 22.523 8.3929 21.8869 8.06727Z" fill="black"/>
</g>
<defs>
<clipPath id="clip0_606_6669">
<rect width="24" height="24" fill="white"/>
</clipPath>
</defs>
</svg>
