<svg width="24" height="24" viewBox="0 0 24 24" fill="none" xmlns="http://www.w3.org/2000/svg">
<g clip-path="url(#clip0_606_6822)">
<path d="M18.5001 24.0003H13.0341C5.7111 24.1433 -0.7459 18.2553 0.0561003 10.8853C0.304857 8.27106 1.40261 5.81015 3.18163 3.87854C4.96066 1.94693 7.32313 0.650842 9.9081 0.188287C11.6071 -0.126486 13.3548 -0.0592667 15.0246 0.385071C16.6943 0.829408 18.2443 1.63973 19.5621 2.75729C20.9569 3.93003 22.0772 5.39463 22.844 7.0477C23.6109 8.70077 24.0055 10.502 24.0001 12.3243V18.5003C23.9985 19.9585 23.4185 21.3565 22.3874 22.3876C21.3563 23.4187 19.9583 23.9987 18.5001 24.0003ZM12.0301 3.00029C9.7846 2.99835 7.6191 3.83394 5.95693 5.34373C4.29476 6.85352 3.25542 8.92894 3.0421 11.1643C2.91981 12.3566 3.05071 13.5613 3.42621 14.6995C3.80171 15.8377 4.41335 16.8838 5.2211 17.7693C6.22835 18.8199 7.44302 19.6497 8.78803 20.2059C10.133 20.7621 11.579 21.0326 13.0341 21.0003H18.5001C19.1631 21.0003 19.799 20.7369 20.2679 20.2681C20.7367 19.7992 21.0001 19.1633 21.0001 18.5003V12.3243C21.005 10.94 20.706 9.57141 20.1242 8.31524C19.5425 7.05908 18.6921 5.94591 17.6331 5.05429C16.0691 3.72512 14.0826 2.99688 12.0301 3.00029ZM14.5001 8.00029C13.8045 8.03501 13.1509 8.34383 12.6824 8.85919C12.2139 9.37456 11.9686 10.0545 12.0001 10.7503C12.0295 10.4042 11.9867 10.0557 11.8744 9.72695C11.7621 9.39821 11.5828 9.09638 11.3478 8.84056C11.1128 8.58474 10.8272 8.38051 10.5091 8.24081C10.1911 8.1011 9.84748 8.02896 9.5001 8.02896C9.15272 8.02896 8.80912 8.1011 8.49107 8.24081C8.17302 8.38051 7.88744 8.58474 7.65243 8.84056C7.41741 9.09638 7.23808 9.39821 7.12579 9.72695C7.0135 10.0557 6.9707 10.4042 7.0001 10.7503C7.0001 12.9133 9.8201 15.6013 11.2251 16.7283C11.445 16.9045 11.7183 17.0006 12.0001 17.0006C12.2819 17.0006 12.5552 16.9045 12.7751 16.7283C14.1801 15.6003 17.0001 12.9133 17.0001 10.7503C17.0316 10.0545 16.7863 9.37456 16.3178 8.85919C15.8493 8.34383 15.1957 8.03501 14.5001 8.00029Z" fill="black"/>
</g>
<defs>
<clipPath id="clip0_606_6822">
<rect width="24" height="24" fill="white"/>
</clipPath>
</defs>
</svg>
