<svg width="24" height="24" viewBox="0 0 24 24" fill="none" xmlns="http://www.w3.org/2000/svg">
<g clip-path="url(#clip0_606_6496)">
<path d="M5.5 0H3.5C2.57174 0 1.6815 0.368749 1.02513 1.02513C0.368749 1.6815 0 2.57174 0 3.5L0 5.5C0.00226823 6.33771 0.305439 7.14673 0.854266 7.77962C1.40309 8.41252 2.16104 8.82716 2.99 8.948V9.493C2.98814 9.89031 3.14398 10.2721 3.42332 10.5547C3.70267 10.8372 4.0827 10.9974 4.48 11C4.67707 11.0011 4.87241 10.9633 5.05487 10.8888C5.23732 10.8143 5.40332 10.7046 5.54336 10.566C5.68341 10.4273 5.79476 10.2624 5.87105 10.0807C5.94734 9.89902 5.98708 9.70407 5.988 9.507V8.95C6.73251 8.84485 7.42305 8.50172 7.95653 7.97185C8.49001 7.44198 8.8378 6.75379 8.948 6.01H9.492C9.88948 6.01213 10.2716 5.8564 10.5543 5.57703C10.8371 5.29766 10.9974 4.91748 11 4.52C11.0011 4.32302 10.9633 4.12775 10.8889 3.94536C10.8145 3.76297 10.7049 3.59702 10.5663 3.45699C10.4278 3.31696 10.263 3.20559 10.0814 3.12924C9.89983 3.05288 9.70498 3.01305 9.508 3.012H8.95C8.83394 2.1787 8.42109 1.41526 7.7873 0.861931C7.15351 0.308603 6.34134 0.00255158 5.5 0V0ZM6 5.5C6 5.63261 5.94732 5.75979 5.85355 5.85355C5.75979 5.94732 5.63261 6 5.5 6H3.5C3.36739 6 3.24021 5.94732 3.14645 5.85355C3.05268 5.75979 3 5.63261 3 5.5V3.5C3 3.36739 3.05268 3.24021 3.14645 3.14645C3.24021 3.05268 3.36739 3 3.5 3H5.5C5.63261 3 5.75979 3.05268 5.85355 3.14645C5.94732 3.24021 6 3.36739 6 3.5V5.5Z" fill="black"/>
<path d="M20.4999 0H18.4999C17.6622 0.00226823 16.8532 0.305439 16.2203 0.854266C15.5874 1.40309 15.1727 2.16104 15.0519 2.99H14.5079C14.1104 2.98787 13.7283 3.1436 13.4456 3.42297C13.1628 3.70234 13.0025 4.08252 12.9999 4.48C12.9988 4.67698 13.0366 4.87225 13.111 5.05464C13.1854 5.23703 13.295 5.40298 13.4336 5.54301C13.5721 5.68304 13.7369 5.79441 13.9185 5.87076C14.1001 5.94711 14.2949 5.98695 14.4919 5.988H15.0499C15.1554 6.73215 15.4988 7.42224 16.0286 7.95532C16.5584 8.4884 17.2464 8.83591 17.9899 8.946V9.491C17.9875 9.88865 18.1431 10.271 18.4225 10.554C18.7019 10.8369 19.0822 10.9974 19.4799 11C19.677 11.0011 19.8723 10.9633 20.0548 10.8888C20.2372 10.8143 20.4032 10.7046 20.5433 10.566C20.6833 10.4273 20.7947 10.2624 20.8709 10.0807C20.9472 9.89902 20.987 9.70407 20.9879 9.507V8.95C21.8212 8.83394 22.5846 8.42109 23.138 7.7873C23.6913 7.15351 23.9973 6.34134 23.9999 5.5V3.5C23.9999 2.57174 23.6312 1.6815 22.9748 1.02513C22.3184 0.368749 21.4282 0 20.4999 0ZM20.9999 5.5C20.9999 5.63261 20.9472 5.75979 20.8535 5.85355C20.7597 5.94732 20.6325 6 20.4999 6H18.4999C18.3673 6 18.2401 5.94732 18.1463 5.85355C18.0526 5.75979 17.9999 5.63261 17.9999 5.5V3.5C17.9999 3.36739 18.0526 3.24021 18.1463 3.14645C18.2401 3.05268 18.3673 3 18.4999 3H20.4999C20.6325 3 20.7597 3.05268 20.8535 3.14645C20.9472 3.24021 20.9999 3.36739 20.9999 3.5V5.5Z" fill="black"/>
<path d="M21.0099 15.053V14.508C21.0118 14.1107 20.8559 13.7289 20.5766 13.4463C20.2972 13.1638 19.9172 13.0036 19.5199 13.001C19.3228 12.9999 19.1275 13.0377 18.945 13.1122C18.7626 13.1867 18.5966 13.2964 18.4565 13.435C18.3165 13.5737 18.2051 13.7386 18.1288 13.9203C18.0526 14.102 18.0128 14.2969 18.0119 14.494V15.051C17.2679 15.1567 16.5781 15.5001 16.0452 16.03C15.5123 16.5598 15.1649 17.2476 15.0549 17.991H14.5109C14.3138 17.9895 14.1184 18.0269 13.9358 18.1011C13.7532 18.1752 13.587 18.2845 13.4467 18.4229C13.3063 18.5613 13.1946 18.7259 13.118 18.9075C13.0413 19.089 13.0012 19.2839 12.9999 19.481C12.9988 19.678 13.0366 19.8732 13.111 20.0556C13.1854 20.238 13.295 20.404 13.4336 20.544C13.5721 20.684 13.7369 20.7954 13.9185 20.8718C14.1001 20.9481 14.2949 20.988 14.4919 20.989H15.0499C15.166 21.8223 15.5788 22.5857 16.2126 23.1391C16.8464 23.6924 17.6586 23.9984 18.4999 24.001H20.4999C21.4282 24.001 22.3184 23.6322 22.9748 22.9759C23.6312 22.3195 23.9999 21.4293 23.9999 20.501V18.501C23.9976 17.6633 23.6945 16.8543 23.1456 16.2214C22.5968 15.5885 21.8389 15.1738 21.0099 15.053ZM20.9999 20.501C20.9999 20.6336 20.9472 20.7608 20.8535 20.8546C20.7597 20.9483 20.6325 21.001 20.4999 21.001H18.4999C18.3673 21.001 18.2401 20.9483 18.1463 20.8546C18.0526 20.7608 17.9999 20.6336 17.9999 20.501V18.501C17.9999 18.3684 18.0526 18.2412 18.1463 18.1474C18.2401 18.0537 18.3673 18.001 18.4999 18.001H20.4999C20.6325 18.001 20.7597 18.0537 20.8535 18.1474C20.9472 18.2412 20.9999 18.3684 20.9999 18.501V20.501Z" fill="black"/>
<path d="M6.01 15.053V14.508C6.01186 14.1107 5.85602 13.7289 5.57668 13.4463C5.29733 13.1638 4.9173 13.0036 4.52 13.001C4.32293 12.9999 4.12759 13.0377 3.94513 13.1122C3.76268 13.1867 3.59668 13.2964 3.45664 13.435C3.31659 13.5737 3.20524 13.7386 3.12895 13.9203C3.05266 14.102 3.01292 14.2969 3.012 14.494V15.051C2.1787 15.1671 1.41526 15.5799 0.861931 16.2137C0.308603 16.8475 0.00255158 17.6597 0 18.501L0 20.501C0 21.4293 0.368749 22.3195 1.02513 22.9759C1.6815 23.6322 2.57174 24.001 3.5 24.001H5.5C6.33771 23.9987 7.14673 23.6956 7.77962 23.1467C8.41252 22.5979 8.82716 21.84 8.948 21.011H9.492C9.88948 21.0131 10.2716 20.8574 10.5543 20.578C10.8371 20.2987 10.9974 19.9185 11 19.521C11.0011 19.324 10.9633 19.1288 10.8889 18.9464C10.8145 18.764 10.7049 18.598 10.5663 18.458C10.4278 18.318 10.263 18.2066 10.0814 18.1302C9.89983 18.0539 9.70498 18.014 9.508 18.013H8.95C8.84485 17.2685 8.50172 16.5779 7.97185 16.0445C7.44198 15.511 6.75379 15.1632 6.01 15.053ZM6 20.501C6 20.6336 5.94732 20.7608 5.85355 20.8546C5.75979 20.9483 5.63261 21.001 5.5 21.001H3.5C3.36739 21.001 3.24021 20.9483 3.14645 20.8546C3.05268 20.7608 3 20.6336 3 20.501V18.501C3 18.3684 3.05268 18.2412 3.14645 18.1474C3.24021 18.0537 3.36739 18.001 3.5 18.001H5.5C5.63261 18.001 5.75979 18.0537 5.85355 18.1474C5.94732 18.2412 6 18.3684 6 18.501V20.501Z" fill="black"/>
</g>
<defs>
<clipPath id="clip0_606_6496">
<rect width="24" height="24" fill="white"/>
</clipPath>
</defs>
</svg>
