<svg width="24" height="24" viewBox="0 0 24 24" fill="none" xmlns="http://www.w3.org/2000/svg">
<g clip-path="url(#clip0_606_6630)">
<path d="M21.4997 2.00087H13.4997C12.8367 2.00087 12.2008 2.26426 11.7319 2.7331C11.2631 3.20194 10.9997 3.83783 10.9997 4.50087V4.80087L9.73472 2.60687C9.57493 2.31163 9.35812 2.05106 9.09685 1.84026C8.83558 1.62946 8.53506 1.47263 8.21272 1.37887C7.67657 1.228 7.10539 1.26048 6.58981 1.47117C6.07423 1.68186 5.64377 2.05869 5.36672 2.54187L0.374727 11.1879C0.199603 11.4739 0.0829219 11.7919 0.0314287 12.1233C-0.0200644 12.4548 -0.00534783 12.7931 0.0747277 13.1189C0.212151 13.6575 0.525196 14.135 0.964374 14.4759C1.40355 14.8167 1.9438 15.0014 2.49972 15.0009H5.19972C4.89779 16.0539 4.84454 17.1627 5.04419 18.2398C5.24384 19.3169 5.69093 20.333 6.35021 21.2079C7.00949 22.0828 7.86296 22.7926 8.84334 23.2814C9.82373 23.7702 10.9042 24.0246 11.9997 24.0246C13.0952 24.0246 14.1757 23.7702 15.1561 23.2814C16.1365 22.7926 16.9899 22.0828 17.6492 21.2079C18.3085 20.333 18.7556 19.3169 18.9552 18.2398C19.1549 17.1627 19.1016 16.0539 18.7997 15.0009H21.4997C21.828 15.0009 22.1531 14.9362 22.4564 14.8106C22.7597 14.6849 23.0353 14.5008 23.2675 14.2686C23.4996 14.0365 23.6838 13.7609 23.8094 13.4576C23.935 13.1543 23.9997 12.8292 23.9997 12.5009V4.50087C23.9997 4.17256 23.935 3.84747 23.8094 3.54416C23.6838 3.24085 23.4996 2.96525 23.2675 2.7331C23.0353 2.50096 22.7597 2.31681 22.4564 2.19117C22.1531 2.06554 21.828 2.00087 21.4997 2.00087ZM3.36972 12.0009L7.53172 4.79187L10.5417 10.0009C9.16479 10.2921 7.9065 10.9886 6.92872 12.0009H3.36972ZM11.9997 21.0008C11.194 21.0008 10.4063 20.7619 9.73632 20.3143C9.06636 19.8666 8.54418 19.2303 8.23583 18.4859C7.92748 17.7415 7.8468 16.9223 8.004 16.1321C8.1612 15.3418 8.54921 14.6159 9.11897 14.0461C9.68872 13.4763 10.4146 13.0883 11.2049 12.9311C11.9952 12.7739 12.8143 12.8546 13.5588 13.163C14.3032 13.4713 14.9395 13.9935 15.3871 14.6635C15.8348 15.3334 16.0737 16.1211 16.0737 16.9269C16.0724 18.0069 15.6427 19.0424 14.879 19.8061C14.1153 20.5699 13.0798 20.9995 11.9997 21.0008ZM20.9997 12.0009H17.0707C16.2136 11.1398 15.1595 10.5007 13.9997 10.1389V5.00087H20.9997V12.0009Z" fill="black"/>
</g>
<defs>
<clipPath id="clip0_606_6630">
<rect width="24" height="24" fill="white"/>
</clipPath>
</defs>
</svg>
