<svg width="24" height="24" viewBox="0 0 24 24" fill="none" xmlns="http://www.w3.org/2000/svg">
<g clip-path="url(#clip0_606_6956)">
<path d="M20.3889 4.26802L17.7319 1.61102C17.2225 1.0986 16.6164 0.692361 15.9489 0.415827C15.2813 0.139292 14.5655 -0.00203834 13.8429 2.22109e-05H7.49994C6.04174 0.00161038 4.64371 0.581583 3.61261 1.61269C2.5815 2.6438 2.00153 4.04182 1.99994 5.50002V18.5C2.00153 19.9582 2.5815 21.3563 3.61261 22.3874C4.64371 23.4185 6.04174 23.9984 7.49994 24H16.4999C17.9581 23.9984 19.3562 23.4185 20.3873 22.3874C21.4184 21.3563 21.9984 19.9582 21.9999 18.5V8.15702C22.0019 7.43447 21.8605 6.7187 21.584 6.05116C21.3075 5.38361 20.9013 4.77754 20.3889 4.26802ZM16.4999 21H7.49994C6.8369 21 6.20101 20.7366 5.73217 20.2678C5.26333 19.7989 4.99994 19.1631 4.99994 18.5V5.50002C4.99994 4.83698 5.26333 4.2011 5.73217 3.73226C6.20101 3.26341 6.8369 3.00002 7.49994 3.00002H12.9999V7.00002C12.9999 7.53046 13.2107 8.03916 13.5857 8.41424C13.9608 8.78931 14.4695 9.00002 14.9999 9.00002H18.9999V18.5C18.9999 19.1631 18.7365 19.7989 18.2677 20.2678C17.7989 20.7366 17.163 21 16.4999 21ZM17.0859 11.466C17.3601 11.7541 17.5086 12.1392 17.4988 12.5368C17.4891 12.9343 17.3218 13.3117 17.0339 13.586L13.4479 17C12.7894 17.6449 11.903 18.004 10.9813 17.9994C10.0596 17.9947 9.1769 17.6266 8.52494 16.975L6.99994 15.62C6.85286 15.4887 6.73308 15.3297 6.64745 15.1521C6.56182 14.9745 6.51202 14.7817 6.50087 14.5849C6.48973 14.388 6.51747 14.1909 6.58251 14.0047C6.64755 13.8186 6.74862 13.6471 6.87994 13.5C7.01126 13.3529 7.17027 13.2332 7.34788 13.1475C7.52549 13.0619 7.71823 13.0121 7.91509 13.001C8.11195 12.9898 8.30907 13.0176 8.49521 13.0826C8.68135 13.1476 8.85286 13.2487 8.99994 13.38L10.5859 14.794C10.6373 14.8547 10.7005 14.9043 10.7717 14.9397C10.8429 14.9752 10.9205 14.9957 10.9999 15C11.1323 15 11.2592 14.9475 11.3529 14.854L14.9659 11.414C15.254 11.1399 15.6392 10.9914 16.0367 11.0012C16.4342 11.0109 16.8116 11.1781 17.0859 11.466Z" fill="black"/>
</g>
<defs>
<clipPath id="clip0_606_6956">
<rect width="24" height="24" fill="white"/>
</clipPath>
</defs>
</svg>
