<svg width="24" height="24" viewBox="0 0 24 24" fill="none" xmlns="http://www.w3.org/2000/svg">
<g clip-path="url(#clip0_606_6929)">
<path d="M16.4998 8.00105H8.00035V7.22809C8.00077 4.89316 9.89393 3.0007 12.2289 3.00112C13.7662 3.0014 15.1823 3.83619 15.9268 5.18119C16.3288 5.90545 17.2419 6.16667 17.9662 5.76465C18.6904 5.36263 18.9517 4.44956 18.5496 3.72529C16.6148 0.233989 12.2159 -1.02766 8.72457 0.907258C6.42671 2.18077 5.00082 4.60091 5.00054 7.22809V8.608C3.16147 9.54651 2.00298 11.436 2.00073 13.5007V18.5004C2.00406 21.5364 4.46437 23.9967 7.50036 24H16.4998C19.5358 23.9967 21.9961 21.5364 21.9994 18.5004V13.5007C21.9962 10.4647 19.5358 8.00438 16.4998 8.00105ZM18.9997 18.5004C18.9997 19.881 17.8804 21.0002 16.4998 21.0002H7.50041C6.11979 21.0002 5.00059 19.881 5.00059 18.5004V13.5007C5.00059 12.1201 6.11979 11.0009 7.50041 11.0009H16.4998C17.8804 11.0009 18.9997 12.1201 18.9997 13.5007V18.5004Z" fill="black"/>
<path d="M11.5001 14H12.5001C13.3284 14 14 14.6715 14 15.4999C14 16.3283 13.3284 16.9998 12.5001 16.9998H11.5001C10.6718 16.9998 10.0002 16.3283 10.0002 15.4999C10.0002 14.6715 10.6718 14 11.5001 14Z" fill="black"/>
</g>
<defs>
<clipPath id="clip0_606_6929">
<rect width="24" height="24" fill="white"/>
</clipPath>
</defs>
</svg>
