<svg width="24" height="24" viewBox="0 0 24 24" fill="none" xmlns="http://www.w3.org/2000/svg">
<g clip-path="url(#clip0_606_6507)">
<path d="M21.621 19.4995L23.561 17.5605C23.8424 17.2791 24.0005 16.8975 24.0005 16.4995C24.0005 16.1016 23.8424 15.7199 23.561 15.4385C23.2796 15.1571 22.8979 14.999 22.5 14.999C22.102 14.999 21.7204 15.1571 21.439 15.4385L19.5 17.3785L17.561 15.4385C17.2796 15.1571 16.8979 14.999 16.5 14.999C16.102 14.999 15.7204 15.1571 15.439 15.4385C15.1576 15.7199 14.9995 16.1016 14.9995 16.4995C14.9995 16.8975 15.1576 17.2791 15.439 17.5605L17.379 19.4995L15.439 21.4385C15.1576 21.7199 14.9995 22.1016 14.9995 22.4995C14.9995 22.8975 15.1576 23.2791 15.439 23.5605C15.7204 23.8419 16.102 24 16.5 24C16.8979 24 17.2796 23.8419 17.561 23.5605L19.5 21.6205L21.439 23.5605C21.7204 23.8419 22.102 24 22.5 24C22.8979 24 23.2796 23.8419 23.561 23.5605C23.8424 23.2791 24.0005 22.8975 24.0005 22.4995C24.0005 22.1016 23.8424 21.7199 23.561 21.4385L21.621 19.4995Z" fill="black"/>
<path d="M11.57 20.9898C9.82862 20.9065 8.14892 20.3191 6.73501 19.2992C5.32111 18.2792 4.23387 16.8706 3.60541 15.2444C2.97695 13.6183 2.83432 11.8446 3.19486 10.1389C3.5554 8.43316 4.40358 6.86889 5.63634 5.63613C6.8691 4.40337 8.43337 3.55519 10.1391 3.19465C11.8448 2.83411 13.6185 2.97674 15.2446 3.6052C16.8708 4.23366 18.2795 5.3209 19.2994 6.7348C20.3193 8.14871 20.9067 9.82841 20.99 11.5698C21.0086 11.9676 21.1844 12.3418 21.4788 12.61C21.7733 12.8781 22.1622 13.0184 22.56 12.9998C22.9578 12.9812 23.332 12.8054 23.6002 12.511C23.8683 12.2165 24.0086 11.8276 23.99 11.4298C23.8796 9.10773 23.0972 6.8677 21.7377 4.98196C20.3782 3.09621 18.5003 1.64594 16.3321 0.807391C14.1639 -0.0311561 11.7988 -0.221872 9.52429 0.258422C7.24975 0.738715 5.16368 1.86934 3.51961 3.51288C1.87554 5.15643 0.744258 7.24213 0.26324 9.51652C-0.217778 11.7909 -0.0278152 14.156 0.810041 16.3245C1.6479 18.493 3.09757 20.3714 4.98288 21.7314C6.8682 23.0915 9.10797 23.8747 11.43 23.9858H11.501C11.8988 23.995 12.284 23.8457 12.5718 23.5709C12.8596 23.296 13.0264 22.9181 13.0355 22.5203C13.0447 22.1225 12.8954 21.7373 12.6206 21.4495C12.3457 21.1618 11.9678 20.995 11.57 20.9858V20.9898Z" fill="black"/>
<path d="M12 6C11.6022 6 11.2207 6.15803 10.9394 6.43934C10.658 6.72064 10.5 7.10217 10.5 7.5V11.055L8.10001 12.555C7.933 12.6596 7.78822 12.796 7.67396 12.9565C7.55969 13.1171 7.47818 13.2985 7.43406 13.4906C7.38995 13.6826 7.38411 13.8815 7.41688 14.0758C7.44964 14.2701 7.52037 14.456 7.62501 14.623C7.72958 14.79 7.86602 14.9348 8.02655 15.049C8.18709 15.1633 8.36856 15.2448 8.5606 15.2889C8.75265 15.333 8.9515 15.3389 9.1458 15.3061C9.34011 15.2734 9.52605 15.2026 9.69301 15.098L12.562 13.298C12.8499 13.1176 13.087 12.8669 13.2511 12.5695C13.4153 12.272 13.5009 11.9377 13.5 11.598V7.5C13.5 7.10217 13.342 6.72064 13.0607 6.43934C12.7794 6.15803 12.3978 6 12 6Z" fill="black"/>
</g>
<defs>
<clipPath id="clip0_606_6507">
<rect width="24" height="24" fill="white"/>
</clipPath>
</defs>
</svg>
