<svg width="24" height="24" viewBox="0 0 24 24" fill="none" xmlns="http://www.w3.org/2000/svg">
<g clip-path="url(#clip0_606_6633)">
<path d="M18.4489 16.0003C17.7193 15.9984 16.9966 16.1415 16.3228 16.4213C15.649 16.7012 15.0375 17.1121 14.5239 17.6303C12.2439 19.9153 9.00593 21.0303 4.62393 21.0303H3.52393C3.4194 21.0336 3.31649 21.004 3.22966 20.9457C3.14284 20.8874 3.07648 20.8033 3.03993 20.7053C2.99617 20.6087 2.98373 20.5009 3.00435 20.3969C3.02497 20.2928 3.07763 20.1979 3.15493 20.1253L3.66593 19.6133C5.97725 19.4642 8.15427 18.4751 9.78693 16.8323L13.6209 12.9843C13.6699 12.9843 13.7209 12.9963 13.7679 12.9983C13.8549 12.9983 13.9419 13.0043 14.0279 13.0043C15.6357 13.0025 17.177 12.3631 18.3139 11.2263L19.2259 10.3133C19.8196 9.71679 20.283 9.00348 20.5867 8.21857C20.8903 7.43366 21.0277 6.59424 20.9901 5.75347C20.9525 4.9127 20.7408 4.08889 20.3682 3.33422C19.9957 2.57955 19.4705 1.91046 18.8259 1.36931C17.6197 0.408879 16.0993 -0.0686877 14.5605 0.0294508C13.0218 0.127589 11.5744 0.79442 10.4999 1.90031L9.92193 2.48031C9.25691 3.14592 8.74624 3.9495 8.42604 4.83424C8.10584 5.71898 7.98393 6.66326 8.06893 7.60031L4.31993 11.3563C2.68217 12.9943 1.6971 15.1727 1.54893 17.4843L1.03293 18.0003C0.540153 18.4939 0.204643 19.1224 0.0687495 19.8065C-0.0671439 20.4907 0.0026702 21.1997 0.26938 21.8442C0.53609 22.4886 0.987741 23.0396 1.56733 23.4277C2.14691 23.8157 2.82846 24.0233 3.52593 24.0243H4.62593C9.84393 24.0243 13.7769 22.6243 16.6489 19.7463C16.8846 19.5088 17.165 19.3203 17.474 19.1919C17.7829 19.0635 18.1143 18.9977 18.4489 18.9983C19.1269 18.9999 19.7765 19.2707 20.2549 19.7511C20.7333 20.2316 21.0013 20.8823 20.9999 21.5603V22.5263C20.9999 22.9241 21.158 23.3057 21.4393 23.587C21.7206 23.8683 22.1021 24.0263 22.4999 24.0263C22.8978 24.0263 23.2793 23.8683 23.5606 23.587C23.8419 23.3057 23.9999 22.9241 23.9999 22.5263V21.5603C23.9999 20.0873 23.4154 18.6744 22.3746 17.632C21.3339 16.5895 19.922 16.0027 18.4489 16.0003ZM12.0409 4.60031L12.6179 4.02231C13.2541 3.37579 14.1209 3.00821 15.0279 3.00031C15.7101 2.99293 16.3728 3.22788 16.8979 3.66331C17.2241 3.93716 17.4899 4.27577 17.6784 4.65768C17.8669 5.03958 17.974 5.45648 17.993 5.88195C18.012 6.30742 17.9424 6.73219 17.7887 7.12938C17.6349 7.52656 17.4004 7.88749 17.0999 8.18931L16.1879 9.10331C15.8885 9.40385 15.5297 9.63855 15.1343 9.79239C14.739 9.94624 14.3159 10.0158 13.8921 9.99673C13.4683 9.97762 13.0531 9.87022 12.6733 9.68142C12.2934 9.49262 11.9571 9.22657 11.6859 8.90031C11.2038 8.26621 10.9733 7.47613 11.0388 6.68223C11.1043 5.88833 11.4613 5.14675 12.0409 4.60031ZM6.44093 13.4803L9.26193 10.6493C9.30693 10.7073 9.33693 10.7723 9.38393 10.8283C9.71309 11.2181 10.0904 11.5646 10.5069 11.8593L7.66393 14.7103C6.85642 15.5231 5.84944 16.1094 4.74393 16.4103C5.04403 15.3001 5.63022 14.288 6.44393 13.4753L6.44093 13.4803Z" fill="black"/>
</g>
<defs>
<clipPath id="clip0_606_6633">
<rect width="24" height="24" fill="white"/>
</clipPath>
</defs>
</svg>
