<svg width="24" height="24" viewBox="0 0 24 24" fill="none" xmlns="http://www.w3.org/2000/svg">
<g clip-path="url(#clip0_606_6610)">
<path d="M22.374 1.03808C21.8656 0.616282 21.2705 0.311605 20.631 0.145691C19.9915 -0.0202236 19.3234 -0.0433063 18.674 0.0780821L9.486 1.80008C8.22517 2.03659 7.08667 2.70638 6.26748 3.69357C5.44829 4.68077 4.99994 5.92326 5 7.20608V16.1411C4.67402 16.0518 4.33797 16.0044 4 16.0001C3.20888 16.0001 2.43552 16.2347 1.77772 16.6742C1.11992 17.1137 0.607234 17.7384 0.304484 18.4693C0.00173312 19.2003 -0.0774802 20.0045 0.0768607 20.7804C0.231202 21.5564 0.612165 22.2691 1.17157 22.8285C1.73098 23.3879 2.44372 23.7689 3.21964 23.9232C3.99557 24.0776 4.79983 23.9984 5.53074 23.6956C6.26164 23.3929 6.88636 22.8802 7.32588 22.2224C7.76541 21.5646 8 20.7912 8 20.0001V12.0001C8.00009 11.6502 8.12249 11.3114 8.346 11.0422C8.56952 10.773 8.8801 10.5905 9.224 10.5261L20.407 8.42608C20.4792 8.41066 20.554 8.41221 20.6255 8.43061C20.697 8.449 20.7632 8.48374 20.819 8.53208C20.876 8.57932 20.9218 8.63863 20.9531 8.70573C20.9844 8.77283 21.0004 8.84604 21 8.92008V13.1411C20.1935 12.9342 19.3425 12.9846 18.5661 13.2854C17.7897 13.5861 17.1268 14.1221 16.6701 14.8183C16.2134 15.5145 15.9858 16.3361 16.0192 17.168C16.0526 18 16.3453 18.8006 16.8563 19.458C17.3674 20.1153 18.0711 20.5964 18.8692 20.834C19.6672 21.0715 20.5195 21.0536 21.3068 20.7827C22.0941 20.5118 22.777 20.0015 23.2599 19.3232C23.7429 18.645 24.0016 17.8327 24 17.0001V4.50008C24.0007 3.83888 23.8554 3.18568 23.5743 2.5872C23.2932 1.98871 22.8833 1.45973 22.374 1.03808ZM19.855 5.47908L8.671 7.57708C8.44281 7.62274 8.21848 7.68593 8 7.76608V7.20608C8.00003 6.62304 8.20384 6.05835 8.57618 5.60968C8.94852 5.16101 9.46596 4.85659 10.039 4.74908L19.224 3.02708C19.4405 2.98656 19.6633 2.9942 19.8765 3.04948C20.0897 3.10475 20.2881 3.2063 20.4576 3.3469C20.6271 3.48751 20.7636 3.66372 20.8574 3.86303C20.9511 4.06233 20.9998 4.27983 21 4.50008V5.47608C20.6207 5.41458 20.2339 5.4156 19.855 5.47908Z" fill="black"/>
</g>
<defs>
<clipPath id="clip0_606_6610">
<rect width="24" height="24" fill="white"/>
</clipPath>
</defs>
</svg>
