<svg width="24" height="24" viewBox="0 0 24 24" fill="none" xmlns="http://www.w3.org/2000/svg">
<g clip-path="url(#clip0_606_6785)">
<path d="M22.682 4.33256L19.667 1.31855C18.8253 0.471186 17.6793 -0.00384542 16.485 -0.000470419H4.5C2.01586 0.00229521 0.00276563 2.01539 0 4.49953V19.4995C0.00276563 21.9837 2.01586 23.9968 4.5 23.9995H19.5C21.9841 23.9968 23.9972 21.9837 24 19.4995V7.51453C24.0034 6.32039 23.5288 5.17453 22.682 4.33256ZM21 19.4995C21 20.328 20.3284 20.9995 19.5 20.9995H4.5C3.67158 20.9995 3 20.328 3 19.4995V4.49953C3 3.67111 3.67158 2.99953 4.5 2.99953H6C6 5.20865 7.79086 6.99951 9.99998 6.99951H13C15.1698 6.9952 16.9405 5.26176 16.991 3.09253C17.1991 3.16519 17.3884 3.28336 17.545 3.43851L20.561 6.4545C20.8429 6.73509 21.001 7.11675 21 7.51448V19.4995H21Z" fill="black"/>
<path d="M12 18C14.2091 18 16 16.2091 16 14C16 11.7909 14.2091 10 12 10C9.79085 10 8 11.7909 8 14C8 16.2091 9.79085 18 12 18Z" fill="black"/>
</g>
<defs>
<clipPath id="clip0_606_6785">
<rect width="24" height="24" fill="white"/>
</clipPath>
</defs>
</svg>
