<svg width="24" height="24" viewBox="0 0 24 24" fill="none" xmlns="http://www.w3.org/2000/svg">
<g clip-path="url(#clip0_606_6790)">
<path d="M17.561 10.5612L16.121 12.0002L17.561 13.4392C17.8424 13.7206 18.0005 14.1023 18.0005 14.5002C18.0005 14.8982 17.8424 15.2798 17.561 15.5612C17.2796 15.8426 16.8979 16.0007 16.5 16.0007C16.102 16.0007 15.7204 15.8426 15.439 15.5612L14 14.1212L12.561 15.5612C12.2796 15.8426 11.8979 16.0007 11.5 16.0007C11.102 16.0007 10.7204 15.8426 10.439 15.5612C10.1576 15.2798 9.99951 14.8982 9.99951 14.5002C9.99951 14.3032 10.0383 14.1081 10.1137 13.926C10.1891 13.744 10.2997 13.5786 10.439 13.4392L11.879 12.0002L10.439 10.5612C10.1576 10.2798 9.99951 9.8982 9.99951 9.50024C9.99951 9.10229 10.1576 8.72064 10.439 8.43924C10.7204 8.15785 11.102 7.99976 11.5 7.99976C11.8979 7.99976 12.2796 8.15785 12.561 8.43924L14 9.87924L15.439 8.43924C15.7204 8.15785 16.102 7.99976 16.5 7.99976C16.8979 7.99976 17.2796 8.15785 17.561 8.43924C17.8424 8.72064 18.0005 9.10229 18.0005 9.50024C18.0005 9.8982 17.8424 10.2798 17.561 10.5612ZM24 7.00024V17.0002C23.9984 18.3258 23.4711 19.5967 22.5338 20.534C21.5964 21.4714 20.3256 21.9987 19 22.0002H9.97699C9.1321 21.9978 8.29898 21.802 7.54149 21.4278C6.784 21.0535 6.12226 20.5108 5.60699 19.8412L0.306987 12.9112C0.107005 12.6497 -0.00134277 12.3295 -0.00134277 12.0002C-0.00134277 11.671 0.107005 11.3508 0.306987 11.0892L5.60699 4.15924C6.12226 3.48966 6.784 2.94695 7.54149 2.57271C8.29898 2.19847 9.1321 2.00265 9.97699 2.00024H19C20.3256 2.00183 21.5964 2.52913 22.5338 3.46646C23.4711 4.4038 23.9984 5.67465 24 7.00024ZM21 7.00024C21 6.46981 20.7893 5.9611 20.4142 5.58603C20.0391 5.21096 19.5304 5.00024 19 5.00024H9.97699C9.5929 5.00139 9.21417 5.09038 8.86977 5.26041C8.52537 5.43045 8.22443 5.67701 7.98999 5.98124L3.38899 12.0002L7.98899 18.0192C8.22354 18.3236 8.52464 18.5703 8.86922 18.7403C9.2138 18.9103 9.59273 18.9993 9.97699 19.0002H19C19.5304 19.0002 20.0391 18.7895 20.4142 18.4145C20.7893 18.0394 21 17.5307 21 17.0002V7.00024Z" fill="black"/>
</g>
<defs>
<clipPath id="clip0_606_6790">
<rect width="24" height="24" fill="white"/>
</clipPath>
</defs>
</svg>
