<svg width="24" height="24" viewBox="0 0 24 24" fill="none" xmlns="http://www.w3.org/2000/svg">
<g clip-path="url(#clip0_606_6663)">
<path d="M8.00014 22.3601C9.06227 23.4059 10.4915 23.9946 11.982 24.0002C13.4726 24.0058 14.9062 23.4279 15.9761 22.3901L19.7841 18.8531C21.8423 16.7758 22.9969 13.9699 22.9969 11.0456C22.9969 8.12141 21.8423 5.31546 19.7841 3.23815C18.7648 2.21206 17.5526 1.39772 16.2173 0.842026C14.882 0.286328 13.45 0.000244141 12.0036 0.000244141C10.5573 0.000244141 9.12527 0.286328 7.78996 0.842026C6.45465 1.39772 5.24245 2.21206 4.22314 3.23815C2.1598 5.32363 1.00596 8.14113 1.01383 11.0748C1.0217 14.0085 2.19064 16.8198 4.26514 18.8941L8.00014 22.3601ZM6.34614 5.35415C7.08668 4.60819 7.96752 4.01615 8.9379 3.61213C9.90828 3.20811 10.949 3.00011 12.0001 3.00011C13.0513 3.00011 14.092 3.20811 15.0624 3.61213C16.0328 4.01615 16.9136 4.60819 17.6541 5.35415C19.1524 6.85922 19.9974 8.89401 20.006 11.0177C20.0146 13.1414 19.1862 15.183 17.7001 16.7001L13.9001 20.2251C13.3825 20.7187 12.6932 20.9915 11.9781 20.9859C11.2629 20.9803 10.5779 20.6967 10.0681 20.1951L6.34614 16.7371C4.84518 15.2232 4.00303 13.1776 4.00303 11.0456C4.00303 8.91374 4.84518 6.86814 6.34614 5.35415ZM7.00014 11.0001C7.00014 10.6023 7.15817 10.2208 7.43948 9.93949C7.72078 9.65818 8.10231 9.50015 8.50014 9.50015H15.5001C15.898 9.50015 16.2795 9.65818 16.5608 9.93949C16.8421 10.2208 17.0001 10.6023 17.0001 11.0001C17.0001 11.398 16.8421 11.7795 16.5608 12.0608C16.2795 12.3421 15.898 12.5001 15.5001 12.5001H8.50014C8.10231 12.5001 7.72078 12.3421 7.43948 12.0608C7.15817 11.7795 7.00014 11.398 7.00014 11.0001Z" fill="black"/>
</g>
<defs>
<clipPath id="clip0_606_6663">
<rect width="24" height="24" fill="white"/>
</clipPath>
</defs>
</svg>
