<svg width="24" height="24" viewBox="0 0 24 24" fill="none" xmlns="http://www.w3.org/2000/svg">
<g clip-path="url(#clip0_606_6649)">
<path d="M20.5062 0H16.5129C15.6859 0 15.0155 0.670453 15.0155 1.49747C15.0155 2.32448 15.6859 2.99494 16.5129 2.99494H18.8879L13.3683 8.51456C9.51379 5.82952 4.21246 6.77752 1.52742 10.632C-1.15763 14.4864 -0.209629 19.7878 3.64481 22.4728C7.49925 25.1579 12.8006 24.2099 15.4857 20.3554C17.5209 17.4338 17.5209 13.5536 15.4857 10.632L21.0053 5.11233V7.4873C21.0053 8.31431 21.6757 8.98477 22.5028 8.98477C23.3298 8.98477 24.0002 8.31431 24.0002 7.4873V3.49406C24.0002 1.56436 22.4359 0 20.5062 0ZM8.52647 20.9644C5.49403 20.9644 3.03576 18.5062 3.03576 15.4737C3.03576 12.4413 5.49403 9.98302 8.52647 9.98302C11.5589 9.98302 14.0172 12.4413 14.0172 15.4737C14.0139 18.5048 11.5575 20.9611 8.52647 20.9644Z" fill="black"/>
</g>
<defs>
<clipPath id="clip0_606_6649">
<rect width="24" height="24" fill="white"/>
</clipPath>
</defs>
</svg>
