<svg width="24" height="24" viewBox="0 0 24 24" fill="none" xmlns="http://www.w3.org/2000/svg">
<g clip-path="url(#clip0_606_6540)">
<path d="M22.167 13.4793L19.7184 14.0628C19.4104 14.1412 19.1158 14.2651 18.8442 14.4303L16.8527 13.2075C17.0678 12.4173 17.0678 11.584 16.8527 10.7938L18.8442 9.57102C19.1158 9.73621 19.4104 9.86005 19.7184 9.93847C19.7184 9.93847 22.399 10.5628 22.5145 10.5628C23.3394 10.5549 24.0016 9.87983 23.9938 9.05493C23.9873 8.3736 23.5205 7.78302 22.859 7.61933L20.4065 7.03283C20.3508 7.01929 20.3032 6.98319 20.275 6.93327C20.2449 6.88522 20.2356 6.82701 20.2492 6.77197L20.8327 4.32243C21.0714 3.53282 20.6248 2.69919 19.8352 2.46051C19.0456 2.22182 18.2119 2.6684 17.9732 3.45801C17.9555 3.51655 17.9415 3.57608 17.9311 3.63637L17.3476 6.08591C17.2791 6.3929 17.2566 6.70832 17.2809 7.02191L15.2894 8.24966C14.7774 7.8088 14.1807 7.47735 13.5359 7.27583V4.93082C13.8185 4.78762 14.0776 4.60227 14.3046 4.38116L16.086 2.60076C16.6692 2.01726 16.6689 1.07146 16.0854 0.488287C15.5019 -0.0949316 14.5561 -0.0946972 13.973 0.488803L12.1926 2.27015C12.1102 2.35265 11.9765 2.35274 11.894 2.27033C11.894 2.27029 11.8939 2.27019 11.8938 2.27015L10.1115 0.488756C9.52796 -0.0947441 8.58198 -0.0947441 7.99848 0.488756C7.41498 1.07226 7.41498 2.01824 7.99848 2.60174L9.77987 4.38215C10.0068 4.60288 10.2661 4.7879 10.5486 4.93082V7.27583C9.90516 7.47918 9.31013 7.81194 8.80004 8.25365L6.80354 7.02191C6.82848 6.70602 6.80598 6.38816 6.73684 6.07893L6.15334 3.63637C5.97493 2.83101 5.1774 2.32274 4.37204 2.50115C3.56668 2.67955 3.05841 3.47708 3.23682 4.28244C3.24024 4.29782 3.2439 4.31315 3.24779 4.32838L3.83129 6.77793C3.84488 6.83301 3.83555 6.89122 3.80541 6.93922C3.77729 6.98919 3.72966 7.02524 3.67398 7.03879L1.22541 7.61929C0.423008 7.81087 -0.0721796 8.6166 0.119399 9.41896C0.279711 10.0905 0.879477 10.5647 1.5699 10.5658C1.6854 10.5658 4.36595 9.94143 4.36595 9.94143C4.67396 9.86301 4.96862 9.73916 5.24021 9.57397L7.2317 10.7968C7.01663 11.5869 7.01663 12.4203 7.2317 13.2104L5.24021 14.4332C4.96862 14.268 4.67396 14.1442 4.36595 14.0658L1.91738 13.4823C1.12899 13.2396 0.293117 13.682 0.0503986 14.4703C-0.19232 15.2587 0.250086 16.0946 1.03848 16.3373C1.09974 16.3562 1.16218 16.3711 1.22532 16.3819L3.67388 16.9654C3.72957 16.979 3.7772 17.0151 3.80532 17.065C3.83546 17.113 3.84479 17.1712 3.8312 17.2263L3.24774 19.6759C3.05527 20.4782 3.54966 21.2847 4.35202 21.4772C5.15438 21.6696 5.96087 21.1753 6.15334 20.3729L6.73684 17.9233C6.80607 17.6138 6.82857 17.2956 6.80354 16.9794L8.80004 15.7516C9.31013 16.1933 9.90516 16.5261 10.5486 16.7294V19.0705C10.2661 19.2144 10.007 19.4001 9.77987 19.6211L7.99848 21.3995C7.41498 21.983 7.41498 22.929 7.99848 23.5125C8.58198 24.096 9.52796 24.096 10.1115 23.5125L11.8919 21.7311C11.9743 21.6486 12.1079 21.6485 12.1904 21.7309C12.1905 21.731 12.1906 21.7311 12.1906 21.7311L13.971 23.5125C14.5545 24.096 15.5005 24.096 16.084 23.5125C16.6675 22.929 16.6675 21.983 16.084 21.3995L14.3026 19.6191C14.0759 19.3989 13.8174 19.214 13.5359 19.0704V16.7254C14.1793 16.5221 14.7743 16.1893 15.2844 15.7476L17.2759 16.9753C17.2509 17.2912 17.2734 17.6091 17.3426 17.9183L17.9261 20.3679C18.1186 21.1702 18.925 21.6646 19.7274 21.4722C20.5298 21.2797 21.0241 20.4732 20.8317 19.6708L20.2482 17.2213C20.2346 17.1662 20.2439 17.108 20.2741 17.06C20.3022 17.01 20.3498 16.974 20.4055 16.9604L22.8541 16.3769C23.6564 16.1845 24.1508 15.378 23.9583 14.5756C23.7659 13.7733 22.9594 13.2789 22.157 13.4713L22.167 13.4793ZM12.0422 13.9921C10.9423 13.9921 10.0507 13.1005 10.0507 12.0006C10.0507 10.9008 10.9423 10.0092 12.0422 10.0092C13.1421 10.0092 14.0337 10.9008 14.0337 12.0006C14.0337 13.1005 13.1421 13.9921 12.0422 13.9921Z" fill="black"/>
</g>
<defs>
<clipPath id="clip0_606_6540">
<rect width="24" height="24" fill="white"/>
</clipPath>
</defs>
</svg>
