<svg width="24" height="24" viewBox="0 0 24 24" fill="none" xmlns="http://www.w3.org/2000/svg">
<path d="M21 10.2563V5.49927C20.9987 4.3062 20.5241 3.16238 19.6805 2.31875C18.8369 1.47512 17.6931 1.00059 16.5 0.999268H4.5C3.30693 1.00059 2.16311 1.47512 1.31948 2.31875C0.475854 3.16238 0.00132343 4.3062 0 5.49927L0 16.4993C0.00338218 17.3385 0.308182 18.1485 0.858852 18.7818C1.40952 19.4151 2.1694 19.8294 3 19.9493V19.9993C3 20.7949 3.31607 21.558 3.87868 22.1206C4.44129 22.6832 5.20435 22.9993 6 22.9993C6.79565 22.9993 7.55871 22.6832 8.12132 22.1206C8.68393 21.558 9 20.7949 9 19.9993H15C15 20.7949 15.3161 21.558 15.8787 22.1206C16.4413 22.6832 17.2044 22.9993 18 22.9993C18.7956 22.9993 19.5587 22.6832 20.1213 22.1206C20.6839 21.558 21 20.7949 21 19.9993C21 19.9823 21 19.9663 21 19.9493C21.8306 19.8294 22.5905 19.4151 23.1411 18.7818C23.6918 18.1485 23.9966 17.3385 24 16.4993V14.4993C23.9989 13.5689 23.71 12.6617 23.1729 11.902C22.6358 11.1424 21.8768 10.5675 21 10.2563ZM3 5.99927H6V9.99927H3V5.99927ZM9 5.99927H12V16.9993H9V5.99927ZM15 5.99927H18V9.99927H15V5.99927ZM3 12.9993H6V16.9993H3.5C3.36739 16.9993 3.24021 16.9466 3.14645 16.8528C3.05268 16.7591 3 16.6319 3 16.4993V12.9993ZM21 16.4993C21 16.6319 20.9473 16.7591 20.8536 16.8528C20.7598 16.9466 20.6326 16.9993 20.5 16.9993H15V12.9993H19.5C19.8978 12.9993 20.2794 13.1573 20.5607 13.4386C20.842 13.7199 21 14.1014 21 14.4993V16.4993Z" fill="black"/>
</svg>
