<svg width="24" height="24" viewBox="0 0 24 24" fill="none" xmlns="http://www.w3.org/2000/svg">
<path d="M20.5001 21H8.49312C8.84749 20.0403 9.01944 19.0228 9.00012 18V14H14.5001C14.8979 14 15.2795 13.842 15.5608 13.5607C15.8421 13.2794 16.0001 12.8978 16.0001 12.5C16.0001 12.1022 15.8421 11.7206 15.5608 11.4393C15.2795 11.158 14.8979 11 14.5001 11H9.00012V8C9.00264 6.71551 9.49812 5.48098 10.3843 4.55117C11.2706 3.62136 12.4799 3.06721 13.7628 3.00306C15.0457 2.93892 16.3042 3.36968 17.2788 4.20645C18.2533 5.04322 18.8695 6.22216 19.0001 7.5C19.0001 7.89782 19.1582 8.27936 19.4395 8.56066C19.7208 8.84196 20.1023 9 20.5001 9C20.8979 9 21.2795 8.84196 21.5608 8.56066C21.8421 8.27936 22.0001 7.89782 22.0001 7.5C22.0001 3.505 18.2621 0 14.0001 0C11.8791 0.00238211 9.84567 0.846002 8.3459 2.34578C6.84612 3.84555 6.0025 5.879 6.00012 8V11H4.50012C4.1023 11 3.72077 11.158 3.43946 11.4393C3.15816 11.7206 3.00012 12.1022 3.00012 12.5C3.00012 12.8978 3.15816 13.2794 3.43946 13.5607C3.72077 13.842 4.1023 14 4.50012 14H6.00012V18C6.00012 20.583 5.26312 21 3.50012 21C3.1023 21 2.72077 21.158 2.43946 21.4393C2.15816 21.7206 2.00012 22.1022 2.00012 22.5C2.00012 22.8978 2.15816 23.2794 2.43946 23.5607C2.72077 23.842 3.1023 24 3.50012 24H20.5001C20.8979 24 21.2795 23.842 21.5608 23.5607C21.8421 23.2794 22.0001 22.8978 22.0001 22.5C22.0001 22.1022 21.8421 21.7206 21.5608 21.4393C21.2795 21.158 20.8979 21 20.5001 21Z" fill="black"/>
</svg>
