<svg width="24" height="24" viewBox="0 0 24 24" fill="none" xmlns="http://www.w3.org/2000/svg">
<g clip-path="url(#clip0_606_6665)">
<path d="M12 4.4928e-05C10.5533 -0.00371006 9.1203 0.280576 7.78457 0.836328C6.44884 1.39208 5.23711 2.20818 4.22003 3.23704C2.15456 5.32282 0.999371 8.14182 1.00724 11.0772C1.01511 14.0126 2.1854 16.8254 4.26203 18.9L8.00003 22.359C9.06207 23.4053 10.4914 23.9943 11.9822 24.0001C13.473 24.0059 14.9069 23.428 15.977 22.39L19.784 18.854C21.843 16.777 22.9981 13.9707 22.9981 11.046C22.9981 8.1214 21.843 5.31514 19.784 3.23804C18.7666 2.20852 17.5542 1.39196 16.2178 0.836015C14.8813 0.280074 13.4475 -0.00411084 12 4.4928e-05ZM17.7 16.7L13.9 20.226C13.3828 20.7204 12.6932 20.9937 11.9777 20.9879C11.2623 20.9821 10.5772 20.6977 10.068 20.195L6.34603 16.736C4.84513 15.2222 4.00301 13.1768 4.00301 11.045C4.00301 8.9133 4.84513 6.86786 6.34603 5.35404C7.08657 4.60809 7.96741 4.01604 8.93779 3.61203C9.90817 3.20801 10.9489 3.00001 12 3.00001C13.0512 3.00001 14.0919 3.20801 15.0623 3.61203C16.0326 4.01604 16.9135 4.60809 17.654 5.35404C19.1526 6.85899 19.9977 8.89383 20.0063 11.0176C20.0149 13.1414 19.1863 15.183 17.7 16.7ZM17 10.128V14C17 14.2653 16.8947 14.5196 16.7071 14.7072C16.5196 14.8947 16.2652 15 16 15H15C14.7348 15 14.4805 14.8947 14.2929 14.7072C14.1054 14.5196 14 14.2653 14 14V12C14 11.7348 13.8947 11.4805 13.7071 11.2929C13.5196 11.1054 13.2652 11 13 11H11C10.7348 11 10.4805 11.1054 10.2929 11.2929C10.1054 11.4805 10 11.7348 10 12V14C10 14.2653 9.89467 14.5196 9.70713 14.7072C9.5196 14.8947 9.26524 15 9.00003 15H8.00003C7.73481 15 7.48046 14.8947 7.29292 14.7072C7.10538 14.5196 7.00003 14.2653 7.00003 14V10.128C7.00007 9.8051 7.07832 9.48697 7.22809 9.20084C7.37785 8.91472 7.59468 8.66912 7.86003 8.48504L10.86 6.40304C11.1948 6.17079 11.5926 6.04633 12 6.04633C12.4075 6.04633 12.8052 6.17079 13.14 6.40304L16.14 8.48504C16.4054 8.66912 16.6222 8.91472 16.772 9.20084C16.9217 9.48697 17 9.8051 17 10.128Z" fill="black"/>
</g>
<defs>
<clipPath id="clip0_606_6665">
<rect width="24" height="24" fill="white"/>
</clipPath>
</defs>
</svg>
