<svg width="24" height="24" viewBox="0 0 24 24" fill="none" xmlns="http://www.w3.org/2000/svg">
<g clip-path="url(#clip0_606_6581)">
<path d="M15 9.50049H13.5V8.00049C13.5 7.60266 13.342 7.22113 13.0607 6.93983C12.7794 6.65852 12.3978 6.50049 12 6.50049C11.6022 6.50049 11.2206 6.65852 10.9393 6.93983C10.658 7.22113 10.5 7.60266 10.5 8.00049V9.50049H9C8.60218 9.50049 8.22064 9.65852 7.93934 9.93983C7.65804 10.2211 7.5 10.6027 7.5 11.0005C7.5 11.3983 7.65804 11.7798 7.93934 12.0611C8.22064 12.3425 8.60218 12.5005 9 12.5005H10.5V14.0005C10.5 14.3983 10.658 14.7798 10.9393 15.0611C11.2206 15.3425 11.6022 15.5005 12 15.5005C12.3978 15.5005 12.7794 15.3425 13.0607 15.0611C13.342 14.7798 13.5 14.3983 13.5 14.0005V12.5005H15C15.3978 12.5005 15.7794 12.3425 16.0607 12.0611C16.342 11.7798 16.5 11.3983 16.5 11.0005C16.5 10.6027 16.342 10.2211 16.0607 9.93983C15.7794 9.65852 15.3978 9.50049 15 9.50049Z" fill="black"/>
<path d="M11.9999 23.999C11.7902 23.9991 11.5827 23.9551 11.3909 23.87C10.9999 23.699 1.90894 19.568 1.90894 11.999V7.24601C1.90769 6.09129 2.27044 4.96556 2.94563 4.02881C3.62081 3.09206 4.57408 2.39196 5.66994 2.02801L11.5249 0.0760076C11.8334 -0.0259869 12.1665 -0.0259869 12.4749 0.0760076L18.3299 2.02801C19.4257 2.39209 20.3789 3.09223 21.0541 4.02895C21.7292 4.96567 22.092 6.09133 22.0909 7.24601V11.999C22.0909 20.617 12.8669 23.791 12.4749 23.922C12.3218 23.9732 12.1614 23.9993 11.9999 23.999ZM11.9999 3.08001L6.61894 4.87401C6.121 5.03985 5.68789 5.3582 5.38098 5.78393C5.07407 6.20966 4.90892 6.72118 4.90894 7.24601V11.999C4.90894 16.734 10.3299 19.951 12.0769 20.864C13.8339 20.131 19.0909 17.481 19.0909 11.999V7.24601C19.091 6.72118 18.9258 6.20966 18.6189 5.78393C18.312 5.3582 17.8789 5.03985 17.3809 4.87401L11.9999 3.08001Z" fill="black"/>
</g>
<defs>
<clipPath id="clip0_606_6581">
<rect width="24" height="24" fill="white"/>
</clipPath>
</defs>
</svg>
