<svg width="24" height="24" viewBox="0 0 24 24" fill="none" xmlns="http://www.w3.org/2000/svg">
<g clip-path="url(#clip0_606_6585)">
<path d="M11.9999 24.001C11.7669 24.001 11.5371 23.9466 11.3289 23.842L10.9489 23.651C8.85188 22.601 1.99988 18.672 1.99988 12.152V7.05199C1.99908 5.94257 2.34823 4.86116 2.99763 3.96166C3.64702 3.06217 4.56359 2.39041 5.61688 2.04199L11.5279 0.0769917C11.8344 -0.0240363 12.1653 -0.0240363 12.4719 0.0769917L18.3829 2.03699C19.4362 2.38541 20.3527 3.05717 21.0021 3.95666C21.6515 4.85616 22.0007 5.93757 21.9999 7.04699V12.147C21.9999 19.517 15.0779 22.875 12.9569 23.728L12.5629 23.887C12.3844 23.9611 12.1932 23.9999 11.9999 24.001ZM11.9999 3.08099L6.56088 4.88099C6.10555 5.03134 5.70939 5.32177 5.42904 5.71079C5.14868 6.0998 4.99847 6.56748 4.99988 7.04699V12.147C4.99988 16.754 10.1429 19.852 12.0679 20.847C13.9679 20.039 18.9999 17.403 18.9999 12.147V7.04699C19.0004 6.56816 18.8498 6.10138 18.5695 5.71317C18.2892 5.32495 17.8936 5.03512 17.4389 4.88499L11.9999 3.08099ZM13.4999 12.501V6.50099C13.4999 6.10317 13.3418 5.72164 13.0605 5.44033C12.7792 5.15903 12.3977 5.00099 11.9999 5.00099C11.6021 5.00099 11.2205 5.15903 10.9392 5.44033C10.6579 5.72164 10.4999 6.10317 10.4999 6.50099V12.501C10.4999 12.8988 10.6579 13.2803 10.9392 13.5617C11.2205 13.843 11.6021 14.001 11.9999 14.001C12.3977 14.001 12.7792 13.843 13.0605 13.5617C13.3418 13.2803 13.4999 12.8988 13.4999 12.501ZM11.9999 15.001C11.7032 15.001 11.4132 15.089 11.1665 15.2538C10.9199 15.4186 10.7276 15.6529 10.6141 15.927C10.5005 16.2011 10.4708 16.5027 10.5287 16.7936C10.5866 17.0846 10.7294 17.3519 10.9392 17.5617C11.149 17.7714 11.4163 17.9143 11.7072 17.9722C11.9982 18.03 12.2998 18.0003 12.5739 17.8868C12.848 17.7733 13.0823 17.581 13.2471 17.3343C13.4119 17.0877 13.4999 16.7977 13.4999 16.501C13.4999 16.1032 13.3418 15.7216 13.0605 15.4403C12.7792 15.159 12.3977 15.001 11.9999 15.001Z" fill="black"/>
</g>
<defs>
<clipPath id="clip0_606_6585">
<rect width="24" height="24" fill="white"/>
</clipPath>
</defs>
</svg>
