<svg width="24" height="24" viewBox="0 0 24 24" fill="none" xmlns="http://www.w3.org/2000/svg">
<path d="M22.8148 6.70405C22.2706 4.1744 20.0387 2.36479 17.4512 2.35522H5.48217C2.45564 2.35907 0.00328125 4.8119 0 7.83838V12.8222C0.00328125 15.8485 2.45583 18.301 5.48217 18.3043H7.55644L9.06455 21.2578C9.75877 22.6107 11.1603 23.4529 12.6808 23.4307C14.8558 23.4336 16.6213 21.6727 16.6241 19.4977C16.6244 19.2741 16.6057 19.051 16.5681 18.8307L16.4784 18.3044H18.5098C21.5375 18.3044 23.9919 15.85 23.9919 12.8223C23.9919 12.4411 23.9522 12.0609 23.8733 11.6879L22.8148 6.70405ZM2.99025 12.8222V7.83838C2.99025 6.46213 4.10592 5.34651 5.48213 5.34651H6.97725V15.3141H5.48213C4.10592 15.3141 2.99025 14.1984 2.99025 12.8222ZM20.4405 14.3921C19.9681 14.9766 19.2563 15.3156 18.5047 15.3141H12.9309L13.6156 19.333C13.6647 19.6084 13.5875 19.8912 13.4053 20.1035C13.2115 20.3284 12.9255 20.4524 12.6288 20.4403C12.2514 20.4443 11.9042 20.2348 11.7317 19.8991L9.9675 16.4534V5.34651H17.4511C18.6273 5.34997 19.642 6.17291 19.8882 7.32308L20.9428 12.3069C21.0999 13.0421 20.9151 13.8089 20.4405 14.3921Z" fill="black"/>
</svg>
