<svg width="24" height="24" viewBox="0 0 24 24" fill="none" xmlns="http://www.w3.org/2000/svg">
<g clip-path="url(#clip0_606_6616)">
<path d="M20.5001 7C19.5718 7 18.6816 6.63125 18.0252 5.97487C17.3689 5.3185 17.0001 4.42826 17.0001 3.5C17.0001 2.57174 17.3689 1.6815 18.0252 1.02513C18.6816 0.368749 19.5718 0 20.5001 0C21.4284 0 22.3186 0.368749 22.975 1.02513C23.6314 1.6815 24.0001 2.57174 24.0001 3.5C24.0001 4.42826 23.6314 5.3185 22.975 5.97487C22.3186 6.63125 21.4284 7 20.5001 7ZM21.0621 24H12.9361C12.4222 24.0046 11.9163 23.8733 11.4695 23.6194C11.0228 23.3654 10.6511 22.9979 10.3921 22.554C10.1387 22.1264 10.003 21.6394 9.99857 21.1424C9.99418 20.6454 10.1213 20.156 10.3671 19.724L14.4331 12.489C14.6963 12.0419 15.0717 11.6713 15.5221 11.4138C15.9725 11.1563 16.4823 11.0209 17.0011 11.0209C17.5199 11.0209 18.0297 11.1563 18.4801 11.4138C18.9305 11.6713 19.3059 12.0419 19.5691 12.489L23.6321 19.721C23.8784 20.1532 24.0058 20.6429 24.0014 21.1404C23.997 21.6378 23.861 22.1252 23.6071 22.553C23.3482 22.9972 22.9764 23.365 22.5294 23.6192C22.0825 23.8733 21.5762 24.0047 21.0621 24ZM16.9911 14.023L13.1071 21H20.9191L16.9911 14.023ZM8.0001 22.5C8.0001 22.1022 7.84207 21.7206 7.56077 21.4393C7.27946 21.158 6.89793 21 6.5001 21H3.71211C3.58892 21.0022 3.46743 20.9711 3.36043 20.91C3.25343 20.849 3.16488 20.7602 3.10411 20.653C3.04037 20.5479 3.00543 20.4279 3.0028 20.305C3.00016 20.1821 3.02993 20.0607 3.08911 19.953L9.35011 8.372C9.41063 8.25959 9.50046 8.16567 9.61006 8.10021C9.71966 8.03474 9.84494 8.00018 9.9726 8.00018C10.1003 8.00018 10.2256 8.03474 10.3352 8.10021C10.4448 8.16567 10.5346 8.25959 10.5951 8.372L11.2171 9.522C11.305 9.70471 11.4291 9.86768 11.5818 10.0011C11.7345 10.1345 11.9127 10.2356 12.1055 10.2982C12.2984 10.3608 12.5019 10.3836 12.7039 10.3654C12.9058 10.3471 13.102 10.2881 13.2804 10.1918C13.4589 10.0956 13.6161 9.96424 13.7423 9.80559C13.8686 9.64694 13.9614 9.46434 14.0151 9.26881C14.0688 9.07329 14.0823 8.86891 14.0548 8.66802C14.0273 8.46712 13.9594 8.27389 13.8551 8.1L13.2331 6.949C12.9097 6.36786 12.4368 5.88371 11.8635 5.54665C11.2902 5.20958 10.6372 5.03186 9.97211 5.03186C9.30703 5.03186 8.65404 5.20958 8.08071 5.54665C7.50737 5.88371 7.03453 6.36786 6.7111 6.949L0.450105 18.521C0.144453 19.0863 -0.00925045 19.7212 0.00402771 20.3637C0.0173059 21.0062 0.197111 21.6343 0.525857 22.1864C0.854604 22.7386 1.32104 23.196 1.87953 23.5139C2.43803 23.8318 3.06948 23.9993 3.71211 24H6.5001C6.89793 24 7.27946 23.842 7.56077 23.5607C7.84207 23.2794 8.0001 22.8978 8.0001 22.5Z" fill="black"/>
</g>
<defs>
<clipPath id="clip0_606_6616">
<rect width="24" height="24" fill="white"/>
</clipPath>
</defs>
</svg>
