<svg width="24" height="24" viewBox="0 0 24 24" fill="none" xmlns="http://www.w3.org/2000/svg">
<path d="M22.5 20.9996C22.1022 20.9996 21.7206 20.8416 21.4393 20.5603C21.158 20.279 21 19.8975 21 19.4996V14.9996C20.526 3.06565 3.47 3.07465 3 14.9996V19.4996C3 19.8975 2.84196 20.279 2.56066 20.5603C2.27936 20.8416 1.89782 20.9996 1.5 20.9996C1.10218 20.9996 0.720644 20.8416 0.43934 20.5603C0.158035 20.279 0 19.8975 0 19.4996L0 14.9996C0.661 -0.924351 23.345 -0.911351 24 14.9996V19.4996C24 19.8975 23.842 20.279 23.5607 20.5603C23.2794 20.8416 22.8978 20.9996 22.5 20.9996ZM19 19.4996V14.9996C18.67 5.73265 5.327 5.73965 5 14.9996V19.4996C5 19.8975 5.15804 20.279 5.43934 20.5603C5.72064 20.8416 6.10218 20.9996 6.5 20.9996C6.89782 20.9996 7.27936 20.8416 7.56066 20.5603C7.84196 20.279 8 19.8975 8 19.4996V14.9996C8 13.9388 8.42143 12.9214 9.17157 12.1712C9.92172 11.4211 10.9391 10.9996 12 10.9996C13.0609 10.9996 14.0783 11.4211 14.8284 12.1712C15.5786 12.9214 16 13.9388 16 14.9996V19.4996C16 19.8975 16.158 20.279 16.4393 20.5603C16.7206 20.8416 17.1022 20.9996 17.5 20.9996C17.8978 20.9996 18.2794 20.8416 18.5607 20.5603C18.842 20.279 19 19.8975 19 19.4996ZM14 19.4996V14.9996C14 14.4692 13.7893 13.9605 13.4142 13.5854C13.0391 13.2104 12.5304 12.9996 12 12.9996C11.4696 12.9996 10.9609 13.2104 10.5858 13.5854C10.2107 13.9605 10 14.4692 10 14.9996V19.4996C10 19.8975 10.158 20.279 10.4393 20.5603C10.7206 20.8416 11.1022 20.9996 11.5 20.9996H12.5C12.8978 20.9996 13.2794 20.8416 13.5607 20.5603C13.842 20.279 14 19.8975 14 19.4996Z" fill="black"/>
</svg>
