<svg width="24" height="24" viewBox="0 0 24 24" fill="none" xmlns="http://www.w3.org/2000/svg">
<g clip-path="url(#clip0_606_6750)">
<path d="M9.49414 23.9997H5.50714C4.55189 23.9993 3.6132 23.7501 2.78352 23.2767C1.95383 22.8033 1.26175 22.122 0.77542 21.2998C0.289092 20.4776 0.025288 19.5429 0.00998345 18.5878C-0.00532111 17.6327 0.228402 16.69 0.688138 15.8527L8.17714 2.08267C8.26765 1.90334 8.39326 1.74402 8.54651 1.61416C8.69976 1.48429 8.87754 1.38653 9.06929 1.32668C9.26104 1.26683 9.46286 1.2461 9.66278 1.26572C9.86269 1.28534 10.0566 1.34492 10.2331 1.44092C10.4095 1.53692 10.5649 1.66738 10.69 1.82456C10.8151 1.98174 10.9073 2.16245 10.9612 2.35596C11.0151 2.54946 11.0296 2.75182 11.0038 2.95104C10.9781 3.15025 10.9125 3.34226 10.8111 3.51567L3.31914 17.2917C3.1091 17.6722 3.00192 18.101 3.00817 18.5356C3.01443 18.9703 3.1339 19.3958 3.35481 19.7702C3.57572 20.1445 3.89042 20.4548 4.26787 20.6704C4.64531 20.8861 5.07245 20.9995 5.50714 20.9997H9.49414C9.89196 20.9997 10.2735 21.1577 10.5548 21.439C10.8361 21.7203 10.9941 22.1018 10.9941 22.4997C10.9941 22.8975 10.8361 23.279 10.5548 23.5603C10.2735 23.8416 9.89196 23.9997 9.49414 23.9997Z" fill="black"/>
<path d="M23.3152 15.8572L15.8052 2.08216C15.6149 1.73297 15.2938 1.47361 14.9124 1.3611C14.531 1.24859 14.1205 1.29213 13.7712 1.48216C13.515 1.64202 13.3063 1.86761 13.1669 2.13545C13.0274 2.40329 12.9622 2.70361 12.9782 3.00516V22.5002C12.9782 22.898 13.1362 23.2795 13.4175 23.5608C13.6988 23.8421 14.0804 24.0002 14.4782 24.0002H18.4942C19.449 23.9998 20.3873 23.7508 21.2167 23.2777C22.0462 22.8046 22.7381 22.1238 23.2246 21.3021C23.711 20.4805 23.9752 19.5464 23.9911 18.5917C24.007 17.6369 23.774 16.6945 23.3152 15.8572Z" fill="black"/>
</g>
<defs>
<clipPath id="clip0_606_6750">
<rect width="24" height="24" fill="white"/>
</clipPath>
</defs>
</svg>
