<svg width="24" height="24" viewBox="0 0 24 24" fill="none" xmlns="http://www.w3.org/2000/svg">
<g clip-path="url(#clip0_606_6759)">
<path d="M20.8128 7.084V7.076C19.7842 5.25117 18.2171 3.78853 16.3258 2.888C16.0868 2.05727 15.5845 1.32659 14.8946 0.805797C14.2046 0.285001 13.3643 0.00223264 12.4998 0L11.4998 0C10.6359 0.00288112 9.79623 0.285948 9.10689 0.806696C8.41755 1.32744 7.91574 2.05777 7.67683 2.888C5.7859 3.78775 4.2214 5.25301 3.19983 7.081C2.38163 7.24661 1.636 7.66475 1.06799 8.2765C0.499977 8.88825 0.138201 9.66279 0.0336251 10.491C-0.070951 11.3192 0.0869433 12.1594 0.485065 12.8931C0.883188 13.6269 1.50147 14.2172 2.25283 14.581C2.61226 15.9405 3.25719 17.2078 4.14467 18.2986C5.03216 19.3894 6.14184 20.2786 7.39983 20.907L7.06283 22.088C7.00421 22.2787 6.98422 22.4792 7.00403 22.6777C7.02384 22.8762 7.08305 23.0687 7.1782 23.2441C7.27334 23.4194 7.4025 23.574 7.55813 23.6989C7.71376 23.8237 7.89272 23.9162 8.08454 23.971C8.27636 24.0258 8.47719 24.0418 8.67526 24.018C8.87334 23.9943 9.06469 23.9313 9.2381 23.8326C9.41152 23.734 9.56353 23.6018 9.68522 23.4437C9.80691 23.2856 9.89585 23.1049 9.94683 22.912L10.2468 21.851C10.8259 21.9498 11.4123 21.9996 11.9998 22C12.5874 21.9996 13.1738 21.949 13.7528 21.849L14.0528 22.912C14.1038 23.1049 14.1927 23.2856 14.3144 23.4437C14.4361 23.6018 14.5881 23.734 14.7615 23.8326C14.935 23.9313 15.1263 23.9943 15.3244 24.018C15.5225 24.0418 15.7233 24.0258 15.9151 23.971C16.1069 23.9162 16.2859 23.8237 16.4415 23.6989C16.5971 23.574 16.7263 23.4194 16.8215 23.2441C16.9166 23.0687 16.9758 22.8762 16.9956 22.6777C17.0154 22.4792 16.9954 22.2787 16.9368 22.088L16.5998 20.9C17.8572 20.2705 18.9666 19.3813 19.8548 18.2911C20.7429 17.201 21.3895 15.9347 21.7518 14.576C22.501 14.2117 23.1173 13.6219 23.5142 12.8895C23.9111 12.157 24.0686 11.3187 23.9647 10.4921C23.8608 9.66552 23.5007 8.89225 22.9348 8.28083C22.369 7.6694 21.6259 7.25053 20.8098 7.083L20.8128 7.084ZM19.9998 12H18.9998C18.7346 12 18.4803 11.8946 18.2927 11.7071C18.1052 11.5196 17.9998 11.2652 17.9998 11C17.9998 10.7348 18.1052 10.4804 18.2927 10.2929C18.4803 10.1054 18.7346 10 18.9998 10H19.9998C20.265 10 20.5194 10.1054 20.7069 10.2929C20.8945 10.4804 20.9998 10.7348 20.9998 11C20.9998 11.2652 20.8945 11.5196 20.7069 11.7071C20.5194 11.8946 20.265 12 19.9998 12ZM11.4998 3H12.4998C12.765 3 13.0194 3.10536 13.2069 3.29289C13.3945 3.48043 13.4998 3.73478 13.4998 4C13.4998 4.26522 13.3945 4.51957 13.2069 4.70711C13.0194 4.89464 12.765 5 12.4998 5H11.4998C11.2346 5 10.9803 4.89464 10.7927 4.70711C10.6052 4.51957 10.4998 4.26522 10.4998 4C10.4998 3.73478 10.6052 3.48043 10.7927 3.29289C10.9803 3.10536 11.2346 3 11.4998 3ZM4.99983 12H3.99983C3.73461 12 3.48026 11.8946 3.29272 11.7071C3.10518 11.5196 2.99983 11.2652 2.99983 11C2.99983 10.7348 3.10518 10.4804 3.29272 10.2929C3.48026 10.1054 3.73461 10 3.99983 10H4.99983C5.26504 10 5.5194 10.1054 5.70693 10.2929C5.89447 10.4804 5.99983 10.7348 5.99983 11C5.99983 11.2652 5.89447 11.5196 5.70693 11.7071C5.5194 11.8946 5.26504 12 4.99983 12ZM11.9998 19C11.6929 18.994 11.3866 18.9686 11.0828 18.924L11.9998 15.717L12.9198 18.935C12.6149 18.9764 12.3076 18.9981 11.9998 19ZM15.7568 17.943L14.6358 14.024C14.4814 13.4454 14.1409 12.9336 13.6668 12.5678C13.1927 12.2019 12.6114 12.0021 12.0125 11.9994C11.4136 11.9967 10.8305 12.1911 10.3531 12.5526C9.87568 12.9142 9.53051 13.4228 9.37083 14L8.24583 17.933C7.07473 17.2245 6.1408 16.1837 5.56283 14.943C6.41855 14.8256 7.21289 14.4331 7.82605 13.8247C8.43921 13.2164 8.83793 12.4251 8.96209 11.5704C9.08625 10.7156 8.92911 9.84362 8.51437 9.08596C8.09963 8.3283 7.44978 7.72604 6.66283 7.37C7.08354 6.88015 7.569 6.44986 8.10583 6.091C8.46122 6.67276 8.9598 7.1537 9.55399 7.48791C10.1482 7.82212 10.8181 7.99842 11.4998 8H12.4998C13.1836 7.9984 13.8555 7.82095 14.451 7.48471C15.0464 7.14847 15.5453 6.66474 15.8998 6.08C16.4375 6.44241 16.9236 6.87602 17.3448 7.369C16.557 7.72455 15.9062 8.3268 15.4908 9.08479C15.0754 9.84279 14.9179 10.7154 15.0421 11.5708C15.1664 12.4261 15.5655 13.2179 16.1794 13.8264C16.7932 14.4349 17.5884 14.8272 18.4448 14.944C17.8637 16.1866 16.9286 17.2298 15.7568 17.943Z" fill="black"/>
</g>
<defs>
<clipPath id="clip0_606_6759">
<rect width="24" height="24" fill="white"/>
</clipPath>
</defs>
</svg>
