<svg width="24" height="24" viewBox="0 0 24 24" fill="none" xmlns="http://www.w3.org/2000/svg">
<g clip-path="url(#clip0_606_6829)">
<path d="M22.4192 10C21.3226 8.51105 19.7587 7.43261 17.9772 6.937C17.4216 4.8997 16.1001 3.15596 14.2888 2.07024C12.4776 0.984518 10.3169 0.640826 8.25818 1.111C7.08409 1.37948 5.98384 1.9041 5.03613 2.64734C4.08841 3.39058 3.31665 4.33406 2.77604 5.41031C2.23544 6.48655 1.93934 7.66897 1.90894 8.87298C1.87854 10.077 2.11458 11.2728 2.60018 12.375C1.58556 13.0416 0.806545 14.0107 0.373613 15.1449C-0.0593185 16.2791 -0.124196 17.5209 0.18818 18.694C0.531588 19.9499 1.28418 21.0554 2.32678 21.8354C3.36937 22.6153 4.64237 23.0252 5.94418 23H8.50018C8.89801 23 9.27954 22.842 9.56084 22.5607C9.84215 22.2794 10.0002 21.8978 10.0002 21.5C10.0002 21.1022 9.84215 20.7206 9.56084 20.4393C9.27954 20.158 8.89801 20 8.50018 20H5.94418C5.31212 20.0172 4.69183 19.8268 4.17821 19.4581C3.6646 19.0893 3.28594 18.5624 3.10018 17.958C3.00284 17.6004 2.97747 17.227 3.02554 16.8595C3.07361 16.492 3.19416 16.1377 3.38021 15.8171C3.56625 15.4966 3.81409 15.2162 4.10934 14.9921C4.40459 14.7681 4.74138 14.6049 5.10018 14.512C5.33816 14.4506 5.55741 14.3316 5.73864 14.1656C5.91987 13.9996 6.05752 13.7916 6.1395 13.5599C6.22147 13.3282 6.24526 13.0799 6.20876 12.8368C6.17226 12.5938 6.0766 12.3634 5.93018 12.166C5.45092 11.5196 5.12822 10.7707 4.98749 9.97841C4.84676 9.1861 4.89184 8.37193 5.11918 7.6C5.3692 6.7363 5.84311 5.95405 6.49289 5.33254C7.14267 4.71104 7.94522 4.27237 8.81918 4.061C9.23354 3.96404 9.65763 3.91472 10.0832 3.914C11.2086 3.91063 12.3039 4.27669 13.2012 4.956C14.3019 5.79127 15.0263 7.02919 15.2152 8.398C15.2576 8.72593 15.4067 9.03081 15.6394 9.2657C15.8722 9.5006 16.1757 9.65249 16.5032 9.698C17.1952 9.79282 17.8612 10.0254 18.4619 10.382C19.0625 10.7385 19.5856 11.2119 20.0002 11.774C20.4137 12.337 20.7085 12.9781 20.8666 13.6585C21.0248 14.3389 21.043 15.0443 20.9202 15.732C20.7932 16.4096 20.5283 17.0538 20.1419 17.6248C19.7556 18.1957 19.256 18.6812 18.6742 19.051C18.4665 19.188 18.2961 19.3746 18.1785 19.5938C18.0608 19.8131 17.9995 20.0582 18.0002 20.307C17.998 20.578 18.0685 20.8446 18.2044 21.079C18.3403 21.3135 18.5366 21.5072 18.7728 21.6399C19.0091 21.7727 19.2766 21.8397 19.5475 21.8339C19.8184 21.8281 20.0828 21.7497 20.3132 21.607C21.2459 21.0081 22.0443 20.2223 22.6579 19.2992C23.2715 18.3761 23.687 17.3358 23.8782 16.244C24.0712 15.1587 24.0413 14.0454 23.7905 12.972C23.5397 11.8986 23.0731 10.8874 22.4192 10Z" fill="black"/>
<path d="M15.5002 22.4999V16.9999H17.1632C17.3609 16.9999 17.5542 16.9412 17.7186 16.8313C17.883 16.7215 18.0112 16.5653 18.0869 16.3826C18.1625 16.1999 18.1823 15.9989 18.1438 15.8049C18.1052 15.611 18.01 15.4328 17.8702 15.2929L14.7072 12.1299C14.5197 11.9425 14.2653 11.8372 14.0002 11.8372C13.735 11.8372 13.4807 11.9425 13.2932 12.1299L10.1302 15.2929C9.99038 15.4328 9.89517 15.611 9.85661 15.8049C9.81804 15.9989 9.83784 16.1999 9.91351 16.3826C9.98918 16.5653 10.1173 16.7215 10.2817 16.8313C10.4461 16.9412 10.6394 16.9999 10.8372 16.9999H12.5002V22.4999C12.5002 22.8978 12.6582 23.2793 12.9395 23.5606C13.2208 23.8419 13.6024 23.9999 14.0002 23.9999C14.398 23.9999 14.7795 23.8419 15.0608 23.5606C15.3421 23.2793 15.5002 22.8978 15.5002 22.4999Z" fill="black"/>
</g>
<defs>
<clipPath id="clip0_606_6829">
<rect width="24" height="24" fill="white"/>
</clipPath>
</defs>
</svg>
