<svg width="24" height="24" viewBox="0 0 24 24" fill="none" xmlns="http://www.w3.org/2000/svg">
<g clip-path="url(#clip0_606_6505)">
<path d="M20 10.999C17.7909 10.999 16 12.7899 16 14.999V19.999C16 22.2081 17.7909 23.999 20 23.999C22.2091 23.999 24 22.2081 24 19.999V14.999C24 12.7899 22.2091 10.999 20 10.999ZM21 19.999C21 20.5513 20.5523 20.999 20 20.999C19.4477 20.999 19 20.5513 19 19.999V14.999C19 14.4467 19.4477 13.999 20 13.999C20.5523 13.999 21 14.4467 21 14.999V19.999Z" fill="black"/>
<path d="M10.5 14.999C9.98784 15.0039 9.48037 15.0973 9 15.275V15.082C9.00056 14.4841 9.4851 13.9996 10.083 13.999H11.5C12.3284 13.999 13 13.3274 13 12.499C13 11.6706 12.3284 10.999 11.5 10.999H10.083C7.82915 11.0018 6.00277 12.8282 6 15.082C6 15.082 6.01069 19.7003 6.03098 19.799C6.20222 22.2728 8.34642 24.1395 10.8203 23.9683C13.2942 23.797 15.1608 21.6528 14.9896 19.1789C14.8264 16.8212 12.8634 14.9936 10.5 14.999ZM10.5 20.999C9.67157 20.999 9 20.3274 9 19.499C9 18.6706 9.67157 17.999 10.5 17.999C11.3284 17.999 12 18.6706 12 19.499C12 20.3274 11.3284 20.999 10.5 20.999Z" fill="black"/>
<path d="M22.2927 2.70757L20.9697 4.03057C16.5677 -0.923697 8.98294 -1.37145 4.02863 3.03054C-0.168091 6.7594 -1.21861 12.8996 1.49972 17.8116C1.89582 18.5392 2.80674 18.808 3.53433 18.4119C4.26192 18.0158 4.53071 17.1048 4.13461 16.3773C4.13105 16.3706 4.12739 16.3641 4.12369 16.3576C1.71455 12.0149 3.28196 6.54152 7.6246 4.13238C11.3687 2.05526 16.0582 2.90627 18.8337 6.16662L17.7067 7.29363C17.3162 7.68419 17.3163 8.31738 17.7069 8.70785C17.8944 8.89526 18.1486 9.00058 18.4137 9.00063H22.9997C23.552 9.00063 23.9997 8.55293 23.9997 8.00065V3.41458C23.9996 2.8623 23.5518 2.41469 22.9995 2.41479C22.7344 2.41483 22.4802 2.52016 22.2927 2.70757Z" fill="black"/>
</g>
<defs>
<clipPath id="clip0_606_6505">
<rect width="24" height="24" fill="white"/>
</clipPath>
</defs>
</svg>
