<svg width="24" height="24" viewBox="0 0 24 24" fill="none" xmlns="http://www.w3.org/2000/svg">
<path d="M20.463 7.71274L11.363 1.03574C10.5707 0.454221 9.63275 0.103686 8.65325 0.0230538C7.67376 -0.0575782 6.69109 0.134849 5.81435 0.578967C4.93761 1.02309 4.20112 1.70151 3.68667 2.53892C3.17221 3.37632 2.89992 4.33993 2.90003 5.32274V18.6767C2.89813 19.6599 3.1692 20.6244 3.68304 21.4626C4.19689 22.3009 4.93334 22.98 5.81037 23.4245C6.68741 23.8689 7.67059 24.0611 8.65043 23.9798C9.63027 23.8984 10.5683 23.5467 11.36 22.9637L20.465 16.2867C21.1386 15.7931 21.6863 15.1477 22.0639 14.4029C22.4415 13.6581 22.6382 12.8348 22.6382 11.9997C22.6382 11.1647 22.4415 10.3414 22.0639 9.59655C21.6863 8.85173 21.1386 8.20635 20.465 7.71274H20.463ZM18.689 13.8677L9.58903 20.5447C9.24378 20.7984 8.83494 20.9514 8.40796 20.9867C7.98097 21.022 7.55255 20.9383 7.17032 20.7447C6.78809 20.5512 6.467 20.2554 6.24275 19.8904C6.0185 19.5253 5.89987 19.1052 5.90003 18.6767V5.32274C5.89545 4.89367 6.01224 4.47205 6.23695 4.1065C6.46166 3.74095 6.78512 3.44637 7.17003 3.25674C7.49592 3.08941 7.8567 3.00136 8.22303 2.99974C8.71396 3.00216 9.19123 3.1616 9.58503 3.45474L18.685 10.1317C18.9785 10.3468 19.2172 10.628 19.3817 10.9526C19.5462 11.2771 19.6319 11.6359 19.6319 11.9997C19.6319 12.3636 19.5462 12.7223 19.3817 13.0469C19.2172 13.3714 18.9785 13.6526 18.685 13.8677H18.689Z" fill="black"/>
</svg>
