<svg width="24" height="24" viewBox="0 0 24 24" fill="none" xmlns="http://www.w3.org/2000/svg">
<path d="M22.5001 17.9999C22.3031 17.9999 22.1079 17.961 21.9259 17.8855C21.7438 17.81 21.5784 17.6994 21.4391 17.5599L13.7681 9.88893C13.536 9.65672 13.2604 9.47251 12.957 9.34683C12.6536 9.22115 12.3285 9.15647 12.0001 9.15647C11.6718 9.15647 11.3466 9.22115 11.0433 9.34683C10.7399 9.47251 10.4643 9.65672 10.2321 9.88893L2.57014 17.5509C2.28724 17.8242 1.90834 17.9754 1.51504 17.9719C1.12175 17.9685 0.745528 17.8108 0.467416 17.5327C0.189304 17.2545 0.0315505 16.8783 0.0281329 16.485C0.0247152 16.0917 0.175907 15.7128 0.449144 15.4299L8.11114 7.76794C9.14324 6.73776 10.5419 6.15918 12.0001 6.15918C13.4584 6.15918 14.8571 6.73776 15.8891 7.76794L23.5611 15.4399C23.7707 15.6498 23.9134 15.917 23.9711 16.2079C24.0289 16.4988 23.9991 16.8003 23.8855 17.0742C23.772 17.3482 23.5798 17.5824 23.3332 17.7471C23.0866 17.9119 22.7967 17.9999 22.5001 17.9999Z" fill="black"/>
</svg>
