<svg width="24" height="24" viewBox="0 0 24 24" fill="none" xmlns="http://www.w3.org/2000/svg">
<g clip-path="url(#clip0_606_6794)">
<path d="M19.227 0.000257075H17.31C16.683 -0.0012079 16.0619 0.121782 15.4827 0.362101C14.9036 0.602419 14.3778 0.955287 13.936 1.40026L10.4 4.93526C9.50728 5.8325 9.00424 7.04553 9.00004 8.31126V11.9823C6.36504 13.9353 3.35804 16.1883 2.92304 16.6233C2.51749 17.0192 2.22976 17.52 2.09188 18.0697C1.95399 18.6195 1.97136 19.1968 2.14204 19.7373L0.442044 21.4373C0.160649 21.7187 0.00256347 22.1003 0.00256348 22.4983C0.00256348 22.8962 0.160649 23.2779 0.442044 23.5593C0.723439 23.8407 1.10509 23.9987 1.50304 23.9987C1.901 23.9987 2.28265 23.8407 2.56404 23.5593L4.26404 21.8593C4.80431 22.0299 5.3813 22.0473 5.93087 21.9096C6.48045 21.7719 6.98106 21.4845 7.37704 21.0793C7.81204 20.6443 10.066 17.6373 12.019 15.0013H15.69C16.3171 15.0027 16.9382 14.8797 17.5174 14.6394C18.0965 14.3991 18.6222 14.0462 19.064 13.6013L22.6 10.0653C23.4928 9.16801 23.9958 7.95498 24 6.68926V4.77226C23.9985 3.50696 23.495 2.29395 22.6003 1.39934C21.7055 0.504736 20.4923 0.00158017 19.227 0.000257075ZM21 6.68926C20.9989 7.15929 20.8124 7.60989 20.481 7.94326L16.943 11.4803C16.7789 11.6455 16.5837 11.7765 16.3686 11.8658C16.1536 11.955 15.9229 12.0007 15.69 12.0003H14.232L14.541 11.5803L18.561 7.56126C18.7004 7.42192 18.8109 7.25651 18.8863 7.07447C18.9617 6.89242 19.0005 6.6973 19.0005 6.50026C19.0005 6.30321 18.9617 6.10809 18.8863 5.92605C18.8109 5.744 18.7004 5.57859 18.561 5.43926C18.4217 5.29992 18.2563 5.1894 18.0743 5.11399C17.8922 5.03859 17.6971 4.99978 17.5 4.99978C17.303 4.99978 17.1079 5.03859 16.9258 5.11399C16.7438 5.1894 16.5784 5.29992 16.439 5.43926L12.418 9.46126L12 9.76826V8.31126C12.0012 7.84123 12.1877 7.39062 12.519 7.05726L16.057 3.52026C16.2211 3.35504 16.4164 3.22401 16.6315 3.13476C16.8465 3.0455 17.0772 2.99978 17.31 3.00026H19.227C19.697 3.00052 20.1477 3.18727 20.4801 3.5195C20.8125 3.85172 20.9995 4.30228 21 4.77226V6.68926Z" fill="black"/>
</g>
<defs>
<clipPath id="clip0_606_6794">
<rect width="24" height="24" fill="white"/>
</clipPath>
</defs>
</svg>
