<svg width="24" height="24" viewBox="0 0 24 24" fill="none" xmlns="http://www.w3.org/2000/svg">
<g clip-path="url(#clip0_606_6594)">
<path d="M24 3.94079C24.0053 3.42097 23.9063 2.90538 23.709 2.42446C23.5116 1.94354 23.2199 1.50705 22.851 1.14078C22.1188 0.41455 21.1312 0.00423411 20.0999 -0.0021223C19.0687 -0.00847871 18.0761 0.389631 17.335 1.10678L7.16399 11.0328C6.35089 11.0069 5.5411 11.1477 4.78442 11.4464C4.02773 11.7451 3.34016 12.1955 2.76399 12.7698C1.14699 14.3888 0.245995 18.5418 0.0349946 20.0068C-0.0367742 20.504 -0.000878662 21.0108 0.140251 21.493C0.281381 21.9751 0.524451 22.4213 0.853007 22.8014C1.18156 23.1814 1.58793 23.4864 2.04461 23.6958C2.50129 23.9051 2.99762 24.0139 3.49999 24.0148C3.67166 24.0148 3.84311 24.0025 4.01299 23.9778C5.476 23.7678 9.62799 22.8678 11.248 21.2478C11.878 20.6132 12.3571 19.8449 12.6498 19C12.9425 18.1551 13.0413 17.2551 12.939 16.3668L22.819 6.72579C23.1917 6.36383 23.4882 5.93095 23.691 5.45265C23.8938 4.97436 23.9989 4.46031 24 3.94079ZM9.12299 19.1268C8.47099 19.7778 5.77699 20.6928 3.58199 21.0088C3.50351 21.021 3.42324 21.0146 3.34771 20.99C3.27218 20.9654 3.20352 20.9234 3.1473 20.8672C3.09109 20.8111 3.0489 20.7425 3.02417 20.667C2.99945 20.5915 2.99288 20.5113 3.00499 20.4328C3.32099 18.2328 4.23599 15.5428 4.88699 14.8908C5.44933 14.3302 6.21097 14.0154 7.00499 14.0154C7.79902 14.0154 8.56066 14.3302 9.12299 14.8908C9.46292 15.2364 9.71289 15.6601 9.85099 16.1248C9.86883 16.2473 9.90245 16.3669 9.95099 16.4808C10.0365 16.9559 10.0059 17.4447 9.86173 17.9054C9.71756 18.3661 9.46411 18.7852 9.12299 19.1268ZM20.723 4.57779L11.723 13.3568C11.5761 13.151 11.4161 12.9549 11.244 12.7698C10.9824 12.5108 10.6976 12.2765 10.393 12.0698L19.43 3.25579C19.6045 3.08657 19.8385 2.99261 20.0816 2.99411C20.3247 2.99561 20.5575 3.09244 20.73 3.26379C20.8166 3.35011 20.8852 3.4528 20.9317 3.56588C20.9783 3.67896 21.0019 3.80017 21.0011 3.92246C21.0004 4.04475 20.9753 4.16566 20.9274 4.27817C20.8795 4.39067 20.8097 4.49252 20.722 4.57779H20.723Z" fill="black"/>
</g>
<defs>
<clipPath id="clip0_606_6594">
<rect width="24" height="24" fill="white"/>
</clipPath>
</defs>
</svg>
