<svg width="24" height="24" viewBox="0 0 24 24" fill="none" xmlns="http://www.w3.org/2000/svg">
<g clip-path="url(#clip0_606_6557)">
<path d="M8.00136 21H3.41033C3.18467 20.9994 3.00186 20.8167 3.00134 20.591V3.40898C3.00191 3.18333 3.18467 3.00052 3.41033 3H8.00131C8.82973 3 9.50131 2.32842 9.50131 1.5C9.50131 0.671578 8.82973 0 8.00131 0H3.41033C1.52853 0.00220313 0.0035459 1.52719 0.00134277 3.40898V20.591C0.0035459 22.4728 1.52853 23.9978 3.41033 24H8.00131C8.82973 24 9.50131 23.3284 9.50131 22.5C9.50131 21.6716 8.82978 21 8.00136 21Z" fill="black"/>
<path d="M22.5015 10.5009L8.86146 10.5279L12.3274 7.06189C12.9134 6.47619 12.9137 5.52636 12.328 4.94037C11.7423 4.35439 10.7924 4.35415 10.2064 4.93986L6.32745 8.81886C4.57006 10.5762 4.57006 13.4255 6.3274 15.1828L6.32745 15.1828L10.2064 19.0618C10.7924 19.6475 11.7423 19.6473 12.328 19.0613C12.9137 18.4753 12.9134 17.5255 12.3274 16.9398L8.91443 13.5278L22.5015 13.5009C23.3299 13.4992 24.0001 12.8263 23.9985 11.9979C23.9968 11.1695 23.3239 10.4992 22.4955 10.5009H22.5015Z" fill="black"/>
</g>
<defs>
<clipPath id="clip0_606_6557">
<rect width="24" height="24" fill="white"/>
</clipPath>
</defs>
</svg>
