<svg width="24" height="24" viewBox="0 0 24 24" fill="none" xmlns="http://www.w3.org/2000/svg">
<g clip-path="url(#clip0_606_6839)">
<path d="M19.5 21H19V20.345C18.9978 19.7422 18.8749 19.1459 18.6386 18.5913C18.4023 18.0368 18.0573 17.5351 17.624 17.116C16.8034 16.3247 16.1532 15.374 15.7135 14.3223C15.2738 13.2705 15.0538 12.1399 15.067 11H16C16.3978 11 16.7794 10.842 17.0607 10.5607C17.342 10.2794 17.5 9.89784 17.5 9.50002C17.5 9.10219 17.342 8.72066 17.0607 8.43936C16.7794 8.15805 16.3978 8.00002 16 8.00002H15.278C15.7625 7.32636 16.0237 6.51781 16.025 5.68802C15.8061 4.10778 15.2313 2.59784 14.344 1.27202C14.0967 0.881268 13.7544 0.559623 13.349 0.337166C12.9436 0.114709 12.4884 -0.00129143 12.026 1.61119e-05C11.5635 -0.00157228 11.1082 0.114307 10.7028 0.336791C10.2974 0.559274 9.95507 0.881073 9.708 1.27202C8.8198 2.59747 8.24463 4.10754 8.026 5.68802C8.02715 6.51799 8.28878 7.32666 8.774 8.00002H8.5C8.10218 8.00002 7.72064 8.15805 7.43934 8.43936C7.15804 8.72066 7 9.10219 7 9.50002C7 9.89784 7.15804 10.2794 7.43934 10.5607C7.72064 10.842 8.10218 11 8.5 11H8.957C8.96602 12.1416 8.74164 13.273 8.29763 14.3247C7.85362 15.3764 7.19936 16.3263 6.375 17.116C5.94201 17.5353 5.5973 18.037 5.36116 18.5916C5.12501 19.1461 5.00222 19.7423 5 20.345V21H4.5C4.10218 21 3.72064 21.1581 3.43934 21.4394C3.15804 21.7207 3 22.1022 3 22.5C3 22.8978 3.15804 23.2794 3.43934 23.5607C3.72064 23.842 4.10218 24 4.5 24H19.5C19.8978 24 20.2794 23.842 20.5607 23.5607C20.842 23.2794 21 22.8978 21 22.5C21 22.1022 20.842 21.7207 20.5607 21.4394C20.2794 21.1581 19.8978 21 19.5 21ZM12.058 11C12.0609 13.9811 13.2127 16.8464 15.274 19H8.726C10.7963 16.8503 11.957 13.9845 11.966 11H12.058Z" fill="black"/>
</g>
<defs>
<clipPath id="clip0_606_6839">
<rect width="24" height="24" fill="white"/>
</clipPath>
</defs>
</svg>
