<svg width="24" height="24" viewBox="0 0 24 24" fill="none" xmlns="http://www.w3.org/2000/svg">
<g clip-path="url(#clip0_606_6624)">
<path d="M17.2931 17.2926L11.8281 11.8276C11.078 11.0778 10.0608 10.6565 9.00012 10.6565C7.93947 10.6565 6.92223 11.0778 6.17212 11.8276L5.29312 12.7066C5.10557 12.8941 5.00018 13.1484 5.00012 13.4136V16.9996C5.00012 17.5301 5.21084 18.0388 5.58591 18.4138C5.96098 18.7889 6.46969 18.9996 7.00012 18.9996H16.5861C16.7839 18.9996 16.9772 18.9409 17.1416 18.831C17.306 18.7211 17.4341 18.565 17.5098 18.3823C17.5855 18.1996 17.6053 17.9985 17.5667 17.8046C17.5281 17.6106 17.4329 17.4325 17.2931 17.2926Z" fill="black"/>
<path d="M16 10.5002C17.3807 10.5002 18.5 9.38096 18.5 8.00024C18.5 6.61953 17.3807 5.50024 16 5.50024C14.6193 5.50024 13.5 6.61953 13.5 8.00024C13.5 9.38096 14.6193 10.5002 16 10.5002Z" fill="black"/>
<path d="M22.5001 15.4998C22.1023 15.4998 21.7208 15.6578 21.4395 15.9391C21.1582 16.2204 21.0001 16.6019 21.0001 16.9998V18.4997C21.0001 19.1628 20.7367 19.7987 20.2679 20.2675C19.799 20.7363 19.1632 20.9997 18.5001 20.9997H17.0001C16.6023 20.9997 16.2208 21.1578 15.9395 21.4391C15.6582 21.7204 15.5001 22.1019 15.5001 22.4997C15.5001 22.8976 15.6582 23.2791 15.9395 23.5604C16.2208 23.8417 16.6023 23.9997 17.0001 23.9997H18.5001C19.9583 23.9981 21.3563 23.4182 22.3875 22.3871C23.4186 21.356 23.9985 19.9579 24.0001 18.4997V16.9998C24.0001 16.6019 23.8421 16.2204 23.5608 15.9391C23.2795 15.6578 22.8979 15.4998 22.5001 15.4998Z" fill="black"/>
<path d="M1.5 8.5C1.89782 8.5 2.27936 8.34196 2.56066 8.06066C2.84196 7.77936 3 7.39782 3 7V5.5C3 4.83696 3.26339 4.20107 3.73223 3.73223C4.20107 3.26339 4.83696 3 5.5 3H7C7.39782 3 7.77936 2.84196 8.06066 2.56066C8.34196 2.27936 8.5 1.89782 8.5 1.5C8.5 1.10218 8.34196 0.720644 8.06066 0.43934C7.77936 0.158035 7.39782 0 7 0L5.5 0C4.0418 0.00158817 2.64377 0.581561 1.61267 1.61267C0.581561 2.64377 0.00158817 4.0418 0 5.5L0 7C0 7.39782 0.158035 7.77936 0.43934 8.06066C0.720644 8.34196 1.10218 8.5 1.5 8.5Z" fill="black"/>
<path d="M7 20.9997H5.5C4.83696 20.9997 4.20107 20.7363 3.73223 20.2675C3.26339 19.7987 3 19.1628 3 18.4997V16.9998C3 16.6019 2.84196 16.2204 2.56066 15.9391C2.27936 15.6578 1.89782 15.4998 1.5 15.4998C1.10218 15.4998 0.720644 15.6578 0.43934 15.9391C0.158035 16.2204 0 16.6019 0 16.9998L0 18.4997C0.00158817 19.9579 0.581561 21.356 1.61267 22.3871C2.64377 23.4182 4.0418 23.9981 5.5 23.9997H7C7.39782 23.9997 7.77936 23.8417 8.06066 23.5604C8.34196 23.2791 8.5 22.8976 8.5 22.4997C8.5 22.1019 8.34196 21.7204 8.06066 21.4391C7.77936 21.1578 7.39782 20.9997 7 20.9997Z" fill="black"/>
<path d="M18.5001 0H17.0001C16.6023 0 16.2208 0.158035 15.9395 0.43934C15.6582 0.720644 15.5001 1.10218 15.5001 1.5C15.5001 1.89782 15.6582 2.27936 15.9395 2.56066C16.2208 2.84196 16.6023 3 17.0001 3H18.5001C19.1632 3 19.799 3.26339 20.2679 3.73223C20.7367 4.20107 21.0001 4.83696 21.0001 5.5V7C21.0001 7.39782 21.1582 7.77936 21.4395 8.06066C21.7208 8.34196 22.1023 8.5 22.5001 8.5C22.8979 8.5 23.2795 8.34196 23.5608 8.06066C23.8421 7.77936 24.0001 7.39782 24.0001 7V5.5C23.9985 4.0418 23.4186 2.64377 22.3875 1.61267C21.3563 0.581561 19.9583 0.00158817 18.5001 0V0Z" fill="black"/>
</g>
<defs>
<clipPath id="clip0_606_6624">
<rect width="24" height="24" fill="white"/>
</clipPath>
</defs>
</svg>
