<svg width="24" height="24" viewBox="0 0 24 24" fill="none" xmlns="http://www.w3.org/2000/svg">
<g clip-path="url(#clip0_606_6828)">
<path d="M22.419 10.0001C21.3224 8.51119 19.7585 7.43275 17.977 6.93714C17.4962 5.19287 16.4554 3.65497 15.015 2.56014C13.5709 1.46906 11.8057 0.887895 9.99594 0.907717C8.18616 0.92754 6.4341 1.54723 5.01431 2.66968C3.59453 3.79213 2.58725 5.3539 2.15034 7.11026C1.71342 8.86662 1.87156 10.7183 2.59997 12.3751C1.58523 13.0417 0.806125 14.0108 0.373181 15.145C-0.0597635 16.2792 -0.124566 17.521 0.187966 18.6941C0.531374 19.9501 1.28397 21.0556 2.32656 21.8355C3.36916 22.6155 4.64216 23.0253 5.94397 23.0001H15.58C17.5391 23.0361 19.4476 22.377 20.967 21.1397C22.4864 19.9024 23.5184 18.167 23.88 16.2411C24.0722 15.1562 24.0419 14.0434 23.7907 12.9705C23.5396 11.8976 23.0729 10.887 22.419 10.0001ZM20.919 15.7331C20.6638 16.9541 19.9913 18.0481 19.0169 18.8268C18.0425 19.6056 16.8272 20.0205 15.58 20.0001H5.94397C5.31183 20.0177 4.69138 19.8274 4.1777 19.4586C3.66402 19.0898 3.28543 18.5627 3.09997 17.9581C3.00263 17.6005 2.97726 17.2271 3.02533 16.8596C3.0734 16.4921 3.19395 16.1378 3.37999 15.8173C3.56604 15.4967 3.81387 15.2163 4.10912 14.9923C4.40437 14.7682 4.74116 14.605 5.09997 14.5121C5.33778 14.4507 5.55687 14.3317 5.73796 14.1658C5.91906 13.9998 6.05663 13.7919 6.13859 13.5604C6.22055 13.3288 6.24439 13.0807 6.20801 12.8377C6.17164 12.5948 6.07616 12.3645 5.92997 12.1671C5.39685 11.4505 5.05847 10.608 4.94777 9.72164C4.83708 8.83532 4.95785 7.93545 5.29833 7.10969C5.63881 6.28392 6.18737 5.56043 6.89058 5.00971C7.59379 4.45898 8.42767 4.09979 9.31097 3.96714C9.56799 3.9302 9.8273 3.91149 10.087 3.91114C11.2123 3.90777 12.3077 4.27384 13.205 4.95314C13.7509 5.36707 14.2099 5.88457 14.5556 6.47604C14.9014 7.06751 15.1271 7.72134 15.22 8.40014C15.2635 8.72626 15.4131 9.02901 15.6457 9.26175C15.8782 9.4945 16.1809 9.64432 16.507 9.68814C17.199 9.78497 17.8646 10.0194 18.4645 10.3777C19.0645 10.736 19.5865 11.2108 20 11.7741C20.4137 12.337 20.7086 12.9782 20.8669 13.6586C21.0253 14.339 21.0436 15.0444 20.921 15.7321L20.919 15.7331Z" fill="black"/>
</g>
<defs>
<clipPath id="clip0_606_6828">
<rect width="24" height="24" fill="white"/>
</clipPath>
</defs>
</svg>
