<svg width="24" height="24" viewBox="0 0 24 24" fill="none" xmlns="http://www.w3.org/2000/svg">
<g clip-path="url(#clip0_606_6518)">
<path d="M23.561 4.4385L19.561 0.438504C19.4217 0.299172 19.2563 0.188647 19.0742 0.113241C18.8922 0.0378345 18.6971 -0.000976562 18.5 -0.000976562C18.1021 -0.000976562 17.7204 0.157109 17.439 0.438504C17.1576 0.719899 16.9995 1.10155 16.9995 1.4995C16.9995 1.89746 17.1576 2.27911 17.439 2.5605L18.379 3.4995L17.04 4.8385C15.9907 4.17784 14.7477 3.89422 13.5157 4.03436C12.2837 4.1745 11.1361 4.73005 10.262 5.6095L5.18003 10.6825C4.48216 11.3771 3.92886 12.2031 3.55211 13.1128C3.17535 14.0225 2.98261 14.9979 2.98503 15.9825V18.8825L0.43703 21.4415C0.294129 21.5802 0.180281 21.746 0.102129 21.9292C0.0239771 22.1124 -0.0169141 22.3093 -0.0181592 22.5084C-0.0194042 22.7076 0.0190217 22.905 0.0948771 23.0891C0.170732 23.2733 0.282498 23.4405 0.423655 23.581C0.564811 23.7215 0.732531 23.8324 0.917031 23.9074C1.10153 23.9824 1.29912 24.0199 1.49826 24.0177C1.69741 24.0155 1.89412 23.9737 2.07693 23.8947C2.25974 23.8157 2.42499 23.7011 2.56303 23.5575L5.10903 20.9995H8.00003C8.98512 21.002 9.96091 20.8089 10.8707 20.4312C11.7806 20.0535 12.6063 19.4989 13.3 18.7995L18.382 13.7265C19.2535 12.8503 19.8046 11.7061 19.9462 10.4785C20.0879 9.2508 19.812 8.01119 19.163 6.9595L20.5 5.6205L21.439 6.5605C21.7204 6.8419 22.1021 6.99998 22.5 6.99998C22.898 6.99998 23.2796 6.8419 23.561 6.5605C23.8424 6.27911 24.0005 5.89746 24.0005 5.4995C24.0005 5.10155 23.8424 4.7199 23.561 4.4385ZM16.255 11.6095L11.173 16.6825C10.7573 17.1007 10.2629 17.4324 9.7183 17.6585C9.17369 17.8845 8.58969 18.0004 8.00003 17.9995H5.98503V15.9845C5.98943 15.4435 6.09105 14.9076 6.28503 14.4025L7.44203 15.5605C7.58136 15.6998 7.74677 15.8104 7.92882 15.8858C8.11087 15.9612 8.30598 16 8.50303 16C8.70008 16 8.89519 15.9612 9.07724 15.8858C9.25929 15.8104 9.4247 15.6998 9.56403 15.5605C9.70336 15.4212 9.81389 15.2558 9.88929 15.0737C9.9647 14.8917 10.0035 14.6966 10.0035 14.4995C10.0035 14.3025 9.9647 14.1073 9.88929 13.9253C9.81389 13.7432 9.70336 13.5778 9.56403 13.4385L8.11403 11.9915L9.99403 10.1145L11.439 11.5605C11.7204 11.8419 12.1021 12 12.5 12C12.898 12 13.2796 11.8419 13.561 11.5605C13.8424 11.2791 14.0005 10.8975 14.0005 10.4995C14.0005 10.1016 13.8424 9.7199 13.561 9.4385L12.117 7.9995L12.382 7.7345C12.8574 7.28062 13.4893 7.02736 14.1465 7.02736C14.8038 7.02736 15.4357 7.28062 15.911 7.7345L16.254 8.0785C16.7216 8.54703 16.9843 9.18187 16.9845 9.8438C16.9847 10.5057 16.7224 11.1407 16.255 11.6095Z" fill="black"/>
</g>
<defs>
<clipPath id="clip0_606_6518">
<rect width="24" height="24" fill="white"/>
</clipPath>
</defs>
</svg>
