<svg width="24" height="24" viewBox="0 0 24 24" fill="none" xmlns="http://www.w3.org/2000/svg">
<g clip-path="url(#clip0_606_6819)">
<path d="M23.9997 11.2458C23.8547 8.90616 23.0283 6.6601 21.6223 4.78448C20.2162 2.90885 18.2921 1.48564 16.087 0.69029C13.882 -0.105063 11.4924 -0.237795 9.21281 0.308455C6.93323 0.854705 4.86332 2.05606 3.25822 3.76443C1.65312 5.4728 0.583004 7.61351 0.179776 9.92268C-0.223452 12.2319 0.0578353 14.6086 0.988965 16.7598C1.92009 18.911 3.46036 20.7428 5.41991 22.0293C7.37946 23.3158 9.67262 24.0008 12.0167 23.9998H18.4997C19.9579 23.9979 21.3557 23.4179 22.3868 22.3868C23.4178 21.3558 23.9979 19.9579 23.9997 18.4998V11.3398V11.2458ZM20.9997 18.4998C20.9997 19.1628 20.7363 19.7987 20.2675 20.2676C19.7987 20.7364 19.1628 20.9998 18.4997 20.9998H12.0167C10.7462 20.999 9.4901 20.7305 8.33032 20.2117C7.17054 19.6929 6.13313 18.9354 5.28574 17.9888C4.43459 17.0428 3.79554 15.9258 3.41145 14.7127C3.02736 13.4995 2.9071 12.2182 3.05874 10.9548C3.298 8.96296 4.19315 7.10736 5.60317 5.68032C7.01319 4.25328 8.85793 3.33592 10.8467 3.07278C11.2359 3.02422 11.6276 2.99984 12.0197 2.99978C14.1159 2.99378 16.1474 3.72511 17.7587 5.06578C18.6981 5.8461 19.4696 6.80869 20.0266 7.89544C20.5837 8.98219 20.9147 10.1706 20.9997 11.3888V18.4998Z" fill="black"/>
<path d="M9.50012 11.0002H12.5001C12.8979 11.0002 13.2795 10.8422 13.5608 10.5609C13.8421 10.2796 14.0001 9.89807 14.0001 9.50024C14.0001 9.10242 13.8421 8.72089 13.5608 8.43958C13.2795 8.15828 12.8979 8.00024 12.5001 8.00024H9.50012C9.1023 8.00024 8.72077 8.15828 8.43946 8.43958C8.15816 8.72089 8.00012 9.10242 8.00012 9.50024C8.00012 9.89807 8.15816 10.2796 8.43946 10.5609C8.72077 10.8422 9.1023 11.0002 9.50012 11.0002Z" fill="black"/>
<path d="M16.5001 12.9998H9.50012C9.1023 12.9998 8.72077 13.1578 8.43946 13.4391C8.15816 13.7204 8.00012 14.1019 8.00012 14.4998C8.00012 14.8976 8.15816 15.2791 8.43946 15.5604C8.72077 15.8417 9.1023 15.9998 9.50012 15.9998H16.5001C16.8979 15.9998 17.2795 15.8417 17.5608 15.5604C17.8421 15.2791 18.0001 14.8976 18.0001 14.4998C18.0001 14.1019 17.8421 13.7204 17.5608 13.4391C17.2795 13.1578 16.8979 12.9998 16.5001 12.9998Z" fill="black"/>
</g>
<defs>
<clipPath id="clip0_606_6819">
<rect width="24" height="24" fill="white"/>
</clipPath>
</defs>
</svg>
