<svg width="24" height="24" viewBox="0 0 24 24" fill="none" xmlns="http://www.w3.org/2000/svg">
<g clip-path="url(#clip0_606_6601)">
<path d="M18.5 2.00073H5.5C4.0418 2.00232 2.64377 2.58229 1.61267 3.6134C0.581561 4.64451 0.00158817 6.04253 0 7.50073L0 13.5007C0.00158817 14.9589 0.581561 16.357 1.61267 17.3881C2.64377 18.4192 4.0418 18.9991 5.5 19.0007H10.5V21.0007H8C7.60218 21.0007 7.22064 21.1588 6.93934 21.4401C6.65804 21.7214 6.5 22.1029 6.5 22.5007C6.5 22.8986 6.65804 23.2801 6.93934 23.5614C7.22064 23.8427 7.60218 24.0007 8 24.0007H16C16.3978 24.0007 16.7794 23.8427 17.0607 23.5614C17.342 23.2801 17.5 22.8986 17.5 22.5007C17.5 22.1029 17.342 21.7214 17.0607 21.4401C16.7794 21.1588 16.3978 21.0007 16 21.0007H13.5V19.0007H18.5C19.9582 18.9991 21.3562 18.4192 22.3873 17.3881C23.4184 16.357 23.9984 14.9589 24 13.5007V7.50073C23.9984 6.04253 23.4184 4.64451 22.3873 3.6134C21.3562 2.58229 19.9582 2.00232 18.5 2.00073ZM21 13.5007C21 14.1638 20.7366 14.7997 20.2678 15.2685C19.7989 15.7373 19.163 16.0007 18.5 16.0007H5.5C4.83696 16.0007 4.20107 15.7373 3.73223 15.2685C3.26339 14.7997 3 14.1638 3 13.5007V7.50073C3 6.83769 3.26339 6.20181 3.73223 5.73297C4.20107 5.26412 4.83696 5.00073 5.5 5.00073H18.5C19.163 5.00073 19.7989 5.26412 20.2678 5.73297C20.7366 6.20181 21 6.83769 21 7.50073V13.5007Z" fill="black"/>
</g>
<defs>
<clipPath id="clip0_606_6601">
<rect width="24" height="24" fill="white"/>
</clipPath>
</defs>
</svg>
