<svg width="24" height="24" viewBox="0 0 24 24" fill="none" xmlns="http://www.w3.org/2000/svg">
<g clip-path="url(#clip0_606_6878)">
<path d="M15.9998 15.4999C15.9998 15.7966 15.9118 16.0866 15.747 16.3333C15.5821 16.58 15.3479 16.7722 15.0738 16.8858C14.7997 16.9993 14.4981 17.029 14.2071 16.9711C13.9162 16.9132 13.6489 16.7704 13.4391 16.5606C13.2293 16.3508 13.0865 16.0836 13.0286 15.7926C12.9707 15.5016 13.0004 15.2 13.1139 14.9259C13.2275 14.6518 13.4197 14.4176 13.6664 14.2527C13.9131 14.0879 14.2031 13.9999 14.4998 13.9999C14.8976 13.9999 15.2791 14.158 15.5604 14.4393C15.8417 14.7206 15.9998 15.1021 15.9998 15.4999ZM16.9998 15.4999C16.9998 15.7966 17.0877 16.0866 17.2526 16.3333C17.4174 16.58 17.6517 16.7722 17.9257 16.8858C18.1998 16.9993 18.5014 17.029 18.7924 16.9711C19.0834 16.9132 19.3506 16.7704 19.5604 16.5606C19.7702 16.3508 19.9131 16.0836 19.9709 15.7926C20.0288 15.5016 19.9991 15.2 19.8856 14.9259C19.7721 14.6518 19.5798 14.4176 19.3331 14.2527C19.0864 14.0879 18.7964 13.9999 18.4998 13.9999C18.1019 13.9999 17.7204 14.158 17.4391 14.4393C17.1578 14.7206 16.9998 15.1021 16.9998 15.4999ZM17.9998 12.4999C17.9998 12.2033 17.9118 11.9133 17.747 11.6666C17.5821 11.4199 17.3479 11.2277 17.0738 11.1141C16.7997 11.0006 16.4981 10.9709 16.2071 11.0288C15.9162 11.0866 15.6489 11.2295 15.4391 11.4393C15.2293 11.6491 15.0865 11.9163 15.0286 12.2073C14.9707 12.4983 15.0004 12.7999 15.1139 13.074C15.2275 13.3481 15.4197 13.5823 15.6664 13.7472C15.9131 13.912 16.2031 13.9999 16.4998 13.9999C16.8976 13.9999 17.2791 13.8419 17.5604 13.5606C17.8417 13.2793 17.9998 12.8978 17.9998 12.4999ZM23.9998 15.4999C24.002 17.0671 23.5703 18.6042 22.7526 19.9411C21.9349 21.2779 20.763 22.3623 19.3668 23.0741C17.9707 23.7858 16.4047 24.0972 14.8425 23.9736C13.2802 23.85 11.7827 23.2964 10.5158 22.374C10.1315 22.876 9.63758 23.2835 9.07168 23.5653C8.50579 23.8471 7.88294 23.9958 7.25077 24H4.75077C3.93552 23.9938 3.13979 23.7499 2.46109 23.2982C1.78239 22.8465 1.25021 22.2066 0.929767 21.457C0.298262 19.977 -0.0184477 18.3819 -0.000233231 16.773C0.103645 14.8546 0.735184 13.0022 1.82477 11.4199C2.44824 10.5567 2.85158 9.5544 2.99977 8.49995C2.86801 7.69542 2.68497 6.90013 2.45177 6.11895C2.2217 5.43191 2.07007 4.72106 1.99977 3.99995C1.97513 3.46812 2.06173 2.937 2.25403 2.44054C2.44633 1.94409 2.74011 1.49322 3.11657 1.11675C3.49303 0.740289 3.9439 0.446516 4.44036 0.254214C4.93682 0.0619124 5.46794 -0.0246878 5.99977 -5.01866e-05C6.5316 -0.0246878 7.06272 0.0619124 7.55917 0.254214C8.05563 0.446516 8.5065 0.740289 8.88296 1.11675C9.25943 1.49322 9.5532 1.94409 9.7455 2.44054C9.9378 2.937 10.0244 3.46812 9.99977 3.99995C9.92946 4.72106 9.77783 5.43191 9.54777 6.11895C9.31449 6.90011 9.13144 7.6954 8.99977 8.49995C9.0175 8.91445 9.11423 9.32174 9.28477 9.69995C10.4488 8.45231 11.9614 7.58389 13.6258 7.2077C15.2902 6.8315 17.0292 6.96495 18.6167 7.59066C20.2042 8.21638 21.5666 9.3054 22.5267 10.716C23.4868 12.1267 24 13.7936 23.9998 15.4999ZM4.99977 3.99995C5.01977 4.11695 5.20977 4.82395 5.34877 5.33895C5.52077 5.98095 5.66077 6.52195 5.77077 6.99995H6.22877C6.33877 6.52195 6.47877 5.98095 6.65077 5.33895C6.78977 4.82395 6.97977 4.11695 6.99977 3.92195C6.99977 3.28995 6.70977 2.99995 5.99977 2.99995C5.28977 2.99995 4.99977 3.28995 4.99977 3.99995ZM8.32177 20.2549C8.78642 19.1537 9.0173 17.968 8.99977 16.773C8.87531 15.3849 8.38422 14.0548 7.57677 12.9189C7.00098 12.0077 6.54363 11.0268 6.21577 9.99995H5.78377C5.4559 11.0268 4.99856 12.0077 4.42277 12.9189C3.61532 14.0548 3.12422 15.3849 2.99977 16.773C2.98214 17.9677 3.21302 19.1531 3.67777 20.254C3.76299 20.4699 3.91009 20.656 4.10062 20.7887C4.29115 20.9214 4.51663 20.9949 4.74877 21H7.24877C7.4811 20.9952 7.70687 20.922 7.89776 20.7895C8.08864 20.6569 8.23615 20.471 8.32177 20.2549ZM20.9998 15.4999C21.0019 14.3043 20.6138 13.1405 19.8942 12.1856C19.1746 11.2306 18.163 10.5366 17.0131 10.2091C15.8631 9.88149 14.6377 9.93823 13.5229 10.3707C12.4081 10.8031 11.465 11.5876 10.8368 12.6049C11.5663 13.8754 11.9661 15.3083 11.9998 16.773C11.9986 17.6812 11.898 18.5866 11.6998 19.4729C12.4773 20.2198 13.4574 20.7215 14.5179 20.9153C15.5785 21.1092 16.6727 20.9867 17.6641 20.5631C18.6556 20.1396 19.5005 19.4337 20.0936 18.5333C20.6868 17.633 21.0019 16.5781 20.9998 15.4999Z" fill="black"/>
</g>
<defs>
<clipPath id="clip0_606_6878">
<rect width="24" height="24" fill="white"/>
</clipPath>
</defs>
</svg>
