<svg width="24" height="24" viewBox="0 0 24 24" fill="none" xmlns="http://www.w3.org/2000/svg">
<g clip-path="url(#clip0_606_6911)">
<path d="M12.0001 0C8.81851 0.00344108 5.76826 1.26883 3.51857 3.51852C1.26888 5.76821 0.00349414 8.81846 5.30586e-05 12C-0.124947 21.574 11.1591 27.429 18.9001 21.817C19.0623 21.7041 19.2006 21.5602 19.3071 21.3937C19.4135 21.2271 19.486 21.0412 19.5203 20.8465C19.5547 20.6519 19.5502 20.4523 19.5072 20.2594C19.4642 20.0665 19.3835 19.884 19.2697 19.7223C19.1559 19.5607 19.0113 19.4232 18.8442 19.3176C18.677 19.2121 18.4907 19.1406 18.2959 19.1073C18.101 19.074 17.9015 19.0795 17.7088 19.1236C17.5161 19.1676 17.3341 19.2493 17.1731 19.364C11.4201 23.582 2.86305 19.146 3.00005 12C3.47205 0.0699997 20.5291 0.0719995 21.0001 12V13.5C21.0001 13.8978 20.842 14.2794 20.5607 14.5607C20.2794 14.842 19.8979 15 19.5001 15C19.1022 15 18.7207 14.842 18.4394 14.5607C18.1581 14.2794 18.0001 13.8978 18.0001 13.5V12C17.7481 4.071 6.25105 4.072 6.00005 12C6.01004 13.1628 6.35677 14.2978 6.99829 15.2677C7.63981 16.2376 8.54863 17.0009 9.61481 17.4651C10.681 17.9293 11.8589 18.0746 13.0059 17.8835C14.1529 17.6923 15.22 17.1729 16.0781 16.388C16.6737 17.0856 17.4683 17.5844 18.3554 17.8178C19.2425 18.0511 20.1797 18.0078 21.0415 17.6937C21.9032 17.3795 22.6484 16.8095 23.1772 16.06C23.706 15.3104 23.9931 14.4172 24.0001 13.5V12C23.9966 8.81846 22.7312 5.76821 20.4815 3.51852C18.2318 1.26883 15.1816 0.00344108 12.0001 0V0ZM12.0001 15C11.2044 15 10.4413 14.6839 9.87873 14.1213C9.31612 13.5587 9.00005 12.7956 9.00005 12C9.00005 11.2044 9.31612 10.4413 9.87873 9.87868C10.4413 9.31607 11.2044 9 12.0001 9C12.7957 9 13.5588 9.31607 14.1214 9.87868C14.684 10.4413 15.0001 11.2044 15.0001 12C15.0001 12.7956 14.684 13.5587 14.1214 14.1213C13.5588 14.6839 12.7957 15 12.0001 15Z" fill="black"/>
</g>
<defs>
<clipPath id="clip0_606_6911">
<rect width="24" height="24" fill="white"/>
</clipPath>
</defs>
</svg>
