<svg width="24" height="24" viewBox="0 0 24 24" fill="none" xmlns="http://www.w3.org/2000/svg">
<g clip-path="url(#clip0_606_6621)">
<path d="M15 7.50072C15 7.20405 15.088 6.91404 15.2528 6.66737C15.4176 6.4207 15.6519 6.22844 15.926 6.1149C16.2001 6.00137 16.5017 5.97167 16.7926 6.02955C17.0836 6.08742 17.3509 6.23029 17.5607 6.44006C17.7704 6.64984 17.9133 6.91712 17.9712 7.20809C18.0291 7.49906 17.9994 7.80066 17.8858 8.07475C17.7723 8.34884 17.58 8.58311 17.3334 8.74793C17.0867 8.91275 16.7967 9.00072 16.5 9.00072C16.1022 9.00072 15.7206 8.84269 15.4393 8.56138C15.158 8.28008 15 7.89855 15 7.50072ZM13.5 12.0007C13.7967 12.0007 14.0867 11.9128 14.3334 11.7479C14.58 11.5831 14.7723 11.3488 14.8858 11.0747C14.9994 10.8007 15.0291 10.4991 14.9712 10.2081C14.9133 9.91712 14.7704 9.64984 14.5607 9.44006C14.3509 9.23028 14.0836 9.08742 13.7926 9.02955C13.5017 8.97167 13.2001 9.00137 12.926 9.1149C12.6519 9.22844 12.4176 9.4207 12.2528 9.66737C12.088 9.91404 12 10.2041 12 10.5007C12 10.8985 12.158 11.2801 12.4393 11.5614C12.7206 11.8427 13.1022 12.0007 13.5 12.0007ZM10.5 15.0007C10.7967 15.0007 11.0867 14.9128 11.3334 14.7479C11.58 14.5831 11.7723 14.3488 11.8858 14.0747C11.9994 13.8007 12.0291 13.4991 11.9712 13.2081C11.9133 12.9171 11.7704 12.6498 11.5607 12.4401C11.3509 12.2303 11.0836 12.0874 10.7926 12.0295C10.5017 11.9717 10.2001 12.0014 9.92598 12.1149C9.65189 12.2284 9.41762 12.4207 9.2528 12.6674C9.08797 12.914 9 13.2041 9 13.5007C9 13.8985 9.15804 14.2801 9.43934 14.5614C9.72064 14.8427 10.1022 15.0007 10.5 15.0007ZM23.841 3.55372L23.766 3.76272C22.112 8.35172 20.532 12.6877 16.891 16.4537C16.6205 19.0329 15.4525 21.4351 13.591 23.2407C13.0809 23.7263 12.4043 23.9982 11.7 24.0007C10.9839 24.0007 10.2972 23.7163 9.79081 23.2099C9.28446 22.7036 9 22.0168 9 21.3007V19.6697C8.41262 19.4542 7.86842 19.1355 7.393 18.7287L5.561 20.5617C5.27961 20.8431 4.89795 21.0012 4.5 21.0012C4.10205 21.0012 3.7204 20.8431 3.439 20.5617C3.15761 20.2803 2.99952 19.8987 2.99952 19.5007C2.99952 19.1028 3.15761 18.7211 3.439 18.4397L5.273 16.6057C4.66022 15.8585 4.26418 14.9574 4.128 14.0007H2.7C1.98392 14.0007 1.29716 13.7163 0.790812 13.2099C0.284464 12.7036 0 12.0168 0 11.3007C0.00276315 10.5968 0.274676 9.9206 0.76 9.41072C1.80125 8.34688 3.04263 7.4995 4.41269 6.91735C5.78276 6.33521 7.25443 6.02981 8.743 6.01872C12.219 3.12572 16.129 1.71872 20.243 0.234724L20.451 0.159724C20.9246 -0.0109217 21.4369 -0.0432653 21.9282 0.066473C22.4195 0.176211 22.8693 0.423499 23.2253 0.779439C23.5812 1.13538 23.8285 1.58527 23.9383 2.07654C24.048 2.5678 24.0156 3.08016 23.845 3.55372H23.841ZM20.768 3.23272C16.412 4.80572 12.635 6.24072 9.4 9.47272C8.71144 10.2501 8.06997 11.0678 7.479 11.9217C7.1642 12.3693 7.01774 12.9138 7.0655 13.4589C7.11326 14.004 7.35216 14.5147 7.74 14.9007L9.164 16.3207C9.55022 16.7073 10.0605 16.9452 10.605 16.9924C11.1494 17.0396 11.693 16.8931 12.14 16.5787C12.9928 15.9912 13.7919 15.3292 14.528 14.6007C17.76 11.3657 19.2 7.58872 20.768 3.23272Z" fill="black"/>
</g>
<defs>
<clipPath id="clip0_606_6621">
<rect width="24" height="24" fill="white"/>
</clipPath>
</defs>
</svg>
