<svg width="24" height="24" viewBox="0 0 24 24" fill="none" xmlns="http://www.w3.org/2000/svg">
<g clip-path="url(#clip0_606_6631)">
<path d="M11.9999 19C13.8557 18.9979 15.635 18.2597 16.9473 16.9474C18.2596 15.6351 18.9978 13.8559 18.9999 12V7C18.9999 5.14348 18.2624 3.36301 16.9496 2.05025C15.6369 0.737498 13.8564 0 11.9999 0C10.1434 0 8.36288 0.737498 7.05013 2.05025C5.73738 3.36301 4.99988 5.14348 4.99988 7V12C5.002 13.8559 5.74017 15.6351 7.05247 16.9474C8.36477 18.2597 10.144 18.9979 11.9999 19ZM11.9999 3C13.0607 3 14.0782 3.42143 14.8283 4.17157C15.5785 4.92172 15.9999 5.93913 15.9999 7V8H14.4999C14.1021 8 13.7205 8.15804 13.4392 8.43934C13.1579 8.72064 12.9999 9.10218 12.9999 9.5C12.9999 9.89782 13.1579 10.2794 13.4392 10.5607C13.7205 10.842 14.1021 11 14.4999 11H15.9999V12C15.9999 13.0609 15.5785 14.0783 14.8283 14.8284C14.0782 15.5786 13.0607 16 11.9999 16C10.939 16 9.9216 15.5786 9.17145 14.8284C8.42131 14.0783 7.99988 13.0609 7.99988 12V11H9.49988C9.8977 11 10.2792 10.842 10.5605 10.5607C10.8418 10.2794 10.9999 9.89782 10.9999 9.5C10.9999 9.10218 10.8418 8.72064 10.5605 8.43934C10.2792 8.15804 9.8977 8 9.49988 8H7.99988V7C7.99988 5.93913 8.42131 4.92172 9.17145 4.17157C9.9216 3.42143 10.939 3 11.9999 3Z" fill="black"/>
<path d="M22.5 11.5002C22.1022 11.5002 21.7206 11.6583 21.4393 11.9396C21.158 12.2209 21 12.6024 21 13.0002V13.3892C20.9976 15.4071 20.195 17.3416 18.7682 18.7684C17.3413 20.1952 15.4068 20.9979 13.389 21.0002H10.611C8.59325 20.9976 6.6589 20.1949 5.23213 18.7681C3.80537 17.3413 3.00265 15.407 3 13.3892V13.0002C3 12.6024 2.84196 12.2209 2.56066 11.9396C2.27936 11.6583 1.89782 11.5002 1.5 11.5002C1.10218 11.5002 0.720644 11.6583 0.43934 11.9396C0.158035 12.2209 0 12.6024 0 13.0002L0 13.3892C0.00317611 16.2025 1.12214 18.8996 3.1114 20.8888C5.10066 22.8781 7.79776 23.9971 10.611 24.0002H13.389C16.2022 23.9971 18.8993 22.8781 20.8886 20.8888C22.8779 18.8996 23.9968 16.2025 24 13.3892V13.0002C24 12.6024 23.842 12.2209 23.5607 11.9396C23.2794 11.6583 22.8978 11.5002 22.5 11.5002Z" fill="black"/>
</g>
<defs>
<clipPath id="clip0_606_6631">
<rect width="24" height="24" fill="white"/>
</clipPath>
</defs>
</svg>
