<svg width="24" height="24" viewBox="0 0 24 24" fill="none" xmlns="http://www.w3.org/2000/svg">
<g clip-path="url(#clip0_606_6573)">
<path d="M24 10.0916L22.751 4.30756C22.4853 3.083 21.807 1.98691 20.8296 1.20283C19.8522 0.418757 18.635 -0.00569607 17.382 0.000556383H6.618C5.36497 -0.00569607 4.14784 0.418757 3.17043 1.20283C2.19302 1.98691 1.51468 3.083 1.249 4.30756L0.036 9.76656L0 11.0466C0.00452092 12.0499 0.358074 13.0204 1 13.7916V18.5006C1.00159 19.9588 1.58156 21.3568 2.61267 22.3879C3.64377 23.419 5.0418 23.999 6.5 24.0006H17.5C18.9582 23.999 20.3562 23.419 21.3873 22.3879C22.4184 21.3568 22.9984 19.9588 23 18.5006V13.7916C23.6419 13.0204 23.9955 12.0499 24 11.0466V10.0916ZM3 10.2566L4.177 4.95656C4.30074 4.40151 4.61002 3.90524 5.0538 3.54963C5.49757 3.19403 6.04933 3.00035 6.618 3.00056H7V4.50056C7 4.89838 7.15804 5.27991 7.43934 5.56122C7.72064 5.84252 8.10218 6.00056 8.5 6.00056C8.89782 6.00056 9.27936 5.84252 9.56066 5.56122C9.84196 5.27991 10 4.89838 10 4.50056V3.00056H14V4.50056C14 4.89838 14.158 5.27991 14.4393 5.56122C14.7206 5.84252 15.1022 6.00056 15.5 6.00056C15.8978 6.00056 16.2794 5.84252 16.5607 5.56122C16.842 5.27991 17 4.89838 17 4.50056V3.00056H17.382C17.9509 3.00045 18.5029 3.19442 18.9467 3.55041C19.3905 3.90641 19.6997 4.40314 19.823 4.95856L21 10.2566V11.0466C20.9904 11.4018 20.8425 11.7392 20.5878 11.9871C20.3332 12.2349 19.9919 12.3736 19.6365 12.3736C19.2811 12.3736 18.9398 12.2349 18.6852 11.9871C18.4305 11.7392 18.2826 11.4018 18.273 11.0466C18.2796 10.7201 18.221 10.3955 18.1006 10.092C17.9802 9.7884 17.8005 9.5119 17.5719 9.27867C17.3433 9.04543 17.0705 8.86015 16.7694 8.73366C16.4683 8.60716 16.1451 8.54201 15.8185 8.54201C15.4919 8.54201 15.1687 8.60716 14.8676 8.73366C14.5665 8.86015 14.2937 9.04543 14.0651 9.27867C13.8365 9.5119 13.6568 9.7884 13.5364 10.092C13.416 10.3955 13.3574 10.7201 13.364 11.0466C13.364 11.4083 13.2203 11.7552 12.9645 12.011C12.7087 12.2668 12.3618 12.4106 12 12.4106C11.6382 12.4106 11.2913 12.2668 11.0355 12.011C10.7797 11.7552 10.636 11.4083 10.636 11.0466C10.6426 10.7201 10.584 10.3955 10.4636 10.092C10.3432 9.7884 10.1635 9.5119 9.93488 9.27867C9.7063 9.04543 9.43349 8.86015 9.13242 8.73366C8.83135 8.60716 8.50807 8.54201 8.1815 8.54201C7.85494 8.54201 7.53165 8.60716 7.23058 8.73366C6.92951 8.86015 6.6567 9.04543 6.42812 9.27867C6.19955 9.5119 6.0198 9.7884 5.89942 10.092C5.77903 10.3955 5.72041 10.7201 5.727 11.0466C5.71738 11.4018 5.5695 11.7392 5.31485 11.9871C5.06019 12.2349 4.71886 12.3736 4.3635 12.3736C4.00814 12.3736 3.66681 12.2349 3.41215 11.9871C3.1575 11.7392 3.00962 11.4018 3 11.0466V10.2566ZM17.5 21.0006H6.5C5.83696 21.0006 5.20107 20.7372 4.73223 20.2683C4.26339 19.7995 4 19.1636 4 18.5006V15.3726C4.122 15.3836 4.239 15.4096 4.364 15.4096C5.14356 15.409 5.90876 15.1997 6.58015 14.8036C7.25153 14.4074 7.80463 13.8387 8.182 13.1566C8.55903 13.8389 9.11206 14.4078 9.78353 14.804C10.455 15.2001 11.2204 15.4091 12 15.4091C12.7796 15.4091 13.545 15.2001 14.2165 14.804C14.8879 14.4078 15.441 13.8389 15.818 13.1566C16.1954 13.8387 16.7485 14.4074 17.4199 14.8036C18.0912 15.1997 18.8564 15.409 19.636 15.4096C19.761 15.4096 19.878 15.3836 20 15.3726V18.5006C20 18.8289 19.9353 19.154 19.8097 19.4573C19.6841 19.7606 19.4999 20.0362 19.2678 20.2683C19.0356 20.5005 18.76 20.6846 18.4567 20.8103C18.1534 20.9359 17.8283 21.0006 17.5 21.0006Z" fill="black"/>
</g>
<defs>
<clipPath id="clip0_606_6573">
<rect width="24" height="24" fill="white"/>
</clipPath>
</defs>
</svg>
