<svg width="24" height="24" viewBox="0 0 24 24" fill="none" xmlns="http://www.w3.org/2000/svg">
<g clip-path="url(#clip0_606_6555)">
<path d="M11.5 16C11.1022 16 10.7206 16.158 10.4393 16.4393C10.158 16.7206 10 17.1022 10 17.5V18.3C10 19.0161 9.71554 19.7028 9.20919 20.2092C8.70284 20.7155 8.01608 21 7.3 21H5.7C4.98392 21 4.29716 20.7155 3.79081 20.2092C3.28446 19.7028 3 19.0161 3 18.3V5.7C3 4.98392 3.28446 4.29716 3.79081 3.79081C4.29716 3.28446 4.98392 3 5.7 3H7.3C8.01608 3 8.70284 3.28446 9.20919 3.79081C9.71554 4.29716 10 4.98392 10 5.7V6.5C10 6.89782 10.158 7.27936 10.4393 7.56066C10.7206 7.84196 11.1022 8 11.5 8C11.8978 8 12.2794 7.84196 12.5607 7.56066C12.842 7.27936 13 6.89782 13 6.5V5.7C12.9984 4.18875 12.3974 2.73986 11.3288 1.67125C10.2601 0.602632 8.81125 0.00158828 7.3 0L5.7 0C4.18875 0.00158828 2.73986 0.602632 1.67125 1.67125C0.602632 2.73986 0.00158828 4.18875 0 5.7L0 18.3C0.00158828 19.8112 0.602632 21.2601 1.67125 22.3288C2.73986 23.3974 4.18875 23.9984 5.7 24H7.3C8.81125 23.9984 10.2601 23.3974 11.3288 22.3288C12.3974 21.2601 12.9984 19.8112 13 18.3V17.5C13 17.1022 12.842 16.7206 12.5607 16.4393C12.2794 16.158 11.8978 16 11.5 16Z" fill="black"/>
<path d="M22.5609 9.52439L17.9749 4.93839C17.8355 4.79913 17.6701 4.68867 17.4881 4.61332C17.3061 4.53798 17.111 4.49922 16.914 4.49927C16.717 4.49931 16.522 4.53816 16.34 4.61359C16.158 4.68902 15.9926 4.79956 15.8534 4.93889C15.5721 5.22029 15.4142 5.60189 15.4143 5.99975C15.4143 6.19675 15.4531 6.39181 15.5286 6.5738C15.604 6.75578 15.7145 6.92113 15.8539 7.06039L19.2649 10.4714L6.99988 10.4994C6.60205 10.4994 6.22052 10.6574 5.93922 10.9387C5.65791 11.22 5.49988 11.6016 5.49988 11.9994C5.49988 12.3972 5.65791 12.7788 5.93922 13.0601C6.22052 13.3414 6.60205 13.4994 6.99988 13.4994L19.3179 13.4714L15.8509 16.9384C15.5695 17.2197 15.4113 17.6012 15.4113 17.999C15.4112 18.3969 15.5691 18.7785 15.8504 19.0599C16.1316 19.3413 16.5132 19.4994 16.911 19.4995C17.3089 19.4996 17.6905 19.3417 17.9719 19.0604L22.5579 14.4744C23.2135 13.8178 23.582 12.9279 23.5826 12C23.5831 11.0721 23.2157 10.1818 22.5609 9.52439Z" fill="black"/>
</g>
<defs>
<clipPath id="clip0_606_6555">
<rect width="24" height="24" fill="white"/>
</clipPath>
</defs>
</svg>
