<svg width="24" height="24" viewBox="0 0 24 24" fill="none" xmlns="http://www.w3.org/2000/svg">
<g clip-path="url(#clip0_606_6833)">
<path d="M11.6712 23.9999C11.2121 24.0001 10.7575 23.9096 10.3335 23.7337C9.90946 23.5578 9.52433 23.3 9.20017 22.9749L5.81017 19.5559C5.5301 19.2733 5.37376 18.8911 5.37554 18.4932C5.37732 18.0953 5.53708 17.7145 5.81967 17.4344C6.10225 17.1544 6.48452 16.998 6.88238 16.9998C7.28024 17.0016 7.6611 17.1613 7.94117 17.4439L11.3262 20.8579C11.4196 20.9495 11.5453 21.0009 11.6762 21.0009C11.807 21.0009 11.9327 20.9495 12.0262 20.8579L17.4402 15.4429C17.7216 15.1615 18.1032 15.0034 18.5012 15.0034C18.8991 15.0034 19.2808 15.1615 19.5622 15.4429C19.8436 15.7243 20.0016 16.106 20.0016 16.5039C20.0016 16.9019 19.8436 17.2835 19.5622 17.5649L14.1472 22.9789C13.8221 23.3038 13.436 23.5613 13.0111 23.7365C12.5861 23.9118 12.1308 24.0013 11.6712 23.9999ZM2.08517 18.8999C2.46847 18.7782 2.78875 18.5111 2.97722 18.1558C3.1657 17.8005 3.20732 17.3855 3.09317 16.9999C2.93671 16.3879 2.99469 15.7408 3.25744 15.1663C3.52019 14.5919 3.97185 14.1248 4.53717 13.8429C5.11546 13.5314 5.5467 13.0034 5.7364 12.3745C5.92609 11.7457 5.85876 11.0673 5.54917 10.4879C5.03362 9.4695 4.87313 8.30802 5.09317 7.18794C5.28223 6.15232 5.79008 5.20163 6.54578 4.46871C7.30147 3.73578 8.26725 3.25724 9.30817 3.09994C9.9926 2.99638 10.6908 3.03051 11.3619 3.20034C12.033 3.37017 12.6634 3.67227 13.2162 4.08894C13.7603 4.49701 14.2176 5.00962 14.561 5.59673C14.9044 6.18384 15.1272 6.83361 15.2162 7.50794C15.2599 7.8345 15.4099 8.13758 15.6431 8.37038C15.8762 8.60317 16.1795 8.75272 16.5062 8.79594C17.8206 8.97008 19.0178 9.64276 19.8502 10.6748C20.6825 11.7069 21.0864 13.0194 20.9782 14.3409V14.3939C20.9645 14.5881 20.9896 14.7831 21.0521 14.9675C21.1146 15.1519 21.2132 15.322 21.3421 15.4678C21.471 15.6137 21.6277 15.7324 21.803 15.8171C21.9783 15.9018 22.1688 15.9507 22.3632 15.9609C22.764 15.9822 23.1572 15.8457 23.4587 15.5807C23.7601 15.3157 23.9459 14.9432 23.9762 14.5429C24.1226 12.6484 23.6034 10.7621 22.5081 9.20934C21.4128 7.65658 19.81 6.53463 17.9762 6.03694C17.5023 4.30244 16.4644 2.77511 15.0262 1.69595C14.1578 1.03857 13.1671 0.561028 12.112 0.291274C11.0568 0.0215188 9.95844 -0.0350268 8.88117 0.124947C7.22061 0.372024 5.67878 1.13183 4.47123 2.29815C3.26367 3.46446 2.45077 4.97897 2.14617 6.62994C1.82962 8.25545 2.01842 9.93892 2.68717 11.4539C1.65924 12.1044 0.86368 13.0637 0.414565 14.1942C-0.0345491 15.3247 -0.114154 16.5684 0.187166 17.7469L0.234166 17.9209C0.322274 18.2248 0.50758 18.4915 0.761702 18.6801C1.01582 18.8686 1.32475 18.9687 1.64117 18.9649C1.7915 18.9645 1.94101 18.9426 2.08517 18.8999Z" fill="black"/>
</g>
<defs>
<clipPath id="clip0_606_6833">
<rect width="24" height="24" fill="white"/>
</clipPath>
</defs>
</svg>
