<svg width="24" height="24" viewBox="0 0 24 24" fill="none" xmlns="http://www.w3.org/2000/svg">
<g clip-path="url(#clip0_606_6574)">
<path d="M21.5 8C21.1022 8 20.7207 7.84197 20.4394 7.56066C20.1581 7.27936 20 6.89783 20 6.5V1.5C20 1.10218 20.1581 0.720644 20.4394 0.43934C20.7207 0.158035 21.1022 0 21.5 0C21.8979 0 22.2794 0.158035 22.5607 0.43934C22.842 0.720644 23 1.10218 23 1.5V6.5C23 6.89783 22.842 7.27936 22.5607 7.56066C22.2794 7.84197 21.8979 8 21.5 8ZM18 6.5V1.5C18 1.10218 17.842 0.720644 17.5607 0.43934C17.2794 0.158035 16.8979 0 16.5 0C16.1022 0 15.7207 0.158035 15.4394 0.43934C15.1581 0.720644 15 1.10218 15 1.5V6.5C15 6.89783 15.1581 7.27936 15.4394 7.56066C15.7207 7.84197 16.1022 8 16.5 8C16.8979 8 17.2794 7.84197 17.5607 7.56066C17.842 7.27936 18 6.89783 18 6.5ZM22.062 22.138C22.086 22.113 23.016 21.046 23.016 21.046C23.6584 20.378 24.0105 19.483 23.9953 18.5563C23.9801 17.6296 23.5989 16.7466 22.935 16.1L20.7 14.025C20.0335 13.3899 19.1482 13.0356 18.2275 13.0356C17.3069 13.0356 16.4215 13.3899 15.755 14.025L15.345 14.425C12.7891 13.2598 10.7428 11.2068 9.58603 8.647L9.97503 8.253C10.6193 7.60085 10.9838 6.72312 10.9911 5.80642C10.9984 4.88971 10.6479 4.00631 10.014 3.344L7.86103 1.025C7.21186 0.376101 6.33376 0.00818426 5.41592 0.000515313C4.49808 -0.00715363 3.61395 0.346039 2.95403 0.984C2.95403 0.984 1.88803 1.914 1.86303 1.938C-5.07297 9.785 9.34203 24.224 17.5 24C18.3458 24.0065 19.1844 23.8452 19.9674 23.5256C20.7504 23.206 21.4624 22.7344 22.062 22.138ZM5.03303 3.146C5.11905 3.05673 5.23548 3.00307 5.35923 2.99566C5.48297 2.98825 5.60498 3.02764 5.70103 3.106L7.85403 5.425C7.90344 5.47082 7.94269 5.52648 7.96925 5.5884C7.99582 5.65032 8.00911 5.71712 8.00826 5.7845C8.00741 5.85187 7.99245 5.91832 7.96433 5.97955C7.93622 6.04079 7.89557 6.09544 7.84503 6.14L6.73603 7.267C6.53148 7.47511 6.39206 7.73835 6.33487 8.0245C6.27768 8.31064 6.30519 8.60726 6.41403 8.878C7.15899 10.8729 8.32431 12.6843 9.83094 14.1892C11.3376 15.6941 13.1503 16.8573 15.146 17.6C15.4146 17.7025 15.7069 17.7258 15.9883 17.6669C16.2696 17.608 16.5281 17.4696 16.733 17.268L17.868 16.151C18.148 15.938 18.319 15.941 18.616 16.191L20.854 18.265C20.9025 18.3101 20.9412 18.3647 20.9677 18.4255C20.9942 18.4862 21.0078 18.5518 21.0078 18.618C21.0078 18.6843 20.9942 18.7498 20.9677 18.8105C20.9412 18.8713 20.9025 18.9259 20.854 18.971C20.829 18.996 19.905 20.055 19.905 20.055C14.654 24.773 -0.910969 10.127 3.95003 4.1C3.95003 4.1 5.00903 3.171 5.03303 3.146Z" fill="black"/>
</g>
<defs>
<clipPath id="clip0_606_6574">
<rect width="24" height="24" fill="white"/>
</clipPath>
</defs>
</svg>
