<svg width="24" height="24" viewBox="0 0 24 24" fill="none" xmlns="http://www.w3.org/2000/svg">
<g clip-path="url(#clip0_606_6671)">
<path d="M22.984 1.01799C22.364 0.404142 21.5366 0.0447769 20.6648 0.0107189C19.7929 -0.023339 18.94 0.270381 18.274 0.833995L5.648 11.754C3.573 12.227 0 13.519 0 16.8C0.00211748 18.7089 0.761367 20.539 2.11117 21.8888C3.46097 23.2386 5.29109 23.9979 7.2 24C10.482 24 11.773 20.427 12.246 18.352L23.18 5.70999C23.7374 5.0439 24.0261 4.19383 23.9899 3.32607C23.9537 2.45831 23.595 1.63528 22.984 1.01799ZM7.2 21C6.08609 21 5.0178 20.5575 4.23015 19.7698C3.4425 18.9822 3 17.9139 3 16.8C3 15.706 5.121 14.914 6.681 14.6L9.4 17.319C9.086 18.881 8.294 21 7.2 21ZM20.9 3.75999L14.653 10.983L13.016 9.34799L20.227 3.11199C20.3156 3.03643 20.4292 2.99655 20.5456 3.00012C20.6621 3.00368 20.773 3.05044 20.8568 3.13129C20.9407 3.21214 20.9914 3.32129 20.9992 3.4375C21.007 3.55372 20.9713 3.66867 20.899 3.75999H20.9Z" fill="black"/>
</g>
<defs>
<clipPath id="clip0_606_6671">
<rect width="24" height="24" fill="white"/>
</clipPath>
</defs>
</svg>
