<svg width="24" height="24" viewBox="0 0 24 24" fill="none" xmlns="http://www.w3.org/2000/svg">
<g clip-path="url(#clip0_606_6808)">
<path d="M22 11.3513V9.5003C21.9973 8.65468 21.6881 7.83873 21.1296 7.20376C20.5712 6.56879 19.8014 6.1579 18.963 6.0473C18.8699 4.0659 18.3137 2.13391 17.339 0.406302C17.2378 0.268884 17.1029 0.159835 16.9474 0.0896535C16.7918 0.019472 16.6208 -0.00947753 16.4508 0.00559247C16.2808 0.0206625 16.1176 0.0792443 15.9768 0.175697C15.836 0.27215 15.7224 0.403225 15.647 0.556302C15.35 1.28815 14.8398 1.91379 14.1826 2.35194C13.5255 2.7901 12.7518 3.02053 11.962 3.0133H10C6.92 3.0133 5.74 4.7133 5.286 6.0223C4.39911 6.07662 3.56608 6.46623 2.95587 7.1121C2.34565 7.75797 2.00392 8.61176 2 9.5003V11.3513C1.40362 11.6342 0.899384 12.0799 0.5455 12.6371C0.191615 13.1943 0.00250632 13.8402 0 14.5003V18.5003C0.00185226 19.9584 0.58191 21.3563 1.61296 22.3873C2.64401 23.4184 4.04188 23.9984 5.5 24.0003H18.5C19.9581 23.9984 21.356 23.4184 22.387 22.3873C23.4181 21.3563 23.9981 19.9584 24 18.5003V14.5003C23.9975 13.8402 23.8084 13.1943 23.4545 12.6371C23.1006 12.0799 22.5964 11.6342 22 11.3513ZM5.5 9.0003H18.5C18.6326 9.0003 18.7598 9.05298 18.8536 9.14675C18.9473 9.24052 19 9.36769 19 9.5003V11.0003H5V9.5003C5 9.36769 5.05268 9.24052 5.14645 9.14675C5.24021 9.05298 5.36739 9.0003 5.5 9.0003ZM21 18.5003C21 19.1633 20.7366 19.7992 20.2678 20.2681C19.7989 20.7369 19.163 21.0003 18.5 21.0003H5.5C4.83696 21.0003 4.20107 20.7369 3.73223 20.2681C3.26339 19.7992 3 19.1633 3 18.5003V14.5003C3 14.3677 3.05268 14.2405 3.14645 14.1467C3.24021 14.053 3.36739 14.0003 3.5 14.0003H20.5C20.6326 14.0003 20.7598 14.053 20.8536 14.1467C20.9473 14.2405 21 14.3677 21 14.5003V18.5003Z" fill="black"/>
</g>
<defs>
<clipPath id="clip0_606_6808">
<rect width="24" height="24" fill="white"/>
</clipPath>
</defs>
</svg>
