<svg width="24" height="24" viewBox="0 0 24 24" fill="none" xmlns="http://www.w3.org/2000/svg">
<g clip-path="url(#clip0_606_6559)">
<path d="M18.589 0.00063938H5.411C3.98874 -0.0100219 2.62033 0.543881 1.60593 1.54084C0.591536 2.5378 0.013995 3.89641 0 5.31864L0 7.18264C0 7.58047 0.158035 7.962 0.43934 8.2433C0.720644 8.5246 1.10218 8.68264 1.5 8.68264C1.89782 8.68264 2.27936 8.5246 2.56066 8.2433C2.84196 7.962 3 7.58047 3 7.18264V5.31864C3.01339 4.69188 3.27467 4.09599 3.72658 3.66151C4.1785 3.22703 4.7842 2.98938 5.411 3.00064H18.589C19.2158 2.98938 19.8215 3.22703 20.2734 3.66151C20.7253 4.09599 20.9866 4.69188 21 5.31864V18.6826C20.9866 19.3094 20.7253 19.9053 20.2734 20.3398C19.8215 20.7743 19.2158 21.0119 18.589 21.0006H5.411C4.7842 21.0119 4.1785 20.7743 3.72658 20.3398C3.27467 19.9053 3.01339 19.3094 3 18.6826V16.8186C3 16.4208 2.84196 16.0393 2.56066 15.758C2.27936 15.4767 1.89782 15.3186 1.5 15.3186C1.10218 15.3186 0.720644 15.4767 0.43934 15.758C0.158035 16.0393 0 16.4208 0 16.8186L0 18.6826C0.013995 20.1049 0.591536 21.4635 1.60593 22.4604C2.62033 23.4574 3.98874 24.0113 5.411 24.0006H18.589C20.0113 24.0113 21.3797 23.4574 22.3941 22.4604C23.4085 21.4635 23.986 20.1049 24 18.6826V5.31864C23.986 3.89641 23.4085 2.5378 22.3941 1.54084C21.3797 0.543881 20.0113 -0.0100219 18.589 0.00063938Z" fill="black"/>
<path d="M3.49988 11.9994C3.49988 12.3972 3.65791 12.7788 3.93922 13.0601C4.22052 13.3414 4.60205 13.4994 4.99988 13.4994L14.9749 13.4724L11.5089 16.9384C11.2275 17.2197 11.0693 17.6012 11.0693 17.999C11.0692 18.3969 11.2271 18.7785 11.5084 19.0599C11.7896 19.3413 12.1712 19.4994 12.569 19.4995C12.9669 19.4996 13.3485 19.3417 13.6299 19.0604L18.2159 14.4744C18.5409 14.1494 18.7988 13.7635 18.9747 13.3389C19.1506 12.9142 19.2411 12.4591 19.2411 11.9994C19.2411 11.5397 19.1506 11.0846 18.9747 10.6599C18.7988 10.2353 18.5409 9.8494 18.2159 9.52439L13.6339 4.93839C13.4945 4.79913 13.3291 4.68867 13.1471 4.61332C12.9651 4.53798 12.77 4.49922 12.573 4.49927C12.376 4.49931 12.181 4.53816 11.999 4.61359C11.817 4.68902 11.6516 4.79956 11.5124 4.93889C11.2311 5.22029 11.0732 5.60189 11.0733 5.99975C11.0733 6.19675 11.1121 6.39181 11.1876 6.5738C11.263 6.75578 11.3735 6.92113 11.5129 7.06039L14.9259 10.4724L4.99988 10.4994C4.60205 10.4994 4.22052 10.6574 3.93922 10.9387C3.65791 11.22 3.49988 11.6016 3.49988 11.9994Z" fill="black"/>
</g>
<defs>
<clipPath id="clip0_606_6559">
<rect width="24" height="24" fill="white"/>
</clipPath>
</defs>
</svg>
