<svg width="24" height="24" viewBox="0 0 24 24" fill="none" xmlns="http://www.w3.org/2000/svg">
<g clip-path="url(#clip0_606_6861)">
<path d="M20.7 14.025C20.0333 13.3898 19.1478 13.0355 18.227 13.0355C17.3062 13.0355 16.4206 13.3898 15.754 14.025L15.345 14.425C12.7894 13.2596 10.7435 11.2066 9.58698 8.64701L9.97498 8.25301C10.6193 7.60068 10.9839 6.72279 10.9912 5.80592C10.9984 4.88905 10.6479 4.00548 10.014 3.34301L7.86198 1.02501C7.20275 0.394848 6.32804 0.0397806 5.4161 0.0321626C4.50417 0.0245446 3.62364 0.364949 2.95398 0.984006C2.95398 0.984006 1.88698 1.91401 1.86198 1.93801C-6.03302 10.207 13.785 30.038 22.062 22.138C22.086 22.113 23.016 21.047 23.016 21.047C23.6567 20.3781 24.0075 19.4834 23.9924 18.5574C23.9772 17.6313 23.5972 16.7486 22.935 16.101L20.7 14.025ZM20.857 18.967C20.832 18.991 19.908 20.05 19.908 20.05C14.655 24.773 -0.910022 10.127 3.94998 4.10001C3.94998 4.10001 5.00898 3.17601 5.03398 3.15101C5.11909 3.06054 5.23555 3.00601 5.35954 2.99857C5.48352 2.99113 5.60567 3.03136 5.70098 3.11101L7.85398 5.42401C7.9033 5.47008 7.94245 5.52594 7.96895 5.58801C7.99544 5.65009 8.00869 5.71701 8.00784 5.78449C8.007 5.85198 7.99207 5.91855 7.96403 5.97993C7.93598 6.04132 7.89544 6.09618 7.84498 6.14101L6.73698 7.26701C6.53245 7.47491 6.39297 7.73794 6.3356 8.02388C6.27824 8.30983 6.30547 8.6063 6.41398 8.87701C7.15916 10.8719 8.32455 12.6833 9.83114 14.1883C11.3377 15.6934 13.1503 16.8569 15.146 17.6C15.4146 17.7027 15.7072 17.7261 15.9887 17.6672C16.2703 17.6084 16.529 17.4698 16.734 17.268L17.868 16.15C18.158 15.936 18.309 15.938 18.616 16.19L20.854 18.264C20.9465 18.3576 20.9984 18.4839 20.9984 18.6155C20.9984 18.7471 20.9465 18.8734 20.854 18.967H20.857ZM15 8.00001V3.52601C15 3.32826 15.0587 3.13496 15.1686 2.97055C15.2785 2.80614 15.4346 2.678 15.6173 2.60233C15.8 2.52666 16.0011 2.50685 16.195 2.54542C16.389 2.58399 16.5671 2.6792 16.707 2.81901L17.894 4.00601L21.437 0.442006C21.7192 0.168028 22.0978 0.0158807 22.4911 0.0183399C22.8845 0.0207991 23.2611 0.177668 23.5399 0.455153C23.8187 0.732638 23.9774 1.10853 23.9817 1.50186C23.986 1.89519 23.8356 2.27447 23.563 2.55801L20.015 6.12701L21.181 7.29301C21.3208 7.43286 21.416 7.61102 21.4546 7.80497C21.4931 7.99893 21.4733 8.19996 21.3977 8.38266C21.322 8.56536 21.1938 8.72152 21.0294 8.83141C20.865 8.94129 20.6717 8.99996 20.474 9.00001H16C15.7348 9.00001 15.4804 8.89465 15.2929 8.70711C15.1053 8.51958 15 8.26522 15 8.00001Z" fill="black"/>
</g>
<defs>
<clipPath id="clip0_606_6861">
<rect width="24" height="24" fill="white"/>
</clipPath>
</defs>
</svg>
