<svg width="24" height="24" viewBox="0 0 24 24" fill="none" xmlns="http://www.w3.org/2000/svg">
<g clip-path="url(#clip0_606_6968)">
<path d="M8.47399 0C7.3862 0 6.32283 0.322569 5.41836 0.926917C4.51389 1.53126 3.80894 2.39025 3.39266 3.39524C2.97638 4.40023 2.86746 5.5061 3.07968 6.573C3.2919 7.63989 3.81572 8.6199 4.58491 9.38909C5.3541 10.1583 6.33411 10.6821 7.401 10.8943C8.46789 11.1065 9.57376 10.9976 10.5788 10.5813C11.5837 10.1651 12.4427 9.46011 13.0471 8.55564C13.6514 7.65117 13.974 6.5878 13.974 5.5C13.9724 4.0418 13.3924 2.64377 12.3613 1.61267C11.3302 0.581561 9.9322 0.00158817 8.47399 0V0ZM8.47399 8C7.97954 8 7.49619 7.85338 7.08507 7.57867C6.67395 7.30397 6.35352 6.91352 6.1643 6.45671C5.97508 5.99989 5.92557 5.49723 6.02203 5.01227C6.1185 4.52732 6.3566 4.08186 6.70623 3.73223C7.05586 3.3826 7.50132 3.1445 7.98627 3.04804C8.47122 2.95157 8.97389 3.00108 9.4307 3.1903C9.88752 3.37952 10.278 3.69995 10.5527 4.11107C10.8274 4.5222 10.974 5.00555 10.974 5.5C10.974 5.8283 10.9093 6.15339 10.7837 6.45671C10.6581 6.76002 10.4739 7.03562 10.2418 7.26777C10.0096 7.49991 9.73402 7.68406 9.4307 7.8097C9.12739 7.93534 8.8023 8 8.47399 8Z" fill="black"/>
<path d="M8.972 14.3513C9.04804 14.7417 8.96592 15.1463 8.7437 15.4762C8.52149 15.806 8.17736 16.0341 7.787 16.1103C6.4388 16.3761 5.22462 17.1015 4.35162 18.1627C3.47862 19.2239 3.00091 20.5552 3 21.9293V22.5003C3 22.8982 2.84196 23.2797 2.56066 23.561C2.27936 23.8423 1.89783 24.0003 1.5 24.0003C1.10218 24.0003 0.720644 23.8423 0.43934 23.561C0.158035 23.2797 0 22.8982 0 22.5003L0 21.9293C0.00195142 19.8594 0.722057 17.8542 2.03746 16.256C3.35287 14.6577 5.18207 13.5654 7.213 13.1653C7.40637 13.1277 7.60527 13.1285 7.79832 13.1677C7.99138 13.207 8.17481 13.2839 8.33816 13.394C8.5015 13.5041 8.64155 13.6454 8.7503 13.8096C8.85906 13.9739 8.93439 14.1579 8.972 14.3513Z" fill="black"/>
<path d="M16.9998 9.99951C15.6153 9.99951 14.2619 10.4101 13.1108 11.1792C11.9596 11.9484 11.0624 13.0416 10.5326 14.3207C10.0028 15.5998 9.86417 17.0073 10.1343 18.3651C10.4044 19.723 11.071 20.9703 12.05 21.9493C13.029 22.9282 14.2763 23.5949 15.6341 23.865C16.992 24.1351 18.3995 23.9965 19.6785 23.4667C20.9576 22.9369 22.0509 22.0396 22.82 20.8885C23.5892 19.7374 23.9998 18.384 23.9998 16.9995C23.9998 15.143 23.2623 13.3625 21.9495 12.0498C20.6368 10.737 18.8563 9.99951 16.9998 9.99951ZM20.2438 20.2445C20.1293 20.4451 19.9702 20.6165 19.7786 20.7455C19.5871 20.8745 19.3684 20.9575 19.1395 20.9881C18.9106 21.0186 18.6778 20.996 18.4591 20.9218C18.2404 20.8477 18.0418 20.724 17.8788 20.5605L15.4388 18.1205C15.2995 17.9812 15.189 17.8157 15.1137 17.6337C15.0384 17.4516 14.9997 17.2565 14.9998 17.0595V13.5595C14.9998 13.1617 15.1578 12.7802 15.4391 12.4989C15.7204 12.2175 16.1019 12.0595 16.4998 12.0595C16.8976 12.0595 17.2791 12.2175 17.5604 12.4989C17.8417 12.7802 17.9998 13.1617 17.9998 13.5595V16.4375L19.9378 18.3755C20.1867 18.6103 20.3515 18.9205 20.4068 19.2583C20.4621 19.596 20.4048 19.9426 20.2438 20.2445Z" fill="black"/>
</g>
<defs>
<clipPath id="clip0_606_6968">
<rect width="24" height="24" fill="white"/>
</clipPath>
</defs>
</svg>
