<svg width="24" height="24" viewBox="0 0 24 24" fill="none" xmlns="http://www.w3.org/2000/svg">
<g clip-path="url(#clip0_606_6942)">
<path d="M15.5609 13.561L14.1209 15L15.5609 16.439C15.8423 16.7204 16.0004 17.1021 16.0004 17.5C16.0004 17.898 15.8423 18.2796 15.5609 18.561C15.2795 18.8424 14.8979 19.0005 14.4999 19.0005C14.102 19.0005 13.7203 18.8424 13.4389 18.561L11.9999 17.121L10.5609 18.561C10.2795 18.8424 9.89789 19.0005 9.49994 19.0005C9.10199 19.0005 8.72033 18.8424 8.43894 18.561C8.15754 18.2796 7.99946 17.898 7.99946 17.5C7.99946 17.1021 8.15754 16.7204 8.43894 16.439L9.87894 15L8.43894 13.561C8.15754 13.2796 7.99946 12.898 7.99946 12.5C7.99946 12.1021 8.15754 11.7204 8.43894 11.439C8.72033 11.1576 9.10199 10.9995 9.49994 10.9995C9.89789 10.9995 10.2795 11.1576 10.5609 11.439L11.9999 12.879L13.4389 11.439C13.5783 11.2997 13.7437 11.1892 13.9257 11.1138C14.1078 11.0384 14.3029 10.9995 14.4999 10.9995C14.697 10.9995 14.8921 11.0384 15.0741 11.1138C15.2562 11.1892 15.4216 11.2997 15.5609 11.439C15.7003 11.5784 15.8108 11.7438 15.8862 11.9258C15.9616 12.1079 16.0004 12.303 16.0004 12.5C16.0004 12.6971 15.9616 12.8922 15.8862 13.0742C15.8108 13.2563 15.7003 13.4217 15.5609 13.561ZM21.9999 8.15702V18.5C21.9984 19.9582 21.4184 21.3562 20.3873 22.3874C19.3562 23.4185 17.9581 23.9984 16.4999 24H7.49994C6.04174 23.9984 4.64371 23.4185 3.61261 22.3874C2.5815 21.3562 2.00153 19.9582 1.99994 18.5V5.50002C2.00153 4.04182 2.5815 2.64379 3.61261 1.61269C4.64371 0.581581 6.04174 0.00160807 7.49994 1.99011e-05H13.8429C14.5655 -0.00193016 15.2813 0.139451 15.9488 0.415979C16.6164 0.692507 17.2224 1.09869 17.7319 1.61102L20.3889 4.26802C20.9013 4.77754 21.3075 5.38361 21.584 6.05115C21.8605 6.7187 22.0019 7.43447 21.9999 8.15702ZM18.9999 18.5V9.00002H14.9999C14.4695 9.00002 13.9608 8.78931 13.5857 8.41423C13.2107 8.03916 12.9999 7.53045 12.9999 7.00002V3.00002H7.49994C6.8369 3.00002 6.20101 3.26341 5.73217 3.73225C5.26333 4.20109 4.99994 4.83698 4.99994 5.50002V18.5C4.99994 19.1631 5.26333 19.7989 5.73217 20.2678C6.20101 20.7366 6.8369 21 7.49994 21H16.4999C17.163 21 17.7989 20.7366 18.2677 20.2678C18.7365 19.7989 18.9999 19.1631 18.9999 18.5Z" fill="black"/>
</g>
<defs>
<clipPath id="clip0_606_6942">
<rect width="24" height="24" fill="white"/>
</clipPath>
</defs>
</svg>
