<svg width="24" height="24" viewBox="0 0 24 24" fill="none" xmlns="http://www.w3.org/2000/svg">
<g clip-path="url(#clip0_606_6723)">
<path d="M11 14.9997C12.1046 14.9997 13 14.1043 13 12.9998C13 11.8952 12.1046 10.9998 11 10.9998C9.89543 10.9998 9 11.8952 9 12.9998C9 14.1043 9.89543 14.9997 11 14.9997Z" fill="black"/>
<path d="M7.56093 14.4392C7.27954 14.1578 6.89788 13.9998 6.49993 13.9998C6.10198 13.9998 5.72033 14.1578 5.43893 14.4392C5.15754 14.7206 4.99945 15.1023 4.99945 15.5002C4.99945 15.8982 5.15754 16.2798 5.43893 16.5612L7.43893 18.5612C7.57826 18.7006 7.74368 18.8111 7.92572 18.8865C8.10777 18.9619 8.30289 19.0007 8.49993 19.0007C8.69698 19.0007 8.89209 18.9619 9.07414 18.8865C9.25619 18.8111 9.4216 18.7006 9.56093 18.5612C9.70026 18.4219 9.81079 18.2565 9.88619 18.0744C9.9616 17.8924 10.0004 17.6973 10.0004 17.5002C10.0004 17.3032 9.9616 17.1081 9.88619 16.926C9.81079 16.744 9.70026 16.5786 9.56093 16.4392L7.56093 14.4392Z" fill="black"/>
<path d="M23.379 0.621039C22.9811 0.223381 22.4416 0 21.879 0C21.3165 0 20.7769 0.223381 20.379 0.621039L20.121 0.879039C19.4117 1.59054 18.8583 2.44194 18.496 3.37904L16.713 5.16604C15.5196 4.3219 14.0718 3.91465 12.6132 4.01282C11.1547 4.11099 9.77456 4.70859 8.705 5.70504C8.52922 5.8805 8.36582 6.06795 8.216 6.26604C8.07819 6.46786 7.90072 6.63951 7.69441 6.77051C7.4881 6.90152 7.25728 6.98914 7.016 7.02804C5.20377 7.15354 3.49765 7.92866 2.211 9.21104C-0.939997 12.362 -0.682997 17.747 2.785 21.211C4.50802 22.9646 6.85574 23.9639 9.314 23.99C10.3267 24.0036 11.3321 23.8161 12.2719 23.4384C13.2116 23.0608 14.0672 22.5005 14.789 21.79C16.0725 20.5021 16.8477 18.794 16.972 16.98C17.0115 16.7397 17.0995 16.5098 17.2304 16.3044C17.3614 16.099 17.5327 15.9223 17.734 15.785C17.9337 15.6367 18.1228 15.4746 18.3 15.3C19.2965 14.2305 19.8941 12.8503 19.9922 11.3918C20.0904 9.93329 19.6831 8.48549 18.839 7.29204L20.617 5.50004C21.5541 5.13778 22.4055 4.58437 23.117 3.87504L23.375 3.61704C23.7727 3.21913 23.996 2.67959 23.996 2.11704C23.996 1.55449 23.7727 1.01495 23.375 0.617039L23.379 0.621039ZM16.174 13.174C16.095 13.253 16.0109 13.3265 15.922 13.394C15.3786 13.7815 14.9242 14.2807 14.5895 14.8582C14.2547 15.4356 14.0473 16.0779 13.981 16.742C13.9103 17.8437 13.444 18.8828 12.668 19.668C10.686 21.65 7.204 21.392 4.906 19.094C2.608 16.796 2.351 13.313 4.332 11.332C5.11696 10.5563 6.15565 10.09 7.257 10.019C7.92132 9.95292 8.56383 9.74552 9.14143 9.41075C9.71904 9.07599 10.2184 8.62159 10.606 8.07804C10.6736 7.98919 10.7471 7.90499 10.826 7.82604C11.1031 7.55679 11.4309 7.34516 11.7903 7.20338C12.1497 7.0616 12.5337 6.99249 12.92 7.00004C13.4706 7.00739 14.013 7.13396 14.51 7.37104L13.439 8.44104C13.1576 8.72243 12.9995 9.10409 12.9995 9.50204C12.9995 9.69909 13.0383 9.8942 13.1137 10.0762C13.1891 10.2583 13.2997 10.4237 13.439 10.563C13.5783 10.7024 13.7437 10.8129 13.9258 10.8883C14.1078 10.9637 14.303 11.0025 14.5 11.0025C14.898 11.0025 15.2796 10.8444 15.561 10.563L16.637 9.48704C16.9474 10.0749 17.0694 10.744 16.9866 11.4035C16.9038 12.0631 16.6201 12.6812 16.174 13.174Z" fill="black"/>
</g>
<defs>
<clipPath id="clip0_606_6723">
<rect width="24" height="24" fill="white"/>
</clipPath>
</defs>
</svg>
