<svg width="24" height="24" viewBox="0 0 24 24" fill="none" xmlns="http://www.w3.org/2000/svg">
<g clip-path="url(#clip0_606_6793)">
<path d="M23.9001 11.3943C23.5072 8.3703 21.9779 5.60931 19.6227 3.67227C17.2676 1.73523 14.2634 0.767445 11.2205 0.965555C8.17752 1.16366 5.32413 2.5128 3.24005 4.73886C1.15596 6.96491 -0.00249125 9.90089 6.77014e-05 12.9503C-0.00544564 14.5779 0.325836 16.1891 0.973086 17.6826C1.62034 19.176 2.56956 20.5194 3.76107 21.6283C4.73353 22.5258 6.01283 23.0168 7.33607 23.0003H16.6581C18.0508 23.004 19.3894 22.4611 20.3861 21.4883C21.7205 20.1979 22.7336 18.6124 23.3439 16.8593C23.9542 15.1062 24.1447 13.2344 23.9001 11.3943ZM18.2931 19.3383C17.8557 19.7644 17.2687 20.0021 16.6581 20.0003H7.33607C6.77744 20.012 6.23482 19.8132 5.81607 19.4433C4.9243 18.6137 4.21379 17.6086 3.72917 16.4912C3.24455 15.3738 2.99632 14.1682 3.00007 12.9503C3.00722 10.5722 3.95767 8.29413 5.64279 6.61614C7.32791 4.93814 9.60999 3.99735 11.9881 4.00027C12.3422 4.00046 12.6961 4.02049 13.0481 4.06027C15.0299 4.29198 16.8786 5.1751 18.3043 6.57106C19.7299 7.96702 20.6517 9.7968 20.9251 11.7733C21.1082 13.1521 20.9656 14.5547 20.5087 15.8685C20.0517 17.1822 19.2933 18.3706 18.2941 19.3383H18.2931ZM9.05307 15.4853C9.32226 15.7782 9.46407 16.1661 9.44728 16.5636C9.4305 16.961 9.2565 17.3356 8.96357 17.6048C8.67064 17.874 8.28276 18.0158 7.88528 17.999C7.4878 17.9822 7.11326 17.8082 6.84407 17.5153C5.65688 16.2267 4.99851 14.5383 5.00007 12.7863C5.01088 11.0618 5.67479 9.40541 6.85809 8.15086C8.04138 6.89631 9.65613 6.13679 11.3771 6.02527C11.7737 5.99265 12.167 6.11893 12.4706 6.37632C12.7741 6.63372 12.9629 7.00114 12.9956 7.39777C13.0282 7.7944 12.9019 8.18775 12.6445 8.49128C12.3871 8.79481 12.0197 8.98365 11.6231 9.01627C10.6506 9.05916 9.73186 9.47459 9.05735 10.1765C8.38284 10.8783 8.00426 11.8128 8.00007 12.7863C7.99943 13.7863 8.37538 14.7499 9.05307 15.4853ZM18.9411 13.6933C18.7572 15.122 18.1334 16.4581 17.1561 17.5163C16.8866 17.8092 16.5118 17.9831 16.1141 17.9997C15.7165 18.0163 15.3285 17.8742 15.0356 17.6048C14.7426 17.3353 14.5687 16.9605 14.5521 16.5629C14.5356 16.1652 14.6776 15.7772 14.9471 15.4843C15.5049 14.8822 15.8615 14.1213 15.9671 13.3073C16.0276 12.9211 16.2366 12.5738 16.5495 12.3393C16.8623 12.1049 17.2543 12.0019 17.642 12.0522C18.0297 12.1025 18.3824 12.3022 18.6251 12.6087C18.8677 12.9152 18.9811 13.3044 18.9411 13.6933ZM13.9861 13.1353C13.962 13.5194 13.8276 13.8885 13.599 14.1982C13.3704 14.5079 13.0573 14.745 12.6972 14.8811C12.3372 15.0173 11.9455 15.0466 11.5692 14.9656C11.1929 14.8846 10.8479 14.6968 10.5758 14.4246C10.3036 14.1524 10.1157 13.8075 10.0347 13.4311C9.95375 13.0548 9.98308 12.6632 10.1192 12.3031C10.2553 11.9431 10.4925 11.6299 10.8021 11.4013C11.1118 11.1727 11.4809 11.0383 11.8651 11.0143L14.4391 8.43927C14.7205 8.15788 15.1021 7.99979 15.5001 7.99979C15.898 7.99979 16.2797 8.15788 16.5611 8.43927C16.8425 8.72067 17.0005 9.10232 17.0005 9.50027C17.0005 9.89823 16.8425 10.2799 16.5611 10.5613L13.9861 13.1353Z" fill="black"/>
</g>
<defs>
<clipPath id="clip0_606_6793">
<rect width="24" height="24" fill="white"/>
</clipPath>
</defs>
</svg>
