<svg width="24" height="24" viewBox="0 0 24 24" fill="none" xmlns="http://www.w3.org/2000/svg">
<g clip-path="url(#clip0_606_6494)">
<path d="M23.9899 1C23.9899 0.734784 23.8846 0.48043 23.697 0.292893C23.5095 0.105357 23.2551 0 22.9899 0L18.4209 0C18.2232 4.22243e-05 18.0299 0.0587141 17.8655 0.168598C17.701 0.278483 17.5729 0.434646 17.4972 0.617345C17.4216 0.800045 17.4018 1.00108 17.4403 1.19503C17.4789 1.38898 17.5741 1.56715 17.7139 1.707L18.9429 2.936L16.9049 4.974C15.8676 4.32867 14.6683 3.9914 13.4466 4.0015C12.225 4.01159 11.0314 4.36862 10.0049 5.031C9.20925 4.52073 8.3118 4.19028 7.37522 4.06271C6.43864 3.93514 5.48551 4.01354 4.58236 4.29242C3.67921 4.5713 2.84781 5.04395 2.14622 5.67737C1.44462 6.31079 0.889733 7.08971 0.520296 7.95975C0.150859 8.82979 -0.0242246 9.76998 0.00726843 10.7147C0.0387615 11.6594 0.276073 12.5858 0.702633 13.4293C1.12919 14.2728 1.73472 15.0131 2.47695 15.5984C3.21917 16.1837 4.0802 16.5999 4.99991 16.818V18H3.99991C3.60209 18 3.22056 18.158 2.93925 18.4393C2.65795 18.7206 2.49991 19.1022 2.49991 19.5C2.49991 19.8978 2.65795 20.2794 2.93925 20.5607C3.22056 20.842 3.60209 21 3.99991 21H4.99991V22.5C4.99991 22.8978 5.15795 23.2794 5.43925 23.5607C5.72056 23.842 6.10209 24 6.49991 24C6.89774 24 7.27927 23.842 7.56058 23.5607C7.84188 23.2794 7.99991 22.8978 7.99991 22.5V21H8.99991C9.39774 21 9.77927 20.842 10.0606 20.5607C10.3419 20.2794 10.4999 19.8978 10.4999 19.5C10.4999 19.1022 10.3419 18.7206 10.0606 18.4393C9.77927 18.158 9.39774 18 8.99991 18H7.99991V16.809C8.70915 16.6437 9.38534 16.3597 9.99991 15.969C11.2377 16.7641 12.709 17.1149 14.1724 16.9639C15.6357 16.8129 17.0044 16.1691 18.0537 15.138C19.1031 14.1069 19.7708 12.7498 19.9475 11.2893C20.1241 9.82874 19.7992 8.35155 19.0259 7.1L21.0639 5.062L22.2929 6.291C22.4332 6.43124 22.612 6.5266 22.8066 6.56494C23.0012 6.60329 23.2028 6.5829 23.3858 6.50636C23.5688 6.42982 23.7249 6.30059 23.8342 6.1351C23.9436 5.96961 24.0013 5.77535 23.9999 5.577L23.9899 1ZM2.99991 10.5C2.99756 9.92185 3.13903 9.3522 3.4116 8.84233C3.68416 8.33246 4.07926 7.89839 4.56132 7.5792C5.04338 7.26001 5.59725 7.06573 6.17307 7.01385C6.74889 6.96197 7.32857 7.05412 7.85991 7.282C7.2965 8.26089 6.99997 9.37055 6.99997 10.5C6.99997 11.6295 7.2965 12.7391 7.85991 13.718C7.32857 13.9459 6.74889 14.038 6.17307 13.9862C5.59725 13.9343 5.04338 13.74 4.56132 13.4208C4.07926 13.1016 3.68416 12.6675 3.4116 12.1577C3.13903 11.6478 2.99756 11.0781 2.99991 10.5ZM13.4999 14C12.8077 14 12.131 13.7947 11.5554 13.4101C10.9798 13.0256 10.5312 12.4789 10.2663 11.8394C10.0014 11.1999 9.93212 10.4961 10.0672 9.81718C10.2022 9.13825 10.5356 8.51461 11.025 8.02513C11.5145 7.53564 12.1382 7.2023 12.8171 7.06725C13.496 6.9322 14.1998 7.00151 14.8393 7.26642C15.4788 7.53133 16.0255 7.97993 16.4101 8.5555C16.7946 9.13108 16.9999 9.80777 16.9999 10.5C16.9999 11.4283 16.6312 12.3185 15.9748 12.9749C15.3184 13.6313 14.4282 14 13.4999 14Z" fill="black"/>
</g>
<defs>
<clipPath id="clip0_606_6494">
<rect width="24" height="24" fill="white"/>
</clipPath>
</defs>
</svg>
