<svg width="24" height="24" viewBox="0 0 24 24" fill="none" xmlns="http://www.w3.org/2000/svg">
<path d="M22.552 13.2099L20.8 6.91592C20.2349 4.88787 19.0082 3.10684 17.3149 1.85581C15.6216 0.604776 13.5588 -0.0445095 11.4542 0.0111103C9.34958 0.0667302 7.32393 0.824065 5.69906 2.16279C4.07419 3.50152 2.94329 5.34485 2.48604 7.39992L1.13204 13.4889C0.953417 14.2928 0.957594 15.1266 1.14427 15.9287C1.33094 16.7307 1.69534 17.4806 2.21058 18.1231C2.72581 18.7655 3.37874 19.284 4.12115 19.6403C4.86357 19.9967 5.67654 20.1818 6.50004 20.1819H6.90004C7.21828 21.2824 7.88548 22.2498 8.80117 22.9382C9.71686 23.6266 10.8314 23.9988 11.977 23.9988C13.1226 23.9988 14.2372 23.6266 15.1529 22.9382C16.0686 22.2498 16.7358 21.2824 17.054 20.1819H17.247C18.095 20.182 18.9314 19.9861 19.6911 19.6094C20.4508 19.2327 21.113 18.6854 21.6262 18.0104C22.1393 17.3354 22.4895 16.5508 22.6492 15.7181C22.8089 14.8853 22.774 14.0269 22.547 13.2099H22.552ZM19.243 16.1939C19.0109 16.5021 18.7101 16.7519 18.3644 16.9235C18.0188 17.095 17.6379 17.1835 17.252 17.1819H6.50004C6.12575 17.1818 5.75625 17.0977 5.41881 16.9358C5.08137 16.7738 4.78461 16.5381 4.55042 16.2462C4.31622 15.9542 4.15058 15.6133 4.0657 15.2488C3.98083 14.8843 3.9789 14.5053 4.06004 14.1399L5.41404 8.03992C5.72496 6.63599 6.49659 5.37642 7.60609 4.46171C8.71559 3.547 10.0992 3.02973 11.5367 2.99224C12.9741 2.95475 14.3828 3.3992 15.5385 4.25483C16.6941 5.11047 17.5304 6.32811 17.914 7.71392L19.662 14.0079C19.7675 14.3797 19.7845 14.771 19.7118 15.1506C19.639 15.5302 19.4785 15.8875 19.243 16.1939Z" fill="black"/>
</svg>
