<svg width="24" height="24" viewBox="0 0 24 24" fill="none" xmlns="http://www.w3.org/2000/svg">
<path d="M23 19.0925V16.0005C22.9956 13.3455 22.0316 10.7816 20.2858 8.78126C18.54 6.78094 16.13 5.47905 13.5 5.11555V4.31055C13.7528 4.02224 13.9172 3.66718 13.9734 3.28788C14.0297 2.90858 13.9754 2.5211 13.8171 2.17184C13.6589 1.82257 13.4033 1.52632 13.081 1.31853C12.7588 1.11075 12.3834 1.00024 12 1.00024C11.6165 1.00024 11.2412 1.11075 10.9189 1.31853C10.5967 1.52632 10.3411 1.82257 10.1828 2.17184C10.0246 2.5211 9.97033 2.90858 10.0266 3.28788C10.0828 3.66718 10.2472 4.02224 10.5 4.31055V5.11555C7.86997 5.47905 5.45998 6.78094 3.71417 8.78126C1.96837 10.7816 1.00442 13.3455 0.999994 16.0005V19.0925C0.670655 19.2135 0.394118 19.446 0.218479 19.7497C0.0428408 20.0534 -0.0207866 20.4091 0.0386633 20.7548C0.0981132 21.1006 0.276879 21.4146 0.543869 21.6422C0.810859 21.8698 1.14918 21.9966 1.49999 22.0005H22.5C22.8508 21.9966 23.1891 21.8698 23.4561 21.6422C23.7231 21.4146 23.9019 21.1006 23.9613 20.7548C24.0208 20.4091 23.9571 20.0534 23.7815 19.7497C23.6059 19.446 23.3293 19.2135 23 19.0925ZM12 8.00055C14.121 8.00293 16.1544 8.84655 17.6542 10.3463C19.154 11.8461 19.9976 13.8795 20 16.0005V19.0005H3.99999V16.0005C4.00238 13.8795 4.84599 11.8461 6.34577 10.3463C7.84554 8.84655 9.87899 8.00293 12 8.00055Z" fill="black"/>
</svg>
