<svg width="24" height="24" viewBox="0 0 24 24" fill="none" xmlns="http://www.w3.org/2000/svg">
<path d="M17.0609 9.52488L13.4749 5.93888C13.1935 5.65762 12.8119 5.49966 12.414 5.49976C12.0162 5.49985 11.6346 5.65799 11.3534 5.93938C11.0721 6.22078 10.9142 6.60238 10.9143 7.00024C10.9143 7.39809 11.0725 7.77962 11.3539 8.06088L13.7929 10.4999H4.99988C4.60205 10.4999 4.22052 10.6579 3.93922 10.9392C3.65791 11.2205 3.49988 11.6021 3.49988 11.9999C3.49988 12.3977 3.65791 12.7792 3.93922 13.0605C4.22052 13.3418 4.60205 13.4999 4.99988 13.4999H13.7929L11.3539 15.9389C11.0725 16.2201 10.9143 16.6017 10.9143 16.9995C10.9142 17.3974 11.0721 17.779 11.3534 18.0604C11.6346 18.3418 12.0162 18.4999 12.414 18.5C12.8119 18.5001 13.1935 18.3421 13.4749 18.0609L17.0609 14.4749C17.7161 13.8178 18.0841 12.9278 18.0841 11.9999C18.0841 11.072 17.7161 10.1819 17.0609 9.52488Z" fill="black"/>
</svg>
