<svg width="24" height="24" viewBox="0 0 24 24" fill="none" xmlns="http://www.w3.org/2000/svg">
<g clip-path="url(#clip0_606_6657)">
<path d="M20.469 1.14629L20.438 1.13529L17.847 0.272286C16.8445 -0.0610646 15.7656 -0.0892558 14.747 0.191286L9.44 1.73429C8.91369 1.87751 8.35369 1.83005 7.859 1.60029L7.359 1.37029C6.55122 1.03456 5.67309 0.903277 4.80244 0.988083C3.93178 1.07289 3.0955 1.37116 2.36769 1.85647C1.63988 2.34177 1.04302 2.99912 0.630019 3.77026C0.217015 4.5414 0.00061638 5.40251 0 6.27729L0 17.8003C0.00231329 18.9487 0.375654 20.0657 1.06439 20.9848C1.75312 21.9038 2.72037 22.5757 3.822 22.9003L6.562 23.7573C7.07541 23.9177 7.61011 23.9996 8.148 24.0003C8.62579 23.9907 9.1009 23.9263 9.564 23.8083L15.1 22.2803C15.5093 22.1683 15.9416 22.1718 16.349 22.2903L18.608 22.9413C19.25 23.0971 19.9189 23.1051 20.5644 22.9647C21.2099 22.8243 21.8151 22.5391 22.3343 22.1307C22.8535 21.7223 23.2732 21.2014 23.5618 20.6071C23.8503 20.0129 24.0002 19.3609 24 18.7003V6.15429C23.9984 5.05762 23.6584 3.98817 23.0265 3.09189C22.3945 2.19561 21.5014 1.51616 20.469 1.14629ZM14 3.53429V19.4703L10 20.5753V4.66829L14 3.53429ZM4.682 20.0273C4.19848 19.888 3.77317 19.5956 3.4699 19.1941C3.16663 18.7925 3.00175 18.3035 3 17.8003V6.27729C2.99697 5.8951 3.08985 5.51826 3.27014 5.18125C3.45043 4.84425 3.71238 4.55786 4.032 4.34829C4.41609 4.08901 4.86859 3.94978 5.332 3.94829C5.61432 3.9476 5.894 4.00265 6.155 4.11029L7 4.46429V20.7523L4.682 20.0273ZM21 18.7003C20.9998 18.9016 20.9551 19.1003 20.8692 19.2823C20.7833 19.4643 20.6583 19.6251 20.5031 19.7532C20.3478 19.8813 20.1662 19.9735 19.9712 20.0233C19.7762 20.0731 19.5726 20.0793 19.375 20.0413L17 19.3703V3.15329L19.475 3.97629C19.9215 4.13962 20.3072 4.43604 20.5799 4.82553C20.8526 5.21502 20.9993 5.67881 21 6.15429V18.7003Z" fill="black"/>
</g>
<defs>
<clipPath id="clip0_606_6657">
<rect width="24" height="24" fill="white"/>
</clipPath>
</defs>
</svg>
