<svg width="24" height="24" viewBox="0 0 24 24" fill="none" xmlns="http://www.w3.org/2000/svg">
<path d="M8 4.00024H4C2.93913 4.00024 1.92172 4.42167 1.17157 5.17182C0.421427 5.92196 0 6.93938 0 8.00024L0 12.0002C0 12.5307 0.210714 13.0394 0.585786 13.4145C0.960859 13.7895 1.46957 14.0002 2 14.0002H7C6.99841 15.3258 6.47112 16.5967 5.53378 17.534C4.59644 18.4714 3.32559 18.9987 2 19.0002C1.60218 19.0002 1.22064 19.1583 0.93934 19.4396C0.658035 19.7209 0.5 20.1024 0.5 20.5002C0.5 20.8981 0.658035 21.2796 0.93934 21.5609C1.22064 21.8422 1.60218 22.0002 2 22.0002C4.121 21.9979 6.15445 21.1542 7.65422 19.6545C9.154 18.1547 9.99762 16.1212 10 14.0002V6.00024C10 5.46981 9.78929 4.9611 9.41421 4.58603C9.03914 4.21096 8.53043 4.00024 8 4.00024Z" fill="black"/>
<path d="M21.9999 4.00024H17.9999C16.939 4.00024 15.9216 4.42167 15.1714 5.17182C14.4213 5.92196 13.9999 6.93938 13.9999 8.00024V12.0002C13.9999 12.5307 14.2106 13.0394 14.5857 13.4145C14.9607 13.7895 15.4694 14.0002 15.9999 14.0002H20.9999C20.9983 15.3258 20.471 16.5967 19.5336 17.534C18.5963 18.4714 17.3255 18.9987 15.9999 19.0002C15.602 19.0002 15.2205 19.1583 14.9392 19.4396C14.6579 19.7209 14.4999 20.1024 14.4999 20.5002C14.4999 20.8981 14.6579 21.2796 14.9392 21.5609C15.2205 21.8422 15.602 22.0002 15.9999 22.0002C18.1209 21.9979 20.1543 21.1542 21.6541 19.6545C23.1538 18.1547 23.9975 16.1212 23.9998 14.0002V6.00024C23.9998 5.46981 23.7891 4.9611 23.4141 4.58603C23.039 4.21096 22.5303 4.00024 21.9999 4.00024Z" fill="black"/>
</svg>
