<svg width="24" height="24" viewBox="0 0 24 24" fill="none" xmlns="http://www.w3.org/2000/svg">
<g clip-path="url(#clip0_606_6888)">
<path d="M9.50009 7.99992C9.79676 7.99992 10.0868 8.08789 10.3334 8.25272C10.5801 8.41754 10.7724 8.65181 10.8859 8.9259C10.9994 9.19999 11.0291 9.50159 10.9713 9.79256C10.9134 10.0835 10.7705 10.3508 10.5607 10.5606C10.351 10.7704 10.0837 10.9132 9.79272 10.9711C9.50175 11.029 9.20015 10.9993 8.92606 10.8857C8.65197 10.7722 8.4177 10.58 8.25288 10.3333C8.08806 10.0866 8.00009 9.79659 8.00009 9.49992C8.00009 9.1021 8.15812 8.72057 8.43943 8.43926C8.72073 8.15796 9.10226 7.99992 9.50009 7.99992ZM20.5001 6.99992C19.6022 7.03307 18.7515 7.41022 18.1241 8.05329C17.4966 8.69636 17.1405 9.5561 17.1295 10.4545C17.1184 11.3529 17.4533 12.2211 18.0647 12.8794C18.6761 13.5377 19.5173 13.9357 20.4141 13.9909C19.1641 17.5759 15.9681 20.1909 11.5691 20.9909C11.5016 21.0036 11.4321 21.0008 11.3659 20.9826C11.2997 20.9644 11.2386 20.9313 11.1871 20.8859C11.1279 20.8375 11.0804 20.7764 11.0481 20.7072C11.0157 20.638 10.9993 20.5623 11.0001 20.4859V18.8709C13.0631 18.5505 14.9605 17.5515 16.3921 16.0319C16.5275 15.8888 16.6335 15.7205 16.7039 15.5365C16.7743 15.3524 16.8077 15.1564 16.8024 14.9594C16.797 14.7625 16.7528 14.5685 16.6725 14.3886C16.5922 14.2087 16.4772 14.0464 16.3341 13.9109C16.191 13.7755 16.0227 13.6695 15.8386 13.5991C15.6546 13.5287 15.4585 13.4953 15.2616 13.5006C15.0646 13.506 14.8707 13.5502 14.6908 13.6305C14.5109 13.7109 14.3485 13.8258 14.2131 13.9689C13.609 14.6129 12.8788 15.1255 12.068 15.4749C11.2571 15.8243 10.383 16.003 9.50009 15.9999C8.38561 16.001 7.28958 15.7155 6.31727 15.1708C5.34495 14.6261 4.52901 13.8406 3.94781 12.8897C3.36661 11.9388 3.03967 10.8544 2.99839 9.74067C2.95711 8.62695 3.20288 7.52134 3.7121 6.53C4.22132 5.53866 4.97688 4.6949 5.90621 4.07976C6.83554 3.46461 7.90742 3.09875 9.01892 3.0173C10.1304 2.93586 11.2442 3.14157 12.2533 3.61468C13.2623 4.08779 14.1328 4.8124 14.7811 5.71892C14.8951 5.88086 15.0401 6.01861 15.2076 6.12423C15.3752 6.22984 15.562 6.30123 15.7573 6.33427C15.9525 6.36732 16.1524 6.36136 16.3454 6.31675C16.5384 6.27213 16.7206 6.18975 16.8816 6.07434C17.0425 5.95894 17.179 5.8128 17.2832 5.64436C17.3874 5.47592 17.4572 5.28851 17.4886 5.09296C17.52 4.8974 17.5123 4.69757 17.466 4.50499C17.4198 4.31241 17.3359 4.13089 17.2191 3.97092C16.3099 2.69595 15.0997 1.6655 13.6961 0.97125C12.2924 0.276999 10.739 -0.0595168 9.17387 -0.0083553C7.60878 0.0428062 6.08061 0.480059 4.72532 1.2645C3.37004 2.04893 2.22968 3.15623 1.40572 4.48785C0.581756 5.81947 0.0997415 7.33412 0.00256488 8.89703C-0.0946118 10.4599 0.196063 12.0226 0.848726 13.4461C1.50139 14.8695 2.4958 16.1095 3.74347 17.0558C4.99114 18.0021 6.45339 18.6253 8.00009 18.8699V20.4899C7.99968 21.0053 8.11281 21.5144 8.33145 21.981C8.55009 22.4477 8.86886 22.8604 9.26509 23.1899C9.88775 23.7123 10.6743 23.999 11.4871 23.9999C11.6943 23.9996 11.9011 23.9809 12.1051 23.9439C19.2201 22.6519 24.0001 17.2499 24.0001 10.4999C23.9935 9.57369 23.6227 8.68725 22.9677 8.03228C22.3128 7.37732 21.4263 7.00647 20.5001 6.99992Z" fill="black"/>
</g>
<defs>
<clipPath id="clip0_606_6888">
<rect width="24" height="24" fill="white"/>
</clipPath>
</defs>
</svg>
