<svg width="24" height="24" viewBox="0 0 24 24" fill="none" xmlns="http://www.w3.org/2000/svg">
<g clip-path="url(#clip0_606_6961)">
<path d="M23.654 5.24923C23.2908 4.75228 22.8301 4.33459 22.3 4.02167C21.7699 3.70875 21.1816 3.50717 20.571 3.42923C20.4931 2.81864 20.2915 2.23034 19.9786 1.70026C19.6657 1.17019 19.248 0.709467 18.751 0.346233C18.4962 0.154442 18.1929 0.0373922 17.8753 0.00819164C17.5577 -0.0210089 17.2382 0.0387932 16.9526 0.180901C16.6671 0.323008 16.4267 0.541809 16.2585 0.812798C16.0902 1.08379 16.0007 1.39626 16 1.71523V7.00023H15.5C13.9918 6.99397 12.486 7.12079 11 7.37923V7.20023C11.0024 6.88486 10.9362 6.57273 10.8061 6.28543C10.676 5.99813 10.4851 5.74252 10.2465 5.53626C10.0079 5.33 9.72736 5.17802 9.42427 5.09082C9.12118 5.00363 8.80277 4.98329 8.49104 5.03123C6.97292 5.32059 5.60012 6.12228 4.60212 7.3023C3.60412 8.48231 3.04141 9.96914 3.00804 11.5142C1.17582 13.7514 0.122637 16.5248 0.00804511 19.4142C-0.0347647 20.028 0.0553747 20.6437 0.272309 21.2195C0.489242 21.7952 0.827862 22.3173 1.26505 22.7502C1.64738 23.1598 2.11283 23.483 2.63023 23.6981C3.14763 23.9131 3.70502 24.0151 4.26505 23.9972C8.46504 23.6722 13.036 22.0742 15.389 16.9972H16.723C19.207 17.0742 20.006 13.1212 17.197 12.9972H16.61C16.8742 11.5129 17.0047 10.0079 17 8.50023V8.00023H22.285C22.604 7.99954 22.9165 7.91006 23.1875 7.74181C23.4585 7.57357 23.6773 7.33321 23.8194 7.04764C23.9615 6.76208 24.0213 6.44259 23.9921 6.12496C23.9629 5.80733 23.8458 5.5041 23.654 5.24923ZM4.50005 21.0002C4.10222 21.0002 3.72069 20.8422 3.43938 20.5609C3.15808 20.2796 3.00005 19.8981 3.00005 19.5002C3.00005 19.1024 3.15808 18.7209 3.43938 18.4396C3.72069 18.1583 4.10222 18.0002 4.50005 18.0002C4.89787 18.0002 5.2794 18.1583 5.56071 18.4396C5.84201 18.7209 6.00005 19.1024 6.00005 19.5002C6.00005 19.8981 5.84201 20.2796 5.56071 20.5609C5.2794 20.8422 4.89787 21.0002 4.50005 21.0002ZM9.30005 19.5722C8.8461 18.4767 8.18014 17.4817 7.34044 16.6444C6.50073 15.8071 5.50384 15.144 4.40705 14.6932C6.08905 11.8472 9.24905 10.3092 13.956 10.0422C13.689 14.7282 12.15 17.8812 9.30005 19.5722Z" fill="black"/>
</g>
<defs>
<clipPath id="clip0_606_6961">
<rect width="24" height="24" fill="white"/>
</clipPath>
</defs>
</svg>
