<svg width="24" height="24" viewBox="0 0 24 24" fill="none" xmlns="http://www.w3.org/2000/svg">
<g clip-path="url(#clip0_606_6859)">
<path d="M20.6997 14.025C20.0331 13.3898 19.1476 13.0355 18.2267 13.0355C17.3059 13.0355 16.4204 13.3898 15.7537 14.025L15.3447 14.425C12.7888 13.2598 10.7425 11.2068 9.58575 8.647L9.97475 8.253C10.6191 7.60068 10.9837 6.72279 10.9909 5.80592C10.9982 4.88905 10.6477 4.00548 10.0138 3.343L7.86076 1.025C7.21159 0.376101 6.33349 0.00818426 5.41565 0.000515313C4.49781 -0.00715363 3.61368 0.346039 2.95376 0.984C2.95376 0.984 1.88776 1.914 1.86276 1.938C-6.03723 10.206 13.7847 30.038 22.0627 22.138C22.0867 22.113 23.0167 21.047 23.0167 21.047C23.6574 20.3781 24.0083 19.4834 23.9931 18.5573C23.978 17.6313 23.598 16.7485 22.9357 16.101L20.6997 14.025ZM20.8567 18.967C20.8317 18.991 19.9077 20.05 19.9077 20.05C14.6547 24.774 -0.911234 10.126 3.94976 4.1C3.94976 4.1 5.00876 3.176 5.03276 3.151C5.11948 3.06296 5.23573 3.01016 5.35908 3.00277C5.48243 2.99539 5.60415 3.03394 5.70076 3.111L7.85376 5.424C7.90305 5.46999 7.94219 5.52576 7.96868 5.58775C7.99516 5.64974 8.0084 5.71658 8.00756 5.78399C8.00671 5.8514 7.99179 5.91788 7.96376 5.97919C7.93572 6.04049 7.89519 6.09527 7.84476 6.14L6.73576 7.266C6.5312 7.4741 6.39179 7.73735 6.3346 8.0235C6.2774 8.30964 6.30491 8.60626 6.41376 8.877C7.15894 10.8719 8.32433 12.6833 9.83092 14.1883C11.3375 15.6934 13.1501 16.8569 15.1457 17.6C15.4144 17.7027 15.707 17.7261 15.9885 17.6672C16.2701 17.6083 16.5287 17.4698 16.7337 17.268L17.8677 16.15C18.1577 15.936 18.3087 15.938 18.6157 16.19L20.8537 18.264C20.9463 18.3576 20.9981 18.4839 20.9981 18.6155C20.9981 18.7471 20.9463 18.8734 20.8537 18.967H20.8567ZM23.9997 1V5.474C23.9997 5.67175 23.941 5.86505 23.8311 6.02946C23.7213 6.19387 23.5651 6.32201 23.3824 6.39768C23.1997 6.47335 22.9987 6.49315 22.8047 6.45458C22.6108 6.41602 22.4326 6.32081 22.2927 6.181L21.1267 5.015L17.5577 8.563C17.2742 8.83564 16.8949 8.986 16.5016 8.98169C16.1083 8.97738 15.7324 8.81873 15.4549 8.53994C15.1774 8.26114 15.0205 7.8845 15.0181 7.49116C15.0156 7.09782 15.1678 6.71924 15.4417 6.437L19.0057 2.894L17.8187 1.707C17.6789 1.56715 17.5837 1.38898 17.5452 1.19503C17.5066 1.00108 17.5264 0.800045 17.6021 0.617345C17.6777 0.434646 17.8059 0.278483 17.9703 0.168598C18.1347 0.0587141 18.328 4.22243e-05 18.5257 0L22.9997 0C23.265 0 23.5193 0.105357 23.7068 0.292893C23.8944 0.48043 23.9997 0.734784 23.9997 1Z" fill="black"/>
</g>
<defs>
<clipPath id="clip0_606_6859">
<rect width="24" height="24" fill="white"/>
</clipPath>
</defs>
</svg>
