<svg width="24" height="24" viewBox="0 0 24 24" fill="none" xmlns="http://www.w3.org/2000/svg">
<g clip-path="url(#clip0_606_6914)">
<path d="M6.5 12.9995H1.5C1.10218 12.9995 0.720644 12.8415 0.43934 12.5602C0.158035 12.2789 0 11.8973 0 11.4995C0 11.1017 0.158035 10.7202 0.43934 10.4389C0.720644 10.1575 1.10218 9.99951 1.5 9.99951H6.5C6.89782 9.99951 7.27936 10.1575 7.56066 10.4389C7.84196 10.7202 8 11.1017 8 11.4995C8 11.8973 7.84196 12.2789 7.56066 12.5602C7.27936 12.8415 6.89782 12.9995 6.5 12.9995Z" fill="black"/>
<path d="M18.5001 13.0007H11.5001C11.1023 13.0007 10.7208 12.8427 10.4395 12.5614C10.1582 12.28 10.0001 11.8985 10.0001 11.5007C10.0001 11.1029 10.1582 10.7213 10.4395 10.44C10.7208 10.1587 11.1023 10.0007 11.5001 10.0007H18.5001C18.8311 10.0007 19.1589 9.93501 19.4643 9.80738C19.7697 9.67974 20.0467 9.49273 20.2793 9.25718C20.5119 9.02164 20.6953 8.74225 20.8191 8.43523C20.9428 8.12821 21.0044 7.79968 21.0001 7.46869C20.9875 7.00462 20.8163 6.55887 20.515 6.2057C20.2136 5.85252 19.8004 5.61324 19.3441 5.52769C19.0565 5.47747 18.7613 5.49084 18.4794 5.56687C18.1975 5.6429 17.9356 5.77974 17.7122 5.96778C17.4888 6.15581 17.3093 6.39049 17.1863 6.65532C17.0632 6.92014 16.9997 7.20869 17.0001 7.50069C17.0001 7.89852 16.8421 8.28005 16.5608 8.56135C16.2795 8.84266 15.8979 9.00069 15.5001 9.00069C12.7331 8.68269 14.3221 4.77569 15.7601 3.69269C16.4828 3.07773 17.3654 2.68109 18.3051 2.5491C19.2448 2.41711 20.2026 2.55523 21.0667 2.94732C21.9307 3.3394 22.6654 3.96927 23.1849 4.76335C23.7043 5.55742 23.9871 6.4829 24.0001 7.43169C24.0093 8.15975 23.8737 8.88237 23.6014 9.55765C23.3291 10.2329 22.9254 10.8474 22.4138 11.3655C21.9022 11.8835 21.2928 12.2948 20.6209 12.5755C19.9491 12.8562 19.2282 13.0007 18.5001 13.0007Z" fill="black"/>
<path d="M7 7.99964H1.5C1.10218 7.99964 0.720644 7.84161 0.43934 7.5603C0.158035 7.279 0 6.89747 0 6.49964C0 6.10182 0.158035 5.72029 0.43934 5.43898C0.720644 5.15768 1.10218 4.99964 1.5 4.99964H7C7.2405 5.01008 7.47748 4.93905 7.67258 4.79803C7.86768 4.65702 8.00947 4.45428 8.075 4.22264C8.10332 4.07941 8.09935 3.93166 8.06337 3.79016C8.02738 3.64865 7.9603 3.51695 7.867 3.40464C7.75293 3.29592 7.61787 3.21163 7.47008 3.15693C7.3223 3.10222 7.16491 3.07825 7.00754 3.08649C6.85017 3.09473 6.69614 3.135 6.55488 3.20484C6.41362 3.27467 6.2881 3.37261 6.186 3.49264C6.0627 3.64843 5.90969 3.77818 5.73583 3.87434C5.56198 3.97051 5.37075 4.03118 5.17326 4.05283C4.97577 4.07448 4.77594 4.05668 4.58538 4.00047C4.39482 3.94425 4.21733 3.85074 4.06321 3.72537C3.90909 3.59999 3.78141 3.44525 3.68758 3.27012C3.59376 3.09499 3.53566 2.90297 3.51667 2.7052C3.49767 2.50743 3.51815 2.30786 3.57691 2.11808C3.63568 1.92829 3.73157 1.75207 3.859 1.59964C4.2377 1.13322 4.71371 0.755147 5.25375 0.491867C5.7938 0.228587 6.38483 0.0864529 6.98553 0.0754046C7.58623 0.0643564 8.1821 0.18466 8.73145 0.427904C9.28081 0.671147 9.77041 1.03146 10.166 1.48364C10.5404 1.9332 10.8114 2.45963 10.9597 3.0256C11.108 3.59157 11.1299 4.18324 11.024 4.75864C10.8391 5.68464 10.335 6.51633 9.59955 7.10864C8.86414 7.70095 7.94413 8.01628 7 7.99964Z" fill="black"/>
<path d="M15.585 24.0069C14.8761 24.0048 14.1763 23.8468 13.5354 23.544C12.8944 23.2412 12.3279 22.8011 11.876 22.2549C11.7512 22.1024 11.6578 21.9268 11.6009 21.7381C11.544 21.5494 11.5248 21.3514 11.5444 21.1553C11.5641 20.9593 11.6221 20.769 11.7153 20.5954C11.8085 20.4217 11.935 20.2682 12.0875 20.1434C12.24 20.0186 12.4156 19.9252 12.6043 19.8683C12.793 19.8114 12.991 19.7922 13.1871 19.8118C13.583 19.8515 13.947 20.0469 14.199 20.3549C14.3538 20.5368 14.5444 20.6848 14.759 20.7896C14.9735 20.8944 15.2074 20.9539 15.446 20.9642C15.6846 20.9745 15.9228 20.9355 16.1456 20.8496C16.3684 20.7637 16.5711 20.6327 16.741 20.4649C16.8847 20.2927 16.9882 20.0906 17.0439 19.8733C17.0996 19.656 17.1061 19.429 17.063 19.2089C16.9724 18.8512 16.7613 18.5357 16.4654 18.3153C16.1694 18.095 15.8066 17.9832 15.438 17.9989H1.5C1.10218 17.9989 0.720644 17.8409 0.43934 17.5596C0.158035 17.2783 0 16.8967 0 16.4989C0 16.1011 0.158035 15.7196 0.43934 15.4383C0.720644 15.1569 1.10218 14.9989 1.5 14.9989H15.438C16.5111 14.978 17.5574 15.335 18.394 16.0073C19.2306 16.6796 19.8044 17.6245 20.015 18.6769C20.136 19.3273 20.1123 19.9963 19.9455 20.6365C19.7788 21.2767 19.4732 21.8723 19.0503 22.3811C18.6275 22.8899 18.0978 23.2993 17.4989 23.5802C16.9 23.8612 16.2465 24.0069 15.585 24.0069Z" fill="black"/>
</g>
<defs>
<clipPath id="clip0_606_6914">
<rect width="24" height="24" fill="white"/>
</clipPath>
</defs>
</svg>
