<svg width="24" height="24" viewBox="0 0 24 24" fill="none" xmlns="http://www.w3.org/2000/svg">
<g clip-path="url(#clip0_606_6857)">
<path d="M5.32384 23.9819H18.6808C19.577 23.9825 20.4587 23.7561 21.2439 23.3241C22.029 22.892 22.692 22.2683 23.1712 21.5109C23.6503 20.7536 23.93 19.8873 23.9841 18.9928C24.0383 18.0982 23.8651 17.2045 23.4808 16.3949L16.8198 3.09495C16.3976 2.17278 15.7182 1.39204 14.8633 0.846422C14.0083 0.300803 13.0141 0.0134846 11.9998 0.0189469C10.993 0.0113857 10.0052 0.293463 9.15415 0.831565C8.30311 1.36967 7.62473 2.1411 7.19984 3.05395L0.499837 16.4339C0.123778 17.2437 -0.042071 18.1352 0.0176221 19.026C0.0773151 19.9169 0.360623 20.7783 0.841358 21.5306C1.32209 22.283 1.98474 22.902 2.76804 23.3304C3.55134 23.7589 4.43001 23.983 5.32284 23.9819H5.32384ZM3.21384 17.7159L9.89984 4.35795C10.0882 3.95446 10.3887 3.61368 10.7654 3.37624C11.1421 3.1388 11.5791 3.01474 12.0244 3.01885C12.4696 3.02297 12.9043 3.15508 13.2766 3.39943C13.6488 3.64378 13.943 3.99005 14.1238 4.39695L20.7858 17.6969C20.9494 18.0494 21.0215 18.4374 20.9954 18.8251C20.9694 19.2128 20.8459 19.5876 20.6366 19.915C20.4273 20.2423 20.1388 20.5116 19.7978 20.6979C19.4568 20.8843 19.0744 20.9816 18.6858 20.9809H16.6588L13.7068 15.0859C13.5555 14.7611 13.3146 14.4862 13.0124 14.2936C12.7101 14.1009 12.3592 13.9986 12.0008 13.9986C11.6425 13.9986 11.2915 14.1009 10.9893 14.2936C10.6871 14.4862 10.4462 14.7611 10.2948 15.0859L7.34484 20.9859H5.32384C4.93681 20.9869 4.55574 20.8906 4.21561 20.7059C3.87547 20.5213 3.58717 20.2541 3.37714 19.929C3.16712 19.6039 3.0421 19.2313 3.01357 18.8453C2.98504 18.4594 3.0539 18.0724 3.21384 17.7199V17.7159Z" fill="black"/>
</g>
<defs>
<clipPath id="clip0_606_6857">
<rect width="24" height="24" fill="white"/>
</clipPath>
</defs>
</svg>
