<svg width="24" height="24" viewBox="0 0 24 24" fill="none" xmlns="http://www.w3.org/2000/svg">
<g clip-path="url(#clip0_606_6683)">
<path d="M21.468 19.3461C23.1087 17.2489 24.0001 14.6628 24.0001 12.0001C24.0001 9.33737 23.1087 6.75129 21.468 4.65409L23.061 3.06109C23.3424 2.7797 23.5005 2.39804 23.5005 2.00009C23.5005 1.60214 23.3424 1.22049 23.061 0.939092C22.9216 0.79976 22.7562 0.689235 22.5742 0.613829C22.3921 0.538423 22.197 0.499612 22 0.499612C21.602 0.499612 21.2204 0.657698 20.939 0.939092L19.346 2.53209C17.2488 0.891397 14.6627 0 12 0C9.33725 0 6.75116 0.891397 4.65397 2.53209L3.06097 0.939092C2.77958 0.657698 2.39792 0.499612 1.99997 0.499612C1.60202 0.499612 1.22036 0.657698 0.93897 0.939092C0.657575 1.22049 0.49949 1.60214 0.49949 2.00009C0.49949 2.39804 0.657575 2.7797 0.93897 3.06109L2.53197 4.65409C0.891275 6.75129 -0.00012207 9.33737 -0.00012207 12.0001C-0.00012207 14.6628 0.891275 17.2489 2.53197 19.3461L0.93897 20.9391C0.657575 21.2205 0.49949 21.6021 0.49949 22.0001C0.49949 22.398 0.657575 22.7797 0.93897 23.0611C1.22036 23.3425 1.60202 23.5006 1.99997 23.5006C2.39792 23.5006 2.77958 23.3425 3.06097 23.0611L4.65397 21.4681C6.75116 23.1088 9.33725 24.0002 12 24.0002C14.6627 24.0002 17.2488 23.1088 19.346 21.4681L20.939 23.0611C21.2204 23.3425 21.602 23.5006 22 23.5006C22.3979 23.5006 22.7796 23.3425 23.061 23.0611C23.3424 22.7797 23.5005 22.398 23.5005 22.0001C23.5005 21.6021 23.3424 21.2205 23.061 20.9391L21.468 19.3461ZM21 12.0001C20.9999 13.8674 20.4152 15.6879 19.328 17.2061L16.65 14.5291C17.0878 13.7581 17.318 12.8867 17.318 12.0001C17.318 11.1135 17.0878 10.242 16.65 9.47109L19.328 6.79409C20.4152 8.31228 20.9999 10.1327 21 12.0001ZM9.68197 12.0001C9.68197 11.5416 9.81792 11.0935 10.0726 10.7123C10.3273 10.3311 10.6894 10.034 11.1129 9.85854C11.5365 9.6831 12.0025 9.63719 12.4522 9.72663C12.9018 9.81607 13.3149 10.0368 13.639 10.361C13.9632 10.6852 14.184 11.0982 14.2734 11.5479C14.3629 11.9975 14.317 12.4636 14.1415 12.8872C13.9661 13.3107 13.669 13.6727 13.2878 13.9274C12.9066 14.1821 12.4584 14.3181 12 14.3181C11.3854 14.3173 10.7963 14.0728 10.3618 13.6383C9.92724 13.2038 9.68276 12.6146 9.68197 12.0001ZM12 3.00009C13.8673 3.00017 15.6878 3.58485 17.206 4.67209L14.529 7.35009C13.758 6.91224 12.8866 6.68205 12 6.68205C11.1134 6.68205 10.2419 6.91224 9.47097 7.35009L6.79397 4.67209C8.31215 3.58485 10.1326 3.00017 12 3.00009ZM2.99997 12.0001C3.00005 10.1327 3.58473 8.31228 4.67197 6.79409L7.34997 9.47109C6.91212 10.242 6.68192 11.1135 6.68192 12.0001C6.68192 12.8867 6.91212 13.7581 7.34997 14.5291L4.67197 17.2061C3.58473 15.6879 3.00005 13.8674 2.99997 12.0001ZM12 21.0001C10.1326 21 8.31215 20.4153 6.79397 19.3281L9.47097 16.6501C10.2419 17.0879 11.1134 17.3181 12 17.3181C12.8866 17.3181 13.758 17.0879 14.529 16.6501L17.206 19.3281C15.6878 20.4153 13.8673 21 12 21.0001Z" fill="black"/>
</g>
<defs>
<clipPath id="clip0_606_6683">
<rect width="24" height="24" fill="white"/>
</clipPath>
</defs>
</svg>
