<svg width="24" height="24" viewBox="0 0 24 24" fill="none" xmlns="http://www.w3.org/2000/svg">
<path d="M18.682 4.99951H16.815C16.5237 3.85817 15.8615 2.84594 14.9324 2.12191C14.0033 1.39787 12.8599 1.00306 11.682 0.999512H5.318C3.90807 1.0011 2.55633 1.5619 1.55936 2.55887C0.562386 3.55585 0.00158806 4.90758 0 6.31751L0 15.6365C0.00329542 16.5554 0.297208 17.4496 0.839667 18.1913C1.38213 18.933 2.14532 19.484 3.02 19.7655C3.014 19.8435 3 19.9195 3 19.9995C3 20.7952 3.31607 21.5582 3.87868 22.1208C4.44129 22.6834 5.20435 22.9995 6 22.9995C6.79565 22.9995 7.55871 22.6834 8.12132 22.1208C8.68393 21.5582 9 20.7952 9 19.9995H15C15 20.7952 15.3161 21.5582 15.8787 22.1208C16.4413 22.6834 17.2044 22.9995 18 22.9995C18.7956 22.9995 19.5587 22.6834 20.1213 22.1208C20.6839 21.5582 21 20.7952 21 19.9995C21 19.9195 20.986 19.8445 20.98 19.7665C21.8548 19.4848 22.618 18.9336 23.1604 18.1918C23.7029 17.4499 23.9968 16.5555 24 15.6365V10.2715C23.9926 8.8676 23.4285 7.52398 22.4314 6.53557C21.4344 5.54716 20.0859 4.99472 18.682 4.99951ZM21 10.2715V10.9995H17V7.99951H18.682C18.9842 7.99326 19.2847 8.04741 19.5657 8.15879C19.8468 8.27018 20.1028 8.43656 20.3187 8.64817C20.5346 8.85979 20.706 9.11238 20.823 9.39113C20.94 9.66989 21.0002 9.9692 21 10.2715ZM4.364 16.9995C4.0025 16.9992 3.65587 16.8556 3.40015 16.6001C3.14444 16.3445 3.00053 15.998 3 15.6365V6.31751C3.00079 5.70298 3.24527 5.11385 3.6798 4.67932C4.11434 4.24478 4.70347 4.00031 5.318 3.99951H11.682C12.2965 4.00031 12.8857 4.24478 13.3202 4.67932C13.7547 5.11385 13.9992 5.70298 14 6.31751V16.9995H4.364ZM19.637 16.9995H17V13.9995H21V15.6365C20.9997 15.9979 20.856 16.3445 20.6005 16.6C20.3449 16.8556 19.9984 16.9992 19.637 16.9995Z" fill="black"/>
</svg>
