<svg width="24" height="24" viewBox="0 0 24 24" fill="none" xmlns="http://www.w3.org/2000/svg">
<g clip-path="url(#clip0_606_6694)">
<path d="M6.50008 15.9996C6.79675 15.9996 7.08676 16.0876 7.33343 16.2524C7.58011 16.4172 7.77237 16.6515 7.8859 16.9256C7.99943 17.1997 8.02913 17.5013 7.97126 17.7922C7.91338 18.0832 7.77052 18.3505 7.56074 18.5603C7.35096 18.77 7.08368 18.9129 6.79271 18.9708C6.50174 19.0287 6.20014 18.999 5.92605 18.8854C5.65196 18.7719 5.4177 18.5796 5.25287 18.333C5.08805 18.0863 5.00008 17.7963 5.00008 17.4996C5.00008 17.1018 5.15811 16.7203 5.43942 16.4389C5.72072 16.1576 6.10225 15.9996 6.50008 15.9996ZM9.50008 23.8606C10.8874 23.6019 12.1806 22.978 13.2467 22.0533C14.3127 21.1286 15.113 19.9364 15.5651 18.5996C15.9929 17.3634 16.1029 16.0395 15.8851 14.7496L16.5661 14.0606C16.8455 13.7783 17.0016 13.3968 17.0001 12.9996V10.9996H17.5001C17.8284 10.9996 18.1535 10.9349 18.4568 10.8093C18.7601 10.6837 19.0357 10.4995 19.2678 10.2674C19.5 10.0352 19.6841 9.75963 19.8098 9.45631C19.9354 9.153 20.0001 8.82791 20.0001 8.4996V7.9996H21.2511C21.7421 7.99944 22.2223 7.85538 22.6323 7.58524C23.0423 7.31509 23.3642 6.93071 23.5581 6.4796C23.9182 5.65082 24.0613 4.74401 23.9741 3.8446C23.8569 2.77847 23.347 1.79413 22.5438 1.08335C21.7406 0.37256 20.7015 -0.0137737 19.6291 -0.000396284C18.9061 -0.0023144 18.19 0.139171 17.5221 0.415871C16.8542 0.69257 16.2478 1.09899 15.7381 1.6116L9.23808 8.1116C7.951 7.89634 6.63045 8.00845 5.39808 8.4376C3.60809 9.05558 2.09536 10.2885 1.12897 11.917C0.162583 13.5455 -0.194794 15.464 0.120412 17.3313C0.435618 19.1985 1.40297 20.8934 2.85038 22.1144C4.2978 23.3355 6.13142 24.0035 8.02508 23.9996C8.51995 23.9983 9.01367 23.9517 9.50008 23.8606ZM9.31508 11.1996C9.57118 11.2708 9.8416 11.2727 10.0987 11.205C10.3557 11.1374 10.5902 11.0027 10.7781 10.8146L17.8591 3.7346C18.0908 3.50111 18.3666 3.31592 18.6704 3.18976C18.9743 3.06359 19.3001 2.99896 19.6291 2.9996C19.957 2.99181 20.2765 3.1044 20.527 3.3161C20.7776 3.52781 20.942 3.82396 20.9891 4.1486C21.0183 4.43477 20.9911 4.7239 20.9091 4.9996H19.5001C18.837 4.9996 18.2012 5.263 17.7323 5.73184C17.2635 6.20068 17.0001 6.83656 17.0001 7.4996V7.9996H16.5001C15.837 7.9996 15.2012 8.263 14.7323 8.73184C14.2635 9.20068 14.0001 9.83656 14.0001 10.4996V12.3836L13.1781 13.2146C12.9919 13.4028 12.8589 13.6369 12.7925 13.8932C12.7261 14.1494 12.7287 14.4187 12.8001 14.6736C13.0787 15.6429 13.0529 16.6744 12.7261 17.6286C12.4503 18.4306 11.9752 19.1492 11.3452 19.717C10.7153 20.2847 9.95133 20.6829 9.12513 20.8741C8.29894 21.0653 7.43769 21.0433 6.62238 20.81C5.80706 20.5767 5.06448 20.1399 4.46445 19.5406C3.86443 18.9414 3.42668 18.1993 3.19238 17.3843C2.95808 16.5693 2.93493 15.7081 3.1251 14.8816C3.31527 14.0552 3.71251 13.2907 4.27947 12.6601C4.84643 12.0294 5.56447 11.5533 6.36608 11.2766C6.87828 11.0999 7.41624 11.0093 7.95808 11.0086C8.41699 11.0104 8.87352 11.0746 9.31508 11.1996Z" fill="black"/>
</g>
<defs>
<clipPath id="clip0_606_6694">
<rect width="24" height="24" fill="white"/>
</clipPath>
</defs>
</svg>
