<svg width="24" height="24" viewBox="0 0 24 24" fill="none" xmlns="http://www.w3.org/2000/svg">
<path d="M7.7 5.12653C7.57549 4.87718 7.38398 4.66745 7.14694 4.52087C6.9099 4.37428 6.63671 4.29663 6.358 4.29663C6.0793 4.29663 5.8061 4.37428 5.56906 4.52087C5.33202 4.66745 5.14051 4.87718 5.016 5.12653L0.160001 14.8265C0.0452117 15.0552 -0.00918635 15.3094 0.00197849 15.565C0.0131433 15.8206 0.0895 16.0691 0.223789 16.2869C0.358078 16.5046 0.545835 16.6844 0.769211 16.8092C0.992587 16.9339 1.24416 16.9994 1.5 16.9995C1.77889 16.9997 2.0523 16.9221 2.28953 16.7755C2.52677 16.6289 2.71843 16.419 2.843 16.1695L3.435 14.9995H9.283L9.868 16.1695C9.99257 16.419 10.1842 16.6289 10.4215 16.7755C10.6587 16.9221 10.9321 16.9997 11.211 16.9995C11.4675 17.0003 11.7198 16.9353 11.944 16.8107C12.1682 16.6862 12.3567 16.5062 12.4915 16.288C12.6263 16.0699 12.7029 15.8208 12.7141 15.5646C12.7252 15.3083 12.6704 15.0536 12.555 14.8245L7.7 5.12653ZM4.935 11.9995L6.359 9.15153L7.783 11.9995H4.935Z" fill="black"/>
<path d="M22.4999 6.49976C22.1948 6.50103 21.8973 6.59533 21.6471 6.77007C21.397 6.94481 21.2061 7.19169 21.0999 7.47775C20.4436 7.16604 19.7265 7.00283 18.9999 6.99976C17.6738 6.99976 16.4021 7.52654 15.4644 8.46422C14.5267 9.4019 13.9999 10.6737 13.9999 11.9997C13.9999 13.3258 14.5267 14.5976 15.4644 15.5353C16.4021 16.473 17.6738 16.9997 18.9999 16.9997C19.7265 16.9967 20.4436 16.8335 21.0999 16.5217C21.2251 16.8474 21.46 17.1193 21.764 17.2905C22.0681 17.4617 22.4223 17.5215 22.7657 17.4597C23.1091 17.3979 23.4203 17.2183 23.6455 16.9518C23.8708 16.6853 23.9961 16.3487 23.9999 15.9997V7.99975C23.9999 7.60193 23.8419 7.2204 23.5606 6.93909C23.2793 6.65779 22.8977 6.49976 22.4999 6.49976ZM18.9999 13.9997C18.6044 13.9997 18.2177 13.8824 17.8888 13.6627C17.5599 13.4429 17.3035 13.1306 17.1522 12.7651C17.0008 12.3997 16.9612 11.9975 17.0384 11.6096C17.1155 11.2216 17.306 10.8652 17.5857 10.5855C17.8654 10.3058 18.2218 10.1154 18.6097 10.0382C18.9977 9.96101 19.3998 10.0006 19.7653 10.152C20.1307 10.3034 20.4431 10.5597 20.6629 10.8886C20.8826 11.2175 20.9999 11.6042 20.9999 11.9997C20.9999 12.5302 20.7892 13.0389 20.4141 13.414C20.0391 13.789 19.5304 13.9997 18.9999 13.9997Z" fill="black"/>
</svg>
