<svg width="24" height="24" viewBox="0 0 24 24" fill="none" xmlns="http://www.w3.org/2000/svg">
<g clip-path="url(#clip0_606_6532)">
<path d="M15.9909 5.00073C15.4513 5.00222 14.9266 5.17738 14.4944 5.50031C14.0621 5.82323 13.7453 6.27675 13.5909 6.79373L9.57789 20.4247C9.4484 20.8767 9.17593 21.2746 8.80131 21.5587C8.42668 21.8429 7.97006 21.9979 7.49989 22.0007C7.04112 21.9958 6.59485 21.8506 6.22105 21.5846C5.84725 21.3186 5.56383 20.9446 5.40889 20.5127L3.09889 13.8127C2.94443 13.3712 2.6867 12.9729 2.34716 12.6511C2.00762 12.3293 1.5961 12.0933 1.14689 11.9627C0.955418 11.9164 0.774956 11.8328 0.615803 11.7167C0.45665 11.6006 0.321923 11.4543 0.219315 11.2861C0.0120869 10.9465 -0.0517364 10.5384 0.041885 10.1517C0.135506 9.76505 0.378904 9.43139 0.718532 9.22416C1.05816 9.01694 1.4662 8.95311 1.85289 9.04673C2.78714 9.29525 3.64658 9.76812 4.35657 10.4243C5.06655 11.0804 5.6056 11.8999 5.92689 12.8117L7.41789 17.1417L10.7179 5.95073C11.0568 4.81381 11.7524 3.81603 12.7019 3.10476C13.6514 2.39348 14.8045 2.00642 15.9909 2.00073H22.4999C22.8977 2.00073 23.2792 2.15877 23.5605 2.44007C23.8419 2.72138 23.9999 3.10291 23.9999 3.50073C23.9999 3.89856 23.8419 4.28009 23.5605 4.56139C23.2792 4.8427 22.8977 5.00073 22.4999 5.00073H15.9909ZM23.3999 11.3007C23.2423 11.1825 23.063 11.0965 22.8722 11.0477C22.6813 10.9988 22.4828 10.988 22.2878 11.0158C21.8939 11.0721 21.5386 11.2825 21.2999 11.6007L19.4999 14.0007L17.6999 11.6007C17.5817 11.4431 17.4336 11.3104 17.2641 11.21C17.0946 11.1097 16.907 11.0437 16.712 11.0158C16.517 10.988 16.3184 10.9988 16.1276 11.0477C15.9368 11.0965 15.7575 11.1825 15.5999 11.3007C15.4423 11.4189 15.3095 11.567 15.2092 11.7365C15.1088 11.906 15.0428 12.0936 15.015 12.2886C14.9871 12.4836 14.9979 12.6822 15.0468 12.873C15.0957 13.0638 15.1817 13.2431 15.2999 13.4007L17.6249 16.5007L15.2999 19.6007C15.1817 19.7583 15.0957 19.9376 15.0468 20.1285C14.9979 20.3193 14.9871 20.5179 15.015 20.7129C15.0428 20.9079 15.1088 21.0955 15.2092 21.265C15.3095 21.4345 15.4423 21.5825 15.5999 21.7007C15.7575 21.8189 15.9368 21.9049 16.1276 21.9538C16.3184 22.0027 16.517 22.0135 16.712 21.9857C16.907 21.9578 17.0946 21.8918 17.2641 21.7914C17.4336 21.6911 17.5817 21.5583 17.6999 21.4007L19.4999 19.0007L21.2999 21.4007C21.5386 21.719 21.8939 21.9294 22.2878 21.9857C22.6816 22.0419 23.0816 21.9394 23.3999 21.7007C23.7181 21.462 23.9286 21.1067 23.9848 20.7129C24.0411 20.319 23.9386 19.919 23.6999 19.6007L21.3749 16.5007L23.6999 13.4007C23.9386 13.0825 24.0411 12.6824 23.9848 12.2886C23.9286 11.8948 23.7181 11.5394 23.3999 11.3007Z" fill="black"/>
</g>
<defs>
<clipPath id="clip0_606_6532">
<rect width="24" height="24" fill="white"/>
</clipPath>
</defs>
</svg>
