<svg width="24" height="24" viewBox="0 0 24 24" fill="none" xmlns="http://www.w3.org/2000/svg">
<g clip-path="url(#clip0_606_6943)">
<path d="M15.0001 16.0367C15.001 16.5623 14.8636 17.0789 14.6017 17.5346C14.3398 17.9903 13.9626 18.369 13.5079 18.6327C13.0533 18.8965 12.5373 19.0359 12.0117 19.0371C11.4861 19.0383 10.9694 18.9011 10.5137 18.6394C10.0579 18.3776 9.67897 18.0006 9.41504 17.546C9.15111 17.0915 9.01145 16.5756 9.01007 16.05C9.00869 15.5244 9.14565 15.0077 9.40719 14.5518C9.66873 14.0959 10.0456 13.7168 10.5001 13.4527V8.03671C10.5001 7.63888 10.6581 7.25735 10.9394 6.97605C11.2207 6.69474 11.6022 6.53671 12.0001 6.53671C12.3979 6.53671 12.7794 6.69474 13.0607 6.97605C13.342 7.25735 13.5001 7.63888 13.5001 8.03671V13.4527C13.9549 13.7138 14.333 14.0901 14.5964 14.5437C14.8597 14.9973 14.9989 15.5122 15.0001 16.0367ZM20.0001 15.9997C19.9977 18.1207 19.1541 20.1542 17.6543 21.6539C16.1545 23.1537 14.1211 23.9973 12.0001 23.9997C5.22705 24.0887 1.43705 15.7377 6.00005 10.7287V6.03671C6.25305 -1.89429 17.7501 -1.88929 18.0001 6.03671V10.7287C19.2923 12.1799 20.0043 14.0565 20.0001 15.9997ZM17.0001 15.9997C17.0002 15.3281 16.8636 14.6634 16.5987 14.0462C16.3338 13.4291 15.946 12.8723 15.4591 12.4097C15.3139 12.2698 15.1984 12.102 15.1196 11.9165C15.0407 11.7309 15 11.5313 15.0001 11.3297V6.03671C15.0001 5.24106 14.684 4.478 14.1214 3.91539C13.5588 3.35278 12.7957 3.03671 12.0001 3.03671C11.2044 3.03671 10.4413 3.35278 9.87873 3.91539C9.31612 4.478 9.00005 5.24106 9.00005 6.03671V11.3297C9.00006 11.5313 8.95941 11.7309 8.88055 11.9165C8.80168 12.102 8.68622 12.2698 8.54105 12.4097C7.94661 12.9824 7.5034 13.6936 7.25108 14.4796C6.99876 15.2655 6.9452 16.1018 7.09519 16.9135C7.24518 17.7252 7.59404 18.4871 8.11057 19.131C8.62709 19.7749 9.29517 20.2807 10.055 20.6032C10.8149 20.9257 11.6429 21.0548 12.4648 20.9789C13.2868 20.9031 14.0772 20.6247 14.7652 20.1686C15.4533 19.7126 16.0175 19.0931 16.4075 18.3656C16.7975 17.638 17.0011 16.8252 17.0001 15.9997Z" fill="black"/>
</g>
<defs>
<clipPath id="clip0_606_6943">
<rect width="24" height="24" fill="white"/>
</clipPath>
</defs>
</svg>
