<svg width="24" height="24" viewBox="0 0 24 24" fill="none" xmlns="http://www.w3.org/2000/svg">
<g clip-path="url(#clip0_606_6577)">
<path d="M1.5 20.9994H13.062C16.696 20.9994 19.608 19.2834 20.851 16.4094C20.9697 16.1444 21.0194 15.8536 20.9955 15.5643C20.9715 15.2749 20.8747 14.9963 20.714 14.7544C20.5635 14.5221 20.3566 14.3316 20.1127 14.2006C19.8689 14.0697 19.5958 14.0025 19.319 14.0054H15.009C14.9025 13.9994 14.7969 14.0289 14.709 14.0894L12.726 15.4114C12.1521 15.7941 11.4778 15.9987 10.788 15.9994H1.5C1.10218 15.9994 0.720644 15.8414 0.43934 15.56C0.158035 15.2787 0 14.8972 0 14.4994C0 14.1016 0.158035 13.72 0.43934 13.4387C0.720644 13.1574 1.10218 12.9994 1.5 12.9994H10.788C10.8874 12.9994 10.9845 12.9698 11.067 12.9144L13.049 11.5924C13.6233 11.209 14.2985 11.0047 14.989 11.0054H16.771C15.9744 9.29945 14.8163 7.78717 13.377 6.57338C12.8216 6.20125 12.1686 6.00156 11.5 5.99938H1.5C1.10218 5.99938 0.720644 5.84135 0.43934 5.56004C0.158035 5.27874 0 4.89721 0 4.49938C0 4.10156 0.158035 3.72003 0.43934 3.43872C0.720644 3.15742 1.10218 2.99938 1.5 2.99938H4.181L4.087 2.64238C3.94458 2.10227 4.02255 1.5277 4.30376 1.04508C4.58497 0.562452 5.04639 0.211305 5.5865 0.0688836C6.12661 -0.0735376 6.70118 0.00443351 7.18381 0.285644C7.66643 0.566855 8.01758 1.02827 8.16 1.56838L8.537 2.99938H11.5C12.8603 3.00143 14.184 3.44032 15.276 4.25138C17.4326 6.07457 19.0818 8.42374 20.064 11.0714C20.7026 11.1725 21.3132 11.4056 21.8568 11.7558C22.4003 12.106 22.8649 12.5656 23.221 13.1054C23.653 13.7638 23.9139 14.5196 23.98 15.3044C24.0462 16.0891 23.9156 16.8779 23.6 17.5994C21.872 21.6064 17.931 23.9994 13.062 23.9994H1.5C1.10218 23.9994 0.720644 23.8414 0.43934 23.56C0.158035 23.2787 0 22.8972 0 22.4994C0 22.1016 0.158035 21.72 0.43934 21.4387C0.720644 21.1574 1.10218 20.9994 1.5 20.9994ZM9.5 10.9994C9.89782 10.9994 10.2794 10.8414 10.5607 10.56C10.842 10.2787 11 9.89721 11 9.49938C11 9.10156 10.842 8.72003 10.5607 8.43872C10.2794 8.15742 9.89782 7.99938 9.5 7.99938L1.5 7.99338C1.10218 7.99338 0.720644 8.15142 0.43934 8.43272C0.158035 8.71403 0 9.09556 0 9.49339C0 9.89121 0.158035 10.2727 0.43934 10.554C0.720644 10.8354 1.10218 10.9934 1.5 10.9934L9.5 10.9994ZM9 18.5054C9 18.2087 8.91203 17.9187 8.7472 17.672C8.58238 17.4254 8.34811 17.2331 8.07403 17.1196C7.79994 17.006 7.49834 16.9763 7.20736 17.0342C6.91639 17.0921 6.64912 17.2349 6.43934 17.4447C6.22956 17.6545 6.0867 17.9218 6.02882 18.2127C5.97094 18.5037 6.00065 18.8053 6.11418 19.0794C6.22771 19.3535 6.41997 19.5878 6.66664 19.7526C6.91332 19.9174 7.20333 20.0054 7.5 20.0054C7.89782 20.0054 8.27936 19.8474 8.56066 19.566C8.84196 19.2847 9 18.9032 9 18.5054ZM4 18.5054C4 18.2087 3.91203 17.9187 3.7472 17.672C3.58238 17.4254 3.34811 17.2331 3.07403 17.1196C2.79994 17.006 2.49834 16.9763 2.20736 17.0342C1.91639 17.0921 1.64912 17.2349 1.43934 17.4447C1.22956 17.6545 1.0867 17.9218 1.02882 18.2127C0.970944 18.5037 1.00065 18.8053 1.11418 19.0794C1.22771 19.3535 1.41997 19.5878 1.66664 19.7526C1.91332 19.9174 2.20333 20.0054 2.5 20.0054C2.89782 20.0054 3.27936 19.8474 3.56066 19.566C3.84196 19.2847 4 18.9032 4 18.5054ZM14 18.5054C14 18.2087 13.912 17.9187 13.7472 17.672C13.5824 17.4254 13.3481 17.2331 13.074 17.1196C12.7999 17.006 12.4983 16.9763 12.2074 17.0342C11.9164 17.0921 11.6491 17.2349 11.4393 17.4447C11.2296 17.6545 11.0867 17.9218 11.0288 18.2127C10.9709 18.5037 11.0006 18.8053 11.1142 19.0794C11.2277 19.3535 11.42 19.5878 11.6666 19.7526C11.9133 19.9174 12.2033 20.0054 12.5 20.0054C12.8978 20.0054 13.2794 19.8474 13.5607 19.566C13.842 19.2847 14 18.9032 14 18.5054Z" fill="black"/>
</g>
<defs>
<clipPath id="clip0_606_6577">
<rect width="24" height="24" fill="white"/>
</clipPath>
</defs>
</svg>
