<svg width="24" height="24" viewBox="0 0 24 24" fill="none" xmlns="http://www.w3.org/2000/svg">
<g clip-path="url(#clip0_606_6849)">
<path d="M22.5 21H5.5C4.83696 21 4.20107 20.7366 3.73223 20.2678C3.26339 19.7989 3 19.163 3 18.5V1.5C3 1.10218 2.84196 0.720644 2.56066 0.43934C2.27936 0.158035 1.89782 0 1.5 0C1.10218 0 0.720644 0.158035 0.43934 0.43934C0.158035 0.720644 0 1.10218 0 1.5L0 18.5C0.00158817 19.9582 0.581561 21.3562 1.61267 22.3873C2.64377 23.4184 4.0418 23.9984 5.5 24H22.5C22.8978 24 23.2794 23.842 23.5607 23.5607C23.842 23.2794 24 22.8978 24 22.5C24 22.1022 23.842 21.7206 23.5607 21.4393C23.2794 21.158 22.8978 21 22.5 21Z" fill="black"/>
<path d="M9.50012 9C9.1023 9 8.72077 9.15804 8.43946 9.43934C8.15816 9.72064 8.00012 10.1022 8.00012 10.5V17.5C8.00012 17.8978 8.15816 18.2794 8.43946 18.5607C8.72077 18.842 9.1023 19 9.50012 19C9.89795 19 10.2795 18.842 10.5608 18.5607C10.8421 18.2794 11.0001 17.8978 11.0001 17.5V10.5C11.0001 10.1022 10.8421 9.72064 10.5608 9.43934C10.2795 9.15804 9.89795 9 9.50012 9Z" fill="black"/>
<path d="M14.0001 13.5V17.5C14.0001 17.8978 14.1582 18.2794 14.4395 18.5607C14.7208 18.842 15.1023 19 15.5001 19C15.8979 19 16.2795 18.842 16.5608 18.5607C16.8421 18.2794 17.0001 17.8978 17.0001 17.5V13.5C17.0001 13.1022 16.8421 12.7206 16.5608 12.4393C16.2795 12.158 15.8979 12 15.5001 12C15.1023 12 14.7208 12.158 14.4395 12.4393C14.1582 12.7206 14.0001 13.1022 14.0001 13.5Z" fill="black"/>
<path d="M20.0001 9.5V17.5C20.0001 17.8978 20.1582 18.2793 20.4395 18.5606C20.7208 18.8419 21.1023 19 21.5001 19C21.8979 19 22.2795 18.8419 22.5608 18.5606C22.8421 18.2793 23.0001 17.8978 23.0001 17.5V9.5C23.0001 9.10217 22.8421 8.72064 22.5608 8.43934C22.2795 8.15803 21.8979 8 21.5001 8C21.1023 8 20.7208 8.15803 20.4395 8.43934C20.1582 8.72064 20.0001 9.10217 20.0001 9.5Z" fill="black"/>
<path d="M6.00019 7.49991C6.34065 7.50063 6.67105 7.3845 6.93619 7.17091L9.21418 5.34991C9.67417 4.98062 10.2544 4.79433 10.8434 4.82681C11.4324 4.8593 11.9886 5.10828 12.4052 5.52591C13.3666 6.4751 14.6473 7.0318 15.9972 7.08727C17.347 7.14275 18.6691 6.69301 19.7052 5.82591L23.4692 2.64091C23.6295 2.51696 23.7631 2.36179 23.8618 2.18478C23.9606 2.00776 24.0224 1.81258 24.0436 1.611C24.0648 1.40943 24.0449 1.20565 23.9852 1.01196C23.9255 0.818282 23.8271 0.638717 23.696 0.484112C23.5649 0.329507 23.4039 0.203068 23.2226 0.112432C23.0413 0.0217954 22.8435 -0.0311591 22.6412 -0.0432341C22.4389 -0.0553091 22.2362 -0.0262541 22.0454 0.0421766C21.8546 0.110607 21.6797 0.216994 21.5312 0.354913L17.7682 3.53991C17.3073 3.92423 16.7196 4.12286 16.1201 4.09697C15.5206 4.07108 14.9522 3.82253 14.5262 3.39991C13.5882 2.45934 12.336 1.89831 11.0097 1.82448C9.6835 1.75066 8.37671 2.16925 7.34018 2.99991L5.06319 4.82891C4.8206 5.02311 4.64431 5.28786 4.55868 5.58658C4.47306 5.88529 4.48231 6.20323 4.58518 6.49645C4.68804 6.78968 4.87944 7.04372 5.13292 7.22348C5.38639 7.40323 5.68944 7.49983 6.00019 7.49991Z" fill="black"/>
</g>
<defs>
<clipPath id="clip0_606_6849">
<rect width="24" height="24" fill="white"/>
</clipPath>
</defs>
</svg>
