<svg width="24" height="24" viewBox="0 0 24 24" fill="none" xmlns="http://www.w3.org/2000/svg">
<g clip-path="url(#clip0_606_6521)">
<path d="M0.818947 17.5203C1.60398 17.9494 2.49396 18.1489 3.38705 18.0958C4.28013 18.0428 5.14024 17.7394 5.86895 17.2203C5.92738 17.1756 5.99889 17.1514 6.07245 17.1514C6.146 17.1514 6.21752 17.1756 6.27595 17.2203C7.09773 17.7892 8.07346 18.094 9.07295 18.094C10.0724 18.094 11.0482 17.7892 11.8699 17.2203C11.9283 17.1759 11.9996 17.1518 12.0729 17.1518C12.1463 17.1518 12.2176 17.1759 12.2759 17.2203C13.0975 17.7888 14.0729 18.0933 15.0719 18.0933C16.071 18.0933 17.0464 17.7888 17.8679 17.2203C17.9263 17.1751 17.9981 17.1505 18.0719 17.1505C18.1458 17.1505 18.2176 17.1751 18.2759 17.2203C19.0008 17.7483 19.8619 18.0572 20.757 18.1103C21.6521 18.1635 22.5437 17.9587 23.3259 17.5203C23.6699 17.3203 23.9204 16.9919 24.0222 16.6073C24.1241 16.2226 24.0689 15.8133 23.8689 15.4693C23.669 15.1253 23.3405 14.8749 22.9559 14.773C22.5713 14.6712 22.1619 14.7264 21.8179 14.9263C21.5336 15.0711 21.2146 15.1338 20.8966 15.1073C20.5787 15.0808 20.2744 14.9662 20.0179 14.7763C19.4504 14.3743 18.772 14.1584 18.0764 14.1584C17.3809 14.1584 16.7025 14.3743 16.1349 14.7763C15.8245 14.9926 15.4553 15.1085 15.0769 15.1085C14.6986 15.1085 14.3294 14.9926 14.0189 14.7763C13.4518 14.3728 12.773 14.156 12.0769 14.156C11.3809 14.156 10.7021 14.3728 10.1349 14.7763C9.82452 14.9931 9.45505 15.1093 9.07645 15.1093C8.69785 15.1093 8.32837 14.9931 8.01795 14.7763C7.45037 14.3743 6.77198 14.1584 6.07645 14.1584C5.38091 14.1584 4.70253 14.3743 4.13495 14.7763C3.8783 14.9683 3.57278 15.0841 3.25337 15.1104C2.93396 15.1368 2.61358 15.0726 2.32895 14.9253C1.98417 14.7256 1.57417 14.6711 1.18916 14.7736C0.804147 14.8762 0.475655 15.1275 0.275947 15.4723C0.0762388 15.8171 0.0216742 16.2271 0.124257 16.6121C0.226839 16.9971 0.478165 17.3256 0.822947 17.5253L0.818947 17.5203Z" fill="black"/>
<path d="M21.7481 20.7994C21.4634 20.9466 21.1432 21.0107 20.8238 20.9845C20.5045 20.9583 20.199 20.8429 19.9421 20.6514C19.3752 20.2482 18.6968 20.0316 18.0011 20.0316C17.3054 20.0316 16.627 20.2482 16.0601 20.6514C15.7493 20.8677 15.3797 20.9837 15.0011 20.9837C14.6224 20.9837 14.2529 20.8677 13.9421 20.6514C13.3751 20.248 12.6965 20.0312 12.0006 20.0312C11.3047 20.0312 10.6261 20.248 10.0591 20.6514C9.74849 20.8678 9.37908 20.9837 9.00058 20.9837C8.62208 20.9837 8.25266 20.8678 7.94208 20.6514C7.37506 20.248 6.69646 20.0312 6.00058 20.0312C5.30469 20.0312 4.62609 20.248 4.05908 20.6514C3.80243 20.8434 3.4969 20.9592 3.17749 20.9856C2.85808 21.0119 2.53771 20.9478 2.25307 20.8004C1.90843 20.6007 1.49856 20.5461 1.11364 20.6486C0.728723 20.7511 0.400283 21.0023 0.200575 21.3469C0.000866682 21.6916 -0.0537506 22.1015 0.048738 22.4864C0.151227 22.8713 0.402426 23.1997 0.747075 23.3994C1.53214 23.8285 2.4221 24.0278 3.31516 23.9748C4.20823 23.9217 5.06832 23.6184 5.79708 23.0994C5.85542 23.055 5.92673 23.0309 6.00008 23.0309C6.07342 23.0309 6.14473 23.055 6.20308 23.0994C7.02486 23.6683 8.00059 23.9731 9.00008 23.9731C9.99956 23.9731 10.9753 23.6683 11.7971 23.0994C11.8556 23.0549 11.9271 23.0308 12.0006 23.0308C12.0741 23.0308 12.1456 23.0549 12.2041 23.0994C13.0255 23.6693 14.0014 23.9746 15.0011 23.9746C16.0008 23.9746 16.9767 23.6693 17.7981 23.0994C17.8563 23.0547 17.9276 23.0304 18.0011 23.0304C18.0745 23.0304 18.1459 23.0547 18.2041 23.0994C18.9287 23.627 19.7894 23.9357 20.6841 23.9888C21.5789 24.042 22.4701 23.8375 23.2521 23.3994C23.5969 23.2005 23.8485 22.8728 23.9516 22.4884C24.0548 22.1039 24.001 21.6942 23.8021 21.3494C23.6032 21.0047 23.2754 20.753 22.891 20.6499C22.5065 20.5467 22.0969 20.6005 21.7521 20.7994H21.7481Z" fill="black"/>
<path d="M3.49988 12H6.19988C6.73253 12.0004 7.24938 11.8191 7.66503 11.486C8.08068 11.1529 8.37024 10.688 8.48588 10.168C8.66735 9.37092 9.1142 8.65913 9.75319 8.14927C10.3922 7.63941 11.1854 7.36173 12.0029 7.36173C12.8204 7.36173 13.6136 7.63941 14.2526 8.14927C14.8916 8.65913 15.3384 9.37092 15.5199 10.168C15.6351 10.687 15.9238 11.1513 16.3382 11.4843C16.7527 11.8173 17.2682 11.9992 17.7999 12H20.4999C20.8977 12 21.2792 11.842 21.5605 11.5607C21.8418 11.2794 21.9999 10.8978 21.9999 10.5C21.9999 10.1022 21.8418 9.72064 21.5605 9.43934C21.2792 9.15804 20.8977 9 20.4999 9H18.3099C18.1061 8.33824 17.799 7.71285 17.3999 7.147L19.3719 5.175C19.6531 4.89361 19.8111 4.51201 19.811 4.11415C19.8109 3.71629 19.6528 3.33476 19.3714 3.0535C19.09 2.77224 18.7084 2.61428 18.3105 2.61437C17.9127 2.61447 17.5311 2.77261 17.2499 3.054L15.1559 5.148C14.6345 4.86556 14.0775 4.65467 13.4999 4.521V1.5C13.4999 1.10218 13.3418 0.720644 13.0605 0.43934C12.7792 0.158035 12.3977 0 11.9999 0C11.6021 0 11.2205 0.158035 10.9392 0.43934C10.6579 0.720644 10.4999 1.10218 10.4999 1.5V4.521C9.92201 4.65453 9.36469 4.86508 8.84288 5.147L6.74988 3.054C6.46862 2.77261 6.08709 2.61447 5.68923 2.61437C5.29137 2.61428 4.90977 2.77224 4.62838 3.0535C4.34698 3.33476 4.18884 3.71629 4.18875 4.11415C4.18866 4.51201 4.34662 4.89361 4.62788 5.175L6.59988 7.146C6.20023 7.71203 5.89276 8.33778 5.68888 9H3.49988C3.10205 9 2.72052 9.15804 2.43922 9.43934C2.15791 9.72064 1.99988 10.1022 1.99988 10.5C1.99988 10.8978 2.15791 11.2794 2.43922 11.5607C2.72052 11.842 3.10205 12 3.49988 12Z" fill="black"/>
</g>
<defs>
<clipPath id="clip0_606_6521">
<rect width="24" height="24" fill="white"/>
</clipPath>
</defs>
</svg>
