<svg width="24" height="24" viewBox="0 0 24 24" fill="none" xmlns="http://www.w3.org/2000/svg">
<g clip-path="url(#clip0_606_6912)">
<path d="M14.4999 12.9995C14.2033 12.9995 13.9133 12.9116 13.6666 12.7467C13.4199 12.5819 13.2277 12.3477 13.1141 12.0736C13.0006 11.7995 12.9709 11.4979 13.0288 11.2069C13.0866 10.9159 13.2295 10.6487 13.4393 10.4389C13.6491 10.2291 13.9163 10.0862 14.2073 10.0284C14.4983 9.97048 14.7999 10.0002 15.074 10.1137C15.3481 10.2273 15.5823 10.4195 15.7472 10.6662C15.912 10.9129 15.9999 11.2029 15.9999 11.4995C15.9999 11.8974 15.8419 12.2789 15.5606 12.5602C15.2793 12.8415 14.8978 12.9995 14.4999 12.9995ZM23.9209 17.7705C24.0538 18.5345 24.0179 19.3183 23.8159 20.067C23.6139 20.8157 23.2506 21.5111 22.7514 22.1046C22.2523 22.698 21.6294 23.1752 20.9264 23.5025C20.2235 23.8298 19.4574 23.9995 18.6819 23.9995H15.4999C15.1021 23.9995 14.7206 23.8415 14.4393 23.5602C14.158 23.2789 13.9999 22.8974 13.9999 22.4995V20.7255C13.3467 20.8968 12.6752 20.9888 11.9999 20.9995C11.3235 20.9975 10.6506 20.9026 9.99995 20.7175V22.4995C9.99995 22.8974 9.84191 23.2789 9.56061 23.5602C9.2793 23.8415 8.89777 23.9995 8.49995 23.9995H5.31695C4.54157 23.9993 3.77563 23.8296 3.07277 23.5022C2.36992 23.1748 1.74716 22.6976 1.24813 22.1042C0.749105 21.5108 0.385882 20.8154 0.183914 20.0668C-0.0180534 19.3182 -0.05388 18.5344 0.0789449 17.7705L0.478945 15.7465C0.598994 15.0912 0.911683 14.4865 1.37707 14.0097C1.84245 13.5329 2.43941 13.2056 3.09167 13.0698C3.74394 12.9339 4.42191 12.9955 5.03897 13.2468C5.65603 13.4981 6.18418 13.9276 6.55595 14.4805C7.65795 16.0995 9.74495 17.9995 11.9999 17.9995C13.369 17.9288 14.6892 17.4674 15.8042 16.6699C16.9193 15.8725 17.7826 14.7723 18.2919 13.4995C18.3954 13.207 18.587 12.9537 18.8405 12.7746C19.0939 12.5955 19.3966 12.4994 19.7069 12.4995H20.0259C20.2838 12.4974 20.5305 12.394 20.7127 12.2116C20.8949 12.0292 20.9981 11.7824 20.9999 11.5245C21 11.3173 20.9272 11.1167 20.7943 10.9576C20.6614 10.7986 20.4769 10.6913 20.2729 10.6545C19.9541 10.5965 19.6626 10.4367 19.4421 10.1991C19.2216 9.96149 19.084 9.65887 19.0499 9.33654C18.8682 7.59477 18.0465 5.98242 16.7441 4.81172C15.4417 3.64102 13.7512 2.99528 11.9999 2.99954C6.99995 2.99954 5.68095 5.94454 4.51995 8.54354L4.39495 8.82254C7.0487 8.45938 9.52247 7.27547 11.4699 5.43654C11.6081 5.29127 11.774 5.17516 11.9578 5.09509C12.1416 5.01502 12.3395 4.9726 12.54 4.97035C12.7405 4.96809 12.9394 5.00604 13.1249 5.08196C13.3105 5.15788 13.4789 5.27022 13.6203 5.41234C13.7617 5.55447 13.8732 5.7235 13.9481 5.90944C14.0231 6.09538 14.06 6.29446 14.0567 6.49491C14.0534 6.69536 14.0099 6.89312 13.9289 7.07649C13.8479 7.25987 13.7309 7.42514 13.5849 7.56254C12.5476 8.58716 11.3591 9.4465 10.0609 10.1105C10.3374 10.2202 10.5752 10.4092 10.7444 10.6537C10.9136 10.8983 11.0066 11.1875 11.0117 11.4849C11.0167 11.7822 10.9336 12.0744 10.7729 12.3246C10.6121 12.5748 10.3809 12.7718 10.1083 12.8908C9.83573 13.0097 9.53404 13.0453 9.24127 12.9931C8.9485 12.9408 8.67775 12.8031 8.46317 12.5972C8.24858 12.3912 8.09977 12.1264 8.03548 11.836C7.9712 11.5457 7.99433 11.2428 8.10195 10.9655C5.95031 11.7391 3.66962 12.0902 1.38495 11.9995C1.06348 11.9776 0.757633 11.8527 0.512681 11.6434C0.267728 11.434 0.0966929 11.1514 0.0248958 10.8373C-0.0469014 10.5232 -0.0156437 10.1943 0.114041 9.89931C0.243726 9.60434 0.464944 9.35898 0.744945 9.19954C1.18527 8.62975 1.53474 7.99524 1.78095 7.31854C2.99995 4.58154 5.05295 -0.000460274 11.9999 -0.000460274C14.3266 -0.00594728 16.5832 0.794948 18.3859 2.26593C20.1885 3.73691 21.4257 5.78708 21.8869 8.06754C22.5227 8.39301 23.0564 8.88758 23.4292 9.49681C23.802 10.106 23.9995 10.8063 23.9999 11.5205C23.9989 12.3555 23.732 13.1684 23.2379 13.8415L23.9209 17.7705ZM6.99995 19.2135C5.86119 18.3681 4.87216 17.3379 4.07395 16.1655C4.04337 16.1136 3.9994 16.0707 3.94663 16.0415C3.89387 16.0123 3.83423 15.9978 3.77395 15.9995C3.69089 16.0018 3.61123 16.033 3.54877 16.0878C3.48631 16.1426 3.44498 16.2175 3.43195 16.2995L3.03195 18.3225C2.9805 18.6529 3.00106 18.9904 3.09221 19.3121C3.18336 19.6337 3.34295 19.9319 3.56005 20.1861C3.77715 20.4404 4.04663 20.6447 4.35005 20.7851C4.65346 20.9255 4.98363 20.9986 5.31795 20.9995H6.99995V19.2135ZM20.9649 18.2835L20.5269 15.7655C19.6768 17.2697 18.4644 18.5377 16.9999 19.4545V20.9995H18.6809C19.0189 20.9994 19.3528 20.9254 19.6592 20.7827C19.9655 20.64 20.237 20.432 20.4546 20.1734C20.6722 19.9148 20.8306 19.6117 20.9187 19.2854C21.0069 18.9592 21.0227 18.6176 20.9649 18.2845V18.2835Z" fill="black"/>
</g>
<defs>
<clipPath id="clip0_606_6912">
<rect width="24" height="24" fill="white"/>
</clipPath>
</defs>
</svg>
