<svg width="24" height="24" viewBox="0 0 24 24" fill="none" xmlns="http://www.w3.org/2000/svg">
<g clip-path="url(#clip0_606_6937)">
<path d="M19.1219 18.3939L23.0409 14.4749C23.6773 13.808 24.0323 12.9217 24.0323 11.9999C24.0323 11.0781 23.6773 10.1918 23.0409 9.52489L19.1219 5.60589C18.8406 5.32449 18.4591 5.16635 18.0613 5.16626C17.6634 5.16617 17.2818 5.32413 17.0004 5.60539C16.719 5.88665 16.5609 6.26818 16.5608 6.66603C16.5607 7.06389 16.7186 7.44549 16.9999 7.72689L19.7799 10.5079L1.52991 10.5309C1.13208 10.5309 0.750552 10.6889 0.469247 10.9702C0.187942 11.2515 0.0299072 11.6331 0.0299072 12.0309C0.0299072 12.4287 0.187942 12.8102 0.469247 13.0916C0.750552 13.3729 1.13208 13.5309 1.52991 13.5309L19.7609 13.5079L16.9999 16.2729C16.7267 16.5558 16.5755 16.9347 16.5789 17.328C16.5823 17.7213 16.7401 18.0975 17.0182 18.3756C17.2963 18.6537 17.6725 18.8115 18.0658 18.8149C18.4591 18.8183 18.838 18.6671 19.1209 18.3939H19.1219Z" fill="black"/>
</g>
<defs>
<clipPath id="clip0_606_6937">
<rect width="24" height="24" fill="white"/>
</clipPath>
</defs>
</svg>
