<svg width="24" height="24" viewBox="0 0 24 24" fill="none" xmlns="http://www.w3.org/2000/svg">
<g clip-path="url(#clip0_606_6925)">
<path d="M17.7279 -0.00043319C16.3987 -0.00099733 15.0784 0.215519 13.8189 0.640567C13.2352 0.854788 12.6213 0.975933 11.9999 0.999567C11.3782 0.975839 10.7641 0.854699 10.1799 0.640567C8.92087 0.215487 7.60082 -0.0010317 6.27193 -0.00043319C5.44183 -0.0241888 4.61562 0.121801 3.84392 0.42859C3.07223 0.73538 2.3713 1.19651 1.78409 1.78372C1.19687 2.37093 0.735746 3.07186 0.428956 3.84356C0.122167 4.61525 -0.0238226 5.44146 -6.69786e-05 6.27157C-6.69786e-05 12.3996 3.08293 18.3886 5.39993 22.3616C5.70243 22.876 6.1378 23.2995 6.66037 23.5877C7.18294 23.8759 7.77345 24.0182 8.36993 23.9996C9.0872 23.9604 9.76151 23.6453 10.2517 23.1202C10.7419 22.5952 11.01 21.9008 10.9999 21.1826V14.9996C10.9999 14.7344 11.1053 14.48 11.2928 14.2925C11.4804 14.1049 11.7347 13.9996 11.9999 13.9996C12.2652 13.9996 12.5195 14.1049 12.707 14.2925C12.8946 14.48 12.9999 14.7344 12.9999 14.9996V21.1826C12.9901 21.9004 13.258 22.5943 13.7477 23.1193C14.2375 23.6443 14.9111 23.9597 15.6279 23.9996C16.2242 24.0183 16.8145 23.8763 17.3371 23.5885C17.8596 23.3006 18.2951 22.8776 18.5979 22.3636C20.9169 18.3886 23.9999 12.3996 23.9999 6.27157C24.0237 5.44146 23.8777 4.61525 23.5709 3.84356C23.2641 3.07186 22.803 2.37093 22.2158 1.78372C21.6286 1.19651 20.9276 0.73538 20.1559 0.42859C19.3843 0.121801 18.558 -0.0241888 17.7279 -0.00043319ZM15.9999 20.8596V14.9996C15.9999 13.9387 15.5785 12.9213 14.8284 12.1711C14.0782 11.421 13.0608 10.9996 11.9999 10.9996C10.9391 10.9996 9.92165 11.421 9.17151 12.1711C8.42136 12.9213 7.99993 13.9387 7.99993 14.9996V20.8596C5.85493 17.1876 2.99993 11.6756 2.99993 6.27157C2.97893 5.83632 3.04918 5.40149 3.20619 4.995C3.36319 4.58851 3.60347 4.21935 3.91159 3.91123C4.21972 3.6031 4.58888 3.36282 4.99537 3.20582C5.40185 3.04882 5.83669 2.97856 6.27193 2.99957C7.30539 2.99888 8.33164 3.17161 9.30793 3.51057C10.1738 3.81474 11.0824 3.97979 11.9999 3.99957C12.9171 3.9798 13.8254 3.81475 14.6909 3.51057C15.6676 3.17161 16.6942 2.99888 17.7279 2.99957C18.1633 2.97794 18.5984 3.04776 19.0052 3.20455C19.412 3.36133 19.7814 3.60159 20.0897 3.90984C20.3979 4.2181 20.6382 4.58752 20.795 4.99429C20.9517 5.40106 21.0216 5.83616 20.9999 6.27157C20.9999 11.6756 18.1449 17.1876 15.9999 20.8596Z" fill="black"/>
</g>
<defs>
<clipPath id="clip0_606_6925">
<rect width="24" height="24" fill="white"/>
</clipPath>
</defs>
</svg>
