<svg width="24" height="24" viewBox="0 0 24 24" fill="none" xmlns="http://www.w3.org/2000/svg">
<g clip-path="url(#clip0_606_6734)">
<path d="M1.76204 8.375L0.980035 9.382C0.255444 10.3142 -0.0876743 11.487 0.0202075 12.6627C0.128089 13.8385 0.678902 14.9292 1.56104 15.714L9.20004 22.955C9.96994 23.6264 10.9575 23.9953 11.979 23.993C13.0318 23.9925 14.0483 23.6081 14.838 22.912L22.398 15.769C23.2896 15.0008 23.8552 13.922 23.9798 12.7517C24.1045 11.5815 23.7788 10.4077 23.069 9.469L22.317 8.462C21.7401 7.69734 20.9935 7.07701 20.1361 6.64979C19.2788 6.22258 18.3339 6.00015 17.376 6H6.63904C5.69938 6.00097 4.77221 6.21523 3.9274 6.62663C3.0826 7.03803 2.3422 7.63584 1.76204 8.375ZM3.35204 11.221L4.13104 10.215C4.4299 9.83592 4.81091 9.5296 5.24534 9.31914C5.67977 9.10868 6.15631 8.99956 6.63904 9H9.06404L8.49104 10.406C8.22496 11.071 8.09999 11.7841 8.12403 12.5H15.841C15.886 11.7447 15.7642 10.9888 15.484 10.286L14.961 9H17.376C17.8683 8.99911 18.354 9.11254 18.795 9.33137C19.2359 9.55019 19.62 9.86843 19.917 10.261L20.669 11.268C20.7993 11.4426 20.893 11.6417 20.9446 11.8534C20.9961 12.0651 21.0044 12.285 20.969 12.5H15.841C15.8202 13.0469 15.7125 13.5869 15.522 14.1L12.553 20.85C12.3801 20.9382 12.1887 20.9842 11.9945 20.9842C11.8004 20.9842 11.609 20.9382 11.436 20.85L8.45404 14.224C8.24674 13.6723 8.13514 13.0893 8.12403 12.5H3.02404C2.98696 12.2757 2.99698 12.0462 3.05345 11.826C3.10992 11.6058 3.21161 11.3998 3.35204 11.221Z" fill="black"/>
<path d="M16.439 0.439481L15.439 1.43948C15.1576 1.72088 14.9995 2.10253 14.9995 2.50048C14.9995 2.89843 15.1576 3.28009 15.439 3.56148C15.7204 3.84288 16.102 4.00096 16.5 4.00096C16.8979 4.00096 17.2796 3.84288 17.561 3.56148L18.561 2.56148C18.8424 2.28009 19.0005 1.89843 19.0005 1.50048C19.0005 1.10253 18.8424 0.720875 18.561 0.439481C18.2796 0.158086 17.8979 0 17.5 0C17.102 0 16.7204 0.158086 16.439 0.439481Z" fill="black"/>
<path d="M7.49987 4.00048C7.79664 4.00062 8.08678 3.91271 8.33358 3.7479C8.58037 3.58309 8.77274 3.34877 8.88632 3.0746C8.99991 2.80042 9.02962 2.49872 8.97168 2.20766C8.91375 1.9166 8.77078 1.64926 8.56086 1.43948L7.56087 0.439481C7.27947 0.158086 6.89782 -2.96497e-09 6.49987 0C6.10192 2.96498e-09 5.72026 0.158086 5.43887 0.439481C5.15748 0.720875 4.99939 1.10253 4.99939 1.50048C4.99939 1.89843 5.15748 2.28009 5.43887 2.56148L6.43887 3.56148C6.57822 3.70075 6.74365 3.8112 6.9257 3.88652C7.10775 3.96185 7.30285 4.00057 7.49987 4.00048Z" fill="black"/>
<path d="M10.5 1.5V2.5C10.5 2.89782 10.658 3.27936 10.9393 3.56066C11.2206 3.84196 11.6022 4 12 4C12.3978 4 12.7794 3.84196 13.0607 3.56066C13.342 3.27936 13.5 2.89782 13.5 2.5V1.5C13.5 1.10218 13.342 0.720644 13.0607 0.43934C12.7794 0.158035 12.3978 0 12 0C11.6022 0 11.2206 0.158035 10.9393 0.43934C10.658 0.720644 10.5 1.10218 10.5 1.5Z" fill="black"/>
</g>
<defs>
<clipPath id="clip0_606_6734">
<rect width="24" height="24" fill="white"/>
</clipPath>
</defs>
</svg>
