<svg width="24" height="24" viewBox="0 0 24 24" fill="none" xmlns="http://www.w3.org/2000/svg">
<g clip-path="url(#clip0_606_6880)">
<path d="M13.5 9H7.5C6.67158 9 6 9.67158 6 10.5C6 11.3284 6.67158 12 7.5 12H13.5C14.3284 12 15 11.3284 15 10.5C15 9.67158 14.3284 9 13.5 9Z" fill="black"/>
<path d="M23.5624 21.448L18.9196 16.8043C22.3968 12.1608 21.4513 5.57773 16.8079 2.10058C12.1645 -1.37656 5.58144 -0.431184 2.10425 4.21226C-1.37294 8.8557 -0.427471 15.4388 4.21597 18.9159C7.94661 21.7095 13.072 21.7108 16.804 18.9189L21.4487 23.5636C22.0324 24.1473 22.9787 24.1473 23.5624 23.5636C24.1461 22.98 24.1461 22.0336 23.5624 21.45V21.448ZM10.5525 18.0224C6.42654 18.0224 3.08183 14.6777 3.08183 10.5518C3.08183 6.42584 6.42659 3.08112 10.5525 3.08112C14.6784 3.08112 18.0231 6.42584 18.0231 10.5518C18.0188 14.6759 14.6766 18.0181 10.5525 18.0224Z" fill="black"/>
</g>
<defs>
<clipPath id="clip0_606_6880">
<rect width="24" height="24" fill="white"/>
</clipPath>
</defs>
</svg>
