<svg width="30" height="30" viewBox="0 0 30 30" fill="none" xmlns="http://www.w3.org/2000/svg">
<path fill-rule="evenodd" clip-rule="evenodd" d="M15 17.25C14.6685 17.25 14.3505 17.1183 14.1161 16.8839C13.8817 16.6495 13.75 16.3315 13.75 16V9.75C13.75 9.41848 13.8817 9.10054 14.1161 8.86612C14.3505 8.6317 14.6685 8.5 15 8.5C15.3315 8.5 15.6495 8.6317 15.8839 8.86612C16.1183 9.10054 16.25 9.41848 16.25 9.75V16C16.25 16.3315 16.1183 16.6495 15.8839 16.8839C15.6495 17.1183 15.3315 17.25 15 17.25Z" fill="black"/>
<path d="M13.6837 19.9471C13.6837 19.598 13.8224 19.2632 14.0692 19.0164C14.3161 18.7695 14.6509 18.6309 15 18.6309C15.3491 18.6309 15.6839 18.7695 15.9307 19.0164C16.1775 19.2632 16.3162 19.598 16.3162 19.9471C16.3162 20.2962 16.1775 20.631 15.9307 20.8778C15.6839 21.1247 15.3491 21.2634 15 21.2634C14.6509 21.2634 14.3161 21.1247 14.0692 20.8778C13.8224 20.631 13.6837 20.2962 13.6837 19.9471Z" fill="black"/>
<path fill-rule="evenodd" clip-rule="evenodd" d="M19.5087 5.80232L26.8537 19.2023C28.7437 22.6511 26.2625 26.8748 22.345 26.8748H7.65499C3.73749 26.8748 1.25499 22.6498 3.14624 19.2011L10.4912 5.80107C12.4487 2.23232 17.5512 2.23232 19.5087 5.80107V5.80232ZM17.2537 7.05232C16.2762 5.26607 13.7237 5.26607 12.7462 7.05232L5.39999 20.4498C4.45374 22.1748 5.69499 24.2861 7.65374 24.2861H22.3437C24.3025 24.2861 25.5437 22.1736 24.5975 20.4486L17.2537 7.05232Z" fill="black"/>
</svg>
