<svg width="24" height="24" viewBox="0 0 24 24" fill="none" xmlns="http://www.w3.org/2000/svg">
<g clip-path="url(#clip0_606_6809)">
<path d="M23.868 5.31214C23.9974 4.9354 24.0349 4.53319 23.9773 4.13902C23.9198 3.74486 23.7689 3.37015 23.5372 3.04611C23.3055 2.72208 22.9998 2.45809 22.6454 2.27615C22.2911 2.09421 21.8983 1.99958 21.5 2.00014H18.949C19.0165 1.79351 19.0386 1.57477 19.0139 1.35882C18.9892 1.14286 18.9182 0.934779 18.8057 0.748749C18.6933 0.562719 18.5421 0.403116 18.3624 0.28082C18.1827 0.158524 17.9788 0.0764091 17.7644 0.0400739C17.5501 0.00373866 17.3305 0.0140369 17.1206 0.0702667C16.9106 0.126497 16.7152 0.227336 16.5478 0.365911C16.3803 0.504486 16.2447 0.677539 16.1502 0.873273C16.0556 1.06901 16.0044 1.28282 16 1.50014C16 1.63275 15.9473 1.75993 15.8536 1.85369C15.7598 1.94746 15.6326 2.00014 15.5 2.00014H8.50001C8.3674 2.00014 8.24022 1.94746 8.14645 1.85369C8.05268 1.75993 8.00001 1.63275 8.00001 1.50014C7.9956 1.28282 7.94439 1.06901 7.84986 0.873273C7.75534 0.677539 7.61972 0.504486 7.45226 0.365911C7.28479 0.227336 7.08942 0.126497 6.87946 0.0702667C6.66949 0.0140369 6.44987 0.00373866 6.23557 0.0400739C6.02126 0.0764091 5.81731 0.158524 5.63761 0.28082C5.45792 0.403116 5.3067 0.562719 5.19427 0.748749C5.08185 0.934779 5.01085 1.14286 4.98613 1.35882C4.9614 1.57477 4.98353 1.79351 5.051 2.00014H2.5C2.10166 1.99958 1.70895 2.09421 1.35459 2.27615C1.00023 2.45809 0.69447 2.72208 0.462791 3.04611C0.231111 3.37015 0.0802171 3.74486 0.0226784 4.13902C-0.0348602 4.53319 0.00262264 4.9354 0.132004 5.31214C0.470233 6.44006 1.03509 7.48709 1.792 8.38914L5.031 21.8061C5.10376 22.4102 5.395 22.9668 5.84981 23.3709C6.30462 23.7751 6.89157 23.9989 7.50001 24.0001H16.5C17.1084 23.9989 17.6954 23.7751 18.1502 23.3709C18.605 22.9668 18.8962 22.4102 18.969 21.8061L22.208 8.38914C22.9649 7.48709 23.5298 6.44006 23.868 5.31214ZM16.559 19.0061L13.5 19.0001V14.5001C13.5044 13.4568 13.875 12.4482 14.547 11.6501C14.7906 11.8461 15.0892 11.961 15.4013 11.979C15.7134 11.9969 16.0232 11.9169 16.2876 11.7501C16.552 11.5833 16.7576 11.3381 16.8759 11.0488C16.9941 10.7594 17.019 10.4403 16.947 10.1361C17.2914 10.0492 17.6449 10.0036 18 10.0001C18 10.0001 18.656 9.99014 18.736 9.98714L16.559 19.0061ZM7.44101 19.0061L5.264 9.98714C5.344 9.99014 6.00001 10.0001 6.00001 10.0001C6.35382 10.0039 6.70594 10.0495 7.04901 10.1361C6.97705 10.4403 7.00192 10.7594 7.12014 11.0488C7.23837 11.3381 7.44403 11.5833 7.70841 11.7501C7.97278 11.9169 8.28265 11.9969 8.59472 11.979C8.90679 11.961 9.20546 11.8461 9.44901 11.6501C10.1225 12.4476 10.4945 13.4563 10.5 14.5001V19.0001L7.44101 19.0061ZM16.534 5.00014C17.3939 5.58383 18.2037 6.23809 18.955 6.95614C18.808 6.98314 18 7.00014 18 7.00014C16.8352 7.00072 15.6866 7.27258 14.6452 7.79417C13.6037 8.31576 12.6981 9.07275 12 10.0051C11.3019 9.07275 10.3963 8.31576 9.35483 7.79417C8.31338 7.27258 7.16477 7.00072 6.00001 7.00014C6.00001 7.00014 5.19201 6.98314 5.045 6.95614C5.79646 6.23824 6.60624 5.58399 7.46601 5.00014H16.534Z" fill="black"/>
</g>
<defs>
<clipPath id="clip0_606_6809">
<rect width="24" height="24" fill="white"/>
</clipPath>
</defs>
</svg>
