<svg width="24" height="24" viewBox="0 0 24 24" fill="none" xmlns="http://www.w3.org/2000/svg">
<g clip-path="url(#clip0_606_6721)">
<path d="M24 14C23.999 13.6503 23.9061 13.3071 23.7306 13.0047C23.555 12.7022 23.3031 12.4513 23 12.277V10.5C22.9968 7.7162 21.8895 5.04733 19.9211 3.07889C17.9526 1.11044 15.2838 0.00317604 12.5 0L11.5 0C8.71618 0.00317604 6.04731 1.11044 4.07887 3.07889C2.11043 5.04733 1.00316 7.7162 0.999987 10.5V12.277C0.700161 12.4537 0.451637 12.7056 0.278979 13.0078C0.10632 13.31 0.0155029 13.652 0.0155029 14C0.0155029 14.348 0.10632 14.69 0.278979 14.9922C0.451637 15.2944 0.700161 15.5463 0.999987 15.723V16.5C1.0021 18.4885 1.79296 20.3949 3.19902 21.801C4.60508 23.207 6.51151 23.9979 8.49998 24H15.5C17.4884 23.9979 19.3949 23.207 20.8009 21.801C22.207 20.3949 22.9978 18.4885 23 16.5V15.723C23.3031 15.5487 23.555 15.2978 23.7306 14.9953C23.9061 14.6929 23.999 14.3497 24 14ZM11.5 3H12.5C14.4884 3.00212 16.3949 3.79297 17.8009 5.19904C19.207 6.6051 19.9978 8.51153 20 10.5V12H3.99998V10.5C4.0021 8.51153 4.79296 6.6051 6.19902 5.19904C7.60508 3.79297 9.5115 3.00212 11.5 3ZM15.5 21H8.49998C7.30691 20.9987 6.16309 20.5241 5.31946 19.6805C4.47584 18.8369 4.00131 17.6931 3.99998 16.5V16.026C5.59198 16.152 6.17198 16.9 7.78398 18.299C8.2976 18.7506 8.95809 18.9996 9.64198 18.9996C10.3259 18.9996 10.9864 18.7506 11.5 18.299C13.818 16.287 13.87 16 17 16H20V16.5C19.9986 17.6931 19.5241 18.8369 18.6805 19.6805C17.8369 20.5241 16.693 20.9987 15.5 21ZM5.99998 8.5C5.99998 8.10218 6.15802 7.72064 6.43932 7.43934C6.72062 7.15804 7.10215 7 7.49998 7C7.8978 7 8.27933 7.15804 8.56064 7.43934C8.84194 7.72064 8.99998 8.10218 8.99998 8.5C8.99998 8.89782 8.84194 9.27936 8.56064 9.56066C8.27933 9.84196 7.8978 10 7.49998 10C7.10215 10 6.72062 9.84196 6.43932 9.56066C6.15802 9.27936 5.99998 8.89782 5.99998 8.5ZM9.99998 6.5C9.99998 6.10218 10.158 5.72064 10.4393 5.43934C10.7206 5.15804 11.1021 5 11.5 5C11.8978 5 12.2793 5.15804 12.5606 5.43934C12.8419 5.72064 13 6.10218 13 6.5C13 6.89782 12.8419 7.27936 12.5606 7.56066C12.2793 7.84196 11.8978 8 11.5 8C11.1021 8 10.7206 7.84196 10.4393 7.56066C10.158 7.27936 9.99998 6.89782 9.99998 6.5Z" fill="black"/>
</g>
<defs>
<clipPath id="clip0_606_6721">
<rect width="24" height="24" fill="white"/>
</clipPath>
</defs>
</svg>
