<svg width="24" height="24" viewBox="0 0 24 24" fill="none" xmlns="http://www.w3.org/2000/svg">
<path d="M16.5001 0H8.50012C6.77687 0.00211703 5.12479 0.687616 3.90627 1.90614C2.68774 3.12467 2.00224 4.77674 2.00012 6.5V19.5C2.00145 20.6931 2.47598 21.8369 3.3196 22.6805C4.16323 23.5241 5.30705 23.9987 6.50012 24H16.5001C17.9582 23.9981 19.3561 23.4181 20.3872 22.387C21.4182 21.356 21.9983 19.9581 22.0001 18.5V5.5C21.9983 4.04188 21.4182 2.64401 20.3872 1.61296C19.3561 0.58191 17.9582 0.00185226 16.5001 0V0ZM8.00012 3.051V15H6.50012C5.98795 15.0049 5.48049 15.0983 5.00012 15.276V6.5C5.0025 5.66062 5.30697 4.85016 5.85785 4.21684C6.40872 3.58352 7.16917 3.16967 8.00012 3.051ZM19.0001 18.5C19.0001 19.163 18.7367 19.7989 18.2679 20.2678C17.799 20.7366 17.1632 21 16.5001 21H6.50012C6.1023 21 5.72077 20.842 5.43946 20.5607C5.15816 20.2794 5.00012 19.8978 5.00012 19.5C5.00012 19.1022 5.15816 18.7206 5.43946 18.4393C5.72077 18.158 6.1023 18 6.50012 18H19.0001V18.5ZM11.0001 15V3H16.5001C17.1632 3 17.799 3.26339 18.2679 3.73223C18.7367 4.20107 19.0001 4.83696 19.0001 5.5V15H11.0001Z" fill="black"/>
</svg>
