<svg width="24" height="24" viewBox="0 0 24 24" fill="none" xmlns="http://www.w3.org/2000/svg">
<g clip-path="url(#clip0_606_6689)">
<path d="M12.9999 0C6.9349 0 1.9999 4.037 1.9999 9C2.00268 9.37551 2.0341 9.75027 2.0939 10.121C2.0759 10.138 2.0549 10.149 2.0369 10.167C1.38531 10.8206 0.980377 11.6798 0.891037 12.5984C0.801696 13.517 1.03347 14.4381 1.5469 15.205C0.512418 16.3929 -0.0395164 17.9253 -0.000100749 19.5C-0.0176679 20.0957 0.0867176 20.6887 0.306646 21.2426C0.526575 21.7966 0.857404 22.2997 1.27882 22.7211C1.70024 23.1425 2.20335 23.4733 2.75726 23.6933C3.31117 23.9132 3.90418 24.0176 4.4999 24C4.89334 23.9997 5.27072 23.8439 5.54967 23.5664C5.82863 23.289 5.98652 22.9124 5.9889 22.519C5.9919 22.1235 5.83939 21.7426 5.56424 21.4585C5.28908 21.1743 4.91331 21.0097 4.5179 21C4.31481 21.0217 4.10944 20.9979 3.91665 20.9304C3.72387 20.863 3.54849 20.7535 3.40321 20.61C3.25793 20.4664 3.14638 20.2923 3.07662 20.1004C3.00687 19.9084 2.98066 19.7033 2.9999 19.5C2.97828 18.9785 3.07729 18.459 3.28925 17.9821C3.5012 17.5051 3.82036 17.0835 4.2219 16.75C5.29457 16.9395 6.38271 17.0276 7.4719 17.013C7.6399 17.013 7.7969 17.003 7.9639 17C9.56011 17.6625 11.2717 18.0023 12.9999 18C19.0649 18 23.9999 13.963 23.9999 9C23.9999 4.037 19.0649 0 12.9999 0ZM12.9999 15C12.0755 14.9975 11.1555 14.8707 10.2649 14.623C9.61148 13.0255 8.73986 11.5262 7.6749 10.168C6.96183 9.4583 6.00549 9.04645 4.9999 9.016V9C4.9999 5.691 8.5889 3 12.9999 3C17.4109 3 20.9999 5.691 20.9999 9C20.9999 12.309 17.4109 15 12.9999 15Z" fill="black"/>
</g>
<defs>
<clipPath id="clip0_606_6689">
<rect width="24" height="24" fill="white"/>
</clipPath>
</defs>
</svg>
