<svg width="24" height="24" viewBox="0 0 24 24" fill="none" xmlns="http://www.w3.org/2000/svg">
<g clip-path="url(#clip0_606_6685)">
<path d="M23 0.98782C22.6458 0.63451 22.2178 0.364092 21.7466 0.196022C21.2754 0.027952 20.7728 -0.0335912 20.275 0.0158199C17.577 0.27682 8.49299 1.40582 4.91999 4.97882C3.24221 6.66848 2.22242 8.90137 2.04406 11.2758C1.86569 13.6503 2.54046 16.0105 3.94699 17.9318L0.438992 21.4388C0.157598 21.7202 -0.000488281 22.1019 -0.000488281 22.4998C-0.000488281 22.8978 0.157598 23.2794 0.438992 23.5608C0.720387 23.8422 1.10204 24.0003 1.49999 24.0003C1.89794 24.0003 2.2796 23.8422 2.56099 23.5608L6.06799 20.0528C7.98934 21.4594 10.3495 22.1341 12.724 21.9558C15.0984 21.7774 17.3313 20.7576 19.021 19.0798C22.644 15.4568 23.737 6.39982 23.985 3.70882C24.0319 3.21068 23.9679 2.70833 23.7976 2.23787C23.6273 1.7674 23.3549 1.34049 23 0.98782ZM16.9 16.9578C15.7748 18.0765 14.3025 18.7792 12.7251 18.9504C11.1477 19.1216 9.55897 18.7511 8.21999 17.8998L16.561 9.55982C16.8424 9.27843 17.0005 8.89677 17.0005 8.49882C17.0005 8.10087 16.8424 7.71922 16.561 7.43782C16.2796 7.15643 15.8979 6.99834 15.5 6.99834C15.102 6.99834 14.7204 7.15643 14.439 7.43782L6.09999 15.7798C5.24869 14.4408 4.8782 12.8521 5.04939 11.2747C5.22058 9.69727 5.92327 8.225 7.04199 7.09982C9.32199 4.81982 15.751 3.46782 20.565 2.99982C20.6232 2.99356 20.6821 3.00046 20.7374 3.02002C20.7926 3.03958 20.8427 3.07129 20.884 3.11282C20.9266 3.1537 20.9592 3.20382 20.9793 3.25931C20.9994 3.31479 21.0065 3.37416 21 3.43282C20.555 8.22482 19.216 14.6418 16.9 16.9578Z" fill="black"/>
</g>
<defs>
<clipPath id="clip0_606_6685">
<rect width="24" height="24" fill="white"/>
</clipPath>
</defs>
</svg>
