<svg width="24" height="24" viewBox="0 0 24 24" fill="none" xmlns="http://www.w3.org/2000/svg">
<path d="M16.5001 0H7.50012C6.04192 0.00158817 4.64389 0.581561 3.61279 1.61267C2.58168 2.64377 2.00171 4.0418 2.00012 5.5V18.5C2.00171 19.9582 2.58168 21.3562 3.61279 22.3873C4.64389 23.4184 6.04192 23.9984 7.50012 24H16.5001C17.9583 23.9984 19.3563 23.4184 20.3875 22.3873C21.4186 21.3562 21.9985 19.9582 22.0001 18.5V5.5C21.9985 4.0418 21.4186 2.64377 20.3875 1.61267C19.3563 0.581561 17.9583 0.00158817 16.5001 0V0ZM19.0001 18.5C19.0001 19.163 18.7367 19.7989 18.2679 20.2678C17.799 20.7366 17.1632 21 16.5001 21H13.5001V20.5C13.5001 20.1022 13.3421 19.7206 13.0608 19.4393C12.7795 19.158 12.3979 19 12.0001 19C11.6023 19 11.2208 19.158 10.9395 19.4393C10.6582 19.7206 10.5001 20.1022 10.5001 20.5V21H7.50012C6.83708 21 6.2012 20.7366 5.73236 20.2678C5.26351 19.7989 5.00012 19.163 5.00012 18.5V5.5C5.00012 4.83696 5.26351 4.20107 5.73236 3.73223C6.2012 3.26339 6.83708 3 7.50012 3H16.5001C17.1632 3 17.799 3.26339 18.2679 3.73223C18.7367 4.20107 19.0001 4.83696 19.0001 5.5V18.5ZM16.0001 16.5C16.0001 16.8978 15.8421 17.2794 15.5608 17.5607C15.2795 17.842 14.8979 18 14.5001 18H9.50012C9.1023 18 8.72077 17.842 8.43946 17.5607C8.15816 17.2794 8.00012 16.8978 8.00012 16.5C8.00012 16.1022 8.15816 15.7206 8.43946 15.4393C8.72077 15.158 9.1023 15 9.50012 15H14.5001C14.8979 15 15.2795 15.158 15.5608 15.4393C15.8421 15.7206 16.0001 16.1022 16.0001 16.5ZM12.0001 4C10.9393 4 9.92184 4.42143 9.17169 5.17157C8.42155 5.92172 8.00012 6.93913 8.00012 8V11.5C8.00409 11.8508 8.13091 12.1891 8.3585 12.4561C8.5861 12.7231 8.90009 12.9019 9.24585 12.9613C9.59161 13.0208 9.94727 12.9572 10.251 12.7815C10.5547 12.6059 10.7872 12.3293 10.9081 12H13.0921C13.213 12.3293 13.4456 12.6059 13.7493 12.7815C14.053 12.9572 14.4086 13.0208 14.7544 12.9613C15.1002 12.9019 15.4141 12.7231 15.6417 12.4561C15.8693 12.1891 15.9962 11.8508 16.0001 11.5V8C16.0001 6.93913 15.5787 5.92172 14.8285 5.17157C14.0784 4.42143 13.061 4 12.0001 4ZM12.0001 7C12.2653 7 12.5197 7.10536 12.7072 7.29289C12.8948 7.48043 13.0001 7.73478 13.0001 8V9H11.0001V8C11.0001 7.73478 11.1055 7.48043 11.293 7.29289C11.4806 7.10536 11.7349 7 12.0001 7Z" fill="black"/>
</svg>
