<svg width="24" height="24" viewBox="0 0 24 24" fill="none" xmlns="http://www.w3.org/2000/svg">
<g clip-path="url(#clip0_606_6513)">
<path d="M21.765 5.8185L15.192 1.0375C14.3124 0.400406 13.2616 0.0425744 12.176 0.010498H12.152H12.133H12.108C12.037 0.010498 11.967 0.010498 11.897 0.010498H11.861H11.842H11.826C10.7392 0.0417752 9.68706 0.400035 8.807 1.0385L2.235 5.8185C1.54376 6.32319 0.981178 6.98368 0.592867 7.7464C0.204556 8.50912 0.00144477 9.35262 0 10.2085C0.00211081 10.9483 0.296945 11.6573 0.82009 12.1804C1.34323 12.7036 2.05216 12.9984 2.792 13.0005H10.5V22.5005C10.5 22.8983 10.658 23.2799 10.9393 23.5612C11.2206 23.8425 11.6022 24.0005 12 24.0005C12.3978 24.0005 12.7794 23.8425 13.0607 23.5612C13.342 23.2799 13.5 22.8983 13.5 22.5005V13.0005H21.208C21.9478 12.9984 22.6568 12.7036 23.1799 12.1804C23.7031 11.6573 23.9979 10.9483 24 10.2085C23.9986 9.35262 23.7954 8.50912 23.4071 7.7464C23.0188 6.98368 22.4562 6.32319 21.765 5.8185ZM14.638 10.0005H9.362V9.8385C9.36157 9.38201 9.49622 8.93561 9.749 8.5555C9.77 8.5235 9.789 8.4925 9.808 8.4605L12 4.5615L14.192 8.4615C14.211 8.4935 14.23 8.5245 14.251 8.5565C14.5038 8.93661 14.6384 9.38301 14.638 9.8395V10.0005ZM4 8.2445L8.206 5.1845L7.217 6.9445C6.65724 7.80583 6.35985 8.81126 6.361 9.8385V10.0005H3.009C3.03951 9.65409 3.14371 9.3182 3.31463 9.01535C3.48554 8.71249 3.71922 8.44967 4 8.2445ZM17.638 10.0005V9.8385C17.6392 8.81126 17.3418 7.80583 16.782 6.9445L15.792 5.1845L20 8.2445C20.2808 8.44967 20.5145 8.71249 20.6854 9.01535C20.8563 9.3182 20.9605 9.65409 20.991 10.0005H17.638Z" fill="black"/>
<path d="M4.591 18.0005H3V15.5005C3 15.1027 2.84196 14.7211 2.56066 14.4398C2.27936 14.1585 1.89782 14.0005 1.5 14.0005C1.10218 14.0005 0.720644 14.1585 0.43934 14.4398C0.158035 14.7211 0 15.1027 0 15.5005L0 22.5005C0 22.8983 0.158035 23.2798 0.43934 23.5611C0.720644 23.8425 1.10218 24.0005 1.5 24.0005C1.89782 24.0005 2.27936 23.8425 2.56066 23.5611C2.84196 23.2798 3 22.8983 3 22.5005V21.0005H4.591C4.69939 21.0008 4.80327 21.0439 4.87991 21.1206C4.95656 21.1972 4.99974 21.3011 5 21.4095V22.5005C5 22.8983 5.15804 23.2798 5.43934 23.5611C5.72064 23.8425 6.10218 24.0005 6.5 24.0005C6.89782 24.0005 7.27936 23.8425 7.56066 23.5611C7.84196 23.2798 8 22.8983 8 22.5005V21.4095C7.99894 20.5057 7.63944 19.6392 7.00036 19.0001C6.36128 18.361 5.4948 18.0015 4.591 18.0005Z" fill="black"/>
<path d="M22.5001 14.0005C22.1023 14.0005 21.7208 14.1585 21.4395 14.4398C21.1581 14.7211 21.0001 15.1027 21.0001 15.5005V18.0005H19.4091C18.5053 18.0015 17.6388 18.361 16.9998 19.0001C16.3607 19.6392 16.0012 20.5057 16.0001 21.4095V22.5005C16.0001 22.8983 16.1582 23.2798 16.4395 23.5611C16.7208 23.8425 17.1023 24.0005 17.5001 24.0005C17.8979 24.0005 18.2795 23.8425 18.5608 23.5611C18.8421 23.2798 19.0001 22.8983 19.0001 22.5005V21.4095C19.0004 21.3011 19.0436 21.1972 19.1202 21.1206C19.1968 21.0439 19.3007 21.0008 19.4091 21.0005H21.0001V22.5005C21.0001 22.8983 21.1581 23.2798 21.4395 23.5611C21.7208 23.8425 22.1023 24.0005 22.5001 24.0005C22.8979 24.0005 23.2795 23.8425 23.5608 23.5611C23.8421 23.2798 24.0001 22.8983 24.0001 22.5005V15.5005C24.0001 15.1027 23.8421 14.7211 23.5608 14.4398C23.2795 14.1585 22.8979 14.0005 22.5001 14.0005Z" fill="black"/>
</g>
<defs>
<clipPath id="clip0_606_6513">
<rect width="24" height="24" fill="white"/>
</clipPath>
</defs>
</svg>
