<svg width="24" height="24" viewBox="0 0 24 24" fill="none" xmlns="http://www.w3.org/2000/svg">
<g clip-path="url(#clip0_606_6791)">
<path d="M22.562 8.5C23.2537 7.79844 23.7223 6.90798 23.9091 5.94068C24.0958 4.97338 23.9923 3.97245 23.6116 3.06385C23.2308 2.15524 22.5898 1.37955 21.7692 0.834372C20.9487 0.289197 19.9852 -0.00110165 19 3.14166e-06H5.00004C4.01487 -0.00110165 3.05139 0.289197 2.23083 0.834372C1.41026 1.37955 0.76927 2.15524 0.38851 3.06385C0.0077506 3.97245 -0.0957667 4.97338 0.0909838 5.94068C0.277734 6.90798 0.746409 7.79844 1.43804 8.5C0.51664 9.43189 -0.00012207 10.6895 -0.00012207 12C-0.00012207 13.3105 0.51664 14.5681 1.43804 15.5C0.746409 16.2016 0.277734 17.092 0.0909838 18.0593C-0.0957667 19.0266 0.0077506 20.0276 0.38851 20.9362C0.76927 21.8448 1.41026 22.6205 2.23083 23.1656C3.05139 23.7108 4.01487 24.0011 5.00004 24H19C19.9852 24.0011 20.9487 23.7108 21.7692 23.1656C22.5898 22.6205 23.2308 21.8448 23.6116 20.9362C23.9923 20.0276 24.0958 19.0266 23.9091 18.0593C23.7223 17.092 23.2537 16.2016 22.562 15.5C23.4834 14.5681 24.0002 13.3105 24.0002 12C24.0002 10.6895 23.4834 9.43189 22.562 8.5ZM5.00004 14C4.4696 14 3.96089 13.7893 3.58582 13.4142C3.21075 13.0391 3.00004 12.5304 3.00004 12C3.00004 11.4696 3.21075 10.9609 3.58582 10.5858C3.96089 10.2107 4.4696 10 5.00004 10V10.5C5.00004 10.8978 5.15807 11.2794 5.43938 11.5607C5.72068 11.842 6.10221 12 6.50004 12C6.89786 12 7.27939 11.842 7.5607 11.5607C7.842 11.2794 8.00004 10.8978 8.00004 10.5V10H10V10.5C10 10.8978 10.1581 11.2794 10.4394 11.5607C10.7207 11.842 11.1022 12 11.5 12C11.8979 12 12.2794 11.842 12.5607 11.5607C12.842 11.2794 13 10.8978 13 10.5V10H19C19.5305 10 20.0392 10.2107 20.4142 10.5858C20.7893 10.9609 21 11.4696 21 12C21 12.5304 20.7893 13.0391 20.4142 13.4142C20.0392 13.7893 19.5305 14 19 14H5.00004ZM5.00004 3V3.5C5.00004 3.89783 5.15807 4.27936 5.43938 4.56066C5.72068 4.84197 6.10221 5 6.50004 5C6.89786 5 7.27939 4.84197 7.5607 4.56066C7.842 4.27936 8.00004 3.89783 8.00004 3.5V3H10V3.5C10 3.89783 10.1581 4.27936 10.4394 4.56066C10.7207 4.84197 11.1022 5 11.5 5C11.8979 5 12.2794 4.84197 12.5607 4.56066C12.842 4.27936 13 3.89783 13 3.5V3H19C19.5305 3 20.0392 3.21072 20.4142 3.58579C20.7893 3.96086 21 4.46957 21 5C21 5.53044 20.7893 6.03914 20.4142 6.41422C20.0392 6.78929 19.5305 7 19 7H5.00004C4.4696 7 3.96089 6.78929 3.58582 6.41422C3.21075 6.03914 3.00004 5.53044 3.00004 5C3.00004 4.46957 3.21075 3.96086 3.58582 3.58579C3.96089 3.21072 4.4696 3 5.00004 3ZM19 21H5.00004C4.4696 21 3.96089 20.7893 3.58582 20.4142C3.21075 20.0391 3.00004 19.5304 3.00004 19C3.00004 18.4696 3.21075 17.9609 3.58582 17.5858C3.96089 17.2107 4.4696 17 5.00004 17V17.5C5.00004 17.8978 5.15807 18.2794 5.43938 18.5607C5.72068 18.842 6.10221 19 6.50004 19C6.89786 19 7.27939 18.842 7.5607 18.5607C7.842 18.2794 8.00004 17.8978 8.00004 17.5V17H10V17.5C10 17.8978 10.1581 18.2794 10.4394 18.5607C10.7207 18.842 11.1022 19 11.5 19C11.8979 19 12.2794 18.842 12.5607 18.5607C12.842 18.2794 13 17.8978 13 17.5V17H19C19.5305 17 20.0392 17.2107 20.4142 17.5858C20.7893 17.9609 21 18.4696 21 19C21 19.5304 20.7893 20.0391 20.4142 20.4142C20.0392 20.7893 19.5305 21 19 21Z" fill="black"/>
</g>
<defs>
<clipPath id="clip0_606_6791">
<rect width="24" height="24" fill="white"/>
</clipPath>
</defs>
</svg>
