<svg width="24" height="24" viewBox="0 0 24 24" fill="none" xmlns="http://www.w3.org/2000/svg">
<g clip-path="url(#clip0_606_6845)">
<path d="M19.4201 9.592C19.4736 9.23046 19.5003 8.86547 19.5001 8.5C19.5001 6.51088 18.7099 4.60322 17.3034 3.1967C15.8969 1.79018 13.9892 1 12.0001 1C10.011 1 8.10331 1.79018 6.69678 3.1967C5.29026 4.60322 4.50008 6.51088 4.50008 8.5C4.49984 8.86547 4.52658 9.23046 4.58008 9.592C3.60193 10.0053 2.72269 10.6217 2.00056 11.4002C1.27843 12.1788 0.729856 13.1018 0.391145 14.1083C0.0524336 15.1147 -0.0686957 16.1816 0.0357716 17.2383C0.140239 18.2951 0.467921 19.3176 0.997136 20.2383C1.52635 21.1589 2.24503 21.9567 3.10563 22.5788C3.96623 23.2008 4.94913 23.6331 5.98928 23.8469C7.02944 24.0607 8.10314 24.0512 9.13934 23.819C10.1756 23.5868 11.1506 23.1372 12.0001 22.5C12.8489 23.1421 13.8246 23.5961 14.8624 23.8321C15.9002 24.068 16.9763 24.0803 18.0192 23.8682C19.0621 23.6562 20.048 23.2246 20.9113 22.6021C21.7745 21.9797 22.4954 21.1807 23.0261 20.2581C23.5567 19.3356 23.8849 18.3106 23.9889 17.2515C24.0929 16.1923 23.9703 15.1231 23.6292 14.115C23.2881 13.1068 22.7364 12.1828 22.0107 11.4044C21.2849 10.6259 20.4019 10.0108 19.4201 9.6V9.592ZM12.0001 4C13.1932 4.00132 14.337 4.47585 15.1806 5.31948C16.0242 6.16311 16.4988 7.30693 16.5001 8.5C16.4999 8.66705 16.4905 8.83397 16.4721 9C14.8585 9.00339 13.2894 9.52969 12.0001 10.5C10.7108 9.52969 9.14171 9.00339 7.52808 9C7.50965 8.83397 7.5003 8.66705 7.50008 8.5C7.50141 7.30693 7.97594 6.16311 8.81957 5.31948C9.66319 4.47585 10.807 4.00132 12.0001 4ZM3.00008 16.5C3.00078 15.642 3.2465 14.802 3.70834 14.0788C4.17017 13.3557 4.82892 12.7795 5.60708 12.418C6.4269 13.7505 7.64052 14.7954 9.08008 15.408C8.83437 17.0763 9.1585 18.7787 10.0001 20.24C9.32264 20.6926 8.53501 20.9529 7.72124 20.9929C6.90748 21.0329 6.09811 20.8513 5.37949 20.4674C4.66088 20.0834 4.05999 19.5116 3.64093 18.8129C3.22188 18.1141 3.00038 17.3148 3.00008 16.5ZM16.5001 21C15.6097 21.0013 14.7391 20.7367 14.0001 20.24C14.8417 18.7787 15.1658 17.0763 14.9201 15.408C16.3597 14.7954 17.5733 13.7505 18.3931 12.418C19.3228 12.8494 20.0774 13.5852 20.532 14.5037C20.9867 15.4222 21.1142 16.4685 20.8934 17.4693C20.6727 18.4701 20.1169 19.3656 19.318 20.0077C18.5191 20.6497 17.525 20.9998 16.5001 21Z" fill="black"/>
</g>
<defs>
<clipPath id="clip0_606_6845">
<rect width="24" height="24" fill="white"/>
</clipPath>
</defs>
</svg>
