<svg width="24" height="24" viewBox="0 0 24 24" fill="none" xmlns="http://www.w3.org/2000/svg">
<g clip-path="url(#clip0_606_6730)">
<path d="M13.4182 15.0001C14.9016 15.0001 16.3516 14.5603 17.585 13.7362C18.8184 12.912 19.7797 11.7407 20.3473 10.3703C20.915 8.99981 21.0635 7.49181 20.7741 6.03695C20.4847 4.58209 19.7704 3.24572 18.7215 2.19683C17.6726 1.14793 16.3363 0.433629 14.8814 0.144239C13.4266 -0.14515 11.9186 0.00337517 10.5481 0.571032C9.17767 1.13869 8.00634 2.09998 7.18223 3.33335C6.35812 4.56672 5.91825 6.01677 5.91825 7.50013C5.92037 9.4886 6.71122 11.395 8.11728 12.8011C9.52335 14.2072 11.4298 14.998 13.4182 15.0001ZM13.4182 3.00013C14.3083 3.00013 15.1783 3.26405 15.9183 3.75852C16.6583 4.25298 17.2351 4.95579 17.5757 5.77805C17.9163 6.60032 18.0054 7.50512 17.8318 8.37804C17.6581 9.25095 17.2296 10.0528 16.6002 10.6821C15.9709 11.3114 15.1691 11.74 14.2961 11.9137C13.4232 12.0873 12.5184 11.9982 11.6962 11.6576C10.8739 11.317 10.1711 10.7402 9.67663 10.0002C9.18217 9.26017 8.91825 8.39015 8.91825 7.50013C8.91825 6.30666 9.39235 5.16206 10.2363 4.31815C11.0802 3.47423 12.2248 3.00013 13.4182 3.00013ZM23.7372 14.5561C22.6835 16.0914 21.2997 17.3715 19.6873 18.3029C18.0749 19.2343 16.2746 19.7934 14.4182 19.9391V21.0001H17.5002C17.8981 21.0001 18.2796 21.1582 18.5609 21.4395C18.8422 21.7208 19.0002 22.1023 19.0002 22.5001C19.0002 22.898 18.8422 23.2795 18.5609 23.5608C18.2796 23.8421 17.8981 24.0001 17.5002 24.0001H8.50025C8.10242 24.0001 7.72089 23.8421 7.43959 23.5608C7.15828 23.2795 7.00025 22.898 7.00025 22.5001C7.00025 22.1023 7.15828 21.7208 7.43959 21.4395C7.72089 21.1582 8.10242 21.0001 8.50025 21.0001H11.4182V19.8251C9.36507 19.4939 7.42713 18.6552 5.78028 17.3851C4.13344 16.115 2.82984 14.4538 1.98779 12.5521C1.14575 10.6505 0.791925 8.56871 0.958428 6.49567C1.12493 4.42263 1.80649 2.42398 2.94125 0.681129C3.04743 0.513104 3.18594 0.367856 3.34874 0.253826C3.51154 0.139796 3.69538 0.0592581 3.88957 0.0168923C4.08376 -0.0254735 4.28444 -0.0288223 4.47994 0.00704053C4.67544 0.0429033 4.86186 0.117263 5.02837 0.225797C5.19489 0.334332 5.33817 0.474877 5.44989 0.639266C5.56162 0.803655 5.63956 0.98861 5.67918 1.18338C5.71881 1.37815 5.71933 1.57886 5.68071 1.77383C5.6421 1.96881 5.56512 2.15416 5.45425 2.31913C4.05643 4.41553 3.54865 6.98136 4.04262 9.45215C4.53659 11.9229 5.99185 14.0963 8.08825 15.4941C10.1846 16.892 12.7505 17.3997 15.2213 16.9058C17.692 16.4118 19.8654 14.9565 21.2632 12.8601C21.3749 12.6977 21.5174 12.5588 21.6827 12.4515C21.848 12.3441 22.0328 12.2703 22.2266 12.2344C22.4204 12.1985 22.6194 12.201 22.8121 12.242C23.0049 12.283 23.1878 12.3615 23.3502 12.4731C23.5127 12.5848 23.6515 12.7273 23.7589 12.8926C23.8663 13.0579 23.94 13.2427 23.976 13.4365C24.0119 13.6303 24.0093 13.8293 23.9683 14.022C23.9274 14.2148 23.8489 14.3977 23.7372 14.5601V14.5561Z" fill="black"/>
</g>
<defs>
<clipPath id="clip0_606_6730">
<rect width="24" height="24" fill="white"/>
</clipPath>
</defs>
</svg>
