<svg width="24" height="24" viewBox="0 0 24 24" fill="none" xmlns="http://www.w3.org/2000/svg">
<path d="M19.9999 14.141V12C19.9977 10.5978 19.6271 9.22075 18.925 8.00692C18.223 6.79309 17.2142 5.78511 15.9999 5.084V4C15.9999 2.93913 15.5785 1.92172 14.8283 1.17157C14.0782 0.421427 13.0607 0 11.9999 0C10.939 0 9.9216 0.421427 9.17145 1.17157C8.42131 1.92172 7.99988 2.93913 7.99988 4V5.084C6.78551 5.78511 5.77676 6.79309 5.07472 8.00692C4.37268 9.22075 4.00202 10.5978 3.99988 12V14.141C3.14281 14.3607 2.38304 14.859 1.84 15.5575C1.29695 16.256 1.00143 17.1152 0.999878 18V20C0.999878 21.0609 1.42131 22.0783 2.17145 22.8284C2.9216 23.5786 3.93901 24 4.99988 24H18.9999C20.0607 24 21.0782 23.5786 21.8283 22.8284C22.5784 22.0783 22.9999 21.0609 22.9999 20V18C22.9983 17.1152 22.7028 16.256 22.1598 15.5575C21.6167 14.859 20.857 14.3607 19.9999 14.141ZM16.9999 21H6.99988V20.742C7.53574 19.9016 8.27477 19.2099 9.14868 18.7307C10.0226 18.2515 11.0032 18.0002 11.9999 18.0002C12.9966 18.0002 13.9772 18.2515 14.8511 18.7307C15.725 19.2099 16.464 19.9016 16.9999 20.742V21ZM16.9999 16.537C15.5248 15.5353 13.7829 14.9997 11.9999 14.9997C10.2169 14.9997 8.47493 15.5353 6.99988 16.537V12C6.99988 10.6739 7.52666 9.40215 8.46434 8.46447C9.40203 7.52678 10.6738 7 11.9999 7C13.326 7 14.5977 7.52678 15.5354 8.46447C16.4731 9.40215 16.9999 10.6739 16.9999 12V16.537ZM14.9999 11.5C14.9999 11.8978 14.8418 12.2794 14.5605 12.5607C14.2792 12.842 13.8977 13 13.4999 13H10.4999C10.1021 13 9.72052 12.842 9.43922 12.5607C9.15791 12.2794 8.99988 11.8978 8.99988 11.5C8.99988 11.1022 9.15791 10.7206 9.43922 10.4393C9.72052 10.158 10.1021 10 10.4999 10H13.4999C13.8977 10 14.2792 10.158 14.5605 10.4393C14.8418 10.7206 14.9999 11.1022 14.9999 11.5Z" fill="black"/>
</svg>
