<svg width="24" height="24" viewBox="0 0 24 24" fill="none" xmlns="http://www.w3.org/2000/svg">
<g clip-path="url(#clip0_606_6955)">
<path d="M17.7349 21.0161H13.4999V4.54308L16.6849 7.72808C16.9663 8.00934 17.3479 8.1673 17.7458 8.1672C17.9428 8.16716 18.1378 8.12831 18.3198 8.05288C18.5018 7.97745 18.6671 7.86691 18.8064 7.72758C18.9457 7.58824 19.0561 7.42285 19.1315 7.24082C19.2068 7.0588 19.2456 6.86372 19.2455 6.66672C19.2455 6.46972 19.2066 6.27466 19.1312 6.09268C19.0558 5.91069 18.9452 5.74535 18.8059 5.60608L14.0749 0.876083C13.5165 0.341571 12.7734 0.0432129 12.0004 0.0432129C11.2274 0.0432129 10.4843 0.341571 9.9259 0.876083L5.1939 5.60608C4.9125 5.88734 4.75437 6.26887 4.75427 6.66672C4.75418 7.06458 4.91214 7.44618 5.1934 7.72758C5.47466 8.00897 5.85619 8.16711 6.25405 8.1672C6.6519 8.1673 7.0335 8.00934 7.3149 7.72808L10.4999 4.47908V21.0161H6.2649C5.86707 21.0161 5.48554 21.1741 5.20424 21.4554C4.92293 21.7367 4.7649 22.1182 4.7649 22.5161C4.7649 22.9139 4.92293 23.2954 5.20424 23.5767C5.48554 23.858 5.86707 24.0161 6.2649 24.0161H17.7349C18.1327 24.0161 18.5143 23.858 18.7956 23.5767C19.0769 23.2954 19.2349 22.9139 19.2349 22.5161C19.2349 22.1182 19.0769 21.7367 18.7956 21.4554C18.5143 21.1741 18.1327 21.0161 17.7349 21.0161Z" fill="black"/>
</g>
<defs>
<clipPath id="clip0_606_6955">
<rect width="24" height="24" fill="white"/>
</clipPath>
</defs>
</svg>
