<svg width="24" height="24" viewBox="0 0 24 24" fill="none" xmlns="http://www.w3.org/2000/svg">
<g clip-path="url(#clip0_606_6879)">
<path d="M17.4999 0H6.49988C5.04176 0.00185226 3.64389 0.58191 2.61284 1.61296C1.58179 2.64401 1.00173 4.04188 0.999878 5.5V20.472C1.00063 21.1724 1.21148 21.8564 1.60516 22.4356C1.99885 23.0149 2.55726 23.4627 3.20818 23.7212C3.8591 23.9796 4.5726 24.0369 5.25641 23.8855C5.94021 23.7341 6.56288 23.3811 7.04388 22.872L11.9559 17.672L16.9689 22.922C17.4514 23.4272 18.0741 23.7764 18.7568 23.9248C19.4395 24.0731 20.1509 24.0137 20.7996 23.7543C21.4482 23.4949 22.0044 23.0473 22.3965 22.4691C22.7887 21.8909 22.9988 21.2086 22.9999 20.51V5.5C22.998 4.04188 22.418 2.64401 21.3869 1.61296C20.3559 0.58191 18.958 0.00185226 17.4999 0V0ZM19.9999 20.51C19.9997 20.6097 19.9697 20.7071 19.9137 20.7896C19.8578 20.8722 19.7784 20.9361 19.6859 20.9732C19.5933 21.0103 19.4918 21.0188 19.3943 20.9978C19.2968 20.9767 19.2079 20.927 19.1389 20.855L13.0389 14.464C12.8983 14.3168 12.7293 14.1998 12.5421 14.12C12.3549 14.0403 12.1534 13.9994 11.9499 14C11.7464 14.0006 11.5453 14.0426 11.3586 14.1234C11.1719 14.2042 11.0036 14.3221 10.8639 14.47L4.86388 20.815C4.79692 20.8906 4.70777 20.9431 4.60917 20.9651C4.51057 20.987 4.40756 20.9771 4.31488 20.937C4.2194 20.9036 4.13722 20.8403 4.08048 20.7566C4.02375 20.6728 3.99549 20.5731 3.99988 20.472V5.5C3.99988 4.83696 4.26327 4.20107 4.73211 3.73223C5.20095 3.26339 5.83684 3 6.49988 3H17.4999C18.1629 3 18.7988 3.26339 19.2676 3.73223C19.7365 4.20107 19.9999 4.83696 19.9999 5.5V20.51Z" fill="black"/>
</g>
<defs>
<clipPath id="clip0_606_6879">
<rect width="24" height="24" fill="white"/>
</clipPath>
</defs>
</svg>
