<svg width="24" height="24" viewBox="0 0 24 24" fill="none" xmlns="http://www.w3.org/2000/svg">
<g clip-path="url(#clip0_606_6526)">
<path d="M23.9641 10.4167C23.6623 8.19462 22.7459 6.101 21.318 4.37187C19.8902 2.64274 18.0077 1.34686 15.8827 0.630312C13.7578 -0.0862345 11.475 -0.194952 9.29163 0.316415C7.10824 0.827783 5.11111 1.9389 3.52538 3.52451C1.93966 5.11012 0.828391 7.10717 0.316862 9.29052C-0.194667 11.4739 -0.0861174 13.7567 0.630273 15.8817C1.34666 18.0066 2.64241 19.8892 4.37143 21.3172C6.10045 22.7452 8.194 23.6618 10.4161 23.9637C10.5944 23.9877 10.7741 23.9997 10.9541 23.9997C12.1062 23.9907 13.2081 23.5271 14.0201 22.7097L22.7091 14.0207C23.1797 13.5558 23.5376 12.9892 23.7551 12.3645C23.9727 11.7397 24.0442 11.0734 23.9641 10.4167ZM3.05706 11.0007C3.29226 8.97131 4.20777 7.08139 5.65444 5.63886C7.1011 4.19633 8.99364 3.28623 11.0237 3.05684C13.0537 2.82745 15.1016 3.2923 16.8337 4.37564C18.5658 5.45898 19.8799 7.09696 20.5621 9.0227C17.538 9.13655 14.6686 10.3888 12.5286 12.5286C10.3887 14.6683 9.13617 17.5376 9.02206 20.5617C7.08792 19.8851 5.44255 18.5688 4.35794 16.8303C3.27333 15.0919 2.81441 13.0353 3.05706 11.0007ZM12.0271 20.4577C12.1618 18.2656 13.0934 16.1984 14.6465 14.6455C16.1996 13.0926 18.2669 12.1612 20.4591 12.0267L12.0271 20.4577Z" fill="black"/>
</g>
<defs>
<clipPath id="clip0_606_6526">
<rect width="24" height="24" fill="white"/>
</clipPath>
</defs>
</svg>
