<svg width="24" height="24" viewBox="0 0 24 24" fill="none" xmlns="http://www.w3.org/2000/svg">
<g clip-path="url(#clip0_606_6873)">
<path d="M23.5603 1.12044C22.9748 0.535048 22.0255 0.535048 21.44 1.12044L16.6773 5.88307C14.7598 4.16007 11.9037 3.99765 9.80331 5.4922C8.56696 6.41242 7.19767 7.13887 5.74248 7.64657L3.95401 8.17043C1.03979 9.02411 -0.63059 12.0786 0.223132 14.9929C0.288036 15.2144 0.36681 15.4316 0.459033 15.6433C1.54697 18.3406 3.54168 20.5739 6.09942 21.9585C8.11606 22.9052 10.3254 23.3693 12.5526 23.3141H12.6156C13.3662 23.3143 14.0966 23.0708 14.697 22.6203C17.8462 20.3585 19.9991 16.9665 20.7052 13.154C21.0182 11.3573 20.4284 9.52159 19.1276 8.2434L18.8397 7.96349L23.5633 3.23886C24.1466 2.65267 24.1453 1.70495 23.5603 1.12044ZM12.8834 20.23C12.8011 20.2888 12.7016 20.3187 12.6005 20.3149C11.5501 20.3146 10.5023 20.2078 9.4734 19.996C10.8119 19.1587 11.9646 18.056 12.8604 16.756L13.3543 16.0292C13.8338 15.3539 13.675 14.4178 12.9997 13.9383C12.3245 13.4589 11.3884 13.6176 10.9089 14.2929C10.8972 14.3092 10.8859 14.3258 10.875 14.3427L10.3811 15.0675C9.56249 16.2636 8.45393 17.2325 7.15905 17.8837L6.12135 18.4045C5.53868 17.9316 5.01688 17.3883 4.5678 16.787C5.95462 16.2213 7.21908 15.3931 8.29174 14.3477C8.87479 13.7596 8.87062 12.8101 8.28246 12.227C7.70612 11.6558 6.7799 11.6466 6.19235 12.2063C5.3129 13.0599 4.26147 13.716 3.10825 14.1308C2.72132 12.8179 3.47199 11.4399 4.78486 11.053C4.78983 11.0516 4.7948 11.0501 4.79977 11.0487L6.58627 10.5238C8.12126 10.0122 9.57622 9.28625 10.908 8.36744L17.2342 14.5326C16.3694 16.8147 14.8573 18.7947 12.8834 20.23Z" fill="black"/>
</g>
<defs>
<clipPath id="clip0_606_6873">
<rect width="24" height="24" fill="white"/>
</clipPath>
</defs>
</svg>
