<svg width="24" height="24" viewBox="0 0 24 24" fill="none" xmlns="http://www.w3.org/2000/svg">
<g clip-path="url(#clip0_606_6764)">
<path d="M22.4999 15.5002C22.102 15.5002 21.7205 15.6583 21.4392 15.9396C21.1579 16.2209 20.9999 16.6024 20.9999 17.0002V18.5002C20.9999 19.1633 20.7365 19.7992 20.2676 20.268C19.7988 20.7369 19.1629 21.0002 18.4999 21.0002H16.9999C16.602 21.0002 16.2205 21.1583 15.9392 21.4396C15.6579 21.7209 15.4999 22.1024 15.4999 22.5002C15.4999 22.8981 15.6579 23.2796 15.9392 23.5609C16.2205 23.8422 16.602 24.0002 16.9999 24.0002H18.4999C19.9581 23.9987 21.3561 23.4187 22.3872 22.3876C23.4183 21.3565 23.9983 19.9584 23.9998 18.5002V17.0002C23.9998 16.6024 23.8418 16.2209 23.5605 15.9396C23.2792 15.6583 22.8977 15.5002 22.4999 15.5002Z" fill="black"/>
<path d="M7 0H5.5C4.0418 0.00158817 2.64377 0.581561 1.61267 1.61267C0.581561 2.64377 0.00158817 4.0418 0 5.5L0 7C0 7.39782 0.158035 7.77936 0.43934 8.06066C0.720644 8.34196 1.10218 8.5 1.5 8.5C1.89782 8.5 2.27936 8.34196 2.56066 8.06066C2.84196 7.77936 3 7.39782 3 7V5.5C3 4.83696 3.26339 4.20107 3.73223 3.73223C4.20107 3.26339 4.83696 3 5.5 3H7C7.39782 3 7.77936 2.84196 8.06066 2.56066C8.34196 2.27936 8.5 1.89782 8.5 1.5C8.5 1.10218 8.34196 0.720644 8.06066 0.43934C7.77936 0.158035 7.39782 0 7 0V0Z" fill="black"/>
<path d="M7 21.0002H5.5C4.83696 21.0002 4.20107 20.7369 3.73223 20.268C3.26339 19.7992 3 19.1633 3 18.5002V17.0002C3 16.6024 2.84196 16.2209 2.56066 15.9396C2.27936 15.6583 1.89782 15.5002 1.5 15.5002C1.10218 15.5002 0.720644 15.6583 0.43934 15.9396C0.158035 16.2209 0 16.6024 0 17.0002L0 18.5002C0.00158817 19.9584 0.581561 21.3565 1.61267 22.3876C2.64377 23.4187 4.0418 23.9987 5.5 24.0002H7C7.39782 24.0002 7.77936 23.8422 8.06066 23.5609C8.34196 23.2796 8.5 22.8981 8.5 22.5002C8.5 22.1024 8.34196 21.7209 8.06066 21.4396C7.77936 21.1583 7.39782 21.0002 7 21.0002Z" fill="black"/>
<path d="M18.4999 0H16.9999C16.602 0 16.2205 0.158035 15.9392 0.43934C15.6579 0.720644 15.4999 1.10218 15.4999 1.5C15.4999 1.89782 15.6579 2.27936 15.9392 2.56066C16.2205 2.84196 16.602 3 16.9999 3H18.4999C19.1629 3 19.7988 3.26339 20.2676 3.73223C20.7365 4.20107 20.9999 4.83696 20.9999 5.5V7C20.9999 7.39782 21.1579 7.77936 21.4392 8.06066C21.7205 8.34196 22.102 8.5 22.4999 8.5C22.8977 8.5 23.2792 8.34196 23.5605 8.06066C23.8418 7.77936 23.9998 7.39782 23.9998 7V5.5C23.9983 4.0418 23.4183 2.64377 22.3872 1.61267C21.3561 0.581561 19.9581 0.00158817 18.4999 0V0Z" fill="black"/>
</g>
<defs>
<clipPath id="clip0_606_6764">
<rect width="24" height="24" fill="white"/>
</clipPath>
</defs>
</svg>
