<svg width="24" height="24" viewBox="0 0 24 24" fill="none" xmlns="http://www.w3.org/2000/svg">
<g clip-path="url(#clip0_606_6953)">
<path d="M22.5591 11.0003C22.3617 10.9893 22.1641 11.0177 21.9779 11.0839C21.7916 11.1501 21.6205 11.2528 21.4744 11.386C21.3283 11.5191 21.2102 11.6801 21.1271 11.8594C21.0439 12.0387 20.9973 12.2328 20.9901 12.4303C20.8989 14.4691 20.1196 16.4169 18.7793 17.9558C17.439 19.4948 15.6167 20.5342 13.6098 20.9045C11.6028 21.2747 9.52963 20.954 7.72838 19.9946C5.92713 19.0352 4.50414 17.4937 3.69152 15.6217C2.87891 13.7496 2.72463 11.6574 3.25385 9.68642C3.78307 7.71541 4.96456 5.98189 6.60559 4.76864C8.24662 3.55539 10.2503 2.93402 12.2899 3.00588C14.3295 3.07773 16.2845 3.83859 17.8361 5.16432L16.7071 6.29332C16.5672 6.43317 16.472 6.61133 16.4335 6.80529C16.3949 6.99924 16.4147 7.20027 16.4904 7.38297C16.566 7.56567 16.6942 7.72183 16.8586 7.83172C17.023 7.9416 17.2163 8.00027 17.4141 8.00032H22.0001C22.2653 8.00032 22.5196 7.89496 22.7072 7.70742C22.8947 7.51989 23.0001 7.26553 23.0001 7.00032V2.41432C23 2.21657 22.9413 2.02327 22.8315 1.85886C22.7216 1.69445 22.5654 1.56631 22.3827 1.49064C22.2 1.41497 21.999 1.39517 21.805 1.43373C21.6111 1.4723 21.4329 1.56751 21.2931 1.70732L19.9581 3.04232C17.9232 1.24112 15.3367 0.184986 12.6227 0.0471675C9.90866 -0.0906511 7.22841 0.698033 5.0216 2.28383C2.81479 3.86963 1.21247 6.15838 0.477504 8.7746C-0.257459 11.3908 -0.0814209 14.1792 0.976738 16.6822C2.0349 19.1852 3.91234 21.2542 6.30107 22.5499C8.6898 23.8456 11.448 24.2909 14.1231 23.8129C16.7982 23.3348 19.2314 21.9618 21.0235 19.9189C22.8157 17.8761 23.8603 15.2849 23.9861 12.5703C23.9955 12.3735 23.966 12.1768 23.8994 11.9914C23.8328 11.806 23.7303 11.6355 23.5978 11.4897C23.4653 11.3439 23.3053 11.2257 23.1271 11.1417C22.9489 11.0577 22.7558 11.0097 22.5591 11.0003Z" fill="black"/>
<path d="M11.4999 6.99927C11.1021 6.99927 10.7205 7.1573 10.4392 7.43861C10.1579 7.71991 9.99988 8.10144 9.99988 8.49927V12.7923C9.99999 13.3226 10.2108 13.8313 10.5859 14.2063L12.3789 15.9993C12.6618 16.2725 13.0407 16.4237 13.434 16.4203C13.8273 16.4168 14.2035 16.2591 14.4816 15.981C14.7597 15.7029 14.9175 15.3267 14.9209 14.9334C14.9243 14.5401 14.7731 14.1612 14.4999 13.8783L12.9999 12.3783V8.49927C12.9999 8.10144 12.8418 7.71991 12.5605 7.43861C12.2792 7.1573 11.8977 6.99927 11.4999 6.99927Z" fill="black"/>
</g>
<defs>
<clipPath id="clip0_606_6953">
<rect width="24" height="24" fill="white"/>
</clipPath>
</defs>
</svg>
