<svg width="24" height="24" viewBox="0 0 24 24" fill="none" xmlns="http://www.w3.org/2000/svg">
<g clip-path="url(#clip0_606_6918)">
<path d="M8.49999 3C8.49999 2.40666 8.67593 1.82664 9.00558 1.33329C9.33522 0.839943 9.80376 0.455426 10.3519 0.228363C10.9001 0.00129986 11.5033 -0.0581102 12.0853 0.0576455C12.6672 0.173401 13.2017 0.459124 13.6213 0.878681C14.0409 1.29824 14.3266 1.83279 14.4423 2.41473C14.5581 2.99667 14.4987 3.59987 14.2716 4.14805C14.0446 4.69623 13.66 5.16477 13.1667 5.49441C12.6733 5.82406 12.0933 6 11.5 6C10.7043 6 9.94127 5.68393 9.37866 5.12132C8.81606 4.55871 8.49999 3.79565 8.49999 3ZM22.5 20H21.516L20.4 17.2C20.1419 16.5493 19.6938 15.9914 19.1141 15.599C18.5344 15.2066 17.85 14.9979 17.15 15H13.5C13.3674 15 13.2402 14.9473 13.1464 14.8536C13.0527 14.7598 13 14.6326 13 14.5V13H17.5C17.8978 13 18.2793 12.842 18.5606 12.5607C18.842 12.2794 19 11.8978 19 11.5C19 11.1022 18.842 10.7206 18.5606 10.4393C18.2793 10.158 17.8978 10 17.5 10H13V8.5C13 8.10218 12.842 7.72065 12.5606 7.43934C12.2793 7.15804 11.8978 7 11.5 7C11.1022 7 10.7206 7.15804 10.4393 7.43934C10.158 7.72065 9.99999 8.10218 9.99999 8.5V14.5C10.003 15.2715 10.2608 16.0203 10.7334 16.6301C11.2059 17.2399 11.8667 17.6765 12.613 17.872C12.2903 18.6647 11.7691 19.3611 11.0995 19.8942C10.43 20.4274 9.63455 20.7793 8.78969 20.9163C7.94483 21.0532 7.07895 20.9706 6.27526 20.6762C5.47157 20.3819 4.7571 19.8858 4.20051 19.2356C3.64392 18.5854 3.26393 17.803 3.09704 16.9635C2.93016 16.1241 2.982 15.2558 3.24758 14.4422C3.51317 13.6285 3.98356 12.8969 4.61356 12.3175C5.24356 11.7382 6.01199 11.3306 6.84499 11.134C7.2322 11.0425 7.56721 10.8009 7.77631 10.4624C7.98542 10.1239 8.05149 9.71622 7.95999 9.329C7.86849 8.94179 7.62691 8.60678 7.28841 8.39767C6.94991 8.18857 6.5422 8.1225 6.15499 8.214C4.77566 8.54022 3.50776 9.22703 2.48103 10.2042C1.45431 11.1813 0.705619 12.4137 0.31158 13.7752C-0.0824594 15.1367 -0.107701 16.5785 0.238437 17.9529C0.584575 19.3274 1.28966 20.5852 2.28156 21.5977C3.27345 22.6102 4.51653 23.341 5.88359 23.7152C7.25066 24.0895 8.69262 24.0939 10.0619 23.7279C11.4312 23.3619 12.6787 22.6387 13.6768 21.6323C14.6748 20.6259 15.3875 19.3723 15.742 18H17.142C17.2417 17.9999 17.3392 18.0297 17.4219 18.0855C17.5046 18.1413 17.5687 18.2205 17.606 18.313L19.106 22.057C19.2174 22.3356 19.4098 22.5743 19.6583 22.7424C19.9068 22.9105 20.2 23.0003 20.5 23H22.5C22.8978 23 23.2793 22.842 23.5606 22.5607C23.842 22.2794 24 21.8978 24 21.5C24 21.1022 23.842 20.7206 23.5606 20.4393C23.2793 20.158 22.8978 20 22.5 20Z" fill="black"/>
</g>
<defs>
<clipPath id="clip0_606_6918">
<rect width="24" height="24" fill="white"/>
</clipPath>
</defs>
</svg>
