<svg width="24" height="24" viewBox="0 0 24 24" fill="none" xmlns="http://www.w3.org/2000/svg">
<g clip-path="url(#clip0_606_6889)">
<path d="M0.221009 4.28296C0.118407 4.11475 0.0499495 3.92797 0.0195488 3.73329C-0.0108519 3.53862 -0.00260057 3.33986 0.0438314 3.14838C0.0902634 2.95689 0.173966 2.77643 0.290158 2.6173C0.406351 2.45817 0.552755 2.32349 0.721009 2.22096L3.98901 0.22096C4.15706 0.109054 4.34598 0.0322275 4.54444 -0.00491617C4.7429 -0.0420598 4.94681 -0.0387559 5.14396 0.00479747C5.34111 0.0483509 5.52744 0.131257 5.69178 0.248548C5.85612 0.36584 5.99509 0.515101 6.10036 0.687388C6.20563 0.859676 6.27504 1.05144 6.30442 1.2512C6.3338 1.45095 6.32255 1.65458 6.27135 1.84988C6.22015 2.04519 6.13004 2.22814 6.00644 2.38779C5.88283 2.54743 5.72827 2.68048 5.55201 2.77896L2.28301 4.77896C2.1148 4.88156 1.92802 4.95002 1.73334 4.98042C1.53867 5.01082 1.33991 5.00257 1.14843 4.95614C0.95694 4.90971 0.776479 4.826 0.61735 4.70981C0.458221 4.59362 0.323543 4.44721 0.221009 4.27896V4.28296ZM23.288 17.983C22.9495 17.7741 22.5418 17.7083 22.1547 17.8C21.7677 17.8917 21.4329 18.1334 21.224 18.472L19.224 21.713C19.1159 21.8806 19.0422 22.0681 19.0074 22.2645C18.9726 22.4609 18.9774 22.6623 19.0213 22.8569C19.0653 23.0515 19.1476 23.2353 19.2635 23.3977C19.3794 23.56 19.5265 23.6976 19.6963 23.8025C19.866 23.9073 20.0549 23.9772 20.252 24.0081C20.4491 24.039 20.6503 24.0303 20.844 23.9825C21.0376 23.9347 21.2198 23.8487 21.3799 23.7296C21.5399 23.6105 21.6746 23.4607 21.776 23.289L23.776 20.048C23.8798 19.8803 23.9494 19.6938 23.9811 19.4992C24.0127 19.3046 24.0057 19.1057 23.9603 18.9138C23.915 18.7219 23.8323 18.5408 23.7169 18.3809C23.6016 18.2211 23.4558 18.0855 23.288 17.982V17.983ZM20.835 15.483L17.235 21.348C16.7972 22.0651 16.2017 22.673 15.4936 23.1255C14.7856 23.5779 13.9837 23.863 13.149 23.959C12.9289 23.9844 12.7076 23.9974 12.486 23.998C11.2569 23.9931 10.0648 23.5766 9.10001 22.815C8.31524 23.5758 7.26383 23.9993 6.17078 23.9947C5.07774 23.9901 4.0299 23.5579 3.25153 22.7905C2.47315 22.0231 2.02608 20.9815 2.00598 19.8886C1.98589 18.7958 2.39437 17.7385 3.14401 16.943L1.65001 15.443C1.05207 14.85 0.597192 14.1285 0.319945 13.3333C0.042698 12.5381 -0.0496196 11.6902 0.0500093 10.854C0.144807 10.0261 0.427063 9.23066 0.875331 8.5282C1.3236 7.82573 1.92608 7.23468 2.63701 6.79996L8.12401 3.41296C9.63754 2.4445 11.4068 1.95226 13.203 1.99986C14.9992 2.04745 16.7399 2.6327 18.2 3.67996L19.44 2.43896C19.7214 2.15756 20.1031 1.99948 20.501 1.99948C20.899 1.99948 21.2806 2.15756 21.562 2.43896C21.8434 2.72035 22.0015 3.10201 22.0015 3.49996C22.0015 3.89791 21.8434 4.27956 21.562 4.56096L20.323 5.79996C21.3182 7.19966 21.8948 8.85356 21.9855 10.5686C22.0761 12.2837 21.6771 13.9891 20.835 15.486V15.483ZM17.235 6.77596C16.2647 5.79976 14.9892 5.18559 13.6209 5.03583C12.2527 4.88607 10.8745 5.20976 9.71601 5.95296L4.21601 9.35296C3.89156 9.55198 3.61669 9.82227 3.41224 10.1433C3.20779 10.4644 3.07912 10.8278 3.03601 11.206C2.99032 11.5925 3.0334 11.9843 3.16198 12.3517C3.29056 12.7191 3.50125 13.0523 3.77801 13.326L10.69 20.254C10.964 20.5267 11.2961 20.7339 11.6614 20.8601C12.0268 20.9864 12.416 21.0283 12.7999 20.9828C13.1838 20.9373 13.5524 20.8055 13.8782 20.5974C14.2039 20.3893 14.4784 20.1102 14.681 19.781L18.254 13.963C18.8879 12.8175 19.1314 11.4967 18.9477 10.2005C18.764 8.90434 18.1631 7.70323 17.236 6.77896L17.235 6.77596Z" fill="black"/>
</g>
<defs>
<clipPath id="clip0_606_6889">
<rect width="24" height="24" fill="white"/>
</clipPath>
</defs>
</svg>
