<svg width="24" height="24" viewBox="0 0 24 24" fill="none" xmlns="http://www.w3.org/2000/svg">
<g clip-path="url(#clip0_606_6565)">
<path d="M6.99987 24.0007C8.10444 24.0007 8.99987 23.1053 8.99987 22.0007C8.99987 20.8962 8.10444 20.0007 6.99987 20.0007C5.89531 20.0007 4.99988 20.8962 4.99988 22.0007C4.99988 23.1053 5.89531 24.0007 6.99987 24.0007Z" fill="black"/>
<path d="M17 24.0007C18.1046 24.0007 19 23.1053 19 22.0007C19 20.8962 18.1046 20.0007 17 20.0007C15.8954 20.0007 15 20.8962 15 22.0007C15 23.1053 15.8954 24.0007 17 24.0007Z" fill="black"/>
<path d="M19.75 13.163C19.6048 13.6908 19.2904 14.1564 18.855 14.4883C18.4197 14.8201 17.8874 14.9999 17.34 15H7.217C7.13523 14.9993 7.05665 14.9682 6.99657 14.9128C6.93648 14.8573 6.89921 14.7815 6.892 14.7L6.036 8H9.5C9.89782 8 10.2794 7.84196 10.5607 7.56066C10.842 7.27936 11 6.89782 11 6.5C11 6.10218 10.842 5.72064 10.5607 5.43934C10.2794 5.15804 9.89782 5 9.5 5H5.653L5.391 2.939C5.29594 2.12943 4.90697 1.38292 4.29793 0.841158C3.68888 0.299394 2.90214 7.30021e-05 2.087 0L1.5 0C1.10218 0 0.720644 0.158035 0.43934 0.43934C0.158035 0.720644 0 1.10218 0 1.5C0 1.89782 0.158035 2.27936 0.43934 2.56066C0.720644 2.84196 1.10218 3 1.5 3H2.087C2.16877 3.00068 2.24735 3.03178 2.30743 3.08724C2.36752 3.1427 2.4048 3.21855 2.412 3.3L3.912 15.06C4.00686 15.8699 4.39586 16.6168 5.00514 17.1588C5.61442 17.7008 6.40154 18.0001 7.217 18H17.339C18.5431 17.9993 19.7136 17.6035 20.671 16.8733C21.6285 16.1432 22.3198 15.119 22.639 13.958L22.655 13.898C22.7162 13.6757 22.7253 13.4423 22.6816 13.2159C22.6379 12.9894 22.5426 12.7762 22.4032 12.5926C22.2637 12.409 22.0837 12.26 21.8773 12.1572C21.6709 12.0545 21.4436 12.0007 21.213 12C20.8848 11.9999 20.5657 12.1075 20.3045 12.3062C20.0433 12.5049 19.8545 12.7837 19.767 13.1L19.75 13.163Z" fill="black"/>
<path d="M21.413 2.48616L17.119 6.78016L16.268 5.89916C16.1315 5.75713 15.9683 5.64339 15.7878 5.56441C15.6074 5.48544 15.4131 5.44279 15.2162 5.43889C15.0192 5.43499 14.8234 5.46992 14.64 5.54168C14.4565 5.61345 14.289 5.72065 14.147 5.85716C14.0049 5.99367 13.8912 6.15681 13.8122 6.33728C13.7333 6.51775 13.6906 6.71201 13.6867 6.90896C13.6788 7.30673 13.8293 7.69133 14.105 7.97816L15.368 9.29216C15.5869 9.52462 15.8501 9.71104 16.142 9.84051C16.4339 9.96998 16.7487 10.0399 17.068 10.0462H17.108C17.7418 10.0446 18.3495 9.79304 18.799 9.34616L23.533 4.61116C23.6762 4.47279 23.7905 4.30727 23.8691 4.12427C23.9477 3.94126 23.9891 3.74443 23.9908 3.54526C23.9926 3.34609 23.9546 3.14857 23.8792 2.96423C23.8038 2.77988 23.6924 2.61241 23.5515 2.47157C23.4107 2.33073 23.2432 2.21935 23.0589 2.14393C22.8745 2.06851 22.677 2.03055 22.4779 2.03228C22.2787 2.03401 22.0819 2.07539 21.8989 2.15401C21.7158 2.23262 21.5503 2.34689 21.412 2.49016L21.413 2.48616Z" fill="black"/>
</g>
<defs>
<clipPath id="clip0_606_6565">
<rect width="24" height="24" fill="white"/>
</clipPath>
</defs>
</svg>
