<svg width="24" height="24" viewBox="0 0 24 24" fill="none" xmlns="http://www.w3.org/2000/svg">
<g clip-path="url(#clip0_606_6677)">
<path d="M11.9999 15.0002C12.5041 15.001 13.0016 14.8843 13.4529 14.6592L15.2029 13.7842C15.7445 13.516 16.2001 13.1012 16.5177 12.5869C16.8354 12.0727 17.0024 11.4797 16.9999 10.8752V9.12524C17.0018 8.52083 16.8341 7.928 16.5159 7.41412C16.1977 6.90025 15.7418 6.48592 15.1999 6.21824L13.4499 5.34323C12.9984 5.11879 12.5011 5.00199 11.9969 5.00199C11.4927 5.00199 10.9954 5.11879 10.5439 5.34323L8.79989 6.21824C8.25798 6.48592 7.80203 6.90025 7.48384 7.41412C7.16565 7.928 6.99798 8.52083 6.99989 9.12524V10.8752C6.99798 11.4796 7.16565 12.0725 7.48384 12.5863C7.80203 13.1002 8.25798 13.5145 8.79989 13.7822L10.5499 14.6572C11.0001 14.8825 11.4965 15 11.9999 15.0002ZM9.99989 10.8772V9.17724L11.3269 9.84024C11.5357 9.94509 11.7662 9.99969 11.9999 9.99969C12.2336 9.99969 12.464 9.94509 12.6729 9.84024L13.9999 9.17824V10.8782C14.0001 10.9249 13.9872 10.9706 13.9626 11.0102C13.938 11.0499 13.9028 11.0817 13.8609 11.1022L12.1109 11.9772C12.0764 11.9945 12.0384 12.0035 11.9999 12.0035C11.9614 12.0035 11.9233 11.9945 11.8889 11.9772L10.1389 11.1022C10.0965 11.0815 10.061 11.0492 10.0364 11.009C10.0117 10.9688 9.99908 10.9224 9.99989 10.8752V10.8772ZM18.4999 21.0002H14.7599C15.0846 20.8033 15.3865 20.5709 15.6599 20.3072L19.0719 17.1382C20.9447 15.2498 21.9955 12.6979 21.9955 10.0382C21.9955 7.37861 20.9447 4.82669 19.0719 2.93823C18.145 2.00554 17.0428 1.26535 15.8288 0.760247C14.6148 0.255148 13.3128 -0.00488281 11.9979 -0.00488281C10.683 -0.00488281 9.38102 0.255148 8.16698 0.760247C6.95294 1.26535 5.85076 2.00554 4.92389 2.93823C3.04695 4.83581 1.99796 7.39952 2.0064 10.0685C2.01483 12.7375 3.08 15.2946 4.96889 17.1802L8.30689 20.2802C8.59269 20.5555 8.90908 20.797 9.24989 21.0002H5.49989C5.10206 21.0002 4.72053 21.1583 4.43922 21.4396C4.15792 21.7209 3.99989 22.1024 3.99989 22.5002C3.99989 22.8981 4.15792 23.2796 4.43922 23.5609C4.72053 23.8422 5.10206 24.0002 5.49989 24.0002H18.4999C18.8977 24.0002 19.2792 23.8422 19.5605 23.5609C19.8419 23.2796 19.9999 22.8981 19.9999 22.5002C19.9999 22.1024 19.8419 21.7209 19.5605 21.4396C19.2792 21.1583 18.8977 21.0002 18.4999 21.0002ZM7.05289 15.0222C5.7394 13.6974 5.00244 11.9073 5.00244 10.0417C5.00244 8.17614 5.7394 6.38607 7.05289 5.06123C7.70064 4.40822 8.47128 3.88991 9.32034 3.53621C10.1694 3.1825 11.0801 3.00039 11.9999 3.00039C12.9197 3.00039 13.8304 3.1825 14.6794 3.53621C15.5285 3.88991 16.2991 4.40822 16.9469 5.06123C18.256 6.37721 18.9945 8.15567 19.0026 10.0119C19.0106 11.8682 18.2876 13.653 16.9899 14.9802L13.5899 18.1372C13.1565 18.552 12.5781 18.781 11.9783 18.7753C11.3784 18.7697 10.8045 18.53 10.3789 18.1072L7.05289 15.0222Z" fill="black"/>
</g>
<defs>
<clipPath id="clip0_606_6677">
<rect width="24" height="24" fill="white"/>
</clipPath>
</defs>
</svg>
