<svg width="24" height="24" viewBox="0 0 24 24" fill="none" xmlns="http://www.w3.org/2000/svg">
<g clip-path="url(#clip0_606_6672)">
<path d="M11.9962 0C12.8242 0 13.4953 0.671195 13.4953 1.49915V6.49631C13.4953 7.32426 12.8242 7.99546 11.9962 7.99546C11.1683 7.99546 10.4971 7.32426 10.4971 6.49631V1.49915C10.4971 0.671195 11.1682 0 11.9962 0Z" fill="black"/>
<path d="M15.494 4.9373C15.4867 5.44054 15.7404 5.91174 16.1646 6.18257C19.9327 8.48484 21.121 13.4059 18.8187 17.1739C16.5164 20.942 11.5954 22.1303 7.82733 19.828C4.05923 17.5258 2.87097 12.6047 5.17328 8.83662C5.83113 7.75995 6.73446 6.85424 7.80939 6.19353C8.24091 5.9227 8.50148 5.44771 8.49801 4.93823C8.50031 4.11029 7.83099 3.43726 7.00304 3.43497C6.71867 3.43417 6.43992 3.51428 6.19935 3.66598C1.04159 6.86965 -0.542489 13.6478 2.66114 18.8056C5.86476 23.9633 12.643 25.5474 17.8007 22.3437C22.9584 19.1401 24.5425 12.3619 21.3388 7.20419C20.4471 5.76853 19.2363 4.55778 17.8007 3.66602C17.0981 3.22279 16.1692 3.43305 15.726 4.13563C15.5746 4.37559 15.4942 4.65354 15.494 4.9373Z" fill="black"/>
</g>
<defs>
<clipPath id="clip0_606_6672">
<rect width="24" height="24" fill="white"/>
</clipPath>
</defs>
</svg>
