<svg width="24" height="24" viewBox="0 0 24 24" fill="none" xmlns="http://www.w3.org/2000/svg">
<g clip-path="url(#clip0_606_6700)">
<path d="M12 0C9.62663 0 7.30655 0.703788 5.33316 2.02236C3.35977 3.34094 1.8217 5.21509 0.913451 7.4078C0.00519943 9.60051 -0.232441 12.0133 0.230582 14.3411C0.693605 16.6689 1.83649 18.8071 3.51472 20.4853C5.19295 22.1635 7.33115 23.3064 9.65892 23.7694C11.9867 24.2324 14.3995 23.9948 16.5922 23.0866C18.7849 22.1783 20.6591 20.6402 21.9776 18.6668C23.2962 16.6935 24 14.3734 24 12C23.9966 8.81846 22.7312 5.76821 20.4815 3.51852C18.2318 1.26883 15.1815 0.00344108 12 0V0ZM12 21C10.22 21 8.47992 20.4722 6.99987 19.4832C5.51983 18.4943 4.36628 17.0887 3.68509 15.4442C3.0039 13.7996 2.82567 11.99 3.17294 10.2442C3.5202 8.49836 4.37737 6.89471 5.63604 5.63604C6.89472 4.37737 8.49836 3.5202 10.2442 3.17293C11.99 2.82567 13.7996 3.0039 15.4442 3.68508C17.0887 4.36627 18.4943 5.51983 19.4832 6.99987C20.4722 8.47991 21 10.22 21 12C20.9971 14.3861 20.0479 16.6736 18.3608 18.3607C16.6736 20.0479 14.3861 20.9971 12 21Z" fill="black"/>
<path d="M11.5452 9.5454H11.2452C10.8522 9.53575 10.4697 9.67324 10.1728 9.93094C9.8759 10.1886 9.68595 10.5479 9.6402 10.9384C9.61403 11.329 9.74163 11.7144 9.99574 12.0122C10.2498 12.3101 10.6103 12.4967 11.0002 12.5324V17.1824C11.0002 17.5802 11.1582 17.9618 11.4395 18.2431C11.7208 18.5244 12.1024 18.6824 12.5002 18.6824C12.898 18.6824 13.2796 18.5244 13.5609 18.2431C13.8422 17.9618 14.0002 17.5802 14.0002 17.1824V12.0004C14.0002 11.3493 13.7416 10.7249 13.2812 10.2644C12.8208 9.80405 12.1963 9.5454 11.5452 9.5454Z" fill="black"/>
<path d="M11.8301 8.46642C12.1695 8.46642 12.5013 8.36578 12.7835 8.17723C13.0657 7.98867 13.2856 7.72067 13.4155 7.40711C13.5454 7.09355 13.5794 6.74852 13.5132 6.41565C13.447 6.08278 13.2835 5.77702 13.0435 5.53703C12.8036 5.29704 12.4978 5.13361 12.1649 5.0674C11.832 5.00118 11.487 5.03517 11.1735 5.16505C10.8599 5.29493 10.5919 5.51487 10.4033 5.79707C10.2148 6.07926 10.1141 6.41103 10.1141 6.75042C10.114 6.97581 10.1583 7.19901 10.2445 7.40727C10.3307 7.61552 10.4571 7.80474 10.6164 7.96411C10.7758 8.12348 10.965 8.24988 11.1733 8.33607C11.3816 8.42226 11.6048 8.46656 11.8301 8.46642Z" fill="black"/>
</g>
<defs>
<clipPath id="clip0_606_6700">
<rect width="24" height="24" fill="white"/>
</clipPath>
</defs>
</svg>
