<svg width="24" height="24" viewBox="0 0 24 24" fill="none" xmlns="http://www.w3.org/2000/svg">
<g clip-path="url(#clip0_606_6988)">
<path d="M7.4525 14.0172C3.19089 14.4024 -0.0558482 18.0033 0.000728186 22.2819V22.4989C0.000728186 23.3273 0.672285 23.9988 1.50068 23.9988C2.32908 23.9988 3.00063 23.3273 3.00063 22.4989V22.2219C2.95554 19.5949 4.89423 17.3547 7.50049 17.0221C10.2516 16.7493 12.7031 18.7584 12.9759 21.5095C12.992 21.6722 13.0002 21.8355 13.0003 21.9989V22.4989C13.0003 23.3273 13.6719 23.9989 14.5003 23.9989C15.3287 23.9989 16.0002 23.3273 16.0002 22.4989V21.9989C15.9953 17.5758 12.4057 13.9942 7.98264 13.999C7.80573 13.9992 7.62893 14.0053 7.4525 14.0172Z" fill="black"/>
<path d="M8.00042 12.0001C11.314 12.0001 14.0002 9.31388 14.0002 6.0003C14.0002 2.68672 11.314 0.000488281 8.00042 0.000488281C4.68684 0.000488281 2.00061 2.68672 2.00061 6.0003C2.00394 9.31253 4.6882 11.9968 8.00042 12.0001ZM8.00042 3.00039C9.65722 3.00039 11.0003 4.34351 11.0003 6.0003C11.0003 7.65709 9.65722 9.00021 8.00042 9.00021C6.34363 9.00021 5.00052 7.65709 5.00052 6.0003C5.00052 4.34351 6.34363 3.00039 8.00042 3.00039Z" fill="black"/>
<path d="M22.5001 10.0004H21.0002V8.50044C21.0002 7.67204 20.3286 7.00049 19.5002 7.00049C18.6718 7.00049 18.0003 7.67204 18.0003 8.50044V10.0004H16.5003C15.6719 10.0004 15.0004 10.6719 15.0004 11.5003C15.0004 12.3287 15.6719 13.0003 16.5003 13.0003H18.0003V14.5002C18.0003 15.3286 18.6718 16.0002 19.5002 16.0002C20.3286 16.0002 21.0002 15.3286 21.0002 14.5002V13.0003H22.5001C23.3285 13.0003 24.0001 12.3287 24.0001 11.5003C24.0001 10.6719 23.3285 10.0004 22.5001 10.0004Z" fill="black"/>
</g>
<defs>
<clipPath id="clip0_606_6988">
<rect width="24" height="24" fill="white"/>
</clipPath>
</defs>
</svg>
