<svg width="24" height="24" viewBox="0 0 24 24" fill="none" xmlns="http://www.w3.org/2000/svg">
<g clip-path="url(#clip0_606_6817)">
<path d="M7.29295 2.09113L5.75295 3.63213L2.55995 0.439134C2.27705 0.165897 1.89814 0.0147055 1.50485 0.0181231C1.11155 0.0215407 0.735335 0.179294 0.457223 0.457406C0.179111 0.735518 0.0213576 1.11174 0.01794 1.50503C0.0145224 1.89833 0.165714 2.27723 0.438951 2.56013L3.63195 5.75313L2.09095 7.29313C1.95102 7.43311 1.85577 7.61145 1.81727 7.80559C1.77876 7.99973 1.79874 8.20093 1.87465 8.38371C1.95057 8.56649 2.07902 8.72264 2.24374 8.83237C2.40846 8.9421 2.60203 9.00049 2.79995 9.00013H7.56395C7.9448 9.00013 8.31005 8.84884 8.57936 8.57954C8.84866 8.31024 8.99995 7.94498 8.99995 7.56413V2.80013C9.00031 2.60221 8.94192 2.40864 8.83219 2.24392C8.72246 2.07921 8.56631 1.95076 8.38353 1.87484C8.20075 1.79892 7.99955 1.77895 7.80541 1.81745C7.61127 1.85596 7.43292 1.9512 7.29295 2.09113Z" fill="black"/>
<path d="M16.707 21.909L18.247 20.368L21.44 23.561C21.5784 23.7043 21.7439 23.8185 21.9269 23.8971C22.1099 23.9758 22.3067 24.0171 22.5059 24.0189C22.7051 24.0206 22.9026 23.9826 23.0869 23.9072C23.2713 23.8318 23.4387 23.7204 23.5796 23.5796C23.7204 23.4387 23.8318 23.2713 23.9072 23.0869C23.9826 22.9026 24.0206 22.7051 24.0189 22.5059C24.0171 22.3067 23.9758 22.1099 23.8971 21.9269C23.8185 21.7439 23.7043 21.5784 23.561 21.44L20.368 18.247L21.909 16.707C22.0489 16.567 22.1442 16.3887 22.1827 16.1945C22.2212 16.0004 22.2012 15.7992 22.1253 15.6164C22.0494 15.4336 21.9209 15.2775 21.7562 15.1678C21.5915 15.058 21.3979 14.9996 21.2 15H16.436C16.0551 15 15.6899 15.1513 15.4206 15.4206C15.1513 15.6899 15 16.0551 15 16.436V21.2C14.9996 21.3979 15.058 21.5915 15.1678 21.7562C15.2775 21.9209 15.4336 22.0494 15.6164 22.1253C15.7992 22.2012 16.0004 22.2212 16.1945 22.1827C16.3887 22.1442 16.567 22.0489 16.707 21.909Z" fill="black"/>
<path d="M2.09101 16.707L3.63201 18.247L0.439011 21.44C0.295746 21.5784 0.181473 21.7439 0.102859 21.9269C0.0242458 22.1099 -0.0171335 22.3067 -0.0188643 22.5059C-0.020595 22.7051 0.0173576 22.9026 0.0927789 23.0869C0.1682 23.2713 0.27958 23.4387 0.420419 23.5796C0.561258 23.7204 0.728736 23.8318 0.91308 23.9072C1.09742 23.9826 1.29494 24.0206 1.49411 24.0189C1.69328 24.0171 1.89011 23.9758 2.07312 23.8971C2.25612 23.8185 2.42164 23.7043 2.56001 23.561L5.75301 20.368L7.29301 21.909C7.43298 22.0489 7.61133 22.1442 7.80547 22.1827C7.99961 22.2212 8.20081 22.2012 8.38359 22.1253C8.56637 22.0494 8.72252 21.9209 8.83225 21.7562C8.94198 21.5915 9.00037 21.3979 9.00001 21.2V16.436C9.00001 16.0551 8.84872 15.6899 8.57942 15.4206C8.31011 15.1513 7.94486 15 7.56401 15H2.80001C2.60209 14.9996 2.40852 15.058 2.2438 15.1678C2.07908 15.2775 1.95063 15.4336 1.87471 15.6164C1.7988 15.7992 1.77883 16.0004 1.81733 16.1945C1.85583 16.3887 1.95108 16.567 2.09101 16.707Z" fill="black"/>
<path d="M21.909 7.29289L20.368 5.75289L23.561 2.55989C23.7043 2.42152 23.8185 2.256 23.8971 2.073C23.9758 1.88999 24.0171 1.69316 24.0189 1.49399C24.0206 1.29482 23.9826 1.0973 23.9072 0.912958C23.8318 0.728614 23.7204 0.561136 23.5796 0.420297C23.4387 0.279458 23.2713 0.168078 23.0869 0.0926568C22.9026 0.0172355 22.7051 -0.0207171 22.5059 -0.0189863C22.3067 -0.0172556 22.1099 0.0241237 21.9269 0.102737C21.7439 0.181351 21.5784 0.295624 21.44 0.438889L18.247 3.63189L16.707 2.09089C16.567 1.95096 16.3887 1.85571 16.1945 1.81721C16.0004 1.7787 15.7992 1.79867 15.6164 1.87459C15.4336 1.95051 15.2775 2.07896 15.1678 2.24368C15.058 2.40839 14.9996 2.60197 15 2.79989V7.56389C15 7.94474 15.1513 8.30999 15.4206 8.5793C15.6899 8.8486 16.0551 8.99989 16.436 8.99989H21.2C21.3979 9.00024 21.5915 8.94186 21.7562 8.83213C21.9209 8.72239 22.0494 8.56625 22.1253 8.38347C22.2012 8.20069 22.2212 7.99949 22.1827 7.80535C22.1442 7.61121 22.0489 7.43286 21.909 7.29289Z" fill="black"/>
</g>
<defs>
<clipPath id="clip0_606_6817">
<rect width="24" height="24" fill="white"/>
</clipPath>
</defs>
</svg>
