<svg width="24" height="24" viewBox="0 0 24 24" fill="none" xmlns="http://www.w3.org/2000/svg">
<path d="M1.5 23.449C1.10218 23.449 0.720644 23.291 0.43934 23.0097C0.158035 22.7284 0 22.3468 0 21.949L0 15.949C0.00291129 13.4303 1.00474 11.0157 2.7857 9.2347C4.56667 7.45374 6.98134 6.45191 9.5 6.449H13.164V4.768C13.164 4.32318 13.298 3.88867 13.5485 3.52109C13.799 3.15351 14.1544 2.86992 14.5684 2.70727C14.9825 2.54462 15.4359 2.51045 15.8696 2.60922C16.3033 2.70799 16.6972 2.93512 17 3.261L23.217 9.956C23.7172 10.499 23.9948 11.2103 23.9948 11.9485C23.9948 12.6867 23.7172 13.398 23.217 13.941L17 20.636C16.6973 20.9622 16.3033 21.1897 15.8694 21.2887C15.4355 21.3877 14.9819 21.3536 14.5676 21.1909C14.1534 21.0282 13.7978 20.7444 13.5472 20.3766C13.2967 20.0088 13.1628 19.574 13.163 19.129V17.449H7.5C6.30653 17.449 5.16193 17.9231 4.31802 18.767C3.47411 19.6109 3 20.7555 3 21.949C3 22.3468 2.84196 22.7284 2.56066 23.0097C2.27936 23.291 1.89782 23.449 1.5 23.449ZM7.5 14.449H14.664C15.0618 14.449 15.4434 14.607 15.7247 14.8883C16.006 15.1696 16.164 15.5512 16.164 15.949V17.128L21.019 11.9L16.164 6.747V7.947C16.164 8.34483 16.006 8.72636 15.7247 9.00766C15.4434 9.28897 15.0618 9.447 14.664 9.447H9.5C7.77674 9.44912 6.12467 10.1346 4.90614 11.3531C3.68762 12.5717 3.00212 14.2237 3 15.947C4.29704 14.9713 5.87696 14.4454 7.5 14.449ZM14.8 5.3L14.808 5.308L14.8 5.3Z" fill="black"/>
</svg>
