<svg width="24" height="24" viewBox="0 0 24 24" fill="none" xmlns="http://www.w3.org/2000/svg">
<g clip-path="url(#clip0_606_6544)">
<path d="M19.561 7.43891C19.7004 7.57821 19.8109 7.74361 19.8864 7.92566C19.9618 8.10771 20.0007 8.30285 20.0007 8.49991C20.0007 8.69697 19.9618 8.89211 19.8864 9.07416C19.8109 9.25621 19.7004 9.42161 19.561 9.56091L16.561 12.5609C16.2796 12.8423 15.8979 13.0004 15.5 13.0004C15.102 13.0004 14.7204 12.8423 14.439 12.5609C14.1576 12.2795 13.9995 11.8979 13.9995 11.4999C13.9995 11.102 14.1576 10.7203 14.439 10.4389L14.879 9.99991L14 9.12091L13.561 9.56091C13.2796 9.84231 12.8979 10.0004 12.5 10.0004C12.102 10.0004 11.7204 9.84231 11.439 9.56091C11.1576 9.27952 10.9995 8.89786 10.9995 8.49991C10.9995 8.10196 11.1576 7.7203 11.439 7.43891L14.439 4.43891C14.7204 4.15752 15.102 3.99943 15.5 3.99943C15.8979 3.99943 16.2796 4.15752 16.561 4.43891C16.8424 4.7203 17.0005 5.10196 17.0005 5.49991C17.0005 5.89786 16.8424 6.27952 16.561 6.56091L16.121 6.99991L17 7.87891L17.439 7.43891C17.5783 7.29952 17.7437 7.18895 17.9257 7.1135C18.1078 7.03806 18.3029 6.99923 18.5 6.99923C18.697 6.99923 18.8922 7.03806 19.0742 7.1135C19.2563 7.18895 19.4217 7.29952 19.561 7.43891ZM10.439 14.4389L9.99998 14.8789L9.12098 13.9999L9.56098 13.5609C9.84237 13.2795 10.0005 12.8979 10.0005 12.4999C10.0005 12.102 9.84237 11.7203 9.56098 11.4389C9.27958 11.1575 8.89793 10.9994 8.49998 10.9994C8.10203 10.9994 7.72037 11.1575 7.43898 11.4389L4.43898 14.4389C4.15758 14.7203 3.9995 15.102 3.9995 15.4999C3.9995 15.8979 4.15758 16.2795 4.43898 16.5609C4.72037 16.8423 5.10203 17.0004 5.49998 17.0004C5.89793 17.0004 6.27958 16.8423 6.56098 16.5609L6.99998 16.1209L7.87898 16.9999L7.43898 17.4389C7.15758 17.7203 6.9995 18.102 6.9995 18.4999C6.9995 18.8979 7.15758 19.2795 7.43898 19.5609C7.72037 19.8423 8.10203 20.0004 8.49998 20.0004C8.89793 20.0004 9.27958 19.8423 9.56098 19.5609L12.561 16.5609C12.8424 16.2795 13.0005 15.8979 13.0005 15.4999C13.0005 15.102 12.8424 14.7203 12.561 14.4389C12.2796 14.1575 11.8979 13.9994 11.5 13.9994C11.102 13.9994 10.7204 14.1575 10.439 14.4389ZM24 7.89091C24.0027 8.92752 23.7997 9.95438 23.4029 10.912C23.006 11.8697 22.4231 12.7391 21.688 13.4699L13.47 21.6879C12.7387 22.4267 11.8686 23.0137 10.9098 23.4152C9.9509 23.8166 8.92216 24.0247 7.88265 24.0273C6.84314 24.03 5.81335 23.8272 4.85246 23.4306C3.89156 23.034 3.01851 22.4515 2.28346 21.7164C1.54841 20.9814 0.965863 20.1083 0.569282 19.1474C0.172702 18.1865 -0.03009 17.1568 -0.0274402 16.1172C-0.0247904 15.0777 0.183249 14.049 0.584723 13.0901C0.986197 12.1313 1.57319 11.2612 2.31198 10.5299L10.53 2.31191C11.6335 1.20865 13.0395 0.457354 14.57 0.153007C16.1004 -0.15134 17.6868 0.00492495 19.1285 0.602048C20.5702 1.19917 21.8025 2.21034 22.6696 3.50772C23.5367 4.8051 23.9997 6.33044 24 7.89091ZM21 7.89091C21.0003 6.92348 20.7136 5.9777 20.1762 5.17324C19.6389 4.36878 18.875 3.74179 17.9812 3.37159C17.0874 3.0014 16.1039 2.90464 15.1551 3.09356C14.2063 3.28248 13.3348 3.74859 12.651 4.43291L4.43298 12.6509C3.51586 13.568 3.00063 14.8119 3.00063 16.1089C3.00063 17.4059 3.51586 18.6498 4.43298 19.5669C5.3501 20.484 6.59398 20.9993 7.89098 20.9993C9.18798 20.9993 10.4319 20.484 11.349 19.5669L19.567 11.3489C20.0226 10.8959 20.3838 10.357 20.6297 9.76341C20.8757 9.16985 21.0016 8.53341 21 7.89091Z" fill="black"/>
</g>
<defs>
<clipPath id="clip0_606_6544">
<rect width="24" height="24" fill="white"/>
</clipPath>
</defs>
</svg>
