<svg width="24" height="24" viewBox="0 0 24 24" fill="none" xmlns="http://www.w3.org/2000/svg">
<g clip-path="url(#clip0_606_6691)">
<path d="M20.2139 4.3921L12.7339 0.192099C12.5097 0.0663088 12.2569 0.000244141 11.9999 0.000244141C11.7428 0.000244141 11.4901 0.0663088 11.2659 0.192099L3.78588 4.3921C3.24452 4.69676 2.79385 5.13983 2.48003 5.67593C2.16621 6.21203 2.0005 6.8219 1.99988 7.4431V17.5001C2.00199 19.2234 2.68749 20.8754 3.90602 22.094C5.12455 23.3125 6.77662 23.998 8.49988 24.0001H15.4999C17.2231 23.998 18.8752 23.3125 20.0937 22.094C21.3123 20.8754 21.9978 19.2234 21.9999 17.5001V7.4431C21.9992 6.82192 21.8334 6.21209 21.5196 5.67601C21.2058 5.13992 20.7552 4.69684 20.2139 4.3921ZM18.9999 17.5001C18.9999 18.4284 18.6311 19.3186 17.9748 19.975C17.3184 20.6314 16.4281 21.0001 15.4999 21.0001H8.49988C7.57162 21.0001 6.68138 20.6314 6.025 19.975C5.36863 19.3186 4.99988 18.4284 4.99988 17.5001V7.4431C4.99985 7.35433 5.02346 7.26716 5.06828 7.19053C5.11309 7.11391 5.1775 7.05059 5.25488 7.0071L11.9999 3.2211L18.7439 7.0071C18.8214 7.05047 18.8861 7.11372 18.931 7.19036C18.976 7.26699 18.9998 7.35423 18.9999 7.4431V17.5001Z" fill="black"/>
<path d="M12.0001 11.0002C13.1047 11.0002 14.0001 10.1048 14.0001 9.00024C14.0001 7.89567 13.1047 7.00024 12.0001 7.00024C10.8956 7.00024 10.0001 7.89567 10.0001 9.00024C10.0001 10.1048 10.8956 11.0002 12.0001 11.0002Z" fill="black"/>
</g>
<defs>
<clipPath id="clip0_606_6691">
<rect width="24" height="24" fill="white"/>
</clipPath>
</defs>
</svg>
