<svg width="24" height="24" viewBox="0 0 24 24" fill="none" xmlns="http://www.w3.org/2000/svg">
<g clip-path="url(#clip0_606_6628)">
<path d="M10.492 20.8094C9.60863 20.8086 8.74867 20.5251 8.03802 20.0004L1.70002 15.3524C1.17419 14.9663 0.746628 14.4618 0.451927 13.8799C0.157225 13.2979 0.00366211 12.6547 0.00366211 12.0024C0.00366211 11.35 0.157225 10.7068 0.451927 10.1248C0.746628 9.54287 1.17419 9.03843 1.70002 8.65235L8.03702 4.00035C8.57236 3.60802 9.19381 3.34948 9.84945 3.24632C10.5051 3.14315 11.1759 3.19836 11.8059 3.40734C12.4358 3.61631 13.0066 3.97298 13.4706 4.44756C13.9346 4.92214 14.2783 5.50085 14.473 6.13535L17.386 4.00035C18.0054 3.54606 18.7386 3.27231 19.5041 3.20948C20.2697 3.14666 21.0376 3.29722 21.7228 3.64446C22.4079 3.9917 22.9835 4.52203 23.3855 5.17656C23.7874 5.8311 24.0002 6.58423 24 7.35235V16.6524C23.9994 17.4201 23.7862 18.1727 23.3839 18.8267C22.9816 19.4807 22.406 20.0104 21.721 20.3572C21.036 20.7039 20.2683 20.8541 19.5031 20.7911C18.7379 20.7282 18.0051 20.4544 17.386 20.0004L14.473 17.8654C14.2104 18.7166 13.6823 19.4615 12.966 19.9912C12.2498 20.5209 11.3829 20.8076 10.492 20.8094ZM10.482 6.18935C10.2395 6.19108 10.004 6.27144 9.81102 6.41835L3.47302 11.0674C3.32648 11.1748 3.20732 11.3153 3.12518 11.4774C3.04305 11.6395 3.00024 11.8186 3.00024 12.0004C3.00024 12.1821 3.04305 12.3612 3.12518 12.5233C3.20732 12.6854 3.32648 12.8259 3.47302 12.9334L9.81202 17.5824C9.98451 17.7085 10.1886 17.7844 10.4016 17.8017C10.6146 17.8189 10.8282 17.7769 11.0187 17.6802C11.2093 17.5834 11.3693 17.4358 11.4811 17.2537C11.5929 17.0716 11.652 16.8621 11.652 16.6484V15.0374C11.652 14.7601 11.7287 14.4883 11.8738 14.2521C12.0188 14.0158 12.2265 13.8244 12.4738 13.6991C12.7211 13.5737 12.9982 13.5194 13.2745 13.542C13.5508 13.5647 13.8155 13.6634 14.039 13.8274L19.159 17.5824C19.3316 17.7084 19.5357 17.7842 19.7487 17.8015C19.9617 17.8187 20.1754 17.7766 20.3659 17.6799C20.5565 17.5832 20.7166 17.4357 20.8286 17.2536C20.9405 17.0716 20.9998 16.8621 21 16.6484V7.34835C20.9998 7.13464 20.9405 6.92516 20.8286 6.74309C20.7166 6.56102 20.5565 6.41348 20.3659 6.31679C20.1754 6.2201 19.9617 6.17803 19.7487 6.19525C19.5357 6.21247 19.3316 6.28831 19.159 6.41435L14.039 10.1694C13.8155 10.3333 13.5508 10.4321 13.2745 10.4547C12.9982 10.4773 12.7211 10.423 12.4738 10.2976C12.2265 10.1723 12.0188 9.98088 11.8738 9.74464C11.7287 9.5084 11.652 9.23658 11.652 8.95935V7.35235C11.6554 7.13799 11.5976 6.92709 11.4855 6.74433C11.3734 6.56158 11.2116 6.41452 11.019 6.32035C10.8524 6.23611 10.6687 6.19129 10.482 6.18935Z" fill="black"/>
</g>
<defs>
<clipPath id="clip0_606_6628">
<rect width="24" height="24" fill="white"/>
</clipPath>
</defs>
</svg>
