<svg width="24" height="24" viewBox="0 0 24 24" fill="none" xmlns="http://www.w3.org/2000/svg">
<g clip-path="url(#clip0_606_6981)">
<path d="M13.5 17C13.5 17.2967 13.412 17.5867 13.2472 17.8334C13.0824 18.08 12.8481 18.2723 12.574 18.3858C12.2999 18.4994 11.9983 18.5291 11.7074 18.4712C11.4164 18.4133 11.1491 18.2704 10.9393 18.0607C10.7296 17.8509 10.5867 17.5836 10.5288 17.2926C10.4709 17.0017 10.5007 16.7001 10.6142 16.426C10.7277 16.1519 10.92 15.9176 11.1666 15.7528C11.4133 15.588 11.7033 15.5 12 15.5C12.3978 15.5 12.7794 15.658 13.0607 15.9393C13.342 16.2206 13.5 16.6022 13.5 17ZM20.879 21.909C21.0357 22.2747 21.0408 22.6878 20.893 23.0572C20.7452 23.4266 20.4567 23.7223 20.091 23.879C19.7253 24.0357 19.3122 24.0408 18.9428 23.893C18.5734 23.7452 18.2777 23.4567 18.121 23.091L17.242 21.04C15.5747 21.7014 13.7934 22.0276 12 22C10.2066 22.027 8.42543 21.7008 6.758 21.04L5.879 23.091C5.80139 23.2721 5.68887 23.4361 5.54787 23.5737C5.40686 23.7113 5.24013 23.8198 5.0572 23.893C4.87427 23.9662 4.67872 24.0026 4.48171 24.0002C4.2847 23.9978 4.09009 23.9566 3.909 23.879C3.72791 23.8014 3.56388 23.6889 3.42627 23.5479C3.28866 23.4069 3.18017 23.2401 3.107 23.0572C3.03383 22.8743 2.9974 22.6787 2.99981 22.4817C3.00221 22.2847 3.04339 22.0901 3.121 21.909L4.229 19.325C3.43458 18.3674 2.99984 17.1622 3 15.918V5.984C2.99385 4.86507 3.34354 3.77315 3.99854 2.86595C4.65355 1.95876 5.57998 1.28325 6.644 0.937C8.36976 0.348112 10.1768 0.0319796 12 0C13.8232 0.0318166 15.6303 0.347953 17.356 0.937C18.42 1.28325 19.3465 1.95876 20.0015 2.86595C20.6565 3.77315 21.0062 4.86507 21 5.984V15.918C21.0005 17.1624 20.5661 18.3679 19.772 19.326L20.879 21.909ZM6 6.25C6 8.2 8.118 12 12 12C15.882 12 18 8.2 18 6.25V5.984C18.0049 5.49933 17.8556 5.02564 17.5738 4.6313C17.292 4.23696 16.8921 3.94236 16.432 3.79C16.087 3.678 15.747 3.584 15.41 3.495C15.3077 3.78771 15.1172 4.04151 14.8647 4.22149C14.6122 4.40147 14.3101 4.49877 14 4.5H10C9.69049 4.4998 9.38868 4.40348 9.13628 4.22434C8.88388 4.04521 8.69334 3.7921 8.591 3.5C8.253 3.589 7.913 3.683 7.568 3.795C7.10869 3.9471 6.70946 4.24094 6.4277 4.63428C6.14595 5.02762 5.99621 5.50018 6 5.984V6.25ZM12 19C13.6883 19.0577 15.3634 18.685 16.868 17.917C17.2177 17.7147 17.5071 17.4226 17.7061 17.071C17.9051 16.7194 18.0066 16.321 18 15.917V12.6C16.3832 14.1425 14.2345 15.0031 12 15.0031C9.76547 15.0031 7.61676 14.1425 6 12.6V15.921C5.99406 16.3251 6.09601 16.7235 6.29535 17.075C6.49468 17.4266 6.78419 17.7186 7.134 17.921C8.63833 18.6873 10.3128 19.0586 12 19Z" fill="black"/>
</g>
<defs>
<clipPath id="clip0_606_6981">
<rect width="24" height="24" fill="white"/>
</clipPath>
</defs>
</svg>
