<svg width="24" height="24" viewBox="0 0 24 24" fill="none" xmlns="http://www.w3.org/2000/svg">
<g clip-path="url(#clip0_606_6514)">
<path d="M20.4909 3.50999C18.813 1.83353 16.6756 0.692167 14.3491 0.230198C12.0226 -0.231771 9.61137 0.00638992 7.42019 0.914575C5.22902 1.82276 3.35628 3.3602 2.03873 5.33253C0.72117 7.30487 0.0179443 9.62356 0.0179443 11.9955C0.0179443 14.3674 0.72117 16.6861 2.03873 18.6585C3.35628 20.6308 5.22902 22.1682 7.42019 23.0764C9.61137 23.9846 12.0226 24.2228 14.3491 23.7608C16.6756 23.2988 18.813 22.1575 20.4909 20.481C22.7381 18.2287 24.0001 15.1771 24.0001 11.9955C24.0001 8.81392 22.7381 5.76226 20.4909 3.50999ZM20.7659 9.98599C19.0014 9.90461 17.3309 9.16712 16.0818 7.91808C14.8328 6.66904 14.0953 4.99853 14.0139 3.23399C15.6635 3.60392 17.1741 4.43501 18.3695 5.63044C19.5649 6.82586 20.396 8.33638 20.7659 9.98599ZM3.24493 14.001C5.01033 14.0822 6.68173 14.8199 7.93138 16.0695C9.18102 17.3192 9.91876 18.9906 9.99992 20.756C8.34922 20.3867 6.83761 19.5555 5.64153 18.3594C4.44545 17.1633 3.61424 15.6517 3.24493 14.001ZM18.3699 18.36C16.9231 19.8069 15.0245 20.715 12.9899 20.933C12.9593 18.311 11.9041 15.8051 10.05 13.951C8.19583 12.0968 5.68989 11.0416 3.06793 11.011C3.28604 8.97645 4.19403 7.07787 5.64092 5.63098C7.0878 4.1841 8.98638 3.2761 11.0209 3.05799C11.0538 5.67992 12.1093 8.18535 13.9625 10.0404C15.8157 11.8955 18.32 12.9535 20.9419 12.989C20.7223 15.0203 19.8148 16.9154 18.3699 18.36Z" fill="black"/>
</g>
<defs>
<clipPath id="clip0_606_6514">
<rect width="24" height="24" fill="white"/>
</clipPath>
</defs>
</svg>
