<svg width="24" height="24" viewBox="0 0 24 24" fill="none" xmlns="http://www.w3.org/2000/svg">
<g clip-path="url(#clip0_606_6844)">
<path d="M21.864 18.127C21.591 16.9546 20.9298 15.9089 19.9876 15.1597C19.0455 14.4105 17.8777 14.0018 16.674 14H13.5V12.384C14.9908 12.0174 16.2958 11.1176 17.1685 9.85443C18.0411 8.5913 18.421 7.05233 18.2364 5.52822C18.0517 4.0041 17.3154 2.60036 16.1663 1.58214C15.0173 0.563917 13.5352 0.00170898 12 0.00170898C10.4647 0.00170898 8.98259 0.563917 7.83357 1.58214C6.68455 2.60036 5.94818 4.0041 5.76355 5.52822C5.57892 7.05233 5.9588 8.5913 6.83146 9.85443C7.70411 11.1176 9.00911 12.0174 10.5 12.384V14H7.32596C6.12222 14.0018 4.95444 14.4105 4.01227 15.1597C3.0701 15.9089 2.40887 16.9546 2.13596 18.127C1.50356 18.317 0.951517 18.7104 0.565443 19.2461C0.179369 19.7818 -0.0191688 20.4299 0.000615035 21.09C0.0203989 21.75 0.257399 22.3851 0.674866 22.8967C1.09233 23.4083 1.66694 23.7679 2.30959 23.9197C2.95224 24.0715 3.62702 24.0071 4.22929 23.7363C4.83157 23.4656 5.3277 23.0037 5.64074 22.4223C5.95378 21.8408 6.06625 21.1724 5.9607 20.5205C5.85515 19.8687 5.53748 19.2699 5.05696 18.817C5.17341 18.3019 5.46132 17.8416 5.87354 17.5115C6.28576 17.1814 6.79785 17.001 7.32596 17H10.5V18.4C9.92803 18.7302 9.48104 19.2399 9.22832 19.85C8.97559 20.4601 8.93125 21.1366 9.10218 21.7745C9.2731 22.4124 9.64974 22.9761 10.1737 23.3781C10.6976 23.7801 11.3396 23.998 12 23.998C12.6604 23.998 13.3023 23.7801 13.8262 23.3781C14.3502 22.9761 14.7268 22.4124 14.8977 21.7745C15.0687 21.1366 15.0243 20.4601 14.7716 19.85C14.5189 19.2399 14.0719 18.7302 13.5 18.4V17H16.674C17.2021 17.001 17.7142 17.1814 18.1264 17.5115C18.5386 17.8416 18.8265 18.3019 18.943 18.817C18.4624 19.2699 18.1448 19.8687 18.0392 20.5205C17.9337 21.1724 18.0461 21.8408 18.3592 22.4223C18.6722 23.0037 19.1683 23.4656 19.7706 23.7363C20.3729 24.0071 21.0477 24.0715 21.6903 23.9197C22.333 23.7679 22.9076 23.4083 23.325 22.8967C23.7425 22.3851 23.9795 21.75 23.9993 21.09C24.0191 20.4299 23.8205 19.7818 23.4345 19.2461C23.0484 18.7104 22.4964 18.317 21.864 18.127ZM8.71796 6.28299C8.71796 5.63387 8.91044 4.99933 9.27107 4.45961C9.6317 3.91989 10.1443 3.49923 10.744 3.25082C11.3437 3.00241 12.0036 2.93742 12.6402 3.06406C13.2769 3.19069 13.8617 3.50327 14.3207 3.96227C14.7797 4.42126 15.0923 5.00606 15.2189 5.6427C15.3455 6.27935 15.2805 6.93925 15.0321 7.53896C14.7837 8.13866 14.3631 8.65124 13.8233 9.01187C13.2836 9.3725 12.6491 9.56499 12 9.56499C11.1298 9.56393 10.2957 9.21781 9.6804 8.60254C9.06514 7.98728 8.71902 7.1531 8.71796 6.28299Z" fill="black"/>
</g>
<defs>
<clipPath id="clip0_606_6844">
<rect width="24" height="24" fill="white"/>
</clipPath>
</defs>
</svg>
