<svg width="24" height="24" viewBox="0 0 24 24" fill="none" xmlns="http://www.w3.org/2000/svg">
<g clip-path="url(#clip0_606_6883)">
<path d="M22.0239 2.27816C21.4 1.75828 20.6686 1.38302 19.8825 1.17935C19.0963 0.975668 18.2748 0.948625 17.4769 1.10016L14.1939 1.78816C13.3781 1.93407 12.6187 2.30304 11.9999 2.85416C11.394 2.3071 10.6478 1.9394 9.84488 1.79216L6.48388 1.09216C5.69154 0.948076 4.87723 0.979754 4.09847 1.18495C3.31972 1.39016 2.59553 1.76387 1.97707 2.2797C1.35862 2.79552 0.860985 3.44087 0.519337 4.17014C0.177688 4.89942 0.000360667 5.69482 -0.000116775 6.50016V16.2922C-0.00189976 17.5767 0.446667 18.8213 1.26756 19.8094C2.08846 20.7974 3.22973 21.4665 4.49288 21.7002L10.2999 22.8472C10.8588 22.9491 11.4258 23.0003 11.9939 23.0002C12.5734 22.9998 13.1518 22.9472 13.7219 22.8432L19.4839 21.7002C20.7504 21.4699 21.896 20.8026 22.7212 19.8146C23.5464 18.8266 23.9989 17.5804 23.9999 16.2932V6.50016C24.0007 5.69451 23.824 4.89857 23.4825 4.16889C23.141 3.4392 22.643 2.79367 22.0239 2.27816ZM10.4999 19.8292L5.05288 18.7532C4.47676 18.6485 3.95567 18.3449 3.58048 17.8953C3.20529 17.4457 2.99982 16.8787 2.99988 16.2932V6.50016C3.00172 5.83872 3.26488 5.20481 3.73203 4.73654C4.19918 4.26827 4.83245 4.00358 5.49388 4.00016C5.63272 3.99989 5.77129 4.01227 5.90788 4.03716L9.26888 4.73716C9.61424 4.80011 9.92658 4.9822 10.1515 5.25172C10.3764 5.52124 10.4997 5.86111 10.4999 6.21216V19.8292ZM20.9999 16.2932C20.9988 16.8822 20.7902 17.4521 20.4107 17.9027C20.0313 18.3533 19.5052 18.6558 18.9249 18.7572L13.4999 19.8292V6.21216C13.502 5.85453 13.6308 5.50924 13.8636 5.2377C14.0963 4.96615 14.4178 4.78596 14.7709 4.72916L18.0529 4.04216C18.413 3.97671 18.7831 3.99114 19.137 4.08443C19.491 4.17771 19.8201 4.34757 20.1012 4.58201C20.3823 4.81645 20.6084 5.10975 20.7637 5.4412C20.919 5.77264 20.9996 6.13414 20.9999 6.50016V16.2932Z" fill="black"/>
</g>
<defs>
<clipPath id="clip0_606_6883">
<rect width="24" height="24" fill="white"/>
</clipPath>
</defs>
</svg>
