<svg width="24" height="24" viewBox="0 0 24 24" fill="none" xmlns="http://www.w3.org/2000/svg">
<g clip-path="url(#clip0_606_6617)">
<path d="M22.4422 11.988C21.6852 11.9947 21.0492 12.5587 20.9518 13.3093C20.2306 18.2367 15.6515 21.6466 10.7241 20.9254C5.79668 20.2042 2.38685 15.6251 3.10804 10.6977C3.82922 5.7703 8.40832 2.36048 13.3357 3.08166C15.0153 3.32748 16.5914 4.04242 17.8827 5.14427L16.7516 6.27541C16.3607 6.66636 16.3608 7.30017 16.7518 7.69103C16.9402 7.87937 17.1959 7.98485 17.4623 7.9841H22.0528C22.6056 7.9841 23.0538 7.53595 23.0538 6.98312V2.39257C23.0537 1.83974 22.6054 1.39169 22.0526 1.39178C21.7872 1.39183 21.5327 1.49726 21.3451 1.68486L20.0118 3.01817C15.0513 -1.37667 7.46727 -0.918155 3.07238 4.04237C-1.32252 9.0029 -0.863906 16.5869 4.09657 20.9818C9.05706 25.3767 16.6411 24.9182 21.036 19.9576C22.5831 18.2114 23.5876 16.052 23.9267 13.7438C24.0594 12.9174 23.497 12.1399 22.6706 12.0072C22.5951 11.995 22.5188 11.9886 22.4422 11.988Z" fill="black"/>
</g>
<defs>
<clipPath id="clip0_606_6617">
<rect width="24" height="24" fill="white"/>
</clipPath>
</defs>
</svg>
