<svg width="24" height="24" viewBox="0 0 24 24" fill="none" xmlns="http://www.w3.org/2000/svg">
<g clip-path="url(#clip0_606_6566)">
<path d="M24.0001 9.87553C24.0526 8.56516 23.8337 7.25809 23.3572 6.0363C22.8807 4.81451 22.1569 3.70438 21.2311 2.77553C19.5829 1.19938 17.445 0.234722 15.1726 0.041887C12.9002 -0.150948 10.6303 0.439653 8.7401 1.71553C8.2171 1.11838 7.55915 0.654644 6.82092 0.362855C6.08268 0.0710666 5.28548 -0.0403536 4.49554 0.037851C3.70559 0.116056 2.94571 0.381627 2.27903 0.812503C1.61234 1.24338 1.05809 1.82712 0.662326 2.51523C0.266561 3.20334 0.040706 3.97596 0.00352352 4.76889C-0.0336589 5.56183 0.118905 6.35219 0.44854 7.07431C0.778176 7.79644 1.27537 8.42949 1.89881 8.92086C2.52225 9.41223 3.25394 9.74775 4.0331 9.89953C3.98322 11.6577 4.34196 13.4035 5.0811 14.9995C5.1325 15.0915 5.1524 15.1978 5.13778 15.3021C5.12315 15.4065 5.07481 15.5032 5.0001 15.5775L1.1861 18.2415V18.2555C0.832328 18.5455 0.543999 18.9071 0.340109 19.3165C0.136218 19.726 0.0213932 20.174 0.00319658 20.6311C-0.015 21.0881 0.0638451 21.5438 0.234538 21.9682C0.405231 22.3926 0.663899 22.776 0.993502 23.0931C1.32311 23.4103 1.71616 23.654 2.14679 23.8082C2.57741 23.9625 3.03583 24.0237 3.49184 23.988C3.94785 23.9522 4.39111 23.8202 4.79242 23.6007C5.19373 23.3812 5.54398 23.0792 5.8201 22.7145L5.8301 22.7205L8.4001 18.9995C8.47283 18.9161 8.5712 18.8591 8.67978 18.8376C8.78837 18.816 8.90103 18.8311 9.0001 18.8805C10.3857 19.5858 11.9084 19.9806 13.4621 20.0375C13.8449 20.0402 14.2274 20.0135 14.6061 19.9575C16.9722 19.7648 19.1904 18.729 20.8571 17.0385C22.7826 15.1409 23.9075 12.5774 24.0001 9.87553ZM3.0001 4.99953C3.0001 4.60397 3.1174 4.21729 3.33716 3.88839C3.55693 3.55949 3.86928 3.30315 4.23474 3.15177C4.60019 3.0004 5.00232 2.96079 5.39028 3.03796C5.77824 3.11513 6.13461 3.30561 6.41432 3.58532C6.69402 3.86502 6.8845 4.22139 6.96167 4.60935C7.03884 4.99731 6.99924 5.39944 6.84786 5.7649C6.69649 6.13035 6.44014 6.44271 6.11124 6.66247C5.78234 6.88223 5.39566 6.99953 5.0001 6.99953C4.46967 6.99953 3.96096 6.78882 3.58589 6.41374C3.21082 6.03867 3.0001 5.52996 3.0001 4.99953ZM15.3781 16.7995L7.7461 9.17053C8.4376 8.71609 9.00551 8.09714 9.3989 7.36917C9.79229 6.64121 9.99887 5.82699 10.0001 4.99953C9.9919 4.83781 9.97555 4.6766 9.9511 4.51653C11.2702 3.47645 12.9182 2.94324 14.5965 3.0135C16.2749 3.08376 17.8726 3.75284 19.1001 4.89953C19.7364 5.53884 20.2337 6.30281 20.5606 7.14346C20.8876 7.98411 21.0372 8.88329 21.0001 9.78453C20.9298 11.7215 20.1208 13.5582 18.7391 14.9175C17.8191 15.8499 16.6538 16.5024 15.3781 16.7995Z" fill="black"/>
</g>
<defs>
<clipPath id="clip0_606_6566">
<rect width="24" height="24" fill="white"/>
</clipPath>
</defs>
</svg>
