<svg width="24" height="24" viewBox="0 0 24 24" fill="none" xmlns="http://www.w3.org/2000/svg">
<g clip-path="url(#clip0_606_6612)">
<path d="M18.9393 22.4595C18.9393 23.2853 18.2699 23.9547 17.4441 23.9547H1.49529C0.669489 23.9547 6.74925e-05 23.2853 6.74925e-05 22.4595C6.74925e-05 21.6337 0.669489 20.9643 1.49529 20.9643H17.4441C18.2699 20.9643 18.9393 21.6337 18.9393 22.4595ZM24.0001 8.50428C24.0001 11.5007 21.6078 14.9835 18.5177 14.9835H17.0344C16.4721 17.3299 14.3745 18.9848 11.9617 18.9856H6.97769C4.40796 18.9912 2.2144 17.13 1.80129 14.5937L0.06288 5.09422C-0.34287 2.7469 1.23105 0.515137 3.57836 0.109434C3.8201 0.0676686 4.06493 0.0465748 4.31022 0.0463873H14.6291C16.8867 0.0452154 18.7597 1.79234 18.9153 4.04454C22.1012 4.17514 24.0001 5.8129 24.0001 8.50428ZM15.934 4.55492C16.0435 3.83431 15.5482 3.16132 14.8276 3.05178C14.7619 3.04179 14.6956 3.03678 14.6291 3.03678H4.31022C3.58136 3.03959 2.99275 3.6327 2.99552 4.36161C2.9958 4.4344 3.00208 4.50706 3.01436 4.57882L4.75577 14.0794C4.9248 15.1773 5.8668 15.9895 6.97765 15.9952H11.9617C13.0684 15.9966 14.0122 15.1939 14.1885 14.1013V14.0774L15.934 4.55492ZM21.0097 8.50428C21.0097 8.05672 21.0097 7.00906 18.5246 7.00906L17.6116 11.9931H18.5177C19.659 11.9931 21.0097 10.0992 21.0097 8.50428Z" fill="black"/>
</g>
<defs>
<clipPath id="clip0_606_6612">
<rect width="24" height="24" fill="white"/>
</clipPath>
</defs>
</svg>
