<svg width="24" height="24" viewBox="0 0 24 24" fill="none" xmlns="http://www.w3.org/2000/svg">
<path d="M3.448 20.071C3.76031 20.6535 4.22465 21.1404 4.79163 21.4801C5.35862 21.8198 6.00706 21.9994 6.668 22H10.5V22.5C10.5 22.8978 10.658 23.2793 10.9393 23.5606C11.2206 23.8419 11.6022 24 12 24C12.3978 24 12.7794 23.8419 13.0607 23.5606C13.342 23.2793 13.5 22.8978 13.5 22.5V22H17.332C17.993 21.9993 18.6416 21.8195 19.2086 21.4797C19.7756 21.1398 20.2398 20.6527 20.552 20.07C20.8698 19.4805 21.0221 18.8161 20.9929 18.1471C20.9636 17.4781 20.7539 16.8295 20.386 16.27L19.261 14.56C19.4332 14.3837 19.5796 14.1841 19.696 13.967C19.9245 13.5442 20.0342 13.0673 20.0135 12.5872C19.9927 12.107 19.8422 11.6414 19.578 11.24L17.847 8.60596C17.9257 8.50295 17.9963 8.39395 18.058 8.27996C18.2876 7.86189 18.4007 7.38979 18.3854 6.91305C18.3701 6.43632 18.227 5.97245 17.971 5.56996C17.9339 5.51353 17.8939 5.45912 17.851 5.40696L14.052 0.914961C14.028 0.887961 14 0.860961 13.979 0.835961C13.4507 0.31768 12.7401 0.0273438 12 0.0273438C11.2599 0.0273438 10.5493 0.31768 10.021 0.835961C9.997 0.859961 9.973 0.885961 9.951 0.911961L6.135 5.39996C6.09238 5.45138 6.05265 5.50513 6.016 5.56096C5.75793 5.96294 5.61292 6.42702 5.5962 6.90442C5.57948 7.38182 5.69168 7.85491 5.921 8.27396C5.98638 8.39442 6.06129 8.50945 6.145 8.61796L4.422 11.237C4.15719 11.6381 4.00601 12.1035 3.98453 12.5836C3.96304 13.0638 4.07207 13.5408 4.3 13.964C4.41641 14.1811 4.56286 14.3807 4.735 14.557L3.61 16.267C3.24192 16.8273 3.0325 17.4768 3.00397 18.1466C2.97545 18.8164 3.12889 19.4814 3.448 20.071ZM6.12 17.915L8.251 14.675C8.3872 14.4677 8.46989 14.23 8.4917 13.983C8.5135 13.736 8.47373 13.4874 8.37595 13.2596C8.27816 13.0317 8.12541 12.8316 7.93136 12.6773C7.73732 12.5229 7.50802 12.419 7.264 12.375L9.5 8.97396C9.61578 8.79434 9.692 8.59213 9.72361 8.38077C9.75521 8.16942 9.74147 7.95376 9.6833 7.74812C9.62512 7.54249 9.52385 7.35159 9.38622 7.18811C9.24858 7.02463 9.07772 6.89232 8.885 6.79996L12 3.13496L15.1 6.79996C14.9077 6.89295 14.7375 7.02595 14.6007 7.19004C14.464 7.35414 14.3638 7.54555 14.307 7.75147C14.2502 7.95739 14.2381 8.17306 14.2713 8.38406C14.3046 8.59507 14.3826 8.79653 14.5 8.97496L16.737 12.375C16.493 12.419 16.2637 12.5229 16.0696 12.6773C15.8756 12.8316 15.7228 13.0317 15.6251 13.2596C15.5273 13.4874 15.4875 13.736 15.5093 13.983C15.5311 14.23 15.6138 14.4677 15.75 14.675L17.882 17.915C17.9543 18.0222 17.9954 18.1474 18.0009 18.2766C18.0064 18.4058 17.976 18.534 17.913 18.647C17.8593 18.7542 17.7766 18.8443 17.6742 18.9069C17.5718 18.9695 17.454 19.0021 17.334 19.001H6.668C6.54804 19.0021 6.43017 18.9695 6.32781 18.9069C6.22546 18.8443 6.14272 18.7542 6.089 18.647C6.02605 18.534 5.99562 18.4058 6.00109 18.2766C6.00656 18.1474 6.04772 18.0222 6.12 17.915Z" fill="black"/>
<path d="M11.5001 17.0005C12.3285 17.0005 13.0001 16.3289 13.0001 15.5005C13.0001 14.6721 12.3285 14.0005 11.5001 14.0005C10.6717 14.0005 10.0001 14.6721 10.0001 15.5005C10.0001 16.3289 10.6717 17.0005 11.5001 17.0005Z" fill="black"/>
<path d="M12.4999 12C13.3283 12 13.9999 11.3284 13.9999 10.5C13.9999 9.67157 13.3283 9 12.4999 9C11.6715 9 10.9999 9.67157 10.9999 10.5C10.9999 11.3284 11.6715 12 12.4999 12Z" fill="black"/>
</svg>
