<svg width="24" height="24" viewBox="0 0 24 24" fill="none" xmlns="http://www.w3.org/2000/svg">
<g clip-path="url(#clip0_606_6776)">
<path d="M19.679 2.62987C19.3927 1.93596 18.9263 1.33112 18.328 0.877866C17.7965 0.472571 17.1779 0.196745 16.5212 0.0722833C15.8646 -0.0521782 15.1879 -0.0218482 14.545 0.160866L12.945 0.608866C12.6104 0.702687 12.2923 0.847737 12.002 1.03887C11.712 0.847929 11.3942 0.702889 11.06 0.608866L9.454 0.160866C8.81124 -0.0216843 8.13478 -0.0519297 7.47829 0.072529C6.8218 0.196988 6.20335 0.472726 5.672 0.877866C5.07366 1.33112 4.60726 1.93596 4.321 2.62987C3.09741 2.90009 2.00251 3.57937 1.21695 4.55563C0.431395 5.5319 0.00213413 6.7468 0 7.99987L0 13.4999C0.00185226 14.958 0.58191 16.3559 1.61296 17.3869C2.64401 18.418 4.04188 18.998 5.5 18.9999H10.5V20.9999H8.5C8.10218 20.9999 7.72064 21.1579 7.43934 21.4392C7.15804 21.7205 7 22.102 7 22.4999C7 22.8977 7.15804 23.2792 7.43934 23.5605C7.72064 23.8418 8.10218 23.9999 8.5 23.9999H15.5C15.8978 23.9999 16.2794 23.8418 16.5607 23.5605C16.842 23.2792 17 22.8977 17 22.4999C17 22.102 16.842 21.7205 16.5607 21.4392C16.2794 21.1579 15.8978 20.9999 15.5 20.9999H13.5V18.9999H18.5C19.9581 18.998 21.356 18.418 22.387 17.3869C23.4181 16.3559 23.9981 14.958 24 13.4999V7.99987C23.9979 6.7468 23.5686 5.5319 22.7831 4.55563C21.9975 3.57937 20.9026 2.90009 19.679 2.62987ZM13.5 3.79987C13.5041 3.72954 13.5307 3.66239 13.5759 3.60836C13.6211 3.55433 13.6825 3.51629 13.751 3.49987L15.351 3.05187C15.4708 3.01826 15.5946 3.00077 15.719 2.99987C16.008 2.99889 16.2893 3.09346 16.519 3.26887C16.6695 3.37962 16.7918 3.52423 16.876 3.691C16.9603 3.85777 17.0041 4.04202 17.004 4.22887V7.80687C16.9987 8.07683 16.9056 8.33771 16.7387 8.54994C16.5717 8.76217 16.3401 8.91416 16.079 8.98287L13.5 9.69987V3.79987ZM7.485 3.26787C7.71376 3.09366 7.99346 2.99949 8.281 2.99987C8.40439 3.0006 8.52713 3.01775 8.646 3.05087L10.246 3.49887C10.3143 3.51547 10.3755 3.55359 10.4205 3.60761C10.4655 3.66162 10.492 3.72867 10.496 3.79887V9.69987L7.924 8.98287C7.66306 8.91398 7.43169 8.7619 7.26495 8.54969C7.09821 8.33748 7.0052 8.0767 7 7.80687V4.22787C6.99987 4.04102 7.04371 3.85677 7.12796 3.69C7.21221 3.52323 7.33452 3.37862 7.485 3.26787ZM21 13.4999C21 14.1629 20.7366 14.7988 20.2678 15.2676C19.7989 15.7365 19.163 15.9999 18.5 15.9999H5.5C4.83696 15.9999 4.20107 15.7365 3.73223 15.2676C3.26339 14.7988 3 14.1629 3 13.4999V7.99987C3.00101 7.61363 3.09189 7.23293 3.26545 6.88789C3.43902 6.54284 3.6905 6.24292 4 6.01187V7.81187C4.00673 8.7361 4.31457 9.63295 4.87686 10.3665C5.43915 11.1 6.22524 11.6303 7.116 11.8769L10.316 12.7769C11.415 13.0835 12.577 13.0835 13.676 12.7769L16.876 11.8769C17.7691 11.6315 18.5575 11.1011 19.1215 10.3665C19.6854 9.63178 19.9939 8.733 20 7.80687V6.00687C20.3102 6.23843 20.5621 6.53915 20.7357 6.88512C20.9093 7.23109 20.9998 7.61279 21 7.99987V13.4999Z" fill="black"/>
</g>
<defs>
<clipPath id="clip0_606_6776">
<rect width="24" height="24" fill="white"/>
</clipPath>
</defs>
</svg>
