<svg width="24" height="24" viewBox="0 0 24 24" fill="none" xmlns="http://www.w3.org/2000/svg">
<path d="M18.5 3H13.5V1.5C13.5 1.10218 13.342 0.720644 13.0607 0.43934C12.7794 0.158035 12.3978 0 12 0V0C11.6022 0 11.2206 0.158035 10.9393 0.43934C10.658 0.720644 10.5 1.10218 10.5 1.5V3H5.5C4.04131 3 2.64236 3.57946 1.61091 4.61091C0.579463 5.64236 0 7.04131 0 8.5L0 15.5C0 16.9587 0.579463 18.3576 1.61091 19.3891C2.64236 20.4205 4.04131 21 5.5 21H18.5C19.9587 21 21.3576 20.4205 22.3891 19.3891C23.4205 18.3576 24 16.9587 24 15.5V8.5C24 7.04131 23.4205 5.64236 22.3891 4.61091C21.3576 3.57946 19.9587 3 18.5 3ZM21 15.5C21 16.163 20.7366 16.7989 20.2678 17.2678C19.7989 17.7366 19.163 18 18.5 18H5.5C4.83696 18 4.20107 17.7366 3.73223 17.2678C3.26339 16.7989 3 16.163 3 15.5V8.5C3 7.83696 3.26339 7.20107 3.73223 6.73223C4.20107 6.26339 4.83696 6 5.5 6H18.5C19.163 6 19.7989 6.26339 20.2678 6.73223C20.7366 7.20107 21 7.83696 21 8.5V15.5Z" fill="black"/>
<path d="M6.49988 10.9998C7.32831 10.9998 7.99988 10.3282 7.99988 9.49976C7.99988 8.67133 7.32831 7.99976 6.49988 7.99976C5.67145 7.99976 4.99988 8.67133 4.99988 9.49976C4.99988 10.3282 5.67145 10.9998 6.49988 10.9998Z" fill="black"/>
<path d="M11.5001 10.9998C12.3285 10.9998 13.0001 10.3282 13.0001 9.49976C13.0001 8.67133 12.3285 7.99976 11.5001 7.99976C10.6717 7.99976 10.0001 8.67133 10.0001 9.49976C10.0001 10.3282 10.6717 10.9998 11.5001 10.9998Z" fill="black"/>
<path d="M17.5 7.99976H16.5C16.1022 7.99976 15.7206 8.15779 15.4393 8.4391C15.158 8.7204 15 9.10193 15 9.49976C15 9.89758 15.158 10.2791 15.4393 10.5604C15.7206 10.8417 16.1022 10.9998 16.5 10.9998H17.5C17.8978 10.9998 18.2793 10.8417 18.5607 10.5604C18.842 10.2791 19 9.89758 19 9.49976C19 9.10193 18.842 8.7204 18.5607 8.4391C18.2793 8.15779 17.8978 7.99976 17.5 7.99976Z" fill="black"/>
<path d="M11.4999 13.0002H6.49988C6.10205 13.0002 5.72052 13.1583 5.43922 13.4396C5.15791 13.7209 4.99988 14.1024 4.99988 14.5002C4.99988 14.8981 5.15791 15.2796 5.43922 15.5609C5.72052 15.8422 6.10205 16.0002 6.49988 16.0002H11.4999C11.8977 16.0002 12.2792 15.8422 12.5605 15.5609C12.8418 15.2796 12.9999 14.8981 12.9999 14.5002C12.9999 14.1024 12.8418 13.7209 12.5605 13.4396C12.2792 13.1583 11.8977 13.0002 11.4999 13.0002Z" fill="black"/>
<path d="M17.5 13.0002H16.5C16.1022 13.0002 15.7206 13.1583 15.4393 13.4396C15.158 13.7209 15 14.1024 15 14.5002C15 14.8981 15.158 15.2796 15.4393 15.5609C15.7206 15.8422 16.1022 16.0002 16.5 16.0002H17.5C17.8978 16.0002 18.2793 15.8422 18.5607 15.5609C18.842 15.2796 19 14.8981 19 14.5002C19 14.1024 18.842 13.7209 18.5607 13.4396C18.2793 13.1583 17.8978 13.0002 17.5 13.0002Z" fill="black"/>
</svg>
