<svg width="24" height="24" viewBox="0 0 24 24" fill="none" xmlns="http://www.w3.org/2000/svg">
<g clip-path="url(#clip0_606_6519)">
<path d="M23.268 0.733699C22.9715 0.4359 22.6045 0.218006 22.2011 0.100327C21.7977 -0.0173516 21.3711 -0.0309844 20.961 0.0606994C18.3735 0.841084 16.0266 2.26558 14.14 4.2007L5.92199 12.4227C4.5958 11.7485 3.17708 11.2743 1.71199 11.0157C1.32039 10.9633 0.923937 11.0676 0.608737 11.3058C0.293536 11.544 0.085044 11.8969 0.0285432 12.2879C-0.0279576 12.679 0.0720957 13.0765 0.306973 13.3942C0.541849 13.7119 0.892581 13.9241 1.28299 13.9847C2.9566 14.3022 4.5459 14.9642 5.94999 15.9287L2.99999 18.8797L2.56099 18.4397C2.2796 18.1583 1.89794 18.0002 1.49999 18.0002C1.10204 18.0002 0.720387 18.1583 0.438992 18.4397C0.157598 18.7211 -0.000488275 19.1028 -0.000488281 19.5007C-0.000488287 19.8987 0.157598 20.2803 0.438992 20.5617L3.43899 23.5617C3.72039 23.8431 4.10204 24.0012 4.49999 24.0012C4.69704 24.0012 4.89215 23.9624 5.0742 23.887C5.25625 23.8116 5.42166 23.701 5.56099 23.5617C5.70032 23.4224 5.81085 23.257 5.88626 23.0749C5.96166 22.8929 6.00047 22.6977 6.00047 22.5007C6.00047 22.3037 5.96166 22.1085 5.88626 21.9265C5.81085 21.7444 5.70032 21.579 5.56099 21.4397L5.12099 21.0007L8.07099 18.0497C9.0359 19.4537 9.69826 21.043 10.016 22.7167C10.0679 23.0733 10.2464 23.3993 10.5189 23.635C10.7914 23.8708 11.1397 24.0006 11.5 24.0007C11.5716 24.0007 11.6431 23.9956 11.714 23.9857C11.9093 23.9579 12.0972 23.8918 12.2669 23.7913C12.4367 23.6907 12.5849 23.5577 12.7032 23.3998C12.8214 23.2419 12.9073 23.0622 12.956 22.871C13.0048 22.6798 13.0153 22.4809 12.987 22.2857C12.7284 20.8206 12.2542 19.4019 11.58 18.0757L19.8 9.8597C21.6812 7.93049 23.0984 5.59818 23.944 3.0397C24.0349 2.62951 24.0206 2.20298 23.9024 1.79979C23.7843 1.39661 23.566 1.02987 23.268 0.733699ZM17.676 7.7387L9.89999 15.5147C9.68799 15.2627 9.46799 15.0147 9.22699 14.7727C8.98599 14.5307 8.73799 14.3117 8.48599 14.1007L16.261 6.3247C17.5151 5.07336 18.9962 4.07251 20.625 3.3757C19.9279 5.00408 18.9271 6.4848 17.676 7.7387Z" fill="black"/>
</g>
<defs>
<clipPath id="clip0_606_6519">
<rect width="24" height="24" fill="white"/>
</clipPath>
</defs>
</svg>
