<svg width="16" height="16" viewBox="0 0 16 16" fill="none" xmlns="http://www.w3.org/2000/svg">
<g clip-path="url(#clip0_2608_12518)">
<path d="M12.0007 9.00003V5.04737C12.0029 4.47783 11.8921 3.9135 11.6747 3.38709C11.4572 2.86068 11.1375 2.38265 10.734 1.9807L10.0173 1.2667C9.61537 0.863192 9.13734 0.54346 8.61093 0.326029C8.08452 0.108599 7.52019 -0.00220629 6.95065 3.32828e-05H5.00065C4.02852 0.00109206 3.0965 0.387741 2.4091 1.07514C1.72169 1.76255 1.33504 2.69456 1.33398 3.6667V9.00003C1.33504 9.97217 1.72169 10.9042 2.4091 11.5916C3.0965 12.279 4.02852 12.6656 5.00065 12.6667H8.33398C9.30612 12.6656 10.2381 12.279 10.9255 11.5916C11.6129 10.9042 11.9996 9.97217 12.0007 9.00003ZM3.33398 9.00003V3.6667C3.33398 3.22467 3.50958 2.80075 3.82214 2.48819C4.1347 2.17563 4.55862 2.00003 5.00065 2.00003H6.95332C7.08101 2.00204 7.20833 2.01453 7.33398 2.03737V3.33337C7.33398 3.68699 7.47446 4.02613 7.72451 4.27618C7.97456 4.52623 8.3137 4.6667 8.66732 4.6667H9.96332C9.98616 4.79235 9.99865 4.91967 10.0007 5.04737V9.00003C10.0007 9.44206 9.82506 9.86598 9.5125 10.1785C9.19994 10.4911 8.77601 10.6667 8.33398 10.6667H5.00065C4.55862 10.6667 4.1347 10.4911 3.82214 10.1785C3.50958 9.86598 3.33398 9.44206 3.33398 9.00003ZM15.334 5.6667V12.3334C15.3329 13.3055 14.9463 14.2375 14.2589 14.9249C13.5715 15.6123 12.6395 15.999 11.6673 16H6.33398C6.06877 16 5.81441 15.8947 5.62688 15.7071C5.43934 15.5196 5.33398 15.2653 5.33398 15C5.33398 14.7348 5.43934 14.4805 5.62688 14.2929C5.81441 14.1054 6.06877 14 6.33398 14H11.6673C12.1093 14 12.5333 13.8244 12.8458 13.5119C13.1584 13.1993 13.334 12.7754 13.334 12.3334V5.6667C13.334 5.40148 13.4393 5.14713 13.6269 4.95959C13.8144 4.77206 14.0688 4.6667 14.334 4.6667C14.5992 4.6667 14.8536 4.77206 15.0411 4.95959C15.2286 5.14713 15.334 5.40148 15.334 5.6667Z" fill="#5F696C"/>
</g>
<defs>
<clipPath id="clip0_2608_12518">
<rect width="16" height="16" fill="white"/>
</clipPath>
</defs>
</svg>
