<svg width="24" height="24" viewBox="0 0 24 24" fill="none" xmlns="http://www.w3.org/2000/svg">
<g clip-path="url(#clip0_606_6562)">
<path d="M19.9999 9.00038H18.3739L14.3149 1.83638C13.9974 1.23598 13.5106 0.741968 12.9149 0.415603C12.3192 0.0892373 11.6409 -0.0551353 10.9639 0.000382655C10.4932 0.0117968 10.0313 0.130294 9.61316 0.34688C9.19506 0.563467 8.8318 0.872451 8.55093 1.25038C8.25386 1.64617 8.05484 2.10675 7.97018 2.59433C7.88553 3.08191 7.91766 3.58262 8.06394 4.05538L9.70494 9.00038H8.12294C7.79437 9.00101 7.46893 8.93666 7.16534 8.81104C6.86174 8.68541 6.58598 8.50099 6.35393 8.26838L4.93693 6.85138C4.4996 6.41384 3.93421 6.12705 3.32282 6.03264C2.71144 5.93824 2.08587 6.04113 1.53693 6.32638C1.19658 6.50209 0.895695 6.74546 0.652723 7.04156C0.409751 7.33767 0.229812 7.68027 0.123934 8.04838C-0.0985072 8.80338 -0.0185348 9.6153 0.346934 10.3124C0.346934 10.3124 1.98193 14.1774 2.01193 14.2294C2.49401 15.0703 3.18926 15.7692 4.02759 16.2557C4.86591 16.7421 5.81768 16.999 6.78693 17.0004H9.45494L8.19993 19.7714C8.0226 20.245 7.9626 20.7544 8.02509 21.2563C8.08757 21.7581 8.27067 22.2373 8.55873 22.6529C8.84679 23.0685 9.23123 23.4082 9.67918 23.6429C10.1271 23.8775 10.6252 24.0002 11.1309 24.0004C11.7409 24.0004 12.3402 23.8411 12.8696 23.5382C13.3989 23.2353 13.84 22.7993 14.1489 22.2734L17.9899 17.0004H19.9999C21.0608 17.0004 22.0782 16.579 22.8284 15.8288C23.5785 15.0787 23.9999 14.0612 23.9999 13.0004C23.9999 11.9395 23.5785 10.9221 22.8284 10.172C22.0782 9.42181 21.0608 9.00038 19.9999 9.00038ZM10.9289 3.16538C10.9239 3.14838 10.8999 3.00038 11.0529 3.00038H11.2449C11.3385 2.99641 11.431 3.02122 11.5101 3.07147C11.5891 3.12171 11.6508 3.19497 11.6869 3.28138L14.9259 9.00038H12.8649L10.9289 3.16538ZM19.9999 14.0004H17.2269C16.9906 14.0005 16.7576 14.0564 16.547 14.1636C16.3364 14.2709 16.1541 14.4263 16.0149 14.6174C16.0149 14.6174 11.5999 20.6834 11.5699 20.7394C11.527 20.8183 11.4635 20.8842 11.3863 20.9302C11.309 20.9761 11.2208 21.0004 11.1309 21.0004C10.9699 21.0004 10.9979 20.8794 10.9919 20.8794L13.1459 16.1194C13.2494 15.8909 13.294 15.6402 13.2756 15.3901C13.2571 15.1399 13.1762 14.8984 13.0404 14.6877C12.9045 14.4769 12.7179 14.3035 12.4977 14.1834C12.2775 14.0634 12.0307 14.0004 11.7799 14.0004H6.78693C6.35987 13.9996 5.94006 13.8898 5.56731 13.6814C5.19455 13.473 4.8812 13.1728 4.65693 12.8094L3.19993 9.35438L4.23393 10.3894C4.74358 10.9015 5.34968 11.3076 6.0172 11.5841C6.68471 11.8606 7.40041 12.0021 8.12294 12.0004H19.9999C20.2652 12.0004 20.5195 12.1057 20.707 12.2933C20.8946 12.4808 20.9999 12.7352 20.9999 13.0004C20.9999 13.2656 20.8946 13.52 20.707 13.7075C20.5195 13.895 20.2652 14.0004 19.9999 14.0004Z" fill="black"/>
</g>
<defs>
<clipPath id="clip0_606_6562">
<rect width="24" height="24" fill="white"/>
</clipPath>
</defs>
</svg>
