<svg width="16" height="16" viewBox="0 0 12 12" fill="none" xmlns="http://www.w3.org/2000/svg">
<g clip-path="url(#clip0_2202_741)">
<path d="M11.2795 5.50016C11.1808 5.49464 11.0821 5.50885 10.9889 5.54196C10.8958 5.57507 10.8102 5.62641 10.7372 5.69299C10.6641 5.75956 10.6051 5.84003 10.5635 5.92969C10.5219 6.01935 10.4987 6.11639 10.495 6.21516C10.4495 7.23455 10.0598 8.20843 9.38966 8.97792C8.7195 9.74741 7.80837 10.2671 6.80489 10.4522C5.80141 10.6374 4.76481 10.477 3.86419 9.99729C2.96357 9.51759 2.25207 8.74686 1.84576 7.81083C1.43945 6.8748 1.36231 5.82871 1.62692 4.84321C1.89153 3.8577 2.48228 2.99095 3.3028 2.38432C4.12331 1.7777 5.12517 1.46701 6.14495 1.50294C7.16473 1.53887 8.14224 1.91929 8.91803 2.58216L8.35353 3.14666C8.28362 3.21658 8.23602 3.30567 8.21673 3.40264C8.19745 3.49962 8.20735 3.60014 8.24519 3.69149C8.28302 3.78284 8.34709 3.86092 8.4293 3.91586C8.5115 3.9708 8.60815 4.00014 8.70703 4.00016H11C11.1326 4.00016 11.2598 3.94748 11.3536 3.85371C11.4473 3.75994 11.5 3.63277 11.5 3.50016V1.20716C11.5 1.10828 11.4707 1.01163 11.4157 0.929429C11.3608 0.847224 11.2827 0.783154 11.1914 0.745319C11.1 0.707484 10.9995 0.697583 10.9025 0.716866C10.8055 0.73615 10.7165 0.783753 10.6465 0.853658L9.97903 1.52116C8.96162 0.620562 7.66833 0.092493 6.31133 0.0235837C4.95433 -0.0453256 3.6142 0.349016 2.5108 1.14192C1.40739 1.93482 0.606233 3.07919 0.238752 4.3873C-0.128729 5.69541 -0.0407104 7.08958 0.488369 8.34109C1.01745 9.59259 1.95617 10.6271 3.15054 11.275C4.3449 11.9228 5.72398 12.1455 7.06154 11.9064C8.3991 11.6674 9.6157 10.9809 10.5118 9.95947C11.4078 8.93807 11.9301 7.64245 11.993 6.28516C11.9977 6.18676 11.983 6.0884 11.9497 5.9957C11.9164 5.90299 11.8651 5.81776 11.7989 5.74486C11.7326 5.67196 11.6527 5.61283 11.5635 5.57085C11.4744 5.52886 11.3779 5.50484 11.2795 5.50016V5.50016Z" fill="#A9ADB1"/>
<path d="M5.74994 3.49976C5.55103 3.49976 5.36026 3.57877 5.21961 3.71943C5.07896 3.86008 4.99994 4.05084 4.99994 4.24975V6.39625C5 6.66145 5.10539 6.91576 5.29294 7.10325L6.18944 7.99975C6.33089 8.13637 6.52034 8.21196 6.71699 8.21025C6.91363 8.20855 7.10174 8.12967 7.2408 7.99061C7.37986 7.85156 7.45873 7.66345 7.46044 7.4668C7.46215 7.27015 7.38655 7.0807 7.24994 6.93925L6.49994 6.18925V4.24975C6.49994 4.05084 6.42092 3.86008 6.28027 3.71943C6.13962 3.57877 5.94885 3.49976 5.74994 3.49976V3.49976Z" fill="#A9ADB1"/>
</g>
<defs>
<clipPath id="clip0_2202_741">
<rect width="12" height="12" fill="white"/>
</clipPath>
</defs>
</svg>
