<svg width="22" height="12" viewBox="0 0 17 12" fill="none" xmlns="http://www.w3.org/2000/svg">
<path d="M0.418 8.3V7.022H13.558C13.846 6.662 14.134 6.302 14.404 5.978C14.134 5.654 13.846 5.294 13.558 4.934H0.418V3.656H12.622C11.866 2.558 11.182 1.424 10.642 0.362H11.686C12.964 1.838 14.62 3.638 16.798 5.744V6.212C14.62 8.318 12.964 10.118 11.686 11.594H10.642C11.182 10.532 11.866 9.398 12.622 8.3H0.418Z" fill="#025B79"/>
<path d="M0.418 8.3V7.022H13.558C13.846 6.662 14.134 6.302 14.404 5.978C14.134 5.654 13.846 5.294 13.558 4.934H0.418V3.656H12.622C11.866 2.558 11.182 1.424 10.642 0.362H11.686C12.964 1.838 14.62 3.638 16.798 5.744V6.212C14.62 8.318 12.964 10.118 11.686 11.594H10.642C11.182 10.532 11.866 9.398 12.622 8.3H0.418Z" fill="black" fill-opacity="0.2"/>
</svg>
