<svg width="22" height="12" viewBox="0 0 22 12" fill="none" xmlns="http://www.w3.org/2000/svg">
<path d="M5.53 11.612C4.252 10.136 2.596 8.336 0.418 6.23V5.762C2.596 3.656 4.252 1.856 5.53 0.379999H6.574C6.034 1.442 5.35 2.576 4.594 3.674H17.122C16.366 2.576 15.682 1.442 15.142 0.379999H16.186C17.464 1.856 19.12 3.656 21.298 5.762V6.23C19.12 8.336 17.464 10.136 16.186 11.612H15.142C15.682 10.55 16.366 9.416 17.122 8.318H4.594C5.35 9.416 6.034 10.55 6.574 11.612H5.53ZM3.658 7.04H18.058C18.328 6.68 18.616 6.32 18.904 5.996C18.616 5.672 18.328 5.312 18.058 4.952H3.658C3.388 5.312 3.1 5.672 2.812 5.996C3.1 6.32 3.388 6.68 3.658 7.04Z" fill="#025B79"/>
<path d="M5.53 11.612C4.252 10.136 2.596 8.336 0.418 6.23V5.762C2.596 3.656 4.252 1.856 5.53 0.379999H6.574C6.034 1.442 5.35 2.576 4.594 3.674H17.122C16.366 2.576 15.682 1.442 15.142 0.379999H16.186C17.464 1.856 19.12 3.656 21.298 5.762V6.23C19.12 8.336 17.464 10.136 16.186 11.612H15.142C15.682 10.55 16.366 9.416 17.122 8.318H4.594C5.35 9.416 6.034 10.55 6.574 11.612H5.53ZM3.658 7.04H18.058C18.328 6.68 18.616 6.32 18.904 5.996C18.616 5.672 18.328 5.312 18.058 4.952H3.658C3.388 5.312 3.1 5.672 2.812 5.996C3.1 6.32 3.388 6.68 3.658 7.04Z" fill="black" fill-opacity="0.2"/>
</svg>
