<svg width="49" height="48" viewBox="0 0 49 48" fill="none" xmlns="http://www.w3.org/2000/svg">
<g clip-path="url(#clip0_768_6346)">
<path d="M20.3788 41.4863C17.1002 40.6821 14.1139 38.9722 11.7608 36.5518C9.40765 34.1314 7.78257 31.0981 7.07109 27.7982C6.35961 24.4984 6.59041 21.0649 7.73713 17.8899C8.88386 14.7149 10.9003 11.9264 13.5562 9.84274C16.2121 7.75907 19.4004 6.46423 22.757 6.10608C26.1137 5.74794 29.5034 6.34091 32.5392 7.81731C35.5749 9.2937 38.1343 11.594 39.9251 14.4556C41.7159 17.3171 42.666 20.6246 42.6668 24.0003C42.6668 24.7959 42.9828 25.559 43.5454 26.1216C44.108 26.6842 44.8711 27.0003 45.6668 27.0003C46.4624 27.0003 47.2255 26.6842 47.7881 26.1216C48.3507 25.559 48.6668 24.7959 48.6668 24.0003C48.6661 19.499 47.3995 15.0887 45.0118 11.2729C42.6241 7.45711 39.2113 4.38974 35.1634 2.42105C31.1155 0.452374 26.5955 -0.338253 22.1197 0.139463C17.6438 0.617179 13.3925 2.34398 9.85128 5.12267C6.31004 7.90136 3.62161 11.6199 2.09301 15.8537C0.564412 20.0875 0.257259 24.6658 1.20663 29.0658C2.156 33.4658 4.32362 37.5102 7.46196 40.737C10.6003 43.9638 14.5828 46.243 18.9548 47.3143C19.1877 47.372 19.4268 47.4009 19.6668 47.4003C20.3999 47.3995 21.1075 47.1303 21.6557 46.6434C22.2039 46.1566 22.5548 45.4858 22.6422 44.7579C22.7296 44.0299 22.5474 43.2952 22.13 42.6924C21.7126 42.0896 21.0889 41.6606 20.3768 41.4863H20.3788Z" fill="#5EB8D3"/>
<path d="M47.9089 31.8784C47.3463 31.3159 46.5834 31 45.7879 31C44.9924 31 44.2295 31.3159 43.6669 31.8784L34.0969 41.4424L29.8309 36.9224C29.558 36.6382 29.2319 36.4105 28.871 36.2524C28.5101 36.0942 28.1216 36.0087 27.7277 36.0007C27.3338 35.9928 26.9422 36.0624 26.5752 36.2058C26.2082 36.3492 25.8731 36.5635 25.5889 36.8364C25.3049 37.1094 25.0773 37.4357 24.9194 37.7966C24.7614 38.1575 24.6761 38.546 24.6683 38.94C24.6605 39.3339 24.7304 39.7255 24.8739 40.0924C25.0175 40.4593 25.2319 40.7943 25.5049 41.0784L30.6669 46.5204C31.0984 46.9774 31.6168 47.3437 32.1917 47.5978C32.7666 47.852 33.3865 47.9888 34.0149 48.0004H34.0889C35.3341 47.9962 36.5275 47.5019 37.4109 46.6244L47.9189 36.1204C48.48 35.5564 48.7942 34.7928 48.7923 33.9973C48.7904 33.2018 48.4727 32.4396 47.9089 31.8784V31.8784Z" fill="#5EB8D3"/>
<path d="M21.6668 15V22.11L16.8668 25.11C16.5327 25.3191 16.2432 25.592 16.0147 25.9131C15.7861 26.2341 15.6231 26.5971 15.5349 26.9812C15.4467 27.3652 15.435 27.763 15.5005 28.1516C15.566 28.5402 15.7075 28.9121 15.9168 29.246C16.1259 29.58 16.3988 29.8696 16.7199 30.0981C17.0409 30.3266 17.4039 30.4896 17.788 30.5779C18.172 30.6661 18.5698 30.6778 18.9584 30.6122C19.347 30.5467 19.7189 30.4053 20.0528 30.196L25.7908 26.596C26.3665 26.2352 26.8408 25.7338 27.169 25.1389C27.4973 24.544 27.6686 23.8754 27.6668 23.196V15C27.6668 14.2043 27.3507 13.4413 26.7881 12.8787C26.2255 12.3161 25.4624 12 24.6668 12C23.8711 12 23.1081 12.3161 22.5455 12.8787C21.9828 13.4413 21.6668 14.2043 21.6668 15V15Z" fill="#5EB8D3"/>
</g>
<defs>
<clipPath id="clip0_768_6346">
<rect width="48" height="48" fill="white" transform="translate(0.666748)"/>
</clipPath>
</defs>
</svg>
