<svg width="48" height="48" viewBox="0 0 48 48" fill="none" xmlns="http://www.w3.org/2000/svg">
<g clip-path="url(#clip0_768_6243)">
<path d="M25.4996 14C22.8925 14.1295 20.8808 16.3424 20.9996 18.95C21.1185 16.3424 19.1067 14.1295 16.4996 14C13.8925 14.1295 11.8808 16.3424 11.9996 18.95C11.9996 22.844 17.0756 27.4801 19.5997 29.51C20.417 30.1682 21.5824 30.1682 22.3997 29.51C24.9277 27.4801 29.9996 22.844 29.9996 18.95C30.1185 16.3424 28.1067 14.1295 25.4996 14Z" fill="#5EB8D3"/>
<path d="M47.1241 42.8761L37.8385 33.5885C44.7862 24.3049 42.8927 11.1469 33.6092 4.19912C24.3257 -2.74869 11.1676 -0.855032 4.21987 8.42856C-2.72785 17.7122 -0.83438 30.8702 8.44921 37.8179C15.9072 43.3994 26.1512 43.3994 33.6092 37.8179L42.8967 47.1074C44.0641 48.2747 45.9567 48.2747 47.1241 47.1074C48.2915 45.94 48.2915 44.0474 47.1241 42.88V42.8761ZM6.16303 21.0837C6.16303 12.8318 12.8525 6.14237 21.1043 6.14237C29.3562 6.14237 36.0456 12.8318 36.0456 21.0837C36.0456 29.3356 29.3562 36.025 21.1043 36.025C12.8561 36.0162 6.17184 29.3318 6.16303 21.0837Z" fill="#5EB8D3"/>
</g>
<defs>
<clipPath id="clip0_768_6243">
<rect width="48" height="48" fill="white"/>
</clipPath>
</defs>
</svg>
